$MeshFormat
2.2 0 8
$EndMeshFormat
$Nodes
822
1 0 0 0
2 10 0 0
3 10 4 0
4 5 4 0
5 5 8 0
6 0 8 0
7 0.9999999999991893 0 0
8 1.999999999996827 0 0
9 2.99999999999391 0 0
10 3.999999999991027 0 0
11 4.999999999992411 0 0
12 5.999999999993932 0 0
13 6.999999999995455 0 0
14 7.999999999996978 0 0
15 8.99999999999849 0 0
16 0.4999999999994974 0 0
17 1.499999999998109 0 0
18 2.499999999995282 0 0
19 3.499999999992468 0 0
20 4.499999999991612 0 0
21 5.499999999992929 0 0
22 6.499999999994778 0 0
23 7.499999999996366 0 0
24 8.499999999997188 0 0
25 9.499999999998703 0 0
26 10 0.9999999999976482 0
27 10 1.999999999994776 0
28 10 2.999999999997367 0
29 10 0.4999999999991029 0
30 10 1.499999999996212 0
31 10 2.499999999996071 0
32 10 3.499999999998683 0
33 9.098209268546993 4 0
34 8.342799100221502 4 0
35 7.710008936288468 4 0
36 7.179934836458507 4 0
37 6.73590356441775 4 0
38 6.363948518402379 4 0
39 6.05237008592635 4 0
40 5.791367818996478 4 0
41 5.572732050373724 4 0
42 5.38958572236606 4 0
43 5.236168154845547 4 0
44 5.107653701200252 4 0
45 9.549104634274036 4 0
46 8.720504184383646 4 0
47 8.026404018255004 4 0
48 7.444971886373645 4 0
49 6.957919200438161 4 0
50 6.549926041410426 4 0
51 6.208159302164308 4 0
52 5.921868952461501 4 0
53 5.682049934685346 4 0
54 5.481158886369934 4 0
55 5.312876938605778 4 0
56 5.171910928022982 4 0
57 5.05382685060013 4 0
58 5 4.103487444499084 0
59 5 4.231071603407235 0
60 5 4.388363333810395 0
61 5 4.582279894789178 0
62 5 4.821349284754179 0
63 5 5.116085233960702 0
64 5 5.479449468640624 0
65 5 5.927421923780834 0
66 5 6.479703254416261 0
67 5 7.160581564751164 0
68 5 4.051743722249488 0
69 5 4.16727952395316 0
70 5 4.309717468608815 0
71 5 4.485321614299667 0
72 5 4.70181458977158 0
73 5 4.968717259357646 0
74 5 5.297767351300564 0
75 5 5.703435696210737 0
76 5 6.203562589098102 0
77 5 6.820142409582768 0
78 5 7.580290782374774 0
79 3.999999999999998 8 0
80 2.999999999999996 8 0
81 1.999999999999994 8 0
82 0.9999999999999911 8 0
83 4.500000000000036 8 0
84 3.499999999999529 8 0
85 2.500000000001225 8 0
86 1.500000000000114 8 0
87 0.4999999999998748 8 0
88 0 6.999999999996009 0
89 0 6.000000000002772 0
90 0 5.00000000000971 0
91 0 4.000000000016473 0
92 0 3.000000000012484 0
93 0 2.000000000008323 0
94 0 1.000000000004162 0
95 0 7.499999999998548 0
96 0 6.499999999999012 0
97 0 5.500000000006812 0
98 0 4.500000000012948 0
99 0 3.500000000014478 0
100 0 2.500000000010404 0
101 0 1.500000000006242 0
102 0 0.500000000002081 0
103 4.87664512146536 4.309717468608815 0
104 4.76743117243357 4.964854069484286 0
105 5.301508356118292 3.883121880041694 0
106 5.943984459306383 3.788580507862605 0
107 0.8006087695551969 3.50811907578567 0
108 6.953023980319076 3.691266898935714 0
109 3.46858389684906 0.9168502976792855 0
110 4.672349398157902 5.69304815887739 0
111 8.026404018254986 3.496465003214079 0
112 0.8633007110952885 5.504598343500847 0
113 5.435676669342667 0.8298406215874202 0
114 7.524311006009302 0.9386379503210734 0
115 2.568939294586564 7.134222058967585 0
116 4.525545978031966 6.734603406739677 0
117 0.7520150730769661 1.477042166769953 0
118 9.155224218697228 2.632969171866145 0
119 4.66767335408283 0.8051037526645113 0
120 4.054586210061046 1.555602490930732 0
121 5.059226883625311 1.574390973844934 0
122 5.755126653399486 1.579779328623545 0
123 5.437870819584283 2.16637889060721 0
124 6.026598449709955 2.199493920605011 0
125 5.694309329629477 2.733039792303896 0
126 5.185702287044709 2.669696035951213 0
127 5.362195024081645 3.060247969905196 0
128 4.985845922388002 3.035902907056386 0
129 4.774300504533729 2.694261825424818 0
130 4.611879793417304 3.116889091023687 0
131 4.372588497822882 2.7504238697816 0
132 4.216096095064445 3.108601390410224 0
133 3.941857962800467 2.781124543899171 0
134 3.80258023594706 3.232048963554853 0
135 3.459479748556723 2.811029481227136 0
136 3.248825250156649 3.263957324903618 0
137 3.56040491619941 3.669588219456127 0
138 3.041034515718962 3.739171268394174 0
139 3.359977287644228 4.135488030157771 0
140 2.899341614942704 2.82427816744503 0
141 2.820895206721573 4.248519877588228 0
142 3.260287813445531 4.679463697354872 0
143 4.437304015969654 3.391702086746058 0
144 3.849647200521225 4.011567708777293 0
145 2.580301169437266 4.800684011943805 0
146 2.977449618662223 5.288992580887983 0
147 6.256921916698127 2.718321428980781 0
148 6.610971376524689 2.247625006053271 0
149 2.457370655814255 3.789159235890537 0
150 3.164143779085705 2.301519202192444 0
151 2.503580466626172 2.268308596569732 0
152 5.162845538539881 3.360574284576891 0
153 3.600913425808244 5.208804021864949 0
154 3.37067359623681 5.776882313273701 0
155 5.473951757784786 3.379127280874493 0
156 2.327121601586468 5.428808554743465 0
157 4.540183262977584 2.367475068310311 0
158 1.930600101530086 4.838493164493421 0
159 6.802648932405942 2.766179933925274 0
160 7.208016134603221 2.32747639078723 0
161 2.828747679420054 1.719970423292576 0
162 2.271654792791088 2.924930349568304 0
163 1.841569407990733 2.371550774563698 0
164 6.243153251712664 0.8677913692470496 0
165 4.859777090218012 3.34084581862981 0
166 4.718621343689926 3.721440522575047 0
167 5.99880795412615 3.116832894616477 0
168 7.453036278130801 2.903873758475775 0
169 7.838836587284856 2.324118222973094 0
170 3.930910625887727 5.61926832279909 0
171 4.087244937958415 5.124462163468666 0
172 3.852018165426463 4.725794928982716 0
173 4.273155989421738 4.751186178823113 0
174 3.788839721498713 6.199028876240873 0
175 4.025875035603063 3.65747484090554 0
176 4.305976182765021 3.970496170852375 0
177 0.911879158845098 2.462160504894933 0
178 6.969666012532018 1.723539852041954 0
179 5.30495088705058 3.594488022909261 0
180 5.061616824631539 3.898958166821914 0
181 4.936075932883254 3.896162021963153 0
182 5.001670885094239 3.776592854499521 0
183 4.88615411673694 4.011741103808745 0
184 5.553024261474207 3.641934175548887 0
185 4.790089953427368 3.890358908394298 0
186 4.746482347783669 4.035916331067749 0
187 4.607562108130033 3.883525241156502 0
188 0.7499115045869342 4.495745118824584 0
189 1.597549709643165 3.99761044678311 0
190 4.81251158350046 4.70181458977168 0
191 2.572787748233259 0.8240013777430782 0
192 2.016025525526751 1.467602662356344 0
193 3.499754158620134 7.304413363433405 0
194 3.159237255021452 6.485363118349978 0
195 4.891602029533412 4.161487130733947 0
196 2.228772042644932 6.29141844108086 0
197 1.576228858979933 7.045139941582716 0
198 6.52860502219524 3.620106304234448 0
199 5.176129670468787 3.782815260607614 0
200 5.085662463985004 3.642572173521058 0
201 6.43608211984782 3.15534346186503 0
202 9.046452831977438 1.573327948462365 0
203 4.620499075848167 6.178439008577081 0
204 8.720504184384243 3.41149929320757 0
205 4.715310220631919 5.299858321017632 0
206 4.847833869076276 4.48221811240647 0
207 4.676921985549932 4.374263633879661 0
208 7.403046742168256 3.570200629709785 0
209 6.091539621005234 3.506977969218273 0
210 4.167560074436089 4.320011682001597 0
211 8.455365391183644 0.8242113374259219 0
212 5.48115888636989 3.857320241018948 0
213 5.6866625315004 3.823418515593069 0
214 0.8072223876483766 6.499810381120729 0
215 4.475853468799452 4.217787713104077 0
216 8.149178607782492 1.627796364315727 0
217 1.538258279715782 3.051104007877028 0
218 5.759775658829279 3.409706795806781 0
219 8.294027766616201 2.861946913433304 0
220 1.502713781615643 0.9051352050096383 0
221 4.451146014685061 3.667088247458599 0
222 4.896614656660827 3.62069935788402 0
223 6.196089541367117 3.783132956263065 0
224 4.570681055342001 4.768608455555583 0
225 4.462213999341987 5.060227541386906 0
226 4.701599959924094 4.190898042686958 0
227 3.468319188498702 1.773363134551674 0
228 3.934657203997196 2.060150906689775 0
229 6.417232444159096 1.617436868200267 0
230 4.359460620264284 5.452396059972155 0
231 2.710967793023647 3.317732483763911 0
232 1.590492679599222 5.513024576507119 0
233 4.468591687946576 4.500876982681702 0
234 2.250125611686444 4.326688550131331 0
235 4.953359044728673 2.261795034094843 0
236 2.795808184716977 5.863074640144575 0
237 8.500953433344524 2.217335520926778 0
238 4.675690407577582 1.93955042918433 0
239 4.321546753130272 7.334357729006609 0
240 6.929407179177855 3.284495164524337 0
241 9.400961874857707 3.400731535092292 0
242 5.001990385816679 3.474167680464476 0
243 5.176615341452884 3.912979061494244 0
244 2.017080442338681 3.433131347102757 0
245 0.7804208588227848 7.267155265539415 0
246 4.675308036283049 4.565556354859019 0
247 1.515331178766082 6.225546651728118 0
248 9.274858416296588 0.6959709803725437 0
249 0.7274655428994997 0.7399927189507138 0
250 1.277500035501637 4.929795719727108 0
251 5.663622646103579 3.160692285454586 0
252 5.363354412296351 3.751935916025281 0
253 4.483575797050934 1.47299387803998 0
254 3.673684757000066 4.377330758650169 0
255 6.880436611050245 1.071577456113513 0
256 4.868614554351123 3.781050733063208 0
257 5.8069973064231 3.634123592805923 0
258 4.311720113425343 5.898726820832221 0
259 1.433989027580663 1.794286646809891 0
260 4.230117054186744 6.363469230301051 0
261 3.910124613647515 6.781156122775458 0
262 7.538001669642378 1.788313756087816 0
263 4.148573250031182 2.424756142895286 0
264 4.66255715244013 3.476444187386203 0
265 4.306211021949252 1.970088152675069 0
266 4.086468216596269 0.9758796159961871 0
267 4.174594455373299 3.395039280129654 0
268 3.132875194070482 1.2967540679248 0
269 4.567494813480453 4.059724699773532 0
270 3.685859121550012 2.473825315239206 0
271 7.428041510149528 3.23703719409278 0
272 7.166226960673056 3.427347897117061 0
273 7.191221728654329 3.094184461500056 0
274 4.421918522381869 4.759897317189348 0
275 4.516447527341994 4.914417998471245 0
276 4.367684994381863 4.90570686010501 0
277 7.739720148192894 3.200169380844927 0
278 7.714725380211621 3.533332816461932 0
279 4.165925609184042 3.813985505878957 0
280 4.238510525144061 3.662281544182069 0
281 4.378561098725041 3.818792209155487 0
282 7.178035361243666 3.630733764322749 0
283 6.941215579748466 3.487881031730026 0
284 5.174020473234823 3.048075438480791 0
285 5.262520281310763 3.210411127241043 0
286 5.074345730463941 3.198238595816639 0
287 6.621576625854059 0.4338956846235248 0
288 6.940218305522849 0.5357887280567565 0
289 6.561794931381455 0.9696844126802813 0
290 6.017762040155809 3.647779238540439 0
291 5.875490882864741 3.711352050334264 0
292 5.949268463714168 3.570550781012098 0
293 7.873532022373501 2.88291033595454 0
294 8.160215892435595 3.179205958323692 0
295 4.062587077424101 4.738490553902915 0
296 4.009789119931276 4.522903305492157 0
297 4.220358031928914 4.535598930412355 0
298 5.440005808337093 2.701367914127554 0
299 5.528252176855561 2.896643881104546 0
300 5.273948655563177 2.864972002928204 0
301 8.597815719879964 1.600562156389046 0
302 8.77370313266098 1.895331734694572 0
303 8.325066020563508 1.922565942621253 0
304 5.085774104716355 2.8527994715038 0
305 6.121576625853297 0.4338956846235248 0
306 3.969631551692439 4.925128546225691 0
307 4.180200463690077 4.937824171145889 0
308 5.56609007460688 2.449709341455553 0
309 5.311786553314496 2.418037463279211 0
310 3.937761118062144 3.834521274841416 0
311 4.077811691643123 3.991031939814834 0
312 1.288114429489962 7.522569970791357 0
313 1.788114429489963 7.522569970791357 0
314 8.937864201540735 3.022234232536857 0
315 8.507265975500221 3.136723103320437 0
316 8.724625992656716 2.747458042649725 0
317 5.407176768512398 1.577085151234239 0
318 5.596498736491885 1.873079109615377 0
319 5.248548851604797 1.870384932226072 0
320 1.764074905586626 4.418051805638266 0
321 1.604050068515862 4.884144442110264 0
322 1.437524872572401 4.463703083255109 0
323 3.765912025847986 5.41403617233202 0
324 3.84407918188333 5.166633092666808 0
325 4.009077781923072 5.371865243133879 0
326 5.051675011712748 0.8174721871259658 0
327 5.247451776483989 1.202115797716177 0
328 4.863450118854071 1.189747363254723 0
329 3.761585053455053 1.236226394305009 0
330 3.761452699279874 1.664482812741203 0
331 3.468451542673881 1.34510671611548 0
332 4.576387727174692 4.296025673491869 0
333 4.588726714361773 4.204342877895517 0
334 4.689260972737013 4.282580838283309 0
335 4.816318232260304 4.023828717438247 0
336 4.888878073135176 4.086614117271346 0
337 4.819042188658541 4.098701730900848 0
338 2.172574937308453 2.319929685566715 0
339 1.928797466758742 1.919576718460021 0
340 2.259802996076462 1.867955629463038 0
341 5.925657639917256 3.458342382512527 0
342 5.78338648262619 3.521915194306352 0
343 5.23389821279523 3.477531153743076 0
344 5.195306675517792 3.618530098215159 0
345 5.124254001262443 3.501573229048975 0
346 2.666164073023113 1.994139509931154 0
347 2.422386602473402 1.59378654282446 0
348 5.732234634647119 2.18293640560611 0
349 5.860453889669715 2.466266856454453 0
350 7.24698850927066 1.331088901181513 0
351 7.53115633782584 1.363475853204444 0
352 7.253833841087198 1.755926804064885 0
353 0.8902104294113879 7.633577632769708 0
354 1.178324858901359 7.156147603561065 0
355 8.75090911158054 1.198769642944143 0
356 8.302271999483068 1.226003850870824 0
357 5.195614932156478 2.214086962351026 0
358 5.006292964176993 1.918093003969888 0
359 3.430600619626888 4.94413385960991 0
360 3.556152989435997 4.702629313168794 0
361 3.726465795617353 4.967299475423832 0
362 5.011311314378947 3.35071005160335 0
363 4.922811506303007 3.188374362843098 0
364 4.274729468650201 5.092344852427786 0
365 5.23881901329354 3.832968570324654 0
366 5.269742041382569 3.767375588316447 0
367 5.332431384207322 3.817528898033487 0
368 3.705026058360317 3.84057796411671 0
369 3.793139975901236 3.663531530180833 0
370 5.975615623163803 2.725680610642339 0
371 6.127864935412139 2.917577161798629 0
372 5.846558641877813 2.924936343460187 0
373 0.4316503555476442 5.252299171755278 0
374 0.3749557522934671 4.747872559417146 0
375 0.8066061078411113 5.000171731162716 0
376 1.013705770044286 4.712770419275846 0
377 1.070400373298463 5.217197031613978 0
378 9.278093046777467 3.016850353479219 0
379 9.060733029620975 3.406115414149931 0
380 1.199079239599181 3.75286476128439 0
381 1.169433524635489 3.279611541831349 0
382 1.567903994679473 3.52435722733007 0
383 5.595401661371076 1.204809975105482 0
384 4.94307705836847 4.057614274153915 0
385 4.94307705836847 4.005870551904373 0
386 5.318398648162333 3.369850782725692 0
387 5.389451322417683 3.486807651891877 0
388 2.2779468221157 5.860113497912162 0
389 1.909632361122077 5.902221508793989 0
390 1.958807140592845 5.470916565625291 0
391 3.466986285222799 4.52839722800252 0
392 3.762851461213264 4.551562843816443 0
393 6.446276770298809 3.810053152117224 0
394 6.632254293306495 3.810053152117224 0
395 4.754355648558647 3.805899715484672 0
396 4.793617949020525 3.751245627819127 0
397 4.829352253889246 3.835704820728753 0
398 2.02746018272871 3.893384841336824 0
399 2.353748133750349 4.057923893010934 0
400 1.923837660664804 4.162149498457221 0
401 4.444225015327357 3.529395167102328 0
402 4.31287023502918 3.531063763794127 0
403 4.305949235671477 3.393370683437856 0
404 3.920622415718078 4.348671220325883 0
405 5.418073390933215 3.219687625389844 0
406 0.7752601370710656 4.001932097305128 0
407 1.17373060711505 4.246677782803848 0
408 4.100234745488181 3.526257060517597 0
409 3.910650455875203 7.319385546220007 0
410 3.704939386133824 7.042784743104431 0
411 4.115835683388893 7.057756925891034 0
412 4.807618000175376 3.671069940229533 0
413 4.690589248065028 3.598942354980625 0
414 4.779585904550478 3.548571772635111 0
415 3.681492576073235 3.45081859150549 0
416 3.914227635775061 3.444761902230196 0
417 3.460191101921819 3.902538124806949 0
418 3.604812244082726 4.073527869467532 0
419 9.577612109348614 2.316484585930461 0
420 9.100838525337334 2.103148560164255 0
421 9.52322641598872 1.78666397422857 0
422 5.240540278759683 3.688651641758438 0
423 5.130896067226896 3.712693717064336 0
424 1.777669361027231 3.242117677489893 0
425 1.807315075990923 3.715370896942933 0
426 1.376724283417916 2.416855639729316 0
427 1.689913843853257 2.711327391220363 0
428 1.22506871928044 2.756632256385981 0
429 5.217838334667539 0.4149203107937101 0
430 4.83383667703762 0.4025518763322556 0
431 5.334152649673466 3.673211969467271 0
432 4.413987944240874 3.112745240716956 0
433 4.524591904693479 3.254295588884872 0
434 4.326700055517049 3.250151738578141 0
435 4.698826030778701 3.8869420747754 0
436 4.663091725909979 3.802482881865775 0
437 6.925051311791131 1.397558654077733 0
438 7.202373808529773 1.005107703217293 0
439 3.701488196247949 1.916757020620724 0
440 3.810258162773604 2.26698811096449 0
441 3.577089155024357 2.12359422489544 0
442 4.637218472928717 3.296666639204945 0
443 4.549930584204892 3.434073137066131 0
444 5.89086255155472 1.889636624614278 0
445 4.945801014766706 4.132487287616516 0
446 2.237225549076467 3.611145291496647 0
447 3.734291948420043 0.4584251488396427 0
448 3.234291948421485 0.4584251488396427 0
449 4.724041153853881 4.113407186877353 0
450 4.634547386702273 4.125311371230245 0
451 4.656988580632061 4.047820515420641 0
452 2.294406636880005 1.145802020049711 0
453 1.759369653571197 1.186368933682991 0
454 2.037750764924451 0.8645682913763583 0
455 3.777526056722664 0.9463649568377364 0
456 4.070527213328658 1.26574105346346 0
457 2.284469647293279 7.567111029483792 0
458 2.072584076783249 7.08968100027515 0
459 3.034346726603349 7.219317711200494 0
460 2.864088274804008 6.809792588658782 0
461 3.329495706820793 6.894888240891691 0
462 4.236768128600556 4.145253926426986 0
463 4.008603637478657 4.165789695389446 0
464 4.762772989015983 6.607153330577969 0
465 4.573022526940067 6.456521207658379 0
466 4.810249537924084 6.329071131496671 0
467 3.988587345660179 3.313544121842254 0
468 6.280019029884748 3.891566478131533 0
469 6.362347281781179 3.701619630248756 0
470 3.020685822541159 0.8704258377111819 0
471 2.786393874113585 0.4120006888715391 0
472 6.143814581186176 3.645055462740669 0
473 6.07003700033675 3.785856732062835 0
474 0.3760075365384831 1.738521083389138 0
475 0.8319471159610321 1.969601335832443 0
476 0.455939579422549 2.231080252451628 0
477 5.717838334668299 0.4149203107937101 0
478 5.839414960527665 0.848815995417235 0
479 2.286393874115043 0.4120006888715391 0
480 1.751356890806235 0.4525676025048191 0
481 4.836174699078951 5.586248813759007 0
482 4.69382980939491 5.496453239947511 0
483 4.857655110315959 5.389653894829128 0
484 2.090362856608265 4.582590857312375 0
485 7.645936432707829 2.613995990724435 0
486 8.066432176950528 2.593032568203199 0
487 0.3902104294113924 7.133577632767712 0
488 0.3902104294113924 7.633577632769708 0
489 0.4003043847775984 3.754059537901071 0
490 0.3749557522934671 4.247872559420529 0
491 5.831215300114865 3.138762590035532 0
492 5.678965987866528 2.946866038879241 0
493 1.172934093212881 2.128223575852412 0
494 1.637779217785698 2.082918710686794 0
495 3.300597191284592 1.535058601238237 0
496 3.300729545459771 1.106802182802042 0
497 4.798862857902654 3.076395999040037 0
498 4.735828441817658 3.228867454826749 0
499 8.828088826020876 2.425152346396462 0
500 2.398855668615748 6.712820250024222 0
501 2.694004648833192 6.388390779715419 0
502 4.796600994728752 4.176192586710453 0
503 6.141760183204041 2.458907674792896 0
504 0.4003043847775984 3.254059537899077 0
505 9.577612109348614 2.816484585931756 0
506 4.814524726153127 2.100672731639587 0
507 4.867458645601447 1.756970701514632 0
508 1.725007276553707 1.630944654583118 0
509 1.468351404598153 1.349710925909765 0
510 4.761167121329072 3.408645003008007 0
511 5.512908835092611 3.110470127679891 0
512 2.700767713826656 1.271985900517827 0
513 0.455939579422549 2.731080252453709 0
514 0.8562439642001474 2.985139790340302 0
515 4.771401340338123 1.523692425942457 0
516 4.575624575566883 1.139048815352246 0
517 4.043234108293648 0.4879398079980936 0
518 3.316231483792203 2.037441168372059 0
519 3.425001450317859 2.387672258715825 0
520 7.127842605268372 2.835026846200525 0
521 6.866028055791899 3.025337549224806 0
522 7.262155503002379 0.4693189751605367 0
523 3.761665978760645 4.194449233713732 0
524 2.78446964729328 7.567111029483792 0
525 3.249877079310065 7.652206681716702 0
526 4.333836677036929 0.4025518763322556 0
527 5.08241796217828 3.417370982520683 0
528 4.930883738017346 3.407506749547143 0
529 4.37707078533955 0.8904916843303492 0
530 3.485793511022528 5.492843167569324 0
531 3.650792111062269 5.698075318036396 0
532 4.456769145447527 3.927010706004439 0
533 4.529354061407547 3.775306744307551 0
534 3.474038488260082 6.342195997295425 0
535 3.849482167573114 6.490092499508165 0
536 3.534680934334483 6.633259620562718 0
537 3.749877079310066 7.652206681716702 0
538 0.4316503555476442 5.75229917175181 0
539 4.22335277911135 5.288429111720411 0
540 4.145185623076006 5.535832191385623 0
541 5.043826424900842 3.558369926992767 0
542 4.160773376565134 7.667178864503304 0
543 6.48234357102153 3.387724883049739 0
544 6.310072321600237 3.56354213672636 0
545 6.263810870426527 3.331160715541651 0
546 7.76215550300314 0.4693189751605367 0
547 4.521674141139952 4.138756206438805 0
548 4.880073213460865 2.865082366240602 0
549 4.980001395789219 2.681978930688016 0
550 4.878195873439419 3.480772588256915 0
551 1.127364427346305 1.191088685889796 0
552 1.093002050328815 1.635664406789922 0
553 4.572756836748254 4.437570308280682 0
554 4.472222578373014 4.35933234789289 0
555 9.52322641598872 1.286663974230006 0
556 6.045173787565692 3.311905431917375 0
557 5.879291806477714 3.263269845211629 0
558 4.390914825782236 4.094141941978226 0
559 4.32170677161777 4.268899697552837 0
560 3.118868716053877 4.984228139121427 0
561 3.289181522235234 5.248898301376466 0
562 6.346502018272973 2.936832445422906 0
563 6.217445036986985 3.136088178240754 0
564 4.836174699078951 5.810235041329112 0
565 5.513488009629496 3.51053072821169 0
566 5.428987574262393 3.618211099229074 0
567 7.836744806895897 1.2832171573184 0
568 7.843590138712435 1.708055060201771 0
569 7.868206477271727 3.74823250160704 0
570 8.184601559238244 3.74823250160704 0
571 4.519636371644289 4.634742719118643 0
572 4.571949862114812 4.53321666877036 0
573 4.622994545812524 4.667082405207301 0
574 4.693090148975516 2.905575458224253 0
575 4.762772989015983 6.94759248574542 0
576 8.22768269559031 0.4121056687129609 0
577 7.989838198596473 0.8814246438734976 0
578 4.515905009211092 5.572722109424772 0
579 4.537385420448102 5.376127190494893 0
580 8.531651642302872 3.705749646603785 0
581 8.909356726465617 3.705749646603785 0
582 6.682744649512838 3.219919313194683 0
583 6.729006100686547 3.452300734379393 0
584 4.90625579175023 4.642047242280428 0
585 4.830172726288368 4.592016351089075 0
586 4.923916934538138 4.532249003597824 0
587 0.8352615493718325 6.002204362310788 0
588 0.4036111938241883 6.24990519056175 0
589 6.529785424552035 2.742250681453028 0
590 6.619365526126881 2.960761697895152 0
591 4.883715586216785 5.040469651722495 0
592 4.883715586216785 4.893101677119232 0
593 0.3760075365384831 1.238521083387057 0
594 8.373454101319615 3.453982148210825 0
595 1.872051610705507 6.258482546404489 0
596 1.552911929182652 5.869285614117619 0
597 7.994007597533674 1.97595729364441 0
598 8.16989501031469 2.270726871949936 0
599 4.949302521238753 3.547433519174248 0
600 7.291490789313381 3.785100314854892 0
601 7.556527839228362 3.785100314854892 0
602 6.844463772368413 3.845633449467857 0
603 7.066479408388791 3.845633449467857 0
604 8.727682695591067 0.4121056687129609 0
605 5.45818933688528 3.696935045787084 0
606 4.93832256073268 4.349040401209605 0
607 4.93832256073268 4.270394536008025 0
608 3.525702743051855 3.248003144229235 0
609 3.40461508317803 3.466772772179873 0
610 4.90625579175023 4.76158193726293 0
611 2.852831471151871 1.060377722833939 0
612 2.980811436745268 1.508362245608688 0
613 0.4036111938241883 6.749905190558369 0
614 9.637429208148294 0.8479854901850959 0
615 9.637429208148294 0.3479854901862718 0
616 6.740814501257158 3.655686601585081 0
617 4.587528460805243 3.971624970465017 0
618 4.436735498122736 4.015110435312954 0
619 6.433946646611409 2.482973217517026 0
620 6.706810154465316 2.506902469989273 0
621 4.810249537924084 6.052930466178958 0
622 9.700480937428853 3.200365767544829 0
623 5.86767613915143 3.894290253931302 0
624 5.998177272616367 3.894290253931302 0
625 4.857655110315959 5.207971777489167 0
626 8.397490599980362 2.539641217180041 0
627 9.249585571702351 3.700365767546146 0
628 9.700480937428853 3.700365767546146 0
629 1.902500450812433 6.668279191331788 0
630 9.137429208147539 0.3479854901862718 0
631 4.660773376565135 7.667178864503304 0
632 4.660773376565135 7.247469646878886 0
633 5.26883825548192 3.941560940020847 0
634 5.345547039242176 3.941560940020847 0
635 4.863829774631201 2.478028429759831 0
636 5.069530665886691 2.465745535023028 0
637 3.31013255054488 4.407475863756321 0
638 3.516831022322147 4.25640939440397 0
639 3.300719715959186 3.704379743925151 0
640 3.200505901681595 3.937329649275973 0
641 4.377831516109355 6.549036318520364 0
642 4.425308065017456 6.270954119439066 0
643 7.005332533504582 2.546828162356252 0
644 7.330526206367011 2.615675074631503 0
645 5.999139952556074 1.223785348935297 0
646 4.423546365581119 7.034480567873143 0
647 4.21783529583974 6.757879764757567 0
648 4.789971377967015 4.833334329627982 0
649 4.923916934538138 4.435290723108432 0
650 5.629697290937062 3.911709257796534 0
651 5.739015175248439 3.911709257796534 0
652 1.189315944930685 5.865072497614483 0
653 1.161276783207229 6.362678516424424 0
654 3.174061607449516 5.532937447080842 0
655 5.435372304367975 3.928660120509474 0
656 5.526945468371807 3.928660120509474 0
657 4.009338165505753 3.170325176982538 0
658 4.195345275218872 3.251820335269939 0
659 4.584883679187493 3.694264385016823 0
660 4.556851583562596 3.571766217422401 0
661 2.561464893151722 5.64594159744402 0
662 2.512290113680955 6.077246540612718 0
663 6.124229813646734 3.891566478131533 0
664 3.85987517369322 5.909148599519982 0
665 4.121315369656536 5.758997571815655 0
666 4.050279917462028 6.048877848536547 0
667 3.090436247182901 4.192003953873 0
668 3.040591510083552 4.463991787471549 0
669 3.579756658867761 5.987955594757286 0
670 4.318075881191333 4.410444332341649 0
671 4.370873838684157 4.626031580752407 0
672 1.226896695347255 5.508811460003983 0
673 0.8637327714493446 0.3699963594753569 0
674 0.3637327714497499 0.3699963594753569 0
675 4.588762109986953 5.180042931202269 0
676 4.410837309803135 5.25631180067953 0
677 2.584169224418951 3.553445859827224 0
678 2.364024117681164 3.375431915433334 0
679 5.239061848785588 3.898050470767969 0
680 5.176372505960835 3.847897161050929 0
681 0.3637327714497499 0.8699963594774379 0
682 3.994621707029121 1.807876698810253 0
683 3.144929882937806 3.501564296648896 0
684 4.657241883755656 2.530868446867564 0
685 4.746771153853128 2.314635051202577 0
686 4.743909809891754 4.633685472315349 0
687 4.761570952679662 4.523887233632744 0
688 4.492234145620094 2.933656480402644 0
689 4.294342296443664 2.929512630095912 0
690 4.945801014766706 4.196279367070591 0
691 4.579633102314258 1.706272153612155 0
692 4.490950714763417 1.954819290929699 0
693 4.394893409500093 1.721541015357524 0
694 1.251356890807416 0.4525676025048191 0
695 4.078977028932457 2.944862967154697 0
696 3.872219099373763 3.006586753727012 0
697 6.318784913117321 2.223559463329141 0
698 2.977522719869214 6.174218879247277 0
699 2.920294491441399 4.740073854649339 0
700 2.778875394049745 5.044838296415894 0
701 3.631029992251891 3.021539222390994 0
702 3.354152499356686 3.037493403065377 0
703 2.453711385511867 5.114746283343635 0
704 2.128860851558277 5.133650859618443 0
705 2.255450635483676 4.819588588218613 0
706 2.491311292907368 3.121331416666107 0
707 2.144367617564884 3.17903084833553 0
708 2.056612100390911 2.648240562066001 0
709 1.904956536253435 2.988017178722666 0
710 6.909493755563955 2.28755069842025 0
711 2.930964861220268 3.993845572991201 0
712 2.701461040784438 2.546293382007382 0
713 2.585498203866896 2.874604258506667 0
714 2.38761762970863 2.596619473069018 0
715 5.815323495403391 3.805999511727837 0
716 6.33019284793588 1.242614118723658 0
717 6.086179548779291 1.598608098411906 0
718 2.70059818807942 4.524601944766016 0
719 7.688419128463617 2.056215989530455 0
720 7.523426360944038 2.325797306880162 0
721 2.639132931267914 4.018839556739382 0
722 2.749202585766608 3.764165252142356 0
723 4.669056113887786 4.866731262519934 0
724 4.69159631942123 4.735211522663631 0
725 0.7938216232355807 6.883482823330072 0
726 4.884123575499386 4.235602299671381 0
727 4.762377927313103 4.428240873143065 0
728 4.67611501091649 4.46990999436934 0
729 5.142134521326568 3.956489530747122 0
730 5.206391748149215 3.956489530747122 0
731 5.391333621244091 3.870221060530321 0
732 5.583910708935145 3.840369378306009 0
733 4.26908100355599 1.514298184485356 0
734 4.180398616005149 1.7628453218029 0
735 5.616863708307032 3.394417038340637 0
736 5.656399960151743 3.525820485677834 0
737 4.573444501178305 2.722342847603209 0
738 2.652285610124345 5.358900567815724 0
739 6.693449228345557 1.67048836012111 0
740 6.64883452760467 1.34450716215689 0
741 5.030808412315769 3.949479083410957 0
742 5.084635262915896 3.949479083410957 0
743 3.700668855678595 2.796077012563154 0
744 3.074083432549676 3.044117746174324 0
745 3.179410681749713 2.817653824336083 0
746 3.031742697014204 2.562898684818737 0
747 3.311811763821214 2.55627434170979 0
748 4.157223230311675 2.765774206840386 0
749 9.160655624137014 1.134649464417454 0
750 2.833862122855939 2.284913899381088 0
751 2.996445729252879 2.01074481274251 0
752 6.790318694528354 1.985582429047612 0
753 7.08884107356762 2.025508121414592 0
754 1.760546390564654 5.17575887050027 0
755 2.805154703983176 3.071005325604471 0
756 4.456385880400233 2.558949469045956 0
757 3.148533433959378 1.746666778922125 0
758 2.415213390561855 4.563686281037567 0
759 5.517091573922048 3.749627208283917 0
760 5.619843396487304 3.732676345570978 0
761 3.264955425629131 6.13112271581184 0
762 4.646424237003035 5.935743583727236 0
763 5.422256649333121 3.804628078522114 0
764 2.876001154371305 3.528451876079043 0
765 2.979896521590148 3.290844904333765 0
766 0.739740307988233 1.108517442860333 0
767 1.115089662257571 0.8225639619801761 0
768 4.741370696532744 5.132356195250959 0
769 6.221915446934525 1.908465394402639 0
770 8.865111903740116 0.7600911588992327 0
771 4.270918583806044 6.131098025566637 0
772 4.009478387842728 6.281249053270962 0
773 4.882614605505974 3.700875045473614 0
774 4.968037966441627 3.948081010981577 0
775 4.998846378757396 3.897560094392534 0
776 4.120434112973224 2.015119529682422 0
777 6.514101910341893 1.932530937126769 0
778 5.043666674539621 3.70958251401029 0
779 4.949142770877533 3.698646106191771 0
780 4.991138560322915 3.631635765702539 0
781 1.545780018873008 6.635343296655417 0
782 1.191725623314155 6.772475161351722 0
783 4.911115024810098 3.953951562885949 0
784 5.031643854862889 3.837775510660718 0
785 5.088900277781512 3.779704057553568 0
786 5.118873247550162 3.840886713714764 0
787 4.862239495270819 4.395967790507642 0
788 2.535510409204009 4.28760421385978 0
789 2.8866289016896 5.576033610516279 0
790 4.789122540694727 4.250307755647887 0
791 4.614822585887778 5.012540805435596 0
792 3.083240890476894 5.819978476709138 0
793 4.607936835277583 2.15351274874732 0
794 4.776783553507646 4.341990551244238 0
795 3.572669435053367 2.642427398233171 0
796 5.119116083042211 3.905968614158079 0
797 5.568787201944183 3.26990978316454 0
798 4.838122035082154 3.951050006101521 0
799 4.768286150605519 3.963137619731024 0
800 4.968873408988746 3.836377438231337 0
801 4.677022227956851 3.959720786112126 0
802 4.492034755791622 5.795887489854806 0
803 4.335590366844814 5.675561440402188 0
804 5.711699152466428 3.285199540630684 0
805 7.3730089021228 2.057895073437523 0
806 1.433996357550429 5.221410148117114 0
807 4.863082943155311 3.893260465178725 0
808 5.680010783948654 3.638028884177405 0
809 4.045215606415825 2.602940343397229 0
810 4.260580873927032 2.587590006338443 0
811 4.93514271972268 3.778821793781365 0
812 3.81385854217524 2.627474929569189 0
813 3.917216185790597 2.449290729067246 0
814 4.285022006823601 1.224436747018084 0
815 4.344378256504383 2.396115605602799 0
816 5.74682991896175 3.728771054199496 0
817 4.466109594636755 6.038582914704651 0
818 4.070120833917129 6.572312676538255 0
819 4.423197142463418 2.16878161049269 0
820 4.902345243617189 3.838606377513181 0
821 4.041615227014189 2.242453524792531 0
822 4.227392135990217 2.197422147785177 0
$EndNodes
$Elements
442
1 15 2 0 1 1
2 15 2 0 2 2
3 15 2 0 3 3
4 15 2 0 4 4
5 15 2 0 5 5
6 15 2 0 6 6
7 8 2 0 1 1 7 16
8 8 2 0 1 7 8 17
9 8 2 0 1 8 9 18
10 8 2 0 1 9 10 19
11 8 2 0 1 10 11 20
12 8 2 0 1 11 12 21
13 8 2 0 1 12 13 22
14 8 2 0 1 13 14 23
15 8 2 0 1 14 15 24
16 8 2 0 1 15 2 25
17 8 2 0 2 2 26 29
18 8 2 0 2 26 27 30
19 8 2 0 2 27 28 31
20 8 2 0 2 28 3 32
21 8 2 0 3 3 33 45
22 8 2 0 3 33 34 46
23 8 2 0 3 34 35 47
24 8 2 0 3 35 36 48
25 8 2 0 3 36 37 49
26 8 2 0 3 37 38 50
27 8 2 0 3 38 39 51
28 8 2 0 3 39 40 52
29 8 2 0 3 40 41 53
30 8 2 0 3 41 42 54
31 8 2 0 3 42 43 55
32 8 2 0 3 43 44 56
33 8 2 0 3 44 4 57
34 8 2 0 4 4 58 68
35 8 2 0 4 58 59 69
36 8 2 0 4 59 60 70
37 8 2 0 4 60 61 71
38 8 2 0 4 61 62 72
39 8 2 0 4 62 63 73
40 8 2 0 4 63 64 74
41 8 2 0 4 64 65 75
42 8 2 0 4 65 66 76
43 8 2 0 4 66 67 77
44 8 2 0 4 67 5 78
45 8 2 0 5 5 79 83
46 8 2 0 5 79 80 84
47 8 2 0 5 80 81 85
48 8 2 0 5 81 82 86
49 8 2 0 5 82 6 87
50 8 2 0 6 6 88 95
51 8 2 0 6 88 89 96
52 8 2 0 6 89 90 97
53 8 2 0 6 90 91 98
54 8 2 0 6 91 92 99
55 8 2 0 6 92 93 100
56 8 2 0 6 93 94 101
57 8 2 0 6 94 1 102
58 9 2 0 1 168 208 240 271 272 273
59 9 2 0 1 173 224 225 274 275 276
60 9 2 0 1 168 111 208 277 278 271
61 9 2 0 1 176 175 221 279 280 281
62 9 2 0 1 208 108 240 282 283 272
63 9 2 0 1 128 127 152 284 285 286
64 9 2 0 1 164 13 255 287 288 289
65 9 2 0 1 209 106 257 290 291 292
66 9 2 0 1 111 168 219 277 293 294
67 9 2 0 1 173 172 210 295 296 297
68 9 2 0 1 126 125 127 298 299 300
69 9 2 0 1 216 202 237 301 302 303
70 9 2 0 1 126 127 128 300 284 304
71 9 2 0 1 12 13 164 22 287 305
72 9 2 0 1 171 172 173 306 295 307
73 9 2 0 1 123 125 126 308 298 309
74 9 2 0 1 144 175 176 310 279 311
75 9 2 0 1 81 82 197 86 312 313
76 9 2 0 1 118 204 219 314 315 316
77 9 2 0 1 121 122 123 317 318 319
78 9 2 0 1 189 158 250 320 321 322
79 9 2 0 1 170 153 171 323 324 325
80 9 2 0 1 119 113 121 326 327 328
81 9 2 0 1 109 120 227 329 330 331
82 9 2 0 1 207 215 226 332 333 334
83 9 2 0 1 186 183 195 335 336 337
84 9 2 0 1 151 163 192 338 339 340
85 9 2 0 1 218 209 257 341 292 342
86 9 2 0 1 152 179 200 343 344 345
87 9 2 0 1 161 151 192 346 340 347
88 9 2 0 1 123 124 125 348 349 308
89 9 2 0 1 178 114 262 350 351 352
90 9 2 0 1 197 82 245 312 353 354
91 9 2 0 1 211 202 216 355 301 356
92 9 2 0 1 121 123 235 319 357 358
93 9 2 0 1 153 142 172 359 360 361
94 9 2 0 1 128 152 165 286 362 363
95 9 2 0 1 171 173 225 307 276 364
96 9 2 0 1 105 199 252 365 366 367
97 9 2 0 1 144 137 175 368 369 310
98 9 2 0 1 125 147 167 370 371 372
99 9 2 0 1 112 90 188 373 374 375
100 9 2 0 1 112 188 250 375 376 377
101 9 2 0 1 204 118 241 314 378 379
102 9 2 0 1 189 107 217 380 381 382
103 9 2 0 1 121 113 122 327 383 317
104 9 2 0 1 171 153 172 324 361 306
105 9 2 0 1 4 58 183 68 384 385
106 9 2 0 1 152 155 179 386 387 343
107 9 2 0 1 156 196 232 388 389 390
108 9 2 0 1 172 142 254 360 391 392
109 9 2 0 1 37 38 198 50 393 394
110 9 2 0 1 185 166 256 395 396 397
111 9 2 0 1 189 149 234 398 399 400
112 9 2 0 1 143 221 267 401 402 403
113 9 2 0 1 210 172 254 296 392 404
114 9 2 0 1 152 127 155 285 405 386
115 9 2 0 1 188 107 189 406 380 407
116 9 2 0 1 188 189 250 407 322 376
117 9 2 0 1 221 175 267 280 408 402
118 9 2 0 1 239 193 261 409 410 411
119 9 2 0 1 222 166 264 412 413 414
120 9 2 0 1 137 134 175 415 416 369
121 9 2 0 1 139 137 144 417 368 418
122 9 2 0 1 27 118 202 419 420 421
123 9 2 0 1 179 199 200 422 423 344
124 9 2 0 1 189 217 244 382 424 425
125 9 2 0 1 177 163 217 426 427 428
126 9 2 0 1 11 113 119 429 326 430
127 9 2 0 1 199 179 252 422 431 366
128 9 2 0 1 132 130 143 432 433 434
129 9 2 0 1 166 185 187 395 435 436
130 9 2 0 1 114 178 255 350 437 438
131 9 2 0 1 227 228 270 439 440 441
132 9 2 0 1 143 130 264 433 442 443
133 9 2 0 1 123 122 124 318 444 348
134 9 2 0 1 183 58 195 384 445 336
135 9 2 0 1 149 189 244 398 425 446
136 9 2 0 1 9 10 109 19 447 448
137 9 2 0 1 186 226 269 449 450 451
138 9 2 0 1 191 192 220 452 453 454
139 9 2 0 1 120 109 266 329 455 456
140 9 2 0 1 115 81 197 457 313 458
141 9 2 0 1 193 115 194 459 460 461
142 9 2 0 1 144 176 210 311 462 463
143 9 2 0 1 66 116 203 464 465 466
144 9 2 0 1 175 134 267 416 467 408
145 9 2 0 1 198 38 223 393 468 469
146 9 2 0 1 9 109 191 448 470 471
147 9 2 0 1 106 209 223 290 472 473
148 9 2 0 1 93 117 177 474 475 476
149 9 2 0 1 113 12 164 477 305 478
150 9 2 0 1 8 191 220 479 454 480
151 9 2 0 1 64 110 205 481 482 483
152 9 2 0 1 158 189 234 320 400 484
153 9 2 0 1 168 169 219 485 486 293
154 9 2 0 1 6 88 245 95 487 488
155 9 2 0 1 91 107 188 489 406 490
156 9 2 0 1 125 167 251 372 491 492
157 9 2 0 1 11 12 113 21 477 429
158 9 2 0 1 163 177 259 426 493 494
159 9 2 0 1 109 227 268 331 495 496
160 9 2 0 1 130 128 165 497 363 498
161 9 2 0 1 202 118 237 420 499 302
162 9 2 0 1 194 115 196 460 500 501
163 9 2 0 1 186 195 226 337 502 449
164 9 2 0 1 125 124 147 349 503 370
165 9 2 0 1 91 92 107 99 504 489
166 9 2 0 1 27 28 118 31 505 419
167 9 2 0 1 121 235 238 358 506 507
168 9 2 0 1 220 192 259 453 508 509
169 9 2 0 1 130 165 264 498 510 442
170 9 2 0 1 127 125 251 299 492 511
171 9 2 0 1 191 161 192 512 347 452
172 9 2 0 1 107 92 177 504 513 514
173 9 2 0 1 119 121 253 328 515 516
174 9 2 0 1 109 10 266 447 517 455
175 9 2 0 1 150 227 270 518 441 519
176 9 2 0 1 159 168 240 520 273 521
177 9 2 0 1 13 114 255 522 438 288
178 9 2 0 1 144 210 254 463 404 523
179 9 2 0 1 80 115 193 524 459 525
180 9 2 0 1 10 11 119 20 430 526
181 9 2 0 1 165 152 242 362 527 528
182 9 2 0 1 82 6 245 87 488 353
183 9 2 0 1 10 119 266 526 529 517
184 9 2 0 1 154 153 170 530 323 531
185 9 2 0 1 187 176 221 532 281 533
186 9 2 0 1 194 174 261 534 535 536
187 9 2 0 1 79 80 193 84 525 537
188 9 2 0 1 89 90 112 97 373 538
189 9 2 0 1 170 171 230 325 539 540
190 9 2 0 1 152 200 242 345 541 527
191 9 2 0 1 79 193 239 537 409 542
192 9 2 0 1 201 198 209 543 544 545
193 9 2 0 1 13 14 114 23 546 522
194 9 2 0 1 226 215 269 333 547 450
195 9 2 0 1 126 128 129 304 548 549
196 9 2 0 1 165 222 264 550 414 510
197 9 2 0 1 117 220 259 551 509 552
198 9 2 0 1 215 207 233 332 553 554
199 9 2 0 1 26 27 202 30 421 555
200 9 2 0 1 107 177 217 514 428 381
201 9 2 0 1 167 209 218 556 341 557
202 9 2 0 1 210 176 215 462 558 559
203 9 2 0 1 146 142 153 560 359 561
204 9 2 0 1 90 91 188 98 490 374
205 9 2 0 1 167 147 201 371 562 563
206 9 2 0 1 64 65 110 75 564 481
207 9 2 0 1 179 155 184 387 565 566
208 9 2 0 1 114 216 262 567 568 351
209 9 2 0 1 34 35 111 47 569 570
210 9 2 0 1 80 81 115 85 457 524
211 9 2 0 1 224 233 246 571 572 573
212 9 2 0 1 129 128 130 548 497 574
213 9 2 0 1 167 201 209 563 545 556
214 9 2 0 1 66 67 116 77 575 464
215 9 2 0 1 114 14 211 546 576 577
216 9 2 0 1 8 9 191 18 471 479
217 9 2 0 1 205 110 230 482 578 579
218 9 2 0 1 33 34 204 46 580 581
219 9 2 0 1 198 201 240 543 582 583
220 9 2 0 1 61 190 206 584 585 586
221 9 2 0 1 92 93 177 100 476 513
222 9 2 0 1 89 112 214 538 587 588
223 9 2 0 1 147 159 201 589 590 562
224 9 2 0 1 62 63 104 73 591 592
225 9 2 0 1 177 117 259 475 552 493
226 9 2 0 1 93 94 117 101 593 474
227 9 2 0 1 34 111 204 570 594 580
228 9 2 0 1 232 196 247 389 595 596
229 9 2 0 1 169 216 237 597 303 598
230 9 2 0 1 222 165 242 550 528 599
231 9 2 0 1 35 36 208 48 600 601
232 9 2 0 1 36 37 108 49 602 603
233 9 2 0 1 14 15 211 24 604 576
234 9 2 0 1 111 35 208 569 601 278
235 9 2 0 1 179 184 252 566 605 431
236 9 2 0 1 59 60 103 70 606 607
237 9 2 0 1 136 134 137 608 415 609
238 9 2 0 1 209 198 223 544 469 472
239 9 2 0 1 61 62 190 72 610 584
240 9 2 0 1 161 191 268 512 611 612
241 9 2 0 1 88 89 214 96 588 613
242 9 2 0 1 193 194 261 461 536 410
243 9 2 0 1 2 26 248 29 614 615
244 9 2 0 1 108 37 198 602 394 616
245 9 2 0 1 176 187 269 532 617 618
246 9 2 0 1 147 148 159 619 620 589
247 9 2 0 1 65 66 203 76 466 621
248 9 2 0 1 118 28 241 505 622 378
249 9 2 0 1 39 40 106 52 623 624
250 9 2 0 1 63 64 205 74 483 625
251 9 2 0 1 118 219 237 316 626 499
252 9 2 0 1 114 211 216 577 356 567
253 9 2 0 1 108 198 240 616 583 283
254 9 2 0 1 3 33 241 45 627 628
255 9 2 0 1 196 115 197 500 458 629
256 9 2 0 1 15 2 248 25 615 630
257 9 2 0 1 67 5 239 78 631 632
258 9 2 0 1 42 43 105 55 633 634
259 9 2 0 1 126 129 235 549 635 636
260 9 2 0 1 142 139 254 637 638 391
261 9 2 0 1 36 108 208 603 282 600
262 9 2 0 1 138 137 139 639 417 640
263 9 2 0 1 203 116 260 465 641 642
264 9 2 0 1 159 160 168 643 644 520
265 9 2 0 1 122 113 164 383 478 645
266 9 2 0 1 116 239 261 646 411 647
267 9 2 0 1 62 104 190 592 648 610
268 9 2 0 1 60 61 206 71 586 649
269 9 2 0 1 40 41 213 53 650 651
270 9 2 0 1 214 112 247 587 652 653
271 9 2 0 1 146 153 154 561 530 654
272 9 2 0 1 191 109 268 470 496 611
273 9 2 0 1 41 42 212 54 655 656
274 9 2 0 1 5 79 239 83 542 631
275 9 2 0 1 134 132 267 657 658 467
276 9 2 0 1 166 221 264 659 660 413
277 9 2 0 1 204 111 219 594 294 315
278 9 2 0 1 196 156 236 388 661 662
279 9 2 0 1 38 39 223 51 663 468
280 9 2 0 1 174 170 258 664 665 666
281 9 2 0 1 141 139 142 667 637 668
282 9 2 0 1 154 170 174 531 664 669
283 9 2 0 1 173 210 233 297 670 671
284 9 2 0 1 112 232 247 672 596 652
285 9 2 0 1 1 7 249 16 673 674
286 9 2 0 1 225 205 230 675 579 676
287 9 2 0 1 231 149 244 677 446 678
288 9 2 0 1 199 105 243 365 679 680
289 9 2 0 1 94 1 249 102 674 681
290 9 2 0 1 227 120 228 330 682 439
291 9 2 0 1 166 187 221 436 533 659
292 9 2 0 1 136 137 138 609 639 683
293 9 2 0 1 129 157 235 684 685 635
294 9 2 0 1 206 190 246 585 686 687
295 9 2 0 1 131 130 132 688 432 689
296 9 2 0 1 123 126 235 309 636 357
297 9 2 0 1 58 59 195 69 690 445
298 9 2 0 1 253 238 265 691 692 693
299 9 2 0 1 28 3 241 32 628 622
300 9 2 0 1 7 8 220 17 480 694
301 9 2 0 1 133 132 134 695 657 696
302 9 2 0 1 147 124 148 503 697 619
303 9 2 0 1 194 196 236 501 662 698
304 9 2 0 1 145 142 146 699 560 700
305 9 2 0 1 135 134 136 701 608 702
306 9 2 0 1 145 156 158 703 704 705
307 9 2 0 1 210 215 233 559 554 670
308 9 2 0 1 162 231 244 706 678 707
309 9 2 0 1 163 162 217 708 709 427
310 9 2 0 1 159 148 160 620 710 643
311 9 2 0 1 138 139 141 640 667 711
312 9 2 0 1 151 140 162 712 713 714
313 9 2 0 1 106 40 213 623 651 715
314 9 2 0 1 122 164 229 645 716 717
315 9 2 0 1 141 142 145 668 699 718
316 9 2 0 1 139 144 254 418 523 638
317 9 2 0 1 216 169 262 597 719 568
318 9 2 0 1 168 160 169 644 720 485
319 9 2 0 1 138 141 149 711 721 722
320 9 2 0 1 192 163 259 339 494 508
321 9 2 0 1 190 104 224 648 723 724
322 9 2 0 1 88 214 245 613 725 487
323 9 2 0 1 224 173 233 274 671 571
324 9 2 0 1 59 103 195 607 726 690
325 9 2 0 1 207 206 246 727 687 728
326 9 2 0 1 43 44 243 56 729 730
327 9 2 0 1 42 105 212 634 731 655
328 9 2 0 1 41 212 213 656 732 650
329 9 2 0 1 120 253 265 733 693 734
330 9 2 0 1 184 155 218 565 735 736
331 9 2 0 1 129 130 131 574 688 737
332 9 2 0 1 145 146 156 700 738 703
333 9 2 0 1 178 229 255 739 740 437
334 9 2 0 1 44 4 180 57 741 742
335 9 2 0 1 133 134 135 696 701 743
336 9 2 0 1 135 136 140 702 744 745
337 9 2 0 1 229 164 255 716 289 740
338 9 2 0 1 135 140 150 745 746 747
339 9 2 0 1 131 132 133 689 695 748
340 9 2 0 1 151 162 163 714 708 338
341 9 2 0 1 26 202 248 555 749 614
342 9 2 0 1 150 151 161 750 346 751
343 9 2 0 1 160 148 178 710 752 753
344 9 2 0 1 132 143 267 434 403 658
345 9 2 0 1 158 156 232 704 390 754
346 9 2 0 1 162 140 231 713 755 706
347 9 2 0 1 129 131 157 737 756 684
348 9 2 0 1 150 140 151 746 712 750
349 9 2 0 1 105 43 243 633 730 679
350 9 2 0 1 150 161 227 751 757 518
351 9 2 0 1 145 158 234 705 484 758
352 9 2 0 1 212 184 213 759 760 732
353 9 2 0 1 154 174 194 669 534 761
354 9 2 0 1 110 65 203 564 621 762
355 9 2 0 1 184 212 252 759 763 605
356 9 2 0 1 136 138 231 683 764 765
357 9 2 0 1 215 176 269 558 618 547
358 9 2 0 1 220 117 249 551 766 767
359 9 2 0 1 201 159 240 590 521 582
360 9 2 0 1 104 63 205 591 625 768
361 9 2 0 1 124 122 229 444 717 769
362 9 2 0 1 211 15 248 604 630 770
363 9 2 0 1 174 258 260 666 771 772
364 9 2 0 1 166 222 256 412 773 396
365 9 2 0 1 180 4 181 741 774 775
366 9 2 0 1 228 120 265 682 734 776
367 9 2 0 1 202 211 248 355 770 749
368 9 2 0 1 140 136 231 744 765 755
369 9 2 0 1 116 67 239 575 632 646
370 9 2 0 1 148 124 229 697 769 777
371 9 2 0 1 138 149 231 722 677 764
372 9 2 0 1 39 106 223 624 473 663
373 9 2 0 1 117 94 249 593 681 766
374 9 2 0 1 200 182 222 778 779 780
375 9 2 0 1 196 197 247 629 781 595
376 9 2 0 1 197 214 247 782 653 781
377 9 2 0 1 214 197 245 782 354 725
378 9 2 0 1 33 204 241 581 379 627
379 9 2 0 1 181 4 183 774 385 783
380 9 2 0 1 180 182 199 784 785 786
381 9 2 0 1 103 60 206 606 649 787
382 9 2 0 1 149 141 234 721 788 399
383 9 2 0 1 141 145 234 718 758 788
384 9 2 0 1 221 143 264 401 443 660
385 9 2 0 1 217 162 244 709 707 424
386 9 2 0 1 156 146 236 738 789 661
387 9 2 0 1 195 103 226 726 790 502
388 9 2 0 1 224 104 225 723 791 275
389 9 2 0 1 178 148 229 752 777 739
390 9 2 0 1 146 154 236 654 792 789
391 9 2 0 1 235 157 238 685 793 506
392 9 2 0 1 103 206 207 787 727 794
393 9 2 0 1 135 150 270 747 519 795
394 9 2 0 1 219 169 237 486 598 626
395 9 2 0 1 190 224 246 724 573 686
396 9 2 0 1 199 182 200 785 778 423
397 9 2 0 1 233 207 246 553 728 572
398 9 2 0 1 44 180 243 742 796 729
399 9 2 0 1 104 205 225 768 675 791
400 9 2 0 1 155 127 251 405 511 797
401 9 2 0 1 185 183 186 798 335 799
402 9 2 0 1 180 181 182 775 800 784
403 9 2 0 1 154 194 236 761 698 792
404 9 2 0 1 185 186 187 799 801 435
405 9 2 0 1 171 225 230 364 676 539
406 9 2 0 1 230 110 258 578 802 803
407 9 2 0 1 218 155 251 735 797 804
408 9 2 0 1 180 199 243 786 680 796
409 9 2 0 1 7 220 249 694 767 673
410 9 2 0 1 103 207 226 794 334 790
411 9 2 0 1 169 160 262 720 805 719
412 9 2 0 1 158 232 250 754 806 321
413 9 2 0 1 167 218 251 557 804 491
414 9 2 0 1 181 183 185 783 798 807
415 9 2 0 1 184 218 257 736 342 808
416 9 2 0 1 131 133 263 748 809 810
417 9 2 0 1 212 105 252 731 367 763
418 9 2 0 1 222 182 256 779 811 773
419 9 2 0 1 200 222 242 780 599 541
420 9 2 0 1 263 133 270 809 812 813
421 9 2 0 1 253 120 266 733 456 814
422 9 2 0 1 160 178 262 753 352 805
423 9 2 0 1 170 230 258 540 803 665
424 9 2 0 1 157 131 263 756 810 815
425 9 2 0 1 106 213 257 715 816 291
426 9 2 0 1 110 203 258 762 817 802
427 9 2 0 1 260 116 261 641 647 818
428 9 2 0 1 133 135 270 743 795 812
429 9 2 0 1 232 112 250 672 377 806
430 9 2 0 1 119 253 266 516 814 529
431 9 2 0 1 238 157 265 793 819 692
432 9 2 0 1 227 161 268 757 612 495
433 9 2 0 1 182 181 256 800 820 811
434 9 2 0 1 213 184 257 760 808 816
435 9 2 0 1 228 263 270 821 813 440
436 9 2 0 1 174 260 261 772 818 535
437 9 2 0 1 181 185 256 807 397 820
438 9 2 0 1 187 186 269 801 451 617
439 9 2 0 1 258 203 260 817 642 771
440 9 2 0 1 121 238 253 507 691 515
441 9 2 0 1 157 263 265 815 822 819
442 9 2 0 1 263 228 265 821 776 822
$EndElements
