$MeshFormat
2.2 0 8
$EndMeshFormat
$Nodes
545
1 -4 0 0
2 -3 0 0
3 -3 1 0
4 -4 1 0
5 -3.9 0 0
6 -3.8 0 0
7 -3.7 0 0
8 -3.600000000000001 0 0
9 -3.5 0 0
10 -3.4 0 0
11 -3.3 0 0
12 -3.2 0 0
13 -3.1 0 0
14 -3.95000000000012 0 0
15 -3.849999999999862 0 0
16 -3.75000000000018 0 0
17 -3.650000000000064 0 0
18 -3.549999999999982 0 0
19 -3.449999999999997 0 0
20 -3.35 0 0
21 -3.249999999999643 0 0
22 -3.149999999999769 0 0
23 -3.050000000000072 0 0
24 -3 0.100000000000416 0
25 -3 0.2000000000008322 0
26 -3 0.3000000000012483 0
27 -3 0.4000000000016644 0
28 -3 0.5000000000020587 0
29 -3 0.6000000000013869 0
30 -3 0.7000000000006934 0
31 -3 0.7999999999999998 0
32 -3 0.8999999999995836 0
33 -3 0.05000000000019992 0
34 -3 0.1500000000006414 0
35 -3 0.2500000000010402 0
36 -3 0.3500000000014563 0
37 -3 0.4500000000018615 0
38 -3 0.5500000000017228 0
39 -3 0.6500000000010402 0
40 -3 0.7500000000003466 0
41 -3 0.8499999999997917 0
42 -3 0.9499999999997918 0
43 -3.1 1 0
44 -3.2 1 0
45 -3.3 1 0
46 -3.399999999999999 1 0
47 -3.5 1 0
48 -3.6 1 0
49 -3.7 1 0
50 -3.8 1 0
51 -3.9 1 0
52 -3.04999999999988 1 0
53 -3.150000000000138 1 0
54 -3.24999999999982 1 0
55 -3.349999999999936 1 0
56 -3.450000000000018 1 0
57 -3.550000000000003 1 0
58 -3.65 1 0
59 -3.750000000000357 1 0
60 -3.850000000000231 1 0
61 -3.949999999999928 1 0
62 -4 0.8999999999995836 0
63 -4 0.7999999999999998 0
64 -4 0.7000000000006934 0
65 -4 0.6000000000013869 0
66 -4 0.5000000000020587 0
67 -4 0.4000000000016644 0
68 -4 0.3000000000012483 0
69 -4 0.2000000000008322 0
70 -4 0.100000000000416 0
71 -4 0.9499999999998356 0
72 -4 0.8499999999998311 0
73 -4 0.7500000000003468 0
74 -4 0.6500000000010486 0
75 -4 0.5500000000016836 0
76 -4 0.4500000000018616 0
77 -4 0.3500000000014563 0
78 -4 0.2500000000010403 0
79 -4 0.1500000000006241 0
80 -4 0.05000000000020799 0
81 -3.913397459621677 0.4500000000018615 0
82 -3.086602540378355 0.4500000000016872 0
83 -3.449999999999932 0.9133974596215664 0
84 -3.450000000000035 0.08660254037842047 0
85 -3.086602540378075 0.650000000001091 0
86 -3.913397459622157 0.6500000000010401 0
87 -3.649999999999999 0.08660254037844355 0
88 -3.651453120623798 0.9256437519927432 0
89 -3.086602540378713 0.250000000001098 0
90 -3.255667457129332 0.9181466939758938 0
91 -3.920407743102799 0.2540211967697513 0
92 -3.255667457129356 0.08185330602426957 0
93 -3.922851949113262 0.8495399912093041 0
94 -3.084677204505204 0.8495762630718093 0
95 -3.849406768300659 0.08294974041515803 0
96 -3.086602540378508 0.3500000000014969 0
97 -3.173205080756672 0.4000000000020351 0
98 -3.173205080756349 0.5000000000017093 0
99 -3.259807621134529 0.4500000000020079 0
100 -3.259807621134294 0.5500000000016467 0
101 -3.346410161512429 0.5000000000020057 0
102 -3.346030850445442 0.4006569860428234 0
103 -3.432570172312096 0.4507664837162622 0
104 -3.432938946960587 0.5501277472876311 0
105 -3.519529194850487 0.5001490385023732 0
106 -3.520091573819121 0.4024441766014126 0
107 -3.519588608543621 0.6000461309662983 0
108 -3.606199002456031 0.5500325282465268 0
109 -3.43373605278841 0.6487471194939021 0
110 -3.60621021366035 0.6500131098701365 0
111 -3.692815931495035 0.600007606354538 0
112 -3.692816461071376 0.5000066891023005 0
113 -3.692818329604959 0.7000034527054801 0
114 -3.601910684759507 0.7526736610607642 0
115 -3.779422863402616 0.55000000000297 0
116 -3.779422863402873 0.4500000000034453 0
117 -3.692819679366061 0.4000011148532495 0
118 -3.779422863403214 0.3500000000038325 0
119 -3.692820215748728 0.3000001858119666 0
120 -3.778289878999977 0.2518932482329478 0
121 -3.693715577485256 0.7937824192900368 0
122 -3.77942286340221 0.7500000000021816 0
123 -3.771377887690538 0.8441588101327225 0
124 -3.696761125342244 0.1854021304663541 0
125 -3.60924612276952 0.2572431686297942 0
126 -3.173205080757308 0.300000000001249 0
127 -3.16503708757109 0.1981538064024531 0
128 -3.259904126025794 0.2419865776154465 0
129 -3.913397459621226 0.350000000001403 0
130 -3.08660254037828 0.5500000000013828 0
131 -3.173205080756263 0.6000000000013517 0
132 -3.259807621134253 0.6500000000011348 0
133 -3.173205080756254 0.7000000000008928 0
134 -3.261070982194719 0.757749680443888 0
135 -3.91339745962171 0.5500000000014003 0
136 -3.084872934528869 0.1502225726780772 0
137 -3.350944576188202 0.9154574359141197 0
138 -3.397360961852896 0.8345596551618908 0
139 -3.508048583544894 0.8136525083879136 0
140 -3.549999999999865 0.9133974596214275 0
141 -3.549999999999999 0.08452994616235809 0
142 -3.497399989651349 0.1670657104652681 0
143 -3.398861331441218 0.1651131891455754 0
144 -3.439836275709681 0.2512020372935981 0
145 -3.350539141496538 0.08416780831111834 0
146 -3.164926758435011 0.8030671841844454 0
147 -3.259807621134802 0.3500000000021962 0
148 -3.347013951299751 0.3037989637264859 0
149 -3.74936131560715 0.0861502157097688 0
150 -3.779422863402358 0.6500000000025049 0
151 -3.60627894903501 0.4504389245515302 0
152 -3.084901930679091 0.7504405745431552 0
153 -3.607755702618294 0.3533225319310263 0
154 -3.915509642654756 0.7499800426566025 0
155 -3.519615242267966 0.700000000001626 0
156 -3.346518427506995 0.599812477797833 0
157 -3.347392379758965 0.6956019752142036 0
158 -3.435136749759569 0.3531127114197977 0
159 -3.158225347576428 0.9060619351560312 0
160 -3.906145656022621 0.1559066101405971 0
161 -3.158269070313561 0.09408375432075557 0
162 -3.846728986924613 0.9109460175146611 0
163 -3.306640164549507 0.1588797767731789 0
164 -3.306652151428184 0.8409592809925878 0
165 -3.425320203201412 0.7445924988503763 0
166 -3.799999999999998 0.1619468829986571 0
167 -3.525277674971324 0.3098076211382044 0
168 -3.592596092341774 0.1671630823935534 0
169 -3.618974448359368 0.8449894529634064 0
170 -3.750000000000006 0.930447650365101 0
171 -3.846410161512805 0.7000000000006974 0
172 -3.846410161512754 0.6000000000015159 0
173 -3.847050248549697 0.8007708102526948 0
174 -3.846410161512218 0.5000000000025102 0
175 -3.846410161512086 0.4000000000028738 0
176 -3.846410161511312 0.3000000000041906 0
177 -3.073205080756832 0.926794919243056 0
178 -3.073205080757174 0.07320508075728255 0
179 -3.926794919243185 0.07320508075692725 0
180 -3.927304073544548 0.9273040735444322 0
181 -3.35045116980519 0.224196108910857 0
182 -3.345767998995341 0.7749937348427216 0
183 -3.850250687927341 0.2247535876292288 0
184 -3.533619985449128 0.2339166839421233 0
185 -3.702792949808658 0.8692652335098229 0
186 -3.229103581117861 0.1549914442272207 0
187 -3.229308539352735 0.8451969549505693 0
188 -3.5549796341522 0.7831630847243389 0
189 -3.560762963513736 0.726336830531195 0
190 -3.51383191290643 0.7568262541947698 0
191 -3.673380562671122 0.1360023354223988 0
192 -3.723061220474697 0.1357761730880615 0
193 -3.699680657803575 0.08637637804410617 0
194 -3.563511515952131 0.8293209806756601 0
195 -3.610442566559438 0.7988315570120853 0
196 -3.748380562671121 0.1736745067325056 0
197 -3.774680657803574 0.124048549354213 0
198 -3.472467722734689 0.7222962494260011 0
199 -3.466684393373153 0.7791225036191449 0
200 -3.621298046170887 0.1268828113859985 0
201 -3.644678608842009 0.1762826064299538 0
202 -3.12495501104998 0.1741881895402652 0
203 -3.161653078942325 0.1461187803616043 0
204 -3.121571002421215 0.1221531634994164 0
205 -3.124801981470108 0.8263217236281274 0
206 -3.121451276040816 0.8778190991139203 0
207 -3.16157605300572 0.8545645596702383 0
208 -3.809053437307576 0.8775524138236919 0
209 -3.846889617737155 0.855858413883678 0
210 -3.809214068120117 0.8224648101927087 0
211 -3.884790468018938 0.8802430043619827 0
212 -3.884951098831479 0.8251554007309995 0
213 -3.87777621216164 0.1194281752778776 0
214 -3.824703384150328 0.1224483117069076 0
215 -3.853072828011309 0.1589267465696271 0
216 -3.393425113504716 0.277500500510042 0
217 -3.391075350529659 0.3284558375731418 0
218 -3.437486512734625 0.3021573743566979 0
219 -3.737525502171111 0.218647689349651 0
220 -3.789144939499987 0.2069200656158025 0
221 -3.197070334344476 0.1765726253148369 0
222 -3.193686325715711 0.1245375992739881 0
223 -3.193766943464581 0.8756294450533002 0
224 -3.197117648893873 0.8241320695675074 0
225 -3.395143722757435 0.2376990731022275 0
226 -3.34873256055247 0.2639975363186714 0
227 -3.82512534396367 0.193350235313943 0
228 -3.878198171974981 0.190330098884913 0
229 -3.12990381056759 0.375000000001766 0
230 -3.17320508075699 0.350000000001642 0
231 -3.129903810567908 0.325000000001373 0
232 -3.086602540378431 0.4000000000015921 0
233 -3.129903810567514 0.4250000000018611 0
234 -3.043301270189177 0.4750000000018729 0
235 -3.043301270189177 0.4250000000016758 0
236 -3.956698729810838 0.425000000001763 0
237 -3.956698729810838 0.4750000000019601 0
238 -3.043301270189254 0.3750000000015806 0
239 -3.216554603391551 0.2709932888083477 0
240 -3.216506350946055 0.3250000000017226 0
241 -3.259855873580298 0.2959932888088214 0
242 -3.956698729810613 0.3750000000015337 0
243 -3.913397459621451 0.4000000000016323 0
244 -3.216506350945737 0.3750000000021156 0
245 -3.303410786217276 0.326899481864341 0
246 -3.303459038662772 0.2728927706709662 0
247 -3.169065919595632 0.7515335920926691 0
248 -3.129053505717672 0.7252202872720239 0
249 -3.124914344557051 0.7767538793638002 0
250 -3.084789567592147 0.8000084188074823 0
251 -3.04330127018914 0.5250000000017208 0
252 -3.086602540378317 0.500000000001535 0
253 -3.216506350945322 0.525000000001678 0
254 -3.173205080756306 0.5500000000015305 0
255 -3.216506350945278 0.5750000000014992 0
256 -3.913397459621693 0.5000000000016309 0
257 -3.956698729810855 0.5250000000017294 0
258 -3.08660254037861 0.3000000000012975 0
259 -3.12990381056801 0.2750000000011735 0
260 -3.129903810567315 0.525000000001546 0
261 -3.129903810567272 0.5750000000013673 0
262 -3.043301270189037 0.625000000001239 0
263 -3.086602540378177 0.6000000000012369 0
264 -3.04330127018914 0.5750000000013848 0
265 -3.129903810567169 0.6250000000012214 0
266 -3.129903810567164 0.6750000000009919 0
267 -3.173205080756258 0.6500000000011222 0
268 -3.956698729810855 0.5750000000013935 0
269 -3.085752235528583 0.700220287272123 0
270 -3.960203871551399 0.2770105983854998 0
271 -3.916902601362013 0.3020105983855772 0
272 -3.956698729810613 0.3250000000013257 0
273 -3.043301270189356 0.2750000000011731 0
274 -3.043301270189254 0.3250000000013726 0
275 -3.956698729811079 0.6250000000012135 0
276 -3.913397459621933 0.6000000000012202 0
277 -3.129903810567352 0.4750000000016982 0
278 -3.173205080756511 0.4500000000018722 0
279 -3.625726560311898 0.9628218759963716 0
280 -3.600726560311831 0.9195206058070853 0
281 -3.574999999999933 0.9566987298107137 0
282 -3.216506350945258 0.6250000000012432 0
283 -3.259807621134273 0.6000000000013908 0
284 -3.2165063509456 0.4250000000020215 0
285 -3.259807621134665 0.4000000000021021 0
286 -3.524999999999933 0.9566987298107137 0
287 -3.400472288094067 0.914427447767843 0
288 -3.423680480926414 0.8739785573917286 0
289 -3.374152769020549 0.8750085455380052 0
290 -3.625 0.04330127018922177 0
291 -3.575 0.04226497308117905 0
292 -3.599999999999999 0.08556624327040083 0
293 -3.424999999999966 0.9566987298107832 0
294 -3.375472288094101 0.9577287179570598 0
295 -3.302919235789985 0.4253284930224157 0
296 -3.302919235790122 0.3753284930225098 0
297 -3.169121084164199 0.249076903201851 0
298 -3.212470606798442 0.2200701920089498 0
299 -3.125819813974901 0.2240769032017755 0
300 -3.08573773745379 0.2001112863395876 0
301 -3.043301270189356 0.2250000000009651 0
302 -3.042436467264435 0.1751112863394547 0
303 -3.277833728564678 0.04092665301213479 0
304 -3.303103299312947 0.08301055716769395 0
305 -3.32526957074827 0.04208390415555917 0
306 -3.500000000000017 0.08556624327038928 0
307 -3.473699994825692 0.1268341254218443 0
308 -3.523699994825674 0.1257978283138131 0
309 -3.277833728564666 0.9590733469879469 0
310 -3.325472288094101 0.9577287179570598 0
311 -3.303306016658767 0.9168020649450067 0
312 -3.227833728564666 0.9590733469879469 0
313 -3.479024291772413 0.86352498400474 0
314 -3.452704772698895 0.8241060817749022 0
315 -3.736120596503584 0.7250017263538309 0
316 -3.779422863402284 0.7000000000023432 0
317 -3.736120596503659 0.6750017263539925 0
318 -3.375269570748269 0.04208390415555917 0
319 -3.960203871551399 0.2270105983852918 0
320 -3.475000000000017 0.04330127018921023 0
321 -3.524999999999999 0.04226497308117905 0
322 -3.042436467264435 0.1251112863392466 0
323 -3.042338602252602 0.8747881315356965 0
324 -3.042338602252602 0.8247881315359046 0
325 -3.216506350945253 0.6750000000010138 0
326 -3.675726560311899 0.9628218759963716 0
327 -3.425000000000018 0.04330127018921023 0
328 -3.474999999999966 0.9566987298107832 0
329 -3.499999999999899 0.9133974596214969 0
330 -3.675 0.04330127018922177 0
331 -3.724680657803575 0.0430751078548844 0
332 -3.448130660546283 0.1660894498054217 0
333 -3.41934880357545 0.2081576132195867 0
334 -3.468618132680515 0.2091338738794331 0
335 -3.649507466975533 0.5750200673005323 0
336 -3.692816196283205 0.5500071477284192 0
337 -3.649507731763704 0.5250196086744137 0
338 -3.216506350945439 0.4750000000018586 0
339 -3.694790670545486 0.2427011581391604 0
340 -3.653003624055882 0.2213226495480742 0
341 -3.651033169259124 0.2786216772208804 0
342 -3.736119397448825 0.575003803178754 0
343 -3.736119662236996 0.5250033445526352 0
344 -3.961425974556631 0.8247699956046519 0
345 -3.961425974556631 0.8747699956044439 0
346 -3.424430665720626 0.1258578647619979 0
347 -3.693266953545108 0.7468929359977585 0
348 -3.736569220443733 0.7718912096461092 0
349 -3.649547705053193 0.4752228068269154 0
350 -3.606238975745521 0.5002357263990285 0
351 -3.60620460805819 0.6000228190583317 0
352 -3.649513072577693 0.6250103581123372 0
353 -3.519558901697054 0.5500975847343358 0
354 -3.562893805499826 0.5750393296064126 0
355 -3.562864098653259 0.52509078337445 0
356 -3.562904071942749 0.4752939815269517 0
357 -3.774680657803575 0.0430751078548844 0
358 -3.400269570748287 0.0853851743447694 0
359 -3.608500912693907 0.3052828502804102 0
360 -3.650287959183511 0.3266613588714964 0
361 -3.736119397448697 0.6250038031785214 0
362 -3.779422863402487 0.6000000000027375 0
363 -3.529024291772379 0.8635249840046706 0
364 -3.692817130549997 0.6500055295300091 0
365 -3.692818070218719 0.450003901977775 0
366 -3.649549314200536 0.4252200197023899 0
367 -3.259807621134411 0.5000000000018273 0
368 -3.303108891323361 0.5250000000018262 0
369 -3.303108891323479 0.4750000000020068 0
370 -3.732546732587897 0.8189706147113797 0
371 -3.775400375546374 0.7970794050674521 0
372 -3.649514271632655 0.6750082812878083 0
373 -3.476049683581292 0.4754577611093177 0
374 -3.519810384334804 0.4512966075518929 0
375 -3.476330873065609 0.4266053301588374 0
376 -3.432754559636342 0.5004471155019466 0
377 -3.476234070905537 0.5251383928950022 0
378 -3.563185261427066 0.4264415505764714 0
379 -3.779422863402744 0.5000000000032077 0
380 -3.736119662237124 0.4750033445528729 0
381 -3.562899411101986 0.6250296204182174 0
382 -3.346220505978935 0.4503284930224146 0
383 -3.389490166912263 0.4753832418591339 0
384 -3.389300511378769 0.4257117348795428 0
385 -3.042450965339545 0.7752202872715774 0
386 -3.389674554236508 0.5250638736448184 0
387 -3.82470338415033 0.04147487020757901 0
388 -3.799384041953904 0.08454997806246342 0
389 -3.217138031475486 0.7288748402223904 0
390 -3.212998870314865 0.7804084323141667 0
391 -3.227833728564678 0.04092665301213479 0
392 -3.476263777752104 0.5750869391269647 0
393 -3.607017325826652 0.4018807282412782 0
394 -3.563923638218708 0.3778833542662194 0
395 -3.735555047374353 0.2759467170224572 0
396 -3.346522400872596 0.3522279748846546 0
397 -3.87470338415033 0.04147487020757901 0
398 -3.043301270189037 0.6750000000008922 0
399 -3.650287690992178 0.3766618233921378 0
400 -3.692819947557395 0.3500006503326081 0
401 -3.374700236468878 0.1246404987283468 0
402 -3.647364507182233 0.7263385568831222 0
403 -3.647813131122382 0.7732280401754005 0
404 -3.433337499874499 0.5994374333907666 0
405 -3.476662330666016 0.6243966252301002 0
406 -3.260439301664486 0.7038748402225115 0
407 -3.736121271384467 0.4250005574283474 0
408 -3.042450965339545 0.7252202872719242 0
409 -3.604060449209928 0.7013433854654503 0
410 -3.303163024320624 0.6249062388994839 0
411 -3.303163024320644 0.5749062388997399 0
412 -3.956698729811079 0.6750000000008667 0
413 -3.957754821327378 0.7749900213283012 0
414 -3.919180795884009 0.7997600169329533 0
415 -3.346464294509712 0.5499062388999194 0
416 -3.736121271384638 0.375000557428541 0
417 -3.736121539575971 0.3250000929078996 0
418 -3.519601925405794 0.6500230654839622 0
419 -3.562912727964158 0.6750065549358812 0
420 -3.957754821327378 0.724990021328648 0
421 -3.476675647528188 0.674373559747764 0
422 -3.778856371201595 0.3009466241183902 0
423 -3.389728687233791 0.574970112542732 0
424 -3.390127240147702 0.6242797986458675 0
425 -3.779422863403044 0.4000000000036389 0
426 -3.914453551138456 0.6999900213288213 0
427 -3.303600000446609 0.6728009876076693 0
428 -3.34695540363298 0.6477072265060183 0
429 -3.390564216273687 0.6721745473540528 0
430 -3.304231680976842 0.7266758278290458 0
431 -3.656345012922312 0.8193859361267216 0
432 -3.660883699084013 0.8571273432366147 0
433 -3.698254263646957 0.8315238263999298 0
434 -3.411340582527154 0.7895760770061335 0
435 -3.477614161789345 0.3777784440106052 0
436 -3.433853461035833 0.4019395975680299 0
437 -3.390583800102505 0.3768848487313106 0
438 -3.522684624395223 0.3561258988698085 0
439 -3.480207212365446 0.3314601662790011 0
440 -3.179112673788214 0.9530309675780155 0
441 -3.129112673788214 0.9530309675780155 0
442 -3.95307282801131 0.1279533050705066 0
443 -3.95307282801131 0.1779533050707147 0
444 -3.129134535156781 0.04704187716037778 0
445 -3.179134535156781 0.04704187716037778 0
446 -3.635213784491583 0.8853166024780748 0
447 -3.677123035216228 0.8974544927512831 0
448 -3.328589653023023 0.1215237925421486 0
449 -3.352750747995363 0.1619964829593771 0
450 -3.35200655664054 0.8377594680772393 0
451 -3.328798363808193 0.8782083584533538 0
452 -3.374656250623204 0.1946546490282162 0
453 -3.386356291480189 0.72009723703229 0
454 -3.429528127994911 0.6966698091721392 0
455 -3.482556975340502 0.2805048292159013 0
456 -3.567261898870422 0.2835253948839993 0
457 -3.566516688794809 0.3315650765346153 0
458 -3.544998040996561 0.1671143964294107 0
459 -3.571298046170886 0.1258465142779557 0
460 -3.600921107555647 0.2122031255116738 0
461 -3.584487224179616 0.879193456292417 0
462 -3.20694640235288 0.9121043145659624 0
463 -3.91327669956271 0.2049639034551742 0
464 -3.206968263721459 0.08796853017251258 0
465 -3.725000000000003 0.9652238251825505 0
466 -3.700726560311902 0.928045701178922 0
467 -3.873364493462307 0.9554730087573305 0
468 -3.823364493462306 0.9554730087573305 0
469 -3.281153810839432 0.1203665413987242 0
470 -3.281159804278758 0.8795529874842407 0
471 -3.760688943845272 0.8873032302489118 0
472 -3.79836449346231 0.9206968339398811 0
473 -3.036602540378416 0.963397459621528 0
474 -3.036602540378416 0.9133974596213198 0
475 -3.036602540378587 0.08660254037884926 0
476 -3.036602540378587 0.03660254037864127 0
477 -3.086602540378587 0.03660254037864127 0
478 -3.086602540378416 0.963397459621528 0
479 -3.963397459621592 0.03660254037846362 0
480 -3.963397459621592 0.08660254037867161 0
481 -3.913397459621593 0.03660254037846362 0
482 -3.963652036772274 0.9136520367720079 0
483 -3.963652036772274 0.9636520367722161 0
484 -3.913652036772274 0.9636520367722161 0
485 -3.775000000000003 0.9652238251825505 0
486 -3.515509987550239 0.2004911972036957 0
487 -3.563108038895451 0.2005398831678384 0
488 -3.244503853571827 0.1984890109213336 0
489 -3.245189760773727 0.8014733176972286 0
490 -3.346580189377153 0.7352978550284626 0
491 -3.385544101098377 0.7597931168465489 0
492 -3.242487998241034 0.8816718244632316 0
493 -3.242385519123609 0.1184223751257451 0
494 -3.879903810566656 0.3750000000021384 0
495 -3.879903810566882 0.4250000000023677 0
496 -3.812916512457685 0.5750000000022429 0
497 -3.846410161512486 0.5500000000020131 0
498 -3.812916512457417 0.5250000000027402 0
499 -3.813236555975953 0.7753854051274383 0
500 -3.812916512457507 0.7250000000014395 0
501 -3.812916512457582 0.6750000000016012 0
502 -3.812916512457556 0.6250000000020104 0
503 -3.883408952307056 0.277010598386971 0
504 -3.879903810566269 0.3250000000027968 0
505 -3.846730205031251 0.750385405126696 0
506 -3.812916512457545 0.4750000000029778 0
507 -3.846410161512779 0.6500000000011066 0
508 -3.879903810567232 0.5750000000014581 0
509 -3.879903810566964 0.5250000000019552 0
510 -3.879903810567455 0.625000000001278 0
511 -3.8464101615117 0.3500000000035323 0
512 -3.879903810567481 0.6750000000008687 0
513 -3.88095990208378 0.72499002132865 0
514 -3.881279945602226 0.7753754264546486 0
515 -3.879903810566947 0.4750000000021859 0
516 -3.81291651245748 0.4250000000031596 0
517 -3.81291651245765 0.3750000000033532 0
518 -3.812916512457263 0.3250000000040116 0
519 -3.812350020255645 0.2759466241185692 0
520 -3.846410161512152 0.450000000002692 0
521 -3.283272145287651 0.2004331771943127 0
522 -3.267871872833684 0.1569356105001998 0
523 -3.283861566811451 0.7993544807182379 0
524 -3.267980345390459 0.8430781179715785 0
525 -3.571433054109324 0.2455799262859588 0
526 -3.305177647915492 0.2330913432631517 0
527 -3.30341949059503 0.7663717076433048 0
528 -3.371564480424118 0.8047766950023062 0
529 -3.88532921551507 0.2393873921994901 0
530 -3.486728130579404 0.2425593606178607 0
531 -3.916470287632903 0.1145558454487622 0
532 -3.11571521416663 0.9164284271995435 0
533 -3.115737075535367 0.08364441753901905 0
534 -3.925078011328905 0.8884220323768681 0
535 -3.079039007643022 0.1117138267176799 0
536 -3.078941142631018 0.8881855911574327 0
537 -3.888100843771922 0.07807741058604264 0
538 -3.726396474904332 0.8998564419374619 0
539 -3.328545667177349 0.1915379428420179 0
540 -3.326210075211763 0.8079765079176546 0
541 -3.529448830210226 0.2718621525401639 0
542 -3.737085418749598 0.8567120218212727 0
543 -3.887016530234581 0.9191250455295467 0
544 -3.814270283463659 0.2383234179310883 0
545 -3.848330424719327 0.2623767938167098 0
$EndNodes
$Elements
296
1 15 2 1 1 1
2 15 2 2 2 2
3 15 2 3 3 3
4 15 2 4 4 4
5 8 2 1 1 1 5 14
6 8 2 1 1 5 6 15
7 8 2 1 1 6 7 16
8 8 2 1 1 7 8 17
9 8 2 1 1 8 9 18
10 8 2 1 1 9 10 19
11 8 2 1 1 10 11 20
12 8 2 1 1 11 12 21
13 8 2 1 1 12 13 22
14 8 2 1 1 13 2 23
15 8 2 2 2 2 24 33
16 8 2 2 2 24 25 34
17 8 2 2 2 25 26 35
18 8 2 2 2 26 27 36
19 8 2 2 2 27 28 37
20 8 2 2 2 28 29 38
21 8 2 2 2 29 30 39
22 8 2 2 2 30 31 40
23 8 2 2 2 31 32 41
24 8 2 2 2 32 3 42
25 8 2 3 3 3 43 52
26 8 2 3 3 43 44 53
27 8 2 3 3 44 45 54
28 8 2 3 3 45 46 55
29 8 2 3 3 46 47 56
30 8 2 3 3 47 48 57
31 8 2 3 3 48 49 58
32 8 2 3 3 49 50 59
33 8 2 3 3 50 51 60
34 8 2 3 3 51 4 61
35 8 2 4 4 4 62 71
36 8 2 4 4 62 63 72
37 8 2 4 4 63 64 73
38 8 2 4 4 64 65 74
39 8 2 4 4 65 66 75
40 8 2 4 4 66 67 76
41 8 2 4 4 67 68 77
42 8 2 4 4 68 69 78
43 8 2 4 4 69 70 79
44 8 2 4 4 70 1 80
45 9 2 1 1 139 114 155 188 189 190
46 9 2 1 1 87 124 149 191 192 193
47 9 2 1 1 114 139 169 188 194 195
48 9 2 1 1 149 124 166 192 196 197
49 9 2 1 1 139 155 165 190 198 199
50 9 2 1 1 124 87 168 191 200 201
51 9 2 1 1 136 127 161 202 203 204
52 9 2 1 1 146 94 159 205 206 207
53 9 2 1 1 123 162 173 208 209 210
54 9 2 1 1 162 93 173 211 212 209
55 9 2 1 1 160 95 166 213 214 215
56 9 2 1 1 144 148 158 216 217 218
57 9 2 1 1 124 120 166 219 220 196
58 9 2 1 1 161 127 186 203 221 222
59 9 2 1 1 146 159 187 207 223 224
60 9 2 1 1 148 144 181 216 225 226
61 9 2 1 1 160 166 183 215 227 228
62 9 2 1 1 96 97 126 229 230 231
63 9 2 1 1 96 82 97 232 233 229
64 9 2 1 1 27 28 82 37 234 235
65 9 2 1 1 66 67 81 76 236 237
66 9 2 1 1 27 82 96 235 232 238
67 9 2 1 1 128 126 147 239 240 241
68 9 2 1 1 81 67 129 236 242 243
69 9 2 1 1 126 97 147 230 244 240
70 9 2 1 1 128 147 148 241 245 246
71 9 2 1 1 146 133 152 247 248 249
72 9 2 1 1 94 146 152 205 249 250
73 9 2 1 1 82 28 130 234 251 252
74 9 2 1 1 100 98 131 253 254 255
75 9 2 1 1 66 81 135 237 256 257
76 9 2 1 1 89 96 126 258 231 259
77 9 2 1 1 98 130 131 260 261 254
78 9 2 1 1 29 85 130 262 263 264
79 9 2 1 1 131 85 133 265 266 267
80 9 2 1 1 28 29 130 38 264 251
81 9 2 1 1 65 66 135 75 257 268
82 9 2 1 1 133 85 152 266 269 248
83 9 2 1 1 68 91 129 270 271 272
84 9 2 1 1 89 26 96 273 274 258
85 9 2 1 1 86 65 135 275 268 276
86 9 2 1 1 26 27 96 36 238 274
87 9 2 1 1 97 82 98 233 277 278
88 9 2 1 1 48 88 140 279 280 281
89 9 2 1 1 67 68 129 77 272 242
90 9 2 1 1 100 131 132 255 282 283
91 9 2 1 1 98 82 130 277 252 260
92 9 2 1 1 97 99 147 284 285 244
93 9 2 1 1 47 48 140 57 281 286
94 9 2 1 1 137 83 138 287 288 289
95 9 2 1 1 130 85 131 263 265 261
96 9 2 1 1 87 8 141 290 291 292
97 9 2 1 1 46 83 137 293 287 294
98 9 2 1 1 99 102 147 295 296 285
99 9 2 1 1 127 126 128 297 239 298
100 9 2 1 1 89 127 136 299 202 300
101 9 2 1 1 25 89 136 301 300 302
102 9 2 1 1 11 92 145 303 304 305
103 9 2 1 1 141 84 142 306 307 308
104 9 2 1 1 90 45 137 309 310 311
105 9 2 1 1 44 45 90 54 309 312
106 9 2 1 1 138 83 139 288 313 314
107 9 2 1 1 113 122 150 315 316 317
108 9 2 1 1 10 11 145 20 305 318
109 9 2 1 1 68 69 91 78 319 270
110 9 2 1 1 9 84 141 320 306 321
111 9 2 1 1 89 126 127 259 297 299
112 9 2 1 1 24 25 136 34 302 322
113 9 2 1 1 31 32 94 41 323 324
114 9 2 1 1 132 131 133 282 267 325
115 9 2 1 1 48 49 88 58 326 279
116 9 2 1 1 9 10 84 19 327 320
117 9 2 1 1 83 47 140 328 286 329
118 9 2 1 1 7 87 149 330 193 331
119 9 2 1 1 142 143 144 332 333 334
120 9 2 1 1 7 8 87 17 290 330
121 9 2 1 1 25 26 89 35 273 301
122 9 2 1 1 46 47 83 56 328 293
123 9 2 1 1 108 111 112 335 336 337
124 9 2 1 1 97 98 99 278 338 284
125 9 2 1 1 119 124 125 339 340 341
126 9 2 1 1 8 9 141 18 321 291
127 9 2 1 1 112 111 115 336 342 343
128 9 2 1 1 62 63 93 72 344 345
129 9 2 1 1 142 84 143 307 346 332
130 9 2 1 1 45 46 137 55 294 310
131 9 2 1 1 113 121 122 347 348 315
132 9 2 1 1 108 112 151 337 349 350
133 9 2 1 1 108 110 111 351 352 335
134 9 2 1 1 105 107 108 353 354 355
135 9 2 1 1 105 108 151 355 350 356
136 9 2 1 1 6 7 149 16 331 357
137 9 2 1 1 84 10 145 327 318 358
138 9 2 1 1 119 125 153 341 359 360
139 9 2 1 1 115 111 150 342 361 362
140 9 2 1 1 139 83 140 313 329 363
141 9 2 1 1 111 113 150 364 317 361
142 9 2 1 1 112 117 151 365 366 349
143 9 2 1 1 99 100 101 367 368 369
144 9 2 1 1 122 121 123 348 370 371
145 9 2 1 1 111 110 113 352 372 364
146 9 2 1 1 103 105 106 373 374 375
147 9 2 1 1 103 104 105 376 377 373
148 9 2 1 1 106 105 151 374 356 378
149 9 2 1 1 112 115 116 343 379 380
150 9 2 1 1 108 107 110 354 381 351
151 9 2 1 1 99 98 100 338 253 367
152 9 2 1 1 102 101 103 382 383 384
153 9 2 1 1 99 101 102 369 382 295
154 9 2 1 1 31 94 152 324 250 385
155 9 2 1 1 103 101 104 383 386 376
156 9 2 1 1 95 6 149 387 357 388
157 9 2 1 1 134 133 146 389 247 390
158 9 2 1 1 11 12 92 21 391 303
159 9 2 1 1 105 104 107 377 392 353
160 9 2 1 1 106 151 153 378 393 394
161 9 2 1 1 119 120 124 395 219 339
162 9 2 1 1 147 102 148 296 396 245
163 9 2 1 1 5 6 95 15 387 397
164 9 2 1 1 29 30 85 39 398 262
165 9 2 1 1 151 117 153 366 399 393
166 9 2 1 1 117 119 153 400 360 399
167 9 2 1 1 143 84 145 346 358 401
168 9 2 1 1 113 114 121 402 403 347
169 9 2 1 1 107 104 109 392 404 405
170 9 2 1 1 132 133 134 325 389 406
171 9 2 1 1 112 116 117 380 407 365
172 9 2 1 1 30 31 152 40 385 408
173 9 2 1 1 113 110 114 372 409 402
174 9 2 1 1 100 132 156 283 410 411
175 9 2 1 1 64 65 86 74 275 412
176 9 2 1 1 93 63 154 344 413 414
177 9 2 1 1 101 100 156 368 411 415
178 9 2 1 1 117 118 119 416 417 400
179 9 2 1 1 110 107 155 381 418 419
180 9 2 1 1 63 64 154 73 420 413
181 9 2 1 1 107 109 155 405 421 418
182 9 2 1 1 85 30 152 398 408 269
183 9 2 1 1 119 118 120 417 422 395
184 9 2 1 1 114 110 155 409 419 189
185 9 2 1 1 104 101 156 386 415 423
186 9 2 1 1 109 104 156 404 423 424
187 9 2 1 1 117 116 118 407 425 416
188 9 2 1 1 64 86 154 412 426 420
189 9 2 1 1 156 132 157 410 427 428
190 9 2 1 1 109 156 157 424 428 429
191 9 2 1 1 132 134 157 406 430 427
192 9 2 1 1 121 169 185 431 432 433
193 9 2 1 1 138 139 165 314 199 434
194 9 2 1 1 103 106 158 375 435 436
195 9 2 1 1 148 102 158 396 437 217
196 9 2 1 1 158 106 167 435 438 439
197 9 2 1 1 43 44 159 53 440 441
198 9 2 1 1 69 70 160 79 442 443
199 9 2 1 1 12 13 161 22 444 445
200 9 2 1 1 169 88 185 446 447 432
201 9 2 1 1 143 145 163 401 448 449
202 9 2 1 1 137 138 164 289 450 451
203 9 2 1 1 144 143 181 333 452 225
204 9 2 1 1 109 157 165 429 453 454
205 9 2 1 1 144 158 167 218 439 455
206 9 2 1 1 102 103 158 384 436 437
207 9 2 1 1 153 125 167 359 456 457
208 9 2 1 1 141 142 168 308 458 459
209 9 2 1 1 125 124 168 340 201 460
210 9 2 1 1 139 140 169 363 461 194
211 9 2 1 1 121 114 169 403 195 431
212 9 2 1 1 44 90 159 312 462 440
213 9 2 1 1 91 69 160 319 443 463
214 9 2 1 1 92 12 161 391 445 464
215 9 2 1 1 88 49 170 326 465 466
216 9 2 1 1 50 51 162 60 467 468
217 9 2 1 1 145 92 163 304 469 448
218 9 2 1 1 90 137 164 311 451 470
219 9 2 1 1 162 123 170 208 471 472
220 9 2 1 1 32 3 177 42 473 474
221 9 2 1 1 2 24 178 33 475 476
222 9 2 1 1 13 2 178 23 476 477
223 9 2 1 1 3 43 177 52 478 473
224 9 2 1 1 70 1 179 80 479 480
225 9 2 1 1 1 5 179 14 481 479
226 9 2 1 1 155 109 165 421 454 198
227 9 2 1 1 4 62 180 71 482 483
228 9 2 1 1 51 4 180 61 483 484
229 9 2 1 1 50 162 170 468 472 485
230 9 2 1 1 95 149 166 388 197 214
231 9 2 1 1 106 153 167 394 457 438
232 9 2 1 1 168 142 184 458 486 487
233 9 2 1 1 87 141 168 292 459 200
234 9 2 1 1 140 88 169 280 446 461
235 9 2 1 1 127 128 186 298 488 221
236 9 2 1 1 134 146 187 390 224 489
237 9 2 1 1 165 157 182 453 490 491
238 9 2 1 1 159 90 187 462 492 223
239 9 2 1 1 92 161 186 464 222 493
240 9 2 1 1 49 50 170 59 485 465
241 9 2 1 1 81 129 175 243 494 495
242 9 2 1 1 115 172 174 496 497 498
243 9 2 1 1 122 123 173 371 210 499
244 9 2 1 1 150 122 171 316 500 501
245 9 2 1 1 115 150 172 362 502 496
246 9 2 1 1 129 91 176 271 503 504
247 9 2 1 1 171 122 173 500 499 505
248 9 2 1 1 116 115 174 379 498 506
249 9 2 1 1 150 171 172 501 507 502
250 9 2 1 1 172 135 174 508 509 497
251 9 2 1 1 86 135 172 276 508 510
252 9 2 1 1 175 129 176 494 504 511
253 9 2 1 1 154 86 171 426 512 513
254 9 2 1 1 93 154 173 414 514 212
255 9 2 1 1 135 81 174 256 515 509
256 9 2 1 1 171 86 172 512 510 507
257 9 2 1 1 154 171 173 513 505 514
258 9 2 1 1 118 116 175 425 516 517
259 9 2 1 1 118 175 176 517 511 518
260 9 2 1 1 120 118 176 422 518 519
261 9 2 1 1 174 81 175 515 495 520
262 9 2 1 1 116 174 175 506 520 516
263 9 2 1 1 128 163 186 521 522 488
264 9 2 1 1 164 134 187 523 489 524
265 9 2 1 1 125 168 184 460 487 525
266 9 2 1 1 128 148 181 246 226 526
267 9 2 1 1 157 134 182 430 527 490
268 9 2 1 1 138 165 182 434 491 528
269 9 2 1 1 91 160 183 463 228 529
270 9 2 1 1 142 144 184 334 530 486
271 9 2 1 1 160 70 179 442 480 531
272 9 2 1 1 43 159 177 441 532 478
273 9 2 1 1 161 13 178 444 477 533
274 9 2 1 1 62 93 180 345 534 482
275 9 2 1 1 24 136 178 322 535 475
276 9 2 1 1 94 32 177 323 474 536
277 9 2 1 1 5 95 179 397 537 481
278 9 2 1 1 88 170 185 466 538 447
279 9 2 1 1 143 163 181 449 539 452
280 9 2 1 1 164 138 182 450 528 540
281 9 2 1 1 167 125 184 456 525 541
282 9 2 1 1 163 128 181 521 526 539
283 9 2 1 1 134 164 182 523 540 527
284 9 2 1 1 123 121 185 370 433 542
285 9 2 1 1 159 94 177 206 536 532
286 9 2 1 1 95 160 179 213 531 537
287 9 2 1 1 136 161 178 204 533 535
288 9 2 1 1 93 162 180 211 543 534
289 9 2 1 1 162 51 180 467 484 543
290 9 2 1 1 144 167 184 455 541 530
291 9 2 1 1 163 92 186 469 493 522
292 9 2 1 1 90 164 187 470 524 492
293 9 2 1 1 166 120 183 220 544 227
294 9 2 1 1 176 91 183 503 529 545
295 9 2 1 1 120 176 183 519 545 544
296 9 2 1 1 170 123 185 471 542 538
$EndElements
$Periodic
3
0 2 1
1
2 1
0 3 4
1
3 4
1 2 4
11
2 1
3 4
24 70
25 69
26 68
27 67
28 66
29 65
30 64
31 63
32 62
$EndPeriodic
