$MeshFormat
2.2 0 8
$EndMeshFormat
$Nodes
175
1 -2 -2 -2
2 2 -2 -2
3 2 -2 2
4 -2 -2 2
5 -2 2 -2
6 2 2 -2
7 2 2 2
8 -2 2 2
9 -1.000000000002774 -2 -2
10 -5.504485756091526e-12 -2 -2
11 0.9999999999972258 -2 -2
12 2 -2 -1.000000000002774
13 2 -2 -5.504485756091526e-12
14 2 -2 0.9999999999972258
15 1.000000000002774 -2 2
16 5.504485756091526e-12 -2 2
17 -0.9999999999972258 -2 2
18 -2 -2 1.000000000002774
19 -2 -2 5.504485756091526e-12
20 -2 -2 -0.9999999999972258
21 2 -1.000000000002774 2
22 2 -5.504485756091526e-12 2
23 2 0.9999999999972258 2
24 2 2 1.000000000002774
25 2 2 5.504485756091526e-12
26 2 2 -0.9999999999972258
27 2 1.000000000002774 -2
28 2 5.504485756091526e-12 -2
29 2 -0.9999999999972258 -2
30 -2 -1.000000000002774 -2
31 -2 -5.504485756091526e-12 -2
32 -2 0.9999999999972258 -2
33 -2 2 -1.000000000002774
34 -2 2 -5.504485756091526e-12
35 -2 2 0.9999999999972258
36 -2 1.000000000002774 2
37 -2 5.504485756091526e-12 2
38 -2 -0.9999999999972258 2
39 -1.000000000002774 2 2
40 -5.504485756091526e-12 2 2
41 0.9999999999972258 2 2
42 1.000000000002774 2 -2
43 5.504485756091526e-12 2 -2
44 -0.9999999999972258 2 -2
45 0.004381613756559035 -2 -0.004381613756668498
46 -0.8859126984128927 -2 -0.8859126984125042
47 0.8859126984125042 -2 -0.8859126984128927
48 0.8859126984128927 -2 0.8859126984125042
49 -0.8854258524395531 -2 0.8854258524399294
50 0.0005409399710098155 -2 1.236011088248736
51 1.237038874191646 -2 -0.0004868459740274031
52 0.0004868459718867623 -2 -1.237038874191658
53 -1.236011088248749 -2 -0.000540939968894822
54 1.432374338623516 -2 -1.432374338625161
55 1.432374338625161 -2 1.432374338623516
56 -1.432293197628024 -2 1.432293197629667
57 -1.432374338625161 -2 -1.432374338623516
58 2 0.004381613756559035 0.004381613756668498
59 2 -0.8859126984128927 0.8859126984125041
60 2 0.8859126984125041 0.8859126984128927
61 2 0.8859126984128927 -0.8859126984125041
62 2 -0.8854258524395531 -0.8854258524399294
63 2 0.0004868459718867561 1.237038874191658
64 2 1.237038874191646 0.0004868459740274093
65 2 -1.236011088248749 0.0005409399688948096
66 2 0.0005409399710098155 -1.236011088248736
67 2 -1.432374338625161 1.432374338623516
68 2 1.432374338623516 1.432374338625161
69 2 1.432374338625161 -1.432374338623516
70 2 -1.432293197628024 -1.432293197629667
71 -1.094541124402326e-13 2 0.008763227513227492
72 -0.8983196159120358 2 -0.8841816905092243
73 0.8859126984125041 2 0.8859126984128927
74 -0.8859126984128927 2 0.8859126984125041
75 0.8859126984128805 2 -0.8849390064665899
76 -1.230709876543295 2 0.006815843620407862
77 -1.076407503695017e-12 2 1.237525720164609
78 1.236552028218681 2 0.001081879940968891
79 -0.001378546387786111 2 -1.235277814067272
80 -1.432374338625161 2 1.432374338623516
81 1.432374338625159 2 -1.43221205663253
82 -1.434442158206772 2 -1.432085837307883
83 1.432374338623516 2 1.432374338625161
84 -2 -0.004381613756559035 0.004381613756668489
85 -2 0.8859126984128927 0.8859126984125042
86 -2 -0.8859126984128927 -0.8859126984125041
87 -2 -0.8859126984125042 0.8859126984128927
88 -2 0.8854258524395531 -0.8854258524399294
89 -2 -0.0004868459718867623 1.237038874191658
90 -2 -1.237038874191646 0.0004868459740274087
91 -2 -0.0005409399710098155 -1.236011088248736
92 -2 1.236011088248749 0.000540939968894822
93 -2 -1.432374338625161 -1.432374338623516
94 -2 1.432374338625161 1.432374338623516
95 -2 1.432293197628024 -1.432293197629667
96 -2 -1.432374338623516 1.432374338625161
97 -1.586032892322238e-18 0 2
98 -0.8859126984130006 0.8859126984130007 2
99 0.8859126984130006 -0.8859126984130007 2
100 -0.8859126984123959 -0.8859126984123959 2
101 0.8859126984123962 0.8859126984123959 2
102 1.236552028218695 -1.329029479061698e-12 2
103 -1.236552028218695 1.329029479061698e-12 2
104 1.329013090055144e-12 -1.236552028218695 2
105 -1.328988418432374e-12 1.236552028218695 2
106 -1.432374338624646 1.432374338624646 2
107 1.432374338624646 -1.432374338624646 2
108 -1.432374338624031 -1.432374338624031 2
109 1.432374338624031 1.432374338624031 2
110 0.00438161375662612 0.004381613756626111 -2
111 0.8859126984130007 0.8859126984130007 -2
112 -0.8854258524400421 -0.8854258524400422 -2
113 -0.8854258524394374 0.8863995443853544 -2
114 0.8863995443853544 -0.8854258524394374 -2
115 -1.235956994251746 0.0005950339656201989 -2
116 0.0005409399712828891 1.237092968188649 -2
117 0.0005950339656202153 -1.235956994251746 -2
118 1.237092968188649 0.000540939971282887 -2
119 -1.432293197629153 -1.432293197629153 -2
120 1.432374338624646 1.432374338624646 -2
121 -1.432293197628538 1.432455479619524 -2
122 1.432455479619524 -1.432293197628538 -2
123 -4.78918876372237e-06 -4.789096819059549e-06 -4.810126864596143e-06
124 -0.7378802472199093 0.7394978203441362 -0.7380081552534485
125 0.7383243901487266 0.7383243901487266 0.7383243901486463
126 0.7383262650512132 -0.7383262650512132 0.7383262650512936
127 -0.738326265087209 0.7383262650872093 0.7383262650872893
128 0.7383564634702275 0.7382279275113959 -0.7383564634703077
129 -0.7383583795108515 -0.7382296324793635 0.7383583795107719
130 0.7382295778737505 -0.7383583248354699 -0.7383585938438783
131 -0.7383602623555287 -0.738360262355529 -0.738231516969692
132 -1.22034064366606 1.221069664652839 -1.220401046224076
133 1.220495217279507 1.220434665052437 -1.220495217279736
134 1.220435678041005 -1.220496241571286 -1.220496261827446
135 1.220485237339748 1.220485237339749 1.220485237339519
136 1.220486260827946 -1.220486260827946 1.220486260828175
137 -1.220486260847596 1.220486260847596 1.220486260847825
138 -1.220496227765408 -1.220435664228283 1.220496227765178
139 -1.220497255800659 -1.220497255800658 -1.220436692557675
140 -3.119473204495342e-09 1.106343019804265 1.106176119091484
141 -1.105847485691915 0.0007437948651786153 -1.105837205682322
142 1.10628318337759 -3.165385647661226e-09 1.106199748087243
143 1.106269517553181 1.106186865616494 -3.207867085865747e-05
144 -1.106310183448558 6.43207581388639e-05 1.106226724345876
145 1.106120330258351 -1.106295682425757 -3.226067973091228e-05
146 1.106144749262037 -9.627789519139895e-05 -1.106329418197609
147 -1.106322661754629 -1.106147432391708 9.644337667255229e-05
148 -9.651660898086139e-05 -1.106325368819929 -1.106140874332169
149 -3.212913613128224e-05 -1.106143983976241 1.106235913226089
150 0.0004672045021816285 1.106212981946328 -1.106519262159961
151 -1.106566663113363 1.105714287700409 0.0003388162445421066
152 -1.529507785363125 1.536210351718147 -0.5621863646514995
153 1.532758821173726 1.533388678891818 -0.5646764301628846
154 1.533292190987203 -0.5647354654078554 -1.532871979090966
155 -1.533258995026661 0.5650653991007224 -1.532439888831393
156 -0.5647210296708355 -1.532829841347813 -1.533330194631082
157 -1.533209638235479 0.5649437521296488 1.533038134023001
158 1.533209638235823 -0.564943752129386 1.533038134023346
159 -0.5651330351388238 1.53296170646256 1.533339604689256
160 0.5651330215630878 1.532961724239568 1.533339622489341
161 0.5646997248817774 1.534139865921275 -1.532014165073657
162 -0.5648010285512799 -1.53339658427467 1.532786115790935
163 1.533698055350357 -1.532538159905912 -0.5649903616837961
164 -1.532538167831559 -1.533698063278529 0.5649903556319631
165 1.532884316773894 0.5651921181357575 1.533433745381682
166 1.532952481942151 -1.533313765408693 0.5650090695345387
167 -1.532907100166616 -0.5651747242007936 1.53345653221342
168 -1.533336527931113 -1.53297529856719 -0.564991669807599
169 -0.5650061181179891 1.532937234084578 -1.533649999228221
170 -1.532667126032374 -0.5648452772380019 -1.533528040375021
171 0.5650682235666238 -1.533046599702958 1.533236379429928
172 1.533323626209935 1.533072443892067 0.5654679113994875
173 1.533404248409849 0.5652612363979901 -1.532983877829389
174 0.5652467315235199 -1.533021803504086 -1.533362199404295
175 -1.534538477437875 1.532009720152034 0.5660058848683069
$EndNodes
$Elements
912
1 15 2 0 1 1
2 15 2 0 2 2
3 15 2 0 3 3
4 15 2 0 4 4
5 15 2 0 5 5
6 15 2 0 6 6
7 15 2 0 7 7
8 15 2 0 8 8
9 1 2 0 1 1 9
10 1 2 0 1 9 10
11 1 2 0 1 10 11
12 1 2 0 1 11 2
13 1 2 0 2 2 12
14 1 2 0 2 12 13
15 1 2 0 2 13 14
16 1 2 0 2 14 3
17 1 2 0 3 3 15
18 1 2 0 3 15 16
19 1 2 0 3 16 17
20 1 2 0 3 17 4
21 1 2 0 4 4 18
22 1 2 0 4 18 19
23 1 2 0 4 19 20
24 1 2 0 4 20 1
25 1 2 0 5 3 21
26 1 2 0 5 21 22
27 1 2 0 5 22 23
28 1 2 0 5 23 7
29 1 2 0 6 7 24
30 1 2 0 6 24 25
31 1 2 0 6 25 26
32 1 2 0 6 26 6
33 1 2 0 7 6 27
34 1 2 0 7 27 28
35 1 2 0 7 28 29
36 1 2 0 7 29 2
37 1 2 0 8 1 30
38 1 2 0 8 30 31
39 1 2 0 8 31 32
40 1 2 0 8 32 5
41 1 2 0 9 5 33
42 1 2 0 9 33 34
43 1 2 0 9 34 35
44 1 2 0 9 35 8
45 1 2 0 10 8 36
46 1 2 0 10 36 37
47 1 2 0 10 37 38
48 1 2 0 10 38 4
49 1 2 0 11 8 39
50 1 2 0 11 39 40
51 1 2 0 11 40 41
52 1 2 0 11 41 7
53 1 2 0 12 6 42
54 1 2 0 12 42 43
55 1 2 0 12 43 44
56 1 2 0 12 44 5
57 2 2 0 19 10 52 9
58 2 2 0 19 10 11 52
59 2 2 0 19 2 54 11
60 2 2 0 19 2 12 54
61 2 2 0 19 3 55 14
62 2 2 0 19 3 15 55
63 2 2 0 19 4 56 17
64 2 2 0 19 4 18 56
65 2 2 0 19 1 9 57
66 2 2 0 19 1 57 20
67 2 2 0 19 9 52 46
68 2 2 0 19 9 46 57
69 2 2 0 19 11 47 52
70 2 2 0 19 11 54 47
71 2 2 0 19 12 13 51
72 2 2 0 19 12 51 47
73 2 2 0 19 12 47 54
74 2 2 0 19 13 14 51
75 2 2 0 19 14 48 51
76 2 2 0 19 14 55 48
77 2 2 0 19 15 16 50
78 2 2 0 19 15 50 48
79 2 2 0 19 15 48 55
80 2 2 0 19 16 17 50
81 2 2 0 19 17 49 50
82 2 2 0 19 17 56 49
83 2 2 0 19 18 19 53
84 2 2 0 19 18 53 49
85 2 2 0 19 18 49 56
86 2 2 0 19 19 20 53
87 2 2 0 19 20 46 53
88 2 2 0 19 20 57 46
89 2 2 0 19 48 50 45
90 2 2 0 19 48 45 51
91 2 2 0 19 47 51 45
92 2 2 0 19 47 45 52
93 2 2 0 19 46 52 45
94 2 2 0 19 46 45 53
95 2 2 0 19 45 50 49
96 2 2 0 19 45 49 53
97 2 2 0 20 2 12 70
98 2 2 0 20 2 70 29
99 2 2 0 20 3 67 14
100 2 2 0 20 3 21 67
101 2 2 0 20 12 13 65
102 2 2 0 20 12 65 62
103 2 2 0 20 12 62 70
104 2 2 0 20 6 69 26
105 2 2 0 20 6 27 69
106 2 2 0 20 7 68 23
107 2 2 0 20 7 24 68
108 2 2 0 20 13 14 65
109 2 2 0 20 14 59 65
110 2 2 0 20 14 67 59
111 2 2 0 20 21 22 63
112 2 2 0 20 21 63 59
113 2 2 0 20 21 59 67
114 2 2 0 20 22 23 63
115 2 2 0 20 23 60 63
116 2 2 0 20 23 68 60
117 2 2 0 20 24 25 64
118 2 2 0 20 24 64 60
119 2 2 0 20 24 60 68
120 2 2 0 20 25 26 64
121 2 2 0 20 26 61 64
122 2 2 0 20 26 69 61
123 2 2 0 20 27 28 66
124 2 2 0 20 27 66 61
125 2 2 0 20 27 61 69
126 2 2 0 20 28 29 66
127 2 2 0 20 29 62 66
128 2 2 0 20 29 70 62
129 2 2 0 20 60 58 63
130 2 2 0 20 60 64 58
131 2 2 0 20 59 63 58
132 2 2 0 20 59 58 65
133 2 2 0 20 61 58 64
134 2 2 0 20 61 66 58
135 2 2 0 20 58 62 65
136 2 2 0 20 58 66 62
137 2 2 0 21 5 33 82
138 2 2 0 21 5 82 44
139 2 2 0 21 6 81 26
140 2 2 0 21 6 42 81
141 2 2 0 21 7 24 83
142 2 2 0 21 7 83 41
143 2 2 0 21 8 80 35
144 2 2 0 21 8 39 80
145 2 2 0 21 24 25 78
146 2 2 0 21 24 78 73
147 2 2 0 21 24 73 83
148 2 2 0 21 25 26 78
149 2 2 0 21 26 75 78
150 2 2 0 21 26 81 75
151 2 2 0 21 33 34 76
152 2 2 0 21 33 76 72
153 2 2 0 21 33 72 82
154 2 2 0 21 34 35 76
155 2 2 0 21 35 74 76
156 2 2 0 21 35 80 74
157 2 2 0 21 39 40 77
158 2 2 0 21 39 77 74
159 2 2 0 21 39 74 80
160 2 2 0 21 40 41 77
161 2 2 0 21 41 73 77
162 2 2 0 21 41 83 73
163 2 2 0 21 42 43 79
164 2 2 0 21 42 79 75
165 2 2 0 21 42 75 81
166 2 2 0 21 43 44 79
167 2 2 0 21 44 72 79
168 2 2 0 21 44 82 72
169 2 2 0 21 74 71 76
170 2 2 0 21 74 77 71
171 2 2 0 21 73 71 77
172 2 2 0 21 73 78 71
173 2 2 0 21 71 72 76
174 2 2 0 21 71 78 75
175 2 2 0 21 71 75 79
176 2 2 0 21 71 79 72
177 2 2 0 22 4 18 96
178 2 2 0 22 4 96 38
179 2 2 0 22 5 95 32
180 2 2 0 22 5 33 95
181 2 2 0 22 1 93 20
182 2 2 0 22 1 30 93
183 2 2 0 22 8 94 35
184 2 2 0 22 8 36 94
185 2 2 0 22 18 19 90
186 2 2 0 22 18 90 87
187 2 2 0 22 18 87 96
188 2 2 0 22 19 20 90
189 2 2 0 22 20 86 90
190 2 2 0 22 20 93 86
191 2 2 0 22 30 31 91
192 2 2 0 22 30 91 86
193 2 2 0 22 30 86 93
194 2 2 0 22 31 32 91
195 2 2 0 22 32 88 91
196 2 2 0 22 32 95 88
197 2 2 0 22 33 34 92
198 2 2 0 22 33 92 88
199 2 2 0 22 33 88 95
200 2 2 0 22 34 35 92
201 2 2 0 22 35 85 92
202 2 2 0 22 35 94 85
203 2 2 0 22 36 37 89
204 2 2 0 22 36 89 85
205 2 2 0 22 36 85 94
206 2 2 0 22 37 38 89
207 2 2 0 22 38 87 89
208 2 2 0 22 38 96 87
209 2 2 0 22 86 84 90
210 2 2 0 22 86 91 84
211 2 2 0 22 85 89 84
212 2 2 0 22 85 84 92
213 2 2 0 22 87 84 89
214 2 2 0 22 87 90 84
215 2 2 0 22 84 91 88
216 2 2 0 22 84 88 92
217 2 2 0 23 3 15 107
218 2 2 0 23 3 107 21
219 2 2 0 23 4 108 17
220 2 2 0 23 4 38 108
221 2 2 0 23 7 23 109
222 2 2 0 23 7 109 41
223 2 2 0 23 8 106 36
224 2 2 0 23 8 39 106
225 2 2 0 23 15 16 104
226 2 2 0 23 15 104 99
227 2 2 0 23 15 99 107
228 2 2 0 23 16 17 104
229 2 2 0 23 17 100 104
230 2 2 0 23 17 108 100
231 2 2 0 23 21 102 22
232 2 2 0 23 21 99 102
233 2 2 0 23 21 107 99
234 2 2 0 23 22 102 23
235 2 2 0 23 23 102 101
236 2 2 0 23 23 101 109
237 2 2 0 23 36 103 37
238 2 2 0 23 36 98 103
239 2 2 0 23 36 106 98
240 2 2 0 23 37 103 38
241 2 2 0 23 38 103 100
242 2 2 0 23 38 100 108
243 2 2 0 23 39 40 105
244 2 2 0 23 39 105 98
245 2 2 0 23 39 98 106
246 2 2 0 23 40 41 105
247 2 2 0 23 41 101 105
248 2 2 0 23 41 109 101
249 2 2 0 23 97 102 99
250 2 2 0 23 97 99 104
251 2 2 0 23 97 103 98
252 2 2 0 23 97 98 105
253 2 2 0 23 97 100 103
254 2 2 0 23 97 104 100
255 2 2 0 23 97 101 102
256 2 2 0 23 97 105 101
257 2 2 0 24 10 117 9
258 2 2 0 24 10 11 117
259 2 2 0 24 2 122 11
260 2 2 0 24 2 29 122
261 2 2 0 24 5 32 121
262 2 2 0 24 5 121 44
263 2 2 0 24 1 9 119
264 2 2 0 24 1 119 30
265 2 2 0 24 9 117 112
266 2 2 0 24 9 112 119
267 2 2 0 24 11 114 117
268 2 2 0 24 11 122 114
269 2 2 0 24 6 120 27
270 2 2 0 24 6 42 120
271 2 2 0 24 27 118 28
272 2 2 0 24 27 111 118
273 2 2 0 24 27 120 111
274 2 2 0 24 28 118 29
275 2 2 0 24 29 118 114
276 2 2 0 24 29 114 122
277 2 2 0 24 30 115 31
278 2 2 0 24 30 112 115
279 2 2 0 24 30 119 112
280 2 2 0 24 31 115 32
281 2 2 0 24 32 115 113
282 2 2 0 24 32 113 121
283 2 2 0 24 42 43 116
284 2 2 0 24 42 116 111
285 2 2 0 24 42 111 120
286 2 2 0 24 43 44 116
287 2 2 0 24 44 113 116
288 2 2 0 24 44 121 113
289 2 2 0 24 111 116 110
290 2 2 0 24 111 110 118
291 2 2 0 24 110 113 115
292 2 2 0 24 110 116 113
293 2 2 0 24 110 115 112
294 2 2 0 24 110 112 117
295 2 2 0 24 110 117 114
296 2 2 0 24 110 114 118
297 4 2 0 26 124 71 123 150
298 4 2 0 26 71 128 123 150
299 4 2 0 26 71 124 123 151
300 4 2 0 26 123 71 125 143
301 4 2 0 26 128 71 123 143
302 4 2 0 26 71 123 127 151
303 4 2 0 26 123 71 127 140
304 4 2 0 26 71 123 125 140
305 4 2 0 26 84 124 123 141
306 4 2 0 26 124 110 123 141
307 4 2 0 26 58 126 123 145
308 4 2 0 26 58 130 123 146
309 4 2 0 26 130 58 123 145
310 4 2 0 26 128 58 123 146
311 4 2 0 26 45 129 123 147
312 4 2 0 26 131 45 123 147
313 4 2 0 26 45 126 123 149
314 4 2 0 26 131 110 123 148
315 4 2 0 26 124 84 123 151
316 4 2 0 26 110 130 123 148
317 4 2 0 26 129 45 123 149
318 4 2 0 26 131 84 123 141
319 4 2 0 26 110 131 123 141
320 4 2 0 26 110 124 123 150
321 4 2 0 26 123 84 127 151
322 4 2 0 26 126 58 123 142
323 4 2 0 26 123 58 125 142
324 4 2 0 26 84 123 127 144
325 4 2 0 26 58 123 125 143
326 4 2 0 26 58 128 123 143
327 4 2 0 26 84 129 123 144
328 4 2 0 26 128 110 123 150
329 4 2 0 26 126 45 123 145
330 4 2 0 26 84 131 123 147
331 4 2 0 26 45 130 123 145
332 4 2 0 26 45 131 123 148
333 4 2 0 26 129 84 123 147
334 4 2 0 26 130 45 123 148
335 4 2 0 26 130 110 123 146
336 4 2 0 26 110 128 123 146
337 4 2 0 26 97 123 127 140
338 4 2 0 26 123 97 125 140
339 4 2 0 26 97 126 123 142
340 4 2 0 26 97 123 125 142
341 4 2 0 26 123 97 127 144
342 4 2 0 26 129 97 123 144
343 4 2 0 26 126 97 123 149
344 4 2 0 26 97 129 123 149
345 4 2 0 26 76 33 72 152
346 4 2 0 26 72 44 79 169
347 4 2 0 26 42 75 79 161
348 4 2 0 26 75 26 78 153
349 4 2 0 26 62 12 65 163
350 4 2 0 26 18 49 53 164
351 4 2 0 26 44 113 116 169
352 4 2 0 26 20 86 90 168
353 4 2 0 26 48 14 51 166
354 4 2 0 26 30 112 115 170
355 4 2 0 26 59 21 63 158
356 4 2 0 26 85 36 89 157
357 4 2 0 26 112 9 117 156
358 4 2 0 26 29 62 66 154
359 4 2 0 26 49 17 50 162
360 4 2 0 26 32 88 91 155
361 4 2 0 26 100 38 103 167
362 4 2 0 26 101 23 102 165
363 4 2 0 26 41 101 105 160
364 4 2 0 26 98 39 105 159
365 4 2 0 26 26 61 64 153
366 4 2 0 26 35 85 92 175
367 4 2 0 26 9 46 52 156
368 4 2 0 26 99 15 104 171
369 4 2 0 26 114 29 118 154
370 4 2 0 26 73 41 77 160
371 4 2 0 26 39 74 77 159
372 4 2 0 26 21 99 102 158
373 4 2 0 26 36 98 103 157
374 4 2 0 26 11 114 117 174
375 4 2 0 26 60 24 64 172
376 4 2 0 26 61 27 66 173
377 4 2 0 26 17 100 104 162
378 4 2 0 26 47 11 52 174
379 4 2 0 26 38 87 89 167
380 4 2 0 26 23 60 63 165
381 4 2 0 26 27 111 118 173
382 4 2 0 26 15 48 50 171
383 4 2 0 26 46 20 53 168
384 4 2 0 26 14 59 65 166
385 4 2 0 26 113 32 115 155
386 4 2 0 26 12 47 51 163
387 4 2 0 26 24 73 78 172
388 4 2 0 26 87 18 90 164
389 4 2 0 26 86 30 91 170
390 4 2 0 26 111 42 116 161
391 4 2 0 26 88 33 92 152
392 4 2 0 26 74 35 76 175
393 4 2 0 26 34 33 76 152
394 4 2 0 26 71 124 72 150
395 4 2 0 26 124 71 72 151
396 4 2 0 26 43 42 79 161
397 4 2 0 26 26 25 78 153
398 4 2 0 26 12 13 65 163
399 4 2 0 26 19 18 53 164
400 4 2 0 26 9 10 117 156
401 4 2 0 26 28 29 66 154
402 4 2 0 26 43 44 116 169
403 4 2 0 26 17 16 50 162
404 4 2 0 26 31 30 115 170
405 4 2 0 26 128 71 75 150
406 4 2 0 26 19 20 90 168
407 4 2 0 26 14 13 51 166
408 4 2 0 26 21 22 63 158
409 4 2 0 26 36 37 89 157
410 4 2 0 26 40 41 105 160
411 4 2 0 26 39 40 105 159
412 4 2 0 26 31 32 91 155
413 4 2 0 26 29 28 118 154
414 4 2 0 26 38 37 103 167
415 4 2 0 26 23 22 102 165
416 4 2 0 26 25 26 64 153
417 4 2 0 26 10 9 52 156
418 4 2 0 26 71 128 75 143
419 4 2 0 26 22 21 102 158
420 4 2 0 26 37 36 103 157
421 4 2 0 26 27 28 66 173
422 4 2 0 26 15 16 104 171
423 4 2 0 26 41 40 77 160
424 4 2 0 26 40 39 77 159
425 4 2 0 26 10 11 117 174
426 4 2 0 26 124 84 88 141
427 4 2 0 26 20 19 53 168
428 4 2 0 26 16 17 104 162
429 4 2 0 26 13 14 65 166
430 4 2 0 26 34 35 92 175
431 4 2 0 26 24 25 64 172
432 4 2 0 26 16 15 50 171
433 4 2 0 26 84 124 88 151
434 4 2 0 26 11 10 52 174
435 4 2 0 26 37 38 89 167
436 4 2 0 26 22 23 63 165
437 4 2 0 26 28 27 118 173
438 4 2 0 26 44 43 79 169
439 4 2 0 26 131 110 112 141
440 4 2 0 26 58 130 62 145
441 4 2 0 26 130 58 62 146
442 4 2 0 26 45 49 129 147
443 4 2 0 26 110 131 112 148
444 4 2 0 26 49 45 129 149
445 4 2 0 26 13 12 51 163
446 4 2 0 26 18 19 90 164
447 4 2 0 26 25 24 78 172
448 4 2 0 26 30 31 91 170
449 4 2 0 26 32 31 115 155
450 4 2 0 26 33 34 92 152
451 4 2 0 26 42 43 116 161
452 4 2 0 26 110 124 113 141
453 4 2 0 26 124 110 113 150
454 4 2 0 26 58 59 126 145
455 4 2 0 26 45 48 126 149
456 4 2 0 26 86 84 131 141
457 4 2 0 26 61 58 128 146
458 4 2 0 26 46 45 131 147
459 4 2 0 26 130 110 114 148
460 4 2 0 26 84 85 127 151
461 4 2 0 26 59 58 126 142
462 4 2 0 26 85 84 127 144
463 4 2 0 26 48 45 126 145
464 4 2 0 26 58 61 128 143
465 4 2 0 26 84 86 131 147
466 4 2 0 26 45 46 131 148
467 4 2 0 26 110 130 114 146
468 4 2 0 26 97 101 125 140
469 4 2 0 26 98 97 127 140
470 4 2 0 26 101 97 125 142
471 4 2 0 26 97 99 126 142
472 4 2 0 26 97 98 127 144
473 4 2 0 26 100 97 129 144
474 4 2 0 26 99 97 126 149
475 4 2 0 26 97 100 129 149
476 4 2 0 26 71 73 125 143
477 4 2 0 26 74 71 127 151
478 4 2 0 26 73 71 125 140
479 4 2 0 26 71 74 127 140
480 4 2 0 26 58 60 125 142
481 4 2 0 26 60 58 125 143
482 4 2 0 26 84 87 129 144
483 4 2 0 26 111 110 128 150
484 4 2 0 26 45 47 130 145
485 4 2 0 26 87 84 129 147
486 4 2 0 26 47 45 130 148
487 4 2 0 26 35 34 76 175
488 4 2 0 26 110 111 128 146
489 4 2 0 26 71 72 79 150
490 4 2 0 26 71 76 72 151
491 4 2 0 26 75 71 79 150
492 4 2 0 26 71 75 78 143
493 4 2 0 26 112 110 115 141
494 4 2 0 26 58 62 65 145
495 4 2 0 26 62 58 66 146
496 4 2 0 26 49 45 53 147
497 4 2 0 26 110 112 117 148
498 4 2 0 26 45 49 50 149
499 4 2 0 26 88 84 91 141
500 4 2 0 26 84 88 92 151
501 4 2 0 26 84 86 91 141
502 4 2 0 26 114 110 117 148
503 4 2 0 26 58 61 66 146
504 4 2 0 26 45 46 53 147
505 4 2 0 26 59 58 65 145
506 4 2 0 26 48 45 50 149
507 4 2 0 26 110 113 115 141
508 4 2 0 26 85 84 92 151
509 4 2 0 26 73 71 78 143
510 4 2 0 26 58 59 63 142
511 4 2 0 26 61 58 64 143
512 4 2 0 26 84 85 89 144
513 4 2 0 26 86 84 90 147
514 4 2 0 26 45 48 51 145
515 4 2 0 26 101 97 105 140
516 4 2 0 26 97 98 105 140
517 4 2 0 26 113 110 116 150
518 4 2 0 26 46 45 52 148
519 4 2 0 26 97 100 103 144
520 4 2 0 26 97 101 102 142
521 4 2 0 26 99 97 102 142
522 4 2 0 26 98 97 103 144
523 4 2 0 26 110 114 118 146
524 4 2 0 26 97 99 104 149
525 4 2 0 26 100 97 104 149
526 4 2 0 26 71 74 76 151
527 4 2 0 26 71 73 77 140
528 4 2 0 26 74 71 77 140
529 4 2 0 26 87 84 89 144
530 4 2 0 26 60 58 63 142
531 4 2 0 26 58 60 64 143
532 4 2 0 26 111 110 118 146
533 4 2 0 26 45 47 52 148
534 4 2 0 26 47 45 51 145
535 4 2 0 26 84 87 90 147
536 4 2 0 26 110 111 116 150
537 4 2 0 26 150 72 79 169
538 4 2 0 26 150 124 72 169
539 4 2 0 26 140 73 77 160
540 4 2 0 26 74 140 77 159
541 4 2 0 26 142 59 63 158
542 4 2 0 26 101 140 105 160
543 4 2 0 26 140 98 105 159
544 4 2 0 26 144 85 89 157
545 4 2 0 26 86 147 90 168
546 4 2 0 26 48 51 145 166
547 4 2 0 26 114 148 117 174
548 4 2 0 26 143 60 64 172
549 4 2 0 26 144 100 103 167
550 4 2 0 26 61 143 64 153
551 4 2 0 26 142 101 102 165
552 4 2 0 26 151 76 72 152
553 4 2 0 26 113 150 116 169
554 4 2 0 26 99 142 102 158
555 4 2 0 26 141 86 91 170
556 4 2 0 26 87 144 89 167
557 4 2 0 26 60 142 63 165
558 4 2 0 26 98 144 103 157
559 4 2 0 26 111 146 118 173
560 4 2 0 26 52 46 148 156
561 4 2 0 26 47 52 148 174
562 4 2 0 26 73 143 78 172
563 4 2 0 26 149 99 104 171
564 4 2 0 26 112 141 115 170
565 4 2 0 26 146 61 66 173
566 4 2 0 26 51 47 145 163
567 4 2 0 26 147 87 90 164
568 4 2 0 26 100 149 104 162
569 4 2 0 26 46 53 147 168
570 4 2 0 26 59 145 65 166
571 4 2 0 26 141 113 115 155
572 4 2 0 26 146 114 118 154
573 4 2 0 26 50 48 149 171
574 4 2 0 26 75 150 79 161
575 4 2 0 26 145 62 65 163
576 4 2 0 26 53 49 147 164
577 4 2 0 26 143 75 78 153
578 4 2 0 26 62 146 66 154
579 4 2 0 26 148 112 117 156
580 4 2 0 26 150 111 116 161
581 4 2 0 26 49 50 149 162
582 4 2 0 26 88 141 91 155
583 4 2 0 26 85 151 92 175
584 4 2 0 26 151 88 92 152
585 4 2 0 26 124 151 72 152
586 4 2 0 26 74 76 151 175
587 4 2 0 26 124 113 141 155
588 4 2 0 26 113 124 150 169
589 4 2 0 26 140 101 125 160
590 4 2 0 26 98 140 127 159
591 4 2 0 26 131 86 141 170
592 4 2 0 26 130 148 114 174
593 4 2 0 26 101 142 125 165
594 4 2 0 26 73 140 125 160
595 4 2 0 26 140 74 127 159
596 4 2 0 26 142 99 126 158
597 4 2 0 26 143 73 125 172
598 4 2 0 26 129 100 144 167
599 4 2 0 26 60 143 125 172
600 4 2 0 26 59 142 126 158
601 4 2 0 26 144 98 127 157
602 4 2 0 26 61 146 128 173
603 4 2 0 26 85 144 127 157
604 4 2 0 26 142 60 125 165
605 4 2 0 26 124 141 88 155
606 4 2 0 26 145 59 126 166
607 4 2 0 26 48 145 126 166
608 4 2 0 26 87 129 144 167
609 4 2 0 26 46 147 131 168
610 4 2 0 26 143 61 128 153
611 4 2 0 26 131 141 112 170
612 4 2 0 26 149 48 126 171
613 4 2 0 26 147 86 131 168
614 4 2 0 26 99 149 126 171
615 4 2 0 26 146 111 128 173
616 4 2 0 26 47 148 130 174
617 4 2 0 26 145 47 130 163
618 4 2 0 26 148 46 131 156
619 4 2 0 26 149 100 129 162
620 4 2 0 26 87 147 129 164
621 4 2 0 26 128 150 75 161
622 4 2 0 26 145 130 62 163
623 4 2 0 26 146 130 114 154
624 4 2 0 26 147 49 129 164
625 4 2 0 26 130 146 62 154
626 4 2 0 26 148 131 112 156
627 4 2 0 26 49 149 129 162
628 4 2 0 26 143 128 75 153
629 4 2 0 26 111 150 128 161
630 4 2 0 26 74 151 127 175
631 4 2 0 26 151 124 88 152
632 4 2 0 26 151 85 127 175
633 4 2 0 26 124 132 72 169
634 4 2 0 26 113 124 132 155
635 4 2 0 26 124 132 88 152
636 4 2 0 26 132 124 88 155
637 4 2 0 26 124 113 132 169
638 4 2 0 26 111 128 133 161
639 4 2 0 26 135 73 125 160
640 4 2 0 26 74 137 127 159
641 4 2 0 26 60 135 125 165
642 4 2 0 26 130 47 134 163
643 4 2 0 26 87 129 138 164
644 4 2 0 26 128 61 133 153
645 4 2 0 26 73 135 125 172
646 4 2 0 26 126 99 136 158
647 4 2 0 26 98 137 127 157
648 4 2 0 26 129 87 138 167
649 4 2 0 26 126 59 136 166
650 4 2 0 26 132 124 72 152
651 4 2 0 26 101 135 125 160
652 4 2 0 26 137 98 127 159
653 4 2 0 26 59 126 136 158
654 4 2 0 26 137 85 127 157
655 4 2 0 26 135 60 125 172
656 4 2 0 26 134 130 114 174
657 4 2 0 26 128 111 133 173
658 4 2 0 26 46 139 131 156
659 4 2 0 26 129 100 138 162
660 4 2 0 26 47 130 134 174
661 4 2 0 26 126 48 136 171
662 4 2 0 26 139 46 131 168
663 4 2 0 26 139 86 131 170
664 4 2 0 26 135 101 125 165
665 4 2 0 26 48 126 136 166
666 4 2 0 26 99 126 136 171
667 4 2 0 26 130 134 114 154
668 4 2 0 26 100 129 138 167
669 4 2 0 26 137 74 127 175
670 4 2 0 26 61 128 133 173
671 4 2 0 26 86 139 131 168
672 4 2 0 26 134 130 62 154
673 4 2 0 26 131 139 112 156
674 4 2 0 26 49 129 138 162
675 4 2 0 26 130 134 62 163
676 4 2 0 26 75 128 133 153
677 4 2 0 26 129 49 138 164
678 4 2 0 26 139 131 112 170
679 4 2 0 26 128 75 133 161
680 4 2 0 26 85 137 127 175
681 4 2 0 26 44 72 82 169
682 4 2 0 26 75 42 81 161
683 4 2 0 26 33 88 95 152
684 4 2 0 26 114 11 122 174
685 4 2 0 26 32 113 121 155
686 4 2 0 26 62 29 70 154
687 4 2 0 26 12 62 70 163
688 4 2 0 26 49 18 56 164
689 4 2 0 26 9 112 119 156
690 4 2 0 26 88 32 95 155
691 4 2 0 26 17 49 56 162
692 4 2 0 26 112 30 119 170
693 4 2 0 26 101 41 109 160
694 4 2 0 26 39 98 106 159
695 4 2 0 26 41 73 83 160
696 4 2 0 26 74 39 80 159
697 4 2 0 26 61 26 69 153
698 4 2 0 26 24 60 68 172
699 4 2 0 26 23 101 109 165
700 4 2 0 26 73 24 83 172
701 4 2 0 26 38 100 108 167
702 4 2 0 26 21 59 67 158
703 4 2 0 26 36 85 94 157
704 4 2 0 26 60 23 68 165
705 4 2 0 26 99 21 107 158
706 4 2 0 26 98 36 106 157
707 4 2 0 26 87 38 96 167
708 4 2 0 26 27 61 69 173
709 4 2 0 26 111 27 120 173
710 4 2 0 26 14 48 55 166
711 4 2 0 26 86 20 93 168
712 4 2 0 26 59 14 67 166
713 4 2 0 26 11 47 54 174
714 4 2 0 26 20 46 57 168
715 4 2 0 26 47 12 54 163
716 4 2 0 26 18 87 96 164
717 4 2 0 26 46 9 57 156
718 4 2 0 26 15 99 107 171
719 4 2 0 26 48 15 55 171
720 4 2 0 26 100 17 108 162
721 4 2 0 26 26 75 81 153
722 4 2 0 26 42 111 120 161
723 4 2 0 26 30 86 93 170
724 4 2 0 26 113 44 121 169
725 4 2 0 26 29 114 122 154
726 4 2 0 26 85 35 94 175
727 4 2 0 26 35 74 80 175
728 4 2 0 26 72 33 82 152
729 4 2 0 26 82 33 95 152
730 4 2 0 26 44 82 121 169
731 4 2 0 26 69 26 81 153
732 4 2 0 26 81 42 120 161
733 4 2 0 26 70 29 122 154
734 4 2 0 26 57 9 119 156
735 4 2 0 26 17 56 108 162
736 4 2 0 26 21 67 107 158
737 4 2 0 26 36 94 106 157
738 4 2 0 26 95 32 121 155
739 4 2 0 26 30 93 119 170
740 4 2 0 26 20 57 93 168
741 4 2 0 26 14 55 67 166
742 4 2 0 26 54 12 70 163
743 4 2 0 26 56 18 96 164
744 4 2 0 26 41 83 109 160
745 4 2 0 26 80 39 106 159
746 4 2 0 26 55 15 107 171
747 4 2 0 26 96 38 108 167
748 4 2 0 26 68 23 109 165
749 4 2 0 26 11 54 122 174
750 4 2 0 26 27 69 120 173
751 4 2 0 26 24 68 83 172
752 4 2 0 26 35 80 94 175
753 4 2 0 26 132 82 95 152
754 4 2 0 26 82 132 121 169
755 4 2 0 26 132 95 121 155
756 4 2 0 26 133 69 81 153
757 4 2 0 26 133 81 120 161
758 4 2 0 26 134 70 122 154
759 4 2 0 26 139 57 119 156
760 4 2 0 26 67 136 107 158
761 4 2 0 26 94 137 106 157
762 4 2 0 26 56 138 108 162
763 4 2 0 26 67 55 136 166
764 4 2 0 26 83 135 109 160
765 4 2 0 26 137 80 106 159
766 4 2 0 26 93 139 119 170
767 4 2 0 26 134 54 70 163
768 4 2 0 26 57 139 93 168
769 4 2 0 26 138 56 96 164
770 4 2 0 26 136 55 107 171
771 4 2 0 26 135 68 109 165
772 4 2 0 26 138 96 108 167
773 4 2 0 26 54 134 122 174
774 4 2 0 26 69 133 120 173
775 4 2 0 26 68 135 83 172
776 4 2 0 26 80 137 94 175
777 4 2 0 26 91 141 115 155
778 4 2 0 26 141 91 115 170
779 4 2 0 26 140 77 105 160
780 4 2 0 26 77 140 105 159
781 4 2 0 26 63 142 102 165
782 4 2 0 26 142 63 102 158
783 4 2 0 26 64 143 78 153
784 4 2 0 26 143 64 78 172
785 4 2 0 26 144 89 103 157
786 4 2 0 26 89 144 103 167
787 4 2 0 26 150 79 116 169
788 4 2 0 26 145 51 65 166
789 4 2 0 26 51 145 65 163
790 4 2 0 26 66 146 118 154
791 4 2 0 26 146 66 118 173
792 4 2 0 26 147 53 90 168
793 4 2 0 26 53 147 90 164
794 4 2 0 26 148 52 117 174
795 4 2 0 26 52 148 117 156
796 4 2 0 26 50 149 104 171
797 4 2 0 26 149 50 104 162
798 4 2 0 26 79 150 116 161
799 4 2 0 26 76 151 92 152
800 4 2 0 26 151 76 92 175
801 4 2 0 26 34 76 92 152
802 4 2 0 26 76 34 92 175
803 4 2 0 26 79 43 116 169
804 4 2 0 26 43 79 116 161
805 4 2 0 26 28 66 118 154
806 4 2 0 26 10 52 117 156
807 4 2 0 26 13 51 65 163
808 4 2 0 26 51 13 65 166
809 4 2 0 26 19 53 90 164
810 4 2 0 26 53 19 90 168
811 4 2 0 26 52 10 117 174
812 4 2 0 26 40 77 105 159
813 4 2 0 26 77 40 105 160
814 4 2 0 26 66 28 118 173
815 4 2 0 26 31 91 115 155
816 4 2 0 26 25 64 78 153
817 4 2 0 26 50 16 104 162
818 4 2 0 26 89 37 103 157
819 4 2 0 26 63 22 102 158
820 4 2 0 26 16 50 104 171
821 4 2 0 26 22 63 102 165
822 4 2 0 26 37 89 103 167
823 4 2 0 26 64 25 78 172
824 4 2 0 26 91 31 115 170
825 4 2 0 26 5 95 82 33
826 4 2 0 26 121 5 82 44
827 4 2 0 26 5 121 95 32
828 4 2 0 26 70 29 2 122
829 4 2 0 26 69 81 26 6
830 4 2 0 26 81 42 6 120
831 4 2 0 26 11 54 2 122
832 4 2 0 26 4 108 17 56
833 4 2 0 26 119 1 93 30
834 4 2 0 26 119 1 9 57
835 4 2 0 26 54 70 12 2
836 4 2 0 26 96 4 18 56
837 4 2 0 26 94 8 80 35
838 4 2 0 26 67 55 14 3
839 4 2 0 26 20 1 93 57
840 4 2 0 26 68 23 7 109
841 4 2 0 26 4 108 96 38
842 4 2 0 26 41 83 7 109
843 4 2 0 26 8 106 80 39
844 4 2 0 26 27 69 6 120
845 4 2 0 26 106 8 94 36
846 4 2 0 26 67 21 107 3
847 4 2 0 26 15 55 107 3
848 4 2 0 26 83 68 24 7
849 4 2 0 26 72 132 82 169
850 4 2 0 26 88 132 95 152
851 4 2 0 26 113 132 121 155
852 4 2 0 26 111 133 120 161
853 4 2 0 26 61 69 133 153
854 4 2 0 26 47 54 134 163
855 4 2 0 26 87 138 96 164
856 4 2 0 26 46 57 139 156
857 4 2 0 26 138 100 108 162
858 4 2 0 26 86 139 93 170
859 4 2 0 26 132 88 95 155
860 4 2 0 26 114 134 122 154
861 4 2 0 26 136 99 107 158
862 4 2 0 26 137 98 106 157
863 4 2 0 26 73 135 83 160
864 4 2 0 26 137 74 80 159
865 4 2 0 26 59 67 136 166
866 4 2 0 26 135 60 68 165
867 4 2 0 26 57 46 139 168
868 4 2 0 26 138 87 96 167
869 4 2 0 26 67 59 136 158
870 4 2 0 26 85 137 94 157
871 4 2 0 26 132 113 121 169
872 4 2 0 26 134 62 70 154
873 4 2 0 26 112 139 119 156
874 4 2 0 26 48 55 136 171
875 4 2 0 26 134 114 122 174
876 4 2 0 26 133 111 120 173
877 4 2 0 26 75 133 81 153
878 4 2 0 26 135 101 109 160
879 4 2 0 26 98 137 106 159
880 4 2 0 26 54 47 134 174
881 4 2 0 26 55 48 136 166
882 4 2 0 26 139 86 93 168
883 4 2 0 26 99 136 107 171
884 4 2 0 26 56 49 138 162
885 4 2 0 26 135 73 83 172
886 4 2 0 26 101 135 109 165
887 4 2 0 26 100 138 108 167
888 4 2 0 26 69 61 133 173
889 4 2 0 26 133 75 81 161
890 4 2 0 26 60 135 68 172
891 4 2 0 26 139 112 119 170
892 4 2 0 26 62 134 70 163
893 4 2 0 26 49 56 138 164
894 4 2 0 26 74 137 80 175
895 4 2 0 26 132 72 82 152
896 4 2 0 26 137 85 94 175
897 4 2 0 26 82 95 121 132
898 4 2 0 26 69 81 120 133
899 4 2 0 26 54 70 122 134
900 4 2 0 26 56 96 108 138
901 4 2 0 26 93 57 119 139
902 4 2 0 26 83 68 109 135
903 4 2 0 26 67 55 107 136
904 4 2 0 26 94 80 106 137
905 4 2 0 26 121 5 95 82
906 4 2 0 26 69 81 6 120
907 4 2 0 26 54 70 2 122
908 4 2 0 26 1 119 93 57
909 4 2 0 26 108 4 96 56
910 4 2 0 26 8 106 94 80
911 4 2 0 26 55 67 107 3
912 4 2 0 26 83 68 7 109
$EndElements
