$MeshFormat
2.2 0 8
$EndMeshFormat
$Nodes
13
1 0 0 0
2 1 0 0
3 2 0 0
4 3 0 0
5 4 0 0
6 5 0 0
7 0 1 0
8 1 1 0
9 2 1 0
10 3 1 0
11 4 1 0
12 5 1 0
13 0 4 0
$EndNodes
$Elements
35
1 15 2 0 1 1
2 15 2 0 2 2
3 15 2 0 3 3
4 15 2 0 4 4
5 15 2 0 5 5
6 15 2 0 6 6
7 15 2 0 7 7
8 15 2 0 8 8
9 15 2 0 9 9
10 15 2 0 10 10
11 15 2 0 11 11
12 15 2 0 12 12
13 15 2 0 13 13
14 1 2 0 1 1 2
15 1 2 0 2 1 7
16 1 2 0 3 7 2
17 1 2 0 4 2 8
18 1 2 0 5 7 8
19 1 2 0 6 8 9
20 1 2 0 7 9 10
21 1 2 0 8 10 11
22 1 2 0 9 11 12
23 1 2 0 10 2 3
24 1 2 0 11 3 4
25 1 2 0 12 4 5
26 1 2 0 13 5 6
27 1 2 0 14 6 12
28 1 2 0 15 2 9
29 1 2 0 16 9 3
30 1 2 0 17 9 4
31 1 2 0 18 4 10
32 1 2 0 19 11 4
33 1 2 0 20 5 11
34 1 2 0 21 11 6
35 1 2 0 22 13 11
$EndElements
