$MeshFormat
2.2 0 8
$EndMeshFormat
$PhysicalNames
3
0 1 "points"
1 2 "outside"
1 3 "inside"
$EndPhysicalNames
$Nodes
9
1 0 0 0
2 3 0 0
3 6 0 0
4 9 0 0
5 12 0 0
6 3 3 0
7 6 3 0
8 9 3 0
9 12 6 0
$EndNodes
$Elements
24
1 15 2 1 1 1
2 15 2 1 2 2
3 15 2 1 3 3
4 15 2 1 4 4
5 15 2 1 5 5
6 15 2 1 6 6
7 15 2 1 7 7
8 15 2 1 8 8
9 15 2 1 9 9
10 1 2 2 1 1 2
11 1 2 2 2 2 3
12 1 2 2 3 3 4
13 1 2 2 4 4 5
14 1 2 3 5 5 8
15 1 2 2 6 8 7
16 1 2 2 7 7 6
17 1 2 2 8 6 1
18 1 2 3 9 6 2
19 1 2 3 10 6 3
20 1 2 3 11 3 7
21 1 2 3 12 7 4
22 1 2 3 13 4 8
23 1 2 2 14 8 9
24 1 2 2 15 9 5
$EndElements
