$MeshFormat
2.2 0 8
$EndMeshFormat
$Nodes
11
1 0 0 0
2 2 0 0
3 4 0 0
4 1 1.732050807568877 0.5
5 3 1.732050807568877 0.5
6 6 0 0
7 5 1.732050807568877 0.5
8 0 0 1
9 2 0 1
10 4 0 1
11 6 0 1
$EndNodes
$Elements
38
1 15 2 0 1 1
2 15 2 0 2 2
3 15 2 0 3 3
4 15 2 0 4 4
5 15 2 0 5 5
6 15 2 0 6 6
7 15 2 0 7 7
8 15 2 0 8 8
9 15 2 0 9 9
10 15 2 0 11 10
11 15 2 0 13 11
12 1 2 0 1 1 2
13 1 2 0 2 2 3
14 1 2 0 3 3 5
15 1 2 0 4 2 5
16 1 2 0 5 4 5
17 1 2 0 6 4 2
18 1 2 0 7 1 4
19 1 2 0 8 3 6
20 1 2 0 9 6 7
21 1 2 0 10 3 7
22 1 2 0 11 7 5
23 1 2 0 12 8 9
24 1 2 0 13 1 8
25 1 2 0 14 2 9
26 1 2 0 16 9 10
27 1 2 0 18 3 10
28 1 2 0 20 10 11
29 1 2 0 22 6 11
30 1 2 0 24 8 4
31 1 2 0 25 9 5
32 1 2 0 26 10 7
33 1 2 0 27 11 7
34 1 2 0 28 3 11
35 1 2 0 29 9 3
36 1 2 0 30 5 10
37 1 2 0 31 4 9
38 1 2 0 32 1 9
$EndElements
