$MeshFormat
2.2 0 8
$EndMeshFormat
$Nodes
101
1 0 0 0
2 0 1 0
3 1.5 1 0
4 1.5 0.75 0
5 1.5 0 0
6 0 0.04999999999989965 0
7 0 0.09999999999981467 0
8 0 0.1499999999997036 0
9 0 0.1999999999995579 0
10 0 0.2499999999994121 0
11 0 0.2999999999992664 0
12 0 0.3499999999991206 0
13 0 0.3999999999989749 0
14 0 0.4499999999988292 0
15 0 0.4999999999986943 0
16 0 0.5499999999988151 0
17 0 0.5999999999989468 0
18 0 0.6499999999990784 0
19 0 0.69999999999921 0
20 0 0.7499999999993417 0
21 0 0.7999999999994734 0
22 0 0.8499999999996051 0
23 0 0.8999999999997368 0
24 0 0.9499999999998684 0
25 0.04999999999977746 1 0
26 0.09999999999956016 1 0
27 0.1499999999993809 1 0
28 0.1999999999991797 1 0
29 0.2499999999989126 1 0
30 0.2999999999987273 1 0
31 0.3499999999985491 1 0
32 0.399999999998371 1 0
33 0.449999999998193 1 0
34 0.4999999999980147 1 0
35 0.5499999999978366 1 0
36 0.5999999999976584 1 0
37 0.6499999999974803 1 0
38 0.6999999999973021 1 0
39 0.7499999999971457 1 0
40 0.799999999997316 1 0
41 0.8499999999975079 1 0
42 0.8999999999976995 1 0
43 0.9499999999978912 1 0
44 0.9999999999980829 1 0
45 1.049999999998275 1 0
46 1.099999999998466 1 0
47 1.149999999998658 1 0
48 1.19999999999885 1 0
49 1.249999999999041 1 0
50 1.299999999999233 1 0
51 1.349999999999425 1 0
52 1.399999999999616 1 0
53 1.449999999999808 1 0
54 1.5 0.9500000000000001 0
55 1.5 0.9000000000000001 0
56 1.5 0.8500000000000001 0
57 1.5 0.8 0
58 1.5 0.7000000000005434 0
59 1.5 0.6500000000005057 0
60 1.5 0.6000000000007499 0
61 1.5 0.5500000000006094 0
62 1.5 0.5000000000004834 0
63 1.5 0.450000000000706 0
64 1.5 0.4000000000009358 0
65 1.5 0.3500000000009805 0
66 1.5 0.3000000000008404 0
67 1.5 0.2500000000007003 0
68 1.5 0.2000000000005603 0
69 1.5 0.1500000000004202 0
70 1.5 0.1000000000002802 0
71 1.5 0.05000000000014004 0
72 0.04838709677398377 0.9919354838710027 0
73 0.09677419354797047 0.9838709677420049 0
74 0.1451612903219941 0.9758064516130009 0
75 0.1935483870960063 0.9677419354839989 0
76 0.2419354838699473 0.9596774193550088 0
77 0.2903225806439549 0.9516129032260076 0
78 0.3387096774179805 0.9435483870970033 0
79 0.3870967741920061 0.935483870967999 0
80 0.4354838709660317 0.9274193548389947 0
81 0.4838709677400573 0.9193548387099905 0
82 0.532258064514083 0.9112903225809862 0
83 0.5806451612881085 0.9032258064519819 0
84 0.6290322580621341 0.8951612903229776 0
85 0.6774193548361597 0.8870967741939734 0
86 0.7258064516101853 0.8790322580649691 0
87 0.7741935483843851 0.8709677419359358 0
88 0.8225806451587593 0.8629032258068734 0
89 0.8709677419331336 0.8548387096778111 0
90 0.919354838707508 0.8467741935487487 0
91 0.9677419354818824 0.8387096774196863 0
92 1.016129032256257 0.8306451612906238 0
93 1.064516129030631 0.8225806451615615 0
94 1.112903225805005 0.8145161290324991 0
95 1.16129032257938 0.8064516129034367 0
96 1.209677419353754 0.7983870967743744 0
97 1.258064516128128 0.7903225806453119 0
98 1.306451612902503 0.7822580645162496 0
99 1.354838709676877 0.7741935483871871 0
100 1.403225806451251 0.7661290322581248 0
101 1.451612903225626 0.7580645161290624 0
$EndNodes
$Elements
106
1 15 2 0 1 1
2 15 2 0 2 2
3 15 2 0 3 3
4 15 2 0 4 4
5 15 2 0 5 5
6 1 2 0 1 1 6
7 1 2 0 1 6 7
8 1 2 0 1 7 8
9 1 2 0 1 8 9
10 1 2 0 1 9 10
11 1 2 0 1 10 11
12 1 2 0 1 11 12
13 1 2 0 1 12 13
14 1 2 0 1 13 14
15 1 2 0 1 14 15
16 1 2 0 1 15 16
17 1 2 0 1 16 17
18 1 2 0 1 17 18
19 1 2 0 1 18 19
20 1 2 0 1 19 20
21 1 2 0 1 20 21
22 1 2 0 1 21 22
23 1 2 0 1 22 23
24 1 2 0 1 23 24
25 1 2 0 1 24 2
26 1 2 0 2 2 25
27 1 2 0 2 25 26
28 1 2 0 2 26 27
29 1 2 0 2 27 28
30 1 2 0 2 28 29
31 1 2 0 2 29 30
32 1 2 0 2 30 31
33 1 2 0 2 31 32
34 1 2 0 2 32 33
35 1 2 0 2 33 34
36 1 2 0 2 34 35
37 1 2 0 2 35 36
38 1 2 0 2 36 37
39 1 2 0 2 37 38
40 1 2 0 2 38 39
41 1 2 0 2 39 40
42 1 2 0 2 40 41
43 1 2 0 2 41 42
44 1 2 0 2 42 43
45 1 2 0 2 43 44
46 1 2 0 2 44 45
47 1 2 0 2 45 46
48 1 2 0 2 46 47
49 1 2 0 2 47 48
50 1 2 0 2 48 49
51 1 2 0 2 49 50
52 1 2 0 2 50 51
53 1 2 0 2 51 52
54 1 2 0 2 52 53
55 1 2 0 2 53 3
56 1 2 0 3 3 54
57 1 2 0 3 54 55
58 1 2 0 3 55 56
59 1 2 0 3 56 57
60 1 2 0 3 57 4
61 1 2 0 4 4 58
62 1 2 0 4 58 59
63 1 2 0 4 59 60
64 1 2 0 4 60 61
65 1 2 0 4 61 62
66 1 2 0 4 62 63
67 1 2 0 4 63 64
68 1 2 0 4 64 65
69 1 2 0 4 65 66
70 1 2 0 4 66 67
71 1 2 0 4 67 68
72 1 2 0 4 68 69
73 1 2 0 4 69 70
74 1 2 0 4 70 71
75 1 2 0 4 71 5
76 1 2 0 5 2 72
77 1 2 0 5 72 73
78 1 2 0 5 73 74
79 1 2 0 5 74 75
80 1 2 0 5 75 76
81 1 2 0 5 76 77
82 1 2 0 5 77 78
83 1 2 0 5 78 79
84 1 2 0 5 79 80
85 1 2 0 5 80 81
86 1 2 0 5 81 82
87 1 2 0 5 82 83
88 1 2 0 5 83 84
89 1 2 0 5 84 85
90 1 2 0 5 85 86
91 1 2 0 5 86 87
92 1 2 0 5 87 88
93 1 2 0 5 88 89
94 1 2 0 5 89 90
95 1 2 0 5 90 91
96 1 2 0 5 91 92
97 1 2 0 5 92 93
98 1 2 0 5 93 94
99 1 2 0 5 94 95
100 1 2 0 5 95 96
101 1 2 0 5 96 97
102 1 2 0 5 97 98
103 1 2 0 5 98 99
104 1 2 0 5 99 100
105 1 2 0 5 100 101
106 1 2 0 5 101 4
$EndElements
