$MeshFormat
2.2 0 8
$EndMeshFormat
$Nodes
26
1 0 0 0
2 1 0 0
3 0 1 0
4 0.09999999999981467 0 0
5 0.1999999999995579 0 0
6 0.2999999999992664 0 0
7 0.3999999999989749 0 0
8 0.4999999999986943 0 0
9 0.5999999999989468 0 0
10 0.69999999999921 0 0
11 0.7999999999994734 0 0
12 0.8999999999997368 0 0
13 0.9333333333332617 0.0666666666667383 0
14 0.8666666666665597 0.1333333333334403 0
15 0.8000000000002216 0.1999999999997784 0
16 0.7333333333338836 0.2666666666661164 0
17 0.6666666666675457 0.3333333333324543 0
18 0.6000000000012078 0.3999999999987922 0
19 0.53333333333487 0.46666666666513 0
20 0.4666666666682546 0.5333333333317454 0
21 0.4000000000013613 0.5999999999986387 0
22 0.3333333333344678 0.6666666666655322 0
23 0.2666666666675742 0.7333333333324258 0
24 0.2000000000006806 0.7999999999993194 0
25 0.1333333333337871 0.8666666666662129 0
26 0.06666666666689347 0.9333333333331065 0
$EndNodes
$Elements
28
1 15 2 0 1 1
2 15 2 0 2 2
3 15 2 0 3 3
4 1 2 0 1 1 4
5 1 2 0 1 4 5
6 1 2 0 1 5 6
7 1 2 0 1 6 7
8 1 2 0 1 7 8
9 1 2 0 1 8 9
10 1 2 0 1 9 10
11 1 2 0 1 10 11
12 1 2 0 1 11 12
13 1 2 0 1 12 2
14 1 2 0 2 2 13
15 1 2 0 2 13 14
16 1 2 0 2 14 15
17 1 2 0 2 15 16
18 1 2 0 2 16 17
19 1 2 0 2 17 18
20 1 2 0 2 18 19
21 1 2 0 2 19 20
22 1 2 0 2 20 21
23 1 2 0 2 21 22
24 1 2 0 2 22 23
25 1 2 0 2 23 24
26 1 2 0 2 24 25
27 1 2 0 2 25 26
28 1 2 0 2 26 3
$EndElements
