$MeshFormat
2.2 0 8
$EndMeshFormat
$Nodes
51
1 0 0 0
2 1 0 0
3 0 1 0
4 0.09999999999981467 0 0
5 0.1999999999995579 0 0
6 0.2999999999992664 0 0
7 0.3999999999989749 0 0
8 0.4999999999986943 0 0
9 0.5999999999989468 0 0
10 0.69999999999921 0 0
11 0.7999999999994734 0 0
12 0.8999999999997368 0 0
13 0.04999999999989927 0 0
14 0.1499999999997036 0 0
15 0.2499999999994121 0 0
16 0.3499999999991207 0 0
17 0.4499999999988346 0 0
18 0.5499999999988205 0 0
19 0.6499999999990784 0 0
20 0.7499999999993416 0 0
21 0.8499999999996051 0 0
22 0.9499999999998684 0 0
23 0.9333333333332617 0.0666666666667383 0
24 0.8666666666665597 0.1333333333334403 0
25 0.8000000000002216 0.1999999999997784 0
26 0.7333333333338836 0.2666666666661164 0
27 0.6666666666675457 0.3333333333324543 0
28 0.6000000000012078 0.3999999999987922 0
29 0.53333333333487 0.46666666666513 0
30 0.4666666666682546 0.5333333333317454 0
31 0.4000000000013613 0.5999999999986387 0
32 0.3333333333344678 0.6666666666655322 0
33 0.2666666666675742 0.7333333333324258 0
34 0.2000000000006806 0.7999999999993194 0
35 0.1333333333337871 0.8666666666662129 0
36 0.06666666666689347 0.9333333333331065 0
37 0.9666666666666258 0.03333333333337418 0
38 0.8999999999999035 0.1000000000000965 0
39 0.8333333333333819 0.1666666666666181 0
40 0.7666666666670652 0.2333333333329348 0
41 0.700000000000691 0.299999999999309 0
42 0.6333333333343752 0.3666666666656248 0
43 0.5666666666680451 0.4333333333319548 0
44 0.5000000000016548 0.4999999999983452 0
45 0.4333333333348079 0.5666666666651921 0
46 0.3666666666679146 0.6333333333320854 0
47 0.300000000001021 0.699999999998979 0
48 0.2333333333341274 0.7666666666658726 0
49 0.1666666666672338 0.8333333333327662 0
50 0.1000000000003403 0.8999999999996597 0
51 0.03333333333344679 0.9666666666665532 0
$EndNodes
$Elements
28
1 15 2 0 1 1
2 15 2 0 2 2
3 15 2 0 3 3
4 8 2 0 1 1 4 13
5 8 2 0 1 4 5 14
6 8 2 0 1 5 6 15
7 8 2 0 1 6 7 16
8 8 2 0 1 7 8 17
9 8 2 0 1 8 9 18
10 8 2 0 1 9 10 19
11 8 2 0 1 10 11 20
12 8 2 0 1 11 12 21
13 8 2 0 1 12 2 22
14 8 2 0 2 2 23 37
15 8 2 0 2 23 24 38
16 8 2 0 2 24 25 39
17 8 2 0 2 25 26 40
18 8 2 0 2 26 27 41
19 8 2 0 2 27 28 42
20 8 2 0 2 28 29 43
21 8 2 0 2 29 30 44
22 8 2 0 2 30 31 45
23 8 2 0 2 31 32 46
24 8 2 0 2 32 33 47
25 8 2 0 2 33 34 48
26 8 2 0 2 34 35 49
27 8 2 0 2 35 36 50
28 8 2 0 2 36 3 51
$EndElements
