$MeshFormat
2.2 0 8
$EndMeshFormat
$Nodes
1092
1 -24 0 0
2 -2 0 0
3 -1 0 0
4 -0.7071067811865476 0.7071067811865476 0
5 0 1 0
6 0.7071067811865476 0.7071067811865476 0
7 1 0 0
8 2 0 0
9 6 0 0
10 6 2 0
11 2 2 0
12 0 2 0
13 -2 2 0
14 -24 2 0
15 -22.27728284810801 0 0
16 -20.67376814782882 0 0
17 -19.18120776429303 0 0
18 -17.7919242688838 0 0
19 -16.49877146961711 0 0
20 -15.2950976633706 0 0
21 -14.17471140621253 0 0
22 -13.13184965559353 0 0
23 -12.16114813771918 0 0
24 -11.25761378048596 0 0
25 -10.41659899171931 0 0
26 -9.63377774604327 0 0
27 -8.905123378811661 0 0
28 -8.226887846875696 0 0
29 -7.595582452604525 0 0
30 -7.007959889459421 0 0
31 -6.460997547448393 0 0
32 -5.951881961759781 0 0
33 -5.477994346957935 0 0
34 -5.036897116723086 0 0
35 -4.626321362664939 0 0
36 -4.244155174023152 0 0
37 -3.888432757903892 0 0
38 -3.557324354125239 0 0
39 -3.24912682092182 0 0
40 -2.962254853900792 0 0
41 -2.69523283240887 0 0
42 -2.446687251571074 0 0
43 -2.215339639961584 0 0
44 -1.84811645286372 0 0
45 -1.714217246019495 0 0
46 -1.596172876388558 0 0
47 -1.492105992441477 0 0
48 -1.400361538101181 0 0
49 -1.319480429010863 0 0
50 -1.248176350731272 0 0
51 -1.185315299238968 0 0
52 -1.129897545374987 0 0
53 -1.081041738476001 0 0
54 -1.037970886938482 0 0
55 -0.9985953305993531 0.05298457988102336 0
56 -0.9941726732422047 0.1077993310667949 0
57 -0.9864061696741665 0.1643254953704366 0
58 -0.9749540864974877 0.2224062256814074 0
59 -0.9594610540594062 0.2818412420906727 0
60 -0.9395611596127841 0.3423811141799157 0
61 -0.9148820546854812 0.4037212231410088 0
62 -0.885050253198455 0.4654954879623977 0
63 -0.8496978115889705 0.5272699773179907 0
64 -0.8084705968059216 0.5885365698920305 0
65 -0.7610383532286902 0.6487068867485248 0
66 -0.6593458150455997 0.7518398075267458 0
67 -0.6087614287464923 0.7933533404924503 0
68 -0.555570232674851 0.831469612532901 0
69 -0.4999999994545588 0.8660254040993496 0
70 -0.4422886895330231 0.8968727418709757 0
71 -0.382683431538472 0.9238795328536835 0
72 -0.3214394645334607 0.9469301297563842 0
73 -0.258819044487161 0.9659258264539539 0
74 -0.1950903215094169 0.980785280504022 0
75 -0.1305261918980575 0.991444861416202 0
76 -0.06540312906086349 0.997858923249699 0
77 0.06540312938151879 0.9978589232286819 0
78 0.1305261925691434 0.9914448613278516 0
79 0.1950903225417209 0.9807852802986836 0
80 0.258819045837744 0.9659258260920658 0
81 0.3214394662156594 0.9469301291853544 0
82 0.3826834333870861 0.923879532087962 0
83 0.442288691039041 0.8968727411282895 0
84 0.5000000006180165 0.8660254034276267 0
85 0.5555702334906474 0.8314696119878029 0
86 0.6087614293198809 0.7933533400524735 0
87 0.6593458152213285 0.7518398073726356 0
88 0.7610383534412644 0.6487068864991412 0
89 0.8084705972994007 0.5885365692141403 0
90 0.8496978122217234 0.5272699762983071 0
91 0.8850502539356907 0.4654954865606861 0
92 0.9148820554894366 0.4037212213191472 0
93 0.9395611602635 0.3423811123942241 0
94 0.9594610545052125 0.2818412405730333 0
95 0.9749540867825711 0.2224062244316992 0
96 0.9864061698416827 0.1643254943648799 0
97 0.9941726733147056 0.1077993303981635 0
98 0.9985953306222662 0.05298457944918733 0
99 1.037970886918946 0 0
100 1.081041738431681 0 0
101 1.129897545299578 0 0
102 1.185315299124918 0 0
103 1.248176350579136 0 0
104 1.319480428790748 0 0
105 1.400361537817198 0 0
106 1.492105992063858 0 0
107 1.596172875906677 0 0
108 1.714217245422021 0 0
109 1.848116452105918 0 0
110 2.218973528681522 0 0
111 2.58724162632799 0 0
112 3.206592284685553 0 0
113 4.248211782928626 0 0
114 6 0.07594177383780196 0
115 6 0.1620834768631608 0
116 6 0.2597950905988375 0
117 6 0.3706305982492297 0
118 6 0.4963527011573642 0
119 6 0.6389608575800857 0
120 6 0.8007230756325562 0
121 6 0.9842119841250935 0
122 6 1.192345751811045 0
123 6 1.428434490842396 0
124 6 1.696232904210843 0
125 4.24821176589732 2 0
126 3.206592259619772 2 0
127 2.587241601883337 2 0
128 2.218973510444273 2 0
129 1.833333333332639 2 0
130 1.666666666666204 2 0
131 1.500000000000694 2 0
132 1.333333333335184 2 0
133 1.166666666669673 2 0
134 1.000000000004119 2 0
135 0.833333333336802 2 0
136 0.6666666666694414 2 0
137 0.500000000002081 2 0
138 0.3333333333347208 2 0
139 0.1666666666673604 2 0
140 -0.166666666666346 2 0
141 -0.3333333333326418 2 0
142 -0.4999999999988218 2 0
143 -0.6666666666650021 2 0
144 -0.8333333333311822 2 0
145 -0.9999999999973841 2 0
146 -1.166666666664469 2 0
147 -1.333333333331575 2 0
148 -1.499999999998681 2 0
149 -1.666666666665787 2 0
150 -1.833333333332894 2 0
151 -2.21533965211323 2 0
152 -2.446687264121091 2 0
153 -2.695232845349341 2 0
154 -2.962254867220404 2 0
155 -3.249126834605441 2 0
156 -3.557324368153735 2 0
157 -3.888432772253226 2 0
158 -4.244155188662567 2 0
159 -4.626321377557675 2 0
160 -5.036897131825901 2 0
161 -5.477994362219771 2 0
162 -5.951881977120808 2 0
163 -6.460997562306551 2 0
164 -7.007959904799176 2 0
165 -7.595582467700727 2 0
166 -8.226887861822355 2 0
167 -8.905123393387631 2 0
168 -9.633777760110846 2 0
169 -10.41659900512236 2 0
170 -11.25761379304792 2 0
171 -12.16114814924098 2 0
172 -13.13184966585383 2 0
173 -14.17471141497458 2 0
174 -15.29509767035493 2 0
175 -16.49877147450692 2 0
176 -17.79192427132267 2 0
177 -19.18120776388954 2 0
178 -20.67376814414693 2 0
179 -22.27728284066252 2 0
180 -24 1.696232905102031 0
181 -24 1.428434490951536 0
182 -24 1.19234575132295 0
183 -24 0.9842119831740572 0
184 -24 0.8007230744094067 0
185 -24 0.6389608560268818 0
186 -24 0.4963526995315537 0
187 -24 0.370630596409389 0
188 -24 0.2597950886979639 0
189 -24 0.1620834750505642 0
190 -24 0.07594177192711293 0
191 -2 1.696232905102031 0
192 -2 1.428434490951536 0
193 -2 1.19234575132295 0
194 -2 0.9842119831740572 0
195 -2 0.8007230744094067 0
196 -2 0.6389608560268818 0
197 -2 0.4963526995315537 0
198 -2 0.370630596409389 0
199 -2 0.2597950886979639 0
200 -2 0.1620834750505642 0
201 -2 0.07594177192711293 0
202 -0.7336810709240931 0.7336810709240931 0
203 -0.7664430958447205 0.7664430958447205 0
204 -0.8068336518951271 0.8068336518951271 0
205 -0.8566290170186884 0.8566290170186884 0
206 -0.9180190711554319 0.9180190711554319 0
207 -0.993703598877253 0.993703598877253 0
208 -1.087011023921487 1.087011023921487 0
209 -1.202044779191434 1.202044779191434 0
210 -1.343863768398727 1.343863768398727 0
211 -1.518704846594556 1.518704846594556 0
212 -1.734257101950903 1.734257101950903 0
213 0 1.037970886918946 0
214 0 1.081041738431681 0
215 0 1.129897545299578 0
216 0 1.185315299124918 0
217 0 1.248176350579136 0
218 0 1.319480428790748 0
219 0 1.400361537817198 0
220 0 1.492105992063858 0
221 0 1.596172875906677 0
222 0 1.714217245422021 0
223 0 1.848116452105918 0
224 0.7336810709240931 0.7336810709240931 0
225 0.7664430958447205 0.7664430958447205 0
226 0.8068336518951271 0.8068336518951271 0
227 0.8566290170186884 0.8566290170186884 0
228 0.9180190711554319 0.9180190711554319 0
229 0.993703598877253 0.993703598877253 0
230 1.087011023921487 1.087011023921487 0
231 1.202044779191434 1.202044779191434 0
232 1.343863768398727 1.343863768398727 0
233 1.518704846594556 1.518704846594556 0
234 1.734257101950903 1.734257101950903 0
235 2 0.07594177383780196 0
236 2 0.1620834768631608 0
237 2 0.2597950905988375 0
238 2 0.3706305982492297 0
239 2 0.4963527011573642 0
240 2 0.6389608575800857 0
241 2 0.8007230756325562 0
242 2 0.9842119841250935 0
243 2 1.192345751811045 0
244 2 1.428434490842396 0
245 2 1.696232904210843 0
246 -22.27728284782529 0.07594177192711293 0
247 -22.27728284750462 0.1620834750505642 0
248 -22.27728284714086 0.2597950886979639 0
249 -22.27728284672825 0.3706305964093891 0
250 -22.27728284626022 0.4963526995315538 0
251 -22.27728284572932 0.6389608560268818 0
252 -22.27728284512712 0.8007230744094068 0
253 -22.27728284444403 0.9842119831740573 0
254 -22.27728284366921 1.19234575132295 0
255 -22.27728284279031 1.428434490951536 0
256 -22.27728284179337 1.696232905102032 0
257 -20.67376814768902 0.07594177192711293 0
258 -20.67376814753044 0.1620834750505642 0
259 -20.67376814735056 0.2597950886979639 0
260 -20.67376814714652 0.370630596409389 0
261 -20.67376814691507 0.4963526995315537 0
262 -20.67376814665252 0.6389608560268818 0
263 -20.67376814635473 0.8007230744094067 0
264 -20.67376814601694 0.9842119831740571 0
265 -20.67376814563377 1.19234575132295 0
266 -20.67376814519914 1.428434490951536 0
267 -20.67376814470614 1.696232905102031 0
268 -19.18120776427772 0.07594177192711293 0
269 -19.18120776426034 0.1620834750505642 0
270 -19.18120776424062 0.2597950886979639 0
271 -19.18120776421826 0.370630596409389 0
272 -19.1812077641929 0.4963526995315537 0
273 -19.18120776416413 0.6389608560268818 0
274 -19.18120776413149 0.8007230744094067 0
275 -19.18120776409447 0.9842119831740572 0
276 -19.18120776405249 1.19234575132295 0
277 -19.18120776400485 1.428434490951536 0
278 -19.18120776395082 1.696232905102031 0
279 -17.7919242689764 0.07594177192711293 0
280 -17.79192426908146 0.1620834750505642 0
281 -17.79192426920061 0.2597950886979639 0
282 -17.79192426933576 0.3706305964093891 0
283 -17.79192426948907 0.4963526995315537 0
284 -17.79192426966297 0.6389608560268818 0
285 -17.79192426986022 0.8007230744094067 0
286 -17.79192427008398 0.9842119831740572 0
287 -17.79192427033779 1.19234575132295 0
288 -17.79192427062568 1.428434490951536 0
289 -17.79192427095224 1.696232905102031 0
290 -16.49877146980278 0.07594177192711293 0
291 -16.49877147001339 0.1620834750505642 0
292 -16.49877147025229 0.2597950886979639 0
293 -16.49877147052327 0.370630596409389 0
294 -16.49877147083065 0.4963526995315537 0
295 -16.49877147117931 0.6389608560268818 0
296 -16.49877147157481 0.8007230744094067 0
297 -16.49877147202342 0.9842119831740571 0
298 -16.49877147253228 1.19234575132295 0
299 -16.4987714731095 1.428434490951536 0
300 -16.49877147376424 1.696232905102031 0
301 -15.2950976636358 0.07594177192711293 0
302 -15.29509766393663 0.1620834750505642 0
303 -15.29509766427785 0.2597950886979639 0
304 -15.2950976646649 0.370630596409389 0
305 -15.29509766510395 0.4963526995315538 0
306 -15.29509766560196 0.6389608560268818 0
307 -15.29509766616686 0.8007230744094067 0
308 -15.29509766680763 0.9842119831740573 0
309 -15.29509766753447 1.19234575132295 0
310 -15.29509766835893 1.428434490951536 0
311 -15.29509766929413 1.696232905102032 0
312 -14.17471140654524 0.07594177192711293 0
313 -14.17471140692263 0.1620834750505642 0
314 -14.1747114073507 0.2597950886979639 0
315 -14.17471140783627 0.370630596409389 0
316 -14.17471140838707 0.4963526995315537 0
317 -14.17471140901184 0.6389608560268818 0
318 -14.17471140972052 0.8007230744094067 0
319 -14.17471141052439 0.9842119831740573 0
320 -14.17471141143623 1.19234575132295 0
321 -14.17471141247054 1.428434490951536 0
322 -14.17471141364377 1.696232905102031 0
323 -13.13184965598313 0.07594177192711293 0
324 -13.13184965642504 0.1620834750505642 0
325 -13.13184965692632 0.2597950886979639 0
326 -13.13184965749492 0.370630596409389 0
327 -13.1318496581399 0.4963526995315537 0
328 -13.1318496588715 0.6389608560268818 0
329 -13.13184965970136 0.8007230744094067 0
330 -13.13184966064269 0.9842119831740572 0
331 -13.13184966171044 1.19234575132295 0
332 -13.13184966292162 1.428434490951536 0
333 -13.13184966429546 1.696232905102031 0
334 -12.16114813815668 0.07594177192711293 0
335 -12.16114813865293 0.1620834750505642 0
336 -12.16114813921584 0.2597950886979639 0
337 -12.16114813985435 0.370630596409389 0
338 -12.16114814057862 0.4963526995315537 0
339 -12.16114814140017 0.6389608560268818 0
340 -12.16114814233206 0.8007230744094067 0
341 -12.16114814338913 0.9842119831740572 0
342 -12.16114814458816 1.19234575132295 0
343 -12.16114814594825 1.428434490951536 0
344 -12.16114814749101 1.696232905102031 0
345 -11.25761378096295 0.07594177192711293 0
346 -11.257613781504 0.1620834750505642 0
347 -11.25761378211772 0.2597950886979639 0
348 -11.25761378281388 0.370630596409389 0
349 -11.25761378360354 0.4963526995315537 0
350 -11.25761378449926 0.6389608560268818 0
351 -11.25761378551529 0.8007230744094067 0
352 -11.25761378666778 0.9842119831740572 0
353 -11.25761378797506 1.19234575132295 0
354 -11.25761378945793 1.428434490951536 0
355 -11.25761379113997 1.696232905102031 0
356 -10.41659899222824 0.07594177192711293 0
357 -10.41659899280552 0.1620834750505642 0
358 -10.41659899346033 0.2597950886979639 0
359 -10.4165989942031 0.370630596409389 0
360 -10.41659899504563 0.4963526995315537 0
361 -10.41659899600132 0.6389608560268818 0
362 -10.41659899708537 0.8007230744094067 0
363 -10.41659899831503 0.9842119831740572 0
364 -10.41659899970984 1.19234575132295 0
365 -10.416599001292 1.428434490951536 0
366 -10.41659900308665 1.696232905102031 0
367 -9.633777746577429 0.07594177192711293 0
368 -9.633777747183327 0.1620834750505642 0
369 -9.633777747870615 0.2597950886979639 0
370 -9.633777748650203 0.370630596409389 0
371 -9.633777749534511 0.4963526995315537 0
372 -9.633777750537588 0.6389608560268818 0
373 -9.633777751675387 0.8007230744094067 0
374 -9.633777752966006 0.9842119831740572 0
375 -9.633777754429975 1.19234575132295 0
376 -9.633777756090575 1.428434490951536 0
377 -9.633777757974208 1.696232905102031 0
378 -8.905123379365124 0.07594177192711293 0
379 -8.905123379992924 0.1620834750505642 0
380 -8.905123380705042 0.2597950886979639 0
381 -8.905123381512809 0.370630596409389 0
382 -8.905123382429073 0.4963526995315537 0
383 -8.905123383468396 0.6389608560268818 0
384 -8.905123384647316 0.8007230744094067 0
385 -8.905123385984583 0.9842119831740572 0
386 -8.905123387501458 1.19234575132295 0
387 -8.905123389222069 1.428434490951536 0
388 -8.905123391173777 1.696232905102031 0
389 -8.226887847443235 0.07594177192711293 0
390 -8.226887848087001 0.1620834750505642 0
391 -8.226887848817229 0.2597950886979639 0
392 -8.226887849645541 0.370630596409389 0
393 -8.226887850585104 0.4963526995315537 0
394 -8.226887851650865 0.6389608560268818 0
395 -8.226887852859763 0.8007230744094067 0
396 -8.226887854231039 0.9842119831740572 0
397 -8.226887855786488 1.19234575132295 0
398 -8.22688785755086 1.428434490951536 0
399 -8.226887859552201 1.696232905102031 0
400 -7.595582453177742 0.07594177192711293 0
401 -7.595582453827947 0.1620834750505642 0
402 -7.595582454565483 0.2597950886979639 0
403 -7.595582455402083 0.370630596409389 0
404 -7.595582456351047 0.4963526995315537 0
405 -7.595582457427467 0.6389608560268818 0
406 -7.595582458648464 0.8007230744094067 0
407 -7.595582460033456 0.9842119831740572 0
408 -7.59558246160447 1.19234575132295 0
409 -7.595582463386493 1.428434490951536 0
410 -7.595582465407862 1.696232905102031 0
411 -7.007959890041884 0.07594177192711293 0
412 -7.00795989070258 0.1620834750505642 0
413 -7.007959891452019 0.2597950886979639 0
414 -7.007959892302111 0.370630596409389 0
415 -7.007959893266384 0.4963526995315537 0
416 -7.007959894360172 0.6389608560268818 0
417 -7.007959895600869 0.8007230744094067 0
418 -7.007959897008207 0.9842119831740572 0
419 -7.007959898604567 1.19234575132295 0
420 -7.007959900415337 1.428434490951536 0
421 -7.007959902469321 1.696232905102031 0
422 -6.460997548012569 0.07594177192711293 0
423 -6.460997548652523 0.1620834750505642 0
424 -6.460997549378432 0.2597950886979639 0
425 -6.460997550201834 0.370630596409389 0
426 -6.460997551135836 0.4963526995315537 0
427 -6.460997552195284 0.6389608560268818 0
428 -6.460997553397029 0.8007230744094067 0
429 -6.460997554760182 0.9842119831740572 0
430 -6.460997556306424 1.19234575132295 0
431 -6.460997558060345 1.428434490951536 0
432 -6.46099756004984 1.696232905102031 0
433 -5.951881962343055 0.07594177192711293 0
434 -5.951881963004666 0.1620834750505642 0
435 -5.951881963755142 0.2597950886979639 0
436 -5.951881964606414 0.370630596409389 0
437 -5.951881965572023 0.4963526995315537 0
438 -5.951881966667329 0.6389608560268818 0
439 -5.951881967909746 0.8007230744094067 0
440 -5.951881969319035 0.9842119831740572 0
441 -5.951881970917609 1.19234575132295 0
442 -5.951881972730891 1.428434490951536 0
443 -5.951881974787719 1.696232905102031 0
444 -5.477994347537441 0.07594177192711293 0
445 -5.477994348194779 0.1620834750505642 0
446 -5.477994348940409 0.2597950886979639 0
447 -5.477994349786187 0.370630596409389 0
448 -5.477994350745561 0.4963526995315537 0
449 -5.477994351833792 0.6389608560268818 0
450 -5.477994353068186 0.8007230744094067 0
451 -5.477994354468375 0.9842119831740572 0
452 -5.477994356056628 1.19234575132295 0
453 -5.477994357858201 1.428434490951536 0
454 -5.47799435990175 1.696232905102031 0
455 -5.036897117296554 0.07594177192711293 0
456 -5.036897117947045 0.1620834750505642 0
457 -5.036897118684907 0.2597950886979639 0
458 -5.036897119521869 0.370630596409389 0
459 -5.036897120471249 0.4963526995315537 0
460 -5.03689712154814 0.6389608560268818 0
461 -5.036897122769671 0.8007230744094067 0
462 -5.036897124155271 0.9842119831740572 0
463 -5.036897125726973 1.19234575132295 0
464 -5.036897127509776 1.428434490951536 0
465 -5.036897129532032 1.696232905102031 0
466 -4.626321363230431 0.07594177192711293 0
467 -4.626321363871871 0.1620834750505642 0
468 -4.62632136459947 0.2597950886979639 0
469 -4.626321365424791 0.370630596409389 0
470 -4.626321366360965 0.4963526995315537 0
471 -4.626321367422877 0.6389608560268818 0
472 -4.626321368627419 0.8007230744094067 0
473 -4.626321369993744 0.9842119831740572 0
474 -4.626321371543583 1.19234575132295 0
475 -4.62632137330159 1.428434490951536 0
476 -4.626321375295714 1.696232905102031 0
477 -4.244155174579025 0.07594177192711293 0
478 -4.244155175209556 0.1620834750505642 0
479 -4.244155175924776 0.2597950886979639 0
480 -4.24415517673606 0.370630596409389 0
481 -4.244155177656308 0.4963526995315537 0
482 -4.24415517870016 0.6389608560268818 0
483 -4.24415517988421 0.8007230744094067 0
484 -4.244155181227296 0.9842119831740572 0
485 -4.244155182750774 1.19234575132295 0
486 -4.244155184478876 1.428434490951536 0
487 -4.244155186439082 1.696232905102031 0
488 -3.88843275844875 0.07594177192711293 0
489 -3.888432759066788 0.1620834750505642 0
490 -3.888432759767835 0.2597950886979639 0
491 -3.888432760563044 0.370630596409389 0
492 -3.888432761465057 0.4963526995315537 0
493 -3.888432762488224 0.6389608560268818 0
494 -3.888432763648814 0.8007230744094067 0
495 -3.888432764965286 0.9842119831740572 0
496 -3.888432766458577 1.19234575132295 0
497 -3.888432768152435 1.428434490951536 0
498 -3.8884327700738 1.696232905102031 0
499 -3.557324354657913 0.07594177192711293 0
500 -3.557324355262133 0.1620834750505642 0
501 -3.557324355947507 0.2597950886979639 0
502 -3.557324356724935 0.370630596409389 0
503 -3.557324357606779 0.4963526995315537 0
504 -3.557324358607069 0.6389608560268818 0
505 -3.55732435974171 0.8007230744094067 0
506 -3.557324361028746 0.9842119831740572 0
507 -3.557324362488648 1.19234575132295 0
508 -3.557324364144633 1.428434490951536 0
509 -3.557324366023038 1.696232905102031 0
510 -3.249126821441399 0.07594177192711293 0
511 -3.249126822030765 0.1620834750505642 0
512 -3.24912682269929 0.2597950886979639 0
513 -3.249126823457603 0.370630596409389 0
514 -3.24912682431777 0.4963526995315537 0
515 -3.24912682529347 0.6389608560268818 0
516 -3.249126826400215 0.8007230744094067 0
517 -3.249126827655611 0.9842119831740572 0
518 -3.249126829079624 1.19234575132295 0
519 -3.249126830694899 1.428434490951536 0
520 -3.249126832527124 1.696232905102031 0
521 -2.962254854406549 0.07594177192711293 0
522 -2.962254854980237 0.1620834750505642 0
523 -2.962254855630976 0.2597950886979639 0
524 -2.96225485636912 0.370630596409389 0
525 -2.962254857206406 0.4963526995315537 0
526 -2.962254858156147 0.6389608560268818 0
527 -2.962254859233453 0.8007230744094067 0
528 -2.962254860455453 0.9842119831740572 0
529 -2.962254861841583 1.19234575132295 0
530 -2.962254863413889 1.428434490951536 0
531 -2.962254865197375 1.696232905102031 0
532 -2.69523283290023 0.07594177192711293 0
533 -2.695232833457588 0.1620834750505642 0
534 -2.695232834089805 0.2597950886979639 0
535 -2.695232834806937 0.370630596409389 0
536 -2.695232835620388 0.4963526995315537 0
537 -2.695232836543097 0.6389608560268818 0
538 -2.695232837589737 0.8007230744094067 0
539 -2.695232838776953 0.9842119831740572 0
540 -2.695232840123627 1.19234575132295 0
541 -2.695232841651177 1.428434490951536 0
542 -2.695232843383896 1.696232905102031 0
543 -2.446687252047609 0.07594177192711293 0
544 -2.44668725258815 0.1620834750505642 0
545 -2.44668725320129 0.2597950886979639 0
546 -2.446687253896784 0.370630596409389 0
547 -2.446687254685692 0.4963526995315537 0
548 -2.446687255580558 0.6389608560268818 0
549 -2.446687256595617 0.8007230744094067 0
550 -2.446687257747013 0.9842119831740572 0
551 -2.446687259053054 1.19234575132295 0
552 -2.446687260534513 1.428434490951536 0
553 -2.44668726221495 1.696232905102031 0
554 -2.215339640422993 0.07594177192711293 0
555 -2.215339640946373 0.1620834750505642 0
556 -2.215339641540053 0.2597950886979639 0
557 -2.21533964221347 0.370630596409389 0
558 -2.215339642977335 0.4963526995315537 0
559 -2.215339643843797 0.6389608560268818 0
560 -2.215339644826635 0.8007230744094067 0
561 -2.215339645941482 0.9842119831740572 0
562 -2.215339647206066 1.19234575132295 0
563 -2.215339648640498 1.428434490951536 0
564 -2.215339650267595 1.696232905102031 0
565 -1.843220493688234 0.06777233916250162 0
566 -1.837690371467011 0.14429760037064 0
567 -1.831469998530138 0.2307130530551954 0
568 -1.824500629002006 0.3283059915334963 0
569 -1.816721189645862 0.438533874162825 0
570 -1.808068740098904 0.5630472255244009 0
571 -1.798479086839194 0.7037156744538875 0
572 -1.787887577647013 0.8626575819931409 0
573 -1.776230105486711 1.042273765793873 0
574 -1.763444353360478 1.2452858811034 0
575 -1.749471311890824 1.474780139285214 0
576 -1.706268916341301 0.06183410297207816 0
577 -1.69717479514836 0.1311929015034607 0
578 -1.686831128443884 0.2090102900874749 0
579 -1.675129227250033 0.2963402989029629 0
580 -1.6619560926068 0.3943732026654018 0
581 -1.64719528412803 0.5044538969888109 0
582 -1.630728077901485 0.6281028647257003 0
583 -1.612434964103041 0.767040127931207 0
584 -1.592197538785094 0.9232126311210961 0
585 -1.569900849129558 1.098825553431759 0
586 -1.545436251999256 1.296378158200516 0
587 -1.586558762833711 0.05762416514578626 0
588 -1.575386293972937 0.1217287155152122 0
589 -1.562511137464155 0.1930696959070953 0
590 -1.547782072881556 0.2724969908301308 0
591 -1.531041878053798 0.3609668822901742 0
592 -1.512128559686249 0.459556438321069 0
593 -1.490876992949671 0.5694800103284627 0
594 -1.467121041228681 0.6921081833937793 0
595 -1.440696233027509 0.828989571580356 0
596 -1.411443079715734 0.9818759006689023 0
597 -1.379211118765627 1.15275092304837 0
598 -1.481854876566878 0.05474425895312381 0
599 -1.469712907817968 0.1150794633326243 0
600 -1.45550115150692 0.1816060383705647 0
601 -1.439032106891974 0.2549951105747663 0
602 -1.420110825544848 0.3359979365640219 0
603 -1.398536462865963 0.4254567776604928 0
604 -1.374104344079195 0.5243174591592031 0
605 -1.346608634266097 0.6336439130297896 0
606 -1.315845709327719 0.7546350488366206 0
607 -1.281618333010385 0.8886443466069919 0
608 -1.243740746579213 1.037202660187847 0
609 -1.390223332727913 0.05287984502469287 0
610 -1.377926467029412 0.1105918326289002 0
611 -1.363262451163439 0.1736001451670936 0
612 -1.346012785532691 0.2424193032111498 0
613 -1.325950285033133 0.3176208372547994 0
614 -1.302840914843436 0.3998410658264118 0
615 -1.276446233757969 0.4897901844090151 0
616 -1.246526550822486 0.588262923912834 0
617 -1.21284490971366 0.6961510818437443 0
618 -1.17517202487135 0.8144582769252634 0
619 -1.133292295345605 0.9443173662247218 0
620 -1.309988861225574 0.051783290677414 0
621 -1.298123073836434 0.1077503074060167 0
622 -1.283649291986239 0.1682458925610194 0
623 -1.266322487170667 0.2336473037030134 0
624 -1.245887884064983 0.3043684556955966 0
625 -1.222083048044701 0.3808649701063428 0
626 -1.194640662330406 0.4636402058507995 0
627 -1.163292114802923 0.553252494558387 0
628 -1.127772024418909 0.6503238471060749 0
629 -1.087823847840464 0.755550444160494 0
630 -1.043206709359285 0.8697153061842359 0
631 -1.23969861999709 0.05126034496668862 0
632 -1.228673293027861 0.1061494361883733 0
633 -1.214844928935948 0.1649075319760449 0
634 -1.197945759993304 0.2277915284488775 0
635 -1.177697360290094 0.2950770606217848 0
636 -1.153812956085868 0.3670611471044013 0
637 -1.126000498175822 0.4440655255315261 0
638 -1.093966628918447 0.5264408711181715 0
639 -1.057421687521201 0.6145721324445029 0
640 -1.01608590880946 0.7088852638571821 0
641 -0.9696969736791202 0.8098557115382766 0
642 -1.178091311359991 0.05115927358608913 0
643 -1.168180392178449 0.1054715403484706 0
644 -1.155308507194726 0.1630853651731062 0
645 -1.139188367940397 0.2241520605458816 0
646 -1.119521244014107 0.2888259008344366 0
647 -1.095999470613445 0.3572646477581832 0
648 -1.068309781924931 0.4296305105011523 0
649 -1.036137614130465 0.5060917054598059 0
650 -0.9991725336846445 0.5868248212293526 0
651 -0.9571149589478943 0.6720182387003933 0
652 -0.909684346728266 0.7618769294828555 0
653 -1.124070815316578 0.05136213901154445 0
654 -1.115445277586792 0.1054688116507348 0
655 -1.103730916939974 0.1623881579008818 0
656 -1.088623662216273 0.2221788352618728 0
657 -1.06980732535166 0.2848885702145483 0
658 -1.04695628333898 0.3505528159933836 0
659 -1.019739042349895 0.4191936192558086 0
660 -0.9878228375755239 0.4908188364869938 0
661 -0.9508794350778335 0.5654218806243992 0
662 -0.9085923150560711 0.6429822217363304 0
663 -0.8606654198710948 0.7234669351621388 0
664 -1.076683643712872 0.05177780842227243 0
665 -1.069437002211068 0.1059489462686641 0
666 -1.05899804379203 0.1625109851850064 0
667 -1.045048247868751 0.2214412448930142 0
668 -1.027256394860647 0.2826938791949321 0
669 -1.005281402413624 0.3461968876843433 0
670 -0.9787760934327087 0.4118491373534234 0
671 -0.9473920581267897 0.4795175136446896 0
672 -0.9107857857417646 0.5490343592928407 0
673 -0.868626255351059 0.6201954018220893 0
674 -0.8206041794554625 0.6927584368420727 0
675 -1.035099624287645 0.0523363550314427 0
676 -1.029267912806126 0.1067636320205201 0
677 -1.020160126642098 0.1632174607398258 0
678 -1.007445287409311 0.2216037349273143 0
679 -0.9907792150747654 0.2817944067321314 0
680 -0.9698075005645538 0.3436230476640831 0
681 -0.9441694539674774 0.40688024401543 0
682 -0.9135031981565239 0.4713089275353841 0
683 -0.8774520917826051 0.5365997801906478 0
684 -0.8356726797826665 0.6023868936166327 0
685 -0.7878443743429056 0.6682439272600904 0
686 -0.6832816509158826 0.7785920456210194 0
687 -0.7128326383113029 0.811337713252606 0
688 -0.7493118592024749 0.8514406999886824 0
689 -0.7943388935711209 0.9005782173559331 0
690 -0.849911291435381 0.9608131875086945 0
691 -0.918492693744577 1.03468340397921 0
692 -1.003121494890574 1.125311373272825 0
693 -1.107544813850037 1.236539623745495 0
694 -1.2363836889331 1.373097417897379 0
695 -1.395336759232295 1.540806154756123 0
696 -1.591431395694897 1.746832453449848 0
697 -0.630166018522383 0.8204057739676318 0
698 -0.6566275755084029 0.8532737506366727 0
699 -0.6893334017156747 0.893246459010317 0
700 -0.7297485729378395 0.9419045457176904 0
701 -0.7796807976941535 1.001186812629837 0
702 -0.8413603959664048 1.073472280860324 0
703 -0.9175389345704668 1.161681190600615 0
704 -1.011610850361812 1.269399306939447 0
705 -1.127763435856564 1.40103094867724 0
706 -1.271161787106322 1.561987387259199 0
707 -1.448176858384466 1.758918816889045 0
708 -0.5745425592304549 0.8589512383944308 0
709 -0.5980269633186327 0.8920878470167108 0
710 -0.6270867526317498 0.9320962529465238 0
711 -0.6630345242448374 0.9804631775588173 0
712 -0.7074904426920446 1.039006296619772 0
713 -0.7624541130916003 1.109949255165294 0
714 -0.8303932308166564 1.196013879581053 0
715 -0.9143529037789961 1.300533541634775 0
716 -1.018090482256848 1.42759257331818 0
717 -1.146241833678133 1.582197741152275 0
718 -1.304526389541733 1.770489192270429 0
719 -0.5166303969441807 0.8940714169524402 0
720 -0.5372401152941142 0.9276300104575947 0
721 -0.5627700974963425 0.9678480640937708 0
722 -0.5943823103990449 1.016121140445038 0
723 -0.6335114713170755 1.074148927204398 0
724 -0.6819288488976052 1.144003252845898 0
725 -0.7418209649085328 1.228211567548409 0
726 -0.8158866585073005 1.329859429655562 0
727 -0.9074568089496434 1.452716379391277 0
728 -1.020641992479016 1.601390571146527 0
729 -1.160514584107869 1.78151878925679 0
730 -0.4566584565356735 0.9256239549930172 0
731 -0.4744857071417002 0.9597642596414458 0
732 -0.4965904862605217 1.00037314048404 0
733 -0.5239857941121597 1.048757882751526 0
734 -0.5579227878316699 1.106503454512074 0
735 -0.5999465400920523 1.175533575127299 0
736 -0.6519648270458092 1.25818552397111 0
737 -0.7163329731940949 1.357301816200834 0
738 -0.7959585107820386 1.476342611219904 0
739 -0.894430268471047 1.619523588988662 0
740 -1.016177584341228 1.791985133116514 0
741 -0.3948644829421144 0.9534817752123569 0
742 -0.4099908397603105 0.9883692066243821 0
743 -0.4287629461568492 1.029556547685431 0
744 -0.4520463073053489 1.078265790345495 0
745 -0.4809101893934786 1.13597056791641 0
746 -0.5166753625551336 1.204450330153864 0
747 -0.5609730050722316 1.285856540822458 0
748 -0.6158173630023445 1.382793612043887 0
749 -0.6836953850100576 1.498417926082935 0
750 -0.7676772867650248 1.636559044789638 0
751 -0.871552925021292 1.801868161103628 0
752 -0.3314940235665887 0.9775336215436616 0
753 -0.343990067183276 1.013338576360881 0
754 -0.3595095613023647 1.055297660688151 0
755 -0.3787717893144179 1.104550647124514 0
756 -0.4026655707372889 1.162463321020064 0
757 -0.4322890114312792 1.2306748176474 0
758 -0.4689985501108918 1.311155271502456 0
759 -0.5144694622857808 1.406276080581388 0
760 -0.5707705040555587 1.518895622432157 0
761 -0.640455990254537 1.652463888518651 0
762 -0.7266793727449324 1.811150308279015 0
763 -0.2667993762898648 0.9976845358243012 0
764 -0.2767243917068604 1.034581662048609 0
765 -0.2890585212697265 1.077510595060669 0
766 -0.3043758960785173 1.127532038732075 0
767 -0.3233861021192079 1.18590750424032 0
768 -0.3469659570588736 1.254139866176932 0
769 -0.376198720948159 1.334022528042687 0
770 -0.4124224693004673 1.42769908958504 0
771 -0.4572897740119443 1.53773584007704 0
772 -0.5128413271890179 1.667209911684142 0
773 -0.5815967598888816 1.819816582816601 0
774 -0.2010385093285643 1.013856264260863 0
775 -0.2084402320984742 1.052023713386765 0
776 -0.2176431441406919 1.096124574557166 0
777 -0.2290770854067782 1.147143696741954 0
778 -0.2432733851542893 1.206241962426186 0
779 -0.260888680859699 1.274790120642477 0
780 -0.2827343107296827 1.354409534412256 0
781 -0.3098125759072482 1.447021325742608 0
782 -0.3433614811923411 1.554905730758472 0
783 -0.3849099302667193 1.680773868040103 0
784 -0.4363458140563477 1.82785463015082 0
785 -0.1344739568624175 1.025987592465482 0
786 -0.1393883686582267 1.065606256603189 0
787 -0.1455008776428731 1.111084234120752 0
788 -0.1530976817234338 1.163333782352589 0
789 -0.1625325897153384 1.223418856652423 0
790 -0.1742428940849329 1.292582279229595 0
791 -0.1887689585496062 1.372278135299537 0
792 -0.2067783844777779 1.464210471486503 0
793 -0.2290958285022501 1.570379598736886 0
794 -0.2567397885253074 1.693137573071674 0
795 -0.2909679836940586 1.835254785845844 0
796 -0.06737169436179807 1.03403460771732 0
797 -0.06982286891454872 1.075287344989735 0
798 -0.0728722819764166 1.122349857115689 0
799 -0.07666292369638114 1.176065108526759 0
800 -0.08137157506387031 1.23740386923638 0
801 -0.08721674231686335 1.307485278999639 0
802 -0.0944684485159204 1.387600959661748 0
803 -0.1034603142186199 1.479243343536364 0
804 -0.1146044634212079 1.58413901096174 0
805 -0.1284099133121365 1.704287981971554 0
806 -0.1455052605735394 1.842010117043789 0
807 0.06748451285582641 1.034422421337201 0
808 0.07005053956540599 1.076069964094682 0
809 0.07321405726283803 1.123524712100361 0
810 0.07711418972503743 1.177616339094078 0
811 0.08192245536182469 1.239297524920263 0
812 0.08785030994671736 1.30966317329308 0
813 0.0951584462858375 1.389972833216141 0
814 0.1041682583850913 1.481676908110987 0
815 0.1152759757839133 1.586447340963382 0
816 0.128970088942948 1.706213590976889 0
817 0.1458528318715225 1.843204896680376 0
818 0.1346947160335125 1.026688798098336 0
819 0.1398338663540168 1.067021309908691 0
820 0.1461696511406619 1.113208488996606 0
821 0.153980702724145 1.166138561801081 0
822 0.1636105322953321 1.226842774847131 0
823 0.1754826362278922 1.296520129166353 0
824 0.1901191211363569 1.376566719079663 0
825 0.2081636639171103 1.468610598785072 0
826 0.2304098195074316 1.574553289449593 0
827 0.2578359198545347 1.696619266080081 0
828 0.2916480985853598 1.837415066514573 0
829 0.2013574743797122 1.014796918665331 0
830 0.2090839117266916 1.05392198134734 0
831 0.2186094249234246 1.098974223413384 0
832 0.2303529227606089 1.150906256828231 0
833 0.2448308559214674 1.210835085783573 0
834 0.2626799285290096 1.280072674006369 0
835 0.2846850999236002 1.360162590797402 0
836 0.3118141038552655 1.45292401571867 0
837 0.3452600076837621 1.560504660219185 0
838 0.3864936811099694 1.685444495290247 0
839 0.4373284814633002 1.830752607009393 0
840 0.2672019971031988 0.998791490775175 0
841 0.2775368907534026 1.036815529474001 0
842 0.2902782308343304 1.080864040413067 0
843 0.3059863503437888 1.131959791197582 0
844 0.325352054454588 1.191312657357747 0
845 0.3492269995126526 1.260356335377266 0
846 0.3786611482547642 1.34079268168853 0
847 0.4149489427295785 1.434645330932363 0
848 0.4596862315445306 1.544324618334714 0
849 0.5148404521160184 1.672706270858833 0
850 0.582837153802391 1.823226900287013 0
851 0.3319609971060714 0.9787348370378178 0
852 0.3449324315503872 1.015762664498328 0
853 0.3609242223889152 1.058936662362491 0
854 0.3806396494999046 1.109355436570049 0
855 0.4049457497698667 1.168328739885291 0
856 0.4349114460957522 1.237420638738514 0
857 0.4718545578253066 1.318501925035078 0
858 0.5173997528791118 1.413813816256513 0
859 0.5735499977409092 1.526045455923621 0
860 0.6427746439428835 1.658428280008467 0
861 0.7281180241659685 1.814851025040156 0
862 0.3953718356946821 0.9547066280393329 0
863 0.4110146903752755 0.9908409957810752 0
864 0.4302999329784293 1.033267157447268 0
865 0.4540756813420331 1.08316512825154 0
866 0.4833875354786865 1.141951406311291 0
867 0.5195245591086384 1.211328895335982 0
868 0.5640759717311322 1.293347761637112 0
869 0.6190010357773951 1.390479675130813 0
870 0.6867152214693042 1.505708453869087 0
871 0.770196434399266 1.642640803477155 0
872 0.8731159766065157 1.805641700513032 0
873 0.4571776470052356 0.9268035412919244 0
874 0.4755334469616654 0.9621446996138237 0
875 0.4981633353396403 1.003946618335774 0
876 0.5260625193241438 1.053476157273952 0
877 0.5604579376714076 1.112263260830546 0
878 0.6028622168337718 1.182157931210502 0
879 0.6551401951550435 1.265399893954592 0
880 0.7195909305747156 1.364703827728946 0
881 0.7990488090855502 1.483363705128705 0
882 0.8970081953965138 1.625380585920871 0
883 1.017777106630301 1.795619214947256 0
884 0.5171284386895721 0.8951388468841966 0
885 0.538245176728252 0.9297841155698702 0
886 0.5642788786566101 0.9710817717267811 0
887 0.5963744430608915 1.020390796217492 0
888 0.6359433553771074 1.079361084779926 0
889 0.6847257596807144 1.149997757840097 0
890 0.7448669889391748 1.234739987269882 0
891 0.8190119076835489 1.336557649756426 0
892 0.9104212284216959 1.459069899940546 0
893 1.02311491129406 1.606690678344783 0
894 1.162048952185432 1.784807338575332 0
895 0.5749821616273215 0.859841922760431 0
896 0.5989140928154061 0.8938852743441044 0
897 0.6284184964775316 0.9347945216699728 0
898 0.6647929041800388 0.9840258616111589 0
899 0.7096369745570289 1.043355422555515 0
900 0.7649228402454125 1.114951187042763 0
901 0.833081840823243 1.201461320317673 0
902 0.917111442842562 1.306122667117852 0
903 1.020707063049044 1.432894074771759 0
904 1.148424585466243 1.586620253961165 0
905 1.305880718141869 1.773233221954702 0
906 0.6305057465481118 0.8210577007054236 0
907 0.6573131558880807 0.8545893580684767 0
908 0.6903625834535452 0.8952214275495243 0
909 0.7311074622983224 0.9445122136991375 0
910 0.7813396538259705 1.004370108234709 0
911 0.843268247075519 1.077133390708487 0
912 0.9196167128275363 1.165668385837514 0
913 1.013742670331882 1.273490206796093 0
914 1.129785549399071 1.404911325244198 0
915 1.272848634296674 1.565224397610333 0
916 1.449223493832692 1.760927279697466 0
917 0.683476102240069 0.7789460456315447 0
918 0.7132250465188292 0.8120520956535473 0
919 0.7499009358828945 0.8525131192194367 0
920 0.7951166863131636 0.9019941959800198 0
921 0.8508607773517551 0.9625417352030512 0
922 0.9195846979096427 1.036671407521022 0
923 1.004310760940253 1.127476443029719 0
924 1.108765011982214 1.238761005693348 0
925 1.237541093980172 1.375204484491951 0
926 1.396302266572139 1.542563869823888 0
927 1.592030462533546 1.747923060198507 0
928 1.035764525178089 0.05300125557606988 0
929 1.03053993011948 0.1080356487082989 0
930 1.021968192003193 0.1650255250625045 0
931 1.009703057023083 0.2238615031515616 0
932 0.9933828029816955 0.2843979928280401 0
933 0.9726328992514452 0.3464484440809787 0
934 0.9470696001521932 0.4097803877339204 0
935 0.916304635796852 0.4741103631657417 0
936 0.8799511782611857 0.5390988651075487 0
937 0.8376312726696238 0.6043454853794237 0
938 0.7889849291731912 0.6693844816158601 0
939 1.078025432881616 0.05311959737133051 0
940 1.072003969802108 0.1085159133677029 0
941 1.062646771725651 0.1661597122353628 0
942 1.049604491850185 0.2259974876520021 0
943 1.032510509979639 0.2879479926779674 0
944 1.010983137882512 0.3518986210740027 0
945 0.9846286713543537 0.4177017129916756 0
946 0.9530454394241686 0.4851708930799632 0
947 0.915829013771249 0.5540775858648659 0
948 0.8725787518481053 0.6241478972494354 0
949 0.8229058518200085 0.6950601087183597 0
950 1.126085087206266 0.05337641082752954 0
951 1.119298767220029 0.1093223009463161 0
952 1.109208327422833 0.1678655676792004 0
953 1.095463420857658 0.2290185928729425 0
954 1.077694716626191 0.2927759600541585 0
955 1.055515634843073 0.3591121656369111 0
956 1.028524835994587 0.4279794108265444 0
957 0.9963096005472354 0.4993055977661002 0
958 0.9584502460175645 0.5729926902263338 0
959 0.9145257377670182 0.6489156434404051 0
960 0.8641206525935635 0.7269221673813293 0
961 1.180750873712998 0.05381883603428963 0
962 1.173268382541765 0.1105595305524225 0
963 1.162540656323563 0.1703175138032309 0
964 1.148219305924155 0.2331829977202192 0
965 1.129935433306374 0.2992400889226099 0
966 1.107300888693947 0.3685660642287296 0
967 1.079910184913774 0.4412309116559294 0
968 1.047343189249625 0.517297279080639 0
969 1.009168723169067 0.5968210095133515 0
970 0.9649492079063366 0.6798524867244169 0
971 0.9142464948888391 0.7664390771237611 0
972 1.242945265229603 0.05450699048035336 0
973 1.234884427596887 0.1123605707948057 0
974 1.223673532805821 0.1737361355754055 0
975 1.208970224852043 0.2388159927437239 0
976 1.19041042108804 0.3077901204727211 0
977 1.167609096210105 0.3808572858985683 0
978 1.140161622349158 0.4582266481389552 0
979 1.107645769287096 0.5401200102054421 0
980 1.069624477447607 0.6267749213235222 0
981 1.025649522467412 0.7184488766608806 0
982 0.9752661894180001 0.8154249267377975 0
983 1.313722829383667 0.05551725935183981 0
984 1.305266502564634 0.1148937364183991 0
985 1.293803073370517 0.1783996739563824 0
986 1.279001729289649 0.2463265455583333 0
987 1.260509181139342 0.3189897521350272 0
988 1.237949995125958 0.3967319161939327 0
989 1.210927377713178 0.479926919988889 0
990 1.179024500402062 0.568984879137008 0
991 1.141806458705409 0.6643582805308027 0
992 1.098822964292936 0.7665495598583583 0
993 1.049611866948184 0.8761204632161833 0
994 1.394289875464864 0.05694638853178656 0
995 1.385706141927192 0.1183715080781843 0
996 1.374320602820135 0.1846582971421379 0
997 1.359821333988669 0.2562278517324107 0
998 1.341873862100307 0.3335444140301049 0
999 1.32012108862866 0.4171212389894378 0
1000 1.294183563474029 0.5075275132356487 0
1001 1.263660178087076 0.6053965504449073 0
1002 1.228129353672115 0.7114355251445452 0
1003 1.187150803324506 0.8264370547321827 0
1004 1.140267943268742 0.9512930135684181 0
1005 1.486027187576244 0.05891657104126787 0
1006 1.477694927345468 0.1230614837350186 0
1007 1.466846919017736 0.1929518065677162 0
1008 1.453199807378919 0.2691628115187006 0
1009 1.436448565267154 0.3523356764011012 0
1010 1.416266083564028 0.4431863981739086 0
1011 1.392303011052291 0.5425161256604278 0
1012 1.364187896860981 0.6512231752314753 0
1013 1.331527692478703 0.770317031571767 0
1014 1.293908672287689 0.9009346853684399 0
1015 1.250897826919247 1.044359739926986 0
1016 1.590516360874535 0.06158176461356613 0
1017 1.582957547707101 0.1292999704892377 0
1018 1.573273036094792 0.2038315956396886 0
1019 1.561220683943956 0.2859356027921269 0
1020 1.546538855150822 0.3764638599616161 0
1021 1.528945789647327 0.4763736685923265 0
1022 1.508139131418876 0.5867421487980902 0
1023 1.483795650734983 0.7087827928906112 0
1024 1.455571199713577 0.8438645381239351 0
1025 1.423100941199836 0.9935337617843525 0
1026 1.385999885897651 1.159539689554788 0
1027 1.709570344647493 0.06513553309755371 0
1028 1.703490735231231 0.1375088432376382 0
1029 1.695808704672958 0.2179878678874952 0
1030 1.686339717136039 0.3075507901882752 0
1031 1.674883671551652 0.4073007827038466 0
1032 1.661224218085086 0.5184828318152939 0
1033 1.645128154567178 0.6425029419257057 0
1034 1.626344924097785 0.7809500883501564 0
1035 1.604606236669401 0.9356213291716822 0
1036 1.579625837714299 1.108550541813884 0
1037 1.551099441858665 1.302041347405781 0
1038 1.845268925439797 0.06982077320695157 0
1039 1.841609212702121 0.148216443751558 0
1040 1.837040301051954 0.2362833577067595 0
1041 1.831456384031228 0.3352617485544651 0
1042 1.824742344292074 0.4465550305156644 0
1043 1.816773250810828 0.5717517377624264 0
1044 1.807413879921197 0.7126504686959003 0
1045 1.796518268831436 0.8712882741111087 0
1046 1.783929310929822 1.049972971767674 0
1047 1.769478401887204 1.251319929626118 0
1048 1.752985142493301 1.478293969206766 0
1049 2.218973527989037 0.07594177383780196 0
1050 2.218973527203544 0.1620834768631608 0
1051 2.218973526312549 0.2597950905988375 0
1052 2.218973525301882 0.3706305982492297 0
1053 2.218973524155468 0.4963527011573642 0
1054 2.218973522855078 0.6389608575800857 0
1055 2.218973521380029 0.8007230756325562 0
1056 2.218973519706862 0.9842119841250935 0
1057 2.218973517808969 1.192345751811045 0
1058 2.218973515656164 1.428434490842396 0
1059 2.218973513214211 1.696232904210843 0
1060 2.587241625399805 0.07594177383780196 0
1061 2.587241624346953 0.1620834768631608 0
1062 2.58724162315269 0.2597950905988375 0
1063 2.587241621798021 0.3706305982492297 0
1064 2.587241620261405 0.4963527011573642 0
1065 2.587241618518401 0.6389608575800857 0
1066 2.587241616541291 0.8007230756325562 0
1067 2.587241614298629 0.9842119841250936 0
1068 2.58724161175475 1.192345751811045 0
1069 2.587241608869197 1.428434490842396 0
1070 2.587241605596077 1.696232904210843 0
1071 3.206592283733783 0.07594177383780196 0
1072 3.206592282654179 0.1620834768631608 0
1073 3.206592281429569 0.2597950905988375 0
1074 3.206592280040481 0.3706305982492297 0
1075 3.206592278464818 0.4963527011573642 0
1076 3.206592276677526 0.6389608575800857 0
1077 3.206592274650179 0.8007230756325561 0
1078 3.206592272350532 0.9842119841250935 0
1079 3.206592269742013 1.192345751811045 0
1080 3.206592266783139 1.428434490842396 0
1081 3.206592263426852 1.696232904210843 0
1082 4.248211782281933 0.07594177383780196 0
1083 4.248211781548379 0.1620834768631608 0
1084 4.248211780716302 0.2597950905988375 0
1085 4.248211779772465 0.3706305982492297 0
1086 4.248211778701859 0.4963527011573642 0
1087 4.248211777487457 0.6389608575800857 0
1088 4.248211776109946 0.8007230756325562 0
1089 4.248211774547419 0.9842119841250935 0
1090 4.248211772775024 1.192345751811045 0
1091 4.248211770764573 1.428434490842396 0
1092 4.248211768484095 1.696232904210843 0
$EndNodes
$Elements
1260
1 15 2 1 1 1
2 15 2 2 2 2
3 15 2 3 3 3
4 15 2 4 4 4
5 15 2 5 5 5
6 15 2 6 6 6
7 15 2 7 7 7
8 15 2 8 8 8
9 15 2 9 9 9
10 15 2 10 10 10
11 15 2 11 11 11
12 15 2 12 12 12
13 15 2 13 13 13
14 15 2 14 14 14
15 1 2 1 1 1 15
16 1 2 1 1 15 16
17 1 2 1 1 16 17
18 1 2 1 1 17 18
19 1 2 1 1 18 19
20 1 2 1 1 19 20
21 1 2 1 1 20 21
22 1 2 1 1 21 22
23 1 2 1 1 22 23
24 1 2 1 1 23 24
25 1 2 1 1 24 25
26 1 2 1 1 25 26
27 1 2 1 1 26 27
28 1 2 1 1 27 28
29 1 2 1 1 28 29
30 1 2 1 1 29 30
31 1 2 1 1 30 31
32 1 2 1 1 31 32
33 1 2 1 1 32 33
34 1 2 1 1 33 34
35 1 2 1 1 34 35
36 1 2 1 1 35 36
37 1 2 1 1 36 37
38 1 2 1 1 37 38
39 1 2 1 1 38 39
40 1 2 1 1 39 40
41 1 2 1 1 40 41
42 1 2 1 1 41 42
43 1 2 1 1 42 43
44 1 2 1 1 43 2
45 1 2 2 2 2 44
46 1 2 2 2 44 45
47 1 2 2 2 45 46
48 1 2 2 2 46 47
49 1 2 2 2 47 48
50 1 2 2 2 48 49
51 1 2 2 2 49 50
52 1 2 2 2 50 51
53 1 2 2 2 51 52
54 1 2 2 2 52 53
55 1 2 2 2 53 54
56 1 2 2 2 54 3
57 1 2 3 3 3 55
58 1 2 3 3 55 56
59 1 2 3 3 56 57
60 1 2 3 3 57 58
61 1 2 3 3 58 59
62 1 2 3 3 59 60
63 1 2 3 3 60 61
64 1 2 3 3 61 62
65 1 2 3 3 62 63
66 1 2 3 3 63 64
67 1 2 3 3 64 65
68 1 2 3 3 65 4
69 1 2 4 4 4 66
70 1 2 4 4 66 67
71 1 2 4 4 67 68
72 1 2 4 4 68 69
73 1 2 4 4 69 70
74 1 2 4 4 70 71
75 1 2 4 4 71 72
76 1 2 4 4 72 73
77 1 2 4 4 73 74
78 1 2 4 4 74 75
79 1 2 4 4 75 76
80 1 2 4 4 76 5
81 1 2 5 5 5 77
82 1 2 5 5 77 78
83 1 2 5 5 78 79
84 1 2 5 5 79 80
85 1 2 5 5 80 81
86 1 2 5 5 81 82
87 1 2 5 5 82 83
88 1 2 5 5 83 84
89 1 2 5 5 84 85
90 1 2 5 5 85 86
91 1 2 5 5 86 87
92 1 2 5 5 87 6
93 1 2 6 6 6 88
94 1 2 6 6 88 89
95 1 2 6 6 89 90
96 1 2 6 6 90 91
97 1 2 6 6 91 92
98 1 2 6 6 92 93
99 1 2 6 6 93 94
100 1 2 6 6 94 95
101 1 2 6 6 95 96
102 1 2 6 6 96 97
103 1 2 6 6 97 98
104 1 2 6 6 98 7
105 1 2 7 7 7 99
106 1 2 7 7 99 100
107 1 2 7 7 100 101
108 1 2 7 7 101 102
109 1 2 7 7 102 103
110 1 2 7 7 103 104
111 1 2 7 7 104 105
112 1 2 7 7 105 106
113 1 2 7 7 106 107
114 1 2 7 7 107 108
115 1 2 7 7 108 109
116 1 2 7 7 109 8
117 1 2 8 8 8 110
118 1 2 8 8 110 111
119 1 2 8 8 111 112
120 1 2 8 8 112 113
121 1 2 8 8 113 9
122 1 2 9 9 9 114
123 1 2 9 9 114 115
124 1 2 9 9 115 116
125 1 2 9 9 116 117
126 1 2 9 9 117 118
127 1 2 9 9 118 119
128 1 2 9 9 119 120
129 1 2 9 9 120 121
130 1 2 9 9 121 122
131 1 2 9 9 122 123
132 1 2 9 9 123 124
133 1 2 9 9 124 10
134 1 2 10 10 10 125
135 1 2 10 10 125 126
136 1 2 10 10 126 127
137 1 2 10 10 127 128
138 1 2 10 10 128 11
139 1 2 11 11 11 129
140 1 2 11 11 129 130
141 1 2 11 11 130 131
142 1 2 11 11 131 132
143 1 2 11 11 132 133
144 1 2 11 11 133 134
145 1 2 11 11 134 135
146 1 2 11 11 135 136
147 1 2 11 11 136 137
148 1 2 11 11 137 138
149 1 2 11 11 138 139
150 1 2 11 11 139 12
151 1 2 12 12 12 140
152 1 2 12 12 140 141
153 1 2 12 12 141 142
154 1 2 12 12 142 143
155 1 2 12 12 143 144
156 1 2 12 12 144 145
157 1 2 12 12 145 146
158 1 2 12 12 146 147
159 1 2 12 12 147 148
160 1 2 12 12 148 149
161 1 2 12 12 149 150
162 1 2 12 12 150 13
163 1 2 13 13 13 151
164 1 2 13 13 151 152
165 1 2 13 13 152 153
166 1 2 13 13 153 154
167 1 2 13 13 154 155
168 1 2 13 13 155 156
169 1 2 13 13 156 157
170 1 2 13 13 157 158
171 1 2 13 13 158 159
172 1 2 13 13 159 160
173 1 2 13 13 160 161
174 1 2 13 13 161 162
175 1 2 13 13 162 163
176 1 2 13 13 163 164
177 1 2 13 13 164 165
178 1 2 13 13 165 166
179 1 2 13 13 166 167
180 1 2 13 13 167 168
181 1 2 13 13 168 169
182 1 2 13 13 169 170
183 1 2 13 13 170 171
184 1 2 13 13 171 172
185 1 2 13 13 172 173
186 1 2 13 13 173 174
187 1 2 13 13 174 175
188 1 2 13 13 175 176
189 1 2 13 13 176 177
190 1 2 13 13 177 178
191 1 2 13 13 178 179
192 1 2 13 13 179 14
193 1 2 14 14 14 180
194 1 2 14 14 180 181
195 1 2 14 14 181 182
196 1 2 14 14 182 183
197 1 2 14 14 183 184
198 1 2 14 14 184 185
199 1 2 14 14 185 186
200 1 2 14 14 186 187
201 1 2 14 14 187 188
202 1 2 14 14 188 189
203 1 2 14 14 189 190
204 1 2 14 14 190 1
205 1 2 15 15 13 191
206 1 2 15 15 191 192
207 1 2 15 15 192 193
208 1 2 15 15 193 194
209 1 2 15 15 194 195
210 1 2 15 15 195 196
211 1 2 15 15 196 197
212 1 2 15 15 197 198
213 1 2 15 15 198 199
214 1 2 15 15 199 200
215 1 2 15 15 200 201
216 1 2 15 15 201 2
217 1 2 16 16 4 202
218 1 2 16 16 202 203
219 1 2 16 16 203 204
220 1 2 16 16 204 205
221 1 2 16 16 205 206
222 1 2 16 16 206 207
223 1 2 16 16 207 208
224 1 2 16 16 208 209
225 1 2 16 16 209 210
226 1 2 16 16 210 211
227 1 2 16 16 211 212
228 1 2 16 16 212 13
229 1 2 17 17 5 213
230 1 2 17 17 213 214
231 1 2 17 17 214 215
232 1 2 17 17 215 216
233 1 2 17 17 216 217
234 1 2 17 17 217 218
235 1 2 17 17 218 219
236 1 2 17 17 219 220
237 1 2 17 17 220 221
238 1 2 17 17 221 222
239 1 2 17 17 222 223
240 1 2 17 17 223 12
241 1 2 18 18 6 224
242 1 2 18 18 224 225
243 1 2 18 18 225 226
244 1 2 18 18 226 227
245 1 2 18 18 227 228
246 1 2 18 18 228 229
247 1 2 18 18 229 230
248 1 2 18 18 230 231
249 1 2 18 18 231 232
250 1 2 18 18 232 233
251 1 2 18 18 233 234
252 1 2 18 18 234 11
253 1 2 19 19 8 235
254 1 2 19 19 235 236
255 1 2 19 19 236 237
256 1 2 19 19 237 238
257 1 2 19 19 238 239
258 1 2 19 19 239 240
259 1 2 19 19 240 241
260 1 2 19 19 241 242
261 1 2 19 19 242 243
262 1 2 19 19 243 244
263 1 2 19 19 244 245
264 1 2 19 19 245 11
265 3 2 1 1 1 15 246 190
266 3 2 1 1 190 246 247 189
267 3 2 1 1 189 247 248 188
268 3 2 1 1 188 248 249 187
269 3 2 1 1 187 249 250 186
270 3 2 1 1 186 250 251 185
271 3 2 1 1 185 251 252 184
272 3 2 1 1 184 252 253 183
273 3 2 1 1 183 253 254 182
274 3 2 1 1 182 254 255 181
275 3 2 1 1 181 255 256 180
276 3 2 1 1 180 256 179 14
277 3 2 1 1 15 16 257 246
278 3 2 1 1 246 257 258 247
279 3 2 1 1 247 258 259 248
280 3 2 1 1 248 259 260 249
281 3 2 1 1 249 260 261 250
282 3 2 1 1 250 261 262 251
283 3 2 1 1 251 262 263 252
284 3 2 1 1 252 263 264 253
285 3 2 1 1 253 264 265 254
286 3 2 1 1 254 265 266 255
287 3 2 1 1 255 266 267 256
288 3 2 1 1 256 267 178 179
289 3 2 1 1 16 17 268 257
290 3 2 1 1 257 268 269 258
291 3 2 1 1 258 269 270 259
292 3 2 1 1 259 270 271 260
293 3 2 1 1 260 271 272 261
294 3 2 1 1 261 272 273 262
295 3 2 1 1 262 273 274 263
296 3 2 1 1 263 274 275 264
297 3 2 1 1 264 275 276 265
298 3 2 1 1 265 276 277 266
299 3 2 1 1 266 277 278 267
300 3 2 1 1 267 278 177 178
301 3 2 1 1 17 18 279 268
302 3 2 1 1 268 279 280 269
303 3 2 1 1 269 280 281 270
304 3 2 1 1 270 281 282 271
305 3 2 1 1 271 282 283 272
306 3 2 1 1 272 283 284 273
307 3 2 1 1 273 284 285 274
308 3 2 1 1 274 285 286 275
309 3 2 1 1 275 286 287 276
310 3 2 1 1 276 287 288 277
311 3 2 1 1 277 288 289 278
312 3 2 1 1 278 289 176 177
313 3 2 1 1 18 19 290 279
314 3 2 1 1 279 290 291 280
315 3 2 1 1 280 291 292 281
316 3 2 1 1 281 292 293 282
317 3 2 1 1 282 293 294 283
318 3 2 1 1 283 294 295 284
319 3 2 1 1 284 295 296 285
320 3 2 1 1 285 296 297 286
321 3 2 1 1 286 297 298 287
322 3 2 1 1 287 298 299 288
323 3 2 1 1 288 299 300 289
324 3 2 1 1 289 300 175 176
325 3 2 1 1 19 20 301 290
326 3 2 1 1 290 301 302 291
327 3 2 1 1 291 302 303 292
328 3 2 1 1 292 303 304 293
329 3 2 1 1 293 304 305 294
330 3 2 1 1 294 305 306 295
331 3 2 1 1 295 306 307 296
332 3 2 1 1 296 307 308 297
333 3 2 1 1 297 308 309 298
334 3 2 1 1 298 309 310 299
335 3 2 1 1 299 310 311 300
336 3 2 1 1 300 311 174 175
337 3 2 1 1 20 21 312 301
338 3 2 1 1 301 312 313 302
339 3 2 1 1 302 313 314 303
340 3 2 1 1 303 314 315 304
341 3 2 1 1 304 315 316 305
342 3 2 1 1 305 316 317 306
343 3 2 1 1 306 317 318 307
344 3 2 1 1 307 318 319 308
345 3 2 1 1 308 319 320 309
346 3 2 1 1 309 320 321 310
347 3 2 1 1 310 321 322 311
348 3 2 1 1 311 322 173 174
349 3 2 1 1 21 22 323 312
350 3 2 1 1 312 323 324 313
351 3 2 1 1 313 324 325 314
352 3 2 1 1 314 325 326 315
353 3 2 1 1 315 326 327 316
354 3 2 1 1 316 327 328 317
355 3 2 1 1 317 328 329 318
356 3 2 1 1 318 329 330 319
357 3 2 1 1 319 330 331 320
358 3 2 1 1 320 331 332 321
359 3 2 1 1 321 332 333 322
360 3 2 1 1 322 333 172 173
361 3 2 1 1 22 23 334 323
362 3 2 1 1 323 334 335 324
363 3 2 1 1 324 335 336 325
364 3 2 1 1 325 336 337 326
365 3 2 1 1 326 337 338 327
366 3 2 1 1 327 338 339 328
367 3 2 1 1 328 339 340 329
368 3 2 1 1 329 340 341 330
369 3 2 1 1 330 341 342 331
370 3 2 1 1 331 342 343 332
371 3 2 1 1 332 343 344 333
372 3 2 1 1 333 344 171 172
373 3 2 1 1 23 24 345 334
374 3 2 1 1 334 345 346 335
375 3 2 1 1 335 346 347 336
376 3 2 1 1 336 347 348 337
377 3 2 1 1 337 348 349 338
378 3 2 1 1 338 349 350 339
379 3 2 1 1 339 350 351 340
380 3 2 1 1 340 351 352 341
381 3 2 1 1 341 352 353 342
382 3 2 1 1 342 353 354 343
383 3 2 1 1 343 354 355 344
384 3 2 1 1 344 355 170 171
385 3 2 1 1 24 25 356 345
386 3 2 1 1 345 356 357 346
387 3 2 1 1 346 357 358 347
388 3 2 1 1 347 358 359 348
389 3 2 1 1 348 359 360 349
390 3 2 1 1 349 360 361 350
391 3 2 1 1 350 361 362 351
392 3 2 1 1 351 362 363 352
393 3 2 1 1 352 363 364 353
394 3 2 1 1 353 364 365 354
395 3 2 1 1 354 365 366 355
396 3 2 1 1 355 366 169 170
397 3 2 1 1 25 26 367 356
398 3 2 1 1 356 367 368 357
399 3 2 1 1 357 368 369 358
400 3 2 1 1 358 369 370 359
401 3 2 1 1 359 370 371 360
402 3 2 1 1 360 371 372 361
403 3 2 1 1 361 372 373 362
404 3 2 1 1 362 373 374 363
405 3 2 1 1 363 374 375 364
406 3 2 1 1 364 375 376 365
407 3 2 1 1 365 376 377 366
408 3 2 1 1 366 377 168 169
409 3 2 1 1 26 27 378 367
410 3 2 1 1 367 378 379 368
411 3 2 1 1 368 379 380 369
412 3 2 1 1 369 380 381 370
413 3 2 1 1 370 381 382 371
414 3 2 1 1 371 382 383 372
415 3 2 1 1 372 383 384 373
416 3 2 1 1 373 384 385 374
417 3 2 1 1 374 385 386 375
418 3 2 1 1 375 386 387 376
419 3 2 1 1 376 387 388 377
420 3 2 1 1 377 388 167 168
421 3 2 1 1 27 28 389 378
422 3 2 1 1 378 389 390 379
423 3 2 1 1 379 390 391 380
424 3 2 1 1 380 391 392 381
425 3 2 1 1 381 392 393 382
426 3 2 1 1 382 393 394 383
427 3 2 1 1 383 394 395 384
428 3 2 1 1 384 395 396 385
429 3 2 1 1 385 396 397 386
430 3 2 1 1 386 397 398 387
431 3 2 1 1 387 398 399 388
432 3 2 1 1 388 399 166 167
433 3 2 1 1 28 29 400 389
434 3 2 1 1 389 400 401 390
435 3 2 1 1 390 401 402 391
436 3 2 1 1 391 402 403 392
437 3 2 1 1 392 403 404 393
438 3 2 1 1 393 404 405 394
439 3 2 1 1 394 405 406 395
440 3 2 1 1 395 406 407 396
441 3 2 1 1 396 407 408 397
442 3 2 1 1 397 408 409 398
443 3 2 1 1 398 409 410 399
444 3 2 1 1 399 410 165 166
445 3 2 1 1 29 30 411 400
446 3 2 1 1 400 411 412 401
447 3 2 1 1 401 412 413 402
448 3 2 1 1 402 413 414 403
449 3 2 1 1 403 414 415 404
450 3 2 1 1 404 415 416 405
451 3 2 1 1 405 416 417 406
452 3 2 1 1 406 417 418 407
453 3 2 1 1 407 418 419 408
454 3 2 1 1 408 419 420 409
455 3 2 1 1 409 420 421 410
456 3 2 1 1 410 421 164 165
457 3 2 1 1 30 31 422 411
458 3 2 1 1 411 422 423 412
459 3 2 1 1 412 423 424 413
460 3 2 1 1 413 424 425 414
461 3 2 1 1 414 425 426 415
462 3 2 1 1 415 426 427 416
463 3 2 1 1 416 427 428 417
464 3 2 1 1 417 428 429 418
465 3 2 1 1 418 429 430 419
466 3 2 1 1 419 430 431 420
467 3 2 1 1 420 431 432 421
468 3 2 1 1 421 432 163 164
469 3 2 1 1 31 32 433 422
470 3 2 1 1 422 433 434 423
471 3 2 1 1 423 434 435 424
472 3 2 1 1 424 435 436 425
473 3 2 1 1 425 436 437 426
474 3 2 1 1 426 437 438 427
475 3 2 1 1 427 438 439 428
476 3 2 1 1 428 439 440 429
477 3 2 1 1 429 440 441 430
478 3 2 1 1 430 441 442 431
479 3 2 1 1 431 442 443 432
480 3 2 1 1 432 443 162 163
481 3 2 1 1 32 33 444 433
482 3 2 1 1 433 444 445 434
483 3 2 1 1 434 445 446 435
484 3 2 1 1 435 446 447 436
485 3 2 1 1 436 447 448 437
486 3 2 1 1 437 448 449 438
487 3 2 1 1 438 449 450 439
488 3 2 1 1 439 450 451 440
489 3 2 1 1 440 451 452 441
490 3 2 1 1 441 452 453 442
491 3 2 1 1 442 453 454 443
492 3 2 1 1 443 454 161 162
493 3 2 1 1 33 34 455 444
494 3 2 1 1 444 455 456 445
495 3 2 1 1 445 456 457 446
496 3 2 1 1 446 457 458 447
497 3 2 1 1 447 458 459 448
498 3 2 1 1 448 459 460 449
499 3 2 1 1 449 460 461 450
500 3 2 1 1 450 461 462 451
501 3 2 1 1 451 462 463 452
502 3 2 1 1 452 463 464 453
503 3 2 1 1 453 464 465 454
504 3 2 1 1 454 465 160 161
505 3 2 1 1 34 35 466 455
506 3 2 1 1 455 466 467 456
507 3 2 1 1 456 467 468 457
508 3 2 1 1 457 468 469 458
509 3 2 1 1 458 469 470 459
510 3 2 1 1 459 470 471 460
511 3 2 1 1 460 471 472 461
512 3 2 1 1 461 472 473 462
513 3 2 1 1 462 473 474 463
514 3 2 1 1 463 474 475 464
515 3 2 1 1 464 475 476 465
516 3 2 1 1 465 476 159 160
517 3 2 1 1 35 36 477 466
518 3 2 1 1 466 477 478 467
519 3 2 1 1 467 478 479 468
520 3 2 1 1 468 479 480 469
521 3 2 1 1 469 480 481 470
522 3 2 1 1 470 481 482 471
523 3 2 1 1 471 482 483 472
524 3 2 1 1 472 483 484 473
525 3 2 1 1 473 484 485 474
526 3 2 1 1 474 485 486 475
527 3 2 1 1 475 486 487 476
528 3 2 1 1 476 487 158 159
529 3 2 1 1 36 37 488 477
530 3 2 1 1 477 488 489 478
531 3 2 1 1 478 489 490 479
532 3 2 1 1 479 490 491 480
533 3 2 1 1 480 491 492 481
534 3 2 1 1 481 492 493 482
535 3 2 1 1 482 493 494 483
536 3 2 1 1 483 494 495 484
537 3 2 1 1 484 495 496 485
538 3 2 1 1 485 496 497 486
539 3 2 1 1 486 497 498 487
540 3 2 1 1 487 498 157 158
541 3 2 1 1 37 38 499 488
542 3 2 1 1 488 499 500 489
543 3 2 1 1 489 500 501 490
544 3 2 1 1 490 501 502 491
545 3 2 1 1 491 502 503 492
546 3 2 1 1 492 503 504 493
547 3 2 1 1 493 504 505 494
548 3 2 1 1 494 505 506 495
549 3 2 1 1 495 506 507 496
550 3 2 1 1 496 507 508 497
551 3 2 1 1 497 508 509 498
552 3 2 1 1 498 509 156 157
553 3 2 1 1 38 39 510 499
554 3 2 1 1 499 510 511 500
555 3 2 1 1 500 511 512 501
556 3 2 1 1 501 512 513 502
557 3 2 1 1 502 513 514 503
558 3 2 1 1 503 514 515 504
559 3 2 1 1 504 515 516 505
560 3 2 1 1 505 516 517 506
561 3 2 1 1 506 517 518 507
562 3 2 1 1 507 518 519 508
563 3 2 1 1 508 519 520 509
564 3 2 1 1 509 520 155 156
565 3 2 1 1 39 40 521 510
566 3 2 1 1 510 521 522 511
567 3 2 1 1 511 522 523 512
568 3 2 1 1 512 523 524 513
569 3 2 1 1 513 524 525 514
570 3 2 1 1 514 525 526 515
571 3 2 1 1 515 526 527 516
572 3 2 1 1 516 527 528 517
573 3 2 1 1 517 528 529 518
574 3 2 1 1 518 529 530 519
575 3 2 1 1 519 530 531 520
576 3 2 1 1 520 531 154 155
577 3 2 1 1 40 41 532 521
578 3 2 1 1 521 532 533 522
579 3 2 1 1 522 533 534 523
580 3 2 1 1 523 534 535 524
581 3 2 1 1 524 535 536 525
582 3 2 1 1 525 536 537 526
583 3 2 1 1 526 537 538 527
584 3 2 1 1 527 538 539 528
585 3 2 1 1 528 539 540 529
586 3 2 1 1 529 540 541 530
587 3 2 1 1 530 541 542 531
588 3 2 1 1 531 542 153 154
589 3 2 1 1 41 42 543 532
590 3 2 1 1 532 543 544 533
591 3 2 1 1 533 544 545 534
592 3 2 1 1 534 545 546 535
593 3 2 1 1 535 546 547 536
594 3 2 1 1 536 547 548 537
595 3 2 1 1 537 548 549 538
596 3 2 1 1 538 549 550 539
597 3 2 1 1 539 550 551 540
598 3 2 1 1 540 551 552 541
599 3 2 1 1 541 552 553 542
600 3 2 1 1 542 553 152 153
601 3 2 1 1 42 43 554 543
602 3 2 1 1 543 554 555 544
603 3 2 1 1 544 555 556 545
604 3 2 1 1 545 556 557 546
605 3 2 1 1 546 557 558 547
606 3 2 1 1 547 558 559 548
607 3 2 1 1 548 559 560 549
608 3 2 1 1 549 560 561 550
609 3 2 1 1 550 561 562 551
610 3 2 1 1 551 562 563 552
611 3 2 1 1 552 563 564 553
612 3 2 1 1 553 564 151 152
613 3 2 1 1 43 2 201 554
614 3 2 1 1 554 201 200 555
615 3 2 1 1 555 200 199 556
616 3 2 1 1 556 199 198 557
617 3 2 1 1 557 198 197 558
618 3 2 1 1 558 197 196 559
619 3 2 1 1 559 196 195 560
620 3 2 1 1 560 195 194 561
621 3 2 1 1 561 194 193 562
622 3 2 1 1 562 193 192 563
623 3 2 1 1 563 192 191 564
624 3 2 1 1 564 191 13 151
625 3 2 1 2 2 44 565 201
626 3 2 1 2 201 565 566 200
627 3 2 1 2 200 566 567 199
628 3 2 1 2 199 567 568 198
629 3 2 1 2 198 568 569 197
630 3 2 1 2 197 569 570 196
631 3 2 1 2 196 570 571 195
632 3 2 1 2 195 571 572 194
633 3 2 1 2 194 572 573 193
634 3 2 1 2 193 573 574 192
635 3 2 1 2 192 574 575 191
636 3 2 1 2 191 575 212 13
637 3 2 1 2 44 45 576 565
638 3 2 1 2 565 576 577 566
639 3 2 1 2 566 577 578 567
640 3 2 1 2 567 578 579 568
641 3 2 1 2 568 579 580 569
642 3 2 1 2 569 580 581 570
643 3 2 1 2 570 581 582 571
644 3 2 1 2 571 582 583 572
645 3 2 1 2 572 583 584 573
646 3 2 1 2 573 584 585 574
647 3 2 1 2 574 585 586 575
648 3 2 1 2 575 586 211 212
649 3 2 1 2 45 46 587 576
650 3 2 1 2 576 587 588 577
651 3 2 1 2 577 588 589 578
652 3 2 1 2 578 589 590 579
653 3 2 1 2 579 590 591 580
654 3 2 1 2 580 591 592 581
655 3 2 1 2 581 592 593 582
656 3 2 1 2 582 593 594 583
657 3 2 1 2 583 594 595 584
658 3 2 1 2 584 595 596 585
659 3 2 1 2 585 596 597 586
660 3 2 1 2 586 597 210 211
661 3 2 1 2 46 47 598 587
662 3 2 1 2 587 598 599 588
663 3 2 1 2 588 599 600 589
664 3 2 1 2 589 600 601 590
665 3 2 1 2 590 601 602 591
666 3 2 1 2 591 602 603 592
667 3 2 1 2 592 603 604 593
668 3 2 1 2 593 604 605 594
669 3 2 1 2 594 605 606 595
670 3 2 1 2 595 606 607 596
671 3 2 1 2 596 607 608 597
672 3 2 1 2 597 608 209 210
673 3 2 1 2 47 48 609 598
674 3 2 1 2 598 609 610 599
675 3 2 1 2 599 610 611 600
676 3 2 1 2 600 611 612 601
677 3 2 1 2 601 612 613 602
678 3 2 1 2 602 613 614 603
679 3 2 1 2 603 614 615 604
680 3 2 1 2 604 615 616 605
681 3 2 1 2 605 616 617 606
682 3 2 1 2 606 617 618 607
683 3 2 1 2 607 618 619 608
684 3 2 1 2 608 619 208 209
685 3 2 1 2 48 49 620 609
686 3 2 1 2 609 620 621 610
687 3 2 1 2 610 621 622 611
688 3 2 1 2 611 622 623 612
689 3 2 1 2 612 623 624 613
690 3 2 1 2 613 624 625 614
691 3 2 1 2 614 625 626 615
692 3 2 1 2 615 626 627 616
693 3 2 1 2 616 627 628 617
694 3 2 1 2 617 628 629 618
695 3 2 1 2 618 629 630 619
696 3 2 1 2 619 630 207 208
697 3 2 1 2 49 50 631 620
698 3 2 1 2 620 631 632 621
699 3 2 1 2 621 632 633 622
700 3 2 1 2 622 633 634 623
701 3 2 1 2 623 634 635 624
702 3 2 1 2 624 635 636 625
703 3 2 1 2 625 636 637 626
704 3 2 1 2 626 637 638 627
705 3 2 1 2 627 638 639 628
706 3 2 1 2 628 639 640 629
707 3 2 1 2 629 640 641 630
708 3 2 1 2 630 641 206 207
709 3 2 1 2 50 51 642 631
710 3 2 1 2 631 642 643 632
711 3 2 1 2 632 643 644 633
712 3 2 1 2 633 644 645 634
713 3 2 1 2 634 645 646 635
714 3 2 1 2 635 646 647 636
715 3 2 1 2 636 647 648 637
716 3 2 1 2 637 648 649 638
717 3 2 1 2 638 649 650 639
718 3 2 1 2 639 650 651 640
719 3 2 1 2 640 651 652 641
720 3 2 1 2 641 652 205 206
721 3 2 1 2 51 52 653 642
722 3 2 1 2 642 653 654 643
723 3 2 1 2 643 654 655 644
724 3 2 1 2 644 655 656 645
725 3 2 1 2 645 656 657 646
726 3 2 1 2 646 657 658 647
727 3 2 1 2 647 658 659 648
728 3 2 1 2 648 659 660 649
729 3 2 1 2 649 660 661 650
730 3 2 1 2 650 661 662 651
731 3 2 1 2 651 662 663 652
732 3 2 1 2 652 663 204 205
733 3 2 1 2 52 53 664 653
734 3 2 1 2 653 664 665 654
735 3 2 1 2 654 665 666 655
736 3 2 1 2 655 666 667 656
737 3 2 1 2 656 667 668 657
738 3 2 1 2 657 668 669 658
739 3 2 1 2 658 669 670 659
740 3 2 1 2 659 670 671 660
741 3 2 1 2 660 671 672 661
742 3 2 1 2 661 672 673 662
743 3 2 1 2 662 673 674 663
744 3 2 1 2 663 674 203 204
745 3 2 1 2 53 54 675 664
746 3 2 1 2 664 675 676 665
747 3 2 1 2 665 676 677 666
748 3 2 1 2 666 677 678 667
749 3 2 1 2 667 678 679 668
750 3 2 1 2 668 679 680 669
751 3 2 1 2 669 680 681 670
752 3 2 1 2 670 681 682 671
753 3 2 1 2 671 682 683 672
754 3 2 1 2 672 683 684 673
755 3 2 1 2 673 684 685 674
756 3 2 1 2 674 685 202 203
757 3 2 1 2 54 3 55 675
758 3 2 1 2 675 55 56 676
759 3 2 1 2 676 56 57 677
760 3 2 1 2 677 57 58 678
761 3 2 1 2 678 58 59 679
762 3 2 1 2 679 59 60 680
763 3 2 1 2 680 60 61 681
764 3 2 1 2 681 61 62 682
765 3 2 1 2 682 62 63 683
766 3 2 1 2 683 63 64 684
767 3 2 1 2 684 64 65 685
768 3 2 1 2 685 65 4 202
769 3 2 1 3 4 66 686 202
770 3 2 1 3 202 686 687 203
771 3 2 1 3 203 687 688 204
772 3 2 1 3 204 688 689 205
773 3 2 1 3 205 689 690 206
774 3 2 1 3 206 690 691 207
775 3 2 1 3 207 691 692 208
776 3 2 1 3 208 692 693 209
777 3 2 1 3 209 693 694 210
778 3 2 1 3 210 694 695 211
779 3 2 1 3 211 695 696 212
780 3 2 1 3 212 696 150 13
781 3 2 1 3 66 67 697 686
782 3 2 1 3 686 697 698 687
783 3 2 1 3 687 698 699 688
784 3 2 1 3 688 699 700 689
785 3 2 1 3 689 700 701 690
786 3 2 1 3 690 701 702 691
787 3 2 1 3 691 702 703 692
788 3 2 1 3 692 703 704 693
789 3 2 1 3 693 704 705 694
790 3 2 1 3 694 705 706 695
791 3 2 1 3 695 706 707 696
792 3 2 1 3 696 707 149 150
793 3 2 1 3 67 68 708 697
794 3 2 1 3 697 708 709 698
795 3 2 1 3 698 709 710 699
796 3 2 1 3 699 710 711 700
797 3 2 1 3 700 711 712 701
798 3 2 1 3 701 712 713 702
799 3 2 1 3 702 713 714 703
800 3 2 1 3 703 714 715 704
801 3 2 1 3 704 715 716 705
802 3 2 1 3 705 716 717 706
803 3 2 1 3 706 717 718 707
804 3 2 1 3 707 718 148 149
805 3 2 1 3 68 69 719 708
806 3 2 1 3 708 719 720 709
807 3 2 1 3 709 720 721 710
808 3 2 1 3 710 721 722 711
809 3 2 1 3 711 722 723 712
810 3 2 1 3 712 723 724 713
811 3 2 1 3 713 724 725 714
812 3 2 1 3 714 725 726 715
813 3 2 1 3 715 726 727 716
814 3 2 1 3 716 727 728 717
815 3 2 1 3 717 728 729 718
816 3 2 1 3 718 729 147 148
817 3 2 1 3 69 70 730 719
818 3 2 1 3 719 730 731 720
819 3 2 1 3 720 731 732 721
820 3 2 1 3 721 732 733 722
821 3 2 1 3 722 733 734 723
822 3 2 1 3 723 734 735 724
823 3 2 1 3 724 735 736 725
824 3 2 1 3 725 736 737 726
825 3 2 1 3 726 737 738 727
826 3 2 1 3 727 738 739 728
827 3 2 1 3 728 739 740 729
828 3 2 1 3 729 740 146 147
829 3 2 1 3 70 71 741 730
830 3 2 1 3 730 741 742 731
831 3 2 1 3 731 742 743 732
832 3 2 1 3 732 743 744 733
833 3 2 1 3 733 744 745 734
834 3 2 1 3 734 745 746 735
835 3 2 1 3 735 746 747 736
836 3 2 1 3 736 747 748 737
837 3 2 1 3 737 748 749 738
838 3 2 1 3 738 749 750 739
839 3 2 1 3 739 750 751 740
840 3 2 1 3 740 751 145 146
841 3 2 1 3 71 72 752 741
842 3 2 1 3 741 752 753 742
843 3 2 1 3 742 753 754 743
844 3 2 1 3 743 754 755 744
845 3 2 1 3 744 755 756 745
846 3 2 1 3 745 756 757 746
847 3 2 1 3 746 757 758 747
848 3 2 1 3 747 758 759 748
849 3 2 1 3 748 759 760 749
850 3 2 1 3 749 760 761 750
851 3 2 1 3 750 761 762 751
852 3 2 1 3 751 762 144 145
853 3 2 1 3 72 73 763 752
854 3 2 1 3 752 763 764 753
855 3 2 1 3 753 764 765 754
856 3 2 1 3 754 765 766 755
857 3 2 1 3 755 766 767 756
858 3 2 1 3 756 767 768 757
859 3 2 1 3 757 768 769 758
860 3 2 1 3 758 769 770 759
861 3 2 1 3 759 770 771 760
862 3 2 1 3 760 771 772 761
863 3 2 1 3 761 772 773 762
864 3 2 1 3 762 773 143 144
865 3 2 1 3 73 74 774 763
866 3 2 1 3 763 774 775 764
867 3 2 1 3 764 775 776 765
868 3 2 1 3 765 776 777 766
869 3 2 1 3 766 777 778 767
870 3 2 1 3 767 778 779 768
871 3 2 1 3 768 779 780 769
872 3 2 1 3 769 780 781 770
873 3 2 1 3 770 781 782 771
874 3 2 1 3 771 782 783 772
875 3 2 1 3 772 783 784 773
876 3 2 1 3 773 784 142 143
877 3 2 1 3 74 75 785 774
878 3 2 1 3 774 785 786 775
879 3 2 1 3 775 786 787 776
880 3 2 1 3 776 787 788 777
881 3 2 1 3 777 788 789 778
882 3 2 1 3 778 789 790 779
883 3 2 1 3 779 790 791 780
884 3 2 1 3 780 791 792 781
885 3 2 1 3 781 792 793 782
886 3 2 1 3 782 793 794 783
887 3 2 1 3 783 794 795 784
888 3 2 1 3 784 795 141 142
889 3 2 1 3 75 76 796 785
890 3 2 1 3 785 796 797 786
891 3 2 1 3 786 797 798 787
892 3 2 1 3 787 798 799 788
893 3 2 1 3 788 799 800 789
894 3 2 1 3 789 800 801 790
895 3 2 1 3 790 801 802 791
896 3 2 1 3 791 802 803 792
897 3 2 1 3 792 803 804 793
898 3 2 1 3 793 804 805 794
899 3 2 1 3 794 805 806 795
900 3 2 1 3 795 806 140 141
901 3 2 1 3 76 5 213 796
902 3 2 1 3 796 213 214 797
903 3 2 1 3 797 214 215 798
904 3 2 1 3 798 215 216 799
905 3 2 1 3 799 216 217 800
906 3 2 1 3 800 217 218 801
907 3 2 1 3 801 218 219 802
908 3 2 1 3 802 219 220 803
909 3 2 1 3 803 220 221 804
910 3 2 1 3 804 221 222 805
911 3 2 1 3 805 222 223 806
912 3 2 1 3 806 223 12 140
913 3 2 1 4 5 77 807 213
914 3 2 1 4 213 807 808 214
915 3 2 1 4 214 808 809 215
916 3 2 1 4 215 809 810 216
917 3 2 1 4 216 810 811 217
918 3 2 1 4 217 811 812 218
919 3 2 1 4 218 812 813 219
920 3 2 1 4 219 813 814 220
921 3 2 1 4 220 814 815 221
922 3 2 1 4 221 815 816 222
923 3 2 1 4 222 816 817 223
924 3 2 1 4 223 817 139 12
925 3 2 1 4 77 78 818 807
926 3 2 1 4 807 818 819 808
927 3 2 1 4 808 819 820 809
928 3 2 1 4 809 820 821 810
929 3 2 1 4 810 821 822 811
930 3 2 1 4 811 822 823 812
931 3 2 1 4 812 823 824 813
932 3 2 1 4 813 824 825 814
933 3 2 1 4 814 825 826 815
934 3 2 1 4 815 826 827 816
935 3 2 1 4 816 827 828 817
936 3 2 1 4 817 828 138 139
937 3 2 1 4 78 79 829 818
938 3 2 1 4 818 829 830 819
939 3 2 1 4 819 830 831 820
940 3 2 1 4 820 831 832 821
941 3 2 1 4 821 832 833 822
942 3 2 1 4 822 833 834 823
943 3 2 1 4 823 834 835 824
944 3 2 1 4 824 835 836 825
945 3 2 1 4 825 836 837 826
946 3 2 1 4 826 837 838 827
947 3 2 1 4 827 838 839 828
948 3 2 1 4 828 839 137 138
949 3 2 1 4 79 80 840 829
950 3 2 1 4 829 840 841 830
951 3 2 1 4 830 841 842 831
952 3 2 1 4 831 842 843 832
953 3 2 1 4 832 843 844 833
954 3 2 1 4 833 844 845 834
955 3 2 1 4 834 845 846 835
956 3 2 1 4 835 846 847 836
957 3 2 1 4 836 847 848 837
958 3 2 1 4 837 848 849 838
959 3 2 1 4 838 849 850 839
960 3 2 1 4 839 850 136 137
961 3 2 1 4 80 81 851 840
962 3 2 1 4 840 851 852 841
963 3 2 1 4 841 852 853 842
964 3 2 1 4 842 853 854 843
965 3 2 1 4 843 854 855 844
966 3 2 1 4 844 855 856 845
967 3 2 1 4 845 856 857 846
968 3 2 1 4 846 857 858 847
969 3 2 1 4 847 858 859 848
970 3 2 1 4 848 859 860 849
971 3 2 1 4 849 860 861 850
972 3 2 1 4 850 861 135 136
973 3 2 1 4 81 82 862 851
974 3 2 1 4 851 862 863 852
975 3 2 1 4 852 863 864 853
976 3 2 1 4 853 864 865 854
977 3 2 1 4 854 865 866 855
978 3 2 1 4 855 866 867 856
979 3 2 1 4 856 867 868 857
980 3 2 1 4 857 868 869 858
981 3 2 1 4 858 869 870 859
982 3 2 1 4 859 870 871 860
983 3 2 1 4 860 871 872 861
984 3 2 1 4 861 872 134 135
985 3 2 1 4 82 83 873 862
986 3 2 1 4 862 873 874 863
987 3 2 1 4 863 874 875 864
988 3 2 1 4 864 875 876 865
989 3 2 1 4 865 876 877 866
990 3 2 1 4 866 877 878 867
991 3 2 1 4 867 878 879 868
992 3 2 1 4 868 879 880 869
993 3 2 1 4 869 880 881 870
994 3 2 1 4 870 881 882 871
995 3 2 1 4 871 882 883 872
996 3 2 1 4 872 883 133 134
997 3 2 1 4 83 84 884 873
998 3 2 1 4 873 884 885 874
999 3 2 1 4 874 885 886 875
1000 3 2 1 4 875 886 887 876
1001 3 2 1 4 876 887 888 877
1002 3 2 1 4 877 888 889 878
1003 3 2 1 4 878 889 890 879
1004 3 2 1 4 879 890 891 880
1005 3 2 1 4 880 891 892 881
1006 3 2 1 4 881 892 893 882
1007 3 2 1 4 882 893 894 883
1008 3 2 1 4 883 894 132 133
1009 3 2 1 4 84 85 895 884
1010 3 2 1 4 884 895 896 885
1011 3 2 1 4 885 896 897 886
1012 3 2 1 4 886 897 898 887
1013 3 2 1 4 887 898 899 888
1014 3 2 1 4 888 899 900 889
1015 3 2 1 4 889 900 901 890
1016 3 2 1 4 890 901 902 891
1017 3 2 1 4 891 902 903 892
1018 3 2 1 4 892 903 904 893
1019 3 2 1 4 893 904 905 894
1020 3 2 1 4 894 905 131 132
1021 3 2 1 4 85 86 906 895
1022 3 2 1 4 895 906 907 896
1023 3 2 1 4 896 907 908 897
1024 3 2 1 4 897 908 909 898
1025 3 2 1 4 898 909 910 899
1026 3 2 1 4 899 910 911 900
1027 3 2 1 4 900 911 912 901
1028 3 2 1 4 901 912 913 902
1029 3 2 1 4 902 913 914 903
1030 3 2 1 4 903 914 915 904
1031 3 2 1 4 904 915 916 905
1032 3 2 1 4 905 916 130 131
1033 3 2 1 4 86 87 917 906
1034 3 2 1 4 906 917 918 907
1035 3 2 1 4 907 918 919 908
1036 3 2 1 4 908 919 920 909
1037 3 2 1 4 909 920 921 910
1038 3 2 1 4 910 921 922 911
1039 3 2 1 4 911 922 923 912
1040 3 2 1 4 912 923 924 913
1041 3 2 1 4 913 924 925 914
1042 3 2 1 4 914 925 926 915
1043 3 2 1 4 915 926 927 916
1044 3 2 1 4 916 927 129 130
1045 3 2 1 4 87 6 224 917
1046 3 2 1 4 917 224 225 918
1047 3 2 1 4 918 225 226 919
1048 3 2 1 4 919 226 227 920
1049 3 2 1 4 920 227 228 921
1050 3 2 1 4 921 228 229 922
1051 3 2 1 4 922 229 230 923
1052 3 2 1 4 923 230 231 924
1053 3 2 1 4 924 231 232 925
1054 3 2 1 4 925 232 233 926
1055 3 2 1 4 926 233 234 927
1056 3 2 1 4 927 234 11 129
1057 3 2 1 5 7 99 928 98
1058 3 2 1 5 98 928 929 97
1059 3 2 1 5 97 929 930 96
1060 3 2 1 5 96 930 931 95
1061 3 2 1 5 95 931 932 94
1062 3 2 1 5 94 932 933 93
1063 3 2 1 5 93 933 934 92
1064 3 2 1 5 92 934 935 91
1065 3 2 1 5 91 935 936 90
1066 3 2 1 5 90 936 937 89
1067 3 2 1 5 89 937 938 88
1068 3 2 1 5 88 938 224 6
1069 3 2 1 5 99 100 939 928
1070 3 2 1 5 928 939 940 929
1071 3 2 1 5 929 940 941 930
1072 3 2 1 5 930 941 942 931
1073 3 2 1 5 931 942 943 932
1074 3 2 1 5 932 943 944 933
1075 3 2 1 5 933 944 945 934
1076 3 2 1 5 934 945 946 935
1077 3 2 1 5 935 946 947 936
1078 3 2 1 5 936 947 948 937
1079 3 2 1 5 937 948 949 938
1080 3 2 1 5 938 949 225 224
1081 3 2 1 5 100 101 950 939
1082 3 2 1 5 939 950 951 940
1083 3 2 1 5 940 951 952 941
1084 3 2 1 5 941 952 953 942
1085 3 2 1 5 942 953 954 943
1086 3 2 1 5 943 954 955 944
1087 3 2 1 5 944 955 956 945
1088 3 2 1 5 945 956 957 946
1089 3 2 1 5 946 957 958 947
1090 3 2 1 5 947 958 959 948
1091 3 2 1 5 948 959 960 949
1092 3 2 1 5 949 960 226 225
1093 3 2 1 5 101 102 961 950
1094 3 2 1 5 950 961 962 951
1095 3 2 1 5 951 962 963 952
1096 3 2 1 5 952 963 964 953
1097 3 2 1 5 953 964 965 954
1098 3 2 1 5 954 965 966 955
1099 3 2 1 5 955 966 967 956
1100 3 2 1 5 956 967 968 957
1101 3 2 1 5 957 968 969 958
1102 3 2 1 5 958 969 970 959
1103 3 2 1 5 959 970 971 960
1104 3 2 1 5 960 971 227 226
1105 3 2 1 5 102 103 972 961
1106 3 2 1 5 961 972 973 962
1107 3 2 1 5 962 973 974 963
1108 3 2 1 5 963 974 975 964
1109 3 2 1 5 964 975 976 965
1110 3 2 1 5 965 976 977 966
1111 3 2 1 5 966 977 978 967
1112 3 2 1 5 967 978 979 968
1113 3 2 1 5 968 979 980 969
1114 3 2 1 5 969 980 981 970
1115 3 2 1 5 970 981 982 971
1116 3 2 1 5 971 982 228 227
1117 3 2 1 5 103 104 983 972
1118 3 2 1 5 972 983 984 973
1119 3 2 1 5 973 984 985 974
1120 3 2 1 5 974 985 986 975
1121 3 2 1 5 975 986 987 976
1122 3 2 1 5 976 987 988 977
1123 3 2 1 5 977 988 989 978
1124 3 2 1 5 978 989 990 979
1125 3 2 1 5 979 990 991 980
1126 3 2 1 5 980 991 992 981
1127 3 2 1 5 981 992 993 982
1128 3 2 1 5 982 993 229 228
1129 3 2 1 5 104 105 994 983
1130 3 2 1 5 983 994 995 984
1131 3 2 1 5 984 995 996 985
1132 3 2 1 5 985 996 997 986
1133 3 2 1 5 986 997 998 987
1134 3 2 1 5 987 998 999 988
1135 3 2 1 5 988 999 1000 989
1136 3 2 1 5 989 1000 1001 990
1137 3 2 1 5 990 1001 1002 991
1138 3 2 1 5 991 1002 1003 992
1139 3 2 1 5 992 1003 1004 993
1140 3 2 1 5 993 1004 230 229
1141 3 2 1 5 105 106 1005 994
1142 3 2 1 5 994 1005 1006 995
1143 3 2 1 5 995 1006 1007 996
1144 3 2 1 5 996 1007 1008 997
1145 3 2 1 5 997 1008 1009 998
1146 3 2 1 5 998 1009 1010 999
1147 3 2 1 5 999 1010 1011 1000
1148 3 2 1 5 1000 1011 1012 1001
1149 3 2 1 5 1001 1012 1013 1002
1150 3 2 1 5 1002 1013 1014 1003
1151 3 2 1 5 1003 1014 1015 1004
1152 3 2 1 5 1004 1015 231 230
1153 3 2 1 5 106 107 1016 1005
1154 3 2 1 5 1005 1016 1017 1006
1155 3 2 1 5 1006 1017 1018 1007
1156 3 2 1 5 1007 1018 1019 1008
1157 3 2 1 5 1008 1019 1020 1009
1158 3 2 1 5 1009 1020 1021 1010
1159 3 2 1 5 1010 1021 1022 1011
1160 3 2 1 5 1011 1022 1023 1012
1161 3 2 1 5 1012 1023 1024 1013
1162 3 2 1 5 1013 1024 1025 1014
1163 3 2 1 5 1014 1025 1026 1015
1164 3 2 1 5 1015 1026 232 231
1165 3 2 1 5 107 108 1027 1016
1166 3 2 1 5 1016 1027 1028 1017
1167 3 2 1 5 1017 1028 1029 1018
1168 3 2 1 5 1018 1029 1030 1019
1169 3 2 1 5 1019 1030 1031 1020
1170 3 2 1 5 1020 1031 1032 1021
1171 3 2 1 5 1021 1032 1033 1022
1172 3 2 1 5 1022 1033 1034 1023
1173 3 2 1 5 1023 1034 1035 1024
1174 3 2 1 5 1024 1035 1036 1025
1175 3 2 1 5 1025 1036 1037 1026
1176 3 2 1 5 1026 1037 233 232
1177 3 2 1 5 108 109 1038 1027
1178 3 2 1 5 1027 1038 1039 1028
1179 3 2 1 5 1028 1039 1040 1029
1180 3 2 1 5 1029 1040 1041 1030
1181 3 2 1 5 1030 1041 1042 1031
1182 3 2 1 5 1031 1042 1043 1032
1183 3 2 1 5 1032 1043 1044 1033
1184 3 2 1 5 1033 1044 1045 1034
1185 3 2 1 5 1034 1045 1046 1035
1186 3 2 1 5 1035 1046 1047 1036
1187 3 2 1 5 1036 1047 1048 1037
1188 3 2 1 5 1037 1048 234 233
1189 3 2 1 5 109 8 235 1038
1190 3 2 1 5 1038 235 236 1039
1191 3 2 1 5 1039 236 237 1040
1192 3 2 1 5 1040 237 238 1041
1193 3 2 1 5 1041 238 239 1042
1194 3 2 1 5 1042 239 240 1043
1195 3 2 1 5 1043 240 241 1044
1196 3 2 1 5 1044 241 242 1045
1197 3 2 1 5 1045 242 243 1046
1198 3 2 1 5 1046 243 244 1047
1199 3 2 1 5 1047 244 245 1048
1200 3 2 1 5 1048 245 11 234
1201 3 2 1 6 8 110 1049 235
1202 3 2 1 6 235 1049 1050 236
1203 3 2 1 6 236 1050 1051 237
1204 3 2 1 6 237 1051 1052 238
1205 3 2 1 6 238 1052 1053 239
1206 3 2 1 6 239 1053 1054 240
1207 3 2 1 6 240 1054 1055 241
1208 3 2 1 6 241 1055 1056 242
1209 3 2 1 6 242 1056 1057 243
1210 3 2 1 6 243 1057 1058 244
1211 3 2 1 6 244 1058 1059 245
1212 3 2 1 6 245 1059 128 11
1213 3 2 1 6 110 111 1060 1049
1214 3 2 1 6 1049 1060 1061 1050
1215 3 2 1 6 1050 1061 1062 1051
1216 3 2 1 6 1051 1062 1063 1052
1217 3 2 1 6 1052 1063 1064 1053
1218 3 2 1 6 1053 1064 1065 1054
1219 3 2 1 6 1054 1065 1066 1055
1220 3 2 1 6 1055 1066 1067 1056
1221 3 2 1 6 1056 1067 1068 1057
1222 3 2 1 6 1057 1068 1069 1058
1223 3 2 1 6 1058 1069 1070 1059
1224 3 2 1 6 1059 1070 127 128
1225 3 2 1 6 111 112 1071 1060
1226 3 2 1 6 1060 1071 1072 1061
1227 3 2 1 6 1061 1072 1073 1062
1228 3 2 1 6 1062 1073 1074 1063
1229 3 2 1 6 1063 1074 1075 1064
1230 3 2 1 6 1064 1075 1076 1065
1231 3 2 1 6 1065 1076 1077 1066
1232 3 2 1 6 1066 1077 1078 1067
1233 3 2 1 6 1067 1078 1079 1068
1234 3 2 1 6 1068 1079 1080 1069
1235 3 2 1 6 1069 1080 1081 1070
1236 3 2 1 6 1070 1081 126 127
1237 3 2 1 6 112 113 1082 1071
1238 3 2 1 6 1071 1082 1083 1072
1239 3 2 1 6 1072 1083 1084 1073
1240 3 2 1 6 1073 1084 1085 1074
1241 3 2 1 6 1074 1085 1086 1075
1242 3 2 1 6 1075 1086 1087 1076
1243 3 2 1 6 1076 1087 1088 1077
1244 3 2 1 6 1077 1088 1089 1078
1245 3 2 1 6 1078 1089 1090 1079
1246 3 2 1 6 1079 1090 1091 1080
1247 3 2 1 6 1080 1091 1092 1081
1248 3 2 1 6 1081 1092 125 126
1249 3 2 1 6 113 9 114 1082
1250 3 2 1 6 1082 114 115 1083
1251 3 2 1 6 1083 115 116 1084
1252 3 2 1 6 1084 116 117 1085
1253 3 2 1 6 1085 117 118 1086
1254 3 2 1 6 1086 118 119 1087
1255 3 2 1 6 1087 119 120 1088
1256 3 2 1 6 1088 120 121 1089
1257 3 2 1 6 1089 121 122 1090
1258 3 2 1 6 1090 122 123 1091
1259 3 2 1 6 1091 123 124 1092
1260 3 2 1 6 1092 124 10 125
$EndElements
