$MeshFormat
2.2 0 8
$EndMeshFormat
$Nodes
266
1 0 0 3
2 0 0 0
3 0 2 3
4 0 2 0
5 1 0 3
6 1 0 0
7 1 2 3
8 1 2 0
9 0 0 0.3333333333333334
10 0 0 0.6666666666666667
11 0 0 1
12 0 0 1.333333333333333
13 0 0 1.666666666666667
14 0 0 2
15 0 0 2.333333333333333
16 0 0 2.666666666666667
17 0 0.3333333333333333 3
18 0 0.6666666666666666 3
19 0 1 3
20 0 1.333333333333333 3
21 0 1.666666666666667 3
22 0 2 0.3333333333333334
23 0 2 0.6666666666666667
24 0 2 1
25 0 2 1.333333333333333
26 0 2 1.666666666666667
27 0 2 2
28 0 2 2.333333333333333
29 0 2 2.666666666666667
30 0 0.3333333333333333 0
31 0 0.6666666666666666 0
32 0 1 0
33 0 1.333333333333333 0
34 0 1.666666666666667 0
35 1 0 0.3333333333333334
36 1 0 0.6666666666666667
37 1 0 1
38 1 0 1.333333333333333
39 1 0 1.666666666666667
40 1 0 2
41 1 0 2.333333333333333
42 1 0 2.666666666666667
43 1 0.3333333333333333 3
44 1 0.6666666666666666 3
45 1 1 3
46 1 1.333333333333333 3
47 1 1.666666666666667 3
48 1 2 0.3333333333333334
49 1 2 0.6666666666666667
50 1 2 1
51 1 2 1.333333333333333
52 1 2 1.666666666666667
53 1 2 2
54 1 2 2.333333333333333
55 1 2 2.666666666666667
56 1 0.3333333333333333 0
57 1 0.6666666666666666 0
58 1 1 0
59 1 1.333333333333333 0
60 1 1.666666666666667 0
61 0.3333333333333333 0 0
62 0.6666666666666666 0 0
63 0.3333333333333333 0 3
64 0.6666666666666666 0 3
65 0.3333333333333333 2 0
66 0.6666666666666666 2 0
67 0.3333333333333333 2 3
68 0.6666666666666666 2 3
69 0 1 1.833333333333333
70 0 0.9395408618121834 0.9358463608655567
71 0 0.6260781916310412 2.359686564563329
72 0 1.371984049264061 2.386930034995515
73 0 1.360724550252325 1.285987185423005
74 0 1.427823353914322 0.5346331404570028
75 0 0.5873015873015873 1.408730158730159
76 0 0.5297619047619048 0.5297619047619048
77 0 1.513888888888889 1.833333333333333
78 0 0.4834943910079006 1.908669417172108
79 0 0.9776380539839697 0.4537327616690242
80 0 0.4496530633677254 1.013029767223631
81 0 1 2.578502415458937
82 0 1.578458033541527 0.9813198176902271
83 0 0.9687202901419952 1.462887765971401
84 0 1.626633986928105 2.626633986928105
85 0 0.4279197496917712 2.621096779573542
86 0 0.9963053891434381 2.203119948345241
87 0 1.671034989335117 2.142102654076179
88 0 1.667406122157271 1.538538053574094
89 0 0.3133608480913028 2.174493689287327
90 0 1.655317644032922 0.3446823559670782
91 0 1.242886229967576 1.021547097300616
92 0 0.3314896315395328 1.58807464838107
93 0 1.274868086058839 2.036631774040673
94 0 1.256944444444444 1.637174265665221
95 0 0.6972140966544302 2.697951209158275
96 0 1.30608927475644 2.693895574133087
97 0 1.260427878403912 0.3091338362000706
98 0 0.2736888564417691 1.268633581533638
99 0 0.7217982805910859 1.690869702650527
100 0 0.3099629195940671 0.3099629195940671
101 0 1.697357395884768 0.6906715065569693
102 0 0.7791525461899516 1.148506188769944
103 0 0.7205553203932653 0.296497174826082
104 0 1.140787352182293 0.6937720434124899
105 0 0.3011879273079111 0.7435719784341512
106 0 0.7505109528910181 2.010252881669538
107 0 1.724095977899402 1.2296111708666
108 0 0.8073016941087215 0.6474113385147557
109 0 1.781598267606769 1.834060844838103
110 0 0.2256689741277472 1.867580884301435
111 0 1.755373731593874 2.406223017582886
112 0 1.058204895672806 1.170954919666105
113 0 0.2354131525467674 2.445955950951088
114 0 0.6463875903196865 0.8493472459481684
115 0 1.417462473098097 0.7843887210834611
116 0 1.777525700662347 2.811101311796662
117 0 0.2266092500081975 2.778444034165227
118 0 0.5433610959053157 2.113275638173076
119 0 0.5112632819532771 0.1813904636982293
120 0 1.5 2.829040989116289
121 0 0.5 2.829040989116288
122 0 0.2281825503327766 0.5166593605580246
123 0 1.46971774153893 0.1953284541377354
124 0 1.825316194149786 0.1746838058502138
125 1 0.9957566351939097 1.848126768459506
126 1 1.060459138187816 0.9358463608655566
127 1 0.6175377524008925 2.388169066300658
128 1 1.37390859230924 2.398649268108146
129 1 0.639275449747675 1.285987185423005
130 1 0.5721766460856776 0.5346331404570028
131 1 1.412698412698412 1.408730158730159
132 1 1.470238095238095 0.5297619047619048
133 1 0.486111111111111 1.833333333333333
134 1 1.517454458890639 1.891992076840703
135 1 1.02236194601603 0.453732761669024
136 1 1.550346936632275 1.013029767223631
137 1 1 2.578502415458936
138 1 0.4215419664584724 0.981319817690227
139 1 1.030673514885706 1.465001113846569
140 1 1.572078362299698 2.626662880079945
141 1 0.3733660130718954 2.626633986928105
142 1 0.9916115947942241 2.222603389573684
143 1 0.3260174721752604 2.142825121309499
144 1 0.3325938778427293 1.538538053574094
145 1 1.673110222220084 2.171025660579937
146 1 0.3446823559670781 0.3446823559670781
147 1 0.757113770032424 1.021547097300616
148 1 1.668645918445973 1.585692171190869
149 1 0.7313715002797259 1.64602587236536
150 1 0.6934561317436705 2.693949329135566
151 1 1.303805891028167 2.694405263076256
152 1 0.7395721215960875 0.3091338362000706
153 1 1.726338253555332 1.268157086095599
154 1 1.257856644794864 2.066087685964501
155 1 1.278201719408914 1.690869702650527
156 1 0.7046099440664386 2.056085133150358
157 1 1.690037080405933 0.3099629195940673
158 1 0.3026426041152318 0.6906715065569686
159 1 1.220746421314665 1.148858413415806
160 1 1.279444679606735 0.2964971748260818
161 1 0.8592126478177073 0.6937720434124897
162 1 1.698812072692089 0.7435719784341513
163 1 0.2759040221005977 1.2296111708666
164 1 1.192698305891279 0.6474113385147557
165 1 0.2182482787026017 1.834098457667826
166 1 1.771842119911339 1.863075315055635
167 1 0.2446262684061267 2.406223017582885
168 1 0.9416536588336571 1.171448034170311
169 1 1.763999243600808 2.447737360404781
170 1 1.353600382002291 0.8493891774536282
171 1 0.5825375269019026 0.7843887210834608
172 1 0.2224742993376534 2.811101311796662
173 1 1.780151112529212 2.784242683453684
174 1 1.488736718046722 0.1813904636982295
175 1 1.5 2.829040989116289
176 1 0.5 2.829040989116289
177 1 1.771817449667223 0.5166593605580246
178 1 0.5302822584610704 0.1953284541377357
179 1 0.1746838058502139 0.1746838058502139
180 0.5 0 2.14924150730251
181 0.5000000000000001 0 0.5
182 0.4965277777777777 0 1.134803921568627
183 0.5 0 1.666666666666667
184 0.5 0 2.65435507536348
185 0.6666666666666665 0 0.8333333333333335
186 0.3124999999999999 0 0.8333333333333335
187 0.6944444444444445 0 1.916666666666667
188 0.3055555555555554 0 1.916666666666667
189 0.3084525476857409 0 1.42980155024973
190 0.6920801605384621 0 1.42700607939969
191 0.6894698620188815 0 2.438704135387253
192 0.3082321817615934 0 2.446614249966385
193 0.2916666666666667 0 0.2916666666666667
194 0.7083333333333334 0 0.2916666666666666
195 0.2255754307831699 0 1.152288342952218
196 0.7736928104575163 0 1.154411764705882
197 0.2508201012831436 0 2.742561932761424
198 0.7490124091964827 0 2.74198539379793
199 0.2261904761904762 0 0.5327380952380952
200 0.7604166666666669 0 0.5520833333333331
201 0.2137807503953961 0 2.158666679839289
202 0.7821506380329912 0 2.161913526643546
203 0.2703585898645171 0 1.670775850022549
204 0.7297365366040904 0 1.670276658799327
205 0.5 0 0.2040816326530612
206 0.5 2 2.14924150730251
207 0.5000000000000001 2 0.4999999999999999
208 0.4965277777777777 2 1.134803921568627
209 0.5 2 1.666666666666667
210 0.5 2 2.65435507536348
211 0.6666666666666665 2 0.8333333333333335
212 0.3124999999999999 2 0.8333333333333335
213 0.6944444444444445 2 1.916666666666667
214 0.3055555555555554 2 1.916666666666667
215 0.3084525476857409 2 1.42980155024973
216 0.6920801605384621 2 1.42700607939969
217 0.6894698620188815 2 2.438704135387253
218 0.3082321817615934 2 2.446614249966385
219 0.7083333333333335 2 0.2916666666666666
220 0.2916666666666666 2 0.2916666666666666
221 0.2255754307831699 2 1.152288342952218
222 0.7736928104575163 2 1.154411764705882
223 0.2508201012831436 2 2.742561932761424
224 0.7490124091964827 2 2.74198539379793
225 0.2261904761904762 2 0.5327380952380952
226 0.7604166666666667 2 0.5520833333333331
227 0.2137807503953961 2 2.158666679839289
228 0.7821506380329912 2 2.161913526643546
229 0.2703585898645171 2 1.670775850022549
230 0.7297365366040904 2 1.670276658799327
231 0.5 2 0.1840850042640962
232 0.5000000000000001 1.510235001840062 0
233 0.4999999999999999 0.4897649981599377 0
234 0.5 1 0
235 0.3055555555555556 0.7500000000000001 0
236 0.6944444444444443 0.7500000000000001 0
237 0.3061882491091675 1.236418997362637 0
238 0.6940254595422193 1.23959223454696 0
239 0.2916666666666666 0.2916666666666666 0
240 0.2916666666666667 1.708333333333333 0
241 0.7083333333333335 0.2916666666666667 0
242 0.7083333333333334 1.708333333333333 0
243 0.2699542508329862 0.9958111525272786 0
244 0.7221174759966659 0.9973980586367401 0
245 0.788548752834467 0.5148286279301524 0
246 0.7885059992730157 1.484109355186884 0
247 0.211451247165533 0.5148286279301524 0
248 0.2115158077322278 1.483785555474198 0
249 0.5 1.81644784672716 0
250 0.5 0.1835521532728394 0
251 0.5000000000000002 1.5 3
252 0.4965277777777777 0.8868326118326119 3
253 0.5 0.3456449246365212 3
254 0.6666666666666666 1.166666666666667 3
255 0.3056586270871985 1.173130540094826 3
256 0.3146630621945747 0.5700048850709114 3
257 0.6872332482776661 0.5633389162715178 3
258 0.2916666666666667 1.708333333333333 3
259 0.7083333333333334 1.708333333333333 3
260 0.7452565675884242 0.259752651965184 3
261 0.2548421574465738 0.2600996932396213 3
262 0.2272163843892535 0.8644233868562887 3
263 0.7666970567270994 0.8667239256966401 3
264 0.2194650587507731 1.476292774685632 3
265 0.7604166666666665 1.447916666666667 3
266 0.5 1.815914995735903 3
$EndNodes
$Elements
608
1 15 2 0 1 1
2 15 2 0 2 2
3 15 2 0 3 3
4 15 2 0 4 4
5 15 2 0 5 5
6 15 2 0 6 6
7 15 2 0 7 7
8 15 2 0 8 8
9 1 2 0 1 2 9
10 1 2 0 1 9 10
11 1 2 0 1 10 11
12 1 2 0 1 11 12
13 1 2 0 1 12 13
14 1 2 0 1 13 14
15 1 2 0 1 14 15
16 1 2 0 1 15 16
17 1 2 0 1 16 1
18 1 2 0 2 1 17
19 1 2 0 2 17 18
20 1 2 0 2 18 19
21 1 2 0 2 19 20
22 1 2 0 2 20 21
23 1 2 0 2 21 3
24 1 2 0 3 4 22
25 1 2 0 3 22 23
26 1 2 0 3 23 24
27 1 2 0 3 24 25
28 1 2 0 3 25 26
29 1 2 0 3 26 27
30 1 2 0 3 27 28
31 1 2 0 3 28 29
32 1 2 0 3 29 3
33 1 2 0 4 2 30
34 1 2 0 4 30 31
35 1 2 0 4 31 32
36 1 2 0 4 32 33
37 1 2 0 4 33 34
38 1 2 0 4 34 4
39 1 2 0 5 6 35
40 1 2 0 5 35 36
41 1 2 0 5 36 37
42 1 2 0 5 37 38
43 1 2 0 5 38 39
44 1 2 0 5 39 40
45 1 2 0 5 40 41
46 1 2 0 5 41 42
47 1 2 0 5 42 5
48 1 2 0 6 5 43
49 1 2 0 6 43 44
50 1 2 0 6 44 45
51 1 2 0 6 45 46
52 1 2 0 6 46 47
53 1 2 0 6 47 7
54 1 2 0 7 8 48
55 1 2 0 7 48 49
56 1 2 0 7 49 50
57 1 2 0 7 50 51
58 1 2 0 7 51 52
59 1 2 0 7 52 53
60 1 2 0 7 53 54
61 1 2 0 7 54 55
62 1 2 0 7 55 7
63 1 2 0 8 6 56
64 1 2 0 8 56 57
65 1 2 0 8 57 58
66 1 2 0 8 58 59
67 1 2 0 8 59 60
68 1 2 0 8 60 8
69 1 2 0 9 2 61
70 1 2 0 9 61 62
71 1 2 0 9 62 6
72 1 2 0 10 1 63
73 1 2 0 10 63 64
74 1 2 0 10 64 5
75 1 2 0 11 4 65
76 1 2 0 11 65 66
77 1 2 0 11 66 8
78 1 2 0 12 3 67
79 1 2 0 12 67 68
80 1 2 0 12 68 7
81 2 2 0 1 22 90 101
82 2 2 0 1 23 22 101
83 2 2 0 1 81 19 96
84 2 2 0 1 19 81 95
85 2 2 0 1 81 72 86
86 2 2 0 1 32 79 97
87 2 2 0 1 80 11 98
88 2 2 0 1 80 75 102
89 2 2 0 1 79 32 103
90 2 2 0 1 11 80 105
91 2 2 0 1 82 24 101
92 2 2 0 1 75 80 98
93 2 2 0 1 71 81 86
94 2 2 0 1 18 19 95
95 2 2 0 1 19 20 96
96 2 2 0 1 77 88 94
97 2 2 0 1 88 73 94
98 2 2 0 1 2 9 100
99 2 2 0 1 30 2 100
100 2 2 0 1 87 77 93
101 2 2 0 1 72 87 93
102 2 2 0 1 24 23 101
103 2 2 0 1 73 82 91
104 2 2 0 1 76 105 114
105 2 2 0 1 12 92 98
106 2 2 0 1 12 13 92
107 2 2 0 1 82 73 107
108 2 2 0 1 24 82 107
109 2 2 0 1 72 81 96
110 2 2 0 1 81 71 95
111 2 2 0 1 83 75 99
112 2 2 0 1 69 83 99
113 2 2 0 1 85 71 113
114 2 2 0 1 69 93 94
115 2 2 0 1 86 72 93
116 2 2 0 1 97 79 104
117 2 2 0 1 74 97 104
118 2 2 0 1 93 77 94
119 2 2 0 1 71 89 113
120 2 2 0 1 105 80 114
121 2 2 0 1 73 83 94
122 2 2 0 1 83 69 94
123 2 2 0 1 92 78 99
124 2 2 0 1 75 92 99
125 2 2 0 1 33 32 97
126 2 2 0 1 10 11 105
127 2 2 0 1 32 31 103
128 2 2 0 1 11 12 98
129 2 2 0 1 14 15 89
130 2 2 0 1 28 27 87
131 2 2 0 1 80 102 114
132 2 2 0 1 72 84 111
133 2 2 0 1 26 25 88
134 2 2 0 1 87 72 111
135 2 2 0 1 71 86 106
136 2 2 0 1 83 73 112
137 2 2 0 1 14 89 110
138 2 2 0 1 75 83 102
139 2 2 0 1 69 86 93
140 2 2 0 1 74 90 123
141 2 2 0 1 97 74 123
142 2 2 0 1 71 85 95
143 2 2 0 1 84 72 96
144 2 2 0 1 73 88 107
145 2 2 0 1 84 29 111
146 2 2 0 1 89 78 110
147 2 2 0 1 87 27 109
148 2 2 0 1 77 87 109
149 2 2 0 1 90 74 101
150 2 2 0 1 29 84 116
151 2 2 0 1 25 24 107
152 2 2 0 1 71 106 118
153 2 2 0 1 92 75 98
154 2 2 0 1 86 69 106
155 2 2 0 1 108 76 114
156 2 2 0 1 88 25 107
157 2 2 0 1 103 76 108
158 2 2 0 1 79 103 108
159 2 2 0 1 70 91 104
160 2 2 0 1 113 16 117
161 2 2 0 1 73 91 112
162 2 2 0 1 88 77 109
163 2 2 0 1 26 88 109
164 2 2 0 1 29 28 111
165 2 2 0 1 85 113 117
166 2 2 0 1 70 104 108
167 2 2 0 1 104 79 108
168 2 2 0 1 28 87 111
169 2 2 0 1 76 100 122
170 2 2 0 1 99 78 106
171 2 2 0 1 69 99 106
172 2 2 0 1 100 76 119
173 2 2 0 1 15 16 113
174 2 2 0 1 105 76 122
175 2 2 0 1 76 103 119
176 2 2 0 1 91 70 112
177 2 2 0 1 89 71 118
178 2 2 0 1 89 15 113
179 2 2 0 1 78 89 118
180 2 2 0 1 101 74 115
181 2 2 0 1 82 101 115
182 2 2 0 1 102 70 114
183 2 2 0 1 90 34 123
184 2 2 0 1 13 14 110
185 2 2 0 1 34 90 124
186 2 2 0 1 90 22 124
187 2 2 0 1 27 26 109
188 2 2 0 1 92 13 110
189 2 2 0 1 91 82 115
190 2 2 0 1 21 3 116
191 2 2 0 1 16 1 117
192 2 2 0 1 3 29 116
193 2 2 0 1 1 17 117
194 2 2 0 1 78 92 110
195 2 2 0 1 34 33 123
196 2 2 0 1 104 91 115
197 2 2 0 1 31 30 119
198 2 2 0 1 9 10 122
199 2 2 0 1 22 4 124
200 2 2 0 1 4 34 124
201 2 2 0 1 70 102 112
202 2 2 0 1 20 21 120
203 2 2 0 1 17 18 121
204 2 2 0 1 95 85 121
205 2 2 0 1 84 96 120
206 2 2 0 1 18 95 121
207 2 2 0 1 96 20 120
208 2 2 0 1 33 97 123
209 2 2 0 1 74 104 115
210 2 2 0 1 30 100 119
211 2 2 0 1 100 9 122
212 2 2 0 1 102 83 112
213 2 2 0 1 106 78 118
214 2 2 0 1 103 31 119
215 2 2 0 1 10 105 122
216 2 2 0 1 116 84 120
217 2 2 0 1 21 116 120
218 2 2 0 1 85 117 121
219 2 2 0 1 117 17 121
220 2 2 0 1 70 108 114
221 2 2 0 2 146 158 35
222 2 2 0 2 35 158 36
223 2 2 0 2 137 151 45
224 2 2 0 2 45 150 137
225 2 2 0 2 137 142 128
226 2 2 0 2 135 152 58
227 2 2 0 2 50 153 136
228 2 2 0 2 131 159 136
229 2 2 0 2 58 160 135
230 2 2 0 2 136 162 50
231 2 2 0 2 37 158 138
232 2 2 0 2 136 153 131
233 2 2 0 2 127 142 137
234 2 2 0 2 44 150 45
235 2 2 0 2 45 151 46
236 2 2 0 2 144 149 133
237 2 2 0 2 129 149 144
238 2 2 0 2 145 154 134
239 2 2 0 2 128 154 145
240 2 2 0 2 48 157 8
241 2 2 0 2 8 157 60
242 2 2 0 2 125 156 149
243 2 2 0 2 36 158 37
244 2 2 0 2 138 147 129
245 2 2 0 2 162 170 132
246 2 2 0 2 148 153 51
247 2 2 0 2 52 148 51
248 2 2 0 2 129 163 138
249 2 2 0 2 138 163 37
250 2 2 0 2 137 150 127
251 2 2 0 2 128 151 137
252 2 2 0 2 149 156 133
253 2 2 0 2 139 155 125
254 2 2 0 2 131 155 139
255 2 2 0 2 128 169 140
256 2 2 0 2 135 161 152
257 2 2 0 2 152 161 130
258 2 2 0 2 145 169 128
259 2 2 0 2 136 170 162
260 2 2 0 2 143 156 127
261 2 2 0 2 133 156 143
262 2 2 0 2 142 154 128
263 2 2 0 2 139 149 129
264 2 2 0 2 125 149 139
265 2 2 0 2 134 155 148
266 2 2 0 2 148 155 131
267 2 2 0 2 58 152 57
268 2 2 0 2 50 162 49
269 2 2 0 2 59 160 58
270 2 2 0 2 51 153 50
271 2 2 0 2 54 145 53
272 2 2 0 2 40 143 41
273 2 2 0 2 159 170 136
274 2 2 0 2 141 167 127
275 2 2 0 2 142 156 125
276 2 2 0 2 38 144 39
277 2 2 0 2 127 167 143
278 2 2 0 2 129 168 139
279 2 2 0 2 145 166 53
280 2 2 0 2 139 159 131
281 2 2 0 2 125 155 154
282 2 2 0 2 125 154 142
283 2 2 0 2 146 178 130
284 2 2 0 2 130 178 152
285 2 2 0 2 127 150 141
286 2 2 0 2 140 151 128
287 2 2 0 2 144 163 129
288 2 2 0 2 42 167 141
289 2 2 0 2 154 155 134
290 2 2 0 2 127 156 142
291 2 2 0 2 134 166 145
292 2 2 0 2 143 165 133
293 2 2 0 2 40 165 143
294 2 2 0 2 130 158 146
295 2 2 0 2 141 172 42
296 2 2 0 2 37 163 38
297 2 2 0 2 131 153 148
298 2 2 0 2 132 170 164
299 2 2 0 2 38 163 144
300 2 2 0 2 160 164 135
301 2 2 0 2 132 164 160
302 2 2 0 2 147 161 126
303 2 2 0 2 55 173 169
304 2 2 0 2 147 168 129
305 2 2 0 2 133 165 144
306 2 2 0 2 144 165 39
307 2 2 0 2 41 167 42
308 2 2 0 2 169 173 140
309 2 2 0 2 135 164 161
310 2 2 0 2 161 164 126
311 2 2 0 2 143 167 41
312 2 2 0 2 157 177 132
313 2 2 0 2 132 174 157
314 2 2 0 2 55 169 54
315 2 2 0 2 132 177 162
316 2 2 0 2 160 174 132
317 2 2 0 2 126 168 147
318 2 2 0 2 54 169 145
319 2 2 0 2 158 171 138
320 2 2 0 2 130 171 158
321 2 2 0 2 126 170 159
322 2 2 0 2 56 178 146
323 2 2 0 2 53 166 52
324 2 2 0 2 35 179 146
325 2 2 0 2 146 179 56
326 2 2 0 2 39 165 40
327 2 2 0 2 52 166 148
328 2 2 0 2 138 171 147
329 2 2 0 2 42 172 5
330 2 2 0 2 5 172 43
331 2 2 0 2 7 173 55
332 2 2 0 2 47 173 7
333 2 2 0 2 148 166 134
334 2 2 0 2 57 178 56
335 2 2 0 2 147 171 161
336 2 2 0 2 60 174 59
337 2 2 0 2 49 177 48
338 2 2 0 2 6 179 35
339 2 2 0 2 56 179 6
340 2 2 0 2 159 168 126
341 2 2 0 2 46 175 47
342 2 2 0 2 43 176 44
343 2 2 0 2 150 176 141
344 2 2 0 2 140 175 151
345 2 2 0 2 151 175 46
346 2 2 0 2 44 176 150
347 2 2 0 2 152 178 57
348 2 2 0 2 161 171 130
349 2 2 0 2 157 174 60
350 2 2 0 2 48 177 157
351 2 2 0 2 139 168 159
352 2 2 0 2 59 174 160
353 2 2 0 2 162 177 49
354 2 2 0 2 173 175 140
355 2 2 0 2 47 175 173
356 2 2 0 2 141 176 172
357 2 2 0 2 172 176 43
358 2 2 0 2 164 170 126
359 2 2 0 3 64 63 184
360 2 2 0 3 184 63 197
361 2 2 0 3 64 184 198
362 2 2 0 3 181 185 186
363 2 2 0 3 185 182 186
364 2 2 0 3 9 2 193
365 2 2 0 3 2 61 193
366 2 2 0 3 36 37 185
367 2 2 0 3 62 6 194
368 2 2 0 3 6 35 194
369 2 2 0 3 191 42 198
370 2 2 0 3 16 192 197
371 2 2 0 3 16 15 192
372 2 2 0 3 41 42 191
373 2 2 0 3 191 184 192
374 2 2 0 3 180 191 192
375 2 2 0 3 14 13 188
376 2 2 0 3 39 40 187
377 2 2 0 3 13 12 189
378 2 2 0 3 38 39 190
379 2 2 0 3 39 187 204
380 2 2 0 3 188 13 203
381 2 2 0 3 13 189 203
382 2 2 0 3 190 39 204
383 2 2 0 3 11 10 186
384 2 2 0 3 187 180 188
385 2 2 0 3 183 187 188
386 2 2 0 3 183 189 190
387 2 2 0 3 189 182 190
388 2 2 0 3 186 182 195
389 2 2 0 3 185 37 196
390 2 2 0 3 182 185 196
391 2 2 0 3 42 5 198
392 2 2 0 3 5 64 198
393 2 2 0 3 1 16 197
394 2 2 0 3 63 1 197
395 2 2 0 3 181 186 199
396 2 2 0 3 36 185 200
397 2 2 0 3 185 181 200
398 2 2 0 3 11 186 195
399 2 2 0 3 192 184 197
400 2 2 0 3 184 191 198
401 2 2 0 3 186 10 199
402 2 2 0 3 10 9 199
403 2 2 0 3 35 36 200
404 2 2 0 3 12 11 195
405 2 2 0 3 37 38 196
406 2 2 0 3 9 193 199
407 2 2 0 3 194 35 200
408 2 2 0 3 15 14 201
409 2 2 0 3 40 41 202
410 2 2 0 3 189 12 195
411 2 2 0 3 38 190 196
412 2 2 0 3 181 193 205
413 2 2 0 3 194 181 205
414 2 2 0 3 180 187 202
415 2 2 0 3 188 180 201
416 2 2 0 3 190 182 196
417 2 2 0 3 182 189 195
418 2 2 0 3 61 62 205
419 2 2 0 3 191 180 202
420 2 2 0 3 180 192 201
421 2 2 0 3 189 183 203
422 2 2 0 3 183 190 204
423 2 2 0 3 187 40 202
424 2 2 0 3 14 188 201
425 2 2 0 3 183 188 203
426 2 2 0 3 187 183 204
427 2 2 0 3 192 15 201
428 2 2 0 3 41 191 202
429 2 2 0 3 181 194 200
430 2 2 0 3 193 181 199
431 2 2 0 3 193 61 205
432 2 2 0 3 62 194 205
433 2 2 0 4 68 210 67
434 2 2 0 4 210 223 67
435 2 2 0 4 68 224 210
436 2 2 0 4 207 212 211
437 2 2 0 4 211 212 208
438 2 2 0 4 49 211 50
439 2 2 0 4 66 219 8
440 2 2 0 4 22 220 4
441 2 2 0 4 4 220 65
442 2 2 0 4 8 219 48
443 2 2 0 4 217 224 55
444 2 2 0 4 29 223 218
445 2 2 0 4 29 218 28
446 2 2 0 4 54 217 55
447 2 2 0 4 217 218 210
448 2 2 0 4 206 218 217
449 2 2 0 4 27 214 26
450 2 2 0 4 52 213 53
451 2 2 0 4 26 215 25
452 2 2 0 4 51 216 52
453 2 2 0 4 52 230 213
454 2 2 0 4 214 229 26
455 2 2 0 4 26 229 215
456 2 2 0 4 216 230 52
457 2 2 0 4 24 212 23
458 2 2 0 4 213 214 206
459 2 2 0 4 209 214 213
460 2 2 0 4 209 216 215
461 2 2 0 4 215 216 208
462 2 2 0 4 212 221 208
463 2 2 0 4 211 222 50
464 2 2 0 4 208 222 211
465 2 2 0 4 55 224 7
466 2 2 0 4 7 224 68
467 2 2 0 4 3 223 29
468 2 2 0 4 67 223 3
469 2 2 0 4 207 225 212
470 2 2 0 4 49 226 211
471 2 2 0 4 211 226 207
472 2 2 0 4 24 221 212
473 2 2 0 4 218 223 210
474 2 2 0 4 210 224 217
475 2 2 0 4 212 225 23
476 2 2 0 4 23 225 22
477 2 2 0 4 48 226 49
478 2 2 0 4 25 221 24
479 2 2 0 4 50 222 51
480 2 2 0 4 22 225 220
481 2 2 0 4 219 226 48
482 2 2 0 4 28 227 27
483 2 2 0 4 53 228 54
484 2 2 0 4 215 221 25
485 2 2 0 4 51 222 216
486 2 2 0 4 219 231 207
487 2 2 0 4 207 231 220
488 2 2 0 4 206 228 213
489 2 2 0 4 214 227 206
490 2 2 0 4 216 222 208
491 2 2 0 4 208 221 215
492 2 2 0 4 65 231 66
493 2 2 0 4 217 228 206
494 2 2 0 4 206 227 218
495 2 2 0 4 215 229 209
496 2 2 0 4 209 230 216
497 2 2 0 4 213 228 53
498 2 2 0 4 27 227 214
499 2 2 0 4 209 229 214
500 2 2 0 4 213 230 209
501 2 2 0 4 218 227 28
502 2 2 0 4 54 228 217
503 2 2 0 4 207 226 219
504 2 2 0 4 220 225 207
505 2 2 0 4 220 231 65
506 2 2 0 4 66 231 219
507 2 2 0 5 34 4 240
508 2 2 0 5 8 60 242
509 2 2 0 5 4 65 240
510 2 2 0 5 66 8 242
511 2 2 0 5 2 30 239
512 2 2 0 5 61 2 239
513 2 2 0 5 56 6 241
514 2 2 0 5 6 62 241
515 2 2 0 5 31 32 235
516 2 2 0 5 32 33 237
517 2 2 0 5 58 57 236
518 2 2 0 5 59 58 238
519 2 2 0 5 235 32 243
520 2 2 0 5 58 236 244
521 2 2 0 5 32 237 243
522 2 2 0 5 238 58 244
523 2 2 0 5 234 237 238
524 2 2 0 5 233 235 236
525 2 2 0 5 237 232 238
526 2 2 0 5 235 234 236
527 2 2 0 5 30 31 247
528 2 2 0 5 33 34 248
529 2 2 0 5 57 56 245
530 2 2 0 5 60 59 246
531 2 2 0 5 239 233 250
532 2 2 0 5 233 241 250
533 2 2 0 5 232 240 249
534 2 2 0 5 242 232 249
535 2 2 0 5 232 237 248
536 2 2 0 5 238 232 246
537 2 2 0 5 233 236 245
538 2 2 0 5 235 233 247
539 2 2 0 5 65 66 249
540 2 2 0 5 62 61 250
541 2 2 0 5 240 232 248
542 2 2 0 5 233 239 247
543 2 2 0 5 241 233 245
544 2 2 0 5 232 242 246
545 2 2 0 5 234 238 244
546 2 2 0 5 237 234 243
547 2 2 0 5 236 234 244
548 2 2 0 5 234 235 243
549 2 2 0 5 31 235 247
550 2 2 0 5 236 57 245
551 2 2 0 5 237 33 248
552 2 2 0 5 59 238 246
553 2 2 0 5 239 30 247
554 2 2 0 5 56 241 245
555 2 2 0 5 34 240 248
556 2 2 0 5 242 60 246
557 2 2 0 5 61 239 250
558 2 2 0 5 66 242 249
559 2 2 0 5 241 62 250
560 2 2 0 5 240 65 249
561 2 2 0 6 64 253 63
562 2 2 0 6 253 261 63
563 2 2 0 6 64 260 253
564 2 2 0 6 254 255 252
565 2 2 0 6 251 255 254
566 2 2 0 6 21 258 3
567 2 2 0 6 7 259 47
568 2 2 0 6 46 254 45
569 2 2 0 6 3 258 67
570 2 2 0 6 68 259 7
571 2 2 0 6 17 261 256
572 2 2 0 6 257 260 43
573 2 2 0 6 44 257 43
574 2 2 0 6 17 256 18
575 2 2 0 6 253 257 256
576 2 2 0 6 256 257 252
577 2 2 0 6 19 255 20
578 2 2 0 6 5 260 64
579 2 2 0 6 1 261 17
580 2 2 0 6 63 261 1
581 2 2 0 6 43 260 5
582 2 2 0 6 255 262 252
583 2 2 0 6 251 264 255
584 2 2 0 6 252 263 254
585 2 2 0 6 254 263 45
586 2 2 0 6 46 265 254
587 2 2 0 6 254 265 251
588 2 2 0 6 253 260 257
589 2 2 0 6 256 261 253
590 2 2 0 6 19 262 255
591 2 2 0 6 255 264 20
592 2 2 0 6 20 264 21
593 2 2 0 6 47 265 46
594 2 2 0 6 45 263 44
595 2 2 0 6 18 262 19
596 2 2 0 6 21 264 258
597 2 2 0 6 259 265 47
598 2 2 0 6 44 263 257
599 2 2 0 6 256 262 18
600 2 2 0 6 251 266 258
601 2 2 0 6 259 266 251
602 2 2 0 6 67 266 68
603 2 2 0 6 252 262 256
604 2 2 0 6 257 263 252
605 2 2 0 6 258 264 251
606 2 2 0 6 251 265 259
607 2 2 0 6 68 266 259
608 2 2 0 6 258 266 67
$EndElements
