$MeshFormat
2.2 0 8
$EndMeshFormat
$Nodes
129
1 0 0 0
2 1 0 0
3 0 1 0
4 -1 0 0
5 0 -1 0
6 0.995184726651393 0.09801714054078599 0
7 0.9807852803078234 0.1950903224957715 0
8 0.9569403355109694 0.2902846779837915 0
9 0.9238795320964546 0.3826834333665834 0
10 0.8819212637126711 0.4713967380152786 0
11 0.8314696113715093 0.555570234412996 0
12 0.7730104520643579 0.634393285745725 0
13 0.7071067795187101 0.7071067828543849 0
14 0.634393282509547 0.7730104547202206 0
15 0.5555702315077717 0.8314696133127182 0
16 0.4713967354582064 0.8819212650794547 0
17 0.3826834311821021 0.9238795330012963 0
18 0.2902846763300272 0.9569403360126332 0
19 0.1950903214057619 0.9807852805246399 0
20 0.09801714003076821 0.9951847267016254 0
21 0.9987954561999164 0.0490676744344068 0
22 0.9891765099133953 0.1467304748017757 0
23 0.9700312530424831 0.2429801805103251 0
24 0.9415440648718693 0.3368898542618304 0
25 0.9039892926006383 0.4275550945356603 0
26 0.8577286092283274 0.5141027454811337 0
27 0.8032075303719421 0.595699305987346 0
28 0.7409511238547367 0.6715589565022587 0
29 0.6715589531750171 0.7409511268703728 0
30 0.5956993029115621 0.803207532653099 0
31 0.5141027427296385 0.8577286108775101 0
32 0.4275550921383096 0.9039892937345008 0
33 0.336889852347074 0.94154406555698 0
34 0.2429801791417926 0.9700312533852826 0
35 0.1467304739708967 0.9891765100366445 0
36 0.04906767421265866 0.9987954562108101 0
37 -0.09801714054078599 0.995184726651393 0
38 -0.1950903224957715 0.9807852803078234 0
39 -0.2902846779837915 0.9569403355109694 0
40 -0.3826834333665834 0.9238795320964546 0
41 -0.4713967380152786 0.8819212637126711 0
42 -0.555570234412996 0.8314696113715093 0
43 -0.634393285745725 0.7730104520643579 0
44 -0.7071067828543849 0.7071067795187101 0
45 -0.7730104547202206 0.634393282509547 0
46 -0.8314696133127182 0.5555702315077717 0
47 -0.8819212650794547 0.4713967354582064 0
48 -0.9238795330012963 0.3826834311821021 0
49 -0.9569403360126332 0.2902846763300272 0
50 -0.9807852805246399 0.1950903214057619 0
51 -0.9951847267016254 0.09801714003076821 0
52 -0.0490676744344068 0.9987954561999164 0
53 -0.1467304748017757 0.9891765099133953 0
54 -0.2429801805103251 0.9700312530424831 0
55 -0.3368898542618304 0.9415440648718693 0
56 -0.4275550945356603 0.9039892926006383 0
57 -0.5141027454811337 0.8577286092283274 0
58 -0.595699305987346 0.8032075303719421 0
59 -0.6715589565022587 0.7409511238547367 0
60 -0.7409511268703728 0.6715589531750171 0
61 -0.803207532653099 0.5956993029115621 0
62 -0.8577286108775101 0.5141027427296385 0
63 -0.9039892937345008 0.4275550921383096 0
64 -0.94154406555698 0.336889852347074 0
65 -0.9700312533852826 0.2429801791417926 0
66 -0.9891765100366445 0.1467304739708967 0
67 -0.9987954562108101 0.04906767421265866 0
68 -0.995184726651393 -0.09801714054078599 0
69 -0.9807852803078234 -0.1950903224957715 0
70 -0.9569403355109694 -0.2902846779837915 0
71 -0.9238795320964546 -0.3826834333665834 0
72 -0.8819212637126711 -0.4713967380152786 0
73 -0.8314696113715093 -0.555570234412996 0
74 -0.7730104520643579 -0.634393285745725 0
75 -0.7071067795187101 -0.7071067828543849 0
76 -0.634393282509547 -0.7730104547202206 0
77 -0.5555702315077717 -0.8314696133127182 0
78 -0.4713967354582064 -0.8819212650794547 0
79 -0.3826834311821021 -0.9238795330012963 0
80 -0.2902846763300272 -0.9569403360126332 0
81 -0.1950903214057619 -0.9807852805246399 0
82 -0.09801714003076821 -0.9951847267016254 0
83 -0.9987954561999164 -0.0490676744344068 0
84 -0.9891765099133953 -0.1467304748017757 0
85 -0.9700312530424831 -0.2429801805103251 0
86 -0.9415440648718693 -0.3368898542618304 0
87 -0.9039892926006383 -0.4275550945356603 0
88 -0.8577286092283274 -0.5141027454811337 0
89 -0.8032075303719421 -0.595699305987346 0
90 -0.7409511238547367 -0.6715589565022587 0
91 -0.6715589531750171 -0.7409511268703728 0
92 -0.5956993029115621 -0.803207532653099 0
93 -0.5141027427296385 -0.8577286108775101 0
94 -0.4275550921383096 -0.9039892937345008 0
95 -0.336889852347074 -0.94154406555698 0
96 -0.2429801791417926 -0.9700312533852826 0
97 -0.1467304739708967 -0.9891765100366445 0
98 -0.04906767421265866 -0.9987954562108101 0
99 0.09801714054078599 -0.995184726651393 0
100 0.1950903224957715 -0.9807852803078234 0
101 0.2902846779837915 -0.9569403355109694 0
102 0.3826834333665834 -0.9238795320964546 0
103 0.4713967380152786 -0.8819212637126711 0
104 0.555570234412996 -0.8314696113715093 0
105 0.634393285745725 -0.7730104520643579 0
106 0.7071067828543849 -0.7071067795187101 0
107 0.7730104547202206 -0.634393282509547 0
108 0.8314696133127182 -0.5555702315077717 0
109 0.8819212650794547 -0.4713967354582064 0
110 0.9238795330012963 -0.3826834311821021 0
111 0.9569403360126332 -0.2902846763300272 0
112 0.9807852805246399 -0.1950903214057619 0
113 0.9951847267016254 -0.09801714003076821 0
114 0.0490676744344068 -0.9987954561999164 0
115 0.1467304748017757 -0.9891765099133953 0
116 0.2429801805103251 -0.9700312530424831 0
117 0.3368898542618304 -0.9415440648718693 0
118 0.4275550945356603 -0.9039892926006383 0
119 0.5141027454811337 -0.8577286092283274 0
120 0.595699305987346 -0.8032075303719421 0
121 0.6715589565022587 -0.7409511238547367 0
122 0.7409511268703728 -0.6715589531750171 0
123 0.803207532653099 -0.5956993029115621 0
124 0.8577286108775101 -0.5141027427296385 0
125 0.9039892937345008 -0.4275550921383096 0
126 0.94154406555698 -0.336889852347074 0
127 0.9700312533852826 -0.2429801791417926 0
128 0.9891765100366445 -0.1467304739708967 0
129 0.9987954562108101 -0.04906767421265866 0
$EndNodes
$Elements
69
1 15 2 0 1 1
2 15 2 0 2 2
3 15 2 0 3 3
4 15 2 0 4 4
5 15 2 0 5 5
6 8 2 0 1 2 6 21
7 8 2 0 1 6 7 22
8 8 2 0 1 7 8 23
9 8 2 0 1 8 9 24
10 8 2 0 1 9 10 25
11 8 2 0 1 10 11 26
12 8 2 0 1 11 12 27
13 8 2 0 1 12 13 28
14 8 2 0 1 13 14 29
15 8 2 0 1 14 15 30
16 8 2 0 1 15 16 31
17 8 2 0 1 16 17 32
18 8 2 0 1 17 18 33
19 8 2 0 1 18 19 34
20 8 2 0 1 19 20 35
21 8 2 0 1 20 3 36
22 8 2 0 2 3 37 52
23 8 2 0 2 37 38 53
24 8 2 0 2 38 39 54
25 8 2 0 2 39 40 55
26 8 2 0 2 40 41 56
27 8 2 0 2 41 42 57
28 8 2 0 2 42 43 58
29 8 2 0 2 43 44 59
30 8 2 0 2 44 45 60
31 8 2 0 2 45 46 61
32 8 2 0 2 46 47 62
33 8 2 0 2 47 48 63
34 8 2 0 2 48 49 64
35 8 2 0 2 49 50 65
36 8 2 0 2 50 51 66
37 8 2 0 2 51 4 67
38 8 2 0 3 4 68 83
39 8 2 0 3 68 69 84
40 8 2 0 3 69 70 85
41 8 2 0 3 70 71 86
42 8 2 0 3 71 72 87
43 8 2 0 3 72 73 88
44 8 2 0 3 73 74 89
45 8 2 0 3 74 75 90
46 8 2 0 3 75 76 91
47 8 2 0 3 76 77 92
48 8 2 0 3 77 78 93
49 8 2 0 3 78 79 94
50 8 2 0 3 79 80 95
51 8 2 0 3 80 81 96
52 8 2 0 3 81 82 97
53 8 2 0 3 82 5 98
54 8 2 0 4 5 99 114
55 8 2 0 4 99 100 115
56 8 2 0 4 100 101 116
57 8 2 0 4 101 102 117
58 8 2 0 4 102 103 118
59 8 2 0 4 103 104 119
60 8 2 0 4 104 105 120
61 8 2 0 4 105 106 121
62 8 2 0 4 106 107 122
63 8 2 0 4 107 108 123
64 8 2 0 4 108 109 124
65 8 2 0 4 109 110 125
66 8 2 0 4 110 111 126
67 8 2 0 4 111 112 127
68 8 2 0 4 112 113 128
69 8 2 0 4 113 2 129
$EndElements
