$MeshFormat
2.2 0 8
$EndMeshFormat
$Nodes
20
1 0 0 0
2 5 0 0
3 4 3 0
4 3 3 0
5 3 1 0
6 2 1 0
7 2 3 0
8 1 3 0
9 0.9999999999984134 0 0
10 1.999999999995513 0 0
11 2.999999999996966 0 0
12 3.999999999998489 0 0
13 4.750000000000925 0.749999999997227 0
14 4.500000000001713 1.49999999999486 0
15 4.250000000000863 2.249999999997411 0
16 3 2.000000000005506 0
17 2 2.000000000001388 0
18 0.7500000000008092 2.250000000002427 0
19 0.5000000000014557 1.500000000004367 0
20 0.2500000000007356 0.7500000000022071 0
$EndNodes
$Elements
28
1 15 2 0 1 1
2 15 2 0 2 2
3 15 2 0 3 3
4 15 2 0 4 4
5 15 2 0 5 5
6 15 2 0 6 6
7 15 2 0 7 7
8 15 2 0 8 8
9 1 2 0 1 1 9
10 1 2 0 1 9 10
11 1 2 0 1 10 11
12 1 2 0 1 11 12
13 1 2 0 1 12 2
14 1 2 0 2 2 13
15 1 2 0 2 13 14
16 1 2 0 2 14 15
17 1 2 0 2 15 3
18 1 2 0 3 3 4
19 1 2 0 4 4 16
20 1 2 0 4 16 5
21 1 2 0 5 5 6
22 1 2 0 6 6 17
23 1 2 0 6 17 7
24 1 2 0 7 7 8
25 1 2 0 8 8 18
26 1 2 0 8 18 19
27 1 2 0 8 19 20
28 1 2 0 8 20 1
$EndElements
