$MeshFormat
2.2 0 8
$EndMeshFormat
$Nodes
72
1 0 0 0
2 1 0 0
3 0 1 0
4 0.995184726651393 0.09801714054078599 0
5 0.9807852803078234 0.1950903224957715 0
6 0.9569403355109694 0.2902846779837915 0
7 0.9238795320964546 0.3826834333665834 0
8 0.8819212637126711 0.4713967380152786 0
9 0.8314696113715093 0.555570234412996 0
10 0.7730104520643579 0.634393285745725 0
11 0.7071067795187101 0.7071067828543849 0
12 0.634393282509547 0.7730104547202206 0
13 0.5555702315077717 0.8314696133127182 0
14 0.4713967354582064 0.8819212650794547 0
15 0.3826834311821021 0.9238795330012963 0
16 0.2902846763300272 0.9569403360126332 0
17 0.1950903214057619 0.9807852805246399 0
18 0.09801714003076821 0.9951847267016254 0
19 0.9987954561999164 0.0490676744344068 0
20 0.9891765099133953 0.1467304748017757 0
21 0.9700312530424831 0.2429801805103251 0
22 0.9415440648718693 0.3368898542618304 0
23 0.9039892926006383 0.4275550945356603 0
24 0.8577286092283274 0.5141027454811337 0
25 0.8032075303719421 0.595699305987346 0
26 0.7409511238547367 0.6715589565022587 0
27 0.6715589531750171 0.7409511268703728 0
28 0.5956993029115621 0.803207532653099 0
29 0.5141027427296385 0.8577286108775101 0
30 0.4275550921383096 0.9039892937345008 0
31 0.336889852347074 0.94154406555698 0
32 0.2429801791417926 0.9700312533852826 0
33 0.1467304739708967 0.9891765100366445 0
34 0.04906767421265866 0.9987954562108101 0
35 0 0.8999999999995836 0
36 0 0.7999999999999998 0
37 0 0.7000000000006934 0
38 0 0.6000000000013869 0
39 0 0.5000000000020587 0
40 0 0.4000000000016644 0
41 0 0.3000000000012483 0
42 0 0.2000000000008322 0
43 0 0.100000000000416 0
44 0 0.9499999999998356 0
45 0 0.8499999999998515 0
46 0 0.7500000000003858 0
47 0 0.6500000000010593 0
48 0 0.5500000000016854 0
49 0 0.4500000000018616 0
50 0 0.3500000000014563 0
51 0 0.2500000000010403 0
52 0 0.1500000000006241 0
53 0 0.05000000000020799 0
54 0.09999999999981467 0 0
55 0.1999999999995579 0 0
56 0.2999999999992664 0 0
57 0.3999999999989749 0 0
58 0.4999999999986943 0 0
59 0.5999999999989468 0 0
60 0.69999999999921 0 0
61 0.7999999999994734 0 0
62 0.8999999999997368 0 0
63 0.04999999999989927 0 0
64 0.1499999999997036 0 0
65 0.2499999999994121 0 0
66 0.3499999999991207 0 0
67 0.4499999999988346 0 0
68 0.5499999999988205 0 0
69 0.6499999999990784 0 0
70 0.7499999999993416 0 0
71 0.8499999999996051 0 0
72 0.9499999999998684 0 0
$EndNodes
$Elements
39
1 15 2 0 1 1
2 15 2 0 2 2
3 15 2 0 3 3
4 8 2 0 1 2 4 19
5 8 2 0 1 4 5 20
6 8 2 0 1 5 6 21
7 8 2 0 1 6 7 22
8 8 2 0 1 7 8 23
9 8 2 0 1 8 9 24
10 8 2 0 1 9 10 25
11 8 2 0 1 10 11 26
12 8 2 0 1 11 12 27
13 8 2 0 1 12 13 28
14 8 2 0 1 13 14 29
15 8 2 0 1 14 15 30
16 8 2 0 1 15 16 31
17 8 2 0 1 16 17 32
18 8 2 0 1 17 18 33
19 8 2 0 1 18 3 34
20 8 2 0 2 3 35 44
21 8 2 0 2 35 36 45
22 8 2 0 2 36 37 46
23 8 2 0 2 37 38 47
24 8 2 0 2 38 39 48
25 8 2 0 2 39 40 49
26 8 2 0 2 40 41 50
27 8 2 0 2 41 42 51
28 8 2 0 2 42 43 52
29 8 2 0 2 43 1 53
30 8 2 0 3 1 54 63
31 8 2 0 3 54 55 64
32 8 2 0 3 55 56 65
33 8 2 0 3 56 57 66
34 8 2 0 3 57 58 67
35 8 2 0 3 58 59 68
36 8 2 0 3 59 60 69
37 8 2 0 3 60 61 70
38 8 2 0 3 61 62 71
39 8 2 0 3 62 2 72
$EndElements
