$MeshFormat
2.2 0 8
$EndMeshFormat
$Nodes
18
1 0 0 0
2 2 0 0
3 2 4 0
4 0 4 0
5 0.5 1 0
6 0.5 3 0
7 1.5 3 0
8 1.5 1 0
9 0.999999999997388 0 0
10 2 0.9999999999976482 0
11 2 1.999999999994776 0
12 2 2.999999999997367 0
13 1.000000000004118 4 0
14 0 3.000000000001386 0
15 0 2.000000000008237 0
16 0 1.000000000004162 0
17 0.5 2.000000000001388 0
18 1.5 2.000000000005506 0
$EndNodes
$Elements
26
1 15 2 0 1 1
2 15 2 0 2 2
3 15 2 0 3 3
4 15 2 0 4 4
5 15 2 0 5 5
6 15 2 0 6 6
7 15 2 0 7 7
8 15 2 0 8 8
9 1 2 0 1 1 9
10 1 2 0 1 9 2
11 1 2 0 2 2 10
12 1 2 0 2 10 11
13 1 2 0 2 11 12
14 1 2 0 2 12 3
15 1 2 0 3 3 13
16 1 2 0 3 13 4
17 1 2 0 4 4 14
18 1 2 0 4 14 15
19 1 2 0 4 15 16
20 1 2 0 4 16 1
21 1 2 0 5 5 17
22 1 2 0 5 17 6
23 1 2 0 6 6 7
24 1 2 0 7 7 18
25 1 2 0 7 18 8
26 1 2 0 8 8 5
$EndElements
