$MeshFormat
2.2 0 8
$EndMeshFormat
$Nodes
104
1 1 0 0
2 0 0 0
3 0 1 0
4 -1 0 0
5 0.995184726651393 0.09801714054078599 0
6 0.9807852803078234 0.1950903224957715 0
7 0.9569403355109694 0.2902846779837915 0
8 0.9238795320964546 0.3826834333665834 0
9 0.8819212637126711 0.4713967380152786 0
10 0.8314696113715093 0.555570234412996 0
11 0.7730104520643579 0.634393285745725 0
12 0.7071067795187101 0.7071067828543849 0
13 0.634393282509547 0.7730104547202206 0
14 0.5555702315077717 0.8314696133127182 0
15 0.4713967354582064 0.8819212650794547 0
16 0.3826834311821021 0.9238795330012963 0
17 0.2902846763300272 0.9569403360126332 0
18 0.1950903214057619 0.9807852805246399 0
19 0.09801714003076821 0.9951847267016254 0
20 0.9987954561999164 0.0490676744344068 0
21 0.9891765099133953 0.1467304748017757 0
22 0.9700312530424831 0.2429801805103251 0
23 0.9415440648718693 0.3368898542618304 0
24 0.9039892926006383 0.4275550945356603 0
25 0.8577286092283274 0.5141027454811337 0
26 0.8032075303719421 0.595699305987346 0
27 0.7409511238547367 0.6715589565022587 0
28 0.6715589531750171 0.7409511268703728 0
29 0.5956993029115621 0.803207532653099 0
30 0.5141027427296385 0.8577286108775101 0
31 0.4275550921383096 0.9039892937345008 0
32 0.336889852347074 0.94154406555698 0
33 0.2429801791417926 0.9700312533852826 0
34 0.1467304739708967 0.9891765100366445 0
35 0.04906767421265866 0.9987954562108101 0
36 -0.09801714054078599 0.995184726651393 0
37 -0.1950903224957715 0.9807852803078234 0
38 -0.2902846779837915 0.9569403355109694 0
39 -0.3826834333665834 0.9238795320964546 0
40 -0.4713967380152786 0.8819212637126711 0
41 -0.555570234412996 0.8314696113715093 0
42 -0.634393285745725 0.7730104520643579 0
43 -0.7071067828543849 0.7071067795187101 0
44 -0.7730104547202206 0.634393282509547 0
45 -0.8314696133127182 0.5555702315077717 0
46 -0.8819212650794547 0.4713967354582064 0
47 -0.9238795330012963 0.3826834311821021 0
48 -0.9569403360126332 0.2902846763300272 0
49 -0.9807852805246399 0.1950903214057619 0
50 -0.9951847267016254 0.09801714003076821 0
51 -0.0490676744344068 0.9987954561999164 0
52 -0.1467304748017757 0.9891765099133953 0
53 -0.2429801805103251 0.9700312530424831 0
54 -0.3368898542618304 0.9415440648718693 0
55 -0.4275550945356603 0.9039892926006383 0
56 -0.5141027454811337 0.8577286092283274 0
57 -0.595699305987346 0.8032075303719421 0
58 -0.6715589565022587 0.7409511238547367 0
59 -0.7409511268703728 0.6715589531750171 0
60 -0.803207532653099 0.5956993029115621 0
61 -0.8577286108775101 0.5141027427296385 0
62 -0.9039892937345008 0.4275550921383096 0
63 -0.94154406555698 0.336889852347074 0
64 -0.9700312533852826 0.2429801791417926 0
65 -0.9891765100366445 0.1467304739708967 0
66 -0.9987954562108101 0.04906767421265866 0
67 -0.8999999999995836 0 0
68 -0.7999999999999998 0 0
69 -0.7000000000006934 0 0
70 -0.6000000000013869 0 0
71 -0.5000000000020587 0 0
72 -0.4000000000016644 0 0
73 -0.3000000000012483 0 0
74 -0.2000000000008322 0 0
75 -0.100000000000416 0 0
76 -0.9499999999998356 0 0
77 -0.8499999999998515 0 0
78 -0.7500000000003858 0 0
79 -0.6500000000010593 0 0
80 -0.5500000000016854 0 0
81 -0.4500000000018616 0 0
82 -0.3500000000014563 0 0
83 -0.2500000000010403 0 0
84 -0.1500000000006241 0 0
85 -0.05000000000020799 0 0
86 0.09999999999981467 0 0
87 0.1999999999995579 0 0
88 0.2999999999992664 0 0
89 0.3999999999989749 0 0
90 0.4999999999986943 0 0
91 0.5999999999989468 0 0
92 0.69999999999921 0 0
93 0.7999999999994734 0 0
94 0.8999999999997368 0 0
95 0.04999999999989927 0 0
96 0.1499999999997036 0 0
97 0.2499999999994121 0 0
98 0.3499999999991207 0 0
99 0.4499999999988346 0 0
100 0.5499999999988205 0 0
101 0.6499999999990784 0 0
102 0.7499999999993416 0 0
103 0.8499999999996051 0 0
104 0.9499999999998684 0 0
$EndNodes
$Elements
56
1 15 2 0 1 1
2 15 2 0 2 2
3 15 2 0 3 3
4 15 2 0 4 4
5 8 2 0 1 1 5 20
6 8 2 0 1 5 6 21
7 8 2 0 1 6 7 22
8 8 2 0 1 7 8 23
9 8 2 0 1 8 9 24
10 8 2 0 1 9 10 25
11 8 2 0 1 10 11 26
12 8 2 0 1 11 12 27
13 8 2 0 1 12 13 28
14 8 2 0 1 13 14 29
15 8 2 0 1 14 15 30
16 8 2 0 1 15 16 31
17 8 2 0 1 16 17 32
18 8 2 0 1 17 18 33
19 8 2 0 1 18 19 34
20 8 2 0 1 19 3 35
21 8 2 0 2 3 36 51
22 8 2 0 2 36 37 52
23 8 2 0 2 37 38 53
24 8 2 0 2 38 39 54
25 8 2 0 2 39 40 55
26 8 2 0 2 40 41 56
27 8 2 0 2 41 42 57
28 8 2 0 2 42 43 58
29 8 2 0 2 43 44 59
30 8 2 0 2 44 45 60
31 8 2 0 2 45 46 61
32 8 2 0 2 46 47 62
33 8 2 0 2 47 48 63
34 8 2 0 2 48 49 64
35 8 2 0 2 49 50 65
36 8 2 0 2 50 4 66
37 8 2 0 3 4 67 76
38 8 2 0 3 67 68 77
39 8 2 0 3 68 69 78
40 8 2 0 3 69 70 79
41 8 2 0 3 70 71 80
42 8 2 0 3 71 72 81
43 8 2 0 3 72 73 82
44 8 2 0 3 73 74 83
45 8 2 0 3 74 75 84
46 8 2 0 3 75 2 85
47 8 2 0 4 2 86 95
48 8 2 0 4 86 87 96
49 8 2 0 4 87 88 97
50 8 2 0 4 88 89 98
51 8 2 0 4 89 90 99
52 8 2 0 4 90 91 100
53 8 2 0 4 91 92 101
54 8 2 0 4 92 93 102
55 8 2 0 4 93 94 103
56 8 2 0 4 94 1 104
$EndElements
