$MeshFormat
2.2 0 8
$EndMeshFormat
$Nodes
574
1 6.123233995736766e-17 -1.499759782661858e-32 1
2 6.123233995736766e-17 -1.499759782661858e-32 -1
3 0.3090169943749472 -7.568733460868295e-17 -0.9510565162951536
4 0.5877852522924729 -1.439658655611993e-16 -0.8090169943749476
5 0.8090169943749473 -1.981520145234183e-16 -0.5877852522924732
6 0.9510565162951535 -2.329416636978185e-16 -0.3090169943749476
7 1 -2.449293598294706e-16 -2.449293598294706e-16
8 0.9510565162951536 -2.329416636978185e-16 0.3090169943749472
9 0.8090169943749476 -1.981520145234184e-16 0.5877852522924729
10 0.5877852522924734 -1.439658655611994e-16 0.8090169943749472
11 0.3090169943749477 -7.568733460868307e-17 0.9510565162951534
12 0.1564344650402307 -3.83153933775694e-17 -0.9876883405951378
13 0.4539904997395466 -1.111956024698686e-16 -0.891006524188368
14 0.7071067811865475 -1.731912112470986e-16 -0.7071067811865477
15 0.8910065241883678 -2.182336575733387e-16 -0.453990499739547
16 0.9876883405951377 -2.419138729729992e-16 -0.1564344650402311
17 0.9876883405951378 -2.419138729729992e-16 0.1564344650402306
18 0.891006524188368 -2.182336575733387e-16 0.4539904997395466
19 0.7071067811865477 -1.731912112470987e-16 0.7071067811865474
20 0.4539904997395471 -1.111956024698687e-16 0.8910065241883677
21 0.1564344650402312 -3.831539337756953e-17 0.9876883405951377
22 0.7992078694877049 0.5780185799751293 -0.1648068643972664
23 0.8270401387169577 0.5449027946027842 0.1381504737057077
24 0.6288340214409198 0.773221065666198 0.08183493806724519
25 -0.4735217590196605 -0.4087428334163417 0.7801964110823039
26 -0.1989052873936313 -0.5026521288800142 0.8412951467702916
27 -0.3360178933966197 -0.7195867407127893 0.6076898040181709
28 0.6385479995939614 0.6695577642318176 0.3794059205803728
29 0.5875178973633348 0.5011425707466226 0.6353572570320042
30 0.313512933949937 0.5159707398545494 0.7971724003376255
31 0.3224036827567881 0.7500173386219902 0.5775204386956772
32 0.8540890447602351 -0.2562577839257546 0.4526188813980371
33 0.9623426542277922 -0.1988325990227092 0.1853704761273555
34 0.8494980807250305 -0.4816551732820613 0.215316754794226
35 0.438599256052946 0.2589851802943099 0.8605564298625199
36 0.4858073254342108 0.5681673509038371 -0.6642116409107679
37 0.426281987499484 0.2947595598279179 -0.8552195443414176
38 0.7198163701156272 0.277706908048366 -0.6361943622319981
39 0.246797533312814 0.5216000832560146 -0.8167155751533266
40 -0.1698978167465725 0.3005331789850872 -0.9385172029291022
41 -0.1806098245449573 0.09747505435916926 -0.9787127796527011
42 0.07533064089257695 0.2582015539220064 -0.9631496519726178
43 -0.6624578126254249 -0.5081341840226956 0.5504083007360323
44 -0.6677509214182665 -0.2048669382420116 -0.7156383476033128
45 -0.6275072145701088 0.1672475495406302 -0.7604360281017187
46 -0.8286018289840671 -0.0001416216123017927 -0.5598383596606953
47 -0.1842617902146611 -0.8713224047651325 -0.4548020004586554
48 0.007016534669561737 -0.8033663349819454 -0.595443784129877
49 -0.2711346456549417 -0.6660150626120226 -0.6949172183069525
50 0.2000307937006922 0.7336986972828559 -0.6493642299795326
51 -0.04043116002939429 0.5679240734402654 -0.8220873238930846
52 -0.4638932635289141 0.6625156482387101 0.5881122817042126
53 -0.1894753514476551 0.6397260710902182 0.7448823028917124
54 -0.4322627898207181 0.439525041612035 0.7873795897356932
55 -0.1449007733135729 0.3885969536176947 0.9099429507019524
56 -0.9336702309067706 -0.3411442612653851 0.1089976739393666
57 -0.9932375949469078 -0.115368608183361 0.01300631500143061
58 -0.9735971192641657 0.0228242869475654 0.2271292611836993
59 -0.8799430947657362 -0.2849251164879428 0.3801550051866091
60 -0.8607887078830968 0.01886314626828339 0.5086128017399975
61 0.702809694060713 -0.7046243614922753 0.09779081309555852
62 0.8368008858768369 -0.5451155933549934 -0.05112012594834466
63 0.6073154541931512 -0.7158446257835462 0.3445785989219021
64 0.07859418416203019 -0.9719202955389465 0.2217969642159057
65 0.3120144687025622 -0.8591351647941705 0.4056275877382493
66 0.4464469217547265 -0.8915180275504988 0.07668606528044779
67 0.2310916008075427 -0.7605876431571112 0.606715014741615
68 0.4799873588420748 -0.6622852528619484 0.5753176333065018
69 -0.02115016071847518 -0.8638868102652528 0.5032417408674581
70 -0.6128559202580812 -0.5064042541389125 -0.6065990046106505
71 -0.7689871462996655 -0.542513277218739 -0.338139191557679
72 -0.5030353811742586 -0.7833532049877917 -0.3651207492354046
73 -0.2946269990912002 0.6309953640193624 -0.7176627216127268
74 -0.4245613521281786 0.7413766768619182 -0.5197194255406197
75 -0.5907797253794497 0.5093542574681874 -0.6257296193082229
76 -0.5929640154359915 -0.7863222153721354 0.1734677203697634
77 -0.7850859110615033 -0.5687268537611526 0.2453362550942481
78 -0.5436351707396634 -0.7312230305006715 0.4120360188142184
79 0.2935610954593512 -0.5198066245983378 0.8022611521545765
80 0.6187796065827953 -0.3362420566668151 0.709966955432231
81 0.4203950350484068 -0.25562255369213 -0.8705889526926947
82 0.6117122156970333 -0.767947269829323 -0.189908282938673
83 -0.7574340495998567 -0.6503858604150378 -0.05737502138520378
84 -0.4766294591522625 0.8214593194392323 0.3130957444211835
85 -0.2007894966981599 0.947288009745752 0.2496577749793336
86 -0.2102908245109703 0.8279916119110791 0.5198150245341021
87 -0.4473717155656334 -0.8925519424630016 -0.05665313863666159
88 -0.1759629057221606 0.9211550390733797 -0.3471461504892921
89 0.1270569415759151 0.9787020265479044 -0.1612416721210729
90 -0.2130842413894457 0.9751848502052209 -0.06008006326315715
91 -0.4925982030153676 -0.1124282988467444 -0.8629640131572451
92 0.09535694184666678 -0.3352536239848776 0.9372897424204842
93 0.002454176525730109 -0.6539755982529286 0.7565116614483247
94 0.3906497138301797 -0.2438604293177327 0.8876513347578371
95 -0.185603954160396 -0.9592342532112537 -0.2131216076944667
96 -0.8981408259822723 0.4119219121296256 0.1538291097658522
97 -0.8934420754721047 0.4076126702158628 -0.1887145168120143
98 -0.7181474240262671 0.6958854503920163 0.002778002364569493
99 -0.9876961756230703 0.1435355433376781 -0.0620790822928197
100 -0.9171001287199776 0.1681069057755215 -0.3614794906109895
101 0.9519887883249154 -0.283923634968904 -0.1144758332998888
102 0.7987801139892666 -0.5011162428772836 -0.332915665927348
103 0.8691249251361775 -0.2294590444019079 -0.4381442815434172
104 0.08696625371393177 0.9872850407847976 0.1330605837862008
105 0.5652149511908421 -0.6725590651329286 -0.4776990295760031
106 0.3810512264087572 -0.8816362429796829 -0.2784196435545661
107 0.3825347960662488 0.9237340865944864 -0.01955676512114177
108 -0.4889175678985956 0.8424051033498506 -0.2265242893162883
109 0.7108155808068699 -0.5169561763348757 0.4769670028748499
110 -0.440813352334168 0.8960288674550565 0.0530646501083497
111 -0.9256052388385987 -0.3413436082546109 -0.1635221175812722
112 -0.7902477991524217 0.3300431110085348 -0.5163138200848024
113 -0.7220791096107763 -0.201669037424059 0.6617638240400892
114 -0.1409188643247306 -0.9878489412707673 0.06554649424379973
115 0.1228187567159574 -0.9888238359166756 -0.08451611989305899
116 -0.2356358428183478 0.0699573371656174 0.9693202363285226
117 -0.4143817640856979 0.2069017032198089 0.8862727790008937
118 -0.6480936617248597 0.4235818405832567 0.6328925895917598
119 -0.9465149179317276 -0.06811085924121686 -0.3153893165377012
120 0.02581072741533205 0.1782207274489223 0.9836519601250578
121 0.178781083455737 0.3334799569090635 0.9256502809043607
122 -0.8452707163179681 -0.2963858319744423 -0.4446041551089316
123 -0.6974483459675618 0.6237163430797894 -0.3529075347485323
124 0.4880170980856073 0.8410810261680134 -0.2332852747094515
125 0.1608894821947621 0.8895644585561115 -0.4275390608972158
126 0.1760287219739529 -0.4218424777053736 -0.889417119828266
127 0.08196452345222596 -0.638824798577913 -0.7649736555052981
128 0.3976381319953644 -0.5354741596912149 -0.7450847873136482
129 -0.4887944842573869 -0.08585475450606568 0.8681641050448115
130 -0.6548946223467759 0.1515179590513628 0.740375135796836
131 0.9480976304497951 0.3024483588517682 -0.09816248450072855
132 0.9554985059897891 0.2467599597860815 0.1616543451245659
133 -0.7138857565978279 0.5923699052615868 0.3734501598167091
134 0.3886730341212998 0.8777541668629785 0.2801444182946032
135 0.08356194264868642 0.9065125282101378 0.4138265795461207
136 -0.1075013080802257 0.7902712331030588 -0.60325355108015
137 -0.8336549500717353 0.3041092213788906 0.4610173594271885
138 -0.2920647744309899 -0.9145504524724537 0.279813576187799
139 0.1038756177186319 -0.9241959322630157 -0.3675210671948859
140 0.3009593438909487 -0.7863496741423414 -0.5395161381283818
141 0.08855072559573333 0.5930988820722189 0.8002452655787182
142 0.03144502539786719 0.7741031499721124 0.6322780429375835
143 0.8791315186547367 0.2933195970579629 -0.3756213344441056
144 0.6555064278130174 -0.3374558250916488 -0.6755996515744601
145 0.6762915786848801 0.5930790332324856 -0.4369061237153044
146 0.8349735539876891 0.3236841955354585 0.4450255112931513
147 0.6948930114559744 0.2339509031900554 0.6799931452053061
148 -0.2418864898683959 -0.1711645739057993 -0.9550882758461611
149 0.09501919650354594 -0.2192577365637972 -0.971029040375591
150 -0.4151016251488904 -0.4181378233561235 -0.807992203847137
151 -0.3789969813469624 0.1132234343271776 -0.9184452852778164
152 -0.1196485885186403 -0.4248329928177913 -0.8973300081235307
153 -0.383567330812688 0.400415473234515 -0.8321920160201066
154 -0.2410798157543007 -0.2473347068135408 0.93845941054546
155 0.4214002607910653 0.7678607194450472 -0.4825056846696802
156 0.7257235605623089 0.6866930536401116 -0.04216590716661697
157 0.7366994019949359 0.6669951883136055 0.1113167097375845
158 0.8228135749791441 0.568151318848944 -0.01348702043618547
159 -0.4123274594943926 -0.5746985529176014 0.7069000208100965
160 -0.2715812177079425 -0.6205323165162078 0.7356516066367966
161 -0.3399725675177451 -0.4607924190547631 0.8198103438460946
162 0.6417135616538494 0.7305222310607067 0.2335400923088339
163 0.7430131927939183 0.6156983628306029 0.2623869686968138
164 0.4628723119443694 0.6364584514910661 0.616984491183424
165 0.3221371089197548 0.6413132300887637 0.6963799422513104
166 0.4563414530480994 0.5151332784004645 0.725527520990306
167 0.8634353185278704 -0.3739991337813641 0.3385322712083213
168 0.9167116190413481 -0.344296844338026 0.2027300927180455
169 0.91819087933254 -0.2300443441545486 0.3224982307440473
170 0.3801507835756964 0.3916970156807116 0.8378895092156293
171 0.5217079114215645 0.3864711354730227 0.7605661816083735
172 0.6136393464670583 0.430533780459593 -0.6618817238379169
173 0.5829279144015342 0.291167579088358 -0.7585621184183287
174 0.4627319736425051 0.4377903203665348 -0.7708558593941405
175 0.9633394346949556 -0.1001062854485905 0.2489093513214972
176 0.9135665845078444 -0.1296895682350009 0.3854564976254655
177 0.3781851919234427 0.1310088699367799 0.9164129181802909
178 0.5191968375212279 0.1310077124901597 0.8445540972466188
179 0.3401801960410858 0.4125952058222968 -0.8450104320976783
180 0.3701418187125524 0.5505949015182903 -0.7482247579853452
181 -0.04765759321958171 0.2815771157177139 -0.9583543612425469
182 -0.05325273730629403 0.1799097630670395 -0.982240613659682
183 -0.1762026503574425 0.2000815312354678 -0.9638049630840689
184 -0.5751060396536815 -0.4641822119963167 0.6736378234779166
185 -0.5091717242589954 -0.6260751026651546 0.5905710126969809
186 -0.7569374502883504 -0.1037045954182171 -0.6452062098586118
187 -0.7381530327187007 0.08471188887371182 -0.6692936546626097
188 -0.6594480631875262 -0.01915296443862465 -0.7515060983860564
189 -0.2308166502024897 -0.7791960070420477 -0.5827325772590979
190 -0.1338466081346313 -0.7446354791435094 -0.653913670671879
191 -0.08930603975941855 -0.8438015376859959 -0.5291723691399979
192 0.2255437483814064 0.6336321472581735 -0.7400272424222376
193 0.1042929682959483 0.5506212399049047 -0.8282144812363555
194 0.08097370388056314 0.6603850796913614 -0.746548595739686
195 -0.4532306787111554 0.5573567772726891 0.6956546375201043
196 -0.3148629415634592 0.5465583619139526 0.7759737656982628
197 -0.3308630857445399 0.6594496640428557 0.6750227841231481
198 -0.292265339222344 0.4193462153760164 0.8594938761498303
199 -0.1691509835646338 0.5201981785503118 0.8371271108929963
200 -0.9717838874574993 -0.1621892295646006 0.1712621671334083
201 -0.9915481293252412 -0.04665473307849071 0.121060493609557
202 -0.9712228707174628 -0.230097015351032 0.06149389337062176
203 -0.9159632298652698 -0.3161955865945315 0.2470459725494895
204 -0.9418300132356172 -0.1331799687358158 0.3085762824588507
205 -0.8824902837911489 -0.1348841350792198 0.450574265929767
206 -0.9279231013932223 0.02108756606505776 0.3721747337719682
207 0.776193567094444 -0.6300554998347039 0.0235289933750742
208 0.8511861314680833 -0.5182788189211148 0.08288085094961931
209 0.7845388424704931 -0.5995475821067442 0.1582450676798987
210 0.74055962391374 -0.6087395398084442 0.2846183692289442
211 0.6608832654520487 -0.7165454262406882 0.223150087562133
212 0.2680329590101352 -0.9512833986559088 0.1523752877796609
213 0.3854143267121197 -0.8895994310628517 0.2450890634395873
214 0.1978177228527876 -0.9273097739230722 0.3177494794835676
215 0.4008278619203879 -0.7699826842340923 0.4964510963710247
216 0.3588105168848152 -0.7179818110967051 0.5964537969592842
217 0.2734982437900378 -0.8156626638345873 0.50979714541181
218 0.1476744424782211 -0.874793855967176 0.4614411865024907
219 0.02909101268240397 -0.92969615629159 0.3671767557427291
220 -0.5684948084008129 -0.6570715433202182 -0.4950460986414391
221 -0.6465604674260944 -0.6739289862911795 -0.3574622824834717
222 -0.6995218140876703 -0.5309869927498039 -0.4782489363772957
223 -0.4489741269350684 0.5782511715327278 -0.6812105518589101
224 -0.513657507261099 0.632740414245203 -0.5794786738225342
225 -0.362701719861675 0.6921159090991477 -0.6240376837829934
226 -0.5727837191767549 -0.7647596624406661 0.2950618066603726
227 -0.6739042470381872 -0.6593119955267901 0.3334077959172161
228 -0.6968584451255933 -0.6852272687863477 0.211782665883549
229 0.5595257383877136 -0.5084806403406387 0.6545062157691537
230 0.4648500201561196 -0.4361684684789424 0.7705008279460763
231 0.3920312461760626 -0.5990794102663661 0.6981513891818496
232 0.5103257295921784 -0.1293923000192973 -0.8501913210636338
233 0.3686073112274068 -0.129178486787543 -0.9205658958819745
234 0.7353314100864851 -0.6665706824939495 -0.1223570291392039
235 0.6652145201412926 -0.7451956668290183 -0.04661609520803676
236 -0.7809919248384449 -0.6172478862647981 0.09516648695197177
237 -0.6836969946435431 -0.7273951429793567 0.05877691286064887
238 0.1061041752938093 -0.8210076204732019 0.5609709360654539
239 -0.3484486920030707 0.8367041026758169 0.422504146259898
240 -0.207820694551024 0.897488458970309 0.3890051733993133
241 -0.3428462290130513 0.8951747609818527 0.2848132906881514
242 -0.609404853764692 -0.6262123339541936 0.4862960384494981
243 -0.4443780958153713 -0.7329117692043745 0.5151392496415101
244 -0.7720034651785463 -0.6033212001613187 -0.2000354448297179
245 -0.6446681493277451 -0.7332870495276381 -0.2160858168353291
246 -0.4818863705725226 -0.8497367619613789 -0.2138526624286738
247 -0.6144076905399322 -0.7868428916281274 -0.05815026826828706
248 -0.196666728715167 0.9586163664876248 -0.2058564055805367
249 -0.04370722524502339 0.9926962023758931 -0.1124452233305661
250 -0.02485931321752884 0.9657133375713335 -0.2584178093382661
251 -0.5846443162329755 -0.1598698641861607 -0.7953820780113008
252 -0.5676920962090218 0.02778350577582587 -0.8227719980095405
253 0.04980323031966551 -0.5036933593426409 0.862445730468794
254 0.149986210057015 -0.5947367034719516 0.7898052863434435
255 0.1967239918617972 -0.4325098073331967 0.8799062095397217
256 0.3461470748787258 -0.3863445495238346 0.8549386478608434
257 0.2460364157937198 -0.2931711826290027 0.9238596970207608
258 -0.3488053314974464 -0.8397527279419165 -0.4161132017048559
259 -0.1864810235314762 -0.922940511261944 -0.3367575396842577
260 -0.3511821172290753 -0.8886590144168549 -0.294883496713818
261 0.5820305364500777 -0.8083517624878878 0.08836222452134242
262 0.5355541713985206 -0.8169107130712563 0.2140995477974105
263 -0.822227108189949 0.5635561875258901 0.07966809938035212
264 -0.8213952727606804 0.5624311526289656 -0.09476816152516974
265 -0.9092311066973101 0.4159150741379643 -0.01770439828959035
266 -0.951899564782498 0.2788937731221136 -0.1269073752017653
267 -0.9582123782590333 0.282233410932098 0.04661909377927491
268 -0.9929372646535144 0.08422242367434921 0.08355939093133226
269 -0.9554738085168242 0.2219266899116085 0.1944693948754714
270 -0.9153696066425294 0.2910709292450869 -0.2781657732063788
271 -0.9639415671600461 0.1577098349607416 -0.2143461290942528
272 0.9041101007861378 -0.419022287016535 -0.08369736339880697
273 0.8263873172068895 -0.5286150428448417 -0.1940364358509654
274 0.888630632241011 -0.3984594894636042 -0.2270806788331957
275 0.9191217974548019 -0.3905996665432391 0.05144921709573898
276 0.9238870202582974 -0.2604491912779471 -0.2803551186636473
277 0.9188662300911914 -0.1158357965259273 -0.3771828726774397
278 0.9659331726568883 -0.1441117859107102 -0.2149532486905555
279 -0.06408851361053207 0.997254877254851 0.03708601103657554
280 0.1082125876078284 0.9940256590949518 -0.01424868218695342
281 -0.3204150079138242 -0.9373821410837039 -0.1365611375205814
282 0.5010356565243387 -0.8325247720432404 -0.2363594187367526
283 0.4802293932387615 -0.7887529824671257 -0.3837296737532099
284 0.59550876967797 -0.7288761610585017 -0.3378000104755053
285 0.238190159871827 0.9695099759238198 0.0575834553012208
286 0.25765775437501 0.9619022063077364 -0.09141458915696082
287 0.6911207208458403 -0.5946878735986284 -0.4107292078879562
288 0.7166828937944744 -0.64482173461931 -0.2656512004582748
289 -0.169801812504055 -0.6992168600698392 0.6944516736709708
290 -0.09910445411917741 -0.5834884771595575 0.8060517999457357
291 -0.3564525713245283 0.9229101748546902 -0.1455279132875098
292 -0.3374850305909188 0.895161118769918 -0.2911879557427391
293 0.6647227490210015 -0.6216914073185758 0.4142987581446647
294 0.6017591719392719 -0.5959166897582262 0.5317604703760517
295 0.5486337859626609 -0.6953799841268743 0.4641633834933398
296 -0.9995923197411999 0.01421322230414717 -0.02476244386444361
297 -0.3298866513420174 0.9440139147003935 -0.003539225676365408
298 -0.4697863775392738 0.8784182390440336 -0.08764791379893619
299 -0.9700038197529527 -0.2308748724348056 -0.07608799473565848
300 -0.9383977595996167 -0.3444594941056205 -0.02751911515510232
301 -0.8560963470180565 -0.5044540440561975 -0.1123617464161505
302 -0.8623560373471023 -0.5056175402657369 0.02632428207243231
303 -0.8210413271771121 0.1673180460889308 -0.5457983240357456
304 -0.7190690587081713 0.252220111178839 -0.6475528583254642
305 -0.8123782324721792 -0.2467497002266411 0.5283523377855356
306 -0.7836525219417098 -0.4029321546145062 0.4727942508450264
307 -0.7019768646240041 -0.3598787666033844 0.6145858401238019
308 0.2551869484423764 0.2813096226812903 -0.9250646018152343
309 0.3728027098710067 0.149445552588836 -0.9157970115283471
310 0.1951587545901708 0.1311060328538032 -0.9719692735144208
311 -0.7341015959515657 -0.5461150454520952 0.4035507452009228
312 -0.8439556433670302 -0.4326918001078117 0.3170436533797887
313 -0.164928846483906 -0.9834846665968803 -0.0745411709480841
314 -0.2985795642738777 -0.9543740724695545 0.004513711986696803
315 -0.03184375462747843 -0.9880272152550151 -0.1509576006918662
316 -0.009156050364629442 -0.9999120388404914 -0.009595901394453727
317 -0.6978725287586852 0.4241713896113715 -0.5771070661836644
318 -0.6198133317687585 0.3442266403186273 -0.7052229816566256
319 -0.2834288623283161 0.3017821861743579 0.9102722626264637
320 -0.3273744775529059 0.139437120993797 0.934549752948404
321 -0.1930213583041705 0.2325946264065071 0.9532274099107885
322 0.1635404949064534 0.395895658576088 -0.9036155897539383
323 0.7913135771785293 -0.3909853002041495 0.470056717425877
324 0.7889775820328329 -0.5049510155783554 0.3500554911953415
325 -0.5625735802850249 0.5494756628417248 0.6177276606320424
326 -0.5450165153163226 0.4354187959044814 0.7164966644762166
327 -0.938731368049436 0.0503695362040221 -0.3409491581784975
328 -0.8812053884880469 0.08478647390544337 -0.4650680779652717
329 -0.8963725633013454 -0.03446514226213104 -0.4419597060020593
330 -0.1059814812829911 0.125353339419237 0.9864352314883672
331 -0.06014060959472731 0.2862435782210042 0.9562675990562529
332 0.0380171854032686 0.1303068211096587 -0.9907445816083522
333 0.1029526444930322 0.2574928997365775 0.9607799745920708
334 0.01717370524890528 0.3660160127340142 0.930450075108986
335 -0.3050234548368932 0.8444474326245681 -0.4403058318182274
336 -0.4625765263911811 0.8020111448554584 -0.3778903025475856
337 -0.8477415051528218 -0.1501778797485447 -0.5087051649781628
338 -0.9048794981719879 -0.1840764747344839 -0.3838084746814956
339 0.49573675920756 -0.1235550477187082 0.8596390031598226
340 0.510630717484321 -0.2934511041461922 0.808172456742265
341 0.6128430709005833 -0.1707853606524783 0.7715281790290913
342 -0.8608367121093207 0.2511648713100725 -0.4425792160784432
343 -0.7197876491668828 0.6709776144383465 -0.1780302812148494
344 -0.8068285441316088 0.5230439979423668 -0.2746865060226549
345 0.3305888314053467 0.8816863409285973 -0.336660393824383
346 0.1454349888102253 0.9436176070448936 -0.2973793464661567
347 0.3136509360848951 0.9279804074804984 -0.2011851227735222
348 -0.6013014085484046 0.7430935772322138 -0.293681037103073
349 -0.6133157775028846 0.7816131470179063 -0.1136866107982685
350 0.2898510763399343 -0.4836940740563841 -0.8258488943307478
351 0.2431909171827538 -0.5954488313700105 -0.7657015521859022
352 0.1301638214866968 -0.5351322503767757 -0.8346800909226644
353 -0.5791491736022398 0.0332509861542694 0.814543188932061
354 -0.7004470683168796 -0.02551114447851205 0.7132482639261627
355 -0.6139716709705451 -0.1457885148945996 0.7757477013633131
356 0.4387803245774849 0.8895117605270552 -0.1274388270808227
357 -0.7554149039830977 0.4842952028856646 -0.4413688698833892
358 -0.8552035795343667 0.3746805596891811 -0.3581079666003095
359 0.9603179613621463 0.2770622417336319 0.03203009976234428
360 0.9888120412873695 0.1247759682744233 0.08174169527411
361 0.9869391142440843 0.1532254393845861 -0.0497307701579511
362 -0.8178288461051622 0.5095069938954311 0.2675043955712509
363 -0.7296546482605993 0.656396458627872 0.1916971136258697
364 0.2416143269026127 0.947399015026069 0.2098990789951961
365 0.3901149844797949 0.9112816734072604 0.131818096619518
366 -0.6038026445080436 0.7170625066049658 0.348200700898916
367 -0.6105340977805204 0.7753671276317177 0.1614123069516867
368 -0.05762185210928476 0.9793578120746904 0.19374725311026
369 -0.05943267897223954 0.9398501328825785 0.3363769974162655
370 0.08618874951744569 0.9571674819322284 0.2764089560563046
371 0.2394877675231256 0.9048674250934573 0.3519382789801727
372 -0.1433065327923561 0.8652187939544692 -0.4804785908310663
373 -0.007653289162189916 0.9193637982628576 -0.3933339975246119
374 0.02707851580951674 0.8520137294149964 -0.52281866729288
375 -0.7688480298625101 0.08642780093843201 0.6335636844086658
376 -0.8006268456606389 -0.09246464068993356 0.5919855946132279
377 -0.8780718622308165 0.3630490381768075 0.3117454099700604
378 -0.7841412670995287 0.4542473585751327 0.4228259812961596
379 -0.5693308090979563 0.6926762886777366 -0.4427888762327973
380 -0.652226727793258 0.5736708790869671 -0.4954816021202863
381 -0.8563003796868879 0.1632166167026488 0.4900101996695909
382 -0.7569931444549115 0.2317065272153739 0.610961099002266
383 -0.1815792210138862 -0.8050157077878858 0.5647819904270669
384 -0.009477736542551201 -0.7694647079002166 0.6386190067685618
385 -0.658580519760487 0.2906776135960229 0.6941024592566489
386 -0.7482288579998359 0.3674573729537384 0.552384517449755
387 -0.4239554047768538 -0.8349103852129647 0.3509792920159721
388 -0.3199944279874562 -0.8325572781604981 0.4521636259574222
389 -0.6896764389394567 0.5144556318417045 0.5095898472675279
390 0.1557465083553059 -0.8039354213547392 -0.5739606810804279
391 0.2046664811695205 -0.8647754846840382 -0.4585575128325488
392 0.05597994317750361 -0.872098119418126 -0.4861184177432608
393 0.3446285264551541 -0.8428542808553604 -0.4133132468203049
394 0.2451307609236683 -0.9128490628607033 -0.326523350594286
395 0.4378528782302647 -0.7374813524183895 -0.5142043483486075
396 0.04483615522477636 -0.7266974218218851 -0.6854929440206404
397 0.194414005452945 -0.7235743220532168 -0.6623015891185601
398 -0.8150876564249967 -0.4235855526703121 -0.3952308084051558
399 -0.8575944419777058 -0.4472997513344925 -0.2538793129521362
400 -0.8952822290634636 -0.3224098408051299 -0.307443693828914
401 0.2063088058556465 -0.171044097127942 0.9634212959365722
402 0.3529419937591132 -0.1230136936815928 0.9275233583086484
403 0.8434763209894314 -0.3694592564113618 -0.3899327554618837
404 -0.3959087710507198 -0.7412035983562429 -0.5421009784061138
405 0.2088706409801581 0.6826488297129994 0.7002596879929689
406 0.1789086183225874 0.7706069980968796 0.6116833827839517
407 0.06048551411145318 0.6891570502928474 0.7220831410677964
408 0.2057886219975225 0.8397139493094775 0.5025251500088737
409 0.0579983599476481 0.8475395421033872 0.527553707990536
410 -0.588335307312578 0.8081200145073558 0.02834798620793601
411 -0.4630514787538992 0.8668501564639669 0.1848083717319739
412 0.3604903987079595 0.8252217870302401 0.434805329601643
413 0.4894711765371983 0.7230759969918539 0.4874208345090792
414 0.5211994493009895 0.7850872401499158 0.3346478139808083
415 0.6205625220617651 0.5925397274776967 0.5136135001856925
416 0.9661364690656283 0.1538613334765731 -0.2071400811098878
417 0.9262348191643348 0.1484453065751663 -0.3464867251763289
418 0.9231047661041686 0.300978254348628 -0.2393526294090391
419 -0.1591314507597245 -0.9035498309477311 0.3978377613719342
420 -0.1087106490833299 -0.9606918650229386 0.2554469323648833
421 0.7425963811709252 -0.4281966209032073 -0.514974046451781
422 0.6229152511344467 -0.5153949867800134 -0.5885104905659195
423 0.7733848063839802 -0.2875733505882354 -0.5649579712561539
424 0.4887119114268151 -0.6131571230132651 -0.6206440285120324
425 0.5340022450216507 -0.4426235385060335 -0.7203651889647602
426 -0.606871671904848 -0.3098372394391298 0.7319205277187912
427 -0.5974262243342039 0.6365383704309353 0.4877507657061207
428 -0.4763168912675866 0.7515420162399249 0.4564064163869858
429 -0.09078936813198117 0.04899898782469964 -0.9946639582423557
430 0.04844400354344927 -0.1703182530160527 0.9841975773239041
431 0.8533556032769946 0.4430339423442314 -0.2747819868308055
432 0.885071769692938 0.4459875114749654 -0.1332032360754735
433 -0.2697628608315096 0.7765659063857537 -0.569362267765675
434 0.8406357147011762 -0.1295283886108584 0.5258840097518818
435 -0.2029366199534008 0.7172512706242806 -0.6666088381275364
436 -0.202080858800103 0.7419278260492368 0.6393015152809091
437 -0.3412272251077896 0.7543958177100116 0.5607592451907333
438 0.3015357252607183 -0.3425080023657797 -0.8898114826787165
439 0.4139399837239873 -0.4003096376219175 -0.8175609358950525
440 -0.07492604877609098 0.6879098894646593 -0.7219183272306662
441 -0.1692190913618261 0.6055069912502242 -0.7776414229359049
442 0.7461323455051587 0.5922020574391199 -0.304274951574795
443 0.5924957813991283 0.7298183050588238 -0.3410483699203121
444 0.6578039967435209 0.7251952193391165 -0.2034349913754779
445 0.1821768769859109 0.819352726923817 -0.5435740008261665
446 0.04685354152812796 0.7716825392700655 -0.6342797523427466
447 -0.4568476796279944 0.06122837900949304 0.8874352276208035
448 -0.5402177385175984 0.1810800854196191 0.8218118991930909
449 -0.7406685506219075 -0.4077844506917783 -0.5339681075622846
450 -0.4267616025650322 0.3258393528812897 0.8436250652333819
451 -0.5529706590320772 0.3006275208495586 0.7770756359309423
452 0.7229951502116255 0.4192262464707944 0.5491150763186872
453 0.6481216130274499 0.371511162902093 0.6647690054190485
454 0.7729837424149451 0.2817519352674865 0.5684293983734585
455 0.573886393196277 0.2495732164532962 0.7799792416041111
456 0.7521999257388089 0.5070278928473203 0.4208538791473075
457 0.3477019689012028 0.660011999290905 -0.6659485727999193
458 -0.869485833653124 -0.4602863813244483 0.1792507524217861
459 0.6480861775028645 0.1182060621567691 0.7523374464953315
460 0.7592271252817592 0.1181067158256716 0.6400195121348021
461 -0.09616463067346655 -0.6633153368949177 -0.7421355183842218
462 0.0478574819573535 -0.1104316133763613 -0.9927308397485168
463 -0.074522863511661 -0.1981066572988028 -0.9773433865064607
464 -0.1223244942337513 -0.08655969146997025 -0.988708317919436
465 -0.4505261847446169 -0.5975240257809032 -0.6633183213767292
466 -0.5196915002370656 -0.4674090495590131 -0.7151569932341346
467 -0.347264732153634 -0.548627459050384 -0.7605360721084727
468 -0.2132971243182388 -0.03720212952274699 -0.9762788220157921
469 -0.3144376292201798 -0.02934346847364845 -0.9488245033663121
470 -0.2813280294494399 0.1059232840022916 -0.9537477642187503
471 -0.921468951338401 0.1666945536743336 0.3508673502830128
472 -0.2706189240540315 -0.4265989044069178 -0.8630056620339497
473 -0.3332191392551124 -0.2988894823027743 -0.8942203769781035
474 -0.1826639781288088 -0.3011250996128099 -0.93592603632837
475 -0.0902615815073106 0.8085602661581354 0.5814491748158943
476 -0.07981271304293121 0.7140499468235461 0.6955304481315091
477 -0.4932174141955218 0.4605281775512015 -0.7380043224911709
478 -0.5132307097807349 0.2881509552639978 -0.8084325980058007
479 0.4206667279507554 -0.901400210733132 -0.1025532256219686
480 0.5367601987866073 -0.8417778492619947 -0.05743293036588275
481 0.2897557235114182 -0.9570923343937335 -0.003985490826543681
482 0.2556619614998797 -0.949065252334153 -0.1841524049637814
483 0.2482651223188865 0.4283801421094643 0.8688238503208021
484 0.202468536333166 0.5584978838844393 0.8044169351099645
485 0.1352174672407656 0.4686671752623933 0.8729646701811944
486 0.3117165161331086 0.2991367827591185 0.9018591901014046
487 -0.05099114129538258 0.6228722757061603 0.7806599974803521
488 -0.06420252575014053 0.8787227116930784 0.4729951708443392
489 -0.9807666754704121 0.03824505862684256 -0.1914002188539621
490 -0.9837793818967354 -0.09305481800140704 -0.1533588230314844
491 0.1180500186867809 -0.7150170685543695 0.6890680552485121
492 0.2656721786130998 -0.6483625015533544 0.7134734473618802
493 0.5875914354800088 0.5871603762657932 -0.5567575751563286
494 0.7106987268612265 0.4432798053822893 -0.5462694699304287
495 -0.01246163604782412 -0.3258880384222191 -0.9453262368306139
496 -0.02856456643252779 0.4976342887145922 0.8669164782376926
497 0.2479237679017509 0.1694914580317514 0.9538377487621623
498 -0.4597782337099988 -0.2687482656311067 -0.8463913666423978
499 -0.3707246617405023 -0.1431409978204163 -0.9176458357778156
500 -0.4880535077058775 -0.2508427862200198 0.8359914295119097
501 -0.3620907502945028 -0.3324364473564917 0.8708480332527361
502 -0.3692256779986346 -0.1685524545195818 0.9139269493684234
503 -0.2221242494184226 -0.3786270529621036 0.8985000682167669
504 0.1145655896804464 -0.9667916919354185 -0.2284481343014702
505 0.3137905726133789 0.7582099185136706 -0.5715358221550604
506 0.294314751719033 0.8377353124150051 -0.4599764920661683
507 0.02850353583627185 -0.4280451843002077 -0.9033077375082268
508 -0.01909175973774591 -0.5388776120813589 -0.8421676934599241
509 0.4588518799736814 0.8118010257189369 -0.361156540694337
510 0.9022696478035507 0.4306928961081398 0.02032515422917544
511 0.9033120616607488 0.4011798100033228 0.1519278753353227
512 -0.3248419161205427 0.9332667199192489 0.1532676059129931
513 -0.3667636976068566 -0.008048524955765149 0.9302793190025148
514 0.5157594220262731 0.8368551618921637 0.1834820334680354
515 0.5117066711559357 0.8585822076307726 0.03150992596595292
516 0.5672683602152675 0.8199324731080403 -0.07692429422239927
517 0.9632784017286918 0.1246743665380812 0.2378045901393518
518 0.9067271251502534 0.2888831390197569 0.3072335471703058
519 0.9086823249163339 0.1646814979387522 0.3836358124853502
520 -0.2185261556518736 -0.9601379563067093 0.174302679713161
521 -0.0314500637261137 -0.9889319483909652 0.1449982584146187
522 -0.3762567393721571 -0.9195305668957929 0.1135535231568545
523 0.1019380491491117 -0.9923614181386538 0.06947985265897773
524 0.8089872834301152 0.2889107170889834 -0.5119278980476567
525 0.8587963278562503 0.1492177915019873 -0.4901050070749016
526 0.7729094369915566 0.1403961314121698 -0.6187890823971378
527 -0.04067091281977445 -0.9084319788354714 -0.4160495363288796
528 -0.04143186915591272 -0.9547977654539505 -0.294354594498524
529 0.6642126676165795 0.1410647119500045 -0.7341132604851444
530 0.835237009526955 0.1644492541513925 0.5247242901996438
531 0.7290160406405052 -0.1716812133350336 0.6626169130626323
532 0.7485074420631858 -0.3011066463397093 0.59082264403633
533 -0.2414456316940342 -0.08983760086903568 0.9662469727797157
534 -0.2094889838620758 0.9730911842691022 0.09595786960010715
535 0.9879242856426081 -0.1436970621611066 -0.05793755400264646
536 0.5556667462226391 0.68892647005229 -0.4654189360174728
537 0.544803525577641 -0.3003167138056873 -0.7829425201936127
538 0.6325126804923954 -0.1716774043387646 -0.7552844350678949
539 0.8462905905547854 0.4422809511491347 0.2969508319386381
540 0.7459208826588439 -0.1718752620116344 -0.6434756647472251
541 0.8474444917149844 -0.1158744686559227 -0.5180839130639354
542 -0.05259465555365603 -0.4255921639845803 0.9033853619370387
543 -0.07398836052344854 -0.2957995152030092 0.9523803700794745
544 0.1364526717968753 -0.3227467586468103 -0.9365976714376734
545 0.01773863258913081 0.4199013456301617 -0.9073963857388057
546 -0.106529014546579 0.4398628125084559 -0.8917243269261447
547 -0.5089878061187215 0.1418337959622346 -0.8490080020502716
548 -0.3856423791992464 0.2597563604837605 -0.8853285201289831
549 0.4662063803308823 -0.7986965386123103 0.3804411257310269
550 -0.4394884281570434 0.0004009348017718551 -0.8982481621285602
551 0.3544100284819502 -0.6705830449826997 -0.6516992492654521
552 0.9905409265214115 -0.1003656657181098 0.09357032665896027
553 0.9690185083944436 -0.2443671536611622 0.03588627314934631
554 0.7911522420282707 0.4508588466279906 -0.4132849263533797
555 0.45803628793046 0.6745416894712124 -0.5789613701312094
556 -0.5495825153494434 -0.3161949658235844 -0.7732915377850718
557 -0.6489455239372194 -0.3604355697466634 -0.6700417203601922
558 -0.5258137009571451 -0.8485482215656247 0.05904123612836598
559 -0.4492064489820086 -0.863297307433194 0.2300680881208244
560 -0.2790774725449812 0.3534440770262095 -0.8928566787189286
561 -0.2159747738948837 0.4932491958431349 -0.842650655871788
562 -0.2772058171747942 0.2089576008063332 -0.9378132308672744
563 -0.1984435256247323 -0.5539432480980523 -0.8085586218847746
564 0.2615702649695544 -0.2409994830314288 -0.9346123504760362
565 0.6728714717441995 -0.4317801058354375 0.60067455640932
566 -0.9477609783839338 -0.2072863567619427 -0.2424489516436178
567 -0.1187321091029254 0.03525007948515487 0.9923004172952168
568 0.01295843362624461 0.08947680668991992 0.9959046038966428
569 0.5144899508979471 0.1495471163171371 -0.8443552276300874
570 -0.3422864923821983 0.5205558084489555 -0.7822158317387508
571 0.1698305682268191 0.09039671879798987 0.9813185065646693
572 -0.767462810056299 -0.2542546980057712 -0.5885196544912354
573 0.2044414927445165 -0.1109439697998913 -0.9725713915232314
574 -0.122438358132937 -0.1256150595469377 0.9844946446135346
$EndNodes
$Elements
298
1 15 2 0 1 1
2 15 2 0 2 2
3 8 2 0 2 2 3 12
4 8 2 0 2 3 4 13
5 8 2 0 2 4 5 14
6 8 2 0 2 5 6 15
7 8 2 0 2 6 7 16
8 8 2 0 2 7 8 17
9 8 2 0 2 8 9 18
10 8 2 0 2 9 10 19
11 8 2 0 2 10 11 20
12 8 2 0 2 11 1 21
13 9 2 0 1 22 24 23 156 157 158
14 9 2 0 1 25 27 26 159 160 161
15 9 2 0 1 23 24 28 157 162 163
16 9 2 0 1 29 31 30 164 165 166
17 9 2 0 1 32 34 33 167 168 169
18 9 2 0 1 29 30 35 166 170 171
19 9 2 0 1 36 38 37 172 173 174
20 9 2 0 1 32 33 8 169 175 176
21 9 2 0 1 35 11 10 177 20 178
22 9 2 0 1 36 37 39 174 179 180
23 9 2 0 1 40 42 41 181 182 183
24 9 2 0 1 27 25 43 159 184 185
25 9 2 0 1 44 46 45 186 187 188
26 9 2 0 1 47 49 48 189 190 191
27 9 2 0 1 50 39 51 192 193 194
28 9 2 0 1 52 54 53 195 196 197
29 9 2 0 1 53 54 55 196 198 199
30 9 2 0 1 56 58 57 200 201 202
31 9 2 0 1 58 56 59 200 203 204
32 9 2 0 1 59 60 58 205 206 204
33 9 2 0 1 61 62 34 207 208 209
34 9 2 0 1 61 34 63 209 210 211
35 9 2 0 1 64 66 65 212 213 214
36 9 2 0 1 65 68 67 215 216 217
37 9 2 0 1 65 69 64 218 219 214
38 9 2 0 1 70 72 71 220 221 222
39 9 2 0 1 73 75 74 223 224 225
40 9 2 0 1 76 78 77 226 227 228
41 9 2 0 1 68 80 79 229 230 231
42 9 2 0 1 4 81 3 232 233 13
43 9 2 0 1 82 62 61 234 207 235
44 9 2 0 1 76 77 83 228 236 237
45 9 2 0 1 69 65 67 218 217 238
46 9 2 0 1 84 86 85 239 240 241
47 9 2 0 1 43 78 27 242 243 185
48 9 2 0 1 83 71 72 244 221 245
49 9 2 0 1 83 72 87 245 246 247
50 9 2 0 1 88 90 89 248 249 250
51 9 2 0 1 91 44 45 251 188 252
52 9 2 0 1 92 93 79 253 254 255
53 9 2 0 1 92 79 94 255 256 257
54 9 2 0 1 72 47 95 258 259 260
55 9 2 0 1 66 61 63 261 211 262
56 9 2 0 1 96 98 97 263 264 265
57 9 2 0 1 96 97 99 265 266 267
58 9 2 0 1 99 58 96 268 269 267
59 9 2 0 1 99 97 100 266 270 271
60 9 2 0 1 101 62 102 272 273 274
61 9 2 0 1 62 101 34 272 275 208
62 9 2 0 1 101 103 6 276 277 278
63 9 2 0 1 90 104 89 279 280 249
64 9 2 0 1 87 72 95 246 260 281
65 9 2 0 1 82 106 105 282 283 284
66 9 2 0 1 89 104 107 280 285 286
67 9 2 0 1 105 102 82 287 288 284
68 9 2 0 1 26 27 93 160 289 290
69 9 2 0 1 108 90 88 291 248 292
70 9 2 0 1 63 109 68 293 294 295
71 9 2 0 1 57 58 99 201 268 296
72 9 2 0 1 110 90 108 297 291 298
73 9 2 0 1 57 111 56 299 300 202
74 9 2 0 1 56 111 83 300 301 302
75 9 2 0 1 46 112 45 303 304 187
76 9 2 0 1 113 59 43 305 306 307
77 9 2 0 1 42 37 3 308 309 310
78 9 2 0 1 78 43 77 242 311 227
79 9 2 0 1 77 43 59 311 306 312
80 9 2 0 1 87 95 114 281 313 314
81 9 2 0 1 114 95 115 313 315 316
82 9 2 0 1 45 112 75 304 317 318
83 9 2 0 1 55 117 116 319 320 321
84 9 2 0 1 42 39 37 322 179 308
85 9 2 0 1 32 109 34 323 324 167
86 9 2 0 1 63 34 109 210 324 293
87 9 2 0 1 52 118 54 325 326 195
88 9 2 0 1 119 100 46 327 328 329
89 9 2 0 1 55 116 120 321 330 331
90 9 2 0 1 2 42 3 332 310 12
91 9 2 0 1 55 120 121 331 333 334
92 9 2 0 1 108 88 74 292 335 336
93 9 2 0 1 46 122 119 337 338 329
94 9 2 0 1 10 94 80 339 340 341
95 9 2 0 1 100 112 46 342 303 328
96 9 2 0 1 97 98 123 264 343 344
97 9 2 0 1 124 125 89 345 346 347
98 9 2 0 1 108 123 98 348 343 349
99 9 2 0 1 126 128 127 350 351 352
100 9 2 0 1 129 130 113 353 354 355
101 9 2 0 1 107 124 89 356 347 286
102 9 2 0 1 97 123 112 344 357 358
103 9 2 0 1 131 132 7 359 360 361
104 9 2 0 1 98 96 133 263 362 363
105 9 2 0 1 107 104 134 285 364 365
106 9 2 0 1 133 84 98 366 367 363
107 9 2 0 1 104 85 135 368 369 370
108 9 2 0 1 104 135 134 370 371 364
109 9 2 0 1 136 88 125 372 373 374
110 9 2 0 1 113 130 60 354 375 376
111 9 2 0 1 133 96 137 362 377 378
112 9 2 0 1 123 74 75 379 224 380
113 9 2 0 1 137 60 130 381 375 382
114 9 2 0 1 93 27 69 289 383 384
115 9 2 0 1 137 130 118 382 385 386
116 9 2 0 1 27 78 138 243 387 388
117 9 2 0 1 133 137 118 378 386 389
118 9 2 0 1 79 80 94 230 340 256
119 9 2 0 1 48 140 139 390 391 392
120 9 2 0 1 139 140 106 391 393 394
121 9 2 0 1 105 106 140 283 393 395
122 9 2 0 1 48 127 140 396 397 390
123 9 2 0 1 74 123 108 379 348 336
124 9 2 0 1 122 71 111 398 399 400
125 9 2 0 1 125 88 89 373 250 346
126 9 2 0 1 11 92 94 401 257 402
127 9 2 0 1 82 102 62 288 273 234
128 9 2 0 1 102 103 101 403 276 274
129 9 2 0 1 11 94 10 402 339 20
130 9 2 0 1 47 72 49 258 404 189
131 9 2 0 1 141 31 142 405 406 407
132 9 2 0 1 142 31 135 406 408 409
133 9 2 0 1 110 98 84 410 367 411
134 9 2 0 1 71 83 111 244 301 399
135 9 2 0 1 135 31 134 408 412 371
136 9 2 0 1 134 31 28 412 413 414
137 9 2 0 1 28 31 29 413 164 415
138 9 2 0 1 131 6 143 416 417 418
139 9 2 0 1 64 69 138 219 419 420
140 9 2 0 1 144 102 105 421 287 422
141 9 2 0 1 144 103 102 423 403 421
142 9 2 0 1 144 105 128 422 424 425
143 9 2 0 1 113 43 25 307 184 426
144 9 2 0 1 133 52 84 427 428 366
145 9 2 0 1 41 42 2 182 332 429
146 9 2 0 1 92 11 1 401 21 430
147 9 2 0 1 143 22 131 431 432 418
148 9 2 0 1 88 136 74 372 433 335
149 9 2 0 1 8 9 32 18 434 176
150 9 2 0 1 52 133 118 427 389 325
151 9 2 0 1 73 74 136 225 433 435
152 9 2 0 1 59 113 60 305 376 205
153 9 2 0 1 52 53 86 197 436 437
154 9 2 0 1 84 52 86 428 437 239
155 9 2 0 1 128 126 81 350 438 439
156 9 2 0 1 73 136 51 435 440 441
157 9 2 0 1 7 6 131 16 416 361
158 9 2 0 1 22 145 124 442 443 444
159 9 2 0 1 136 125 50 374 445 446
160 9 2 0 1 129 117 130 447 448 353
161 9 2 0 1 71 122 70 398 449 222
162 9 2 0 1 130 117 54 448 450 451
163 9 2 0 1 98 110 108 410 298 349
164 9 2 0 1 117 55 54 319 198 450
165 9 2 0 1 146 29 147 452 453 454
166 9 2 0 1 97 112 100 358 342 270
167 9 2 0 1 35 147 29 455 453 171
168 9 2 0 1 69 27 138 383 388 419
169 9 2 0 1 146 28 29 456 415 452
170 9 2 0 1 50 36 39 457 180 192
171 9 2 0 1 56 77 59 458 312 203
172 9 2 0 1 147 35 10 455 178 459
173 9 2 0 1 9 147 10 460 459 19
174 9 2 0 1 127 48 49 396 190 461
175 9 2 0 1 77 56 83 458 302 236
176 9 2 0 1 2 149 148 462 463 464
177 9 2 0 1 49 70 150 465 466 467
178 9 2 0 1 41 148 151 468 469 470
179 9 2 0 1 58 137 96 471 377 269
180 9 2 0 1 137 58 60 471 206 381
181 9 2 0 1 152 150 148 472 473 474
182 9 2 0 1 142 86 53 475 436 476
183 9 2 0 1 45 75 153 318 477 478
184 9 2 0 1 2 148 41 464 468 429
185 9 2 0 1 66 106 82 479 282 480
186 9 2 0 1 106 66 115 479 481 482
187 9 2 0 1 61 66 82 261 480 235
188 9 2 0 1 121 30 141 483 484 485
189 9 2 0 1 30 121 35 483 486 170
190 9 2 0 1 141 142 53 407 476 487
191 9 2 0 1 86 142 135 475 409 488
192 9 2 0 1 99 119 57 489 490 296
193 9 2 0 1 69 67 93 238 491 384
194 9 2 0 1 119 99 100 489 271 327
195 9 2 0 1 79 67 68 492 216 231
196 9 2 0 1 36 145 38 493 494 172
197 9 2 0 1 67 79 93 492 254 491
198 9 2 0 1 149 152 148 495 474 463
199 9 2 0 1 121 141 55 485 496 334
200 9 2 0 1 35 121 11 486 497 177
201 9 2 0 1 148 150 91 473 498 499
202 9 2 0 1 129 25 154 500 501 502
203 9 2 0 1 86 135 85 488 369 240
204 9 2 0 1 26 154 25 503 501 161
205 9 2 0 1 115 139 106 504 394 482
206 9 2 0 1 129 113 25 355 426 500
207 9 2 0 1 155 50 125 505 445 506
208 9 2 0 1 152 126 127 507 352 508
209 9 2 0 1 124 155 125 509 506 345
210 9 2 0 1 132 131 23 359 510 511
211 9 2 0 1 85 110 84 512 411 241
212 9 2 0 1 131 22 23 432 158 510
213 9 2 0 1 129 116 117 513 320 447
214 9 2 0 1 134 28 24 414 162 514
215 9 2 0 1 107 134 24 365 514 515
216 9 2 0 1 22 124 24 444 516 156
217 9 2 0 1 8 132 146 517 518 519
218 9 2 0 1 138 114 64 520 521 420
219 9 2 0 1 114 138 87 520 522 314
220 9 2 0 1 132 8 7 517 17 360
221 9 2 0 1 114 115 64 316 523 521
222 9 2 0 1 38 143 5 524 525 526
223 9 2 0 1 47 48 139 191 392 527
224 9 2 0 1 47 139 95 527 528 259
225 9 2 0 1 4 38 5 529 526 14
226 9 2 0 1 9 146 147 530 454 460
227 9 2 0 1 8 146 9 519 530 18
228 9 2 0 1 115 66 64 481 212 523
229 9 2 0 1 32 9 80 434 531 532
230 9 2 0 1 129 154 116 502 533 513
231 9 2 0 1 85 104 90 368 279 534
232 9 2 0 1 9 10 80 19 341 531
233 9 2 0 1 124 107 24 356 515 516
234 9 2 0 1 7 101 6 535 278 16
235 9 2 0 1 6 5 143 15 525 417
236 9 2 0 1 124 145 155 443 536 509
237 9 2 0 1 144 128 81 425 439 537
238 9 2 0 1 4 144 81 538 537 232
239 9 2 0 1 146 23 28 539 163 456
240 9 2 0 1 103 144 5 423 540 541
241 9 2 0 1 115 95 139 315 528 504
242 9 2 0 1 90 110 85 297 512 534
243 9 2 0 1 6 103 5 277 541 15
244 9 2 0 1 112 123 75 357 380 317
245 9 2 0 1 154 26 92 503 542 543
246 9 2 0 1 144 4 5 538 14 540
247 9 2 0 1 126 152 149 507 495 544
248 9 2 0 1 51 42 40 545 181 546
249 9 2 0 1 151 45 153 547 478 548
250 9 2 0 1 65 66 63 213 262 549
251 9 2 0 1 45 151 91 547 550 252
252 9 2 0 1 140 128 105 551 424 395
253 9 2 0 1 128 140 127 551 397 351
254 9 2 0 1 7 33 101 552 553 535
255 9 2 0 1 38 145 143 494 554 524
256 9 2 0 1 30 31 141 165 405 484
257 9 2 0 1 50 155 36 505 555 457
258 9 2 0 1 44 91 150 251 498 556
259 9 2 0 1 68 65 63 215 549 295
260 9 2 0 1 70 44 150 557 556 466
261 9 2 0 1 87 76 83 558 237 247
262 9 2 0 1 136 50 51 446 194 440
263 9 2 0 1 78 76 138 226 559 387
264 9 2 0 1 39 42 51 322 545 193
265 9 2 0 1 51 40 153 546 560 561
266 9 2 0 1 72 70 49 220 465 404
267 9 2 0 1 41 151 40 470 562 183
268 9 2 0 1 76 87 138 558 522 559
269 9 2 0 1 155 145 36 536 493 555
270 9 2 0 1 33 34 101 168 275 553
271 9 2 0 1 152 49 150 563 467 472
272 9 2 0 1 81 126 149 438 544 564
273 9 2 0 1 68 109 80 294 565 229
274 9 2 0 1 109 32 80 323 532 565
275 9 2 0 1 111 119 122 566 338 400
276 9 2 0 1 119 111 57 566 299 490
277 9 2 0 1 116 1 120 567 568 330
278 9 2 0 1 4 37 38 569 173 529
279 9 2 0 1 33 7 8 552 17 175
280 9 2 0 1 73 153 75 570 477 223
281 9 2 0 1 153 73 51 570 441 561
282 9 2 0 1 145 22 143 442 431 554
283 9 2 0 1 37 4 3 569 13 309
284 9 2 0 1 121 120 11 333 571 497
285 9 2 0 1 120 1 11 568 21 571
286 9 2 0 1 49 152 127 563 508 461
287 9 2 0 1 23 146 132 539 518 511
288 9 2 0 1 141 53 55 487 199 496
289 9 2 0 1 26 93 92 290 253 542
290 9 2 0 1 44 70 122 557 449 572
291 9 2 0 1 118 130 54 385 451 326
292 9 2 0 1 46 44 122 186 572 337
293 9 2 0 1 40 151 153 562 548 560
294 9 2 0 1 81 149 3 564 573 233
295 9 2 0 1 1 154 92 574 543 430
296 9 2 0 1 151 148 91 469 499 550
297 9 2 0 1 154 1 116 574 567 533
298 9 2 0 1 149 2 3 462 12 573
$EndElements
