$MeshFormat
2.2 0 8
$EndMeshFormat
$Nodes
1048
1 -2 -0.5 0
2 2 -0.5 0
3 2 0.5 0
4 -2 0.5 0
5 -0.125 -0.125 0
6 0.125 -0.125 0
7 -1.897435897436182 -0.5 0
8 -1.794871794872364 -0.5 0
9 -1.692307692308546 -0.5 0
10 -1.589743589744729 -0.5 0
11 -1.487179487180911 -0.5 0
12 -1.384615384617093 -0.5 0
13 -1.282051282053275 -0.5 0
14 -1.179487179489457 -0.5 0
15 -1.076923076925639 -0.5 0
16 -0.9743589743617855 -0.5 0
17 -0.8717948717978254 -0.5 0
18 -0.7692307692338651 -0.5 0
19 -0.666666666669905 -0.5 0
20 -0.5641025641059447 -0.5 0
21 -0.4615384615419846 -0.5 0
22 -0.3589743589780243 -0.5 0
23 -0.256410256414064 -0.5 0
24 -0.1538461538501039 -0.5 0
25 -0.0512820512861436 -0.5 0
26 0.05128205127795882 -0.5 0
27 0.1538461538422036 -0.5 0
28 0.2564102564064488 -0.5 0
29 0.3589743589706935 -0.5 0
30 0.4615384615349383 -0.5 0
31 0.5641025640991835 -0.5 0
32 0.6666666666634282 -0.5 0
33 0.769230769227673 -0.5 0
34 0.8717948717919182 -0.5 0
35 0.9743589743561629 -0.5 0
36 1.076923076920515 -0.5 0
37 1.179487179484902 -0.5 0
38 1.282051282049289 -0.5 0
39 1.384615384613676 -0.5 0
40 1.487179487178063 -0.5 0
41 1.589743589742451 -0.5 0
42 1.692307692306838 -0.5 0
43 1.794871794871225 -0.5 0
44 1.897435897435612 -0.5 0
45 2 -0.3888888888891973 0
46 2 -0.2777777777783946 0
47 2 -0.1666666666674763 0
48 2 -0.05555555555651936 0
49 2 0.0555555555545918 0
50 2 0.1666666666658571 0
51 2 0.277777777777161 0
52 2 0.3888888888885804 0
53 1.897435897436182 0.5 0
54 1.794871794872364 0.5 0
55 1.692307692308546 0.5 0
56 1.589743589744729 0.5 0
57 1.487179487180911 0.5 0
58 1.384615384617093 0.5 0
59 1.282051282053275 0.5 0
60 1.179487179489457 0.5 0
61 1.076923076925639 0.5 0
62 0.9743589743617855 0.5 0
63 0.8717948717978254 0.5 0
64 0.7692307692338651 0.5 0
65 0.666666666669905 0.5 0
66 0.5641025641059447 0.5 0
67 0.4615384615419846 0.5 0
68 0.3589743589780243 0.5 0
69 0.256410256414064 0.5 0
70 0.1538461538501039 0.5 0
71 0.0512820512861436 0.5 0
72 -0.05128205127795882 0.5 0
73 -0.1538461538422036 0.5 0
74 -0.2564102564064488 0.5 0
75 -0.3589743589706935 0.5 0
76 -0.4615384615349383 0.5 0
77 -0.5641025640991835 0.5 0
78 -0.6666666666634282 0.5 0
79 -0.769230769227673 0.5 0
80 -0.8717948717919182 0.5 0
81 -0.9743589743561629 0.5 0
82 -1.076923076920515 0.5 0
83 -1.179487179484902 0.5 0
84 -1.282051282049289 0.5 0
85 -1.384615384613676 0.5 0
86 -1.487179487178063 0.5 0
87 -1.589743589742451 0.5 0
88 -1.692307692306838 0.5 0
89 -1.794871794871225 0.5 0
90 -1.897435897435612 0.5 0
91 -2 0.3888888888891973 0
92 -2 0.2777777777783946 0
93 -2 0.1666666666674763 0
94 -2 0.05555555555651936 0
95 -2 -0.0555555555545918 0
96 -2 -0.1666666666658571 0
97 -2 -0.277777777777161 0
98 -2 -0.3888888888885804 0
99 -0.1245946635168024 -0.1350583210892669 0
100 -0.1233812828298433 -0.1450514101065787 0
101 -0.1213677271784897 -0.1549144580349985 0
102 -0.1185670552438047 -0.1645834992239515 0
103 -0.1149974304579897 -0.1739958262310151 0
104 -0.1106820032075571 -0.1830903965037452 0
105 -0.1056487606941897 -0.1918082282640532 0
106 -0.0999303454269989 -0.2000927830276697 0
107 -0.09356384352332643 -0.207890332277911 0
108 -0.08659054419093228 -0.2151503059158326 0
109 -0.07905567195159657 -0.2218256202266815 0
110 -0.07100809334346753 -0.2278729832352761 0
111 -0.0625000000019319 -0.2332531754719395 0
112 -0.05358657017713678 -0.237931304325465 0
113 -0.04432561088186381 -0.2418770303350902 0
114 -0.03477718299086881 -0.2450647639535414 0
115 -0.02500321172306174 -0.2474738315050679 0
116 -0.0150670850326994 -0.2490886092621615 0
117 -0.005033242514178042 -0.249898624771426 0
118 0.005033242513473135 -0.2498986247714544 0
119 0.01506708503201778 -0.2490886092622443 0
120 0.02500321172240743 -0.2474738315052014 0
121 0.03477718299024549 -0.245064763953722 0
122 0.04432561088127469 -0.2418770303353136 0
123 0.05358657017658462 -0.237931304325727 0
124 0.06250000000141893 -0.2332531754722356 0
125 0.07100809334299563 -0.2278729832356018 0
126 0.07905567195116701 -0.2218256202270322 0
127 0.08659054419054597 -0.2151503059162037 0
128 0.09356384352300143 -0.2078903322782778 0
129 0.09993034542673715 -0.200092783028018 0
130 0.105648760693986 -0.1918082282643754 0
131 0.1106820032074052 -0.1830903965040345 0
132 0.114997430457883 -0.1739958262312656 0
133 0.1185670552437357 -0.1645834992241582 0
134 0.1213677271784506 -0.1549144580351571 0
135 0.1233812828298259 -0.1450514101066862 0
136 0.124594663516798 -0.1350583210893213 0
137 0.1245946635168025 -0.1149416789107344 0
138 0.1233812828298437 -0.1049485898934238 0
139 0.1213677271784907 -0.09508554196500534 0
140 0.1185670552438063 -0.08541650077605345 0
141 0.1149974304579923 -0.07600417376899093 0
142 0.1106820032075607 -0.06690960349626174 0
143 0.1056487606941946 -0.05819177173595455 0
144 0.09993034542700517 -0.04990721697233863 0
145 0.09356384352333422 -0.04210966772209783 0
146 0.08659054419093846 -0.03484969408417334 0
147 0.07905567195159045 -0.02817437977331354 0
148 0.07100809334344745 -0.02212701676471002 0
149 0.06250000000189648 -0.01674682452804011 0
150 0.05358657017708492 -0.01206869567451037 0
151 0.04432561088179476 -0.0081229696648836 0
152 0.03477718299078201 -0.004935236046433408 0
153 0.02500321172295707 -0.002526168494910788 0
154 0.01506708503257696 -0.000911390737823578 0
155 0.005033242514038378 -0.0001013752285683595 0
156 -0.005033242513626166 -0.0001013752285517477 0
157 -0.0150670850321799 -0.0009113907377753666 0
158 -0.02500321172257747 -0.002526168494833295 0
159 -0.03477718299042201 -0.004935236046329131 0
160 -0.04432561088145607 -0.008122969664755161 0
161 -0.05358657017676903 -0.01206869567436047 0
162 -0.06250000000160455 -0.01674682452787156 0
163 -0.07100809334318037 -0.02212701676452566 0
164 -0.07905567195134885 -0.02817437977311628 0
165 -0.08659054419072255 -0.03484969408396596 0
166 -0.0935638435231529 -0.04210966772189317 0
167 -0.09993034542685918 -0.04990721697214436 0
168 -0.105648760694081 -0.05819177173577482 0
169 -0.110682003207476 -0.06690960349610033 0
170 -0.1149974304579327 -0.07600417376885114 0
171 -0.1185670552437678 -0.08541650077593815 0
172 -0.1213677271784688 -0.09508554196491679 0
173 -0.123381282829834 -0.1049485898933638 0
174 -0.1245946635168 -0.114941678910704 0
175 0.1313758469555771 -0.09822344850240636 0
176 -0.131641230810805 -0.09769593917138097 0
177 -0.1360694759001592 -0.1290131491902579 0
178 -0.1215057168718881 -0.06756832139510552 0
179 0.1351534732462614 -0.1305020221199802 0
180 0.1200538696991962 -0.06862699286565886 0
181 -0.1041573010731909 -0.03994856772225771 0
182 0.1030771904396329 -0.03997393435893637 0
183 0.07837599803166737 -0.018089308670352 0
184 -0.0788940694011299 -0.01658904214501708 0
185 -0.05290820503496655 -0.002283275267382141 0
186 0.05335306117257779 -0.0002840465517830669 0
187 -0.02171277479405578 0.007828242551076527 0
188 0.1309517362649414 -0.1613135201351759 0
189 -0.1276935791062637 -0.1614923256319766 0
190 0.1178965631502737 -0.1922250645083174 0
191 -0.1146530762606469 -0.1930945154554778 0
192 0.09782980282062896 -0.2186278835172777 0
193 0.07117125904528436 -0.2383955949077624 0
194 -0.09554255357683493 -0.218367901013134 0
195 -0.07389395365429204 -0.2368028198004142 0
196 -0.04454256206617117 -0.2551908835388971 0
197 0.04205339530989884 -0.2508352626088913 0
198 0.01420870653315741 -0.2599507561579645 0
199 0.6213380929203777 0.4141421271700484 0
200 -0.6171987394374173 0.3984846376517361 0
201 -1.436593891323378 -0.415896815731907 0
202 1.450977447147628 0.3991898685340806 0
203 -1.128484568202687 -0.4116484125083766 0
204 1.122829822377135 0.4135960835023431 0
205 -0.8182267216248978 -0.3994839873577024 0
206 0.8218940287218515 -0.411117597632198 0
207 -0.9223843969128782 0.412377252577341 0
208 -1.35943893966312 0.4002539196257537 0
209 1.333089167384431 -0.4124241771075577 0
210 0.3068277039079289 0.4104930042265638 0
211 -0.3128561358733309 0.41257116816985 0
212 -1.901777065958666 0.004352043531994879 0
213 1.905171747814111 0.006868119201041635 0
214 0.08714058672848883 0.417485739886163 0
215 -0.002738266281464928 0.01979366267606481 0
216 -0.0838943313278305 0.4098699619070164 0
217 0.03004883560182164 0.005834958558907868 0
218 -1.633445838598218 0.4220710074931149 0
219 1.645697852127781 -0.4008774375144484 0
220 0.8189555610782201 0.4148901214304264 0
221 1.026804958173357 -0.4119986293911035 0
222 0.6128395510649235 -0.4155757096103458 0
223 0.4276042918594086 -0.417288998827822 0
224 -0.6187825706688207 -0.4062339154564857 0
225 -0.4093885247709945 -0.4174406091822668 0
226 -1.1211721593507 0.405728429359523 0
227 -1.640537103614933 -0.4210062418658625 0
228 1.639757012158793 0.3982053300019441 0
229 -0.197749439169742 -0.4208656425988075 0
230 0.1994666643269832 -0.4123378254385646 0
231 -1.907642962485747 -0.2338249255930226 0
232 1.904520203508131 0.2215180936892124 0
233 -1.890202213272962 0.2263590784265824 0
234 1.891271778194113 -0.2313558842852563 0
235 0.005091804196763293 -0.4360186562773264 0
236 -0.008443682842708203 -0.2650018635284909 0
237 -1.840479727295735 -0.4051187371516229 0
238 1.845589979155743 0.4225443623658752 0
239 -1.844934142320989 0.4163878682408614 0
240 1.851766356201056 -0.4154287191500396 0
241 -0.02093495167256216 -0.2585154069507764 0
242 -0.02459422013658029 -0.2733774442389925 0
243 -0.008229704862887832 -0.2895034725372058 0
244 -0.03364718489905004 -0.2973186118396375 0
245 -0.01304730802477756 -0.3219547586972045 0
246 0.01933616346937946 -0.3061089632912055 0
247 -0.04877746811957876 -0.3299186986588011 0
248 0.1339841727035393 -0.4269318875266526 0
249 0.1606633798320105 -0.3539656390007999 0
250 0.2053307381475868 -0.3495625447987409 0
251 0.1811230681941489 -0.3127340678568434 0
252 0.2283739133498258 -0.310109099804967 0
253 0.13800075136271 -0.3141638401353245 0
254 0.1555370943742331 -0.2799423058304104 0
255 0.1021581234371628 -0.347254134772148 0
256 0.1220551805389205 -0.283877968330014 0
257 0.2546668329505707 -0.3585154798089583 0
258 0.2812647006414793 -0.3048057076985643 0
259 0.1310658799630514 -0.2537503685669399 0
260 0.1061969769279155 -0.2627845457492277 0
261 0.0942870171343132 -0.2851057005593339 0
262 -0.07269700423259227 -0.4289871494533658 0
263 0.3197743881231165 -0.3528437587123023 0
264 0.336916647484504 -0.2908149256164452 0
265 0.01606221077024526 -0.3414013297209745 0
266 -0.323052600932541 -0.418110248049373 0
267 0.008174088991347327 0.01208559242004415 0
268 0.08240420842891215 -0.262614145612162 0
269 0.06880272403192986 -0.2832748718430104 0
270 0.05171805824154271 -0.3303040772760883 0
271 0.09561831145234474 -0.2470047947122637 0
272 0.002768215895752295 0.4240730866434547 0
273 0.0378304579839241 0.3556378807279763 0
274 0.1087348974670842 0.3368499926133669 0
275 0.05660113008941719 0.2888352894309031 0
276 -0.006042809147194499 0.3064847212225359 0
277 0.009866478440300665 0.2481839165045918 0
278 -0.04780416552820644 0.2624171566345723 0
279 -0.0291215800093717 0.21010796999376 0
280 0.1654301972232179 0.391652589463601 0
281 0.1782286027256065 0.3110316261568318 0
282 0.06439125534290377 0.2286970101871499 0
283 -0.06852348711033222 0.3258170312744434 0
284 -0.1091861900779274 0.2732586257269272 0
285 -0.1396489007648694 0.3462723772284639 0
286 -0.1730950310042435 0.2795329078193635 0
287 -0.1428301607882879 0.2158802401899219 0
288 -0.2051426843557504 0.2270113222705239 0
289 -0.1823382486459108 0.1762920193084925 0
290 -0.2351963141650077 0.1800905440129833 0
291 -0.2075614752274405 0.1344713523100899 0
292 -0.2602181547587892 0.1310329956093593 0
293 -0.1620977459345461 0.1357323702531434 0
294 -0.2937804289423768 0.1817603137840441 0
295 -0.3197372428903863 0.1236014144033142 0
296 -0.4129157571009791 -0.1354953573150683 0
297 -0.3593504127400787 0.1818292312333319 0
298 -0.3891464501393672 0.1127912416263329 0
299 -0.4329942012311728 0.1799509917118796 0
300 -0.4679984338586151 0.1057874475556779 0
301 -0.5135478719942498 0.178476686176736 0
302 -0.5511650026226796 0.1007709377297928 0
303 -0.5988963667340594 0.1747930957138561 0
304 -0.6370700631436583 0.09354420337118997 0
305 -0.6868378516436588 0.1684948173699147 0
306 -0.7268581424783036 0.08572364652024927 0
307 -0.6745646805568657 0.0108392266078854 0
308 -0.7659674220068919 0.001061387616868013 0
309 -0.8196742597513516 0.07744883422758762 0
310 -0.8594930567035225 -0.009777159827586935 0
311 -0.9145782475268237 0.06831681935887862 0
312 -0.9545006936378891 -0.02244421369426702 0
313 -1.01136743104026 0.05913601382131115 0
314 -1.051607144779816 -0.03524761690879709 0
315 -1.110466962412036 0.0511308979195957 0
316 -1.151463023222088 -0.04587336563471954 0
317 -1.211907296427348 0.0427086532555854 0
318 -1.253399817005703 -0.05521281816422763 0
319 -1.314681390831546 0.03156541225763469 0
320 -1.35639045021602 -0.06520062769680195 0
321 -1.417759839081971 0.01899571072757891 0
322 -1.459779782672079 -0.07620327940004724 0
323 -0.7115132538552739 -0.07394149690100124 0
324 -1.521157866436631 0.006679107121611485 0
325 -0.9897236833967153 -0.1179897082758303 0
326 -1.563350631035098 -0.08770579965223718 0
327 -1.479336301747492 0.102450982153645 0
328 -1.583162933571649 0.08913017197654616 0
329 -1.295527565283123 -0.1497739234693175 0
330 -0.3363375693808439 0.05209261557652185 0
331 -0.2335878812535599 0.01849887338421325 0
332 -1.272225831671538 0.1334138404500317 0
333 -0.3629076980060446 -0.3464435109107198 0
334 -0.4406677944906386 -0.3352324986155685 0
335 -0.474223060407688 0.2508575642687761 0
336 -1.065225224461913 0.1448549921706513 0
337 -0.8714066487994629 0.1565326938763971 0
338 -0.6205491965276257 -0.06302268500806461 0
339 -0.6566966451178833 -0.1495923100052573 0
340 -0.7483005193601312 -0.1596880631623629 0
341 -0.1799335230251171 0.09862179204750635 0
342 -0.1415944415438187 0.103845512778352 0
343 -0.1534034363694398 0.07061096661904027 0
344 -0.1220749265614965 0.07896469303705735 0
345 -0.1279250363546438 0.04705261416068773 0
346 -0.1015117793789487 0.06040653296619255 0
347 -0.09498896180408979 0.0866851987890518 0
348 -0.076122002634677 0.06784697030619929 0
349 -0.06795807382613547 0.0936071088924461 0
350 -0.04733373309715173 0.07132709720312717 0
351 -0.03711345394233503 0.1027293495890371 0
352 -0.08970733599290687 0.1134297472895651 0
353 -0.1041860417911548 0.03615447584365979 0
354 -0.1187154189548561 0.02553755393020844 0
355 -0.06169655414764793 0.04907749556094423 0
356 -1.542198225569853 0.183559321058045 0
357 -1.645783559061522 0.1686995764513685 0
358 -1.502579196154688 -0.1686276347470052 0
359 -1.605809906084497 -0.1792493759502906 0
360 -1.666725968905972 -0.09915625975921927 0
361 -0.1042467934187614 0.01567470286686313 0
362 -0.08760581236585993 0.02434173051876572 0
363 -0.2348483257212137 0.2828529800022149 0
364 -0.504681573983128 0.03087126612019843 0
365 -0.6946560221878729 -0.2361127930075205 0
366 -0.6081246247735224 -0.2260454927207312 0
367 -1.43888462597396 0.1991186931725231 0
368 -1.503516485679719 0.2767815519568035 0
369 -1.68791277884577 0.07578493110753524 0
370 -1.707283807509943 -0.1903003107798321 0
371 -0.7841748015526866 -0.2429115903834327 0
372 -0.3892562478856234 -0.2756503650273117 0
373 -0.3217506924259569 -0.285207835819108 0
374 -0.6466182699166815 0.2481991404472799 0
375 -0.7339720456420527 0.2461642890186514 0
376 -1.546824961993805 -0.2570608804863129 0
377 -1.443691838282085 -0.2484483997372146 0
378 -0.3442781862677969 -0.2243227073339352 0
379 -0.2849667801784037 -0.232566985873086 0
380 -0.3060217309629144 -0.1815107333675461 0
381 -0.2503145771497994 -0.1847985235793848 0
382 -0.2325602745890337 -0.233862251029706 0
383 -0.2789774031127834 -0.1417176154305204 0
384 -0.2353384587884398 -0.1392106682519764 0
385 -0.258076429793336 -0.1031400127241431 0
386 -0.2176251620388719 -0.1057834664526746 0
387 -0.1988410077148171 -0.1337791526194864 0
388 -0.178763706328813 -0.1062315792389752 0
389 -0.1998392036083702 -0.07807896533117453 0
390 -0.1524644389223654 -0.01934029456672721 0
391 -0.1707950285863645 -0.07745436270774794 0
392 -0.1836262571665311 -0.05424060212489534 0
393 -0.2130390958953331 -0.04905796220452448 0
394 -0.131036007853621 -0.01303002479559507 0
395 -0.1913987670837764 -0.02542180317656049 0
396 -0.1592714732080331 -0.05724947587729726 0
397 -0.304437799331279 -0.1010286464233127 0
398 -0.1718318552428424 -0.1325573932682539 0
399 -0.1802313228670315 -0.1541606387950417 0
400 -0.277815800602249 -0.05671079642035359 0
401 -0.335252418653267 -0.05622458243673405 0
402 -0.1544637964866574 -0.1087223784292406 0
403 -0.3249279869502871 0.2418993679542183 0
404 -0.8381351375968135 -0.1712440865573076 0
405 -0.8669773806889303 -0.2515559503288308 0
406 -0.1614583805695568 -0.1475486887981847 0
407 -0.4594703902319543 -0.2564819185965671 0
408 -0.2561627097289917 -0.2881927367758396 0
409 -0.1019280189863468 -0.2935541040307863 0
410 -0.2103833307611965 -0.2678113057684153 0
411 -0.1870515353422931 -0.2334341698288036 0
412 -0.1594401057866209 -0.1904900284278123 0
413 -0.172811320545168 -0.2727086585355375 0
414 -0.1513478251937977 -0.2432846940881472 0
415 -0.2031167303840523 -0.3144640699251645 0
416 -0.1893207806667953 0.06107581614281242 0
417 -1.769458306126559 -0.110605113616169 0
418 -0.1477254850587788 -0.07496759914314412 0
419 -0.1862268190741819 0.3883904706285825 0
420 -0.08895559976108822 0.006184153390210371 0
421 -0.07345465743360713 0.01343503366303567 0
422 -1.744460170751717 0.1546651128011941 0
423 -1.710699098789595 0.2425214446956148 0
424 -0.5134910789169805 -0.3096695782617117 0
425 -0.206528266805403 -0.2000897044808861 0
426 -0.1030757488727229 -0.002464182982714394 0
427 -0.2452153918236107 -0.3423054149845738 0
428 -0.7342060584874465 -0.326638792197486 0
429 -0.3082881911096472 -0.008164655863354967 0
430 -1.401645446077303 0.2956348819944651 0
431 -0.1603246216472576 0.0337677651669684 0
432 -0.069623098097748 0.03065057466805639 0
433 -0.0565480242034691 0.0184114987669077 0
434 -0.08233566751523275 0.218027975132517 0
435 -0.05915309327825191 0.1744416196260239 0
436 -0.01473616463316518 0.1649720132028386 0
437 0.02081874593450267 0.1964072754249413 0
438 0.0659090869869766 0.1784187435290318 0
439 0.02256214876882007 0.08045873657065468 0
440 0.1092996338315917 0.2012191190955482 0
441 0.1039563132092103 0.1565175863871371 0
442 0.1455159472317955 0.171440540064036 0
443 0.1358873867352764 0.1307727722005267 0
444 0.3331593706500829 -0.07950453044902227 0
445 0.1785689726441849 0.1407243293516209 0
446 0.2680305934270023 -0.1539944270453974 0
447 0.1969996954239551 -0.2094154910291051 0
448 0.001925520684332866 0.07557565312735022 0
449 0.09881450292880223 0.1185532844613273 0
450 -0.01253333014174533 0.06288895274218501 0
451 0.1919321362301835 0.187345608140788 0
452 0.2299260450335282 0.1472668621651216 0
453 0.2635427402542374 -0.002861051556757624 0
454 0.2040675413847518 0.02769717400791979 0
455 0.1255540092134133 0.09504731385017545 0
456 0.09215358416172903 0.08502659673235827 0
457 0.1156701801587149 0.06360377401258693 0
458 0.0847136356572859 0.05373371044525486 0
459 0.1076014499826236 0.03646788500393166 0
460 0.08512299294036785 0.02856425511049182 0
461 0.07016984818038742 0.03773734611186545 0
462 0.1011095027382376 0.0136680227905873 0
463 0.1243262595853927 0.01767987034199102 0
464 0.1147493750279202 -0.004480068509393913 0
465 0.1373705502990734 -0.001091393015496561 0
466 0.1279946966898848 -0.02134839670925374 0
467 0.02900942474090577 0.148713226093151 0
468 0.2467451377910944 -0.2651461651388654 0
469 0.06737136669901103 0.1056566034930343 0
470 0.1485703478921707 0.07086723566665525 0
471 0.08096759695268367 0.007896179381525023 0
472 0.1503289273441634 0.01933354589640076 0
473 0.1629485977249955 -0.2469051100871546 0
474 0.1397458810179521 -0.2282027129386592 0
475 0.203181697352632 0.1043552689026386 0
476 0.1909458677701538 -0.03157406447374064 0
477 0.1504031416064252 -0.01800151395200695 0
478 0.1425277501015642 -0.03707849660406044 0
479 0.1976536141382359 -0.269247984828862 0
480 0.1191820213442992 -0.232238891467856 0
481 -0.1043980765700589 0.1752639714461643 0
482 0.09507152272576973 -0.004789247110018931 0
483 0.1037810748543213 -0.01814310277780059 0
484 -0.1504256986852495 -0.3087778618456273 0
485 -0.2246508941900302 -0.01863769845266389 0
486 -0.6857619115227022 0.3247992408897042 0
487 -0.7779317112458288 0.3279332505927945 0
488 -1.467938200445806 0.3662124678835041 0
489 -1.310623006317857 0.3098030601246191 0
490 0.1249787053008492 -0.03978127721788494 0
491 -0.2782902527802079 0.07958623144514493 0
492 -0.2261164945900228 0.0867117371405567 0
493 0.5175490989829937 -0.4193415869363325 0
494 0.5622609880356565 -0.3404175367205469 0
495 0.6496344789804059 -0.3315713556346753 0
496 0.5995243490093566 -0.2625831256394424 0
497 0.5171339321459305 -0.2704985209975614 0
498 0.5500885519000142 -0.1962869429072799 0
499 0.6331877282718323 -0.1839299129120276 0
500 0.5784948591204561 -0.1180732886028151 0
501 0.6648839295018928 -0.1022806970839973 0
502 0.6070607496691844 -0.03601507947394102 0
503 0.3208877738246608 0.09256489345274155 0
504 0.6953110739550312 -0.01821273239864269 0
505 0.7540951806393303 -0.08607586762698179 0
506 0.7857022511775144 -0.0003392724857548865 0
507 0.8452138448040435 -0.0695159971003714 0
508 0.8785084455884821 0.01576084199916693 0
509 0.9395796544676404 -0.05653128126902109 0
510 0.973993455857016 0.03125161152191482 0
511 1.046817617525972 -0.04812306287528877 0
512 1.070034355304454 0.05210716961898525 0
513 1.137215237470026 -0.01445073035077148 0
514 1.166483483733491 0.07480305246655608 0
515 1.232115828274872 0.0008232958241739309 0
516 0.6363806702844506 0.04697225845568122 0
517 1.266265574809862 0.09512560480278774 0
518 1.333364773043087 0.01877079559401774 0
519 1.190561121008987 -0.09245325487967292 0
520 1.000266474072778 0.1214620692713668 0
521 0.8175733095357697 0.08659682545089667 0
522 1.369036437054228 0.1163583881059457 0
523 1.434592223946566 0.03563918277638858 0
524 1.399729793575769 -0.05925497487511668 0
525 1.500783987852932 -0.04283148306165704 0
526 1.532901735763228 0.05078760441439938 0
527 0.2955088277931961 0.2568863183552876 0
528 1.465295680459934 -0.1380875985025226 0
529 1.568086396293632 -0.1218812802091762 0
530 0.5514479045070009 0.02936771571968076 0
531 0.5794318746713151 0.1090978189349271 0
532 0.9017748416289199 -0.137744794959335 0
533 1.298442714359425 0.1932326283596675 0
534 0.4723663866342478 -0.2063898258885414 0
535 0.4981390898410331 0.09284015554802877 0
536 0.5257310634863408 0.1701642199326633 0
537 0.6049490997994796 0.1857015486152196 0
538 0.4727072362211343 0.01688968771925257 0
539 0.4462013495005828 0.1544512433811079 0
540 0.4741008674022715 0.2311971777160107 0
541 1.408329562957721 0.226564382555015 0
542 1.528908564764711 -0.2195504047543252 0
543 1.634732514831634 -0.2040709732040691 0
544 1.67312188527909 -0.1049898548534468 0
545 1.364100153257922 -0.1519124393172553 0
546 1.319582027839852 0.290889940201217 0
547 1.227864390999604 0.261488786266828 0
548 1.735032995001533 -0.1841677735244086 0
549 0.4413164089234776 -0.273615728458461 0
550 0.4040158135037321 -0.2161769300851125 0
551 0.4215666362773594 -0.1449567723085209 0
552 1.710452049942287 -0.293261194049017 0
553 0.3982463339353453 0.2154928829435456 0
554 0.4229251031909593 0.2898785669835535 0
555 0.4993738111525811 0.3113374334782625 0
556 1.77618365855468 -0.09856199484337158 0
557 1.7195467265919 -0.0006487577483666212 0
558 0.444128913002315 0.3665008180262485 0
559 1.25410481345832 0.3397112583640166 0
560 0.1229817820265769 0.2601004589128387 0
561 -0.1969935788808162 0.02734493152901233 0
562 0.1332914801379919 -0.05357023814928302 0
563 0.1540432240606551 -0.05386668353667615 0
564 0.1421568248331648 -0.07036348741816194 0
565 0.1638279001513984 -0.07179806528549658 0
566 0.1508721048448677 -0.08806243566522549 0
567 0.17357213053481 -0.09050577224096618 0
568 0.1581735893253926 -0.1081250372799721 0
569 0.1841607178842487 -0.1126081915233707 0
570 0.200306524884134 -0.08957598446886249 0
571 0.2163074516355383 -0.1162911710647138 0
572 0.2354431977879242 -0.08650169097214318 0
573 0.1923983735413432 -0.1428491233042055 0
574 0.2312180200624395 -0.1484103926615079 0
575 0.356900010080075 -0.1721811892929446 0
576 0.3459930201567969 -0.2315104311287967 0
577 0.06111493066105637 0.07417900282483135 0
578 -0.0460563386625237 -0.274222634497116 0
579 -1.801537755237492 0.06408756389019049 0
580 0.7174868120635935 -0.4019941748855632 0
581 0.7821739558764533 -0.3392132603040915 0
582 0.870833466981914 -0.3155427576755848 0
583 0.7810164860001996 -0.2523921151270971 0
584 -0.1406644464825787 -0.05849996925687607 0
585 0.1213589835998058 -0.2145831145494456 0
586 -0.005805934814412665 0.1236697311691587 0
587 0.5164440931358247 -0.05382203448905918 0
588 0.4498074162309186 -0.04069236430950664 0
589 0.4061503783796977 -0.001236057827315083 0
590 0.2914287616139987 -0.4214746229020162 0
591 0.06751222296656208 0.0214139638278967 0
592 0.05212504348761557 0.03399683095829612 0
593 -0.5107264006186545 -0.4021096642777804 0
594 0.3665500182285164 0.140420436729432 0
595 0.4150609955443241 0.07598382441265769 0
596 -0.07513491211189793 -0.003210689319942628 0
597 -0.4042848227920824 0.4097546109223884 0
598 -0.507253881636226 0.3978536576008969 0
599 -0.5606020102425345 0.3370471468867666 0
600 -0.3481521838511229 0.3229979883463409 0
601 0.7198869514307525 0.4160865764198129 0
602 0.7682173407306557 0.3332042103167749 0
603 0.865151339209831 0.3292428849390117 0
604 0.8113489444038331 0.2494433698103411 0
605 0.9081987771295612 0.2444400171691306 0
606 0.9659221316480127 0.323995458827436 0
607 0.719313403695375 0.2567438558605709 0
608 0.05260293015757361 0.01418627024620309 0
609 -0.1746184060293791 0.0004105579465458047 0
610 0.4765645614321653 -0.342935652870457 0
611 0.04455284190525572 0.05506445864375541 0
612 0.03219935181591339 0.03922869339300127 0
613 0.01125958374339192 -0.2763220508880658 0
614 0.02899551900769099 -0.2676049825191314 0
615 0.499309458184265 -0.1352390104661045 0
616 -1.337227154080495 0.2174518105652207 0
617 -1.226590987821722 0.2488825340061565 0
618 -1.167199693012182 0.1425479856700697 0
619 -1.115571640625602 0.2347551756957698 0
620 -1.01746346582668 0.2348677709748038 0
621 -1.06610529033304 0.3211046223519685 0
622 -0.9702887043885333 0.3238095035505504 0
623 1.014840659274272 0.2247540988532317 0
624 1.070005306596651 0.3244677850564798 0
625 1.12903451135168 0.2428985753154276 0
626 0.218919096581849 -0.2342464282579282 0
627 0.255596469221757 -0.2212472416237504 0
628 0.1290888926869528 -0.08826412664201327 0
629 0.1333730080956057 -0.1084125243994502 0
630 -0.1286665774462973 -0.08744704101002085 0
631 -0.1402901714187815 -0.08903407903753326 0
632 -0.1332220762879444 -0.108106656082639 0
633 0.1189313151994074 -0.05839726508160425 0
634 0.09793633762635075 -0.03094903407112926 0
635 0.1120243682983757 -0.03067664491058756 0
636 -0.09690453275852623 -0.03111167132908611 0
637 -0.1087881807991975 -0.02801196687212216 0
638 -0.1174198671211298 -0.03943818509373345 0
639 -0.1174366599559774 -0.0554548805970852 0
640 0.07144862810450309 -0.01216377460748668 0
641 -0.06274799631139408 -0.007133572944219279 0
642 -0.04318837573477591 0.001689900795691035 0
643 -0.01030067317276038 0.008951673314112838 0
644 -0.01709664278187921 0.01906909422645755 0
645 -0.03030074176105029 0.01705121716086322 0
646 -0.02606467830895062 0.03068033875946233 0
647 -0.04146148381153669 0.02644477731417886 0
648 -0.0391980565201027 0.04552146689618881 0
649 -0.0124010134487063 0.03016398647061597 0
650 -0.0004939157788570286 0.03559200074093696 0
651 0.01086636526242775 0.02482270378723958 0
652 0.0608913500444825 -0.2644396074169617 0
653 0.04714992290033775 -0.2771215133196258 0
654 0.9236645672045104 -0.4104141672447998 0
655 0.9770086145293875 -0.3248023841854647 0
656 1.07881563442479 -0.3249250401451044 0
657 1.023486699579219 -0.2311927387809522 0
658 1.132815499825929 -0.2416334137138275 0
659 1.180973624576614 -0.3277646235391833 0
660 1.228967737952863 -0.246621333834395 0
661 1.098245206228213 -0.142685617794566 0
662 0.6746692911656813 0.3346770699198414 0
663 -0.1699431593198039 -0.3591773108956001 0
664 -0.1195294532012107 -0.3427018348453931 0
665 -0.135018533257742 -0.2710943824714637 0
666 -0.1249271054530924 -0.2463255796220286 0
667 -0.1315917076611605 -0.2218913517532825 0
668 -0.157799155579985 -0.2151844857275559 0
669 -0.1394191527213576 -0.1992127429402202 0
670 -0.1413074132413101 -0.1795104876751218 0
671 -0.1584389882325114 -0.1665271752867746 0
672 -0.146145001048556 -0.1509420645948222 0
673 1.021352969413216 0.4122235631875192 0
674 -0.6384108065956793 -0.3128287608816994 0
675 -1.232755461702464 0.383640789689826 0
676 -0.1216528057042162 0.005814279517333087 0
677 -0.1457369453814805 0.005275779672237923 0
678 -0.1510619834923796 -0.1344728309247606 0
679 -0.5871755910344914 0.02112205907130454 0
680 -0.5358385277665103 -0.04623892880830417 0
681 -0.4679687113158426 -0.02775436282399693 0
682 -0.5577411953234085 -0.1417786471400037 0
683 1.425716650964569 -0.2319165905157795 0
684 1.484152876835301 -0.3160734453780227 0
685 1.590707903531625 -0.3063270468686405 0
686 1.752237675845694 -0.4044183971357783 0
687 1.819423331984802 -0.3205122243357599 0
688 -1.886621196827779 -0.1146449257170344 0
689 1.906096446826532 0.1129652887776054 0
690 1.812828303771121 0.166519853253399 0
691 1.811183952683739 0.2701309536632205 0
692 1.722373337493335 0.2210244800571289 0
693 1.726573394312518 0.3230672172205649 0
694 1.632962266657234 0.2801826506260821 0
695 1.632402289957117 0.1743100773410956 0
696 1.531364304339917 0.2265306116782988 0
697 1.544570838381352 0.3393997721711897 0
698 1.466785275039178 0.3032717739742331 0
699 -1.903449598113387 0.1119567669816399 0
700 1.887742983339067 -0.1059771049319946 0
701 -0.4187117793085799 0.03022115954095997 0
702 0.9195116031098323 0.4131818002193439 0
703 -0.1468965302105111 -0.04167254972597862 0
704 -0.1673739237548053 -0.03632951671360194 0
705 0.0238457468803398 0.1175929103234465 0
706 1.814277369101146 0.06205144057805504 0
707 1.721384737716806 0.1158651153274307 0
708 -0.04333465745775025 0.1377003570132396 0
709 -1.607821258632256 0.260056783231238 0
710 0.8129127232850746 -0.1556120971745343 0
711 -0.9274340827781207 -0.4116100852553226 0
712 -1.027415899424872 -0.4124620675818819 0
713 -1.077614853705815 -0.3226023349083579 0
714 -1.180781844258418 -0.3229991523179769 0
715 -1.1319576363445 -0.2311871915378837 0
716 -1.018997483995711 -0.2271532565017205 0
717 -1.236637459116984 -0.2354415799600454 0
718 -1.284235372588137 -0.3254333312219851 0
719 -1.192639664267399 -0.1421906476638824 0
720 -1.231216765985294 -0.4120809201877049 0
721 0.04714921943120214 -0.3798152825644807 0
722 -1.399311989168686 -0.1583389518856651 0
723 0.06833337194960906 0.1383029294283391 0
724 -0.02110025070051181 -0.3717397621638641 0
725 -1.021794475687284 0.410428949081476 0
726 -1.647804733957346 -0.2658043869174132 0
727 -1.742686527266732 -0.2768610057445846 0
728 1.435243129920823 -0.4096454079786266 0
729 -1.333980596537571 -0.4136224671395229 0
730 1.472513555205154 0.1310951904048885 0
731 1.197363987193688 0.168934555969731 0
732 -1.539357527790649 -0.4188025527583248 0
733 -0.1355075870035777 -0.1411960791516204 0
734 0.7246638933961601 0.06818625643587925 0
735 0.7520631899851162 0.1654198811950059 0
736 0.9105459123962929 0.09965831488552869 0
737 1.538904326612575 -0.4054588089971197 0
738 -1.376518367970111 0.1170302832471999 0
739 -0.1000818361442428 -0.01810029966508755 0
740 1.297880824053766 -0.07485457549265666 0
741 -0.9803160927438866 -0.3280799767807383 0
742 -0.271603981398982 0.340220373690013 0
743 -1.738130414212272 -0.4204263174315432 0
744 -1.739816741247109 0.4146473533996614 0
745 -1.795383611200888 0.3136618285930861 0
746 1.60366080191059 -0.02421546169851323 0
747 -0.3605890254779673 -0.007556219784238247 0
748 -0.4040459139544569 -0.05744476681353743 0
749 0.1647590124811565 -0.2155967048943842 0
750 0.6844763326137436 -0.2529642317546183 0
751 -1.625035462579673 -0.005624097554890932 0
752 0.06494598882009064 0.005868376534561002 0
753 0.9383039919680094 -0.2565148461095996 0
754 0.190356478793108 0.2433809805502237 0
755 -0.3962414163672804 0.2501815934410924 0
756 -0.1116087254492019 -0.2325976695997432 0
757 -0.09747561993144112 -0.2460024522996539 0
758 -0.1139355561004931 -0.2150819005509903 0
759 -0.7134733884763969 -0.4164759188412047 0
760 0.1647528678908206 -0.03478758626285879 0
761 -0.777660068972287 0.162898008744031 0
762 -0.01661397828608576 0.04562810367608727 0
763 -0.1321370395327658 -0.1528550139551867 0
764 -0.127623736091793 -0.1715395303068702 0
765 0.07883545918334439 -0.3089551827851982 0
766 -0.08352986637456461 0.04476427282930318 0
767 -0.8034133004450378 -0.08528942472069494 0
768 -0.08740589602847598 -0.2253459617086243 0
769 0.08940036049829783 -0.2258682555107173 0
770 0.1018566226969056 -0.2321557500994742 0
771 0.1057345282246764 -0.210607458415789 0
772 0.1508091279282231 -0.1929203491413618 0
773 0.1275610327116451 -0.171979932872853 0
774 0.1395694799219338 -0.1686810365355621 0
775 0.1333332947860858 -0.1498584405094376 0
776 0.1450795715717077 -0.1572693316499235 0
777 0.1560429033758373 -0.1722294299753976 0
778 0.1461929385845858 -0.1402662701357784 0
779 0.1640413402613655 -0.1513456112297745 0
780 0.1790593010709181 -0.1664297565114528 0
781 0.1653947724420312 -0.1296886792608613 0
782 0.1472270368210481 -0.1232912755706144 0
783 -0.1324262219040915 -0.4029128115011928 0
784 0.7216974600367585 -0.1720974142412164 0
785 0.2367124445532597 0.3569237397950589 0
786 -1.728146532045293 -0.01843317293629373 0
787 -0.5590980392886861 0.2596489631975174 0
788 0.02069051566316549 0.01429040794694576 0
789 0.0361193802221115 0.01985312044669563 0
790 -0.1099778787580737 -0.2021708712359428 0
791 0.1124370446532842 -0.2017737822328229 0
792 1.129240856037989 -0.4129782230761851 0
793 0.0620317932552174 -0.2420991275093763 0
794 1.381338113340521 -0.3232592373757812 0
795 -0.8261379968638747 0.2431738978279198 0
796 1.231217038540575 -0.4134398009751776 0
797 0.2943095149736083 -0.2506939121215053 0
798 -1.340550296786772 -0.2410931304624724 0
799 0.5185350906162008 0.4061559819283164 0
800 0.1425868354082128 -0.1010863579755093 0
801 0.02318491860763361 -0.2559250923807943 0
802 -1.569955666306756 0.3490244555011154 0
803 1.280641425438913 -0.3274906157694362 0
804 -1.918484791549741 -0.3386899739486396 0
805 1.899122340758296 0.3375148437916358 0
806 0.2090913047957414 -0.05851046607252366 0
807 0.2516437070259478 -0.04963237340297199 0
808 0.2804498615246496 -0.08457809699844421 0
809 0.2985019245083253 -0.0402029515838411 0
810 0.2232025341372643 -0.02323899432682154 0
811 0.2420374022412262 0.0391303810890781 0
812 -1.910224481497199 0.3418502916022791 0
813 -0.03294478266665568 0.005337022462632023 0
814 -0.8230961329952371 0.413296948454911 0
815 0.3922789170687184 -0.3360780241632581 0
816 -0.08847016730443354 -0.02311028473564197 0
817 -0.4065979569235983 -0.2059759862134404 0
818 -0.4742370969693677 -0.1783145015718643 0
819 0.1757854657957774 -0.188949990398743 0
820 0.207067419744057 -0.1774523110726844 0
821 -0.1252320686580933 -0.07764115836716382 0
822 0.06303450345529708 -0.006219706301369723 0
823 -0.8955465991894813 -0.09918141541808961 0
824 0.08886816619925193 -0.02038830468309051 0
825 -0.1785338917669307 -0.2037476630350069 0
826 0.127264822987034 -0.07668073021856543 0
827 -0.924924082224572 -0.1887945052141376 0
828 -0.2071111958547505 0.3394713414216546 0
829 -0.0008818987772584564 0.008120097108619977 0
830 0.04187257117998887 0.004392350452835493 0
831 0.1123777986095783 -0.04661878193246499 0
832 -0.7233599151333885 0.4110033942927844 0
833 -0.01021797685599573 0.09577513595295128 0
834 0.2476181736402407 -0.1825941140145688 0
835 0.5837969645983017 0.3287775586565404 0
836 0.2531718290992977 0.2099833672816315 0
837 0.292664129856097 0.1483178720088507 0
838 -0.439248848834918 0.3242247652003888 0
839 -0.06350481162099778 -0.2991593577591468 0
840 -0.07041852564156276 -0.2751653609284422 0
841 -0.065433506817117 -0.2440413256219378 0
842 -0.07974059162867682 -0.2477234099012552 0
843 -0.08254666782817675 -0.3262138605285534 0
844 -0.08592142893501747 -0.2361294249257085 0
845 -0.05672490031732435 -0.262366431161822 0
846 -1.152247854825206 0.318877260655268 0
847 0.661917101542694 0.1290529047028345 0
848 -0.1464502715683605 -0.1203257304347699 0
849 1.915802448781354 -0.3435330473564625 0
850 1.750499761941017 0.4162033037557646 0
851 0.3709171611237355 0.3464546065118624 0
852 -0.1819903329760779 -0.1800157019459348 0
853 -0.2088569656013944 -0.1653304443751782 0
854 -1.089317164774249 -0.133558036709052 0
855 0.2912143492475073 0.04409589862296377 0
856 0.1348052866011308 -0.1190524120989481 0
857 0.9926778132022444 -0.1349960148232786 0
858 0.5537648323648275 0.2476727942925071 0
859 0.3498554135427234 -0.02546970355055501 0
860 0.2564292245119118 -0.1199613854692375 0
861 0.1620304423248516 0.1031443751319815 0
862 0.02224342354471421 0.05947410513205997 0
863 -0.1088903686008809 -0.04860372439368187 0
864 -0.1304213896487929 -0.04764507535688699 0
865 -1.807787675575198 -0.2047514918231559 0
866 -0.06208653073075548 0.004410294602551806 0
867 -0.4756527446718232 -0.09776835896229347 0
868 -0.08914195006704577 -0.009604316682860133 0
869 1.324988292359166 -0.2410237225512105 0
870 -0.04267682120157353 0.01270780254782965 0
871 1.17072166987674 0.332740128412462 0
872 -1.387737842938237 -0.3298061378719378 0
873 1.330249783036032 0.3958795282614028 0
874 1.628036482966157 0.07437167166037653 0
875 -0.2383563143695958 0.4033595909710044 0
876 0.2559589697171465 0.09171689049536365 0
877 0.3513625889584167 0.03956753208684837 0
878 -0.9670718974512178 0.1501253191822632 0
879 -0.1329971108525913 -0.0310403558523397 0
880 0.1728183666588686 -0.01267375720997073 0
881 0.1778935680356157 -0.05408898082265262 0
882 0.1883439943198675 -0.2351322689261422 0
883 0.100117707447382 -0.395959219730497 0
884 0.08044103730619796 -0.2323322067368505 0
885 0.12345254917837 -0.1824443964314719 0
886 0.1321265776578599 -0.1928456202496477 0
887 -0.05376051370774681 0.03402714673633697 0
888 -0.1244248079785388 -0.1861250458751338 0
889 0.1325590673157398 -0.1401611828088115 0
890 -0.07957622957483078 -0.3668774591462916 0
891 1.096257809542226 0.1473565311345074 0
892 -0.2942604160190384 -0.3463083904539455 0
893 -0.1223432634333136 -0.2028540534649199 0
894 -0.1190788738047581 0.1345891354191383 0
895 -0.1345783829909344 -0.1181462188109235 0
896 -0.355955339070073 -0.1091819950609194 0
897 -0.3577897413843205 -0.1659849769685527 0
898 0.8561326038409995 0.1695745712666382 0
899 -0.2188022011131693 0.0493478682235492 0
900 -0.07008255004155763 -0.01315051687269311 0
901 0.1108541526402431 -0.2454241441168191 0
902 -0.9210567215779375 0.2390316827855122 0
903 0.05374876282896826 -0.2499679498342314 0
904 -0.08780535169890102 -0.2638060219501692 0
905 -0.1141660907574091 -0.0135659710424186 0
906 -0.8193779306138772 -0.3101460647437302 0
907 0.3009287037223858 0.3199798510614459 0
908 -1.490821004182054 -0.3352225777867909 0
909 0.3973031237523827 -0.07211789459818559 0
910 0.2425999242870392 0.2825131981582628 0
911 -0.05540594661239467 -0.249837138473794 0
912 -0.8735342094344604 0.3266613772765005 0
913 0.1363306569016652 0.04205984947930397 0
914 0.1720543974562814 0.04493336393313738 0
915 0.1757239603834643 0.01259491092357615 0
916 0.03302614694144282 -0.2548329681225411 0
917 -0.03253119534887339 -0.2588584260403486 0
918 -0.2637127325466161 0.2325651711113514 0
919 0.2968177575115735 -0.1916311095132615 0
920 -0.2348448735779695 -0.07280074251354127 0
921 1.265428010602664 -0.1641180608244681 0
922 -0.102975707901519 -0.2107392000192985 0
923 0.06871067242356037 -0.2503657757040642 0
924 -1.793647638273228 0.2185822894091271 0
925 0.1092515008411865 -0.2215104767201229 0
926 0.1382085643094833 -0.1802298864530687 0
927 -0.1558362833326571 -0.09295896318374347 0
928 0.08119890428953752 -0.008224875021869804 0
929 0.1792960273003919 0.07756077322682792 0
930 0.6351771070354407 0.2588317307647998 0
931 0.3110613288383115 0.002944748592795575 0
932 1.817498104693098 -0.1713404742499193 0
933 -1.817643358983031 -0.035063084892039 0
934 0.3994665553200282 0.4243586140694495 0
935 -0.1134532551752919 0.1036553746467445 0
936 -0.1422042536297657 0.1674029404033266 0
937 0.2240524524625979 0.4315956159501594 0
938 -0.1429571401260349 -0.1013241015896059 0
939 1.542561042635851 0.427540009492935 0
940 0.1388176235030226 -0.2075820322769698 0
941 1.395590210994704 0.3234554248225293 0
942 0.04429837226135341 -0.2609851280609952 0
943 -0.1388731684681916 -0.1637726857904905 0
944 0.03860966479261857 0.09581722492043265 0
945 -0.2044009928619933 0.0004389698810812703 0
946 -0.1349355327359256 -0.07975639607088594 0
947 0.307940084516073 -0.1315403139348454 0
948 0.3266480863419078 0.2068760435640706 0
949 0.001614232355096595 0.05319023988144016 0
950 0.1383032037637673 -0.09168107986532187 0
951 0.2254376962194185 -0.2049429524601313 0
952 0.003328304389688901 -0.2601943424173071 0
953 -1.592539655137734 -0.3408791449135583 0
954 0.3525406670581929 0.2721840178103864 0
955 -0.5308325475872937 -0.2328435445985456 0
956 -0.2554711306715784 -0.3988809319411313 0
957 -0.07946853817840921 -0.229683838405858 0
958 -0.02753731230202916 0.06086780765871037 0
959 -1.676284373906818 0.334088997743218 0
960 0.03782976783295487 0.07299581281975455 0
961 -0.0798346920075662 0.1422893393050574 0
962 -0.02371076992907919 0.3639904059982382 0
963 0.1986866920090177 -0.003379639782404196 0
964 -0.6138599767138859 0.3138570092804949 0
965 0.1520972040566449 0.2126088022538926 0
966 1.183417895525171 -0.1774783857063269 0
967 1.559345505352538 0.1313052567122706 0
968 1.223080109985908 0.4138635819233998 0
969 0.8750025667045059 -0.218428581730309 0
970 0.03110432470551044 -0.2853584280213378 0
971 0.1070478005224449 -0.3079099716902491 0
972 0.3842775888754114 -0.2695910145469196 0
973 -0.5077545395754847 0.313939168895246 0
974 0.07232807776432246 -0.002481099018989079 0
975 -0.132988531372999 -0.06969583434270617 0
976 -0.05149634549909092 0.007023933243951274 0
977 0.01413162269918937 0.005945243461688448 0
978 -1.688854331446332 -0.3460487357188684 0
979 -1.831258021453087 -0.3015405876047781 0
980 -0.8918855191712947 -0.3279410813444403 0
981 0.157270309344138 2.554467955692622e-05 0
982 -0.2609987808095007 -0.01285145999068464 0
983 -1.931261809386928 -0.4264432737777672 0
984 1.928356857177546 0.4296715764014011 0
985 1.932899682510112 -0.4293879074437219 0
986 -1.930521003625043 0.4293054390521639 0
987 -1.53219193660514 0.4298678707556398 0
988 0.674636685302029 0.1991315267289138 0
989 -0.0971742804011046 -0.2299887120878361 0
990 0.1145842939029528 -0.0185777528785035 0
991 0.3636063215495282 0.08734903403798815 0
992 -0.2886835664870333 0.2838783305248269 0
993 -0.1108492574629717 -0.2468383328176393 0
994 0.0814715219417091 -0.2444132958980607 0
995 1.806234653867054 0.3537650797090209 0
996 -0.2776762790349531 0.03046243805054621 0
997 -0.5701558788627226 -0.3434151988029551 0
998 -0.109580618384619 -0.2614307532334574 0
999 0.04941865450618181 -0.2986634585950763 0
1000 -1.826723117596292 0.155137626308944 0
1001 -0.2423744250735075 -0.04221085609183846 0
1002 -0.1605158336085711 -0.1203955205466093 0
1003 0.08155733565111695 -0.4395798239999684 0
1004 0.9379010525792028 0.1719990776744645 0
1005 1.794938537464876 -0.2396354340459189 0
1006 -0.1519064082471142 0.4167175634675341 0
1007 -0.3206304470808765 -0.1398683084652137 0
1008 -0.1043414903974555 -0.2213066948821731 0
1009 0.1283440963507973 -0.06550918646958682 0
1010 -0.1713720068286334 -0.02011631661074945 0
1011 0.1375407245264779 -0.08297655360241868 0
1012 -0.1423227091576964 -0.111337596450266 0
1013 -0.5719757615591033 -0.284984547235337 0
1014 0.1432595287368078 -0.1120081924203047 0
1015 0.04540367667234587 0.1212767623495462 0
1016 0.08984369294007756 -0.2362481278060694 0
1017 0.3581036361854568 -0.4054995042031867 0
1018 0.4568630114934909 -0.08973235788537898 0
1019 0.02106176985369457 0.004507160082290559 0
1020 -0.06907114155389148 -0.2572663453476 0
1021 -0.1971670769758394 0.4414803718863597 0
1022 -0.128497995848268 -0.05977132624124217 0
1023 0.946235011479134 -0.1955166796703184 0
1024 1.118081651929535 -0.07431446021151134 0
1025 -0.06351413246552934 0.11802553662928 0
1026 1.821021945135058 -0.02712358787594238 0
1027 0.0232188550798138 0.02749406736157126 0
1028 0.01509660774695159 0.03991490184587224 0
1029 -1.445877296986813 0.4397605027380733 0
1030 -0.2147705457924595 -0.3667140509052713 0
1031 -0.9374401391309569 -0.2651831481489299 0
1032 -0.2472840854933375 0.05301505156437074 0
1033 -0.1348346144488159 0.02354869684575342 0
1034 0.1847797725510829 -0.07311784743327167 0
1035 0.06243497274405117 0.0509148356372938 0
1036 0.1223060399687832 -0.04957564603147824 0
1037 -0.6753433265235441 -0.3657070097324189 0
1038 0.4555128664572623 0.4237290013227968 0
1039 -1.769229666553595 -0.3502498029864113 0
1040 -0.1206395689908741 -0.02514163739888887 0
1041 0.2098239233600782 0.06454601858454506 0
1042 0.01189400035729681 0.09820348323555471 0
1043 0.1243563463696764 -0.2016480397814708 0
1044 0.363564848205221 -0.1201331684065205 0
1045 -0.0220903905869311 0.07845718018159077 0
1046 0.1388094166576945 -0.387317199735368 0
1047 0.7223176106944531 -0.3157063076701467 0
1048 0.2260890597687233 0.007501931362331058 0
$EndNodes
$Elements
2100
1 15 2 1 1 1
2 15 2 2 2 2
3 15 2 3 3 3
4 15 2 4 4 4
5 1 2 1 1 1 7
6 1 2 1 1 7 8
7 1 2 1 1 8 9
8 1 2 1 1 9 10
9 1 2 1 1 10 11
10 1 2 1 1 11 12
11 1 2 1 1 12 13
12 1 2 1 1 13 14
13 1 2 1 1 14 15
14 1 2 1 1 15 16
15 1 2 1 1 16 17
16 1 2 1 1 17 18
17 1 2 1 1 18 19
18 1 2 1 1 19 20
19 1 2 1 1 20 21
20 1 2 1 1 21 22
21 1 2 1 1 22 23
22 1 2 1 1 23 24
23 1 2 1 1 24 25
24 1 2 1 1 25 26
25 1 2 1 1 26 27
26 1 2 1 1 27 28
27 1 2 1 1 28 29
28 1 2 1 1 29 30
29 1 2 1 1 30 31
30 1 2 1 1 31 32
31 1 2 1 1 32 33
32 1 2 1 1 33 34
33 1 2 1 1 34 35
34 1 2 1 1 35 36
35 1 2 1 1 36 37
36 1 2 1 1 37 38
37 1 2 1 1 38 39
38 1 2 1 1 39 40
39 1 2 1 1 40 41
40 1 2 1 1 41 42
41 1 2 1 1 42 43
42 1 2 1 1 43 44
43 1 2 1 1 44 2
44 1 2 2 2 2 45
45 1 2 2 2 45 46
46 1 2 2 2 46 47
47 1 2 2 2 47 48
48 1 2 2 2 48 49
49 1 2 2 2 49 50
50 1 2 2 2 50 51
51 1 2 2 2 51 52
52 1 2 2 2 52 3
53 1 2 3 3 3 53
54 1 2 3 3 53 54
55 1 2 3 3 54 55
56 1 2 3 3 55 56
57 1 2 3 3 56 57
58 1 2 3 3 57 58
59 1 2 3 3 58 59
60 1 2 3 3 59 60
61 1 2 3 3 60 61
62 1 2 3 3 61 62
63 1 2 3 3 62 63
64 1 2 3 3 63 64
65 1 2 3 3 64 65
66 1 2 3 3 65 66
67 1 2 3 3 66 67
68 1 2 3 3 67 68
69 1 2 3 3 68 69
70 1 2 3 3 69 70
71 1 2 3 3 70 71
72 1 2 3 3 71 72
73 1 2 3 3 72 73
74 1 2 3 3 73 74
75 1 2 3 3 74 75
76 1 2 3 3 75 76
77 1 2 3 3 76 77
78 1 2 3 3 77 78
79 1 2 3 3 78 79
80 1 2 3 3 79 80
81 1 2 3 3 80 81
82 1 2 3 3 81 82
83 1 2 3 3 82 83
84 1 2 3 3 83 84
85 1 2 3 3 84 85
86 1 2 3 3 85 86
87 1 2 3 3 86 87
88 1 2 3 3 87 88
89 1 2 3 3 88 89
90 1 2 3 3 89 90
91 1 2 3 3 90 4
92 1 2 4 4 4 91
93 1 2 4 4 91 92
94 1 2 4 4 92 93
95 1 2 4 4 93 94
96 1 2 4 4 94 95
97 1 2 4 4 95 96
98 1 2 4 4 96 97
99 1 2 4 4 97 98
100 1 2 4 4 98 1
101 1 2 5 5 5 99
102 1 2 5 5 99 100
103 1 2 5 5 100 101
104 1 2 5 5 101 102
105 1 2 5 5 102 103
106 1 2 5 5 103 104
107 1 2 5 5 104 105
108 1 2 5 5 105 106
109 1 2 5 5 106 107
110 1 2 5 5 107 108
111 1 2 5 5 108 109
112 1 2 5 5 109 110
113 1 2 5 5 110 111
114 1 2 5 5 111 112
115 1 2 5 5 112 113
116 1 2 5 5 113 114
117 1 2 5 5 114 115
118 1 2 5 5 115 116
119 1 2 5 5 116 117
120 1 2 5 5 117 118
121 1 2 5 5 118 119
122 1 2 5 5 119 120
123 1 2 5 5 120 121
124 1 2 5 5 121 122
125 1 2 5 5 122 123
126 1 2 5 5 123 124
127 1 2 5 5 124 125
128 1 2 5 5 125 126
129 1 2 5 5 126 127
130 1 2 5 5 127 128
131 1 2 5 5 128 129
132 1 2 5 5 129 130
133 1 2 5 5 130 131
134 1 2 5 5 131 132
135 1 2 5 5 132 133
136 1 2 5 5 133 134
137 1 2 5 5 134 135
138 1 2 5 5 135 136
139 1 2 5 5 136 6
140 1 2 5 6 6 137
141 1 2 5 6 137 138
142 1 2 5 6 138 139
143 1 2 5 6 139 140
144 1 2 5 6 140 141
145 1 2 5 6 141 142
146 1 2 5 6 142 143
147 1 2 5 6 143 144
148 1 2 5 6 144 145
149 1 2 5 6 145 146
150 1 2 5 6 146 147
151 1 2 5 6 147 148
152 1 2 5 6 148 149
153 1 2 5 6 149 150
154 1 2 5 6 150 151
155 1 2 5 6 151 152
156 1 2 5 6 152 153
157 1 2 5 6 153 154
158 1 2 5 6 154 155
159 1 2 5 6 155 156
160 1 2 5 6 156 157
161 1 2 5 6 157 158
162 1 2 5 6 158 159
163 1 2 5 6 159 160
164 1 2 5 6 160 161
165 1 2 5 6 161 162
166 1 2 5 6 162 163
167 1 2 5 6 163 164
168 1 2 5 6 164 165
169 1 2 5 6 165 166
170 1 2 5 6 166 167
171 1 2 5 6 167 168
172 1 2 5 6 168 169
173 1 2 5 6 169 170
174 1 2 5 6 170 171
175 1 2 5 6 171 172
176 1 2 5 6 172 173
177 1 2 5 6 173 174
178 1 2 5 6 174 5
179 2 2 1 1 279 434 435
180 2 2 1 1 388 402 927
181 2 2 1 1 351 586 708
182 2 2 1 1 116 241 236
183 2 2 1 1 219 552 685
184 2 2 1 1 315 618 317
185 2 2 1 1 202 698 697
186 2 2 1 1 409 839 840
187 2 2 1 1 274 560 281
188 2 2 1 1 252 468 479
189 2 2 1 1 255 270 721
190 2 2 1 1 281 560 754
191 2 2 1 1 332 618 617
192 2 2 1 1 245 247 724
193 2 2 1 1 202 697 939
194 2 2 1 1 287 936 481
195 2 2 1 1 458 577 1035
196 2 2 1 1 215 644 643
197 2 2 1 1 332 617 616
198 2 2 1 1 215 267 651
199 2 2 1 1 214 272 273
200 2 2 1 1 208 488 430
201 2 2 1 1 355 766 432
202 2 2 1 1 403 600 755
203 2 2 1 1 223 493 610
204 2 2 1 1 42 43 686
205 2 2 1 1 592 612 789
206 2 2 1 1 617 846 675
207 2 2 1 1 330 429 996
208 2 2 1 1 314 316 854
209 2 2 1 1 409 484 664
210 2 2 1 1 282 437 438
211 2 2 1 1 597 598 838
212 2 2 1 1 350 355 648
213 2 2 1 1 219 686 552
214 2 2 1 1 398 678 1002
215 2 2 1 1 793 903 923
216 2 2 1 1 278 434 279
217 2 2 1 1 468 626 479
218 2 2 1 1 610 549 815
219 2 2 1 1 186 752 608
220 2 2 1 1 417 688 865
221 2 2 1 1 77 200 598
222 2 2 1 1 709 802 959
223 2 2 1 1 210 907 851
224 2 2 1 1 350 958 1045
225 2 2 1 1 489 617 675
226 2 2 1 1 228 694 693
227 2 2 1 1 233 745 812
228 2 2 1 1 277 437 282
229 2 2 1 1 265 724 721
230 2 2 1 1 216 285 283
231 2 2 1 1 541 696 698
232 2 2 1 1 520 891 623
233 2 2 1 1 483 824 634
234 2 2 1 1 218 959 802
235 2 2 1 1 233 924 745
236 2 2 1 1 428 205 759
237 2 2 1 1 612 1027 789
238 2 2 1 1 627 797 919
239 2 2 1 1 66 67 799
240 2 2 1 1 287 481 434
241 2 2 1 1 71 272 214
242 2 2 1 1 315 336 618
243 2 2 1 1 215 643 829
244 2 2 1 1 398 406 678
245 2 2 1 1 345 431 1033
246 2 2 1 1 255 765 270
247 2 2 1 1 413 665 414
248 2 2 1 1 228 697 694
249 2 2 1 1 30 493 223
250 2 2 1 1 541 730 696
251 2 2 1 1 451 836 754
252 2 2 1 1 200 599 598
253 2 2 1 1 623 891 625
254 2 2 1 1 453 809 931
255 2 2 1 1 438 467 723
256 2 2 1 1 196 578 917
257 2 2 1 1 245 724 265
258 2 2 1 1 149 822 150
259 2 2 1 1 343 431 345
260 2 2 1 1 780 819 820
261 2 2 1 1 409 664 843
262 2 2 1 1 146 824 147
263 2 2 1 1 403 992 600
264 2 2 1 1 749 772 940
265 2 2 1 1 223 610 815
266 2 2 1 1 350 648 958
267 2 2 1 1 24 262 783
268 2 2 1 1 573 781 779
269 2 2 1 1 140 826 141
270 2 2 1 1 143 831 144
271 2 2 1 1 341 492 416
272 2 2 1 1 70 214 280
273 2 2 1 1 500 587 615
274 2 2 1 1 456 577 458
275 2 2 1 1 453 810 807
276 2 2 1 1 582 969 583
277 2 2 1 1 59 968 873
278 2 2 1 1 43 240 686
279 2 2 1 1 351 833 586
280 2 2 1 1 267 788 651
281 2 2 1 1 318 329 719
282 2 2 1 1 67 1038 799
283 2 2 1 1 559 873 968
284 2 2 1 1 208 430 489
285 2 2 1 1 390 394 677
286 2 2 1 1 411 414 668
287 2 2 1 1 20 593 224
288 2 2 1 1 381 425 853
289 2 2 1 1 428 906 205
290 2 2 1 1 596 641 866
291 2 2 1 1 316 719 854
292 2 2 1 1 575 947 919
293 2 2 1 1 414 665 666
294 2 2 1 1 598 973 838
295 2 2 1 1 394 676 677
296 2 2 1 1 298 300 701
297 2 2 1 1 355 432 887
298 2 2 1 1 230 590 257
299 2 2 1 1 224 593 997
300 2 2 1 1 437 467 438
301 2 2 1 1 352 961 894
302 2 2 1 1 390 677 609
303 2 2 1 1 409 665 484
304 2 2 1 1 538 595 589
305 2 2 1 1 28 590 230
306 2 2 1 1 186 608 830
307 2 2 1 1 189 943 764
308 2 2 1 1 582 753 969
309 2 2 1 1 70 280 937
310 2 2 1 1 547 625 731
311 2 2 1 1 27 248 1003
312 2 2 1 1 219 685 737
313 2 2 1 1 388 927 391
314 2 2 1 1 503 594 837
315 2 2 1 1 483 634 635
316 2 2 1 1 164 816 165
317 2 2 1 1 231 865 688
318 2 2 1 1 298 701 330
319 2 2 1 1 216 283 962
320 2 2 1 1 811 855 876
321 2 2 1 1 650 1028 949
322 2 2 1 1 362 432 766
323 2 2 1 1 399 852 671
324 2 2 1 1 466 635 490
325 2 2 1 1 547 871 625
326 2 2 1 1 395 1010 609
327 2 2 1 1 382 408 410
328 2 2 1 1 367 738 616
329 2 2 1 1 325 716 827
330 2 2 1 1 117 236 952
331 2 2 1 1 242 917 578
332 2 2 1 1 330 747 429
333 2 2 1 1 25 26 235
334 2 2 1 1 198 952 613
335 2 2 1 1 694 697 696
336 2 2 1 1 585 791 771
337 2 2 1 1 317 618 332
338 2 2 1 1 587 1018 615
339 2 2 1 1 325 854 716
340 2 2 1 1 168 639 169
341 2 2 1 1 583 784 750
342 2 2 1 1 412 671 852
343 2 2 1 1 597 838 600
344 2 2 1 1 611 862 612
345 2 2 1 1 177 678 733
346 2 2 1 1 421 596 866
347 2 2 1 1 291 492 341
348 2 2 1 1 412 668 669
349 2 2 1 1 836 837 948
350 2 2 1 1 696 697 698
351 2 2 1 1 681 867 748
352 2 2 1 1 334 424 593
353 2 2 1 1 701 748 747
354 2 2 1 1 519 1024 661
355 2 2 1 1 296 748 867
356 2 2 1 1 264 576 797
357 2 2 1 1 519 661 966
358 2 2 1 1 490 635 831
359 2 2 1 1 103 888 104
360 2 2 1 1 42 686 219
361 2 2 1 1 33 206 580
362 2 2 1 1 462 482 464
363 2 2 1 1 226 621 725
364 2 2 1 1 212 579 699
365 2 2 1 1 464 990 466
366 2 2 1 1 83 84 675
367 2 2 1 1 583 710 784
368 2 2 1 1 329 717 719
369 2 2 1 1 546 873 559
370 2 2 1 1 754 836 910
371 2 2 1 1 379 408 382
372 2 2 1 1 149 640 822
373 2 2 1 1 592 789 608
374 2 2 1 1 402 938 927
375 2 2 1 1 682 955 818
376 2 2 1 1 350 1045 351
377 2 2 1 1 27 28 230
378 2 2 1 1 23 24 229
379 2 2 1 1 330 996 491
380 2 2 1 1 681 748 701
381 2 2 1 1 146 634 824
382 2 2 1 1 576 919 797
383 2 2 1 1 274 275 560
384 2 2 1 1 549 972 815
385 2 2 1 1 24 783 229
386 2 2 1 1 589 595 877
387 2 2 1 1 546 941 873
388 2 2 1 1 230 250 249
389 2 2 1 1 23 229 956
390 2 2 1 1 6 856 137
391 2 2 1 1 684 737 685
392 2 2 1 1 449 723 469
393 2 2 1 1 316 318 719
394 2 2 1 1 433 870 647
395 2 2 1 1 381 853 384
396 2 2 1 1 200 832 486
397 2 2 1 1 511 857 661
398 2 2 1 1 399 671 406
399 2 2 1 1 251 252 479
400 2 2 1 1 692 695 707
401 2 2 1 1 621 622 725
402 2 2 1 1 140 628 826
403 2 2 1 1 569 781 573
404 2 2 1 1 215 829 267
405 2 2 1 1 487 832 814
406 2 2 1 1 573 780 820
407 2 2 1 1 179 778 782
408 2 2 1 1 541 698 941
409 2 2 1 1 535 595 538
410 2 2 1 1 446 860 574
411 2 2 1 1 278 284 434
412 2 2 1 1 486 832 487
413 2 2 1 1 132 773 133
414 2 2 1 1 608 789 830
415 2 2 1 1 472 914 913
416 2 2 1 1 143 633 831
417 2 2 1 1 314 854 325
418 2 2 1 1 264 972 576
419 2 2 1 1 395 609 945
420 2 2 1 1 578 845 840
421 2 2 1 1 785 910 907
422 2 2 1 1 184 900 596
423 2 2 1 1 411 413 414
424 2 2 1 1 207 725 622
425 2 2 1 1 617 619 846
426 2 2 1 1 353 362 766
427 2 2 1 1 774 926 777
428 2 2 1 1 670 764 943
429 2 2 1 1 364 679 680
430 2 2 1 1 241 917 242
431 2 2 1 1 447 820 819
432 2 2 1 1 134 775 135
433 2 2 1 1 382 410 411
434 2 2 1 1 414 666 667
435 2 2 1 1 234 687 849
436 2 2 1 1 417 933 688
437 2 2 1 1 482 928 824
438 2 2 1 1 446 919 947
439 2 2 1 1 254 259 256
440 2 2 1 1 224 997 674
441 2 2 1 1 348 766 355
442 2 2 1 1 670 888 764
443 2 2 1 1 511 661 1024
444 2 2 1 1 500 502 587
445 2 2 1 1 332 616 738
446 2 2 1 1 217 830 789
447 2 2 1 1 862 949 1028
448 2 2 1 1 386 387 388
449 2 2 1 1 23 956 266
450 2 2 1 1 182 831 635
451 2 2 1 1 647 648 887
452 2 2 1 1 184 596 868
453 2 2 1 1 446 947 860
454 2 2 1 1 355 887 648
455 2 2 1 1 34 35 654
456 2 2 1 1 251 254 253
457 2 2 1 1 188 776 775
458 2 2 1 1 602 662 607
459 2 2 1 1 373 379 378
460 2 2 1 1 120 916 121
461 2 2 1 1 474 749 940
462 2 2 1 1 208 1029 488
463 2 2 1 1 669 888 670
464 2 2 1 1 664 783 890
465 2 2 1 1 333 373 372
466 2 2 1 1 66 799 199
467 2 2 1 1 573 779 780
468 2 2 1 1 379 381 380
469 2 2 1 1 436 708 586
470 2 2 1 1 690 692 707
471 2 2 1 1 249 250 251
472 2 2 1 1 600 838 755
473 2 2 1 1 32 33 580
474 2 2 1 1 35 221 654
475 2 2 1 1 418 946 975
476 2 2 1 1 749 819 772
477 2 2 1 1 204 673 624
478 2 2 1 1 186 822 752
479 2 2 1 1 281 910 785
480 2 2 1 1 627 919 834
481 2 2 1 1 527 836 948
482 2 2 1 1 367 616 430
483 2 2 1 1 29 30 223
484 2 2 1 1 21 22 225
485 2 2 1 1 65 199 601
486 2 2 1 1 649 650 762
487 2 2 1 1 381 384 383
488 2 2 1 1 260 271 268
489 2 2 1 1 756 757 989
490 2 2 1 1 183 824 928
491 2 2 1 1 408 415 410
492 2 2 1 1 411 668 825
493 2 2 1 1 466 490 478
494 2 2 1 1 614 653 942
495 2 2 1 1 806 881 1034
496 2 2 1 1 165 816 636
497 2 2 1 1 366 955 682
498 2 2 1 1 413 484 665
499 2 2 1 1 482 824 483
500 2 2 1 1 384 386 385
501 2 2 1 1 391 418 396
502 2 2 1 1 25 235 262
503 2 2 1 1 398 399 406
504 2 2 1 1 26 1003 235
505 2 2 1 1 657 661 857
506 2 2 1 1 260 268 261
507 2 2 1 1 169 639 178
508 2 2 1 1 300 364 701
509 2 2 1 1 589 859 909
510 2 2 1 1 441 723 449
511 2 2 1 1 387 853 399
512 2 2 1 1 808 860 947
513 2 2 1 1 230 257 250
514 2 2 1 1 28 29 590
515 2 2 1 1 259 474 480
516 2 2 1 1 83 675 226
517 2 2 1 1 384 387 386
518 2 2 1 1 460 471 462
519 2 2 1 1 84 208 675
520 2 2 1 1 684 794 728
521 2 2 1 1 200 486 964
522 2 2 1 1 388 391 389
523 2 2 1 1 811 876 1041
524 2 2 1 1 458 460 459
525 2 2 1 1 456 458 457
526 2 2 1 1 249 251 253
527 2 2 1 1 439 1042 448
528 2 2 1 1 682 818 867
529 2 2 1 1 259 473 474
530 2 2 1 1 292 491 492
531 2 2 1 1 180 1009 633
532 2 2 1 1 409 840 904
533 2 2 1 1 556 700 1026
534 2 2 1 1 76 77 598
535 2 2 1 1 253 254 256
536 2 2 1 1 331 945 561
537 2 2 1 1 587 588 1018
538 2 2 1 1 262 890 783
539 2 2 1 1 361 420 362
540 2 2 1 1 72 73 216
541 2 2 1 1 666 756 667
542 2 2 1 1 122 903 123
543 2 2 1 1 247 843 890
544 2 2 1 1 61 673 204
545 2 2 1 1 345 353 346
546 2 2 1 1 70 71 214
547 2 2 1 1 412 669 670
548 2 2 1 1 225 334 593
549 2 2 1 1 29 1017 590
550 2 2 1 1 74 211 875
551 2 2 1 1 111 841 112
552 2 2 1 1 387 398 388
553 2 2 1 1 353 354 361
554 2 2 1 1 254 479 473
555 2 2 1 1 456 469 577
556 2 2 1 1 672 733 678
557 2 2 1 1 406 671 672
558 2 2 1 1 348 355 350
559 2 2 1 1 573 820 574
560 2 2 1 1 409 843 839
561 2 2 1 1 351 708 1025
562 2 2 1 1 551 909 1044
563 2 2 1 1 243 246 613
564 2 2 1 1 343 345 344
565 2 2 1 1 259 260 256
566 2 2 1 1 18 759 205
567 2 2 1 1 74 75 211
568 2 2 1 1 68 69 210
569 2 2 1 1 277 278 279
570 2 2 1 1 179 782 856
571 2 2 1 1 302 679 364
572 2 2 1 1 604 607 735
573 2 2 1 1 275 276 277
574 2 2 1 1 391 396 392
575 2 2 1 1 304 679 302
576 2 2 1 1 226 846 621
577 2 2 1 1 287 288 289
578 2 2 1 1 273 275 274
579 2 2 1 1 388 1002 402
580 2 2 1 1 289 291 293
581 2 2 1 1 446 574 834
582 2 2 1 1 284 286 287
583 2 2 1 1 293 341 342
584 2 2 1 1 556 932 700
585 2 2 1 1 255 721 883
586 2 2 1 1 859 877 931
587 2 2 1 1 390 609 1010
588 2 2 1 1 179 889 778
589 2 2 1 1 481 894 961
590 2 2 1 1 277 279 437
591 2 2 1 1 460 461 591
592 2 2 1 1 445 861 475
593 2 2 1 1 215 649 644
594 2 2 1 1 341 343 342
595 2 2 1 1 436 586 467
596 2 2 1 1 408 892 427
597 2 2 1 1 588 589 909
598 2 2 1 1 230 249 1046
599 2 2 1 1 202 941 698
600 2 2 1 1 652 923 903
601 2 2 1 1 459 460 462
602 2 2 1 1 559 968 871
603 2 2 1 1 457 458 459
604 2 2 1 1 462 471 482
605 2 2 1 1 436 467 437
606 2 2 1 1 379 382 381
607 2 2 1 1 455 456 457
608 2 2 1 1 772 777 926
609 2 2 1 1 795 912 902
610 2 2 1 1 234 1005 687
611 2 2 1 1 464 482 483
612 2 2 1 1 562 633 1009
613 2 2 1 1 418 975 584
614 2 2 1 1 342 343 344
615 2 2 1 1 449 456 455
616 2 2 1 1 438 441 440
617 2 2 1 1 441 449 443
618 2 2 1 1 373 892 408
619 2 2 1 1 27 230 248
620 2 2 1 1 22 266 225
621 2 2 1 1 470 913 914
622 2 2 1 1 462 464 463
623 2 2 1 1 31 32 222
624 2 2 1 1 19 20 224
625 2 2 1 1 329 798 717
626 2 2 1 1 279 435 436
627 2 2 1 1 343 416 431
628 2 2 1 1 381 382 425
629 2 2 1 1 657 857 1023
630 2 2 1 1 196 845 578
631 2 2 1 1 547 559 871
632 2 2 1 1 61 62 673
633 2 2 1 1 441 443 442
634 2 2 1 1 570 806 1034
635 2 2 1 1 214 273 274
636 2 2 1 1 24 25 262
637 2 2 1 1 684 728 737
638 2 2 1 1 26 27 1003
639 2 2 1 1 566 800 568
640 2 2 1 1 416 492 899
641 2 2 1 1 32 580 222
642 2 2 1 1 363 828 742
643 2 2 1 1 611 960 862
644 2 2 1 1 284 287 434
645 2 2 1 1 382 411 425
646 2 2 1 1 464 466 465
647 2 2 1 1 292 295 491
648 2 2 1 1 591 608 752
649 2 2 1 1 412 825 668
650 2 2 1 1 29 223 1017
651 2 2 1 1 420 596 421
652 2 2 1 1 275 277 282
653 2 2 1 1 274 281 280
654 2 2 1 1 291 341 293
655 2 2 1 1 582 654 655
656 2 2 1 1 212 933 579
657 2 2 1 1 236 613 952
658 2 2 1 1 648 762 958
659 2 2 1 1 295 330 491
660 2 2 1 1 475 1041 876
661 2 2 1 1 617 618 619
662 2 2 1 1 562 564 563
663 2 2 1 1 331 485 945
664 2 2 1 1 339 366 682
665 2 2 1 1 344 345 346
666 2 2 1 1 642 813 870
667 2 2 1 1 258 468 252
668 2 2 1 1 353 361 362
669 2 2 1 1 466 478 477
670 2 2 1 1 534 550 549
671 2 2 1 1 562 1036 633
672 2 2 1 1 497 549 610
673 2 2 1 1 224 674 1037
674 2 2 1 1 638 639 863
675 2 2 1 1 585 771 925
676 2 2 1 1 62 702 673
677 2 2 1 1 22 23 266
678 2 2 1 1 31 222 493
679 2 2 1 1 249 255 1046
680 2 2 1 1 432 421 433
681 2 2 1 1 550 551 575
682 2 2 1 1 562 1009 564
683 2 2 1 1 289 290 291
684 2 2 1 1 77 78 200
685 2 2 1 1 65 66 199
686 2 2 1 1 494 496 497
687 2 2 1 1 346 348 347
688 2 2 1 1 584 864 703
689 2 2 1 1 103 764 888
690 2 2 1 1 557 1026 706
691 2 2 1 1 227 953 978
692 2 2 1 1 62 63 702
693 2 2 1 1 275 282 560
694 2 2 1 1 424 997 593
695 2 2 1 1 537 930 858
696 2 2 1 1 434 481 435
697 2 2 1 1 211 597 600
698 2 2 1 1 453 931 855
699 2 2 1 1 362 420 421
700 2 2 1 1 539 553 594
701 2 2 1 1 36 792 221
702 2 2 1 1 683 794 684
703 2 2 1 1 564 1011 566
704 2 2 1 1 575 919 576
705 2 2 1 1 246 999 970
706 2 2 1 1 137 856 629
707 2 2 1 1 348 350 349
708 2 2 1 1 480 925 770
709 2 2 1 1 445 475 452
710 2 2 1 1 497 498 534
711 2 2 1 1 372 373 378
712 2 2 1 1 352 894 935
713 2 2 1 1 502 530 587
714 2 2 1 1 425 852 853
715 2 2 1 1 72 216 272
716 2 2 1 1 667 669 668
717 2 2 1 1 611 612 592
718 2 2 1 1 392 704 395
719 2 2 1 1 541 941 546
720 2 2 1 1 448 1042 833
721 2 2 1 1 550 575 576
722 2 2 1 1 591 592 608
723 2 2 1 1 390 704 703
724 2 2 1 1 30 31 493
725 2 2 1 1 516 530 502
726 2 2 1 1 497 534 549
727 2 2 1 1 530 535 538
728 2 2 1 1 530 531 535
729 2 2 1 1 365 674 366
730 2 2 1 1 538 588 587
731 2 2 1 1 726 978 953
732 2 2 1 1 12 13 729
733 2 2 1 1 535 539 595
734 2 2 1 1 34 654 206
735 2 2 1 1 835 858 930
736 2 2 1 1 538 589 588
737 2 2 1 1 466 990 635
738 2 2 1 1 563 565 881
739 2 2 1 1 364 680 681
740 2 2 1 1 304 307 679
741 2 2 1 1 78 832 200
742 2 2 1 1 757 844 989
743 2 2 1 1 498 500 615
744 2 2 1 1 235 721 724
745 2 2 1 1 535 536 539
746 2 2 1 1 460 591 471
747 2 2 1 1 63 64 220
748 2 2 1 1 564 566 565
749 2 2 1 1 222 494 493
750 2 2 1 1 435 708 436
751 2 2 1 1 594 948 837
752 2 2 1 1 286 288 287
753 2 2 1 1 239 812 745
754 2 2 1 1 291 292 492
755 2 2 1 1 461 592 591
756 2 2 1 1 276 278 277
757 2 2 1 1 76 598 597
758 2 2 1 1 278 283 284
759 2 2 1 1 247 890 724
760 2 2 1 1 431 609 677
761 2 2 1 1 449 469 456
762 2 2 1 1 273 276 275
763 2 2 1 1 458 461 460
764 2 2 1 1 71 72 272
765 2 2 1 1 338 680 679
766 2 2 1 1 503 876 855
767 2 2 1 1 13 720 729
768 2 2 1 1 307 323 338
769 2 2 1 1 400 1001 982
770 2 2 1 1 717 798 718
771 2 2 1 1 503 991 594
772 2 2 1 1 49 689 213
773 2 2 1 1 95 688 212
774 2 2 1 1 551 1018 909
775 2 2 1 1 93 699 233
776 2 2 1 1 47 700 234
777 2 2 1 1 589 877 859
778 2 2 1 1 221 792 656
779 2 2 1 1 64 601 220
780 2 2 1 1 284 285 286
781 2 2 1 1 471 591 752
782 2 2 1 1 454 1041 914
783 2 2 1 1 691 805 995
784 2 2 1 1 228 693 850
785 2 2 1 1 478 490 562
786 2 2 1 1 378 379 380
787 2 2 1 1 543 685 552
788 2 2 1 1 63 220 702
789 2 2 1 1 428 674 365
790 2 2 1 1 433 647 887
791 2 2 1 1 516 504 734
792 2 2 1 1 192 925 771
793 2 2 1 1 578 840 839
794 2 2 1 1 394 905 676
795 2 2 1 1 552 686 687
796 2 2 1 1 539 540 553
797 2 2 1 1 258 264 797
798 2 2 1 1 339 365 366
799 2 2 1 1 473 479 882
800 2 2 1 1 602 607 604
801 2 2 1 1 373 408 379
802 2 2 1 1 64 65 601
803 2 2 1 1 12 729 201
804 2 2 1 1 345 354 353
805 2 2 1 1 575 1044 947
806 2 2 1 1 13 14 720
807 2 2 1 1 320 322 722
808 2 2 1 1 333 372 334
809 2 2 1 1 568 781 569
810 2 2 1 1 215 651 650
811 2 2 1 1 566 568 567
812 2 2 1 1 331 561 899
813 2 2 1 1 264 815 972
814 2 2 1 1 433 421 866
815 2 2 1 1 75 597 211
816 2 2 1 1 413 415 484
817 2 2 1 1 346 353 766
818 2 2 1 1 320 722 329
819 2 2 1 1 307 338 679
820 2 2 1 1 768 989 844
821 2 2 1 1 296 818 817
822 2 2 1 1 46 234 849
823 2 2 1 1 192 770 925
824 2 2 1 1 439 944 1042
825 2 2 1 1 188 774 776
826 2 2 1 1 494 497 610
827 2 2 1 1 14 203 720
828 2 2 1 1 581 582 583
829 2 2 1 1 225 266 333
830 2 2 1 1 504 506 734
831 2 2 1 1 604 735 898
832 2 2 1 1 301 335 787
833 2 2 1 1 206 581 580
834 2 2 1 1 232 691 690
835 2 2 1 1 327 738 367
836 2 2 1 1 17 205 711
837 2 2 1 1 387 399 398
838 2 2 1 1 426 676 905
839 2 2 1 1 250 252 251
840 2 2 1 1 96 97 231
841 2 2 1 1 50 51 232
842 2 2 1 1 494 495 496
843 2 2 1 1 92 93 233
844 2 2 1 1 46 47 234
845 2 2 1 1 133 773 188
846 2 2 1 1 528 683 542
847 2 2 1 1 423 709 959
848 2 2 1 1 443 449 455
849 2 2 1 1 357 709 423
850 2 2 1 1 431 561 609
851 2 2 1 1 524 740 545
852 2 2 1 1 15 712 203
853 2 2 1 1 599 964 787
854 2 2 1 1 232 690 689
855 2 2 1 1 503 837 876
856 2 2 1 1 221 655 654
857 2 2 1 1 337 902 878
858 2 2 1 1 690 691 692
859 2 2 1 1 354 676 361
860 2 2 1 1 447 819 749
861 2 2 1 1 498 499 500
862 2 2 1 1 213 689 706
863 2 2 1 1 690 706 689
864 2 2 1 1 94 95 212
865 2 2 1 1 48 49 213
866 2 2 1 1 300 302 364
867 2 2 1 1 582 655 753
868 2 2 1 1 211 600 742
869 2 2 1 1 539 594 595
870 2 2 1 1 252 257 258
871 2 2 1 1 16 17 711
872 2 2 1 1 199 662 601
873 2 2 1 1 444 809 808
874 2 2 1 1 680 682 867
875 2 2 1 1 438 723 441
876 2 2 1 1 268 652 269
877 2 2 1 1 691 693 692
878 2 2 1 1 232 805 691
879 2 2 1 1 304 306 307
880 2 2 1 1 713 716 715
881 2 2 1 1 542 685 543
882 2 2 1 1 655 656 657
883 2 2 1 1 94 212 699
884 2 2 1 1 48 213 700
885 2 2 1 1 692 693 694
886 2 2 1 1 33 34 206
887 2 2 1 1 17 18 205
888 2 2 1 1 557 706 707
889 2 2 1 1 358 376 377
890 2 2 1 1 694 696 695
891 2 2 1 1 426 739 868
892 2 2 1 1 524 545 528
893 2 2 1 1 602 604 603
894 2 2 1 1 385 400 397
895 2 2 1 1 237 1039 979
896 2 2 1 1 322 358 722
897 2 2 1 1 50 232 689
898 2 2 1 1 96 231 688
899 2 2 1 1 220 601 602
900 2 2 1 1 657 658 661
901 2 2 1 1 713 741 716
902 2 2 1 1 203 712 713
903 2 2 1 1 327 367 356
904 2 2 1 1 295 298 330
905 2 2 1 1 93 94 699
906 2 2 1 1 47 48 700
907 2 2 1 1 652 942 653
908 2 2 1 1 543 552 548
909 2 2 1 1 695 874 707
910 2 2 1 1 496 498 497
911 2 2 1 1 336 620 619
912 2 2 1 1 489 616 617
913 2 2 1 1 667 893 669
914 2 2 1 1 35 36 221
915 2 2 1 1 357 423 422
916 2 2 1 1 338 339 682
917 2 2 1 1 327 356 328
918 2 2 1 1 528 542 529
919 2 2 1 1 203 714 720
920 2 2 1 1 713 715 714
921 2 2 1 1 715 719 717
922 2 2 1 1 321 327 324
923 2 2 1 1 524 528 525
924 2 2 1 1 544 556 557
925 2 2 1 1 358 359 376
926 2 2 1 1 367 430 368
927 2 2 1 1 471 928 482
928 2 2 1 1 678 848 1002
929 2 2 1 1 368 430 488
930 2 2 1 1 322 326 358
931 2 2 1 1 356 367 368
932 2 2 1 1 49 50 689
933 2 2 1 1 95 96 688
934 2 2 1 1 75 76 597
935 2 2 1 1 542 683 684
936 2 2 1 1 81 725 207
937 2 2 1 1 358 377 722
938 2 2 1 1 370 727 726
939 2 2 1 1 692 694 695
940 2 2 1 1 80 81 207
941 2 2 1 1 301 787 303
942 2 2 1 1 309 761 337
943 2 2 1 1 517 731 514
944 2 2 1 1 82 83 226
945 2 2 1 1 82 226 725
946 2 2 1 1 533 546 547
947 2 2 1 1 81 82 725
948 2 2 1 1 533 541 546
949 2 2 1 1 318 320 329
950 2 2 1 1 84 85 208
951 2 2 1 1 38 39 209
952 2 2 1 1 16 711 712
953 2 2 1 1 11 12 201
954 2 2 1 1 57 58 202
955 2 2 1 1 14 15 203
956 2 2 1 1 60 61 204
957 2 2 1 1 339 340 365
958 2 2 1 1 307 308 323
959 2 2 1 1 521 735 734
960 2 2 1 1 546 559 547
961 2 2 1 1 534 551 550
962 2 2 1 1 714 715 717
963 2 2 1 1 531 536 535
964 2 2 1 1 516 531 530
965 2 2 1 1 528 545 683
966 2 2 1 1 346 766 348
967 2 2 1 1 396 418 584
968 2 2 1 1 323 339 338
969 2 2 1 1 714 717 718
970 2 2 1 1 718 729 720
971 2 2 1 1 203 713 714
972 2 2 1 1 714 718 720
973 2 2 1 1 522 541 533
974 2 2 1 1 506 508 521
975 2 2 1 1 317 332 319
976 2 2 1 1 39 728 209
977 2 2 1 1 39 40 728
978 2 2 1 1 237 979 804
979 2 2 1 1 312 314 325
980 2 2 1 1 510 512 520
981 2 2 1 1 620 622 621
982 2 2 1 1 607 662 930
983 2 2 1 1 523 518 524
984 2 2 1 1 134 188 775
985 2 2 1 1 500 501 502
986 2 2 1 1 15 16 712
987 2 2 1 1 515 513 519
988 2 2 1 1 204 624 871
989 2 2 1 1 365 371 428
990 2 2 1 1 658 659 660
991 2 2 1 1 336 619 618
992 2 2 1 1 656 659 658
993 2 2 1 1 544 557 746
994 2 2 1 1 523 525 526
995 2 2 1 1 427 956 1030
996 2 2 1 1 430 616 489
997 2 2 1 1 318 319 320
998 2 2 1 1 326 359 358
999 2 2 1 1 282 438 440
1000 2 2 1 1 400 429 401
1001 2 2 1 1 530 538 587
1002 2 2 1 1 316 317 318
1003 2 2 1 1 10 11 732
1004 2 2 1 1 11 201 732
1005 2 2 1 1 238 995 805
1006 2 2 1 1 314 315 316
1007 2 2 1 1 623 625 624
1008 2 2 1 1 338 682 680
1009 2 2 1 1 317 319 318
1010 2 2 1 1 384 853 387
1011 2 2 1 1 619 620 621
1012 2 2 1 1 515 517 514
1013 2 2 1 1 734 735 847
1014 2 2 1 1 313 336 315
1015 2 2 1 1 359 726 376
1016 2 2 1 1 315 317 316
1017 2 2 1 1 320 321 322
1018 2 2 1 1 656 658 657
1019 2 2 1 1 712 741 713
1020 2 2 1 1 221 656 655
1021 2 2 1 1 512 513 514
1022 2 2 1 1 522 533 517
1023 2 2 1 1 514 513 515
1024 2 2 1 1 502 504 516
1025 2 2 1 1 517 518 522
1026 2 2 1 1 386 388 389
1027 2 2 1 1 36 37 792
1028 2 2 1 1 606 673 702
1029 2 2 1 1 669 893 888
1030 2 2 1 1 498 615 534
1031 2 2 1 1 40 41 737
1032 2 2 1 1 359 370 726
1033 2 2 1 1 206 654 582
1034 2 2 1 1 361 426 420
1035 2 2 1 1 313 315 314
1036 2 2 1 1 322 324 326
1037 2 2 1 1 206 582 581
1038 2 2 1 1 447 882 626
1039 2 2 1 1 523 526 730
1040 2 2 1 1 356 709 357
1041 2 2 1 1 359 360 370
1042 2 2 1 1 9 10 227
1043 2 2 1 1 55 56 228
1044 2 2 1 1 542 684 685
1045 2 2 1 1 328 357 369
1046 2 2 1 1 605 623 606
1047 2 2 1 1 321 738 327
1048 2 2 1 1 312 313 314
1049 2 2 1 1 356 368 709
1050 2 2 1 1 40 737 728
1051 2 2 1 1 556 1026 557
1052 2 2 1 1 517 533 731
1053 2 2 1 1 522 730 541
1054 2 2 1 1 319 332 738
1055 2 2 1 1 529 542 543
1056 2 2 1 1 525 528 529
1057 2 2 1 1 324 327 328
1058 2 2 1 1 328 356 357
1059 2 2 1 1 775 778 889
1060 2 2 1 1 544 548 556
1061 2 2 1 1 490 1036 562
1062 2 2 1 1 543 548 544
1063 2 2 1 1 220 602 603
1064 2 2 1 1 507 532 509
1065 2 2 1 1 533 547 731
1066 2 2 1 1 311 313 312
1067 2 2 1 1 340 404 371
1068 2 2 1 1 603 604 605
1069 2 2 1 1 529 543 544
1070 2 2 1 1 523 524 525
1071 2 2 1 1 357 422 369
1072 2 2 1 1 515 518 517
1073 2 2 1 1 711 741 712
1074 2 2 1 1 511 513 512
1075 2 2 1 1 522 518 523
1076 2 2 1 1 369 422 579
1077 2 2 1 1 510 511 512
1078 2 2 1 1 319 321 320
1079 2 2 1 1 309 337 311
1080 2 2 1 1 87 88 218
1081 2 2 1 1 41 42 219
1082 2 2 1 1 520 736 510
1083 2 2 1 1 380 381 383
1084 2 2 1 1 360 417 370
1085 2 2 1 1 326 360 359
1086 2 2 1 1 914 1041 929
1087 2 2 1 1 239 745 744
1088 2 2 1 1 225 333 334
1089 2 2 1 1 10 732 227
1090 2 2 1 1 321 324 322
1091 2 2 1 1 201 872 908
1092 2 2 1 1 509 511 510
1093 2 2 1 1 377 798 722
1094 2 2 1 1 690 707 706
1095 2 2 1 1 310 311 312
1096 2 2 1 1 521 734 506
1097 2 2 1 1 309 311 310
1098 2 2 1 1 8 9 743
1099 2 2 1 1 505 710 507
1100 2 2 1 1 330 701 747
1101 2 2 1 1 308 309 310
1102 2 2 1 1 606 623 624
1103 2 2 1 1 603 605 606
1104 2 2 1 1 515 519 740
1105 2 2 1 1 606 624 673
1106 2 2 1 1 508 509 510
1107 2 2 1 1 521 508 736
1108 2 2 1 1 507 509 508
1109 2 2 1 1 371 404 405
1110 2 2 1 1 88 89 744
1111 2 2 1 1 407 817 818
1112 2 2 1 1 522 523 730
1113 2 2 1 1 506 507 508
1114 2 2 1 1 406 672 678
1115 2 2 1 1 599 787 973
1116 2 2 1 1 524 518 740
1117 2 2 1 1 603 606 702
1118 2 2 1 1 240 687 686
1119 2 2 1 1 476 806 810
1120 2 2 1 1 212 688 933
1121 2 2 1 1 447 749 882
1122 2 2 1 1 374 486 375
1123 2 2 1 1 631 927 938
1124 2 2 1 1 624 625 871
1125 2 2 1 1 319 738 321
1126 2 2 1 1 41 219 737
1127 2 2 1 1 258 263 264
1128 2 2 1 1 305 303 374
1129 2 2 1 1 884 994 1016
1130 2 2 1 1 563 881 760
1131 2 2 1 1 569 573 571
1132 2 2 1 1 220 603 702
1133 2 2 1 1 7 8 237
1134 2 2 1 1 53 54 238
1135 2 2 1 1 400 982 429
1136 2 2 1 1 43 44 240
1137 2 2 1 1 89 90 239
1138 2 2 1 1 467 586 705
1139 2 2 1 1 389 393 920
1140 2 2 1 1 525 746 526
1141 2 2 1 1 507 710 532
1142 2 2 1 1 561 945 609
1143 2 2 1 1 505 507 506
1144 2 2 1 1 440 441 442
1145 2 2 1 1 251 479 254
1146 2 2 1 1 306 309 308
1147 2 2 1 1 515 740 518
1148 2 2 1 1 97 98 804
1149 2 2 1 1 51 52 805
1150 2 2 1 1 9 227 743
1151 2 2 1 1 91 92 812
1152 2 2 1 1 334 372 407
1153 2 2 1 1 504 505 506
1154 2 2 1 1 80 207 814
1155 2 2 1 1 474 585 480
1156 2 2 1 1 189 763 943
1157 2 2 1 1 508 510 736
1158 2 2 1 1 601 662 602
1159 2 2 1 1 326 751 360
1160 2 2 1 1 410 413 411
1161 2 2 1 1 21 225 593
1162 2 2 1 1 388 398 1002
1163 2 2 1 1 375 486 487
1164 2 2 1 1 299 335 301
1165 2 2 1 1 383 384 385
1166 2 2 1 1 305 306 304
1167 2 2 1 1 360 751 786
1168 2 2 1 1 88 744 218
1169 2 2 1 1 386 389 920
1170 2 2 1 1 340 767 404
1171 2 2 1 1 19 224 759
1172 2 2 1 1 324 751 326
1173 2 2 1 1 306 308 307
1174 2 2 1 1 279 436 437
1175 2 2 1 1 337 761 795
1176 2 2 1 1 625 891 731
1177 2 2 1 1 305 374 375
1178 2 2 1 1 501 504 502
1179 2 2 1 1 501 505 504
1180 2 2 1 1 600 992 742
1181 2 2 1 1 525 529 746
1182 2 2 1 1 222 495 494
1183 2 2 1 1 208 489 675
1184 2 2 1 1 620 878 902
1185 2 2 1 1 529 544 746
1186 2 2 1 1 214 274 280
1187 2 2 1 1 280 281 785
1188 2 2 1 1 773 885 926
1189 2 2 1 1 328 369 751
1190 2 2 1 1 655 657 753
1191 2 2 1 1 392 395 393
1192 2 2 1 1 493 494 610
1193 2 2 1 1 161 641 162
1194 2 2 1 1 177 848 678
1195 2 2 1 1 414 667 668
1196 2 2 1 1 454 1048 811
1197 2 2 1 1 550 576 972
1198 2 2 1 1 191 888 893
1199 2 2 1 1 8 743 237
1200 2 2 1 1 324 328 751
1201 2 2 1 1 304 303 305
1202 2 2 1 1 427 892 956
1203 2 2 1 1 487 912 795
1204 2 2 1 1 334 407 424
1205 2 2 1 1 226 675 846
1206 2 2 1 1 368 802 709
1207 2 2 1 1 308 767 323
1208 2 2 1 1 201 729 872
1209 2 2 1 1 89 239 744
1210 2 2 1 1 336 878 620
1211 2 2 1 1 540 555 554
1212 2 2 1 1 302 303 304
1213 2 2 1 1 340 371 365
1214 2 2 1 1 262 235 724
1215 2 2 1 1 323 340 339
1216 2 2 1 1 499 501 500
1217 2 2 1 1 253 971 255
1218 2 2 1 1 670 943 671
1219 2 2 1 1 423 745 924
1220 2 2 1 1 287 289 936
1221 2 2 1 1 369 786 751
1222 2 2 1 1 216 1006 285
1223 2 2 1 1 457 913 470
1224 2 2 1 1 158 813 159
1225 2 2 1 1 74 875 1021
1226 2 2 1 1 38 209 796
1227 2 2 1 1 499 784 501
1228 2 2 1 1 496 499 498
1229 2 2 1 1 262 724 890
1230 2 2 1 1 475 861 929
1231 2 2 1 1 249 253 255
1232 2 2 1 1 301 303 302
1233 2 2 1 1 148 640 149
1234 2 2 1 1 20 21 593
1235 2 2 1 1 300 301 302
1236 2 2 1 1 306 761 309
1237 2 2 1 1 37 38 796
1238 2 2 1 1 150 822 186
1239 2 2 1 1 312 325 823
1240 2 2 1 1 341 416 343
1241 2 2 1 1 18 19 759
1242 2 2 1 1 147 824 183
1243 2 2 1 1 308 310 767
1244 2 2 1 1 209 803 796
1245 2 2 1 1 296 867 818
1246 2 2 1 1 656 792 659
1247 2 2 1 1 323 767 340
1248 2 2 1 1 402 1012 938
1249 2 2 1 1 298 299 300
1250 2 2 1 1 369 579 786
1251 2 2 1 1 501 784 505
1252 2 2 1 1 715 716 854
1253 2 2 1 1 145 634 146
1254 2 2 1 1 476 810 963
1255 2 2 1 1 222 580 495
1256 2 2 1 1 325 827 823
1257 2 2 1 1 536 540 539
1258 2 2 1 1 505 784 710
1259 2 2 1 1 667 756 758
1260 2 2 1 1 531 537 536
1261 2 2 1 1 484 663 664
1262 2 2 1 1 259 254 473
1263 2 2 1 1 416 561 431
1264 2 2 1 1 305 761 306
1265 2 2 1 1 385 920 400
1266 2 2 1 1 412 670 671
1267 2 2 1 1 305 375 761
1268 2 2 1 1 299 301 300
1269 2 2 1 1 420 426 868
1270 2 2 1 1 360 786 417
1271 2 2 1 1 329 722 798
1272 2 2 1 1 141 826 180
1273 2 2 1 1 540 554 553
1274 2 2 1 1 757 842 844
1275 2 2 1 1 622 902 912
1276 2 2 1 1 209 728 794
1277 2 2 1 1 496 750 499
1278 2 2 1 1 534 615 551
1279 2 2 1 1 452 837 836
1280 2 2 1 1 144 831 182
1281 2 2 1 1 139 628 140
1282 2 2 1 1 170 821 171
1283 2 2 1 1 69 70 937
1284 2 2 1 1 598 599 973
1285 2 2 1 1 659 796 803
1286 2 2 1 1 155 829 156
1287 2 2 1 1 368 488 802
1288 2 2 1 1 407 955 424
1289 2 2 1 1 495 750 496
1290 2 2 1 1 554 555 558
1291 2 2 1 1 583 750 1047
1292 2 2 1 1 396 584 703
1293 2 2 1 1 499 750 784
1294 2 2 1 1 294 403 297
1295 2 2 1 1 97 804 231
1296 2 2 1 1 51 805 232
1297 2 2 1 1 79 814 832
1298 2 2 1 1 480 585 925
1299 2 2 1 1 151 830 152
1300 2 2 1 1 303 787 374
1301 2 2 1 1 650 949 762
1302 2 2 1 1 375 487 795
1303 2 2 1 1 295 297 298
1304 2 2 1 1 92 233 812
1305 2 2 1 1 375 795 761
1306 2 2 1 1 294 297 295
1307 2 2 1 1 299 755 335
1308 2 2 1 1 659 803 660
1309 2 2 1 1 404 767 823
1310 2 2 1 1 297 299 298
1311 2 2 1 1 205 980 711
1312 2 2 1 1 67 68 934
1313 2 2 1 1 173 632 174
1314 2 2 1 1 595 991 877
1315 2 2 1 1 372 817 407
1316 2 2 1 1 242 578 244
1317 2 2 1 1 55 228 850
1318 2 2 1 1 120 801 916
1319 2 2 1 1 142 633 143
1320 2 2 1 1 37 796 792
1321 2 2 1 1 58 59 873
1322 2 2 1 1 408 427 415
1323 2 2 1 1 313 878 336
1324 2 2 1 1 778 781 782
1325 2 2 1 1 509 857 511
1326 2 2 1 1 392 396 704
1327 2 2 1 1 347 348 349
1328 2 2 1 1 164 184 816
1329 2 2 1 1 79 80 814
1330 2 2 1 1 292 294 295
1331 2 2 1 1 473 749 474
1332 2 2 1 1 209 794 803
1333 2 2 1 1 261 268 269
1334 2 2 1 1 851 907 954
1335 2 2 1 1 378 380 897
1336 2 2 1 1 310 823 767
1337 2 2 1 1 370 417 865
1338 2 2 1 1 531 847 537
1339 2 2 1 1 389 391 392
1340 2 2 1 1 54 850 238
1341 2 2 1 1 404 823 827
1342 2 2 1 1 286 363 288
1343 2 2 1 1 243 245 246
1344 2 2 1 1 555 858 835
1345 2 2 1 1 659 792 796
1346 2 2 1 1 645 870 813
1347 2 2 1 1 468 627 626
1348 2 2 1 1 349 350 351
1349 2 2 1 1 514 731 891
1350 2 2 1 1 198 613 614
1351 2 2 1 1 446 834 919
1352 2 2 1 1 216 962 272
1353 2 2 1 1 73 1006 216
1354 2 2 1 1 204 871 968
1355 2 2 1 1 344 346 347
1356 2 2 1 1 645 646 647
1357 2 2 1 1 297 755 299
1358 2 2 1 1 311 337 878
1359 2 2 1 1 362 421 432
1360 2 2 1 1 445 452 451
1361 2 2 1 1 401 747 748
1362 2 2 1 1 255 883 1046
1363 2 2 1 1 476 881 806
1364 2 2 1 1 636 739 637
1365 2 2 1 1 285 1006 419
1366 2 2 1 1 420 868 596
1367 2 2 1 1 516 847 531
1368 2 2 1 1 310 312 823
1369 2 2 1 1 297 403 755
1370 2 2 1 1 283 285 284
1371 2 2 1 1 213 1026 700
1372 2 2 1 1 646 762 648
1373 2 2 1 1 276 283 278
1374 2 2 1 1 246 270 999
1375 2 2 1 1 452 876 837
1376 2 2 1 1 619 621 846
1377 2 2 1 1 841 1020 911
1378 2 2 1 1 520 512 891
1379 2 2 1 1 521 898 735
1380 2 2 1 1 516 734 847
1381 2 2 1 1 585 1043 791
1382 2 2 1 1 444 808 947
1383 2 2 1 1 111 195 841
1384 2 2 1 1 463 464 465
1385 2 2 1 1 404 827 405
1386 2 2 1 1 187 644 645
1387 2 2 1 1 246 265 270
1388 2 2 1 1 775 776 778
1389 2 2 1 1 469 723 1015
1390 2 2 1 1 435 481 961
1391 2 2 1 1 459 462 463
1392 2 2 1 1 288 290 289
1393 2 2 1 1 258 797 468
1394 2 2 1 1 555 799 558
1395 2 2 1 1 552 687 1005
1396 2 2 1 1 557 874 746
1397 2 2 1 1 666 998 993
1398 2 2 1 1 99 733 100
1399 2 2 1 1 260 261 256
1400 2 2 1 1 333 892 373
1401 2 2 1 1 290 294 292
1402 2 2 1 1 123 903 793
1403 2 2 1 1 568 800 1014
1404 2 2 1 1 78 79 832
1405 2 2 1 1 555 835 799
1406 2 2 1 1 433 976 870
1407 2 2 1 1 455 457 470
1408 2 2 1 1 579 1000 699
1409 2 2 1 1 390 703 879
1410 2 2 1 1 478 562 563
1411 2 2 1 1 658 966 661
1412 2 2 1 1 57 202 939
1413 2 2 1 1 258 257 263
1414 2 2 1 1 448 949 862
1415 2 2 1 1 285 828 286
1416 2 2 1 1 451 452 836
1417 2 2 1 1 290 292 291
1418 2 2 1 1 519 921 740
1419 2 2 1 1 235 1003 721
1420 2 2 1 1 425 825 852
1421 2 2 1 1 604 898 605
1422 2 2 1 1 233 699 1000
1423 2 2 1 1 54 55 850
1424 2 2 1 1 545 869 683
1425 2 2 1 1 263 815 264
1426 2 2 1 1 56 939 228
1427 2 2 1 1 45 46 849
1428 2 2 1 1 282 440 560
1429 2 2 1 1 246 970 613
1430 2 2 1 1 401 429 747
1431 2 2 1 1 378 897 817
1432 2 2 1 1 59 60 968
1433 2 2 1 1 715 854 719
1434 2 2 1 1 266 892 333
1435 2 2 1 1 465 466 477
1436 2 2 1 1 168 863 639
1437 2 2 1 1 102 764 103
1438 2 2 1 1 428 371 906
1439 2 2 1 1 480 770 901
1440 2 2 1 1 572 808 807
1441 2 2 1 1 377 908 872
1442 2 2 1 1 477 478 760
1443 2 2 1 1 778 779 781
1444 2 2 1 1 199 799 835
1445 2 2 1 1 128 771 129
1446 2 2 1 1 331 982 485
1447 2 2 1 1 468 797 627
1448 2 2 1 1 207 912 814
1449 2 2 1 1 671 943 672
1450 2 2 1 1 672 943 763
1451 2 2 1 1 250 257 252
1452 2 2 1 1 85 1029 208
1453 2 2 1 1 756 1008 758
1454 2 2 1 1 269 652 653
1455 2 2 1 1 554 558 851
1456 2 2 1 1 286 828 363
1457 2 2 1 1 509 532 857
1458 2 2 1 1 554 851 954
1459 2 2 1 1 361 676 426
1460 2 2 1 1 377 872 798
1461 2 2 1 1 69 937 210
1462 2 2 1 1 181 637 638
1463 2 2 1 1 788 789 1027
1464 2 2 1 1 596 900 641
1465 2 2 1 1 347 349 352
1466 2 2 1 1 138 175 139
1467 2 2 1 1 172 176 173
1468 2 2 1 1 452 475 876
1469 2 2 1 1 744 745 959
1470 2 2 1 1 638 864 639
1471 2 2 1 1 423 959 745
1472 2 2 1 1 383 385 397
1473 2 2 1 1 1 983 98
1474 2 2 1 1 3 984 52
1475 2 2 1 1 2 45 985
1476 2 2 1 1 4 91 986
1477 2 2 1 1 268 923 652
1478 2 2 1 1 87 218 987
1479 2 2 1 1 363 742 992
1480 2 2 1 1 442 445 451
1481 2 2 1 1 67 934 1038
1482 2 2 1 1 141 180 142
1483 2 2 1 1 169 178 170
1484 2 2 1 1 469 944 577
1485 2 2 1 1 442 443 445
1486 2 2 1 1 144 182 145
1487 2 2 1 1 166 181 167
1488 2 2 1 1 217 789 788
1489 2 2 1 1 612 862 1028
1490 2 2 1 1 395 704 1010
1491 2 2 1 1 718 872 729
1492 2 2 1 1 487 814 912
1493 2 2 1 1 370 865 727
1494 2 2 1 1 364 681 701
1495 2 2 1 1 105 790 106
1496 2 2 1 1 742 828 875
1497 2 2 1 1 147 183 148
1498 2 2 1 1 163 184 164
1499 2 2 1 1 335 973 787
1500 2 2 1 1 125 884 126
1501 2 2 1 1 660 803 869
1502 2 2 1 1 150 186 151
1503 2 2 1 1 160 185 161
1504 2 2 1 1 294 918 403
1505 2 2 1 1 202 873 941
1506 2 2 1 1 571 573 574
1507 2 2 1 1 157 187 158
1508 2 2 1 1 646 649 762
1509 2 2 1 1 159 642 160
1510 2 2 1 1 415 663 484
1511 2 2 1 1 271 770 1016
1512 2 2 1 1 488 1029 987
1513 2 2 1 1 311 878 313
1514 2 2 1 1 574 820 834
1515 2 2 1 1 181 638 863
1516 2 2 1 1 58 873 202
1517 2 2 1 1 397 400 401
1518 2 2 1 1 646 648 647
1519 2 2 1 1 569 571 570
1520 2 2 1 1 683 869 794
1521 2 2 1 1 393 395 485
1522 2 2 1 1 565 566 567
1523 2 2 1 1 215 650 649
1524 2 2 1 1 154 977 155
1525 2 2 1 1 567 568 569
1526 2 2 1 1 335 755 838
1527 2 2 1 1 536 537 858
1528 2 2 1 1 108 768 109
1529 2 2 1 1 199 835 662
1530 2 2 1 1 563 564 565
1531 2 2 1 1 674 997 1013
1532 2 2 1 1 583 969 710
1533 2 2 1 1 560 965 754
1534 2 2 1 1 7 983 1
1535 2 2 1 1 3 53 984
1536 2 2 1 1 2 985 44
1537 2 2 1 1 4 986 90
1538 2 2 1 1 776 777 779
1539 2 2 1 1 296 896 748
1540 2 2 1 1 885 886 926
1541 2 2 1 1 540 858 555
1542 2 2 1 1 488 987 802
1543 2 2 1 1 228 939 697
1544 2 2 1 1 636 816 739
1545 2 2 1 1 526 746 874
1546 2 2 1 1 165 636 166
1547 2 2 1 1 660 869 921
1548 2 2 1 1 570 571 572
1549 2 2 1 1 268 271 994
1550 2 2 1 1 645 647 870
1551 2 2 1 1 68 210 934
1552 2 2 1 1 453 811 1048
1553 2 2 1 1 485 982 1001
1554 2 2 1 1 412 852 825
1555 2 2 1 1 156 643 157
1556 2 2 1 1 207 622 912
1557 2 2 1 1 447 626 951
1558 2 2 1 1 259 901 260
1559 2 2 1 1 410 415 413
1560 2 2 1 1 205 906 980
1561 2 2 1 1 794 869 803
1562 2 2 1 1 620 902 622
1563 2 2 1 1 187 643 644
1564 2 2 1 1 644 646 645
1565 2 2 1 1 374 787 964
1566 2 2 1 1 777 819 780
1567 2 2 1 1 418 927 631
1568 2 2 1 1 584 1022 864
1569 2 2 1 1 161 185 641
1570 2 2 1 1 418 631 946
1571 2 2 1 1 570 572 806
1572 2 2 1 1 218 802 987
1573 2 2 1 1 240 849 687
1574 2 2 1 1 389 392 393
1575 2 2 1 1 667 758 893
1576 2 2 1 1 444 859 809
1577 2 2 1 1 503 855 877
1578 2 2 1 1 167 863 168
1579 2 2 1 1 491 1032 492
1580 2 2 1 1 627 834 951
1581 2 2 1 1 807 808 809
1582 2 2 1 1 162 900 163
1583 2 2 1 1 162 641 900
1584 2 2 1 1 644 649 646
1585 2 2 1 1 352 1025 961
1586 2 2 1 1 148 183 640
1587 2 2 1 1 187 645 813
1588 2 2 1 1 551 1044 575
1589 2 2 1 1 158 187 813
1590 2 2 1 1 735 988 847
1591 2 2 1 1 718 798 872
1592 2 2 1 1 159 813 642
1593 2 2 1 1 171 630 172
1594 2 2 1 1 396 703 704
1595 2 2 1 1 201 908 732
1596 2 2 1 1 145 182 634
1597 2 2 1 1 293 342 894
1598 2 2 1 1 139 175 628
1599 2 2 1 1 611 1035 577
1600 2 2 1 1 217 788 1019
1601 2 2 1 1 153 1019 154
1602 2 2 1 1 548 932 556
1603 2 2 1 1 409 998 665
1604 2 2 1 1 557 707 874
1605 2 2 1 1 444 947 1044
1606 2 2 1 1 185 866 641
1607 2 2 1 1 170 178 821
1608 2 2 1 1 772 819 777
1609 2 2 1 1 372 378 817
1610 2 2 1 1 479 626 882
1611 2 2 1 1 200 964 599
1612 2 2 1 1 572 807 806
1613 2 2 1 1 695 967 874
1614 2 2 1 1 756 993 757
1615 2 2 1 1 173 176 632
1616 2 2 1 1 568 782 781
1617 2 2 1 1 806 807 810
1618 2 2 1 1 753 1023 969
1619 2 2 1 1 6 179 856
1620 2 2 1 1 514 891 512
1621 2 2 1 1 568 1014 782
1622 2 2 1 1 536 858 540
1623 2 2 1 1 696 730 967
1624 2 2 1 1 152 217 153
1625 2 2 1 1 463 465 472
1626 2 2 1 1 119 801 120
1627 2 2 1 1 137 629 138
1628 2 2 1 1 151 186 830
1629 2 2 1 1 142 180 633
1630 2 2 1 1 471 974 928
1631 2 2 1 1 607 988 735
1632 2 2 1 1 242 244 243
1633 2 2 1 1 244 247 245
1634 2 2 1 1 5 174 895
1635 2 2 1 1 478 563 760
1636 2 2 1 1 5 177 99
1637 2 2 1 1 6 136 179
1638 2 2 1 1 440 965 560
1639 2 2 1 1 545 921 869
1640 2 2 1 1 181 636 637
1641 2 2 1 1 567 569 570
1642 2 2 1 1 886 1043 940
1643 2 2 1 1 579 933 786
1644 2 2 1 1 732 908 953
1645 2 2 1 1 399 853 852
1646 2 2 1 1 433 887 432
1647 2 2 1 1 182 635 634
1648 2 2 1 1 521 736 898
1649 2 2 1 1 156 829 643
1650 2 2 1 1 605 898 1004
1651 2 2 1 1 663 783 664
1652 2 2 1 1 545 740 921
1653 2 2 1 1 705 1042 944
1654 2 2 1 1 236 241 242
1655 2 2 1 1 526 874 967
1656 2 2 1 1 439 960 944
1657 2 2 1 1 495 580 1047
1658 2 2 1 1 344 347 935
1659 2 2 1 1 290 918 294
1660 2 2 1 1 234 700 932
1661 2 2 1 1 236 243 613
1662 2 2 1 1 376 908 377
1663 2 2 1 1 114 917 115
1664 2 2 1 1 155 267 829
1665 2 2 1 1 273 962 276
1666 2 2 1 1 653 970 999
1667 2 2 1 1 454 915 963
1668 2 2 1 1 176 630 631
1669 2 2 1 1 777 780 779
1670 2 2 1 1 572 860 808
1671 2 2 1 1 171 821 630
1672 2 2 1 1 229 783 663
1673 2 2 1 1 532 969 1023
1674 2 2 1 1 519 966 921
1675 2 2 1 1 371 405 906
1676 2 2 1 1 160 642 185
1677 2 2 1 1 549 550 972
1678 2 2 1 1 776 779 778
1679 2 2 1 1 135 889 136
1680 2 2 1 1 611 592 1035
1681 2 2 1 1 263 257 590
1682 2 2 1 1 680 867 681
1683 2 2 1 1 98 983 804
1684 2 2 1 1 52 984 805
1685 2 2 1 1 91 812 986
1686 2 2 1 1 657 1023 753
1687 2 2 1 1 424 955 1013
1688 2 2 1 1 548 552 1005
1689 2 2 1 1 163 900 184
1690 2 2 1 1 842 904 1020
1691 2 2 1 1 166 636 181
1692 2 2 1 1 450 958 762
1693 2 2 1 1 267 977 788
1694 2 2 1 1 244 578 839
1695 2 2 1 1 401 748 896
1696 2 2 1 1 520 623 1004
1697 2 2 1 1 626 627 951
1698 2 2 1 1 100 763 101
1699 2 2 1 1 422 423 924
1700 2 2 1 1 101 189 102
1701 2 2 1 1 133 188 134
1702 2 2 1 1 458 1035 461
1703 2 2 1 1 126 769 127
1704 2 2 1 1 443 861 445
1705 2 2 1 1 345 1033 354
1706 2 2 1 1 553 948 594
1707 2 2 1 1 188 773 774
1708 2 2 1 1 703 864 879
1709 2 2 1 1 855 931 877
1710 2 2 1 1 157 643 187
1711 2 2 1 1 107 194 108
1712 2 2 1 1 127 192 128
1713 2 2 1 1 172 630 176
1714 2 2 1 1 288 918 290
1715 2 2 1 1 167 181 863
1716 2 2 1 1 152 830 217
1717 2 2 1 1 774 777 776
1718 2 2 1 1 106 922 107
1719 2 2 1 1 192 769 770
1720 2 2 1 1 467 1015 723
1721 2 2 1 1 196 911 845
1722 2 2 1 1 184 868 816
1723 2 2 1 1 366 674 1013
1724 2 2 1 1 190 886 885
1725 2 2 1 1 261 269 765
1726 2 2 1 1 266 956 892
1727 2 2 1 1 174 632 895
1728 2 2 1 1 131 885 132
1729 2 2 1 1 272 962 273
1730 2 2 1 1 376 953 908
1731 2 2 1 1 342 344 935
1732 2 2 1 1 614 970 653
1733 2 2 1 1 537 988 930
1734 2 2 1 1 288 363 918
1735 2 2 1 1 132 885 773
1736 2 2 1 1 453 855 811
1737 2 2 1 1 138 629 175
1738 2 2 1 1 385 386 920
1739 2 2 1 1 135 775 889
1740 2 2 1 1 473 882 749
1741 2 2 1 1 397 401 896
1742 2 2 1 1 337 795 902
1743 2 2 1 1 129 791 130
1744 2 2 1 1 104 888 191
1745 2 2 1 1 354 1033 676
1746 2 2 1 1 237 804 983
1747 2 2 1 1 238 805 984
1748 2 2 1 1 104 191 105
1749 2 2 1 1 130 190 131
1750 2 2 1 1 175 629 800
1751 2 2 1 1 239 986 812
1752 2 2 1 1 110 195 111
1753 2 2 1 1 124 193 125
1754 2 2 1 1 757 904 842
1755 2 2 1 1 527 910 836
1756 2 2 1 1 56 57 939
1757 2 2 1 1 585 940 1043
1758 2 2 1 1 271 1016 994
1759 2 2 1 1 227 732 953
1760 2 2 1 1 566 1011 950
1761 2 2 1 1 245 265 246
1762 2 2 1 1 265 721 270
1763 2 2 1 1 233 1000 924
1764 2 2 1 1 281 754 910
1765 2 2 1 1 243 244 245
1766 2 2 1 1 457 459 913
1767 2 2 1 1 210 937 785
1768 2 2 1 1 244 839 247
1769 2 2 1 1 605 1004 623
1770 2 2 1 1 640 974 822
1771 2 2 1 1 236 242 243
1772 2 2 1 1 581 583 1047
1773 2 2 1 1 477 760 880
1774 2 2 1 1 664 890 843
1775 2 2 1 1 123 793 124
1776 2 2 1 1 118 198 119
1777 2 2 1 1 198 614 801
1778 2 2 1 1 99 177 733
1779 2 2 1 1 109 957 110
1780 2 2 1 1 419 875 828
1781 2 2 1 1 211 742 875
1782 2 2 1 1 443 455 861
1783 2 2 1 1 261 971 256
1784 2 2 1 1 442 451 965
1785 2 2 1 1 532 710 969
1786 2 2 1 1 415 1030 663
1787 2 2 1 1 112 911 113
1788 2 2 1 1 113 196 114
1789 2 2 1 1 121 197 122
1790 2 2 1 1 376 726 953
1791 2 2 1 1 403 918 992
1792 2 2 1 1 444 909 859
1793 2 2 1 1 708 961 1025
1794 2 2 1 1 351 1045 833
1795 2 2 1 1 390 1010 704
1796 2 2 1 1 447 951 820
1797 2 2 1 1 195 844 842
1798 2 2 1 1 594 991 595
1799 2 2 1 1 450 1045 958
1800 2 2 1 1 231 804 979
1801 2 2 1 1 439 862 960
1802 2 2 1 1 417 786 933
1803 2 2 1 1 73 74 1021
1804 2 2 1 1 845 911 1020
1805 2 2 1 1 564 1009 826
1806 2 2 1 1 739 816 868
1807 2 2 1 1 736 1004 898
1808 2 2 1 1 397 896 1007
1809 2 2 1 1 638 879 864
1810 2 2 1 1 271 901 770
1811 2 2 1 1 613 970 614
1812 2 2 1 1 195 842 841
1813 2 2 1 1 820 951 834
1814 2 2 1 1 374 964 486
1815 2 2 1 1 571 574 860
1816 2 2 1 1 451 754 965
1817 2 2 1 1 100 733 763
1818 2 2 1 1 117 952 118
1819 2 2 1 1 402 848 1012
1820 2 2 1 1 586 1042 705
1821 2 2 1 1 155 977 267
1822 2 2 1 1 695 696 967
1823 2 2 1 1 280 785 937
1824 2 2 1 1 658 660 966
1825 2 2 1 1 553 554 954
1826 2 2 1 1 571 860 572
1827 2 2 1 1 60 204 968
1828 2 2 1 1 416 899 561
1829 2 2 1 1 662 835 930
1830 2 2 1 1 259 480 901
1831 2 2 1 1 726 727 978
1832 2 2 1 1 809 859 931
1833 2 2 1 1 177 895 848
1834 2 2 1 1 5 895 177
1835 2 2 1 1 234 932 1005
1836 2 2 1 1 672 763 733
1837 2 2 1 1 676 1033 677
1838 2 2 1 1 193 793 923
1839 2 2 1 1 472 915 914
1840 2 2 1 1 218 744 959
1841 2 2 1 1 285 419 828
1842 2 2 1 1 195 957 844
1843 2 2 1 1 191 893 790
1844 2 2 1 1 611 577 960
1845 2 2 1 1 455 470 861
1846 2 2 1 1 526 967 730
1847 2 2 1 1 296 817 897
1848 2 2 1 1 210 851 934
1849 2 2 1 1 363 992 918
1850 2 2 1 1 247 839 843
1851 2 2 1 1 102 189 764
1852 2 2 1 1 476 760 881
1853 2 2 1 1 115 241 116
1854 2 2 1 1 558 934 851
1855 2 2 1 1 154 1019 977
1856 2 2 1 1 289 293 936
1857 2 2 1 1 407 818 955
1858 2 2 1 1 183 928 640
1859 2 2 1 1 637 739 905
1860 2 2 1 1 227 978 743
1861 2 2 1 1 347 352 935
1862 2 2 1 1 772 886 940
1863 2 2 1 1 474 940 585
1864 2 2 1 1 128 192 771
1865 2 2 1 1 711 980 741
1866 2 2 1 1 691 995 693
1867 2 2 1 1 483 635 990
1868 2 2 1 1 431 677 1033
1869 2 2 1 1 768 844 957
1870 2 2 1 1 86 87 987
1871 2 2 1 1 136 889 179
1872 2 2 1 1 411 825 425
1873 2 2 1 1 716 1031 827
1874 2 2 1 1 126 884 769
1875 2 2 1 1 422 1000 579
1876 2 2 1 1 433 866 976
1877 2 2 1 1 121 916 197
1878 2 2 1 1 394 1040 905
1879 2 2 1 1 772 926 886
1880 2 2 1 1 428 1037 674
1881 2 2 1 1 471 752 974
1882 2 2 1 1 551 615 1018
1883 2 2 1 1 106 790 922
1884 2 2 1 1 122 197 903
1885 2 2 1 1 129 771 791
1886 2 2 1 1 586 833 1042
1887 2 2 1 1 73 1021 1006
1888 2 2 1 1 391 927 418
1889 2 2 1 1 520 1004 736
1890 2 2 1 1 86 987 1029
1891 2 2 1 1 519 513 1024
1892 2 2 1 1 400 920 1001
1893 2 2 1 1 810 1048 963
1894 2 2 1 1 108 194 768
1895 2 2 1 1 231 979 865
1896 2 2 1 1 632 1012 895
1897 2 2 1 1 268 994 923
1898 2 2 1 1 349 1025 352
1899 2 2 1 1 395 945 485
1900 2 2 1 1 716 741 1031
1901 2 2 1 1 580 581 1047
1902 2 2 1 1 428 759 1037
1903 2 2 1 1 426 905 739
1904 2 2 1 1 7 237 983
1905 2 2 1 1 53 238 984
1906 2 2 1 1 85 86 1029
1907 2 2 1 1 44 985 240
1908 2 2 1 1 90 986 239
1909 2 2 1 1 112 841 911
1910 2 2 1 1 476 880 760
1911 2 2 1 1 454 963 1048
1912 2 2 1 1 448 1045 450
1913 2 2 1 1 342 935 894
1914 2 2 1 1 450 762 949
1915 2 2 1 1 105 191 790
1916 2 2 1 1 101 763 189
1917 2 2 1 1 125 193 884
1918 2 2 1 1 614 916 801
1919 2 2 1 1 440 442 965
1920 2 2 1 1 459 463 913
1921 2 2 1 1 511 1024 513
1922 2 2 1 1 263 1017 815
1923 2 2 1 1 642 870 976
1924 2 2 1 1 238 850 995
1925 2 2 1 1 229 663 1030
1926 2 2 1 1 276 962 283
1927 2 2 1 1 127 769 192
1928 2 2 1 1 415 427 1030
1929 2 2 1 1 527 948 954
1930 2 2 1 1 628 1011 826
1931 2 2 1 1 564 826 1011
1932 2 2 1 1 439 448 862
1933 2 2 1 1 213 706 1026
1934 2 2 1 1 454 914 915
1935 2 2 1 1 532 1023 857
1936 2 2 1 1 107 922 194
1937 2 2 1 1 461 1035 592
1938 2 2 1 1 665 998 666
1939 2 2 1 1 588 909 1018
1940 2 2 1 1 660 921 966
1941 2 2 1 1 253 256 971
1942 2 2 1 1 469 1015 944
1943 2 2 1 1 237 743 1039
1944 2 2 1 1 109 768 957
1945 2 2 1 1 769 884 1016
1946 2 2 1 1 896 897 1007
1947 2 2 1 1 558 799 1038
1948 2 2 1 1 240 985 849
1949 2 2 1 1 435 961 708
1950 2 2 1 1 293 894 936
1951 2 2 1 1 131 190 885
1952 2 2 1 1 633 1036 831
1953 2 2 1 1 185 976 866
1954 2 2 1 1 224 1037 759
1955 2 2 1 1 567 570 1034
1956 2 2 1 1 463 472 913
1957 2 2 1 1 405 1031 980
1958 2 2 1 1 577 944 960
1959 2 2 1 1 380 1007 897
1960 2 2 1 1 130 791 190
1961 2 2 1 1 527 907 910
1962 2 2 1 1 721 1003 883
1963 2 2 1 1 178 639 1022
1964 2 2 1 1 119 198 801
1965 2 2 1 1 448 833 1045
1966 2 2 1 1 741 980 1031
1967 2 2 1 1 260 901 271
1968 2 2 1 1 537 847 988
1969 2 2 1 1 390 879 394
1970 2 2 1 1 124 793 193
1971 2 2 1 1 637 1040 638
1972 2 2 1 1 821 975 946
1973 2 2 1 1 758 790 893
1974 2 2 1 1 110 957 195
1975 2 2 1 1 230 1046 248
1976 2 2 1 1 607 930 988
1977 2 2 1 1 176 938 632
1978 2 2 1 1 503 877 991
1979 2 2 1 1 296 897 896
1980 2 2 1 1 477 880 981
1981 2 2 1 1 335 838 973
1982 2 2 1 1 840 1020 904
1983 2 2 1 1 175 950 628
1984 2 2 1 1 114 196 917
1985 2 2 1 1 45 849 985
1986 2 2 1 1 465 981 472
1987 2 2 1 1 269 999 765
1988 2 2 1 1 481 936 894
1989 2 2 1 1 255 971 765
1990 2 2 1 1 727 865 979
1991 2 2 1 1 383 397 1007
1992 2 2 1 1 630 821 946
1993 2 2 1 1 197 942 903
1994 2 2 1 1 178 975 821
1995 2 2 1 1 470 914 929
1996 2 2 1 1 402 1002 848
1997 2 2 1 1 495 1047 750
1998 2 2 1 1 176 631 938
1999 2 2 1 1 467 705 1015
2000 2 2 1 1 773 926 774
2001 2 2 1 1 113 911 196
2002 2 2 1 1 465 477 981
2003 2 2 1 1 118 952 198
2004 2 2 1 1 638 1040 879
2005 2 2 1 1 405 827 1031
2006 2 2 1 1 769 1016 770
2007 2 2 1 1 693 995 850
2008 2 2 1 1 269 653 999
2009 2 2 1 1 880 915 981
2010 2 2 1 1 470 929 861
2011 2 2 1 1 419 1021 875
2012 2 2 1 1 115 917 241
2013 2 2 1 1 223 815 1017
2014 2 2 1 1 639 864 1022
2015 2 2 1 1 453 1048 810
2016 2 2 1 1 185 642 976
2017 2 2 1 1 261 765 971
2018 2 2 1 1 630 946 631
2019 2 2 1 1 788 977 1019
2020 2 2 1 1 472 981 915
2021 2 2 1 1 565 1034 881
2022 2 2 1 1 190 1043 886
2023 2 2 1 1 629 856 1014
2024 2 2 1 1 448 450 949
2025 2 2 1 1 175 800 950
2026 2 2 1 1 380 383 1007
2027 2 2 1 1 650 651 1028
2028 2 2 1 1 349 351 1025
2029 2 2 1 1 848 895 1012
2030 2 2 1 1 490 831 1036
2031 2 2 1 1 405 980 906
2032 2 2 1 1 409 904 998
2033 2 2 1 1 640 928 974
2034 2 2 1 1 393 485 1001
2035 2 2 1 1 652 903 942
2036 2 2 1 1 263 590 1017
2037 2 2 1 1 424 1013 997
2038 2 2 1 1 248 883 1003
2039 2 2 1 1 194 989 768
2040 2 2 1 1 197 916 942
2041 2 2 1 1 1027 612 1028
2042 2 2 1 1 548 1005 932
2043 2 2 1 1 444 1044 909
2044 2 2 1 1 558 1038 934
2045 2 2 1 1 229 1030 956
2046 2 2 1 1 270 765 999
2047 2 2 1 1 527 954 907
2048 2 2 1 1 153 217 1019
2049 2 2 1 1 193 923 994
2050 2 2 1 1 727 979 1039
2051 2 2 1 1 491 996 1032
2052 2 2 1 1 248 1046 883
2053 2 2 1 1 566 950 800
2054 2 2 1 1 880 963 915
2055 2 2 1 1 565 567 1034
2056 2 2 1 1 782 1014 856
2057 2 2 1 1 553 954 948
2058 2 2 1 1 454 811 1041
2059 2 2 1 1 180 826 1009
2060 2 2 1 1 628 950 1011
2061 2 2 1 1 629 1014 800
2062 2 2 1 1 393 1001 920
2063 2 2 1 1 193 994 884
2064 2 2 1 1 637 905 1040
2065 2 2 1 1 331 1032 996
2066 2 2 1 1 705 944 1015
2067 2 2 1 1 366 1013 955
2068 2 2 1 1 475 929 1041
2069 2 2 1 1 331 996 982
2070 2 2 1 1 394 879 1040
2071 2 2 1 1 758 922 790
2072 2 2 1 1 331 899 1032
2073 2 2 1 1 492 1032 899
2074 2 2 1 1 841 842 1020
2075 2 2 1 1 752 822 974
2076 2 2 1 1 190 791 1043
2077 2 2 1 1 194 922 1008
2078 2 2 1 1 632 938 1012
2079 2 2 1 1 840 845 1020
2080 2 2 1 1 666 993 756
2081 2 2 1 1 178 1022 975
2082 2 2 1 1 651 788 1027
2083 2 2 1 1 194 1008 989
2084 2 2 1 1 757 998 904
2085 2 2 1 1 464 483 990
2086 2 2 1 1 419 1006 1021
2087 2 2 1 1 429 982 996
2088 2 2 1 1 584 975 1022
2089 2 2 1 1 476 963 880
2090 2 2 1 1 758 1008 922
2091 2 2 1 1 422 924 1000
2092 2 2 1 1 757 993 998
2093 2 2 1 1 756 989 1008
2094 2 2 1 1 1027 1028 651
2095 2 2 1 1 727 1039 978
2096 2 2 1 1 743 978 1039
2097 2 2 1 1 116 236 117
2098 2 2 1 1 614 942 916
2099 2 2 1 1 453 807 809
2100 2 2 1 1 210 785 907
$EndElements
