$MeshFormat
2.2 0 8
$EndMeshFormat
$Nodes
586
1 -1 -0.5 0
2 1 -0.5 0
3 1 0.5 0
4 -1 0.5 0
5 -0.1 0.1 0
6 0.1 0.1 0
7 -0.8947368421055552 -0.5 0
8 -0.7894736842111103 -0.5 0
9 -0.6842105263166655 -0.5 0
10 -0.5789473684222206 -0.5 0
11 -0.4736842105277758 -0.5 0
12 -0.3684210526333309 -0.5 0
13 -0.2631578947388861 -0.5 0
14 -0.1578947368444412 -0.5 0
15 -0.05263157894999637 -0.5 0
16 0.05263157894474046 -0.5 0
17 0.1578947368397694 -0.5 0
18 0.2631578947347981 -0.5 0
19 0.3684210526298271 -0.5 0
20 0.4736842105248558 -0.5 0
21 0.5789473684198847 -0.5 0
22 0.6842105263149136 -0.5 0
23 0.7894736842099424 -0.5 0
24 0.8947368421049713 -0.5 0
25 1 -0.3888888888891971 0
26 1 -0.2777777777783942 0
27 1 -0.1666666666675913 0
28 1 -0.05555555555678843 0
29 1 0.05555555555432268 0
30 1 0.1666666666657419 0
31 1 0.2777777777771613 0
32 1 0.3888888888885806 0
33 0.8947368421055552 0.5 0
34 0.7894736842111103 0.5 0
35 0.6842105263166655 0.5 0
36 0.5789473684222206 0.5 0
37 0.4736842105277758 0.5 0
38 0.3684210526333309 0.5 0
39 0.2631578947388861 0.5 0
40 0.1578947368444412 0.5 0
41 0.05263157894999637 0.5 0
42 -0.05263157894474046 0.5 0
43 -0.1578947368397694 0.5 0
44 -0.2631578947347981 0.5 0
45 -0.3684210526298271 0.5 0
46 -0.4736842105248558 0.5 0
47 -0.5789473684198847 0.5 0
48 -0.6842105263149136 0.5 0
49 -0.7894736842099424 0.5 0
50 -0.8947368421049713 0.5 0
51 -1 0.3888888888891971 0
52 -1 0.2777777777783942 0
53 -1 0.1666666666675913 0
54 -1 0.05555555555678843 0
55 -1 -0.05555555555432268 0
56 -1 -0.1666666666657419 0
57 -1 -0.2777777777771613 0
58 -1 -0.3888888888885806 0
59 -0.09876883405953943 0.08435655349613889 0
60 -0.09510565162956931 0.0690983005626713 0
61 -0.08910065241892769 0.05460095002622373 0
62 -0.08090169943763434 0.04122147477094482 0
63 -0.07071067811883817 0.02928932188152868 0
64 -0.05877852522948179 0.01909830056267561 0
65 -0.04539904997423319 0.01089934758130512 0
66 -0.03090169943782201 0.004894348370590967 0
67 -0.01564344650439057 0.001231165940544426 0
68 -3.96044880376055e-13 0 0
69 0.01564344650368284 0.001231165940432336 0
70 0.03090169943722137 0.004894348370395818 0
71 0.04539904997373871 0.01089934758105317 0
72 0.0587785252291109 0.01909830056240615 0
73 0.07071067811857341 0.02928932188126392 0
74 0.08090169943745151 0.04122147477069318 0
75 0.08910065241883158 0.05460095002603511 0
76 0.09510565162952611 0.06909830056253836 0
77 0.09876883405952852 0.08435655349607002 0
78 0.0987688340595399 0.1156434465038581 0
79 0.09510565162957443 0.1309016994373129 0
80 0.08910065241893093 0.1453990499737699 0
81 0.08090169943763929 0.1587785252290484 0
82 0.07071067811884134 0.1707106781184682 0
83 0.058778525229495 0.1809016994373148 0
84 0.04539904997424282 0.18910065241869 0
85 0.03090169943783497 0.1951056516294048 0
86 0.01564344650440678 0.198768834059453 0
87 4.148076494922201e-13 0.2 0
88 -0.01564344650366159 0.198768834059571 0
89 -0.03090169943720132 0.1951056516296107 0
90 -0.04539904997372596 0.1891006524189533 0
91 -0.05877852522911057 0.1809016994375941 0
92 -0.07071067811857 0.1707106781187395 0
93 -0.08090169943745457 0.1587785252293026 0
94 -0.08910065241883003 0.145399049973968 0
95 -0.09510565162952801 0.1309016994374558 0
96 -0.09876883405952902 0.1156434465039269 0
97 0.113216931038271 0.09069889245376873 0
98 -0.113943061408926 0.09119583942102537 0
99 -0.09670108046253029 0.0411510121400868 0
100 0.09679040126318025 0.04061321325088594 0
101 -0.05993716202809158 0.003325481560408872 0
102 0.05921963418920452 0.003363342002358677 0
103 -0.5244168199905272 -0.4064368197065086 0
104 0.5296312014076333 -0.4123889571319356 0
105 0.1044124357529233 0.1432130980312509 0
106 -0.1080657531937735 0.1432664955660587 0
107 -0.00950258180243866 -0.01333789959576088 0
108 0.5217968768994237 0.4149829578998006 0
109 -0.5244624324517967 0.4114746389855328 0
110 0.02654649150810156 -0.01076107240230693 0
111 -0.08624675671700183 0.1740939266879116 0
112 0.08676526182060594 0.1736648031845475 0
113 -0.06030104962826401 0.1974472169579162 0
114 0.05977260237575609 0.1967718107505393 0
115 -0.02629047542332436 0.2108298799021035 0
116 0.02745683013159693 0.2107992376156337 0
117 -0.9096940867733561 0.001275470734429681 0
118 0.9083558171865997 -0.00261316940170296 0
119 -0.2064736390334426 -0.4153014145190586 0
120 0.2018420176849669 -0.4131420588384731 0
121 0.00175098368365238 -0.4154289969043182 0
122 0.3105594998148875 0.4073467122764136 0
123 -0.3079134947509748 0.4162424895515361 0
124 -0.9057699677368721 0.2219043423130299 0
125 0.8947556023413686 0.2246171906798149 0
126 0.9088164572218678 -0.2189824423783377 0
127 -0.9035892057519936 -0.2268325029607597 0
128 0.1015830801046506 0.421888930844065 0
129 -0.09862852667712643 0.4115212112372043 0
130 -0.7336083394392561 0.414327184580065 0
131 0.7375507693274554 0.4115688480190084 0
132 0.734860115854802 -0.4092479589848337 0
133 -0.7383981373119877 -0.4087765669107554 0
134 -0.009057796097896097 0.4112788777434072 0
135 -0.05786960329672329 0.3378768537091696 0
136 -0.1243139138575734 0.3392082341282799 0
137 -0.09432027757784416 0.2959391100179455 0
138 -0.1424268928035948 0.281802414896017 0
139 -0.0294495294804921 0.2891639227017434 0
140 -0.1811562249285383 0.3260770353306012 0
141 -0.1972210658004845 0.2726252943713253 0
142 -0.164676808093987 0.2345969420651407 0
143 -0.2111060080859526 0.2255126850909281 0
144 -0.2468602046370787 0.259537414399911 0
145 -0.2587350148416082 0.2102263454835533 0
146 -0.2990538533694773 0.2461622653561303 0
147 -0.3135109712009829 0.1881998603575134 0
148 -0.2634110582797072 0.1536808802224285 0
149 -0.3232569912058041 0.1291898010018522 0
150 -0.277672207483955 0.09755849593507275 0
151 -0.3326696452203226 0.07339916650578669 0
152 -0.2808394632670743 0.0386530583747148 0
153 -0.3437613419361947 0.01414224420008054 0
154 -0.3938322002776457 0.05444206789297719 0
155 -0.4066758882622427 -0.01122060838376843 0
156 -0.294640020286846 -0.02437705642551912 0
157 -0.4613690354491802 0.03498246707029611 0
158 -0.4751170906886619 -0.03653119640777604 0
159 -0.5332283898621862 0.01018861471385512 0
160 -0.5467725464788704 -0.07112186057509708 0
161 -0.4177556402384529 -0.08451613197340857 0
162 -0.5181664456499651 0.08704865517067943 0
163 -0.3603288598112186 0.2273725720526628 0
164 -0.5951042735810038 0.06132533687162357 0
165 -0.2374134935618618 -0.004677705637722809 0
166 -0.2475883605340329 -0.06047282949457986 0
167 -0.1908932225168612 -0.04146697458430623 0
168 -0.2037296547480155 -0.09390169358082891 0
169 -0.1547619011451812 -0.07846651552468457 0
170 -0.1635360946800416 -0.1256784587387964 0
171 -0.1145974844658978 -0.1052536427083819 0
172 -0.2102586416825047 -0.1496569210858535 0
173 -0.1245557811743458 -0.1561830803213414 0
174 -0.07723562185190755 -0.1381323801427474 0
175 -0.08500490528925533 -0.1895526627390963 0
176 -0.03724942446274896 -0.169326018246412 0
177 -0.5787083994479059 0.1436748170511108 0
178 -0.1795755443247622 0.1943181480277288 0
179 -0.1364337091114804 -0.210179165445985 0
180 -0.03362072623334868 -0.1161164956782118 0
181 0.006945816274713281 -0.1439074826812268 0
182 0.003623067890085614 -0.1978006878188145 0
183 0.04914927286591041 -0.1754678833486876 0
184 0.05252208012372718 -0.1269561098136493 0
185 0.09122681139083741 -0.1525294855199733 0
186 0.09324142890796142 -0.1048277663261559 0
187 0.1301457650215562 -0.1306742358588746 0
188 0.1329398775248929 -0.08885456123604353 0
189 0.1682385910095392 -0.1106392338313298 0
190 0.1697656940990108 -0.06729617683630545 0
191 0.2071814380517777 -0.09056712851229991 0
192 0.2085583511111607 -0.04465967512538539 0
193 0.2495339664814348 -0.06999594765902345 0
194 0.2498513903030895 -0.0216989054555285 0
195 0.296188060190248 -0.04684640908278339 0
196 0.2919426867736528 0.01061028375710188 0
197 0.3472474763000648 -0.02051983384294786 0
198 0.2956421414223356 -0.1004720082007791 0
199 0.3483854399782701 0.03979799320896456 0
200 0.4036401054924018 0.007658493824768595 0
201 0.2958624993568921 0.07117319449130097 0
202 0.3480853670010713 0.1003620475596909 0
203 0.2915883808653831 0.1310728774201486 0
204 0.1698659839705909 -0.1572695973911303 0
205 0.348303250164157 0.16092046670126 0
206 0.401173195802384 -0.05706102190392887 0
207 0.4626113163048629 -0.02685520786871889 0
208 0.459386362499068 -0.09787252245164435 0
209 0.5263340096794197 -0.06516602081559404 0
210 0.5287800801271706 0.01072067142088116 0
211 0.08934838261217291 -0.2070080716329646 0
212 0.20405366318063 0.002243435626945055 0
213 0.2940007060052048 0.1928713837970516 0
214 0.2453111869675531 0.100447634487403 0
215 0.5971777536061169 -0.0299134168488504 0
216 0.6036603498182962 0.04950302707233777 0
217 0.5939320599056415 -0.111482371937012 0
218 0.1347791893627918 -0.04846929168663404 0
219 0.3503591124342594 0.2249158249523365 0
220 0.4098649414902381 0.1912421084782553 0
221 -0.1844562503997073 0.009138604879791307 0
222 -0.6610136131637459 0.1164299421700957 0
223 -0.677007690136027 0.02974059617870852 0
224 0.6703819686972792 -0.07434093444584668 0
225 0.664348245379291 -0.1617648893715459 0
226 0.05598959502265092 -0.08510758512992782 0
227 -0.1132865660103419 -0.06438185335881363 0
228 -0.09080945335772823 -0.2482191790184087 0
229 -0.2292639878936122 0.1129913033213926 0
230 0.5797084717034735 -0.1916381975105289 0
231 -0.6435330541253248 0.203421795792311 0
232 0.2930145832851523 0.2566853977122328 0
233 0.2365729547035948 0.21970434271249 0
234 0.2378156542314703 0.2847630101406858 0
235 0.1883009026295672 0.2515280886880857 0
236 0.1866813647426362 0.2007798937049292 0
237 0.1473412116200664 0.2240239073351929 0
238 0.1434224945401647 0.2711890040442198 0
239 0.4059846064998854 0.2669844794095075 0
240 0.4760650240495364 0.2297276111203347 0
241 -0.560880606141884 0.2311688572034893 0
242 0.1043643888017912 0.2420901523891729 0
243 0.1005228453386431 0.2874932203271576 0
244 0.06576291361292935 0.2641678087703492 0
245 0.05691675181557797 0.3075868360828846 0
246 -0.141355392081379 0.2007784723872776 0
247 -0.1541967868890778 0.1677065185875858 0
248 0.1486972987745061 0.179548312510413 0
249 0.182530131690019 0.15954868656099 0
250 -0.7463428078228748 0.08877600105380647 0
251 -0.1499999781664568 -0.2719029005963159 0
252 0.7471939692127672 -0.121291136368339 0
253 0.7400962355767289 -0.2240019016595073 0
254 0.3875708761076357 -0.1284242831002123 0
255 0.4529713059976407 -0.1702904339204095 0
256 0.3835797284598755 -0.2049328652590349 0
257 0.4519322924113331 -0.2520974107999391 0
258 0.3758877460120151 -0.2825556152876015 0
259 0.3123727346455258 -0.2373097829284169 0
260 0.1497908911094617 0.1430833305006722 0
261 0.179587700616 0.125563949053492 0
262 -0.3028310137062541 -0.08338988038040167 0
263 0.151225263821394 0.111755243335258 0
264 0.1761799402056186 0.09575621660072009 0
265 0.4710083811242503 0.1509498455350756 0
266 0.5452287136407101 0.1830649632680864 0
267 0.5494418891151089 0.2700398637666111 0
268 0.6242646604838291 0.2227094495580695 0
269 0.1492357490876909 0.08490018369232248 0
270 0.1722417991703863 0.06503550070506289 0
271 0.14732875347447 0.04850801253439323 0
272 -0.09785341314079493 -0.3172148283478918 0
273 -0.03851060755014121 -0.2811990318561384 0
274 -0.06153544735486771 0.2457520797847345 0
275 -0.6285183540918281 0.295445688320408 0
276 -0.7123453465214856 0.2695142974439271 0
277 -0.2210397373123589 0.04239324405084823 0
278 -0.1785871161791673 0.05177274271475037 0
279 -0.1513050181426786 0.02852742316575447 0
280 -0.1458559822842339 0.05949298804744347 0
281 -0.1660424977711535 0.08448480995665032 0
282 0.7508717557259085 -0.02847527821531335 0
283 -0.3436561199963816 0.2909820869496736 0
284 -0.4101497223458181 0.2758689029540825 0
285 -0.4284090580758101 0.2000214382738977 0
286 0.30456021527194 -0.3145424169099792 0
287 0.2432314226814901 -0.2676421668828927 0
288 0.1157599398345612 0.1995533898790501 0
289 0.1381186914175328 0.3200558226637122 0
290 0.2515855824413007 -0.196485765730799 0
291 -0.1244259350943565 0.235017880572532 0
292 -0.7612201153148305 -0.004921640251793196 0
293 -0.6913552840079217 -0.06283350163143368 0
294 -0.7810466287856994 -0.09686775757250801 0
295 -0.706438439993974 -0.1574536472181192 0
296 0.6269389332307647 0.3101195920088662 0
297 0.7053906265162981 0.2627683197976902 0
298 0.7023458465018001 0.1707773635765147 0
299 -0.1244293528730445 0.1748345567876764 0
300 -0.1087211352724894 0.2018441553330188 0
301 0.3667049642953439 -0.3630492386013471 0
302 -0.1562593231935676 -0.01965494627293828 0
303 0.02252780508661703 -0.09943750665676709 0
304 -0.02024767226235687 -0.07643996486836088 0
305 0.02889561907168527 -0.06524777318997327 0
306 0.05632122964975589 -0.05058242703616581 0
307 -0.2015080801741489 -0.2206296319579117 0
308 -0.2162486863465212 -0.2931951859771097 0
309 -0.2722488676574354 -0.2456575607969257 0
310 -0.2876315156448295 -0.3203835784912449 0
311 -0.3471875533415148 -0.2687947362440523 0
312 -0.3703456753616593 -0.3525782712607987 0
313 -0.4295312794279128 -0.2906608036560969 0
314 -0.4073225907005041 -0.2127403622383474 0
315 -0.4896913306903717 -0.2344920561650509 0
316 -0.187404372649925 0.1572287798107564 0
317 -0.1584649504070791 0.1342415730278936 0
318 0.002312764180330105 0.3270519727442834 0
319 0.2176375423260813 0.4204196330419225 0
320 0.247878207393175 0.1637778806227633 0
321 -0.07237368112808336 -0.0932280859781164 0
322 0.08404836611304811 -0.06718425868143084 0
323 0.0824007126042111 -0.03644740523691435 0
324 0.2478798086654139 0.05145328725105106 0
325 -0.1318009189662235 0.1501015990542535 0
326 -0.1394972651634491 0.1144827160571929 0
327 -0.2264536217022217 0.4173038964875592 0
328 0.1874167864736558 -0.2185684250736522 0
329 0.1819238982900021 -0.2869326916751722 0
330 -0.3939050764825409 0.3453489948061947 0
331 0.1222643289551355 0.172064823821426 0
332 0.08689009921590796 0.214533415683276 0
333 -0.1264063619853168 0.03930300913500603 0
334 -0.1276579780509507 0.01369097058085127 0
335 0.4163789928995972 0.4164498905220335 0
336 -0.1214994331983036 0.06112071293701868 0
337 0.02689393356082119 0.2791541022216643 0
338 -0.01270346129974338 0.25385629763457 0
339 0.1037376215722801 -0.4157758609909023 0
340 0.05256039591843583 -0.3432141440369647 0
341 0.1102242097517275 0.07349281748098127 0
342 0.113801157506631 0.1081985328680835 0
343 -0.1164675824865214 0.1100221160079172 0
344 0.08640895610393054 0.02624621473112343 0
345 0.1048074395234715 0.02383168320730114 0
346 0.09291878103738296 0.008085488209197139 0
347 0.1170937763033085 0.003294703781479722 0
348 0.1151121251414227 0.03997831523191966 0
349 -0.0871349998129594 0.02655500384339984 0
350 0.008234984152346296 -0.01396008476848751 0
351 -0.001508999886429214 -0.02993694898377023 0
352 -0.02164157982762426 -0.0280328952342067 0
353 0.02015365987232503 -0.02865239277085532 0
354 0.04258769351402664 -0.02585479147135188 0
355 -0.04434350770164117 -0.005073727391871394 0
356 -0.06057501123681205 -0.01519811776528728 0
357 -0.0776337990363858 -0.004273286044410469 0
358 -0.08059286678752649 -0.0262600292924856 0
359 -0.0585739892306988 -0.03903431468019744 0
360 -0.09865726089472292 -0.01159573849239883 0
361 -0.2652966512231505 0.3534118942100411 0
362 -0.1054031143311224 -0.408045315877438 0
363 -0.08971189696765206 0.2285117847843482 0
364 0.110433010268948 0.1264511035662159 0
365 -0.1101459348329471 0.1267539426926443 0
366 0.4694196150357237 0.3307506180084519 0
367 0.07464422439460237 0.1864234550489925 0
368 0.0963127368722924 0.1590217981116709 0
369 -0.09719465336083273 0.1603217186460695 0
370 -0.07448231223039543 0.1866724840446521 0
371 0.2073560035390963 0.07791165328080106 0
372 -0.4672402429615191 0.3344684177654045 0
373 -0.1340467224285653 0.0816473250569478 0
374 0.1738106604085605 0.03161272203947384 0
375 0.1437075538932552 0.01917711215844078 0
376 -0.008961630183943803 0.2138623695202538 0
377 -0.0436476042697314 0.2062391374865821 0
378 -0.06217248853128283 0.2179015358797262 0
379 0.009463533969080699 0.2145169788721438 0
380 0.02258616726458939 0.2300373634576589 0
381 0.04450794431246211 0.2237614281976553 0
382 0.170733494656568 -0.02593465318779007 0
383 0.7874230581430511 0.2101913367577827 0
384 0.7752137837636959 0.1178211180403657 0
385 0.7937199049759156 0.3134007037634876 0
386 0.2960055563985529 0.3225583896354419 0
387 -0.6269430068046843 0.403376436720232 0
388 -0.4607157227459875 -0.1561044356662299 0
389 -0.5475224296606158 -0.1677574805999088 0
390 -0.5700118930827321 -0.2580306801373863 0
391 -0.2201418679074079 0.1822935199489285 0
392 0.9058920228912126 0.3377055605966396 0
393 0.3151035423251387 -0.1611890497372415 0
394 -0.8012546580426902 -0.1920570716853592 0
395 -0.7147982007123804 -0.2483009393346497 0
396 -0.802956762203405 -0.3029284647144066 0
397 0.6907427622917992 0.08231129065822917 0
398 0.6297921149942552 -0.4119378571726372 0
399 0.5821303839706023 -0.3295182264641015 0
400 -0.6305632126985175 -0.4142674094535301 0
401 -0.2029418616000279 0.08000170485316417 0
402 -0.3291848507133698 -0.195532006077463 0
403 0.6284287389604466 0.4061958491295908 0
404 -0.04033986783515699 0.2263358502439959 0
405 0.05700553179989566 0.3667861019430818 0
406 -0.9085743888261045 0.1105834197349381 0
407 0.9104003157926451 0.1105821249062258 0
408 0.1231066771056785 0.1406531806205651 0
409 -0.8949141956258346 -0.1115839014446441 0
410 0.9089165726333164 -0.1135779596447417 0
411 -0.5009334049570581 0.1699891950741621 0
412 0.6831339442346653 -0.3238351700578557 0
413 0.7868201308945382 -0.3210934342156033 0
414 0.8398686009248073 -0.4094808546117414 0
415 -0.9103838869979187 0.3330821830936914 0
416 -0.8205058138227675 0.1583354683159879 0
417 0.0738380628756313 0.01370448927330374 0
418 0.07606751971961714 -0.008482622538508599 0
419 -0.8428275427107844 -0.409999561169591 0
420 0.1047999819708187 0.05642232850759229 0
421 0.1245996498574126 0.05832653787807566 0
422 0.1000167383094634 -0.01737976708321991 0
423 0.04369134729032133 -0.005141736922980305 0
424 0.05772024553948355 -0.01415599970548101 0
425 -0.2990970159516662 -0.4080300107647546 0
426 0.1301836870847507 0.09879227543896696 0
427 -0.8130022277868618 0.2740247322583271 0
428 0.4923341669081737 -0.3318157170739229 0
429 0.1292977864026262 0.1212629911866016 0
430 -0.4404850147241884 0.1128890825214999 0
431 -0.01215959583499655 -0.04902358360618044 0
432 0.372139679361371 0.341536545355928 0
433 -0.4282355120205392 -0.4195361766949075 0
434 0.1321042199177638 -0.2510145262630046 0
435 -0.9113378211569773 -0.3352335674487318 0
436 -0.1068107561614015 0.02569301878572114 0
437 0.6166998830996064 0.134475553396337 0
438 0.4028983757016751 0.06940274000529734 0
439 -0.6225113345041235 -0.1166650864828808 0
440 -0.1887716975129008 0.115555011905274 0
441 0.04311987712911682 -0.2302385600411774 0
442 -0.8345629046797941 0.4016196821244961 0
443 0.9016084352963696 -0.326478833983727 0
444 -0.378124103063551 0.1556125723275653 0
445 0.8394403459031685 0.4130268193547328 0
446 0.1415250205163616 -0.01317017118210149 0
447 0.2888711738489477 -0.3946398753952628 0
448 0.2177890347195587 0.1354961612359917 0
449 -0.4844330913145252 0.2561417400808829 0
450 0.5205130648339054 -0.1393823699083543 0
451 -0.509449448319001 -0.3145977431863068 0
452 0.52701686808548 0.09305932096406393 0
453 -0.1042097736343801 0.05709141050705317 0
454 -0.6094864568090536 -0.02214103607999451 0
455 -0.4383387763964083 0.4137765436594225 0
456 -0.02674690468882076 -0.01039308901639929 0
457 -0.3537634794023795 -0.04837907598518066 0
458 -0.7310692886503818 0.1815625294056027 0
459 -0.07396516620434794 0.01379562659692238 0
460 0.462495303227546 0.04053935339055434 0
461 0.09178016264708599 0.19179684733739 0
462 -0.5491232168255 0.3244028458348121 0
463 0.343402521362896 -0.07845847867826951 0
464 0.2270746308155705 -0.3376836224862792 0
465 0.2472559545937364 -0.1272557009552856 0
466 0.8261241427833844 -0.1693324862736933 0
467 -0.1660766566265384 -0.3415800826207527 0
468 -0.08136948897028322 -0.05650370666219991 0
469 -0.04225214867717808 -0.2219420431923147 0
470 -0.03448993482581975 -0.04711103360506085 0
471 0.4328444340424052 -0.4128760822557675 0
472 0.1274672734566706 0.07922519396318949 0
473 -0.3799318090979631 -0.1474898298188229 0
474 -0.8307106967592689 0.05329049476730233 0
475 0.1319166146872334 -0.1820060309550833 0
476 -0.04862748639291199 -0.0721381547375316 0
477 -0.6344265246828565 -0.2045899728147024 0
478 -0.2554959747370066 -0.1156059828030301 0
479 -0.2643016233295706 -0.1759643950422199 0
480 -0.08159933819539857 0.2051158201225332 0
481 0.2017150756146527 -0.1316750687335919 0
482 -0.04049267446220219 -0.02368200665381503 0
483 -0.6841995830304604 -0.3341685431496373 0
484 0.04456094703956297 0.2050375094593587 0
485 0.6395325539389549 -0.2473000208292243 0
486 -0.1675005590283862 0.389516923490999 0
487 0.01146324736135285 -0.04776842748583191 0
488 0.1360524296603657 -0.3358513252366467 0
489 0.4034474142366676 0.1286559403830364 0
490 -0.09174415001476235 0.009259657811921236 0
491 0.5396315089737529 -0.2597987587572591 0
492 0.1871009807163092 0.3067313224782943 0
493 0.177039166603196 0.364487054708568 0
494 -0.03188231868122787 -0.3458183773374561 0
495 0.2365330911962563 0.3499572525226856 0
496 0.8270472323819098 -0.0684042314658362 0
497 -0.5914371273576476 -0.3362295798620318 0
498 0.04041527289009932 0.247629760992743 0
499 0.2085919986882567 0.04093503234512537 0
500 -0.1680778397299896 -0.1728611894773169 0
501 0.3452000771059539 0.2840982174940114 0
502 0.1055015111467473 -0.04747643200793832 0
503 0.1040956256211387 0.1755415382777142 0
504 0.06799345106431423 0.2346007528384318 0
505 -0.1035787353095858 0.1774497250237738 0
506 -0.09091271615915615 0.1896524272908313 0
507 -0.285152732589808 0.2994112876141656 0
508 -0.0002437291715684066 0.2321421801990904 0
509 -0.1050876993883307 -0.03727109415075627 0
510 0.01213768653336752 0.2530608430825691 0
511 0.02039028478447262 -0.2859589119036959 0
512 -0.2418615125155134 0.0753999155829873 0
513 0.6750138136279683 0.005776877767978996 0
514 0.03223272178026534 -0.04356953149086987 0
515 -0.1257725048917175 -0.01673379229511239 0
516 -0.1614698789238024 0.1089720565622161 0
517 0.2101186238075532 -0.1699772516535545 0
518 -0.6910158261545895 0.3435386781923555 0
519 -0.0202095276587351 0.2292630289376027 0
520 -0.09746615037973889 0.2611600281492488 0
521 -0.1104469792137523 0.07449192423613643 0
522 -0.233012730685914 0.3085374911094301 0
523 -0.1291938284497338 0.09881587621865585 0
524 0.5586521184604347 0.3452784838065558 0
525 0.09499086647955821 0.3287253656631952 0
526 -0.1130363811203842 0.1595273398314793 0
527 0.08124612374663745 -0.2764966524624925 0
528 0.1675405760628581 0.004977609361115977 0
529 0.8310144007208289 0.05057381889068445 0
530 -0.3274012337851553 0.3497781593732269 0
531 -0.2183715939656747 0.1467506803862008 0
532 -0.8353785200392658 -0.03496096590955881 0
533 0.1230851127480609 0.02379859408462294 0
534 0.9258200702929181 0.4252407015090489 0
535 0.6983183678673444 0.3410815805135882 0
536 0.925671749900327 -0.4236174846500527 0
537 -0.9259504957092415 0.4232755649435075 0
538 -0.927859148717009 -0.4253234797588936 0
539 -0.1402778313809838 -0.04522491502205965 0
540 0.2037885169601698 0.1076644622864504 0
541 0.5093816753047015 -0.2023649302075138 0
542 0.8315577414857085 -0.2521689155058222 0
543 0.04977963862747508 0.4235681894565699 0
544 -0.002489062705917131 -0.2441079636529122 0
545 -0.3128647278342453 -0.1377227759394394 0
546 0.2133570217957423 0.1756843600792806 0
547 -0.3717071641070062 0.4074156925633287 0
548 0.7510589622809305 0.04547665992417029 0
549 -0.004931272091120997 -0.1020144829631097 0
550 -0.7597578368737818 0.3392967871312819 0
551 -0.64026018528877 -0.2765203090299485 0
552 0.8416890952091107 0.1493677447869369 0
553 -0.1098036661431671 0.005177620917023388 0
554 0.06298219678243072 0.2139781932349202 0
555 0.07488965299255859 0.2016759767751507 0
556 -0.03636739063962105 0.2522554066833722 0
557 0.004338035607912054 -0.0720101037469011 0
558 -0.4906164309210522 -0.1007356185292021 0
559 0.4241685894060142 -0.3284919263905449 0
560 0.453807842012906 0.09579536482351896 0
561 0.1321572679430529 0.1574681979551061 0
562 0.1581219161363861 0.4169517054691861 0
563 0.06369571301813592 -0.0290527217873571 0
564 -0.3536601024820316 -0.1004103200746379 0
565 -0.1490392282186949 0.002943985748376951 0
566 0.3351914320382194 -0.1193013108151487 0
567 -0.1464068008187006 0.09769461669804881 0
568 0.1093627315015266 -0.07327774788541648 0
569 0.2405022974380762 0.01574747626856371 0
570 0.123441309842728 0.368261199752494 0
571 -0.09379965183963035 -0.07901793130883911 0
572 -0.2346803205643379 -0.3547327418377799 0
573 0.3469357936271991 -0.4334521064354611 0
574 0.113088609300537 0.1576535710494943 0
575 -0.4534312736378368 -0.3557083651248024 0
576 0.1321138209201254 0.03755892577688495 0
577 -0.1111034834446614 0.04438534325943699 0
578 0.1200645648713245 -0.02546671020906604 0
579 -0.1277255119450526 0.1301185763847793 0
580 -0.06159512664744371 0.2800944696605272 0
581 -0.3737871118099819 0.1035619914111027 0
582 -0.001926824389318334 0.2800651606362328 0
583 -0.2155186728042933 0.3604782532735361 0
584 -0.3660544520281285 -0.4191449303254036 0
585 0.2509799358897926 0.1327597773516452 0
586 0.1424425486848121 0.06717391971327194 0
$EndNodes
$Elements
1176
1 15 2 1 1 1
2 15 2 2 2 2
3 15 2 3 3 3
4 15 2 4 4 4
5 1 2 1 1 1 7
6 1 2 1 1 7 8
7 1 2 1 1 8 9
8 1 2 1 1 9 10
9 1 2 1 1 10 11
10 1 2 1 1 11 12
11 1 2 1 1 12 13
12 1 2 1 1 13 14
13 1 2 1 1 14 15
14 1 2 1 1 15 16
15 1 2 1 1 16 17
16 1 2 1 1 17 18
17 1 2 1 1 18 19
18 1 2 1 1 19 20
19 1 2 1 1 20 21
20 1 2 1 1 21 22
21 1 2 1 1 22 23
22 1 2 1 1 23 24
23 1 2 1 1 24 2
24 1 2 2 2 2 25
25 1 2 2 2 25 26
26 1 2 2 2 26 27
27 1 2 2 2 27 28
28 1 2 2 2 28 29
29 1 2 2 2 29 30
30 1 2 2 2 30 31
31 1 2 2 2 31 32
32 1 2 2 2 32 3
33 1 2 3 3 3 33
34 1 2 3 3 33 34
35 1 2 3 3 34 35
36 1 2 3 3 35 36
37 1 2 3 3 36 37
38 1 2 3 3 37 38
39 1 2 3 3 38 39
40 1 2 3 3 39 40
41 1 2 3 3 40 41
42 1 2 3 3 41 42
43 1 2 3 3 42 43
44 1 2 3 3 43 44
45 1 2 3 3 44 45
46 1 2 3 3 45 46
47 1 2 3 3 46 47
48 1 2 3 3 47 48
49 1 2 3 3 48 49
50 1 2 3 3 49 50
51 1 2 3 3 50 4
52 1 2 4 4 4 51
53 1 2 4 4 51 52
54 1 2 4 4 52 53
55 1 2 4 4 53 54
56 1 2 4 4 54 55
57 1 2 4 4 55 56
58 1 2 4 4 56 57
59 1 2 4 4 57 58
60 1 2 4 4 58 1
61 1 2 5 5 5 59
62 1 2 5 5 59 60
63 1 2 5 5 60 61
64 1 2 5 5 61 62
65 1 2 5 5 62 63
66 1 2 5 5 63 64
67 1 2 5 5 64 65
68 1 2 5 5 65 66
69 1 2 5 5 66 67
70 1 2 5 5 67 68
71 1 2 5 5 68 69
72 1 2 5 5 69 70
73 1 2 5 5 70 71
74 1 2 5 5 71 72
75 1 2 5 5 72 73
76 1 2 5 5 73 74
77 1 2 5 5 74 75
78 1 2 5 5 75 76
79 1 2 5 5 76 77
80 1 2 5 5 77 6
81 1 2 5 6 6 78
82 1 2 5 6 78 79
83 1 2 5 6 79 80
84 1 2 5 6 80 81
85 1 2 5 6 81 82
86 1 2 5 6 82 83
87 1 2 5 6 83 84
88 1 2 5 6 84 85
89 1 2 5 6 85 86
90 1 2 5 6 86 87
91 1 2 5 6 87 88
92 1 2 5 6 88 89
93 1 2 5 6 89 90
94 1 2 5 6 90 91
95 1 2 5 6 91 92
96 1 2 5 6 92 93
97 1 2 5 6 93 94
98 1 2 5 6 94 95
99 1 2 5 6 95 96
100 1 2 5 6 96 5
101 2 2 1 1 133 483 396
102 2 2 1 1 290 393 465
103 2 2 1 1 204 475 328
104 2 2 1 1 240 267 366
105 2 2 1 1 147 163 444
106 2 2 1 1 135 136 137
107 2 2 1 1 98 373 521
108 2 2 1 1 134 129 135
109 2 2 1 1 328 475 434
110 2 2 1 1 239 240 366
111 2 2 1 1 125 385 383
112 2 2 1 1 242 332 288
113 2 2 1 1 294 409 394
114 2 2 1 1 359 468 476
115 2 2 1 1 237 242 288
116 2 2 1 1 236 237 248
117 2 2 1 1 340 511 494
118 2 2 1 1 125 392 385
119 2 2 1 1 121 339 340
120 2 2 1 1 485 230 491
121 2 2 1 1 254 566 393
122 2 2 1 1 282 496 529
123 2 2 1 1 395 396 483
124 2 2 1 1 485 491 399
125 2 2 1 1 276 427 458
126 2 2 1 1 239 366 432
127 2 2 1 1 172 479 307
128 2 2 1 1 416 458 427
129 2 2 1 1 180 304 476
130 2 2 1 1 273 494 511
131 2 2 1 1 278 279 280
132 2 2 1 1 237 288 248
133 2 2 1 1 133 396 419
134 2 2 1 1 43 486 129
135 2 2 1 1 167 539 302
136 2 2 1 1 245 318 337
137 2 2 1 1 106 579 365
138 2 2 1 1 147 444 149
139 2 2 1 1 304 431 470
140 2 2 1 1 465 481 517
141 2 2 1 1 221 279 278
142 2 2 1 1 233 235 236
143 2 2 1 1 135 129 136
144 2 2 1 1 246 247 299
145 2 2 1 1 418 424 563
146 2 2 1 1 127 394 409
147 2 2 1 1 316 440 317
148 2 2 1 1 329 488 464
149 2 2 1 1 120 464 488
150 2 2 1 1 235 237 236
151 2 2 1 1 108 335 366
152 2 2 1 1 165 167 221
153 2 2 1 1 248 288 331
154 2 2 1 1 214 371 324
155 2 2 1 1 122 495 386
156 2 2 1 1 211 434 475
157 2 2 1 1 290 465 517
158 2 2 1 1 275 462 387
159 2 2 1 1 274 363 378
160 2 2 1 1 43 327 486
161 2 2 1 1 323 422 418
162 2 2 1 1 198 465 393
163 2 2 1 1 135 137 580
164 2 2 1 1 122 319 495
165 2 2 1 1 142 178 246
166 2 2 1 1 167 302 221
167 2 2 1 1 203 320 585
168 2 2 1 1 178 247 246
169 2 2 1 1 323 418 563
170 2 2 1 1 37 335 108
171 2 2 1 1 279 333 280
172 2 2 1 1 316 531 440
173 2 2 1 1 134 135 318
174 2 2 1 1 263 260 429
175 2 2 1 1 317 579 325
176 2 2 1 1 190 382 218
177 2 2 1 1 16 339 121
178 2 2 1 1 336 521 373
179 2 2 1 1 317 326 579
180 2 2 1 1 45 455 547
181 2 2 1 1 254 393 256
182 2 2 1 1 253 412 413
183 2 2 1 1 260 408 429
184 2 2 1 1 274 520 363
185 2 2 1 1 15 121 362
186 2 2 1 1 529 548 282
187 2 2 1 1 226 306 305
188 2 2 1 1 106 526 325
189 2 2 1 1 138 142 291
190 2 2 1 1 152 165 277
191 2 2 1 1 211 441 527
192 2 2 1 1 136 138 137
193 2 2 1 1 427 550 442
194 2 2 1 1 343 365 579
195 2 2 1 1 213 233 320
196 2 2 1 1 106 325 579
197 2 2 1 1 285 430 444
198 2 2 1 1 118 529 496
199 2 2 1 1 160 439 389
200 2 2 1 1 169 171 227
201 2 2 1 1 180 476 321
202 2 2 1 1 142 143 178
203 2 2 1 1 434 527 488
204 2 2 1 1 123 361 327
205 2 2 1 1 253 485 412
206 2 2 1 1 160 389 558
207 2 2 1 1 42 129 134
208 2 2 1 1 321 476 468
209 2 2 1 1 135 580 139
210 2 2 1 1 248 260 249
211 2 2 1 1 174 180 321
212 2 2 1 1 184 186 226
213 2 2 1 1 285 411 430
214 2 2 1 1 138 141 142
215 2 2 1 1 247 325 299
216 2 2 1 1 415 427 442
217 2 2 1 1 221 278 277
218 2 2 1 1 261 448 249
219 2 2 1 1 226 305 303
220 2 2 1 1 167 169 539
221 2 2 1 1 203 213 320
222 2 2 1 1 181 184 303
223 2 2 1 1 329 434 488
224 2 2 1 1 121 340 494
225 2 2 1 1 347 446 375
226 2 2 1 1 121 494 362
227 2 2 1 1 171 174 321
228 2 2 1 1 39 319 122
229 2 2 1 1 201 203 214
230 2 2 1 1 318 582 337
231 2 2 1 1 204 328 517
232 2 2 1 1 172 307 500
233 2 2 1 1 152 277 512
234 2 2 1 1 520 274 580
235 2 2 1 1 307 479 309
236 2 2 1 1 211 527 434
237 2 2 1 1 196 201 324
238 2 2 1 1 148 150 229
239 2 2 1 1 120 488 339
240 2 2 1 1 160 454 439
241 2 2 1 1 359 476 470
242 2 2 1 1 260 263 261
243 2 2 1 1 247 317 325
244 2 2 1 1 163 285 444
245 2 2 1 1 44 123 327
246 2 2 1 1 266 452 437
247 2 2 1 1 280 333 336
248 2 2 1 1 293 439 454
249 2 2 1 1 323 502 422
250 2 2 1 1 241 449 462
251 2 2 1 1 42 43 129
252 2 2 1 1 40 41 128
253 2 2 1 1 45 46 455
254 2 2 1 1 165 166 167
255 2 2 1 1 226 186 322
256 2 2 1 1 335 432 366
257 2 2 1 1 259 290 287
258 2 2 1 1 38 122 335
259 2 2 1 1 174 176 180
260 2 2 1 1 246 300 291
261 2 2 1 1 304 470 476
262 2 2 1 1 201 214 324
263 2 2 1 1 109 387 462
264 2 2 1 1 134 318 405
265 2 2 1 1 236 248 249
266 2 2 1 1 280 373 281
267 2 2 1 1 267 524 366
268 2 2 1 1 347 375 533
269 2 2 1 1 291 300 363
270 2 2 1 1 218 382 446
271 2 2 1 1 274 378 404
272 2 2 1 1 141 143 142
273 2 2 1 1 192 212 382
274 2 2 1 1 171 321 571
275 2 2 1 1 246 299 300
276 2 2 1 1 188 190 218
277 2 2 1 1 413 414 443
278 2 2 1 1 44 45 123
279 2 2 1 1 38 39 122
280 2 2 1 1 237 238 242
281 2 2 1 1 213 232 233
282 2 2 1 1 184 185 186
283 2 2 1 1 275 387 518
284 2 2 1 1 287 290 328
285 2 2 1 1 181 303 549
286 2 2 1 1 17 120 339
287 2 2 1 1 233 236 546
288 2 2 1 1 137 138 520
289 2 2 1 1 167 168 169
290 2 2 1 1 138 291 520
291 2 2 1 1 326 343 579
292 2 2 1 1 221 302 565
293 2 2 1 1 152 156 165
294 2 2 1 1 181 183 184
295 2 2 1 1 272 362 494
296 2 2 1 1 259 256 393
297 2 2 1 1 272 467 362
298 2 2 1 1 14 362 119
299 2 2 1 1 226 303 184
300 2 2 1 1 233 546 320
301 2 2 1 1 294 532 409
302 2 2 1 1 165 221 277
303 2 2 1 1 161 388 473
304 2 2 1 1 324 371 499
305 2 2 1 1 196 324 569
306 2 2 1 1 233 234 235
307 2 2 1 1 216 397 437
308 2 2 1 1 12 13 425
309 2 2 1 1 41 42 134
310 2 2 1 1 515 553 334
311 2 2 1 1 15 16 121
312 2 2 1 1 239 432 501
313 2 2 1 1 139 556 338
314 2 2 1 1 306 322 323
315 2 2 1 1 260 248 561
316 2 2 1 1 399 412 485
317 2 2 1 1 119 362 467
318 2 2 1 1 263 426 269
319 2 2 1 1 17 18 120
320 2 2 1 1 13 14 119
321 2 2 1 1 39 40 319
322 2 2 1 1 214 540 371
323 2 2 1 1 127 396 394
324 2 2 1 1 242 243 244
325 2 2 1 1 242 244 504
326 2 2 1 1 18 447 120
327 2 2 1 1 96 365 343
328 2 2 1 1 278 280 281
329 2 2 1 1 413 443 542
330 2 2 1 1 169 170 171
331 2 2 1 1 145 148 391
332 2 2 1 1 321 468 571
333 2 2 1 1 245 405 318
334 2 2 1 1 122 386 432
335 2 2 1 1 43 44 327
336 2 2 1 1 46 47 109
337 2 2 1 1 36 37 108
338 2 2 1 1 113 480 370
339 2 2 1 1 305 306 514
340 2 2 1 1 249 448 546
341 2 2 1 1 422 502 578
342 2 2 1 1 180 549 304
343 2 2 1 1 48 130 387
344 2 2 1 1 288 332 461
345 2 2 1 1 142 246 291
346 2 2 1 1 372 462 449
347 2 2 1 1 285 449 411
348 2 2 1 1 190 192 382
349 2 2 1 1 269 586 270
350 2 2 1 1 176 181 180
351 2 2 1 1 259 393 290
352 2 2 1 1 20 21 104
353 2 2 1 1 10 11 103
354 2 2 1 1 216 437 452
355 2 2 1 1 229 440 531
356 2 2 1 1 270 374 499
357 2 2 1 1 47 387 109
358 2 2 1 1 298 437 397
359 2 2 1 1 122 432 335
360 2 2 1 1 186 187 188
361 2 2 1 1 35 403 131
362 2 2 1 1 396 435 419
363 2 2 1 1 260 261 249
364 2 2 1 1 263 269 264
365 2 2 1 1 22 132 398
366 2 2 1 1 9 400 133
367 2 2 1 1 306 323 563
368 2 2 1 1 41 134 543
369 2 2 1 1 192 194 212
370 2 2 1 1 12 425 584
371 2 2 1 1 311 402 314
372 2 2 1 1 23 24 414
373 2 2 1 1 40 128 562
374 2 2 1 1 16 17 339
375 2 2 1 1 37 38 335
376 2 2 1 1 104 398 399
377 2 2 1 1 346 418 422
378 2 2 1 1 41 543 128
379 2 2 1 1 31 392 125
380 2 2 1 1 132 412 398
381 2 2 1 1 183 185 184
382 2 2 1 1 21 398 104
383 2 2 1 1 10 103 400
384 2 2 1 1 265 452 266
385 2 2 1 1 270 586 271
386 2 2 1 1 327 361 583
387 2 2 1 1 300 480 363
388 2 2 1 1 36 108 403
389 2 2 1 1 154 430 157
390 2 2 1 1 156 166 165
391 2 2 1 1 53 406 124
392 2 2 1 1 124 416 427
393 2 2 1 1 201 202 203
394 2 2 1 1 525 570 405
395 2 2 1 1 29 407 118
396 2 2 1 1 55 409 117
397 2 2 1 1 259 287 286
398 2 2 1 1 40 562 319
399 2 2 1 1 398 412 399
400 2 2 1 1 314 473 388
401 2 2 1 1 127 435 396
402 2 2 1 1 354 306 563
403 2 2 1 1 14 15 362
404 2 2 1 1 27 410 126
405 2 2 1 1 258 256 259
406 2 2 1 1 333 334 436
407 2 2 1 1 250 416 474
408 2 2 1 1 244 337 498
409 2 2 1 1 247 316 317
410 2 2 1 1 104 428 471
411 2 2 1 1 18 573 447
412 2 2 1 1 196 199 201
413 2 2 1 1 388 558 389
414 2 2 1 1 299 325 526
415 2 2 1 1 52 124 415
416 2 2 1 1 221 565 279
417 2 2 1 1 31 32 392
418 2 2 1 1 138 140 141
419 2 2 1 1 124 406 416
420 2 2 1 1 271 576 375
421 2 2 1 1 326 523 343
422 2 2 1 1 13 119 425
423 2 2 1 1 131 385 445
424 2 2 1 1 311 314 313
425 2 2 1 1 166 168 167
426 2 2 1 1 241 411 449
427 2 2 1 1 226 322 306
428 2 2 1 1 309 402 311
429 2 2 1 1 185 187 186
430 2 2 1 1 54 117 406
431 2 2 1 1 30 125 407
432 2 2 1 1 515 360 553
433 2 2 1 1 288 503 331
434 2 2 1 1 354 514 306
435 2 2 1 1 56 127 409
436 2 2 1 1 109 462 372
437 2 2 1 1 298 397 384
438 2 2 1 1 28 118 410
439 2 2 1 1 145 147 148
440 2 2 1 1 279 334 333
441 2 2 1 1 180 181 549
442 2 2 1 1 148 229 531
443 2 2 1 1 385 392 445
444 2 2 1 1 223 293 454
445 2 2 1 1 23 414 132
446 2 2 1 1 30 31 125
447 2 2 1 1 52 53 124
448 2 2 1 1 54 55 117
449 2 2 1 1 227 171 571
450 2 2 1 1 212 499 374
451 2 2 1 1 28 29 118
452 2 2 1 1 227 539 169
453 2 2 1 1 218 502 568
454 2 2 1 1 56 57 127
455 2 2 1 1 26 27 126
456 2 2 1 1 177 411 241
457 2 2 1 1 212 374 528
458 2 2 1 1 356 359 482
459 2 2 1 1 51 52 415
460 2 2 1 1 150 152 512
461 2 2 1 1 314 388 315
462 2 2 1 1 47 48 387
463 2 2 1 1 148 149 150
464 2 2 1 1 428 559 471
465 2 2 1 1 241 462 275
466 2 2 1 1 53 54 406
467 2 2 1 1 206 463 254
468 2 2 1 1 55 56 409
469 2 2 1 1 29 30 407
470 2 2 1 1 27 28 410
471 2 2 1 1 281 373 567
472 2 2 1 1 21 22 398
473 2 2 1 1 9 10 400
474 2 2 1 1 143 391 178
475 2 2 1 1 244 245 337
476 2 2 1 1 339 488 340
477 2 2 1 1 162 157 430
478 2 2 1 1 299 505 300
479 2 2 1 1 270 499 371
480 2 2 1 1 139 582 318
481 2 2 1 1 171 173 174
482 2 2 1 1 235 238 237
483 2 2 1 1 168 170 169
484 2 2 1 1 277 278 401
485 2 2 1 1 271 375 374
486 2 2 1 1 104 399 428
487 2 2 1 1 188 218 568
488 2 2 1 1 280 336 373
489 2 2 1 1 48 49 130
490 2 2 1 1 34 35 131
491 2 2 1 1 188 189 190
492 2 2 1 1 124 427 415
493 2 2 1 1 303 305 557
494 2 2 1 1 8 133 419
495 2 2 1 1 22 23 132
496 2 2 1 1 8 9 133
497 2 2 1 1 6 342 78
498 2 2 1 1 78 342 364
499 2 2 1 1 242 504 332
500 2 2 1 1 46 109 455
501 2 2 1 1 35 36 403
502 2 2 1 1 7 8 419
503 2 2 1 1 347 422 578
504 2 2 1 1 11 433 103
505 2 2 1 1 109 372 455
506 2 2 1 1 223 292 293
507 2 2 1 1 375 446 528
508 2 2 1 1 178 316 247
509 2 2 1 1 232 234 233
510 2 2 1 1 11 12 433
511 2 2 1 1 162 411 177
512 2 2 1 1 177 241 231
513 2 2 1 1 309 479 402
514 2 2 1 1 148 531 391
515 2 2 1 1 217 450 230
516 2 2 1 1 135 139 318
517 2 2 1 1 62 349 63
518 2 2 1 1 5 96 343
519 2 2 1 1 68 350 69
520 2 2 1 1 65 355 66
521 2 2 1 1 150 151 152
522 2 2 1 1 258 259 286
523 2 2 1 1 93 369 94
524 2 2 1 1 95 365 96
525 2 2 1 1 199 202 201
526 2 2 1 1 293 294 295
527 2 2 1 1 515 334 565
528 2 2 1 1 263 264 261
529 2 2 1 1 66 355 456
530 2 2 1 1 162 430 411
531 2 2 1 1 313 314 315
532 2 2 1 1 63 349 459
533 2 2 1 1 333 577 336
534 2 2 1 1 217 230 225
535 2 2 1 1 406 474 416
536 2 2 1 1 206 254 208
537 2 2 1 1 178 391 316
538 2 2 1 1 69 350 110
539 2 2 1 1 287 328 329
540 2 2 1 1 45 547 123
541 2 2 1 1 263 429 426
542 2 2 1 1 25 26 443
543 2 2 1 1 57 435 127
544 2 2 1 1 203 205 213
545 2 2 1 1 295 394 395
546 2 2 1 1 132 413 412
547 2 2 1 1 210 452 460
548 2 2 1 1 347 578 446
549 2 2 1 1 19 20 471
550 2 2 1 1 137 520 580
551 2 2 1 1 132 414 413
552 2 2 1 1 118 496 410
553 2 2 1 1 49 50 442
554 2 2 1 1 315 388 389
555 2 2 1 1 174 175 176
556 2 2 1 1 187 189 188
557 2 2 1 1 108 524 403
558 2 2 1 1 292 294 293
559 2 2 1 1 203 585 214
560 2 2 1 1 33 34 445
561 2 2 1 1 363 480 378
562 2 2 1 1 231 241 275
563 2 2 1 1 155 158 161
564 2 2 1 1 290 517 328
565 2 2 1 1 268 298 297
566 2 2 1 1 298 384 383
567 2 2 1 1 82 367 83
568 2 2 1 1 57 58 435
569 2 2 1 1 89 377 90
570 2 2 1 1 113 378 480
571 2 2 1 1 282 548 513
572 2 2 1 1 293 295 439
573 2 2 1 1 257 428 491
574 2 2 1 1 228 272 273
575 2 2 1 1 108 366 524
576 2 2 1 1 311 313 312
577 2 2 1 1 181 182 183
578 2 2 1 1 94 369 106
579 2 2 1 1 397 513 548
580 2 2 1 1 294 394 295
581 2 2 1 1 238 243 242
582 2 2 1 1 254 256 255
583 2 2 1 1 224 252 282
584 2 2 1 1 152 153 156
585 2 2 1 1 136 140 138
586 2 2 1 1 220 265 240
587 2 2 1 1 394 396 395
588 2 2 1 1 49 442 130
589 2 2 1 1 26 126 443
590 2 2 1 1 336 577 453
591 2 2 1 1 126 410 466
592 2 2 1 1 213 219 232
593 2 2 1 1 268 437 298
594 2 2 1 1 164 222 223
595 2 2 1 1 228 273 469
596 2 2 1 1 139 338 582
597 2 2 1 1 170 173 171
598 2 2 1 1 208 254 255
599 2 2 1 1 18 19 573
600 2 2 1 1 131 403 535
601 2 2 1 1 86 379 87
602 2 2 1 1 212 528 382
603 2 2 1 1 296 403 524
604 2 2 1 1 297 298 383
605 2 2 1 1 100 348 420
606 2 2 1 1 350 351 353
607 2 2 1 1 141 144 143
608 2 2 1 1 295 395 477
609 2 2 1 1 157 162 159
610 2 2 1 1 314 402 473
611 2 2 1 1 147 149 148
612 2 2 1 1 110 354 423
613 2 2 1 1 130 518 387
614 2 2 1 1 133 400 483
615 2 2 1 1 344 417 346
616 2 2 1 1 223 250 292
617 2 2 1 1 34 131 445
618 2 2 1 1 214 448 540
619 2 2 1 1 248 331 561
620 2 2 1 1 256 258 257
621 2 2 1 1 216 513 397
622 2 2 1 1 125 383 552
623 2 2 1 1 177 231 222
624 2 2 1 1 315 389 390
625 2 2 1 1 225 253 252
626 2 2 1 1 297 383 385
627 2 2 1 1 143 144 145
628 2 2 1 1 155 161 457
629 2 2 1 1 231 275 276
630 2 2 1 1 209 217 215
631 2 2 1 1 328 434 329
632 2 2 1 1 250 458 416
633 2 2 1 1 189 191 190
634 2 2 1 1 3 534 32
635 2 2 1 1 190 191 192
636 2 2 1 1 210 215 216
637 2 2 1 1 20 104 471
638 2 2 1 1 186 568 322
639 2 2 1 1 162 177 164
640 2 2 1 1 268 297 296
641 2 2 1 1 235 492 238
642 2 2 1 1 150 512 229
643 2 2 1 1 3 33 534
644 2 2 1 1 98 523 373
645 2 2 1 1 267 268 296
646 2 2 1 1 161 558 388
647 2 2 1 1 240 265 266
648 2 2 1 1 222 250 223
649 2 2 1 1 179 307 251
650 2 2 1 1 217 225 224
651 2 2 1 1 220 489 265
652 2 2 1 1 224 225 252
653 2 2 1 1 240 266 267
654 2 2 1 1 266 268 267
655 2 2 1 1 164 177 222
656 2 2 1 1 4 51 537
657 2 2 1 1 103 497 400
658 2 2 1 1 103 451 497
659 2 2 1 1 266 437 268
660 2 2 1 1 286 287 464
661 2 2 1 1 309 311 310
662 2 2 1 1 2 25 536
663 2 2 1 1 154 581 430
664 2 2 1 1 255 256 257
665 2 2 1 1 151 153 152
666 2 2 1 1 163 284 285
667 2 2 1 1 4 537 50
668 2 2 1 1 158 159 160
669 2 2 1 1 207 209 210
670 2 2 1 1 149 151 150
671 2 2 1 1 157 159 158
672 2 2 1 1 342 426 429
673 2 2 1 1 197 206 200
674 2 2 1 1 389 439 477
675 2 2 1 1 156 262 166
676 2 2 1 1 2 536 24
677 2 2 1 1 264 269 270
678 2 2 1 1 452 560 460
679 2 2 1 1 155 157 158
680 2 2 1 1 154 157 155
681 2 2 1 1 296 535 403
682 2 2 1 1 307 309 308
683 2 2 1 1 215 217 224
684 2 2 1 1 229 401 440
685 2 2 1 1 270 271 374
686 2 2 1 1 6 77 97
687 2 2 1 1 5 98 59
688 2 2 1 1 162 164 159
689 2 2 1 1 202 205 203
690 2 2 1 1 153 154 155
691 2 2 1 1 131 535 385
692 2 2 1 1 128 405 570
693 2 2 1 1 286 464 447
694 2 2 1 1 206 208 207
695 2 2 1 1 515 539 509
696 2 2 1 1 197 200 199
697 2 2 1 1 210 216 452
698 2 2 1 1 139 580 556
699 2 2 1 1 74 100 75
700 2 2 1 1 61 99 62
701 2 2 1 1 313 315 451
702 2 2 1 1 196 197 199
703 2 2 1 1 209 215 210
704 2 2 1 1 355 356 482
705 2 2 1 1 220 240 239
706 2 2 1 1 207 208 209
707 2 2 1 1 1 538 58
708 2 2 1 1 151 154 153
709 2 2 1 1 67 107 68
710 2 2 1 1 342 429 364
711 2 2 1 1 71 102 72
712 2 2 1 1 64 101 65
713 2 2 1 1 349 436 490
714 2 2 1 1 351 487 353
715 2 2 1 1 310 311 312
716 2 2 1 1 310 312 425
717 2 2 1 1 83 367 114
718 2 2 1 1 195 197 196
719 2 2 1 1 389 477 390
720 2 2 1 1 284 330 372
721 2 2 1 1 1 7 538
722 2 2 1 1 143 145 391
723 2 2 1 1 200 206 207
724 2 2 1 1 77 341 97
725 2 2 1 1 222 231 458
726 2 2 1 1 231 276 458
727 2 2 1 1 110 350 353
728 2 2 1 1 186 188 568
729 2 2 1 1 219 220 239
730 2 2 1 1 173 175 174
731 2 2 1 1 176 182 181
732 2 2 1 1 274 556 580
733 2 2 1 1 117 409 532
734 2 2 1 1 194 195 196
735 2 2 1 1 164 223 454
736 2 2 1 1 303 557 549
737 2 2 1 1 153 457 156
738 2 2 1 1 315 390 451
739 2 2 1 1 354 563 424
740 2 2 1 1 74 344 100
741 2 2 1 1 346 417 418
742 2 2 1 1 369 505 526
743 2 2 1 1 258 286 301
744 2 2 1 1 222 458 250
745 2 2 1 1 199 438 202
746 2 2 1 1 262 156 457
747 2 2 1 1 229 512 401
748 2 2 1 1 61 453 99
749 2 2 1 1 193 195 194
750 2 2 1 1 251 307 308
751 2 2 1 1 71 423 102
752 2 2 1 1 225 485 253
753 2 2 1 1 123 530 361
754 2 2 1 1 73 344 74
755 2 2 1 1 192 193 194
756 2 2 1 1 284 449 285
757 2 2 1 1 243 245 244
758 2 2 1 1 209 450 217
759 2 2 1 1 76 341 77
760 2 2 1 1 70 423 71
761 2 2 1 1 348 576 421
762 2 2 1 1 183 211 185
763 2 2 1 1 75 100 420
764 2 2 1 1 205 219 213
765 2 2 1 1 72 102 417
766 2 2 1 1 308 309 310
767 2 2 1 1 257 559 428
768 2 2 1 1 67 456 107
769 2 2 1 1 253 413 542
770 2 2 1 1 60 453 61
771 2 2 1 1 79 105 80
772 2 2 1 1 94 106 95
773 2 2 1 1 224 282 513
774 2 2 1 1 90 377 113
775 2 2 1 1 193 198 195
776 2 2 1 1 72 417 73
777 2 2 1 1 252 253 466
778 2 2 1 1 153 155 457
779 2 2 1 1 110 353 354
780 2 2 1 1 191 193 192
781 2 2 1 1 208 255 450
782 2 2 1 1 66 456 67
783 2 2 1 1 284 372 449
784 2 2 1 1 75 420 76
785 2 2 1 1 386 501 432
786 2 2 1 1 159 454 160
787 2 2 1 1 348 421 420
788 2 2 1 1 117 474 406
789 2 2 1 1 287 329 464
790 2 2 1 1 199 200 438
791 2 2 1 1 194 196 569
792 2 2 1 1 64 459 101
793 2 2 1 1 78 364 79
794 2 2 1 1 286 447 301
795 2 2 1 1 145 146 147
796 2 2 1 1 107 456 352
797 2 2 1 1 19 471 573
798 2 2 1 1 187 204 189
799 2 2 1 1 330 455 372
800 2 2 1 1 63 459 64
801 2 2 1 1 159 164 454
802 2 2 1 1 69 110 70
803 2 2 1 1 254 463 566
804 2 2 1 1 59 98 521
805 2 2 1 1 129 486 136
806 2 2 1 1 283 330 284
807 2 2 1 1 191 465 193
808 2 2 1 1 205 220 219
809 2 2 1 1 175 469 176
810 2 2 1 1 207 210 460
811 2 2 1 1 208 450 209
812 2 2 1 1 179 500 307
813 2 2 1 1 73 417 344
814 2 2 1 1 168 172 170
815 2 2 1 1 6 97 342
816 2 2 1 1 182 441 183
817 2 2 1 1 232 386 234
818 2 2 1 1 103 575 451
819 2 2 1 1 76 420 341
820 2 2 1 1 228 251 272
821 2 2 1 1 81 112 82
822 2 2 1 1 92 111 93
823 2 2 1 1 304 549 557
824 2 2 1 1 80 368 81
825 2 2 1 1 359 470 482
826 2 2 1 1 179 251 228
827 2 2 1 1 126 542 443
828 2 2 1 1 250 474 292
829 2 2 1 1 5 343 98
830 2 2 1 1 146 163 147
831 2 2 1 1 146 283 163
832 2 2 1 1 101 459 357
833 2 2 1 1 381 504 498
834 2 2 1 1 79 364 105
835 2 2 1 1 70 110 423
836 2 2 1 1 102 418 417
837 2 2 1 1 227 509 539
838 2 2 1 1 62 99 349
839 2 2 1 1 12 584 433
840 2 2 1 1 225 230 485
841 2 2 1 1 312 575 433
842 2 2 1 1 312 313 575
843 2 2 1 1 215 513 216
844 2 2 1 1 114 554 484
845 2 2 1 1 68 107 350
846 2 2 1 1 118 407 529
847 2 2 1 1 288 461 503
848 2 2 1 1 197 463 206
849 2 2 1 1 65 101 355
850 2 2 1 1 87 379 376
851 2 2 1 1 144 146 145
852 2 2 1 1 261 540 448
853 2 2 1 1 175 179 228
854 2 2 1 1 297 385 535
855 2 2 1 1 278 281 401
856 2 2 1 1 399 491 428
857 2 2 1 1 230 450 541
858 2 2 1 1 351 431 487
859 2 2 1 1 158 558 161
860 2 2 1 1 176 469 182
861 2 2 1 1 83 114 84
862 2 2 1 1 90 113 91
863 2 2 1 1 140 522 141
864 2 2 1 1 238 492 289
865 2 2 1 1 377 404 378
866 2 2 1 1 163 283 284
867 2 2 1 1 173 179 175
868 2 2 1 1 322 502 323
869 2 2 1 1 102 423 424
870 2 2 1 1 346 422 347
871 2 2 1 1 130 442 550
872 2 2 1 1 80 105 368
873 2 2 1 1 354 424 423
874 2 2 1 1 281 440 401
875 2 2 1 1 91 370 92
876 2 2 1 1 200 207 460
877 2 2 1 1 100 344 345
878 2 2 1 1 95 106 365
879 2 2 1 1 262 478 166
880 2 2 1 1 25 443 536
881 2 2 1 1 107 352 351
882 2 2 1 1 60 521 453
883 2 2 1 1 102 424 418
884 2 2 1 1 24 536 414
885 2 2 1 1 431 557 487
886 2 2 1 1 85 116 86
887 2 2 1 1 88 115 89
888 2 2 1 1 195 463 197
889 2 2 1 1 252 466 496
890 2 2 1 1 120 447 464
891 2 2 1 1 183 441 211
892 2 2 1 1 258 559 257
893 2 2 1 1 355 482 456
894 2 2 1 1 300 506 480
895 2 2 1 1 271 421 576
896 2 2 1 1 410 496 466
897 2 2 1 1 317 516 326
898 2 2 1 1 340 488 527
899 2 2 1 1 200 460 438
900 2 2 1 1 344 346 345
901 2 2 1 1 430 581 444
902 2 2 1 1 341 420 421
903 2 2 1 1 87 376 88
904 2 2 1 1 232 501 386
905 2 2 1 1 272 494 273
906 2 2 1 1 84 484 85
907 2 2 1 1 295 477 439
908 2 2 1 1 100 345 348
909 2 2 1 1 356 358 359
910 2 2 1 1 93 111 369
911 2 2 1 1 357 360 358
912 2 2 1 1 149 444 581
913 2 2 1 1 333 436 577
914 2 2 1 1 105 364 408
915 2 2 1 1 349 490 459
916 2 2 1 1 264 270 371
917 2 2 1 1 101 357 356
918 2 2 1 1 301 471 559
919 2 2 1 1 234 492 235
920 2 2 1 1 103 433 575
921 2 2 1 1 81 368 112
922 2 2 1 1 276 550 427
923 2 2 1 1 277 401 512
924 2 2 1 1 252 496 282
925 2 2 1 1 260 561 408
926 2 2 1 1 198 393 566
927 2 2 1 1 441 511 527
928 2 2 1 1 97 341 472
929 2 2 1 1 367 461 555
930 2 2 1 1 400 497 483
931 2 2 1 1 219 239 501
932 2 2 1 1 353 487 514
933 2 2 1 1 304 557 431
934 2 2 1 1 116 484 381
935 2 2 1 1 251 308 467
936 2 2 1 1 310 425 572
937 2 2 1 1 32 534 392
938 2 2 1 1 529 552 384
939 2 2 1 1 320 546 448
940 2 2 1 1 530 547 330
941 2 2 1 1 357 490 360
942 2 2 1 1 175 228 469
943 2 2 1 1 92 370 111
944 2 2 1 1 82 112 367
945 2 2 1 1 257 491 541
946 2 2 1 1 265 489 560
947 2 2 1 1 185 475 187
948 2 2 1 1 193 465 198
949 2 2 1 1 59 521 60
950 2 2 1 1 195 198 463
951 2 2 1 1 136 486 140
952 2 2 1 1 255 257 541
953 2 2 1 1 251 467 272
954 2 2 1 1 172 478 479
955 2 2 1 1 125 552 407
956 2 2 1 1 166 478 168
957 2 2 1 1 382 528 446
958 2 2 1 1 345 346 347
959 2 2 1 1 51 415 537
960 2 2 1 1 116 381 380
961 2 2 1 1 269 426 472
962 2 2 1 1 352 470 431
963 2 2 1 1 414 536 443
964 2 2 1 1 364 429 408
965 2 2 1 1 119 572 425
966 2 2 1 1 379 380 508
967 2 2 1 1 134 405 543
968 2 2 1 1 194 569 212
969 2 2 1 1 91 113 370
970 2 2 1 1 292 474 532
971 2 2 1 1 219 501 232
972 2 2 1 1 265 560 452
973 2 2 1 1 89 115 377
974 2 2 1 1 107 351 350
975 2 2 1 1 58 538 435
976 2 2 1 1 119 467 572
977 2 2 1 1 351 352 431
978 2 2 1 1 189 481 191
979 2 2 1 1 99 436 349
980 2 2 1 1 390 497 451
981 2 2 1 1 185 211 475
982 2 2 1 1 419 435 538
983 2 2 1 1 101 356 355
984 2 2 1 1 341 421 472
985 2 2 1 1 352 482 470
986 2 2 1 1 358 468 359
987 2 2 1 1 395 551 477
988 2 2 1 1 234 386 495
989 2 2 1 1 84 114 484
990 2 2 1 1 215 224 513
991 2 2 1 1 113 377 378
992 2 2 1 1 402 545 473
993 2 2 1 1 245 525 405
994 2 2 1 1 356 357 358
995 2 2 1 1 530 123 547
996 2 2 1 1 202 438 489
997 2 2 1 1 86 116 379
998 2 2 1 1 275 518 276
999 2 2 1 1 289 492 493
1000 2 2 1 1 88 376 115
1001 2 2 1 1 85 484 116
1002 2 2 1 1 291 363 520
1003 2 2 1 1 97 426 342
1004 2 2 1 1 529 407 552
1005 2 2 1 1 238 289 243
1006 2 2 1 1 149 581 151
1007 2 2 1 1 267 296 524
1008 2 2 1 1 191 481 465
1009 2 2 1 1 205 489 220
1010 2 2 1 1 168 478 172
1011 2 2 1 1 106 369 526
1012 2 2 1 1 478 545 479
1013 2 2 1 1 274 404 556
1014 2 2 1 1 33 445 534
1015 2 2 1 1 262 545 478
1016 2 2 1 1 161 564 457
1017 2 2 1 1 384 397 548
1018 2 2 1 1 273 544 469
1019 2 2 1 1 7 419 538
1020 2 2 1 1 332 555 461
1021 2 2 1 1 370 480 506
1022 2 2 1 1 50 537 442
1023 2 2 1 1 146 507 283
1024 2 2 1 1 187 475 204
1025 2 2 1 1 202 489 205
1026 2 2 1 1 316 391 531
1027 2 2 1 1 253 542 466
1028 2 2 1 1 354 353 514
1029 2 2 1 1 522 140 583
1030 2 2 1 1 144 507 146
1031 2 2 1 1 317 440 516
1032 2 2 1 1 376 379 508
1033 2 2 1 1 170 500 173
1034 2 2 1 1 483 497 551
1035 2 2 1 1 283 530 330
1036 2 2 1 1 492 495 493
1037 2 2 1 1 189 204 481
1038 2 2 1 1 281 516 440
1039 2 2 1 1 112 461 367
1040 2 2 1 1 105 408 574
1041 2 2 1 1 170 172 500
1042 2 2 1 1 299 526 505
1043 2 2 1 1 301 573 471
1044 2 2 1 1 408 561 574
1045 2 2 1 1 117 532 474
1046 2 2 1 1 141 522 144
1047 2 2 1 1 234 495 492
1048 2 2 1 1 292 532 294
1049 2 2 1 1 436 553 490
1050 2 2 1 1 312 433 584
1051 2 2 1 1 112 368 503
1052 2 2 1 1 111 505 369
1053 2 2 1 1 374 375 528
1054 2 2 1 1 115 404 377
1055 2 2 1 1 415 442 537
1056 2 2 1 1 283 507 530
1057 2 2 1 1 296 297 535
1058 2 2 1 1 361 530 507
1059 2 2 1 1 173 500 179
1060 2 2 1 1 380 381 498
1061 2 2 1 1 392 534 445
1062 2 2 1 1 236 249 546
1063 2 2 1 1 473 545 564
1064 2 2 1 1 212 569 499
1065 2 2 1 1 383 384 552
1066 2 2 1 1 360 515 509
1067 2 2 1 1 158 160 558
1068 2 2 1 1 380 510 508
1069 2 2 1 1 336 453 521
1070 2 2 1 1 358 360 509
1071 2 2 1 1 271 586 421
1072 2 2 1 1 381 484 554
1073 2 2 1 1 111 370 506
1074 2 2 1 1 97 472 426
1075 2 2 1 1 515 565 302
1076 2 2 1 1 337 510 498
1077 2 2 1 1 116 380 379
1078 2 2 1 1 161 473 564
1079 2 2 1 1 319 493 495
1080 2 2 1 1 182 544 441
1081 2 2 1 1 390 551 497
1082 2 2 1 1 308 572 467
1083 2 2 1 1 99 577 436
1084 2 2 1 1 352 456 482
1085 2 2 1 1 380 498 510
1086 2 2 1 1 523 326 567
1087 2 2 1 1 230 541 491
1088 2 2 1 1 128 543 405
1089 2 2 1 1 438 560 489
1090 2 2 1 1 368 574 503
1091 2 2 1 1 334 553 436
1092 2 2 1 1 98 343 523
1093 2 2 1 1 204 517 481
1094 2 2 1 1 151 581 154
1095 2 2 1 1 144 522 507
1096 2 2 1 1 218 446 578
1097 2 2 1 1 255 541 450
1098 2 2 1 1 358 509 468
1099 2 2 1 1 357 459 490
1100 2 2 1 1 332 504 554
1101 2 2 1 1 258 301 559
1102 2 2 1 1 519 556 404
1103 2 2 1 1 99 453 577
1104 2 2 1 1 518 550 276
1105 2 2 1 1 264 371 540
1106 2 2 1 1 244 498 504
1107 2 2 1 1 264 540 261
1108 2 2 1 1 262 457 564
1109 2 2 1 1 381 554 504
1110 2 2 1 1 300 505 506
1111 2 2 1 1 360 490 553
1112 2 2 1 1 395 483 551
1113 2 2 1 1 182 469 544
1114 2 2 1 1 313 451 575
1115 2 2 1 1 330 547 455
1116 2 2 1 1 519 338 556
1117 2 2 1 1 305 514 487
1118 2 2 1 1 112 503 461
1119 2 2 1 1 441 544 511
1120 2 2 1 1 324 499 569
1121 2 2 1 1 279 565 334
1122 2 2 1 1 308 310 572
1123 2 2 1 1 115 376 519
1124 2 2 1 1 114 367 555
1125 2 2 1 1 111 506 505
1126 2 2 1 1 390 477 551
1127 2 2 1 1 126 466 542
1128 2 2 1 1 105 574 368
1129 2 2 1 1 515 302 539
1130 2 2 1 1 312 584 425
1131 2 2 1 1 338 510 582
1132 2 2 1 1 486 583 140
1133 2 2 1 1 243 525 245
1134 2 2 1 1 438 460 560
1135 2 2 1 1 522 583 361
1136 2 2 1 1 345 347 533
1137 2 2 1 1 345 533 348
1138 2 2 1 1 338 519 508
1139 2 2 1 1 301 447 573
1140 2 2 1 1 402 479 545
1141 2 2 1 1 516 567 326
1142 2 2 1 1 218 578 502
1143 2 2 1 1 376 508 519
1144 2 2 1 1 262 564 545
1145 2 2 1 1 243 289 525
1146 2 2 1 1 332 554 555
1147 2 2 1 1 340 527 511
1148 2 2 1 1 214 585 448
1149 2 2 1 1 115 519 404
1150 2 2 1 1 331 574 561
1151 2 2 1 1 289 493 570
1152 2 2 1 1 227 468 509
1153 2 2 1 1 529 384 548
1154 2 2 1 1 198 566 463
1155 2 2 1 1 273 511 544
1156 2 2 1 1 421 586 472
1157 2 2 1 1 493 562 570
1158 2 2 1 1 130 550 518
1159 2 2 1 1 320 448 585
1160 2 2 1 1 322 568 502
1161 2 2 1 1 361 507 522
1162 2 2 1 1 337 582 510
1163 2 2 1 1 516 281 567
1164 2 2 1 1 331 503 574
1165 2 2 1 1 114 555 554
1166 2 2 1 1 269 472 586
1167 2 2 1 1 227 571 468
1168 2 2 1 1 338 508 510
1169 2 2 1 1 305 487 557
1170 2 2 1 1 128 570 562
1171 2 2 1 1 319 562 493
1172 2 2 1 1 523 567 373
1173 2 2 1 1 486 327 583
1174 2 2 1 1 348 533 576
1175 2 2 1 1 525 289 570
1176 2 2 1 1 375 576 533
$EndElements
