$MeshFormat
2.2 0 8
$EndMeshFormat
$Nodes
1372
1 -0.5 -0.5 0
2 0.5 -0.5 0
3 0.5 0.5 0
4 -0.5 0.5 0
5 -0.1 0 0
6 0.1 0 0
7 -0.3888888888891971 -0.5 0
8 -0.2777777777783942 -0.5 0
9 -0.1666666666675913 -0.5 0
10 -0.05555555555678843 -0.5 0
11 0.05555555555432268 -0.5 0
12 0.1666666666657419 -0.5 0
13 0.2777777777771613 -0.5 0
14 0.3888888888885806 -0.5 0
15 -0.4444444444445976 -0.5 0
16 -0.3333333333337873 -0.5 0
17 -0.2222222222229928 -0.5 0
18 -0.1111111111121899 -0.5 0
19 -1.387057135815439e-12 -0.5 0
20 0.1111111111100322 -0.5 0
21 0.2222222222214516 -0.5 0
22 0.333333333332871 -0.5 0
23 0.4444444444442903 -0.5 0
24 0.5 -0.3888888888891971 0
25 0.5 -0.2777777777783942 0
26 0.5 -0.1666666666675913 0
27 0.5 -0.05555555555678843 0
28 0.5 0.05555555555432268 0
29 0.5 0.1666666666657419 0
30 0.5 0.2777777777771613 0
31 0.5 0.3888888888885806 0
32 0.5 -0.4444444444445976 0
33 0.5 -0.3333333333337873 0
34 0.5 -0.2222222222229928 0
35 0.5 -0.1111111111121899 0
36 0.5 -1.387057135815439e-12 0
37 0.5 0.1111111111100322 0
38 0.5 0.2222222222214516 0
39 0.5 0.333333333332871 0
40 0.5 0.4444444444442903 0
41 0.3888888888891971 0.5 0
42 0.2777777777783942 0.5 0
43 0.1666666666675913 0.5 0
44 0.05555555555678843 0.5 0
45 -0.05555555555432268 0.5 0
46 -0.1666666666657419 0.5 0
47 -0.2777777777771613 0.5 0
48 -0.3888888888885806 0.5 0
49 0.4444444444445976 0.5 0
50 0.3333333333337873 0.5 0
51 0.2222222222229928 0.5 0
52 0.1111111111121899 0.5 0
53 1.387057135815439e-12 0.5 0
54 -0.1111111111100322 0.5 0
55 -0.2222222222214516 0.5 0
56 -0.333333333332871 0.5 0
57 -0.4444444444442903 0.5 0
58 -0.5 0.3888888888891971 0
59 -0.5 0.2777777777783942 0
60 -0.5 0.1666666666675913 0
61 -0.5 0.05555555555678843 0
62 -0.5 -0.05555555555432268 0
63 -0.5 -0.1666666666657419 0
64 -0.5 -0.2777777777771613 0
65 -0.5 -0.3888888888885806 0
66 -0.5 0.4444444444445976 0
67 -0.5 0.3333333333337873 0
68 -0.5 0.2222222222229928 0
69 -0.5 0.1111111111121899 0
70 -0.5 1.387057135815439e-12 0
71 -0.5 -0.1111111111100322 0
72 -0.5 -0.2222222222214516 0
73 -0.5 -0.333333333332871 0
74 -0.5 -0.4444444444442903 0
75 -0.09848077530125077 -0.01736481776652317 0
76 -0.09396926207865451 -0.03420201433239196 0
77 -0.08660254037855492 -0.04999999999980768 0
78 -0.07660444431205861 -0.0642787609684623 0
79 -0.06427876096887117 -0.07660444431171554 0
80 -0.05000000000026555 -0.08660254037829056 0
81 -0.03420201433288932 -0.09396926207847349 0
82 -0.01736481776706343 -0.09848077530115551 0
83 -4.008632483029281e-13 -0.1 0
84 0.01736481776635459 -0.09848077530128049 0
85 0.03420201433230572 -0.09396926207868589 0
86 0.04999999999980399 -0.08660254037855702 0
87 0.06427876096854045 -0.07660444431199304 0
88 0.07660444431183873 -0.06427876096872434 0
89 0.0866025403784309 -0.05000000000002246 0
90 0.09396926207859949 -0.03420201433254315 0
91 0.09848077530123765 -0.01736481776659751 0
92 -0.09961946980918197 -0.008715574274681096 0
93 -0.09659258262895407 -0.02588190451007581 0
94 -0.09063077870375126 -0.04226182617388495 0
95 -0.08191520442903356 -0.05735764363491269 0
96 -0.07071067811884595 -0.07071067811846356 0
97 -0.05735764363534378 -0.08191520442873172 0
98 -0.0422618261743645 -0.09063077870352765 0
99 -0.02588190451060378 -0.0965925826288126 0
100 -0.00871557427515194 -0.09961946980914077 0
101 0.008715574274395536 -0.09961946980920695 0
102 0.02588190450995036 -0.09659258262898768 0
103 0.04226182617384237 -0.09063077870377112 0
104 0.0573576436349518 -0.08191520442900618 0
105 0.07071067811857405 -0.07071067811873546 0
106 0.08191520442886338 -0.05735764363515575 0
107 0.09063077870366344 -0.04226182617407329 0
108 0.09659258262892355 -0.02588190451018969 0
109 0.09961946980917896 -0.008715574274715431 0
110 0.09848077530125077 0.01736481776652317 0
111 0.09396926207865451 0.03420201433239196 0
112 0.08660254037855492 0.04999999999980768 0
113 0.07660444431205861 0.0642787609684623 0
114 0.06427876096887117 0.07660444431171554 0
115 0.05000000000026555 0.08660254037829056 0
116 0.03420201433288932 0.09396926207847349 0
117 0.01736481776706343 0.09848077530115551 0
118 4.008632483029281e-13 0.1 0
119 -0.01736481776635459 0.09848077530128049 0
120 -0.03420201433230572 0.09396926207868589 0
121 -0.04999999999980399 0.08660254037855702 0
122 -0.06427876096854045 0.07660444431199304 0
123 -0.07660444431183873 0.06427876096872434 0
124 -0.0866025403784309 0.05000000000002246 0
125 -0.09396926207859949 0.03420201433254315 0
126 -0.09848077530123765 0.01736481776659751 0
127 0.09961946980918197 0.008715574274681096 0
128 0.09659258262895407 0.02588190451007581 0
129 0.09063077870375126 0.04226182617388495 0
130 0.08191520442903356 0.05735764363491269 0
131 0.07071067811884595 0.07071067811846356 0
132 0.05735764363534378 0.08191520442873172 0
133 0.0422618261743645 0.09063077870352765 0
134 0.02588190451060378 0.0965925826288126 0
135 0.00871557427515194 0.09961946980914077 0
136 -0.008715574274395536 0.09961946980920695 0
137 -0.02588190450995036 0.09659258262898768 0
138 -0.04226182617384237 0.09063077870377112 0
139 -0.0573576436349518 0.08191520442900618 0
140 -0.07071067811857405 0.07071067811873546 0
141 -0.08191520442886338 0.05735764363515575 0
142 -0.09063077870366344 0.04226182617407329 0
143 -0.09659258262892355 0.02588190451018969 0
144 -0.09961946980917896 0.008715574274715431 0
145 0.08117673637997498 0.08117679194971382 0
146 -0.08160626765862328 -0.08143487431432336 0
147 0.08134473081224385 -0.08151788404108579 0
148 -0.08124307919003644 0.08141874782393686 0
149 0.04828769168402428 -0.1046062392520809 0
150 -0.04824905332413255 0.1045250891191586 0
151 -0.1040932888824814 0.04853800008313339 0
152 0.1038744247972466 -0.04841117136328212 0
153 -0.04910016001799472 -0.1042333972877219 0
154 0.04939089171193808 0.104407641716952 0
155 0.1043802981553087 0.04861181544567657 0
156 -0.1049966266770437 -0.04907945972014074 0
157 -0.1147260688827419 0.01005333464424095 0
158 0.1147836773078612 -0.01048396033806295 0
159 -0.01003953568634591 0.1147551783719932 0
160 0.01002820267706175 -0.1147493973224571 0
161 0.2184295400690919 0.4123953580207651 0
162 -0.2249523998392477 -0.4033862972525112 0
163 0.4104374694338152 -0.2180507431382331 0
164 -0.4074926773811013 0.2200594313893207 0
165 0.4127029410129943 0.1148225335887455 0
166 -0.4062043981955454 -0.1116419539940498 0
167 0.109712455159793 -0.4056206391161832 0
168 -0.1109691816012334 0.4011326906128855 0
169 0.4087174444362997 0.3329341377924564 0
170 -0.40438629884885 -0.328960140078769 0
171 0.3262040660881043 -0.4015144228492772 0
172 -0.328952152370454 0.4043920705946179 0
173 0.1114571712288904 0.02976001207493207 0
174 0.1259328196707227 0.04534623839376532 0
175 0.1170149219606075 0.06660400803210159 0
176 0.1431510932774326 0.06401427715163834 0
177 0.1326294881546613 0.09040028992983931 0
178 0.1510280701467573 0.03838684769380436 0
179 0.1650684967621997 0.08650441971266604 0
180 0.1523387539442335 0.1203788261113447 0
181 0.1916634035782235 0.1145294770015028 0
182 0.1769821388701933 0.1549716271571219 0
183 0.1343235444564281 0.1600166606919564 0
184 0.202523866104804 0.07047412493967153 0
185 0.1590632859988924 0.1991288984036484 0
186 0.1059279534127041 0.2000359743654166 0
187 0.2089495702656222 0.1969781766823503 0
188 0.1383458925090285 0.2477614476409641 0
189 0.08254407897162302 0.2515723092636921 0
190 0.05091491276806943 0.2060477305539915 0
191 0.02738672162679126 0.2541406245773158 0
192 -0.000726844180552005 0.2045804116271942 0
193 -0.02582978142932296 0.2557672852696402 0
194 -0.05246567578566808 0.2130068017269933 0
195 0.2369341828095644 0.1075860163813034 0
196 0.2526035864240684 0.05982044677236484 0
197 0.002593362044184463 0.3045151213744148 0
198 -0.07935699000720117 0.2593114385235904 0
199 -0.1072017004658991 0.2090043698490716 0
200 -0.136513025659695 0.2628234701387997 0
201 -0.1662539839472784 0.2133343604119517 0
202 -0.1407753523646376 0.1646895335168427 0
203 -0.1925686244568956 0.1660583792506833 0
204 -0.1670357510638421 0.1224913211566366 0
205 -0.2166740416075648 0.1222824188785513 0
206 -0.1912172048525984 0.07593206908665348 0
207 -0.2431174434513316 0.07909144355968649 0
208 -0.2197882290250153 0.03233642092741496 0
209 -0.2731241028446931 0.03359448108398375 0
210 -0.2437651813731487 -0.01395144153715259 0
211 -0.2227196971024825 0.2134747077204934 0
212 -0.3026158083841958 0.08556268051425608 0
213 -0.1926939239090061 -0.009480357454445247 0
214 -0.2152999674103479 -0.0564477444567776 0
215 0.1123637126978206 0.3021433194090262 0
216 -0.3442712025332878 0.02811949802655948 0
217 -0.2701914984617366 -0.06065853082064938 0
218 -0.2352733286540989 -0.1082537453552079 0
219 -0.1786007887232522 -0.09722061567472777 0
220 -0.1996844977862567 -0.1500835686813997 0
221 -0.1476769417392799 -0.1428942337377225 0
222 -0.1665889810477919 -0.1905360768124078 0
223 -0.1177603660437015 -0.1823874592923 0
224 -0.1340712168872903 -0.2309942404076674 0
225 -0.07952202632862206 -0.217608258828573 0
226 -0.2605362078357755 -0.1592339230212758 0
227 -0.10007838865124 -0.2744370736031838 0
228 -0.04303491471262563 -0.264202136501666 0
229 -0.1856179836105599 -0.2444033821447526 0
230 -0.01995626224415372 -0.2080710939953258 0
231 0.01114799909623183 -0.2512266517888886 0
232 0.02889898771999245 -0.2033535080937285 0
233 0.06090184515373993 -0.2399140835722908 0
234 0.07415809779812745 -0.1877846368402176 0
235 0.1097245222647612 -0.2287475865661857 0
236 0.1237891252455373 -0.181660170287403 0
237 0.1608512233837552 -0.2193963844885095 0
238 0.1731778497147313 -0.1628820172637103 0
239 0.21770261666529 -0.2088362923568481 0
240 0.2334821204759352 -0.1500192283899204 0
241 0.1929281300782702 -0.1065153106354081 0
242 0.2486449068345052 -0.09288280996164872 0
243 0.1978927496979928 -0.2688116210680943 0
244 0.2069996873354059 -0.05514154796013145 0
245 -0.002568388990716112 -0.3066958798141223 0
246 0.2614791642372286 -0.03942223093772161 0
247 0.3163983937887951 -0.08627690541452201 0
248 0.264592367350162 -0.2588337074123278 0
249 0.09588586768829323 -0.1478573504704584 0
250 0.02855675550379775 0.1678493357790791 0
251 0.3229566652282815 -0.01704148329302718 0
252 -0.09941968797211471 -0.1351527734245561 0
253 -0.1285369904864536 -0.1023455878932228 0
254 -0.1475843880405862 -0.06700485169207611 0
255 -0.119936023117915 0.1211162303590543 0
256 -0.009885954071517449 -0.1644936843839444 0
257 -0.0478308359388166 -0.1743561906753038 0
258 0.1592365375465693 -0.06826383688240782 0
259 0.167435898971701 -0.02104592948006398 0
260 0.09418681722091385 -0.274087207596816 0
261 0.1472504947062589 -0.1121801017870194 0
262 -0.09786894903248686 0.1570772069619542 0
263 0.1822581956263142 0.2902161765428972 0
264 0.03678164455456538 -0.1599499489763618 0
265 0.06840575153866396 0.1677123245288671 0
266 -0.3683922358859903 0.09321546844129903 0
267 0.2913026374214877 0.09991096865999058 0
268 0.2196592437003543 0.02924413144101904 0
269 -0.03074935672725739 -0.1384729222606912 0
270 -0.02842398390633174 0.1721762520058551 0
271 0.2440731165273858 -0.3313073273852622 0
272 -0.08526928320888051 0.1260399926315003 0
273 -0.1440910266062345 0.08571092366842827 0
274 -0.156495035993284 0.04819034837968 0
275 0.1178802135715148 0.420482736425847 0
276 -0.007998699530886826 0.4190885088048141 0
277 0.4063696818494997 -0.123613532392043 0
278 0.008643207630665868 -0.4165694176457741 0
279 -0.08749504604850437 -0.403776917736891 0
280 0.1262192762010535 -0.08340324399361948 0
281 0.2733687683376818 0.1532830398307597 0
282 -0.3282327681811691 0.1583551293487197 0
283 -0.1116328803234415 -0.02997775622110569 0
284 -0.09408017803659928 0.06589349238698755 0
285 -0.1002105076300222 0.08323790380387303 0
286 0.09384795442876613 -0.0657643457878026 0
287 -0.06563021665696314 0.09513418162825053 0
288 0.0658178243679626 -0.09542521701951832 0
289 0.08597835299093863 -0.1022265892307721 0
290 0.06510582797652348 -0.11617152976796 0
291 0.02960639519058185 -0.1112140107443469 0
292 -0.02959114933329195 0.1116311108227142 0
293 -0.04536832179642961 0.1265588778377861 0
294 -0.06597694752351589 -0.09411728097433208 0
295 -0.06771346844052044 -0.1166133034302071 0
296 0.06621087039319278 0.09420003698292764 0
297 0.08606605354855892 0.1041472899815518 0
298 0.114149343164599 0.1226459182415214 0
299 -0.03168148056857501 -0.1123872428245925 0
300 0.03140839720998548 0.1122436920595543 0
301 -0.09585896653487973 -0.06676319267329024 0
302 0.05070990859329201 0.1251183426282274 0
303 0.1109112595827415 -0.02976118514544401 0
304 0.1240098596611079 -0.04513383200132951 0
305 -0.1111797320766746 0.02984172571118228 0
306 -0.132814141692824 0.02415404728947447 0
307 -0.1354406758683562 0.0002034787303772001 0
308 0.01070315014880612 0.1152809137417401 0
309 0.0007567660689594552 0.1322117695656106 0
310 -0.01108463784308177 -0.115545299095041 0
311 0.1157210150950429 0.009344337707808592 0
312 0.1352924715045741 -0.001974536084763807 0
313 0.4003000572847746 0.2203984309700179 0
314 0.3230638979115055 0.2872612713929984 0
315 -0.3979759071773798 -0.220986982245902 0
316 -0.3182964153722227 -0.282866245267517 0
317 -0.2230070328022012 0.4064157109250642 0
318 -0.2713392289684555 0.3168248947020797 0
319 0.3365179065919816 -0.1663165789615209 0
320 -0.1006441484249435 0.3152315859421002 0
321 -0.1720123144153452 0.3248159749128898 0
322 -0.0008892966767946879 -0.1352298661877273 0
323 -0.374929744867453 0.3117541241883464 0
324 -0.3124453048822425 -0.3757798065466768 0
325 0.02530617089576571 0.1366549245847632 0
326 -0.08648614516750469 -0.1031517167079925 0
327 -0.117208240319822 0.0688778044491941 0
328 0.3268895259331732 0.4009244237470442 0
329 0.4036966002553607 -0.3237941615994013 0
330 -0.1269997698044065 -0.04653520808179665 0
331 -0.1590576073663361 0.01346173312442061 0
332 -0.1261211464316933 0.04628093953202572 0
333 0.022396926607557 -0.1327722304600708 0
334 -0.02198475535295494 0.1357710370373623 0
335 0.4019997614541745 0.0222410478626684 0
336 -0.3364465320198991 -0.1595555907357887 0
337 -0.4176797786362738 -0.01487970864439925 0
338 0.09434931285301354 0.0659108820812821 0
339 0.1033063467583069 0.08736477735762087 0
340 -0.3407966351094286 -0.05264131127360441 0
341 -0.1151853372699064 -0.01006986172287049 0
342 -0.1330512549047144 -0.02364341199091234 0
343 -0.1029019111998173 -0.08849535607142545 0
344 -0.118584054885383 -0.07039344278628096 0
345 0.07945288878013226 0.135121668866667 0
346 0.2109700331317307 -0.4132292006330885 0
347 -0.06268537800581249 -0.1444870006045472 0
348 0.1668189143423843 -0.336819504571091 0
349 0.337914286838827 0.1473957417262149 0
350 -0.06749141454544463 0.1445177491733037 0
351 0.1323227450704447 0.0229317612971507 0
352 0.31650593344531 -0.3126732642252266 0
353 -0.06374023915371291 -0.3236593784224167 0
354 -0.1267865319533771 -0.3336110427223108 0
355 -0.2969624873230166 -0.1103685237246929 0
356 0.05527607483235058 0.3611233153260086 0
357 0.1117354636521663 -0.1130795893604683 0
358 0.1294194396727034 -0.1438875426206403 0
359 0.3120111575507413 0.04381811166485756 0
360 -0.3216028166907072 0.2466216285409318 0
361 -0.2556672732474264 -0.3270667396040509 0
362 -0.1577518315566918 -0.01614555352593235 0
363 -0.1739393160225677 -0.04651674749715778 0
364 0.04671951378503494 -0.3516267411281928 0
365 0.1538297116288556 0.01299142046419488 0
366 -0.2482999663756864 0.1652680149817748 0
367 0.04438386355863968 -0.1265451880750476 0
368 0.06534138064324423 -0.1433276910568398 0
369 -0.03925636406595467 0.3509623676538971 0
370 0.2784715422256658 -0.1935873755584511 0
371 0.3347176849479919 -0.2435491922279059 0
372 -0.04838063310142398 -0.1235567199015774 0
373 0.2630933253952939 0.01108862691078064 0
374 -0.2015436608441764 0.2646226607211364 0
375 0.06708483971721484 0.1136129745801595 0
376 0.181576144407607 0.02621073103806434 0
377 0.3084449981068528 0.2101819472840065 0
378 0.2483525920780962 0.2506602025549795 0
379 0.2471299916051418 0.3315664748752764 0
380 -0.2228154304218818 -0.2001855424963221 0
381 -0.2459058413108272 -0.2605428094294094 0
382 0.1876099513707965 0.2377076755265549 0
383 0.1325199415480206 -0.0240640021741197 0
384 0.101812062166074 -0.08516775765400522 0
385 0.05608641586769911 0.2962182944718838 0
386 0.1457635246702319 -0.04285734033972761 0
387 0.1409518201344296 -0.2732365487184527 0
388 0.05075310090882926 -0.2906828213202446 0
389 -0.08934206043857329 0.1021939126935876 0
390 -0.1488374944893199 -0.2811432027658585 0
391 -0.08179541901763072 -0.17187078944478 0
392 0.222326499162222 0.1520559389457522 0
393 0.1691598627628956 0.05760252887655375 0
394 0.2140023611996358 -0.009924243923211699 0
395 -0.06851345864562278 0.1768255418193244 0
396 -0.2959358935244701 -0.01316435510238819 0
397 -0.2964758444796792 -0.2128132942883488 0
398 0.2845460188592013 -0.1357559564553978 0
399 0.3842566160255074 -0.05533330425995692 0
400 0.1000717226201167 0.1597035926623578 0
401 0.1546633157704493 0.3533904874455425 0
402 -0.2777996096176302 0.2090626897867207 0
403 -0.258570891263572 0.2550714608983672 0
404 -0.4234972654483646 0.1318276809057406 0
405 -0.1482383532140534 -0.04077393623468415 0
406 -0.2664483667348504 0.1220346897334079 0
407 -0.4267645153805839 0.394516249525444 0
408 -0.3945906150988228 -0.4268596942378604 0
409 -0.0449451141547622 0.1504193083137959 0
410 0.4228197883615128 0.422586667184046 0
411 0.4220589478245746 -0.4214466702387402 0
412 -0.06581328343471578 0.1163129188202462 0
413 -0.1846198603934667 0.03038010708840913 0
414 0.3503143628998884 0.08642481793133229 0
415 -0.1366552165816658 0.0630038892233938 0
416 -0.1913718251134637 -0.3223866168136467 0
417 -0.04912381223997806 0.2984214066898152 0
418 0.1135613963040893 -0.06529224463491405 0
419 0.0851682087406981 -0.1244956040230076 0
420 0.05524966771431513 0.4267922262661961 0
421 -0.1048089723358536 -0.1079647840031481 0
422 -0.1591618788281316 -0.3924735166114432 0
423 0.1337466381316165 -0.06208642518262605 0
424 0.01247437342917136 -0.1531643580147072 0
425 -0.11681383294961 0.09381975928964632 0
426 -0.4169572182755228 0.0559389693923813 0
427 0.0001859574119751798 0.1578385509896199 0
428 0.04951818699412884 0.1470786614140354 0
429 0.1037675650580402 -0.3257232718990581 0
430 -0.02027295138864676 -0.3607265847050363 0
431 0.2539224140355018 0.1958238572179153 0
432 -0.3461147693390771 -0.1064224855227346 0
433 0.01208390763031834 -0.1772232904582385 0
434 -0.1669881072017173 0.4037742007689749 0
435 -0.1975096736087733 0.365615842918977 0
436 -0.1414907480082893 0.3629743327628877 0
437 0.174506021689654 0.002582400779000182 0
438 0.1677029280182313 0.01960107575112961 0
439 0.1606328053002783 -0.00402725450793455 0
440 0.2851385913077451 -0.3664108751172697 0
441 0.2275215748295583 -0.3722682640091753 0
442 0.2685870496099175 -0.4073718117411829 0
443 0.3249767119223393 0.3440928475700213 0
444 0.2870097587691575 0.3662454493111603 0
445 0.2850969447583236 0.3094138731341374 0
446 0.1633362182591351 -0.0446548831812359 0
447 0.1565997118209664 -0.03195163490989579 0
448 0.1525000311084006 -0.05556058861106772 0
449 0.06974973922068584 -0.1655561639485287 0
450 0.0510615125989048 -0.1516388200166008 0
451 0.05546987117634641 -0.1738672929082897 0
452 -0.08356657820631758 -0.1258830384273816 0
453 -0.07709980680401257 -0.1098825100690998 0
454 -0.0929529165698097 -0.1191522450662743 0
455 -0.04846872127597726 0.1745008969125897 0
456 -0.05672928640019249 0.1636224250665601 0
457 -0.03668454903054697 0.1612977801598255 0
458 -0.1535688896048529 -0.09978310178397526 0
459 -0.1380606892635199 -0.08467521979264944 0
460 -0.1630925883819192 -0.08211273368340194 0
461 -0.1021143301539842 -0.1215587787138521 0
462 -0.1166729814111536 -0.1051551859481854 0
463 -0.1139783392292842 -0.1187491806588895 0
464 -0.1607618520315769 -0.05676079959461694 0
465 -0.1762700523729099 -0.07186868158594277 0
466 -0.2471731308853284 0.3616203028135719 0
467 -0.2216757716919004 0.3208204348074847 0
468 -0.236441444906316 0.2907237777116081 0
469 -0.1867779876297608 0.2947193178170131 0
470 -0.1320135248620747 0.1034135770137413 0
471 -0.1304524297779222 0.08976534147903729 0
472 -0.1183749280337625 0.1074679948243503 0
473 -0.144654588843054 0.03617219783457724 0
474 -0.1294676440622587 0.0352174934107501 0
475 -0.1413080912124887 0.04723564395585286 0
476 0.09468620015343292 0.09575603366958632 0
477 0.1087278449614529 0.1050053477995711 0
478 0.100107698356579 0.1133966041115366 0
479 0.3264581501903884 -0.1262967421880215 0
480 0.3714437942207407 -0.144965055676782 0
481 0.3613840378191474 -0.1049452189032825 0
482 0.08502198274321034 -0.167820993655338 0
483 0.08061362416576873 -0.1455925207636491 0
484 0.3678034851847365 0.3669292807697503 0
485 0.3658906711739026 0.3100977045927274 0
486 0.1999639087068381 -0.08082842929776976 0
487 0.1831181124409876 -0.06170269242126963 0
488 0.1760823338124197 -0.08738957375890795 0
489 -0.09477628403429772 0.09271590824873033 0
490 -0.1030779466940916 0.09800683599161697 0
491 -0.1085121702898161 0.08852883154675967 0
492 -0.4374648724337264 0.2947659509833703 0
493 -0.4008471301240184 0.3531351868568952 0
494 -0.463382257690292 0.3361470136519191 0
495 -0.2951115413303184 -0.4378899032733384 0
496 -0.3535179599905326 -0.4013197503922685 0
497 -0.3361841964386085 -0.4634298471189302 0
498 0.1513641852381375 -0.01151023278241389 0
499 0.1339062065262974 -0.01301926912944175 0
500 0.1499779202598608 -0.02255496582709184 0
501 0.1830529898965008 -0.1346986639495592 0
502 0.1700893123922646 -0.1093477062112137 0
503 0.1602141722104951 -0.1375310595253649 0
504 0.08716685247568401 0.1838741494471419 0
505 0.08423873707939031 0.1637079585956125 0
506 0.1029998380164104 0.1798697835138872 0
507 -0.1631388652312661 -0.1200574247062251 0
508 -0.1381069661128668 -0.1226199108154726 0
509 0.3570054595024579 0.03302957976376299 0
510 0.3174839113895114 0.01338831418591519 0
511 0.362478213341228 0.002599782284820612 0
512 0.4509998807270873 -0.01665725384706001 0
513 0.393128188739841 -0.01654612819864426 0
514 0.4421283080127537 -0.05544442990837267 0
515 0.1383349671894812 -0.1280338222038299 0
516 0.1512986446937173 -0.1533847799421753 0
517 0.02509403429375871 0.2053140710905929 0
518 0.01391495566162287 0.1862148737031367 0
519 0.03973583413593359 0.1869485331665353 0
520 0.2146940936157279 0.3108913257090867 0
521 0.2008966536877955 0.3424784811604094 0
522 0.1684607556983817 0.3218033319942198 0
523 -0.4537463386905507 0.2489186045838575 0
524 -0.3912112111242771 0.2659067777888335 0
525 -0.2513650888088209 -0.4516931486262556 0
526 -0.2686988523607451 -0.389583051899594 0
527 -0.02091699728516958 -0.1270091106778661 0
528 -0.02138305920582839 -0.1139662709598168 0
529 -0.0312154186479162 -0.1254300825426419 0
530 0.3761570621770315 0.05433293289700035 0
531 0.3311627602253149 0.06512146479809493 0
532 -0.1434858870908786 0.1218037757578454 0
533 -0.1303556877412763 0.1429028819379485 0
534 -0.1539055517142398 0.1435904273367397 0
535 -0.005387625374156068 -0.1498617752858358 0
536 -0.01581932670202604 -0.1368513942242092 0
537 -0.02031765539938742 -0.1514833033223178 0
538 -0.003936177306917694 -0.1926471922267821 0
539 0.001098976779400443 -0.1708584874210914 0
540 -0.01492110815783559 -0.1862823891896351 0
541 -0.04973914428638789 -0.2128396764119494 0
542 -0.03389354909148516 -0.1912136423353148 0
543 -0.06367643113371933 -0.1959822247519384 0
544 -0.2157619124606936 -0.252473095787081 0
545 -0.2186388332121455 -0.291464713121528 0
546 -0.1884949043620118 -0.2833949994791997 0
547 0.07842143309038674 0.203041852459704 0
548 0.05966033215336669 0.1868800275414293 0
549 -0.005986967259938227 -0.1253875826413841 0
550 -0.1738561204229412 0.06206120873316674 0
551 -0.1502930312997592 0.06695063602405413 0
552 -0.1676541157294164 0.08082149637754088 0
553 0.02893471843826752 0.3328192183502117 0
554 0.008009855383197956 0.3560428414899528 0
555 -0.0183315010108851 0.327738744514156 0
556 0.4065014991488844 0.1676104822793817 0
557 0.3691071720618008 0.1838970863481164 0
558 0.3753086139259106 0.1311091376574802 0
559 -0.1046390417782442 0.111655071526321 0
560 -0.08730567182372689 0.114116952662544 0
561 -0.1026026531633978 0.1235781114952773 0
562 -0.1235483148556973 -0.1390235035811393 0
563 -0.0002704433842884126 0.1812094813084071 0
564 0.01437135645788647 0.1628439433843495 0
565 -0.2649550601160138 0.2859481778002235 0
566 -0.2300572760538742 0.2598470608097518 0
567 -0.1235605226859183 -0.08636951533975186 0
568 -0.1330842214629846 -0.06869914723917853 0
569 -0.0810525329889636 -0.1398198870145517 0
570 -0.06519942322316646 -0.1305501520173772 0
571 0.1233894156596301 0.1065231040856804 0
572 0.1179679174564841 0.08888253364373008 0
573 -0.1193221506985622 0.1608833702393984 0
574 -0.102535324749193 0.1830407884055129 0
575 -0.1239885264152683 0.1868469516829572 0
576 -0.1363282314201444 0.320023780427495 0
577 -0.1058066650130884 0.3581821382774929 0
578 -0.039290096333037 -0.1564145564679975 0
579 -0.02885839500516703 -0.1694249375296241 0
580 0.1872177931535534 -0.03809373872009772 0
581 -0.1969503780668 -0.07683418006575268 0
582 -0.1946196417164578 -0.05148224597696768 0
583 0.3019909219326328 -0.4507572114246386 0
584 0.244373905454446 -0.4566146003165443 0
585 -0.1465751262874749 0.0555971188015369 0
586 -0.1403731215939502 0.07435740644591103 0
587 0.05889737415525342 0.1193656586041935 0
588 0.07326886424867354 0.1243673217234132 0
589 0.06508139868671214 0.1301200057474473 0
590 0.05152854275905995 -0.1955690724669731 0
591 0.03284031613727891 -0.1816517285350452 0
592 0.3953131489375036 -0.08947341832599996 0
593 0.3503275049071513 -0.07080510483723947 0
594 0.4531848409247499 -0.0895845439744157 0
595 -0.1555633888350383 0.1041011224125324 0
596 0.4501500286423873 0.1935325488178799 0
597 0.4563514705064972 0.1407446001272437 0
598 -0.4489879535886899 -0.1938268244558219 0
599 -0.4020901526864626 -0.1663144681199759 0
600 -0.4531021990977727 -0.1391543103298959 0
601 -0.1948368497339716 0.4532078554625321 0
602 -0.1388179241334876 0.4505663453064428 0
603 -0.4472953075494114 -0.4634298471189302 0
604 -0.4472953075494114 -0.4078742915632205 0
605 -0.463382257690292 0.447258124762722 0
606 -0.4078267021345823 0.447258124762722 0
607 0.1532435161264141 -0.0902219693347136 0
608 -0.1327186538914907 -0.1626408465150112 0
609 -0.1085900270079081 -0.1587701163584281 0
610 -0.01457541404344187 0.1883783318165247 0
611 -0.01411901324717828 0.1650074014977375 0
612 -0.02659625998311004 0.2087936066770937 0
613 -0.04044482984599991 0.1925915268664242 0
614 -0.3581361612748012 -0.2519266137567094 0
615 -0.3073861299259509 -0.2478397697779329 0
616 -0.3472258758285295 -0.2169001382671254 0
617 0.09897361152183237 -0.1847224035638103 0
618 0.1098374964669153 -0.1647587603789307 0
619 0.1427279068738114 -0.07583354043801366 0
620 0.1367348854536562 -0.09779167289031944 0
621 -0.3672112195986394 -0.1902712864908453 0
622 -0.3164611882497892 -0.1861844425120687 0
623 -0.1791264779582202 0.09921169512164504 0
624 0.1907191300856684 -0.01548508670163784 0
625 0.1977892528036214 0.008143243557426322 0
626 -0.09156911612068369 0.1415585997967272 0
627 -0.1089024860752009 0.1390967186605042 0
628 -0.06048956721564543 0.1949161717731588 0
629 0.1038106656702298 -0.1304684699154633 0
630 0.09845183619643222 -0.118787596691738 0
631 0.09052703821449566 -0.136176477246733 0
632 -0.2182295526410774 -0.01171589949579892 0
633 -0.2062410764670107 0.01142803173648486 0
634 -0.231776705199082 0.009192489695131187 0
635 -0.06481312747822367 -0.1731134900600419 0
636 -0.08065872267312639 -0.1947395241366765 0
637 -0.3713254651077222 -0.1355987723649192 0
638 0.04848125352123086 0.1677808301539731 0
639 -0.463382257690292 0.3917025692073206 0
640 -0.3917397519940099 -0.4634298471189302 0
641 0.06448553788713055 0.1411001651403512 0
642 0.05011404779371043 0.1360985020211314 0
643 -0.3678627227811352 0.1892072803690202 0
644 -0.3249177924359382 0.2024883789448257 0
645 -0.3645477470359043 0.2333405299651263 0
646 -0.1879185326230325 0.05315608808753131 0
647 -0.1705574481933754 0.03928522773404457 0
648 0.1445610915667148 0.005508442189715536 0
649 0.004471362737919362 -0.2057123010445272 0
650 0.02049144767515539 -0.1902883992759835 0
651 0.3213549997667072 -0.3570938435372519 0
652 0.280289524986348 -0.3219902958052444 0
653 0.1464915878390929 -0.06517513103251693 0
654 0.129982957166335 -0.07274483458812277 0
655 0.1865464279197706 0.3828929227331538 0
656 0.2327797658371168 0.3719809164480207 0
657 0.1335135142341349 0.3277669034272843 0
658 0.1049696953013999 0.3572569013857755 0
659 0.0838198937650856 0.3316333173675173 0
660 0.3004722063239982 -0.1110164309349599 0
661 0.3105319627255915 -0.1510362677084593 0
662 -0.15777632167981 0.03082604075205031 0
663 -0.1459358745295801 0.01880789020694754 0
664 -0.02345617396306128 -0.4582847088228871 0
665 -0.03942591920891925 -0.4101731676913326 0
666 -0.07152530080264641 -0.4518884588684455 0
667 0.4084035756416575 -0.1708321377651381 0
668 0.3734776880128984 -0.1921836610498771 0
669 -0.1798021877603688 0.1442748502036599 0
670 -0.1666719884107666 0.165373956383763 0
671 -0.3054940667855826 -0.05664992104712689 0
672 -0.3188795612162226 -0.08150491749914865 0
673 -0.2835769928923766 -0.08551352727267113 0
674 -0.3001456906694547 0.3606084826483488 0
675 -0.2759795925863276 0.4054038907598411 0
676 0.3543725276958137 0.2152901891270122 0
677 0.3231796424728399 0.1787888445051107 0
678 -0.3613413571105364 -0.305913192673143 0
679 -0.4011811030131149 -0.2749735611623355 0
680 -0.08326236857777802 0.4505663453064428 0
681 -0.0594839405660601 0.4101105997088498 0
682 -0.03177712754260476 0.459544254402407 0
683 -0.2973405674580097 0.1401949095410638 0
684 -0.2573741665552683 0.1436513523575913 0
685 -0.2882663672784277 0.1618115721652472 0
686 -0.004404131573960948 -0.2296488728921072 0
687 0.02002349340811214 -0.2272900799413086 0
688 0.1422734401195531 0.4602413682129235 0
689 0.1681548768203034 0.416439047223306 0
690 0.1925481033683416 0.4561976790103826 0
691 0.36168197759814 0.2538298511815081 0
692 0.4045087508605372 0.2766662843812371 0
693 -0.08319120383905482 0.1669513743906393 0
694 -0.08785757955576093 0.192914955834198 0
695 -0.1270808563580479 -0.4518884588684455 0
696 -0.123328462438318 -0.3981252171741671 0
697 -0.1629142727478615 -0.4462367583057216 0
698 0.08263400535705784 -0.4528103195580916 0
699 0.05917783139522943 -0.4110950283809787 0
700 0.03209938159249427 -0.4582847088228871 0
701 0.1391417331091263 -0.03346067125692365 0
702 0.4531848409247499 -0.1451400995298172 0
703 0.4552187347169076 -0.1923587049029122 0
704 0.0390374712489633 0.1574639985965573 0
705 0.0589619692663964 0.1573954929714513 0
706 -0.1367278422065888 0.2111693651305117 0
707 -0.153514668155958 0.1890119469643972 0
708 0.3725775771909036 -0.2307999676830695 0
709 0.3692071426016763 -0.2836716769136536 0
710 0.4070670348445879 -0.2709224523688172 0
711 0.02958928558106119 -0.1463610897182163 0
712 0.04058275405660253 -0.1432475685257047 0
713 0.03339039508309834 -0.1296587092675592 0
714 -0.1758757656376711 0.00199068783498768 0
715 -0.1752228777328489 -0.0128129554901888 0
716 -0.1584047194615139 -0.001341910200755869 0
717 0.1858418644338498 0.06403832690811265 0
718 0.1753680035852513 0.04190662995730905 0
719 0.1920500052562055 0.04834242798886794 0
720 0.2153053938522052 0.2704381895489383 0
721 0.247741291841619 0.2911133387151279 0
722 -0.1891426432547545 -0.1236520921780637 0
723 -0.1736807197627683 -0.1464889012095611 0
724 0.4563514705064972 0.08518904457153412 0
725 -0.4531021990977727 -0.08359875477418624 0
726 0.1381895609127675 -0.4528103195580916 0
727 -0.09564755875167916 -0.1055582503555703 0
728 -0.06127847052062384 -0.2409051976651195 0
729 -0.03149558847838968 -0.2361366152484959 0
730 0.248103658923743 0.4561976790103826 0
731 -0.1958095332534195 -0.4516931486262556 0
732 0.4552187347169076 -0.2479142604583137 0
733 -0.4537463386905507 0.193363049028456 0
734 0.2033299850953333 -0.1564506228268154 0
735 0.2132051252771027 -0.1282672695126642 0
736 0.09680111597236563 0.1288837935540942 0
737 0.08275947116434559 0.1196344794241094 0
738 0.03915081719743034 0.2300941775656536 0
739 0.01332993872311963 0.2293605181022551 0
740 -0.05621826435010342 0.1474685287435498 0
741 -0.06800243659553371 0.160671645496314 0
742 -0.2252866480322234 -0.08235074490599274 0
743 -0.2069370586886756 -0.1027371805149678 0
744 0.1849340734985553 0.263961926034726 0
745 0.2179812717244464 0.2441839390407672 0
746 -0.1701046598013918 -0.3017649097897526 0
747 -0.1672277390499399 -0.2627732924553056 0
748 -0.02362753179842075 0.3850254382293556 0
749 0.02363868765073188 0.3901059120654113 0
750 0.4543587222181499 0.3053559577848088 0
751 0.4501500286423873 0.2490881043735896 0
752 -0.452193149424425 -0.3033689589279651 0
753 -0.4489879535886899 -0.2493823800115316 0
754 -0.3033649650738076 0.452196035297309 0
755 -0.2503924052896813 0.4532078554625321 0
756 -0.2630497879966582 0.1871653523842477 0
757 -0.3030161888993996 0.1837089095677202 0
758 -0.1886568921512364 0.01044987481698194 0
759 -0.202204044709241 0.03135826400791205 0
760 0.2006176940539807 0.0277274312395417 0
761 0.2110915549025792 0.04985912819034529 0
762 0.2207865184563877 -0.0996990602985284 0
763 0.2278222970849555 -0.07401217896089009 0
764 0.2726595330011325 0.4066598908839046 0
765 0.3256118091966509 -0.2781112282265663 0
766 0.3601012668503354 -0.3182337129123139 0
767 0.09423601619216354 0.2258041418145543 0
768 0.06672949586984622 0.2288100199088418 0
769 -0.415494971414733 0.1759435561475307 0
770 -0.3758650168147669 0.1450914051272301 0
771 -0.2235195491804451 -0.3247266782088488 0
772 -0.2507865572791268 -0.2938047745167301 0
773 0.3023336518557837 0.4504622118735221 0
774 0.4518483001276804 -0.3007859696888978 0
775 0.04490041643686619 -0.2216337958330097 0
776 0.06752997147593369 -0.2138493602062542 0
777 0.0237784280129508 0.459544254402407 0
778 0.08671788456415164 0.4602413682129235 0
779 -0.2295325743917483 -0.0351995929969651 0
780 -0.203996945659677 -0.03296405095561142 0
781 -0.179411304202087 0.1896963698313175 0
782 0.3157544480091792 0.2487216093385025 0
783 -0.1313881815066796 0.05464241437770976 0
784 -0.1920571393336896 -0.3979299069319772 0
785 -0.07511277283359402 0.3760475291333913 0
786 -0.2997012131541687 0.2278421591638262 0
787 0.0283572840528756 0.1244493083221588 0
788 0.01800466052228591 0.1259679191632517 0
789 0.0210557736793958 0.1137623029006472 0
790 0.1071105328923578 0.1411747554519396 0
791 0.08976230570012447 0.1474126307645124 0
792 -0.3519409486189535 0.3580730973914822 0
793 -0.3231344869179542 0.3142895094452131 0
794 -0.3584158018655463 -0.3523699733127229 0
795 -0.3153708601272326 -0.3293230259070968 0
796 0.05486262210094195 -0.1349364395659437 0
797 -0.01327831280493748 0.2301738484484172 0
798 -0.03914772860749552 0.2343870434983167 0
799 0.4073513512335845 0.06853179072570698 0
800 0.4509998807270873 0.03889830170849554 0
801 -0.1718387338799014 0.02192092010641487 0
802 -0.4119420884159096 -0.06326083131922453 0
803 -0.4588398893181369 -0.03521763209936096 0
804 -0.1918548963357034 0.1223868700175939 0
805 -0.2039456232300816 0.0991072439826024 0
806 -0.1571329613935359 -0.1667151552750651 0
807 -0.1421746735457467 -0.1864617680523539 0
808 0.1126526536804983 -0.1458724465455493 0
809 0.1205774516624349 -0.1284835659905543 0
810 -0.005814871878990448 -0.3886480011754052 0
811 -0.05388399871857557 -0.3822517512209637 0
812 0.07821598447241397 -0.378623690122188 0
813 0.02768136070785041 -0.3840980793869835 0
814 -0.4584786091377614 0.05574726247458486 0
815 -0.4202272418619437 0.09388332514906096 0
816 -0.4617486327241823 0.09369161823126453 0
817 0.02362548409171415 0.4229403675355051 0
818 0.05540261163555178 0.463396113133098 0
819 -0.2055027169388068 0.05413424500703422 0
820 0.4543587222181499 0.3609115133405185 0
821 -0.452193149424425 -0.3589245144836748 0
822 0.3575464774883425 -0.4507572114246386 0
823 -0.3589205206295173 0.452196035297309 0
824 0.01303146848236258 0.1344333470751869 0
825 0.01274606415387045 0.1472467377871916 0
826 0.0004713617404673175 0.1450251602776153 0
827 -0.0159434578081969 -0.2577143941452773 0
828 -0.4588398893181369 0.02033792345619459 0
829 -0.4173184984558983 0.02052963037399103 0
830 0.08656494064291499 0.4236374813460215 0
831 -0.1117903407812133 -0.05973645125321085 0
832 -0.1072215107101313 -0.06857831772978559 0
833 -0.1004277966059617 -0.05792132619671549 0
834 -0.06995025624544909 0.3330969767979987 0
835 -0.2984913699278373 -0.1593947568785323 0
836 -0.2787493475793961 -0.1348012233729844 0
837 -0.3167045096714579 -0.1349620572302408 0
838 0.1362717646709821 0.3869366119356947 0
839 0.0919413100314443 -0.2082661117032016 0
840 0.1167568237551492 -0.2052038784267943 0
841 -0.3792382068728512 -0.03376050995900183 0
842 -0.3425339188213582 -0.01226090662352246 0
843 -0.3809754905847808 0.006619894691080116 0
844 0.1888183498987363 -0.4566146003165443 0
845 0.1603412441457618 -0.4094249198746359 0
846 0.005729958108882787 0.1237463416536754 0
847 0.06504829266825152 -0.08601483066575569 0
848 0.07358127759010322 -0.08847155053030206 0
849 0.07281174589039215 -0.07906116417653941 0
850 -0.2174789132201778 -0.1291686570183038 0
851 -0.06495448881275179 0.08586931297012179 0
852 -0.0734366479234998 0.0882764647260937 0
853 -0.07276092007928844 0.07901159606796496 0
854 -0.1306496334630282 0.07729436405881118 0
855 -0.117011036634716 0.08134878186942021 0
856 -0.09060755349487272 -0.1535117814346681 0
857 -0.07224039851172161 -0.1581788950246636 0
858 -0.373500516652487 -0.08214163263382709 0
859 -0.08623170542346917 -0.06552097682087626 0
860 -0.08873261709675151 -0.07409903349380681 0
861 -0.07910535598534094 -0.07285681764139283 0
862 -0.4617486327241823 0.149247173786666 0
863 -0.1269317284507439 0.06594084683629395 0
864 0.3536066406268944 -0.03618739377649205 0
865 0.2361314150622114 0.04453228910669194 0
866 0.2275637262644362 0.06514728585601819 0
867 0.0579089121838833 -0.09101387869903768 0
868 0.3578892074111851 0.4504622118735221 0
869 0.4518483001276804 -0.3563415252442992 0
870 0.2410635136552202 -0.1214510191757846 0
871 -0.05781510832838357 0.09086836100340379 0
872 -0.09123075345671733 -0.05838159633654896 0
873 -0.06591133289643462 0.2361591201252918 0
874 -0.09327934523655013 0.234157904186331 0
875 -0.07983368812578359 0.2110055857880325 0
876 0.05568124535002485 0.3286708048989462 0
877 0.08422506428275987 0.299180806940455 0
878 -0.3434557022242529 -0.07953189839816949 0
879 -0.3215386283310468 -0.1083955046237137 0
880 0.1248222050576344 0.07850214898097045 0
881 0.1101606343594572 0.07698439269486124 0
882 0.05496540029920714 0.252856466920504 0
883 0.0328052057714374 0.1031064770690139 0
884 0.02438660748852445 0.1053622336803549 0
885 -0.03294174745073217 -0.103178252451533 0
886 -0.02452314916781922 -0.105434009062874 0
887 -0.0997778925306661 -0.17712912436854 0
888 0.3815086519564413 0.1006236757600389 0
889 0.08657814420193272 0.3908030258759277 0
890 0.03602492212498588 -0.2455703676805897 0
891 0.1078605075475214 0.004672168853904296 0
892 0.1071008951981468 0.01335457773716588 0
893 -0.1157194508431355 -0.0954204719823241 0
894 -0.1107429830426001 -0.0794443994288532 0
895 -0.1831367394170243 -0.1703098227469038 0
896 -0.1159981982407251 -0.0478073339009687 0
897 -0.1227919123448947 -0.0584643254340388 0
898 0.1433311492003308 0.1401977434016506 0
899 0.1242364438105135 0.1413312894667389 0
900 0.1332440485544162 0.121512372176433 0
901 -0.1372920789224963 -0.05677002988693639 0
902 -0.3806142104044054 0.04202923370947039 0
903 -0.2840562890648345 -0.3514232730753638 0
904 -0.2869818443098245 -0.3049664924357839 0
905 0.1484834874801343 -0.1722710937755567 0
906 0.1266042824591203 -0.1627738564540216 0
907 0.216830802449995 0.009659943758903673 0
908 0.2385478432974648 0.0005821914937844683 0
909 0.2413762845478241 0.02016637917589984 0
910 -0.3483125020335797 0.1257852988950094 0
911 -0.3959447506671775 0.1125215746735198 0
912 -0.2785060261577273 -0.1860236086548123 0
913 -0.2596456374507805 -0.2064994183923355 0
914 -0.2416758191288286 -0.179709732758799 0
915 -0.2046213330322302 0.1441703990646173 0
916 -0.217167324151965 0.07751175632316998 0
917 -0.2314528362381734 0.05571393224355073 0
918 -0.04671736736653494 -0.1414799614326192 0
919 -0.05525810697231455 -0.1594215956399255 0
920 -0.1259157914654959 -0.2066908498499837 0
921 -0.1067966216079562 -0.2243012496181202 0
922 -0.09864119618616177 -0.1999978590604365 0
923 -0.3482662807790801 0.2791878763646391 0
924 -0.2964710228295814 0.2817232616215057 0
925 -0.2464561659348542 0.03296545100569936 0
926 -0.2584446421089209 0.009821519773415582 0
927 -0.1833166199657869 -0.02799855247580151 0
928 -0.1087093739749221 0.07605785412653357 0
929 0.1888944737370575 -0.3750243526020898 0
930 0.1382656847510886 -0.3712200718436371 0
931 0.1424841210494474 0.105389558020592 0
932 -0.2845320875595231 0.103798685123832 0
933 -0.3154242882826824 0.1219589049314879 0
934 0.0007784700987341475 0.2549539549234781 0
935 -0.240309836543337 -0.3652265184282811 0
936 -0.3994884569738364 -0.3779099171583147 0
937 -0.3778583338755189 0.399454160060031 0
938 0.07246995906487155 -0.2823850144585303 0
939 0.07726033298343475 -0.3082030466096514 0
940 0.09897719113947703 -0.299905239747937 0
941 0.2054460154348851 -0.3340634159781766 0
942 -0.07561764260110865 -0.3637181480796539 0
943 -0.09526338555354499 -0.3286352105723638 0
944 -0.1071407890009407 -0.3686939802296009 0
945 0.2342394257863172 -0.04728188944892653 0
946 0.2377407627184322 -0.02467323743046666 0
947 0.2105010242675208 -0.03253289594167157 0
948 0.01403398395793477 0.1068808445214478 0
949 -0.0142247278050726 -0.1070130371980983 0
950 -0.05642986817093712 0.1355383135055449 0
951 -0.06665234899008021 0.1304153339967749 0
952 -0.05559080261557269 0.1214358983290162 0
953 0.1135890931619666 0.01955217489137033 0
954 0.1049689732650706 0.02356241492072762 0
955 -0.3761595837673113 -0.1090322197583922 0
956 0.2622862448162613 -0.01416680201347049 0
957 0.06546182617224304 -0.1057983733937392 0
958 0.07554209048373106 -0.1091990594993661 0
959 0.07589808867945061 -0.09882590312514522 0
960 -0.121857363062797 0.2359139199939357 0
961 -0.1513835048034867 0.2380789152753757 0
962 -0.01089939897048988 0.1468047940134911 0
963 -0.02520436962964334 0.1539736445216087 0
964 -0.2711908428952532 -0.2366780518588791 0
965 -0.2343606358663545 -0.2303641759628657 0
966 0.08531318370925055 -0.2343308350692382 0
967 0.02443277609244186 -0.1685866197173001 0
968 0.1106976100579581 0.05760791173888908 0
969 0.1056821174068105 0.06625744505669184 0
970 0.09936480550416114 0.05726134876347933 0
971 0.3649503331717325 -0.3626542922243393 0
972 -0.2830636959931034 -0.03691144296151878 0
973 -0.3183662643169494 -0.0329028331879963 0
974 -0.3355040221350931 0.08938907447777755 0
975 0.1646604464072134 0.1376752266342333 0
976 0.1556528416633107 0.1574941439245392 0
977 -0.356331719209639 0.06066748323392926 0
978 -0.3926747270807566 0.07457721891684016 0
979 -0.01061399464199774 0.1339914033014865 0
980 0.4614098941807564 0.461293333592023 0
981 0.4614098941807564 0.4057377780363133 0
982 0.4610294739122873 -0.4607233351193701 0
983 0.4054739183565776 -0.4607233351193701 0
984 0.4058543386253549 0.461293333592023 0
985 0.4610294739122873 -0.4051677795639687 0
986 0.2286510811718592 0.2238191896186649 0
987 0.1982797608182094 0.2173429261044526 0
988 0.1171976335382724 0.1598601266771572 0
989 0.2550620355358669 -0.06615252044968517 0
990 -0.07638034887716258 0.135278870902402 0
991 -0.08268018178896575 0.1507974780676289 0
992 0.1823558320201885 -0.3028155628195927 0
993 0.2209829331126893 -0.3000594742266782 0
994 -0.09938043886734851 -0.07762927437235784 0
995 -0.09225408942922028 -0.0849651151928744 0
996 -0.04200659527117984 -0.3421929815637265 0
997 0.1466934152276602 0.1795727795478024 0
998 0.1324956197057982 0.1995824363845325 0
999 0.1201257489345661 0.1800263175286865 0
1000 0.07392932015939811 0.1514169966977671 0
1001 0.08557328086581836 -0.1133610966268899 0
1002 0.09885690832155247 -0.1076530892956202 0
1003 0.07657544663288687 0.1088801322808556 0
1004 -0.05259338571826207 0.2575393618966153 0
1005 0.1067737629091202 -0.09912367350723678 0
1006 0.09389520757850633 -0.09369717344238868 0
1007 -0.1503300989675411 -0.2107651586100376 0
1008 -0.08980020748993103 -0.2460226662158784 0
1009 -0.07155665168193283 -0.2693196050524249 0
1010 0.1694222849162112 -0.2710240848932735 0
1011 0.153885367238407 -0.3050280266447719 0
1012 0.01621256464230937 -0.1237608138912639 0
1013 0.02600166089906943 -0.1219931206022088 0
1014 0.0198172989338218 -0.112981704033402 0
1015 0.1954402331900107 -0.1858591548102792 0
1016 0.2255923685706126 -0.1794277603733842 0
1017 0.001294209678826953 -0.1588290211993258 0
1018 0.005792538376188334 -0.1441971121012172 0
1019 0.1423201743146462 -0.2005282773879563 0
1020 0.1670145365492433 -0.1911392008761099 0
1021 -0.125083372375549 0.005128406687309076 0
1022 -0.1253130065691313 -0.004933191496246644 0
1023 -0.1149557030763241 -8.263539314767865e-06 0
1024 0.1255067432998085 0.003684900811522392 0
1025 0.1338076082875094 0.01047861260619345 0
1026 0.1240218800827438 0.01613804950247965 0
1027 -0.282101128341525 -0.2717045273484632 0
1028 -0.01601214551965043 0.1252631077046778 0
1029 -0.02578795234312344 0.1237010739300383 0
1030 -0.01981534250981893 0.1131931445973537 0
1031 0.3356177957699867 -0.2049328855947135 0
1032 -0.03346493475385857 0.1430951726755791 0
1033 0.2156380347139221 0.1745170578140512 0
1034 0.2381244565988619 0.1739398980818337 0
1035 0.231435992150562 0.1964010169501328 0
1036 -0.07892376175093758 0.0728487543963306 0
1037 0.07897458756204129 -0.07289832250490506 0
1038 -0.07294251431374722 -0.07901965931301945 0
1039 0.0788905903460168 0.07272777645908807 0
1040 0.07272774867442308 0.07889061813071468 0
1041 0.08366154190159124 -0.09187223663592894 0
1042 -0.2427457329360423 -0.05855313763871349 0
1043 -0.2527324135579178 -0.08445613808792864 0
1044 -0.113409108796674 -0.02002380897198809 0
1045 -0.1241182960873104 -0.01685663685689141 0
1046 -0.122342067614078 -0.02681058410600901 0
1047 -0.07554128332179814 0.1211764557258732 0
1048 0.1223596925962349 -0.2994799103087554 0
1049 0.1175693186776717 -0.2736618781576344 0
1050 0.1352878728242582 -0.2240719855273476 0
1051 -0.1079350078334481 0.261067454331195 0
1052 0.1221369229608663 0.2238987110031904 0
1053 0.1104449857403258 0.2496668784523281 0
1054 0.1189773699266099 -0.09824141667704391 0
1055 0.1294929791792127 -0.1126298455737439 0
1056 -0.06572175004583947 0.1057235502242484 0
1057 -0.07757767193664453 0.1092534157569169 0
1058 -0.07748613854776822 0.09866404716091907 0
1059 0.292217914732755 -0.0282318571153744 0
1060 0.2930249953117877 -0.002976428191123271 0
1061 -0.2298957425294482 0.1006869312191189 0
1062 -0.09534791463045615 0.04926900004157793 0
1063 -0.09903127548054044 0.04137000720783827 0
1064 0.09523848258783876 -0.04920558568165229 0
1065 0.09892184343792305 -0.04130659284791263 0
1066 -0.04955008000913014 -0.09541796883300624 0
1067 -0.04165108717544202 -0.09910132968309771 0
1068 0.04969544585610182 0.09550509104762128 0
1069 0.0417964530224137 0.09918845189771275 0
1070 -0.04122553382821914 0.09924717559892224 0
1071 -0.04912452666196827 0.09556381474885781 0
1072 0.04124485300816499 -0.09928775066538338 0
1073 0.04914384584191413 -0.09560438981531895 0
1074 0.09917478011698164 0.04140691488903427 0
1075 0.09549141926693183 0.04930590772274213 0
1076 -0.09948294437784908 -0.04164073702626635 0
1077 -0.09579958352779928 -0.04953972985997421 0
1078 -0.01142067018968144 -0.3337112322595793 0
1079 0.01322328119819409 -0.3561766629166145 0
1080 0.02207556239715942 -0.3291613104711575 0
1081 -0.08766162861331786 0.07365612010546221 0
1082 -0.085342311174219 0.06508612667785595 0
1083 -0.07379160759106959 -0.08777607764432772 0
1084 -0.06512785424619352 -0.08536086264302381 0
1085 -0.005019767842972525 0.1073775891859966 0
1086 -0.01370217672635025 0.1066179768366368 0
1087 0.005014101338330441 -0.1073746986612285 0
1088 0.01369651022170817 -0.1066150863118688 0
1089 -0.1066034220919898 0.01370907620541923 0
1090 -0.107363034441371 0.005026667322120476 0
1091 0.1066322263045494 -0.01392438905233023 0
1092 0.1073918386539306 -0.005241980169031476 0
1093 0.08759634262050499 -0.07364111491444419 0
1094 0.08522619937030243 -0.06502155337826347 0
1095 0.0487363073469321 -0.3211547812242187 0
1096 0.02409235595905658 -0.2986893505671834 0
1097 -0.05553300555361823 -0.1340218602530623 0
1098 -0.05804705077097221 -0.1200850116658922 0
1099 0.02693146319978173 0.1522521301819212 0
1100 -0.0903413592075151 0.05794674619350501 0
1101 -0.05798847376189072 -0.09035991067631133 0
1102 0.08547687858253608 0.0650948215248722 0
1103 0.08776302461649427 0.07354383701549796 0
1104 0.07369380338658388 0.08768841446632072 0
1105 0.06524481568103196 0.08540224064732159 0
1106 0.1603020440676713 0.2689888120919306 0
1107 0.1473109541620674 0.2961797479759617 0
1108 0.1253548026034246 0.2749523835249951 0
1109 0.09022524740359852 -0.05788217289391254 0
1110 0.05780088105256543 0.09930383934993982 0
1111 0.06664785505520381 0.1039065057815436 0
1112 0.05823786571457646 0.1090103081485557 0
1113 0.09047592661578423 0.05795544104054489 0
1114 0.05810543519672916 0.09040128868060909 0
1115 0.1837961814335019 0.07848927232616879 0
1116 0.1970936348415138 0.09250180097058719 0
1117 0.1783659501702116 0.1005169483570844 0
1118 0.1218899581496676 0.02634588668604139 0
1119 0.2889387790130118 -0.06284956817612181 0
1120 0.3196775295085383 -0.0516591943537746 0
1121 -0.1025744970776371 0.03202187002186271 0
1122 -0.1048302536889561 0.0236032717388899 0
1123 -0.02347798354982327 0.1050559430619974 0
1124 -0.03189658183279884 0.1028001864507 0
1125 0.02348560647846822 -0.1048473930228137 0
1126 0.03190420476144379 -0.1025916364115164 0
1127 0.1024402608306705 -0.03198159973899357 0
1128 0.1046960174419896 -0.02356300145602076 0
1129 0.4157686163989063 0.3777604024882512 0
1130 0.374854657147343 0.4117555454655451 0
1131 0.3741315069563395 -0.4114805465440087 0
1132 0.4128777740399677 -0.3726204159190708 0
1133 -0.09908673345954033 0.05721574623506047 0
1134 -0.05753855377075531 -0.099175339131027 0
1135 0.02933988895594179 0.3003667079231493 0
1136 0.1487045892539605 0.2234451730223063 0
1137 0.09886118961300638 -0.05708775857554236 0
1138 -0.1170748027692652 -0.2527156570054256 0
1139 0.07524353942153758 -0.3386750065136255 0
1140 -0.1944868405248805 0.2134045340662226 0
1141 -0.2076441607796891 0.1897665434855883 0
1142 -0.1050568278123462 -0.02367128699381443 0
1143 -0.102801071201048 -0.03208988527674882 0
1144 0.2857082449948009 0.2689607369739889 0
1145 0.1680227124345428 0.1770502627803852 0
1146 -0.1075926686349532 -0.005034930861435244 0
1147 -0.1068330562855786 -0.01371733974469683 0
1148 0.1027132166537725 0.03198101320366202 0
1149 -0.2581207731480124 0.05634296232183512 0
1150 0.005351575074603491 0.1076404568708701 0
1151 -0.005542318921741315 -0.1077726495475205 0
1152 -0.107636510479578 0.03918986289715783 0
1153 -0.03892010132871225 0.1080780999709364 0
1154 -0.2479047682449372 -0.1337438341882419 0
1155 -0.2301103528110161 -0.1546587458513378 0
1156 0.03894704343730306 -0.1079101249982139 0
1157 0.107392842189994 -0.03908617825436306 0
1158 0.09882782980566023 0.07663782971945149 0
1159 -0.2569783399174427 -0.03730498617890098 0
1160 0.1352932397002123 -0.3312713882350745 0
1161 0.2447688846168164 0.0837032315768341 0
1162 0.2197290244571842 0.08903007066048746 0
1163 -0.1129529004797083 0.01994753017771162 0
1164 -0.1083147535002426 -0.03952860797062321 0
1165 0.1128474684453013 -0.02012257274175348 0
1166 0.1892769200245226 -0.2141163384226788 0
1167 0.264118410115526 0.103748492520647 0
1168 0.2823357028795848 0.1265970042453751 0
1169 0.2551514755736231 0.1304345281060315 0
1170 0.1079187346920996 0.03918591376030432 0
1171 -0.2081621124763557 -0.362886457033079 0
1172 0.2543327419387739 -0.295070517398795 0
1173 0.290549150397736 -0.2857534858187772 0
1174 -0.1342459653865353 -0.01171996663026757 0
1175 -0.1134324603023086 -0.3040240581627474 0
1176 -0.08190931390247647 -0.2990482260128002 0
1177 0.05705275802599344 -0.1000157281357996 0
1178 -0.1761034823291759 -0.2174697294785802 0
1179 -0.1598446002489251 -0.23769881127621 0
1180 0.13848044490874 0.04186654304378484 0
1181 0.147089581712095 0.05120056242272135 0
1182 0.1345419564740777 0.05468025777270183 0
1183 -0.08529256981430486 0.09180633025876224 0
1184 0.1151565589130157 0.04697902691972095 0
1185 0.1214738708156651 0.05597512321293345 0
1186 -0.05693963499054785 0.09982963537370455 0
1187 0.1929658545679078 0.1759749019197361 0
1188 0.1840064281322573 0.1980535375429994 0
1189 0.0003318072312301027 0.1150180460568667 0
1190 -0.000528217583010011 -0.115147348208749 0
1191 -0.02280165185167087 -0.2854490081578941 0
1192 0.004289805052757858 -0.2789612658015054 0
1193 0.2636455911865918 0.1745534485243375 0
1194 0.2478476337499519 0.1526694893882559 0
1195 0.1186949954498066 0.03755312523434869 0
1196 0.09745389583472183 0.2768578143363591 0
1197 0.2312425585240774 -0.263822664240211 0
1198 0.2825216503116501 -0.08957985768808537 0
1199 -0.0907267934100293 0.08232832581390495 0
1200 -0.09714534283331072 0.07456569809543029 0
1201 -0.1185785870423192 0.28902752804045 0
1202 -0.1542626700375201 0.2938197225258448 0
1203 0.179371986540874 -0.2441040027783019 0
1204 0.2077976831816414 -0.2388239567124711 0
1205 -0.08404620641306398 -0.09229329551115792 0
1206 -0.0762315463455103 -0.09863449884116229 0
1207 0.04039964446096178 0.1083256668882532 0
1208 -0.04039082029328486 -0.1083103200561572 0
1209 -0.09000056921607234 0.2872715122328453 0
1210 0.07754433118732688 -0.2570006455845534 0
1211 0.1019556697428375 -0.2514173970815008 0
1212 0.1671141797625477 0.0720534742946099 0
1213 -0.2661179079885578 -0.1093111345399504 0
1214 -0.1690283432519357 0.263723065429968 0
1215 -0.1838988223957274 0.2389785105665441 0
1216 -0.2878699556144445 0.05957858079911992 0
1217 -0.3234435054587418 0.05684108927040778 0
1218 -0.3086976526889905 0.03085698955527161 0
1219 0.1152523462014521 -0.0005698113151271795 0
1220 -0.1056442091782106 0.06738564841809083 0
1221 -0.1106507646011517 0.05870790226616374 0
1222 -0.2728666259177637 0.08232706203697129 0
1223 -0.03956499491434069 -0.1310148210811343 0
1224 -0.06684520798201816 -0.1053652922022696 0
1225 -0.05840681422925758 -0.1104233503589645 0
1226 0.251137503056799 0.2232420298864474 0
1227 -0.05338757693316927 -0.2939307574620413 0
1228 0.241147492007726 -0.2338349998845879 0
1229 0.1720010787612285 0.1174541515564237 0
1230 0.1843227712242084 0.1347505520793124 0
1231 0.01499004183548786 0.2793278729758654 0
1232 -0.01161820969256925 0.2801412033220275 0
1233 0.2823073719874049 0.0518192792186112 0
1234 0.3016568974861145 0.07186454016242408 0
1235 0.271953111922778 0.07986570771617771 0
1236 0.1488489924584305 0.08845235482125267 0
1237 0.1587036253532166 0.1034416229120053 0
1238 -0.320103548028879 0.007477571462085645 0
1239 0.09157839648915894 -0.0833428208475455 0
1240 0.09783000829742008 -0.07546605172090391 0
1241 0.2480870794454779 -0.2012118339576496 0
1242 0.2559768313508005 -0.1718033019741858 0
1243 -0.1219969368847493 0.02699788650032837 0
1244 -0.123770105287783 0.01710369096685771 0
1245 -0.2698505374488094 -0.01355789831977039 0
1246 0.004569453000133529 -0.1249896317550921 0
1247 0.01075381496538115 -0.134001048323899 0
1248 0.08362139496426696 0.0926620409656328 0
1249 0.07613846197087584 0.09917366348223972 0
1250 -0.1341274087805901 0.01217876300992583 0
1251 0.1300830076190201 0.06530914259186996 0
1252 0.137890290716047 0.07720728354073883 0
1253 -0.13761906150923 -0.0436545721582404 0
1254 -0.1479113706273198 -0.05388939396338013 0
1255 0.2996550261490769 -0.2511914498201169 0
1256 0.1430762283496502 0.01796159088067279 0
1257 0.09224154156914094 0.08427078465366734 0
1258 0.2142987931938939 0.1110577466914031 0
1259 0.2578484559096812 0.03545453684157274 0
1260 0.03699512937461077 -0.1188795994096972 0
1261 -0.09469402818366099 -0.09582353638970897 0
1262 -0.1151072176570874 0.04740946980757955 0
1263 -0.118650439254184 0.038061332621604 0
1264 -0.004641384808693229 0.1234834739688019 0
1265 0.1139421422291773 -0.04677250168230582 0
1266 0.1174605596219247 -0.03744750857338676 0
1267 0.3146084621301574 0.1236533551931027 0
1268 0.3056415275882544 0.1503393907784873 0
1269 0.1140156691835637 -0.08428550082381235 0
1270 -0.119316325063924 -0.03825648215145117 0
1271 0.2875522414730176 0.0274533692878191 0
1272 0.1629779219399125 0.2427345615837595 0
1273 -0.1300255123545604 -0.0350893100363545 0
1274 -0.03367653857469227 0.1311649574375742 0
1275 -0.03747973556486078 0.1190949943302502 0
1276 0.07513701835861078 -0.1203335668954838 0
1277 -0.04680868756028108 0.1155419834784724 0
1278 0.1291277823705837 0.03413899984545801 0
1279 0.141675407608601 0.03065930449547753 0
1280 0.06522360430988386 -0.1297496104123999 0
1281 0.07525479469197116 -0.1339116475399237 0
1282 0.2909068832222673 0.1817324935573831 0
1283 -0.220434295416291 0.165663197116229 0
1284 -0.2324870039916256 0.143775216930163 0
1285 -0.2900868539771396 0.2508465447196495 0
1286 -0.3412806506794881 -0.1329890381292616 0
1287 -0.2845299981845816 0.01021506299079778 0
1288 -0.1216646933757576 0.05757937199060991 0
1289 0.2296303409858932 0.1298209776635278 0
1290 -0.0400310568349995 -0.117971981363085 0
1291 0.1541097950198162 0.07525934843215218 0
1292 -0.2121316789733295 0.2390486842208149 0
1293 -0.03315431407221451 -0.3151776291182695 0
1294 0.2715319547879139 -0.2262105414853894 0
1295 0.04105915290163874 0.1186810173438909 0
1296 0.03800803974452886 0.1308866336064953 0
1297 0.05669675983027388 -0.1103888845100204 0
1298 0.1067400101089166 -0.3656719555076207 0
1299 -0.146596253712524 -0.007971037397777573 0
1300 -0.1472491416173461 0.006832605927398904 0
1301 -0.1752668519707977 -0.357430066712545 0
1302 -0.1454015432307031 -0.01989448275842234 0
1303 0.04633577762133198 -0.1155757136635642 0
1304 0.3074947244088237 -0.179951977259986 0
1305 0.3065946135868288 -0.2185682838931785 0
1306 -0.1529950923853726 -0.02845974488030825 0
1307 -0.1406448040593839 -0.03220867411279825 0
1308 0.2815087805424336 -0.1646716660069245 0
1309 0.2590140696675682 -0.1428875924226591 0
1310 -0.2112499641040692 -0.1751345555888609 0
1311 -0.1947022057348368 -0.195360809654365 0
1312 0.05005040015261505 0.1147629921725897 0
1313 -0.1658455737896297 -0.03133115051154506 0
1314 -0.2355098317390844 0.1893713613511341 0
1315 -0.12445794157028 -0.2777901381845211 0
1316 -0.1378120132213485 -0.3073771227440847 0
1317 0.1348866921656699 -0.04399558617052856 0
1318 0.1282649006045642 -0.03459891708772461 0
1319 0.1288782488963622 -0.05361012859197778 0
1320 0.1397550814009242 -0.05247188276117683 0
1321 0.108717910550668 -0.05685170799909808 0
1322 0.1187856279825986 -0.05521303831812178 0
1323 -0.2042167070162209 -0.2222944623205374 0
1324 0.121715600565381 -0.02691259365978185 0
1325 0.1236518094279409 -0.01727398125609133 0
1326 0.1996543190162076 0.153513783051437 0
1327 0.2783987950924746 0.230421074919493 0
1328 0.06931524741966107 0.2738953018677879 0
1329 0.04173656874724518 0.2751794595245998 0
1330 -0.1610888346183105 -0.04364534186592096 0
1331 0.1250380744062177 -0.00622924821141338 0
1332 0.1076867292350817 -0.07523000114445963 0
1333 0.1037046753664277 -0.06552829521135833 0
1334 -0.04515671797559591 0.138489093075791 0
1335 0.1733366186848445 0.2184182869651017 0
1336 0.03741217894494728 0.1418667929993994 0
1337 0.03095055000253055 -0.2709547365545666 0
1338 0.0558274730312846 -0.2652984524462677 0
1339 0.2665954628468532 -0.1143193832085233 0
1340 -0.04874039655970935 -0.1138950585946497 0
1341 0.1524288908878064 0.02568913407899962 0
1342 0.1663021072771821 0.03229878936593435 0
1343 -0.06424040112358961 0.2788664226067028 0
1344 -0.07488398033246078 0.3068264963159577 0
1345 -0.03747679683465051 0.2770943459797277 0
1346 0.1253381711995954 -0.2509920676423192 0
1347 0.1509015217590924 -0.2463164666034811 0
1348 -0.1414543556883051 -0.256068721586763 0
1349 -0.254782905093091 0.1005630666465472 0
1350 0.2069949513702227 0.1332927079736275 0
1351 0.3208085001606881 0.09316789329566144 0
1352 0.1600939664548264 0.04799468828517905 0
1353 0.3441143248693577 0.1169102798287736 0
1354 0.05474484576758158 -0.1213583589215038 0
1355 -0.1038554417678355 -0.09823007003728679 0
1356 0.1561554780201641 0.06080840301409604 0
1357 -0.0232652250978968 0.301468264032115 0
1358 -0.05703116837942417 0.1104190039697024 0
1359 0.01743565001836418 -0.142968294237389 0
1360 0.02462800899186837 -0.1565571534955345 0
1361 -0.04419008815296636 0.3246918871718562 0
1362 -0.1429742053907543 -0.363042279666877 0
1363 -0.2502596533600563 0.211268698753607 0
1364 -0.2406452941830272 0.2342730843094303 0
1365 0.2811837060711773 0.2030029022509609 0
1366 -0.1590791785334204 -0.3279988297679788 0
1367 -0.2415612041712076 0.1221585543059796 0
1368 -0.268185250440601 0.2320670753425439 0
1369 0.05526287127333285 0.3939577707961023 0
1370 0.1236540172178529 -0.06368933490877005 0
1371 0.1198903362525714 -0.07434774431426677 0
1372 0.01227914052974485 -0.1651938242364729 0
$EndNodes
$Elements
726
1 15 2 1 1 1
2 15 2 2 2 2
3 15 2 3 3 3
4 15 2 4 4 4
5 8 2 1 1 1 7 15
6 8 2 1 1 7 8 16
7 8 2 1 1 8 9 17
8 8 2 1 1 9 10 18
9 8 2 1 1 10 11 19
10 8 2 1 1 11 12 20
11 8 2 1 1 12 13 21
12 8 2 1 1 13 14 22
13 8 2 1 1 14 2 23
14 8 2 2 2 2 24 32
15 8 2 2 2 24 25 33
16 8 2 2 2 25 26 34
17 8 2 2 2 26 27 35
18 8 2 2 2 27 28 36
19 8 2 2 2 28 29 37
20 8 2 2 2 29 30 38
21 8 2 2 2 30 31 39
22 8 2 2 2 31 3 40
23 8 2 3 3 3 41 49
24 8 2 3 3 41 42 50
25 8 2 3 3 42 43 51
26 8 2 3 3 43 44 52
27 8 2 3 3 44 45 53
28 8 2 3 3 45 46 54
29 8 2 3 3 46 47 55
30 8 2 3 3 47 48 56
31 8 2 3 3 48 4 57
32 8 2 4 4 4 58 66
33 8 2 4 4 58 59 67
34 8 2 4 4 59 60 68
35 8 2 4 4 60 61 69
36 8 2 4 4 61 62 70
37 8 2 4 4 62 63 71
38 8 2 4 4 63 64 72
39 8 2 4 4 64 65 73
40 8 2 4 4 65 1 74
41 8 2 5 6 5 75 92
42 8 2 5 6 75 76 93
43 8 2 5 6 76 77 94
44 8 2 5 6 77 78 95
45 8 2 5 6 78 79 96
46 8 2 5 6 79 80 97
47 8 2 5 6 80 81 98
48 8 2 5 6 81 82 99
49 8 2 5 6 82 83 100
50 8 2 5 6 83 84 101
51 8 2 5 6 84 85 102
52 8 2 5 6 85 86 103
53 8 2 5 6 86 87 104
54 8 2 5 6 87 88 105
55 8 2 5 6 88 89 106
56 8 2 5 6 89 90 107
57 8 2 5 6 90 91 108
58 8 2 5 6 91 6 109
59 8 2 5 7 6 110 127
60 8 2 5 7 110 111 128
61 8 2 5 7 111 112 129
62 8 2 5 7 112 113 130
63 8 2 5 7 113 114 131
64 8 2 5 7 114 115 132
65 8 2 5 7 115 116 133
66 8 2 5 7 116 117 134
67 8 2 5 7 117 118 135
68 8 2 5 7 118 119 136
69 8 2 5 7 119 120 137
70 8 2 5 7 120 121 138
71 8 2 5 7 121 122 139
72 8 2 5 7 122 123 140
73 8 2 5 7 123 124 141
74 8 2 5 7 124 125 142
75 8 2 5 7 125 126 143
76 8 2 5 7 126 5 144
77 9 2 1 1 168 317 321 434 435 436
78 9 2 1 1 259 376 365 437 438 439
79 9 2 1 1 171 271 346 440 441 442
80 9 2 1 1 314 328 379 443 444 445
81 9 2 1 1 258 259 386 446 447 448
82 9 2 1 1 234 368 264 449 450 451
83 9 2 1 1 252 295 326 452 453 454
84 9 2 1 1 270 395 409 455 456 457
85 9 2 1 1 219 253 254 458 459 460
86 9 2 1 1 252 421 253 461 462 463
87 9 2 1 1 219 254 363 460 464 465
88 9 2 1 1 317 318 321 466 467 435
89 9 2 1 1 318 374 321 468 469 467
90 9 2 1 1 255 273 425 470 471 472
91 9 2 1 1 274 306 332 473 474 475
92 9 2 1 1 297 339 298 476 477 478
93 9 2 1 1 247 319 277 479 480 481
94 9 2 1 1 234 249 368 482 483 449
95 9 2 1 1 169 328 314 484 443 485
96 9 2 1 1 241 244 258 486 487 488
97 9 2 1 1 285 389 425 489 490 491
98 9 2 1 1 59 323 407 492 493 494
99 9 2 1 1 8 324 408 495 496 497
100 9 2 1 1 259 312 383 498 499 500
101 9 2 1 1 238 241 261 501 502 503
102 9 2 1 1 186 265 400 504 505 506
103 9 2 1 1 219 221 253 507 508 458
104 9 2 1 1 335 359 251 509 510 511
105 9 2 1 1 27 335 399 512 513 514
106 9 2 1 1 238 261 358 503 515 516
107 9 2 1 1 190 192 250 517 518 519
108 9 2 1 1 263 379 401 520 521 522
109 9 2 1 1 59 164 323 523 524 492
110 9 2 1 1 8 162 324 525 526 495
111 9 2 1 1 269 310 299 527 528 529
112 9 2 1 1 335 414 359 530 531 509
113 9 2 1 1 204 255 202 532 533 534
114 9 2 1 1 256 322 269 535 536 537
115 9 2 1 1 230 433 256 538 539 540
116 9 2 1 1 225 230 257 541 542 543
117 9 2 1 1 229 381 416 544 545 546
118 9 2 1 1 186 190 265 547 548 504
119 9 2 1 1 269 322 310 536 549 527
120 9 2 1 1 206 274 273 550 551 552
121 9 2 1 1 197 356 369 553 554 555
122 9 2 1 1 165 313 349 556 557 558
123 9 2 1 1 255 389 272 559 560 561
124 9 2 1 1 221 252 253 562 463 508
125 9 2 1 1 192 427 250 563 564 518
126 9 2 1 1 318 403 374 565 566 468
127 9 2 1 1 253 344 254 567 568 459
128 9 2 1 1 252 347 295 569 570 452
129 9 2 1 1 177 298 339 571 477 572
130 9 2 1 1 202 262 199 573 574 575
131 9 2 1 1 168 321 320 436 576 577
132 9 2 1 1 256 269 257 537 578 579
133 9 2 1 1 244 259 258 580 446 487
134 9 2 1 1 214 219 363 581 465 582
135 9 2 1 1 13 171 346 583 442 584
136 9 2 1 1 274 415 273 585 586 551
137 9 2 1 1 302 375 345 587 588 589
138 9 2 1 1 232 234 264 590 451 591
139 9 2 1 1 247 277 399 481 592 593
140 9 2 1 1 27 399 277 514 592 594
141 9 2 1 1 204 273 255 595 470 532
142 9 2 1 1 29 313 165 596 556 597
143 9 2 1 1 63 315 166 598 599 600
144 9 2 1 1 46 317 168 601 434 602
145 9 2 1 1 1 408 65 603 604 74
146 9 2 1 1 4 407 48 605 606 57
147 9 2 1 1 255 425 389 472 490 559
148 9 2 1 1 241 258 261 488 607 502
149 9 2 1 1 221 223 252 608 609 562
150 9 2 1 1 192 270 427 610 611 563
151 9 2 1 1 192 194 270 612 613 610
152 9 2 1 1 315 316 397 614 615 616
153 9 2 1 1 234 236 249 617 618 482
154 9 2 1 1 258 280 261 619 620 607
155 9 2 1 1 336 315 397 621 616 622
156 9 2 1 1 204 206 273 623 552 595
157 9 2 1 1 259 394 376 624 625 437
158 9 2 1 1 255 272 262 561 626 627
159 9 2 1 1 194 395 270 628 455 613
160 9 2 1 1 249 357 419 629 630 631
161 9 2 1 1 210 213 208 632 633 634
162 9 2 1 1 225 257 391 543 635 636
163 9 2 1 1 166 315 336 599 621 637
164 9 2 1 1 190 250 265 519 638 548
165 9 2 1 1 58 59 407 67 494 639
166 9 2 1 1 7 8 408 16 497 640
167 9 2 1 1 302 345 428 589 641 642
168 9 2 1 1 164 282 360 643 644 645
169 9 2 1 1 206 413 274 646 647 550
170 9 2 1 1 259 365 312 439 648 498
171 9 2 1 1 230 232 433 649 650 538
172 9 2 1 1 171 352 271 651 652 440
173 9 2 1 1 1 7 408 15 640 603
174 9 2 1 1 4 58 407 66 639 605
175 9 2 1 1 258 423 280 653 654 619
176 9 2 1 1 161 401 379 655 521 656
177 9 2 1 1 215 401 356 657 658 659
178 9 2 1 1 247 398 319 660 661 479
179 9 2 1 1 274 331 306 662 663 473
180 9 2 1 1 10 278 279 664 665 666
181 9 2 1 1 163 277 319 667 480 668
182 9 2 1 1 203 204 202 669 534 670
183 9 2 1 1 217 340 355 671 672 673
184 9 2 1 1 172 318 317 674 466 675
185 9 2 1 1 313 377 349 676 677 557
186 9 2 1 1 230 256 257 540 579 542
187 9 2 1 1 170 316 315 678 614 679
188 9 2 1 1 45 168 276 680 681 682
189 9 2 1 1 282 406 366 683 684 685
190 9 2 1 1 230 231 232 686 687 649
191 9 2 1 1 43 275 161 688 689 690
192 9 2 1 1 169 314 313 485 691 692
193 9 2 1 1 199 262 395 574 693 694
194 9 2 1 1 9 279 422 695 696 697
195 9 2 1 1 11 167 278 698 699 700
196 9 2 1 1 259 383 386 500 701 447
197 9 2 1 1 26 277 163 702 667 703
198 9 2 1 1 250 428 265 704 705 638
199 9 2 1 1 199 201 202 706 707 575
200 9 2 1 1 9 10 279 18 666 695
201 9 2 1 1 163 371 329 708 709 710
202 9 2 1 1 333 264 367 711 712 713
203 9 2 1 1 331 213 362 714 715 716
204 9 2 1 1 202 255 262 533 627 573
205 9 2 1 1 184 393 376 717 718 719
206 9 2 1 1 263 378 379 720 721 520
207 9 2 1 1 219 220 221 722 723 507
208 9 2 1 1 28 29 165 37 597 724
209 9 2 1 1 62 63 166 71 600 725
210 9 2 1 1 11 12 167 20 726 698
211 9 2 1 1 45 46 168 54 602 680
212 9 2 1 1 252 326 421 454 727 461
213 9 2 1 1 225 228 230 728 729 541
214 9 2 1 1 42 43 161 51 690 730
215 9 2 1 1 8 9 162 17 731 525
216 9 2 1 1 25 26 163 34 703 732
217 9 2 1 1 59 60 164 68 733 523
218 9 2 1 1 238 240 241 734 735 501
219 9 2 1 1 297 298 345 478 736 737
220 9 2 1 1 190 191 192 738 739 517
221 9 2 1 1 350 409 395 740 456 741
222 9 2 1 1 214 218 219 742 743 581
223 9 2 1 1 263 382 378 744 745 720
224 9 2 1 1 229 416 390 546 746 747
225 9 2 1 1 276 369 356 748 554 749
226 9 2 1 1 30 169 313 750 692 751
227 9 2 1 1 64 170 315 752 679 753
228 9 2 1 1 47 172 317 754 675 755
229 9 2 1 1 282 366 402 685 756 757
230 9 2 1 1 208 213 413 633 758 759
231 9 2 1 1 184 376 268 719 760 761
232 9 2 1 1 241 242 244 762 763 486
233 9 2 1 1 161 379 328 656 444 764
234 9 2 1 1 329 371 352 709 765 766
235 9 2 1 1 186 189 190 767 768 547
236 9 2 1 1 164 404 282 769 770 643
237 9 2 1 1 361 416 381 771 545 772
238 9 2 1 1 42 161 328 730 764 773
239 9 2 1 1 25 163 329 732 710 774
240 9 2 1 1 232 233 234 775 776 590
241 9 2 1 1 44 45 276 53 682 777
242 9 2 1 1 43 44 275 52 778 688
243 9 2 1 1 10 11 278 19 700 664
244 9 2 1 1 29 30 313 38 751 596
245 9 2 1 1 63 64 315 72 753 598
246 9 2 1 1 46 47 317 55 755 601
247 9 2 1 1 26 27 277 35 594 702
248 9 2 1 1 210 214 213 779 780 632
249 9 2 1 1 202 201 203 707 781 670
250 9 2 1 1 313 314 377 691 782 676
251 9 2 1 1 332 415 274 783 585 475
252 9 2 1 1 9 422 162 697 784 731
253 9 2 1 1 168 369 276 785 748 681
254 9 2 1 1 282 402 360 757 786 644
255 9 2 1 1 300 325 308 787 788 789
256 9 2 1 1 298 400 345 790 791 736
257 9 2 1 1 172 323 318 792 793 674
258 9 2 1 1 170 324 316 794 795 678
259 9 2 1 1 264 368 367 450 796 712
260 9 2 1 1 192 193 194 797 798 612
261 9 2 1 1 28 165 335 724 799 800
262 9 2 1 1 331 413 213 801 758 714
263 9 2 1 1 62 166 337 725 802 803
264 9 2 1 1 204 205 206 804 805 623
265 9 2 1 1 221 222 223 806 807 608
266 9 2 1 1 249 358 357 808 809 629
267 9 2 1 1 278 430 279 810 811 665
268 9 2 1 1 167 364 278 812 813 699
269 9 2 1 1 61 426 404 814 815 816
270 9 2 1 1 44 276 420 777 817 818
271 9 2 1 1 206 208 413 819 759 646
272 9 2 1 1 30 31 169 39 820 750
273 9 2 1 1 64 65 170 73 821 752
274 9 2 1 1 13 14 171 22 822 583
275 9 2 1 1 47 48 172 56 823 754
276 9 2 1 1 309 325 427 824 825 826
277 9 2 1 1 228 231 230 827 686 729
278 9 2 1 1 61 337 426 828 829 814
279 9 2 1 1 44 420 275 818 830 778
280 9 2 1 1 156 344 301 831 832 833
281 9 2 1 1 168 320 369 577 834 785
282 9 2 1 1 61 62 337 70 803 828
283 9 2 1 1 336 226 355 835 836 837
284 9 2 1 1 161 275 401 689 838 655
285 9 2 1 1 27 28 335 36 800 512
286 9 2 1 1 234 235 236 839 840 617
287 9 2 1 1 337 340 216 841 842 843
288 9 2 1 1 12 346 167 844 845 726
289 9 2 1 1 308 325 309 788 824 846
290 9 2 1 1 87 288 147 847 848 849
291 9 2 1 1 218 220 219 850 722 743
292 9 2 1 1 122 287 148 851 852 853
293 9 2 1 1 273 327 425 854 855 471
294 9 2 1 1 252 391 347 856 857 569
295 9 2 1 1 166 340 337 858 841 802
296 9 2 1 1 78 301 146 859 860 861
297 9 2 1 1 60 61 404 69 816 862
298 9 2 1 1 273 415 327 586 863 854
299 9 2 1 1 335 251 399 511 864 513
300 9 2 1 1 184 268 196 761 865 866
301 9 2 1 1 86 288 87 867 847 104
302 9 2 1 1 41 42 328 50 773 868
303 9 2 1 1 24 25 329 33 774 869
304 9 2 1 1 240 242 241 870 762 735
305 9 2 1 1 121 287 122 871 851 139
306 9 2 1 1 12 13 346 21 584 844
307 9 2 1 1 77 301 78 872 859 95
308 9 2 1 1 194 198 199 873 874 875
309 9 2 1 1 215 356 385 659 876 877
310 9 2 1 1 340 432 355 878 879 672
311 9 2 1 1 175 177 339 880 572 881
312 9 2 1 1 189 191 190 882 738 768
313 9 2 1 1 116 300 117 883 884 134
314 9 2 1 1 81 299 82 885 886 99
315 9 2 1 1 223 391 252 887 856 609
316 9 2 1 1 165 414 335 888 530 799
317 9 2 1 1 275 356 401 889 658 838
318 9 2 1 1 231 233 232 890 775 687
319 9 2 1 1 6 311 110 891 892 127
320 9 2 1 1 253 343 344 893 894 567
321 9 2 1 1 220 222 221 895 806 723
322 9 2 1 1 156 330 344 896 897 831
323 9 2 1 1 180 183 298 898 899 900
324 9 2 1 1 330 254 344 901 568 897
325 9 2 1 1 337 216 426 843 902 829
326 9 2 1 1 316 324 361 795 903 904
327 9 2 1 1 236 238 358 905 516 906
328 9 2 1 1 268 394 373 907 908 909
329 9 2 1 1 266 282 404 910 770 911
330 9 2 1 1 226 397 380 912 913 914
331 9 2 1 1 203 205 204 915 804 669
332 9 2 1 1 206 207 208 916 917 819
333 9 2 1 1 257 269 347 578 918 919
334 9 2 1 1 223 224 225 920 921 922
335 9 2 1 1 318 323 360 793 923 924
336 9 2 1 1 208 209 210 925 926 634
337 9 2 1 1 236 358 249 906 808 618
338 9 2 1 1 213 214 363 780 582 927
339 9 2 1 1 285 425 327 491 855 928
340 9 2 1 1 167 346 348 845 929 930
341 9 2 1 1 177 180 298 931 900 571
342 9 2 1 1 212 406 282 932 683 933
343 9 2 1 1 191 193 192 934 797 739
344 9 2 1 1 162 361 324 935 903 526
345 9 2 1 1 65 408 170 604 936 821
346 9 2 1 1 48 407 172 606 937 823
347 9 2 1 1 260 388 429 938 939 940
348 9 2 1 1 271 348 346 941 929 441
349 9 2 1 1 279 353 354 942 943 944
350 9 2 1 1 244 246 394 945 946 947
351 9 2 1 1 117 300 308 884 789 948
352 9 2 1 1 164 360 323 645 923 524
353 9 2 1 1 82 299 310 886 528 949
354 9 2 1 1 293 350 412 950 951 952
355 9 2 1 1 60 404 164 862 769 733
356 9 2 1 1 110 311 173 892 953 954
357 9 2 1 1 166 432 340 955 878 858
358 9 2 1 1 246 373 394 956 908 946
359 9 2 1 1 336 397 226 622 912 835
360 9 2 1 1 288 290 289 957 958 959
361 9 2 1 1 199 200 201 960 961 706
362 9 2 1 1 334 427 270 962 611 963
363 9 2 1 1 380 397 381 913 964 965
364 9 2 1 1 194 199 395 875 694 628
365 9 2 1 1 233 235 234 966 839 776
366 9 2 1 1 223 225 391 922 636 887
367 9 2 1 1 232 264 433 591 967 650
368 9 2 1 1 155 175 338 968 969 970
369 9 2 1 1 171 329 352 971 766 651
370 9 2 1 1 217 396 340 972 973 671
371 9 2 1 1 212 282 266 933 910 974
372 9 2 1 1 180 182 183 975 976 898
373 9 2 1 1 216 266 426 977 978 902
374 9 2 1 1 334 309 427 979 826 962
375 9 2 1 1 3 410 31 980 981 40
376 9 2 1 1 2 411 14 982 983 23
377 9 2 1 1 3 41 410 49 984 980
378 9 2 1 1 2 24 411 32 985 982
379 9 2 1 1 187 378 382 986 745 987
380 9 2 1 1 183 400 298 988 790 899
381 9 2 1 1 242 246 244 989 945 763
382 9 2 1 1 262 272 350 626 990 991
383 9 2 1 1 243 348 271 992 941 993
384 9 2 1 1 146 301 343 860 994 995
385 9 2 1 1 279 430 353 811 996 942
386 9 2 1 1 183 185 186 997 998 999
387 9 2 1 1 265 428 345 705 641 1000
388 9 2 1 1 289 419 357 1001 630 1002
389 9 2 1 1 297 345 375 737 588 1003
390 9 2 1 1 193 198 194 1004 873 798
391 9 2 1 1 289 357 384 1002 1005 1006
392 9 2 1 1 222 224 223 1007 920 807
393 9 2 1 1 268 376 394 760 625 907
394 9 2 1 1 225 227 228 1008 1009 728
395 9 2 1 1 243 387 348 1010 1011 992
396 9 2 1 1 160 333 291 1012 1013 1014
397 9 2 1 1 238 239 240 1015 1016 734
398 9 2 1 1 256 424 322 1017 1018 535
399 9 2 1 1 236 237 238 1019 1020 905
400 9 2 1 1 157 307 341 1021 1022 1023
401 9 2 1 1 311 312 351 1024 1025 1026
402 9 2 1 1 316 361 381 904 772 1027
403 9 2 1 1 159 334 292 1028 1029 1030
404 9 2 1 1 163 319 371 668 1031 708
405 9 2 1 1 334 270 409 963 457 1032
406 9 2 1 1 187 392 431 1033 1034 1035
407 9 2 1 1 122 148 123 853 1036 140
408 9 2 1 1 87 147 88 849 1037 105
409 9 2 1 1 78 146 79 861 1038 96
410 9 2 1 1 113 145 114 1039 1040 131
411 9 2 1 1 147 288 289 848 959 1041
412 9 2 1 1 214 217 218 1042 1043 742
413 9 2 1 1 283 341 342 1044 1045 1046
414 9 2 1 1 272 412 350 1047 951 990
415 9 2 1 1 260 429 387 940 1048 1049
416 9 2 1 1 235 237 236 1050 1019 840
417 9 2 1 1 198 200 199 1051 960 874
418 9 2 1 1 186 188 189 1052 1053 767
419 9 2 1 1 261 280 357 620 1054 1055
420 9 2 1 1 287 412 389 1056 1057 1058
421 9 2 1 1 246 251 373 1059 1060 956
422 9 2 1 1 205 207 206 1061 916 805
423 9 2 1 1 124 151 125 1062 1063 142
424 9 2 1 1 89 152 90 1064 1065 107
425 9 2 1 1 80 153 81 1066 1067 98
426 9 2 1 1 115 154 116 1068 1069 133
427 9 2 1 1 120 150 121 1070 1071 138
428 9 2 1 1 85 149 86 1072 1073 103
429 9 2 1 1 111 155 112 1074 1075 129
430 9 2 1 1 76 156 77 1076 1077 94
431 9 2 1 1 245 430 364 1078 1079 1080
432 9 2 1 1 123 148 284 1036 1081 1082
433 9 2 1 1 79 146 294 1038 1083 1084
434 9 2 1 1 118 159 119 1085 1086 136
435 9 2 1 1 83 160 84 1087 1088 101
436 9 2 1 1 5 126 157 144 1089 1090
437 9 2 1 1 6 91 158 109 1091 1092
438 9 2 1 1 88 147 286 1037 1093 1094
439 9 2 1 1 245 364 388 1080 1095 1096
440 9 2 1 1 295 347 372 570 1097 1098
441 9 2 1 1 250 427 325 564 825 1099
442 9 2 1 1 123 284 124 1082 1100 141
443 9 2 1 1 79 294 80 1084 1101 97
444 9 2 1 1 113 338 145 1102 1103 1039
445 9 2 1 1 114 145 296 1040 1104 1105
446 9 2 1 1 188 263 215 1106 1107 1108
447 9 2 1 1 88 286 89 1094 1109 106
448 9 2 1 1 266 404 426 911 815 978
449 9 2 1 1 154 296 375 1110 1111 1112
450 9 2 1 1 112 338 113 1113 1102 130
451 9 2 1 1 114 296 115 1105 1114 132
452 9 2 1 1 179 184 181 1115 1116 1117
453 9 2 1 1 173 311 351 953 1026 1118
454 9 2 1 1 246 247 251 1119 1120 1059
455 9 2 1 1 125 305 126 1121 1122 143
456 9 2 1 1 119 292 120 1123 1124 137
457 9 2 1 1 84 291 85 1125 1126 102
458 9 2 1 1 90 303 91 1127 1128 108
459 9 2 1 1 169 410 328 1129 1130 484
460 9 2 1 1 171 411 329 1131 1132 971
461 9 2 1 1 124 284 151 1100 1133 1062
462 9 2 1 1 80 294 153 1101 1134 1066
463 9 2 1 1 197 385 356 1135 876 553
464 9 2 1 1 185 188 186 1136 1052 998
465 9 2 1 1 89 286 152 1109 1137 1064
466 9 2 1 1 112 155 338 1075 970 1113
467 9 2 1 1 115 296 154 1114 1110 1068
468 9 2 1 1 224 227 225 1138 1008 921
469 9 2 1 1 364 429 388 1139 939 1095
470 9 2 1 1 203 201 211 781 1140 1141
471 9 2 1 1 75 283 76 1142 1143 93
472 9 2 1 1 314 379 378 445 721 1144
473 9 2 1 1 182 185 183 1145 997 976
474 9 2 1 1 5 341 75 1146 1147 92
475 9 2 1 1 110 173 111 954 1148 128
476 9 2 1 1 207 209 208 1149 925 917
477 9 2 1 1 117 308 118 948 1150 135
478 9 2 1 1 82 310 83 949 1151 100
479 9 2 1 1 125 151 305 1063 1152 1121
480 9 2 1 1 41 328 410 868 1130 984
481 9 2 1 1 24 329 411 869 1132 985
482 9 2 1 1 120 292 150 1124 1153 1070
483 9 2 1 1 218 226 220 1154 1155 850
484 9 2 1 1 85 291 149 1126 1156 1072
485 9 2 1 1 90 152 303 1065 1157 1127
486 9 2 1 1 175 339 338 881 1158 969
487 9 2 1 1 210 217 214 1159 1042 779
488 9 2 1 1 348 387 429 1011 1048 1160
489 9 2 1 1 184 196 195 866 1161 1162
490 9 2 1 1 126 305 157 1122 1163 1089
491 9 2 1 1 76 283 156 1143 1164 1076
492 9 2 1 1 119 159 292 1086 1030 1123
493 9 2 1 1 84 160 291 1088 1014 1125
494 9 2 1 1 91 303 158 1128 1165 1091
495 9 2 1 1 237 239 238 1166 1015 1020
496 9 2 1 1 195 267 281 1167 1168 1169
497 9 2 1 1 111 173 155 1148 1170 1074
498 9 2 1 1 162 416 361 1171 771 935
499 9 2 1 1 248 271 352 1172 652 1173
500 9 2 1 1 5 157 341 1090 1023 1146
501 9 2 1 1 307 342 341 1174 1045 1022
502 9 2 1 1 227 354 353 1175 943 1176
503 9 2 1 1 86 149 288 1073 1177 867
504 9 2 1 1 222 229 224 1178 1179 1007
505 9 2 1 1 174 178 176 1180 1181 1182
506 9 2 1 1 148 287 389 852 1058 1183
507 9 2 1 1 155 174 175 1184 1185 968
508 9 2 1 1 121 150 287 1071 1186 871
509 9 2 1 1 182 187 185 1187 1188 1145
510 9 2 1 1 118 308 159 1150 1189 1085
511 9 2 1 1 77 156 301 1077 833 872
512 9 2 1 1 83 310 160 1151 1190 1087
513 9 2 1 1 228 245 231 1191 1192 827
514 9 2 1 1 281 431 392 1193 1034 1194
515 9 2 1 1 155 173 174 1170 1195 1184
516 9 2 1 1 188 215 189 1108 1196 1053
517 9 2 1 1 243 271 248 993 1172 1197
518 9 2 1 1 242 247 246 1198 1119 989
519 9 2 1 1 148 285 284 1199 1200 1081
520 9 2 1 1 200 320 321 1201 576 1202
521 9 2 1 1 237 243 239 1203 1204 1166
522 9 2 1 1 146 326 294 1205 1206 1083
523 9 2 1 1 116 154 300 1069 1207 883
524 9 2 1 1 81 153 299 1067 1208 885
525 9 2 1 1 31 410 169 981 1129 820
526 9 2 1 1 14 411 171 983 1131 822
527 9 2 1 1 198 320 200 1209 1201 1051
528 9 2 1 1 233 260 235 1210 1211 966
529 9 2 1 1 179 393 184 1212 717 1115
530 9 2 1 1 217 355 218 673 1213 1043
531 9 2 1 1 75 341 283 1147 1044 1142
532 9 2 1 1 183 186 400 999 506 988
533 9 2 1 1 200 374 201 1214 1215 961
534 9 2 1 1 209 212 216 1216 1217 1218
535 9 2 1 1 6 158 311 1092 1219 891
536 9 2 1 1 151 284 327 1133 1220 1221
537 9 2 1 1 207 212 209 1222 1216 1149
538 9 2 1 1 301 344 343 832 894 994
539 9 2 1 1 269 372 347 1223 1097 918
540 9 2 1 1 153 294 295 1134 1224 1225
541 9 2 1 1 187 431 378 1035 1226 986
542 9 2 1 1 227 353 228 1176 1227 1009
543 9 2 1 1 212 266 216 974 977 1217
544 9 2 1 1 239 243 248 1204 1197 1228
545 9 2 1 1 180 181 182 1229 1230 975
546 9 2 1 1 191 197 193 1231 1232 934
547 9 2 1 1 244 394 259 947 624 580
548 9 2 1 1 196 359 267 1233 1234 1235
549 9 2 1 1 177 179 180 1236 1237 931
550 9 2 1 1 216 340 396 842 973 1238
551 9 2 1 1 147 384 286 1239 1240 1093
552 9 2 1 1 239 370 240 1241 1242 1016
553 9 2 1 1 157 305 306 1163 1243 1244
554 9 2 1 1 210 396 217 1245 972 1159
555 9 2 1 1 160 322 333 1246 1247 1012
556 9 2 1 1 145 297 296 1248 1249 1104
557 9 2 1 1 160 310 322 1190 549 1246
558 9 2 1 1 157 306 307 1244 1250 1021
559 9 2 1 1 175 176 177 1251 1252 880
560 9 2 1 1 330 405 254 1253 1254 901
561 9 2 1 1 248 352 371 1173 765 1255
562 9 2 1 1 312 365 351 648 1256 1025
563 9 2 1 1 145 338 339 1103 1158 1257
564 9 2 1 1 181 184 195 1116 1162 1258
565 9 2 1 1 196 268 373 865 909 1259
566 9 2 1 1 333 367 291 713 1260 1013
567 9 2 1 1 146 343 326 995 1261 1205
568 9 2 1 1 151 332 305 1262 1263 1152
569 9 2 1 1 159 308 309 1189 846 1264
570 9 2 1 1 152 304 303 1265 1266 1157
571 9 2 1 1 159 309 334 1264 979 1028
572 9 2 1 1 267 349 281 1267 1268 1168
573 9 2 1 1 195 196 267 1161 1235 1167
574 9 2 1 1 280 384 357 1269 1005 1054
575 9 2 1 1 156 283 330 1164 1270 896
576 9 2 1 1 251 359 373 510 1271 1060
577 9 2 1 1 188 382 263 1272 744 1106
578 9 2 1 1 330 283 342 1270 1046 1273
579 9 2 1 1 292 334 293 1029 1274 1275
580 9 2 1 1 218 355 226 1213 836 1154
581 9 2 1 1 289 290 419 958 1276 1001
582 9 2 1 1 284 285 327 1200 928 1220
583 9 2 1 1 150 292 293 1153 1275 1277
584 9 2 1 1 294 326 295 1206 453 1224
585 9 2 1 1 178 174 351 1180 1278 1279
586 9 2 1 1 290 368 419 1280 1281 1276
587 9 2 1 1 281 349 377 1268 677 1282
588 9 2 1 1 179 181 180 1117 1229 1237
589 9 2 1 1 173 351 174 1118 1278 1195
590 9 2 1 1 203 366 205 1283 1284 915
591 9 2 1 1 318 360 403 924 1285 565
592 9 2 1 1 166 336 432 637 1286 955
593 9 2 1 1 210 209 396 926 1287 1245
594 9 2 1 1 151 327 332 1221 1288 1262
595 9 2 1 1 174 176 175 1182 1251 1185
596 9 2 1 1 147 289 384 1041 1006 1239
597 9 2 1 1 195 281 392 1169 1194 1289
598 9 2 1 1 269 299 372 529 1290 1223
599 9 2 1 1 176 179 177 1291 1236 1252
600 9 2 1 1 201 374 211 1215 1292 1140
601 9 2 1 1 228 353 245 1227 1293 1191
602 9 2 1 1 239 248 370 1228 1294 1241
603 9 2 1 1 145 339 297 1257 476 1248
604 9 2 1 1 300 302 325 1295 1296 787
605 9 2 1 1 261 357 358 1055 809 515
606 9 2 1 1 149 290 288 1297 957 1177
607 9 2 1 1 148 389 285 1183 489 1199
608 9 2 1 1 167 348 429 930 1160 1298
609 9 2 1 1 331 362 307 716 1299 1300
610 9 2 1 1 305 332 306 1263 474 1243
611 9 2 1 1 200 321 374 1202 469 1214
612 9 2 1 1 162 422 416 784 1301 1171
613 9 2 1 1 307 362 342 1299 1302 1174
614 9 2 1 1 149 291 367 1156 1260 1303
615 9 2 1 1 196 373 359 1259 1271 1233
616 9 2 1 1 319 370 371 1304 1305 1031
617 9 2 1 1 248 371 370 1255 1305 1294
618 9 2 1 1 342 362 405 1302 1306 1307
619 9 2 1 1 240 370 398 1242 1308 1309
620 9 2 1 1 220 380 222 1310 1311 895
621 9 2 1 1 316 381 397 1027 964 615
622 9 2 1 1 154 375 302 1112 587 1312
623 9 2 1 1 170 408 324 936 496 794
624 9 2 1 1 213 363 362 927 1313 715
625 9 2 1 1 203 211 366 1141 1314 1283
626 9 2 1 1 172 407 323 937 493 792
627 9 2 1 1 227 390 354 1315 1316 1175
628 9 2 1 1 304 386 383 1317 701 1318
629 9 2 1 1 306 331 307 663 1300 1250
630 9 2 1 1 304 423 386 1319 1320 1317
631 9 2 1 1 152 418 304 1321 1322 1265
632 9 2 1 1 331 274 413 662 647 801
633 9 2 1 1 229 380 381 1323 965 544
634 9 2 1 1 158 303 383 1165 1324 1325
635 9 2 1 1 154 302 300 1312 1295 1207
636 9 2 1 1 182 392 187 1326 1033 1187
637 9 2 1 1 314 378 377 1144 1327 782
638 9 2 1 1 189 215 385 1196 877 1328
639 9 2 1 1 220 226 380 1155 914 1310
640 9 2 1 1 189 385 191 1328 1329 882
641 9 2 1 1 362 363 405 1313 1330 1306
642 9 2 1 1 209 216 396 1218 1238 1287
643 9 2 1 1 158 312 311 1331 1024 1219
644 9 2 1 1 286 384 418 1240 1332 1333
645 9 2 1 1 215 263 401 1107 522 657
646 9 2 1 1 278 364 430 813 1079 810
647 9 2 1 1 247 399 251 593 864 1120
648 9 2 1 1 293 409 350 1334 740 950
649 9 2 1 1 185 382 188 1335 1272 1136
650 9 2 1 1 222 380 229 1311 1323 1178
651 9 2 1 1 303 304 383 1266 1318 1324
652 9 2 1 1 296 297 375 1249 1003 1111
653 9 2 1 1 250 325 428 1099 1336 704
654 9 2 1 1 185 187 382 1188 987 1335
655 9 2 1 1 257 347 391 919 857 635
656 9 2 1 1 231 388 233 1337 1338 890
657 9 2 1 1 152 286 418 1137 1333 1321
658 9 2 1 1 240 398 242 1309 1339 870
659 9 2 1 1 231 245 388 1192 1096 1337
660 9 2 1 1 272 389 412 560 1057 1047
661 9 2 1 1 265 345 400 1000 791 505
662 9 2 1 1 153 372 299 1340 1290 1208
663 9 2 1 1 178 365 376 1341 438 1342
664 9 2 1 1 336 355 432 837 879 1286
665 9 2 1 1 198 417 320 1343 1344 1209
666 9 2 1 1 249 419 368 631 1281 483
667 9 2 1 1 193 417 198 1345 1343 1004
668 9 2 1 1 262 350 395 991 741 693
669 9 2 1 1 242 398 247 1339 660 1198
670 9 2 1 1 235 387 237 1346 1347 1050
671 9 2 1 1 224 229 390 1179 747 1348
672 9 2 1 1 237 387 243 1347 1010 1203
673 9 2 1 1 207 406 212 1349 932 1222
674 9 2 1 1 191 385 197 1329 1135 1231
675 9 2 1 1 224 390 227 1348 1315 1138
676 9 2 1 1 181 392 182 1350 1326 1230
677 9 2 1 1 267 359 414 1234 531 1351
678 9 2 1 1 178 376 393 1342 718 1352
679 9 2 1 1 267 414 349 1351 1353 1267
680 9 2 1 1 149 367 290 1303 1354 1297
681 9 2 1 1 167 429 364 1298 1139 812
682 9 2 1 1 253 421 343 462 1355 893
683 9 2 1 1 235 260 387 1211 1049 1346
684 9 2 1 1 165 349 414 558 1353 888
685 9 2 1 1 178 393 176 1352 1356 1181
686 9 2 1 1 193 197 417 1232 1357 1345
687 9 2 1 1 150 412 287 1358 1056 1186
688 9 2 1 1 233 388 260 1338 938 1210
689 9 2 1 1 290 367 368 1354 796 1280
690 9 2 1 1 333 424 264 1359 1360 711
691 9 2 1 1 153 295 372 1225 1098 1340
692 9 2 1 1 197 369 417 555 1361 1357
693 9 2 1 1 279 354 422 944 1362 696
694 9 2 1 1 211 402 366 1363 756 1314
695 9 2 1 1 181 195 392 1258 1289 1350
696 9 2 1 1 332 327 415 1288 863 783
697 9 2 1 1 320 417 369 1344 1361 834
698 9 2 1 1 211 374 403 1292 566 1364
699 9 2 1 1 319 398 370 661 1308 1304
700 9 2 1 1 377 378 431 1327 1226 1365
701 9 2 1 1 330 342 405 1273 1307 1253
702 9 2 1 1 354 416 422 1366 1301 1362
703 9 2 1 1 205 406 207 1367 1349 1061
704 9 2 1 1 254 405 363 1254 1330 464
705 9 2 1 1 281 377 431 1282 1365 1193
706 9 2 1 1 150 293 412 1277 952 1358
707 9 2 1 1 334 409 293 1032 1334 1274
708 9 2 1 1 402 403 360 1368 1285 786
709 9 2 1 1 176 393 179 1356 1212 1291
710 9 2 1 1 178 351 365 1279 1256 1341
711 9 2 1 1 158 383 312 1325 499 1331
712 9 2 1 1 258 386 423 448 1320 653
713 9 2 1 1 211 403 402 1364 1368 1363
714 9 2 1 1 205 366 406 1284 684 1367
715 9 2 1 1 276 356 420 749 1369 817
716 9 2 1 1 354 390 416 1316 746 1366
717 9 2 1 1 275 420 356 830 1369 889
718 9 2 1 1 326 343 421 1261 1355 727
719 9 2 1 1 333 322 424 1247 1018 1359
720 9 2 1 1 302 428 325 642 1336 1296
721 9 2 1 1 245 353 430 1293 996 1078
722 9 2 1 1 304 418 423 1322 1370 1319
723 9 2 1 1 280 418 384 1371 1332 1269
724 9 2 1 1 264 424 433 1360 1372 967
725 9 2 1 1 280 423 418 654 1370 1371
726 9 2 1 1 256 433 424 539 1372 1017
$EndElements
