$MeshFormat
2.2 0 8
$EndMeshFormat
$Nodes
530
1 -0.5 -0.5 0
2 0.5 -0.5 0
3 0.5 0.5 0
4 -0.5 0.5 0
5 -0.1 0 0
6 0.1 0 0
7 -0.2500000000006935 -0.5 0
8 -1.376121439022882e-12 -0.5 0
9 0.2499999999993064 -0.5 0
10 -0.3750000000002716 -0.5 0
11 -0.1250000000010348 -0.5 0
12 0.1249999999989652 -0.5 0
13 0.3749999999996533 -0.5 0
14 0.5 -0.2500000000006935 0
15 0.5 -1.376121439022882e-12 0
16 0.5 0.2499999999993064 0
17 0.5 -0.3750000000002716 0
18 0.5 -0.1250000000010348 0
19 0.5 0.1249999999989652 0
20 0.5 0.3749999999996533 0
21 0.2500000000006935 0.5 0
22 1.376121439022882e-12 0.5 0
23 -0.2499999999993064 0.5 0
24 0.3750000000002716 0.5 0
25 0.1250000000010348 0.5 0
26 -0.1249999999989652 0.5 0
27 -0.3749999999996533 0.5 0
28 -0.5 0.2500000000006935 0
29 -0.5 1.376121439022882e-12 0
30 -0.5 -0.2499999999993064 0
31 -0.5 0.3750000000002716 0
32 -0.5 0.1250000000010348 0
33 -0.5 -0.1249999999989652 0
34 -0.5 -0.3749999999996533 0
35 -0.09781476007341731 -0.02079116908160308 0
36 -0.09135454576434032 -0.04067366430739985 0
37 -0.08090169943763906 -0.05877852522904869 0
38 -0.0669130606360934 -0.07431448254755253 0
39 -0.05000000000026559 -0.08660254037829053 0
40 -0.03090169943782771 -0.09510565162940718 0
41 -0.01045284632715052 -0.09945218953678686 0
42 0.01045284632639955 -0.09945218953686578 0
43 0.03090169943721767 -0.09510565162960538 0
44 0.04999999999980395 -0.08660254037855705 0
45 0.06691306063578505 -0.07431448254783017 0
46 0.0809016994374505 -0.05877852522930822 0
47 0.09135454576426157 -0.04067366430757672 0
48 0.09781476007339582 -0.02079116908170421 0
49 -0.09945218953683649 -0.01045284632667831 0
50 -0.0951056516295717 -0.03090169943732135 0
51 -0.08660254037855546 -0.04999999999980674 0
52 -0.0743144825479166 -0.06691306063568905 0
53 -0.05877852522948599 -0.08090169943732134 0
54 -0.0406736643078702 -0.09135454576413091 0
55 -0.02079116908213581 -0.09781476007330409 0
56 -4.008188393819432e-13 -0.1 0
57 0.02079116908145595 -0.09781476007344858 0
58 0.04067366430734808 -0.09135454576436336 0
59 0.05877852522909979 -0.08090169943760193 0
60 0.07431448254767327 -0.0669130606359593 0
61 0.08660254037842738 -0.05000000000002857 0
62 0.09510565162952607 -0.03090169943746177 0
63 0.09945218953683124 -0.01045284632672823 0
64 0.09781476007341731 0.02079116908160308 0
65 0.09135454576434032 0.04067366430739985 0
66 0.08090169943763906 0.05877852522904869 0
67 0.0669130606360934 0.07431448254755253 0
68 0.05000000000026559 0.08660254037829053 0
69 0.03090169943782771 0.09510565162940718 0
70 0.01045284632715052 0.09945218953678686 0
71 -0.01045284632639955 0.09945218953686578 0
72 -0.03090169943721767 0.09510565162960538 0
73 -0.04999999999980395 0.08660254037855705 0
74 -0.06691306063578505 0.07431448254783017 0
75 -0.0809016994374505 0.05877852522930822 0
76 -0.09135454576426157 0.04067366430757672 0
77 -0.09781476007339582 0.02079116908170421 0
78 0.09945218953683649 0.01045284632667831 0
79 0.0951056516295717 0.03090169943732135 0
80 0.08660254037855546 0.04999999999980674 0
81 0.0743144825479166 0.06691306063568905 0
82 0.05877852522948599 0.08090169943732134 0
83 0.0406736643078702 0.09135454576413091 0
84 0.02079116908213581 0.09781476007330409 0
85 4.008188393819432e-13 0.1 0
86 -0.02079116908145595 0.09781476007344858 0
87 -0.04067366430734808 0.09135454576436336 0
88 -0.05877852522909979 0.08090169943760193 0
89 -0.07431448254767327 0.0669130606359593 0
90 -0.08660254037842738 0.05000000000002857 0
91 -0.09510565162952607 0.03090169943746177 0
92 -0.09945218953683124 0.01045284632672823 0
93 -0.0894325824239353 0.07956857157104361 0
94 -0.1133313151087636 0.03689035698591385 0
95 -0.04898046030328415 0.1054261423507349 0
96 -0.1168683074754333 -0.01356794217607893 0
97 -0.101016055274288 -0.0596648227493706 0
98 -0.06894773387926662 -0.09784370638205026 0
99 -0.02780697384561965 -0.1178447318856945 0
100 0.02464852699722133 -0.1167733928375742 0
101 0.0696347462896937 -0.09742544505225485 0
102 0.1025957358066863 -0.05917372436447668 0
103 0.1153742876803853 -0.01404207121840209 0
104 0.1144171277406439 0.03603441109176261 0
105 0.08806733389906155 0.07934628925155272 0
106 0.04643142114693295 0.1077144655505064 0
107 0.001212017861914198 0.1183044789668061 0
108 -0.3425975527976769 -0.1240887834415348 0
109 -0.3232779568628353 0.08197391454976002 0
110 0.3242291067498784 -0.1256519841229091 0
111 0.3195655712629207 0.09598911415339921 0
112 0.124796150879001 -0.3233564698309381 0
113 -0.08668062442599381 -0.3267256752971012 0
114 -0.1263545992979294 0.3199842154271924 0
115 0.0755606587148332 0.3187369966661268 0
116 0.3125452606040114 0.2958438838037488 0
117 0.1950762997287245 0.1718377130314254 0
118 0.0169507989791623 -0.2467017929209095 0
119 0.2553546822440973 -0.01757982319486293 0
120 -0.2593198450408986 -0.03686863478821816 0
121 -0.0257561841861798 0.2487414576407691 0
122 0.1049432832745005 0.2072469522819646 0
123 0.3151733035381216 -0.3152012444663869 0
124 -0.07017725259754209 0.09597750445719661 0
125 -0.09847154784949594 0.1114442422527076 0
126 -0.1294318304415225 0.08601301758879615 0
127 -0.1424321111631199 0.134432492026197 0
128 -0.1482627477699877 0.05068863444309874 0
129 -0.1076031584756597 0.05979985894919147 0
130 0.1030671226796924 0.05929347623275785 0
131 0.1345723876798884 0.06093066296960337 0
132 0.1475738015680074 0.02232374029219635 0
133 0.1931543610701767 0.06130829909505055 0
134 -0.09001321337255948 -0.08105762279101628 0
135 -0.09740534985110821 -0.1153631130590007 0
136 -0.124306715082777 -0.07642819191931398 0
137 -0.1481590593188532 -0.1286934731570519 0
138 -0.09627160127899946 -0.165828765726438 0
139 -0.1666218399406206 -0.2208243843630915 0
140 -0.06109627437415806 -0.1292951725004607 0
141 -0.02631234416427461 -0.1641080474725746 0
142 0.08813679057410949 -0.07955212207420775 0
143 0.09917869659045161 -0.1082057900223257 0
144 0.07196426620315879 -0.1368583526284053 0
145 0.1146250883279072 -0.1493455215982021 0
146 0.1487310082357327 -0.1067464282904175 0
147 0.1632160019227965 -0.05618564235297756 0
148 0.0312956460784623 -0.1581008473263779 0
149 0.1856089088391473 -0.1853008109435044 0
150 -0.3030222684098658 0.2784463623442821 0
151 -0.3164721867738587 -0.2984398374544633 0
152 -0.09734453909124068 0.1824546891048804 0
153 -0.03048440443724221 0.1692225618560729 0
154 -0.1796815684112131 0.2106869339408096 0
155 0.04745679268154361 -0.1141487093345829 0
156 -0.1143614024900546 -0.03879084492494807 0
157 -0.1436779472936196 -0.02780902217050474 0
158 -0.1784906381340075 -0.06730046986540542 0
159 -0.1277245383619005 0.01138614626262781 0
160 0.1128800315664226 -0.03694281335817838 0
161 0.1202989487001033 0.008085278829220574 0
162 0.0001699210544223706 -0.1249171411659894 0
163 0.06765131272241763 0.09815085098397074 0
164 0.09851209520350256 0.1101981743663416 0
165 0.1452541595406351 0.1078629059531166 0
166 0.02532265632182915 0.119735971895125 0
167 -0.0259266759953421 0.1226206896212021 0
168 0.06084555724874213 0.1430864331453194 0
169 -0.2046203831962539 0.1144201962705729 0
170 -0.06443498809178597 -0.2261395602852585 0
171 0.01128748420326189 0.1476945745520873 0
172 0.01664030417462646 -0.3489362378855003 0
173 0.3498284795324876 -0.01527407503952792 0
174 -0.3541694786066322 -0.02056421012425746 0
175 0.1814878462858986 0.2888235822062122 0
176 -0.01990849718372717 0.3478674810032547 0
177 0.1145013699939742 -0.08301006637640529 0
178 0.2105973808954321 -0.08542084248300817 0
179 0.1147849575372186 0.08341044674799396 0
180 -0.04746042263596741 -0.1059406277196906 0
181 -0.2306528653823595 -0.1430080306845546 0
182 -0.06535099910419252 0.1291788449790688 0
183 0.0861074321902441 -0.201599421648462 0
184 0.1310364380014713 -0.06093745204895251 0
185 -0.1966401148212165 0.01496290696040011 0
186 -0.2041543673444867 -0.331494814357034 0
187 0.1402180842134391 -0.02399161893469262 0
188 0.1857362129497263 -0.01407826739613711 0
189 0.1213798544096451 0.1508447651292512 0
190 0.03627108996123925 0.2019525838277046 0
191 -0.1683403122133437 -0.4133628376485506 0
192 -0.1454174958852402 -0.3291102448270676 0
193 -0.2270771836725901 -0.415747407178517 0
194 -0.2538213258030598 0.1964332793074275 0
195 -0.1921509758037335 0.1625535651056912 0
196 -0.2413519184105395 0.2445666481425459 0
197 0.1627803293577633 0.4093684983330634 0
198 0.1285242525003659 0.3037802894361695 0
199 0.215743923143296 0.3944117911031061 0
200 0.1701652296346798 0.139850309492271 0
201 0.1692042603054059 0.08458560252408359 0
202 0.1941153303994506 0.116573006063238 0
203 0.316055415933466 0.195916498978574 0
204 0.2538107801663679 0.2338407984175871 0
205 0.2573209354958226 0.1339134135924123 0
206 -0.2639491700295445 0.09819705541016646 0
207 -0.3131501126363506 0.1802101384470211 0
208 0.2563599661665487 0.07864870662422488 0
209 -0.13144672060981 -0.1933265750447647 0
210 -0.1155284140162033 -0.223481972324175 0
211 -0.08035329468539271 -0.1959841630058482 0
212 0.06239807543881244 -0.4116782349154691 0
213 0.07071822752681373 -0.3361463538582192 0
214 0.008320152086625168 -0.4244681189427502 0
215 -0.1118495691945851 0.2512194522660364 0
216 -0.06155036163871024 0.2155980733728248 0
217 -0.07605539174205461 0.2843628365339808 0
218 0.4062726303020057 0.2729219419015276 0
219 0.4097827856314603 0.1729945570763528 0
220 0.4249142397662438 -0.007637037520452021 0
221 0.337028793141183 -0.07046302958121853 0
222 0.4121145533749392 -0.06282599206214262 0
223 -0.4212987763988384 -0.06204439172007934 0
224 -0.3483835157021545 -0.07232649678289613 0
225 -0.4270847393033161 -0.01028210506144067 0
226 0.2199847272085613 -0.3192788571486626 0
227 0.2503911061886345 -0.2502510277049457 0
228 0.1552025298590742 -0.2543286403872212 0
229 -0.4015111342049329 0.3892231811721411 0
230 -0.2765111342045862 0.3892231811721411 0
231 0.2549190077945129 -0.1554763975332067 0
232 0.319701205144 -0.220426614294648 0
233 -0.06317729964827666 0.4099921077135962 0
234 -0.07313154824082831 0.3339258482152235 0
235 -0.009954248591175526 0.4239337405016274 0
236 -0.1193340587864158 -0.05760951842213102 0
237 -0.1290196748918371 -0.03329993354772641 0
238 -0.1339923311881983 -0.05211860704490937 0
239 -0.19863735266149 -0.181916207523823 0
240 -0.2735625260781091 -0.220723934069509 0
241 -0.2415470133572397 -0.2596321109087774 0
242 -0.4116389784314176 0.1659869572752268 0
243 -0.4015111342049329 0.2642231811724878 0
244 0.2812726303023524 0.3979219419018744 0
245 0.4062726303020057 0.3979219419018744 0
246 0.224254521657137 0.02186423795009381 0
247 0.287460126753509 0.03920464547926814 0
248 0.05704136693467529 0.1029326582672385 0
249 0.06424843498557987 0.1206186420646451 0
250 0.05363848919783754 0.1254004493479129 0
251 -0.04334031221368496 -0.4133628376485506 0
252 0.4097827856314603 0.04799455707601154 0
253 -0.4116389784314176 0.04098695727556807 0
254 0.03778032935810466 0.4093684983330634 0
255 -0.2146884338538976 0.2992152888857372 0
256 -0.188177299648618 0.4099921077135962 0
257 0.0241232225288123 -0.2024013201236436 0
258 0.002491650957093843 -0.1611044473994762 0
259 -0.004680772592556153 -0.205404920196742 0
260 0.1894452870099515 0.02361501584945672 0
261 0.2205454475969118 -0.01582904529550002 0
262 0.1358581705146957 -0.1934501162959832 0
263 0.1054517915346225 -0.2624779457397001 0
264 0.1277961859469122 -0.01901684507654736 0
265 0.1302585164567712 -0.007953170052736026 0
266 0.1178366181902443 -0.00297839619459076 0
267 0.1873980754391537 -0.4116782349154691 0
268 -0.3295348697857678 -0.2112643104479991 0
269 -0.2866252090900182 -0.1335484070630447 0
270 -0.1357012428277601 -0.008211437953938468 0
271 -0.1621823265915585 0.01317452661151396 0
272 -0.170159031057418 -0.006423057605052317 0
273 -0.4212987763988384 -0.1870443917204206 0
274 0.4121145533749392 -0.1878259920618013 0
275 -0.2599590358420259 0.04846841075508007 0
276 -0.2006302490087352 0.0646915516154865 0
277 -0.2912989009518669 0.02255263988077093 0
278 -0.2279799799310575 -0.01095286391390903 0
279 -0.1530180838545713 0.265335574684001 0
280 -0.1385130537512269 0.196570811522845 0
281 -0.009598460116990159 0.1584585682040801 0
282 0.02377928708225057 0.1748235791898959 0
283 0.00289334276199852 0.1855875728418888 0
284 0.247016553444955 0.2923337330049805 0
285 -0.1610568397871665 0.1725597129835033 0
286 -0.1735262471796869 0.1244263441483849 0
287 0.08308170396296009 0.1041745126751562 0
288 0.07967882622612234 0.1266423037558305 0
289 -0.03745356814931312 0.1140234159859685 0
290 -0.04563883754976732 0.1258997673001355 0
291 -0.05716572970373834 0.1173024936649019 0
292 0.2674132438226552 -0.1055364133029587 0
293 0.1981031448672897 -0.1353608267132563 0
294 -0.07555780625888989 -0.2764326177911799 0
295 -0.1266512321833072 -0.2737750298300964 0
296 -0.06129197272163703 -0.1649684065995063 0
297 -0.04370430926921634 -0.1467016099865176 0
298 -0.07868393782657876 -0.1475619691134493 0
299 0.1003662602590756 -0.175472471623332 0
300 0.1501169985835273 -0.1673231662708532 0
301 -0.2832360933872761 -0.3992199187272317 0
302 -0.4082360933869293 -0.3992199187272317 0
303 -0.1724514312956021 0.03282577070174943 0
304 -0.1379936430659441 0.03103739035286327 0
305 0.282586651768714 -0.4076006222331935 0
306 -0.1670261068188882 0.1002166069296845 0
307 -0.1764415654831208 0.08255441535683582 0
308 -0.1388472891057551 0.06835082601594744 0
309 -0.06391447176424145 0.1758386254804766 0
310 -0.028120294311711 0.208982009748421 0
311 0.4075866517690608 -0.2826006222335402 0
312 0.0249022372643267 0.2837392271534479 0
313 0.005257452887529726 0.2253470207342369 0
314 0.05591587433803622 0.2603447902469157 0
315 0.4075866517690608 -0.4076006222331935 0
316 -0.4082360933869293 -0.2742199187268849 0
317 -0.1198883251271803 0.1584435905655387 0
318 -0.1610842927138136 -0.04755474601795508 0
319 -0.187565376477612 -0.02616878145250265 0
320 -0.1222964229186669 -0.001090897956725559 0
321 -0.1302731273845265 -0.02068848217329184 0
322 0.1099459748065738 0.1305214697477964 0
323 0.09111270582919363 0.1469655991372853 0
324 -0.1104672367922117 0.04834510796755266 0
325 -0.1279329531228237 0.05524424669614511 0
326 -0.1307970314393757 0.0437894957145063 0
327 0.02782608076555301 0.3333022388346907 0
328 0.0515291155847032 -0.2241506072846857 0
329 0.07087347492908165 -0.2850291313759238 0
330 -0.03502016012568367 -0.3378309565913008 0
331 0.3346970253977041 0.04035751955693564 0
332 -0.3387237177347338 0.03070485221275128 0
333 -0.2189052415874531 -0.05208455232681179 0
334 -0.244986355211629 -0.08993833273638638 0
335 -0.2045717517581835 -0.10515425027498 0
336 0.1339363751340553 0.01520450956070846 0
337 0.1438959428907233 -0.0008339393212481398 0
338 0.1500097915016125 0.189542332656695 0
339 0.1131615688420728 0.1790458587056079 0
340 0.1582280770691848 0.1613412390803383 0
341 0.02797208653784181 -0.1374371200819761 0
342 0.03937621938000295 -0.1361247783304804 0
343 0.03605265983938247 -0.1154610510860786 0
344 0.0706071866178699 0.2045997680548346 0
345 0.09025197099466686 0.2629919744740457 0
346 -0.1076887288821713 -0.04922783383715933 0
347 -0.1126613851785325 -0.06804650733434228 0
348 0.01573278356644233 -0.1415089942461836 0
349 -0.01307121155492612 -0.144512594319282 0
350 -0.1359319708023212 0.1102227548074966 0
351 0.01240922402582185 -0.1208452670017818 0
352 -0.04537366612803029 -0.1951238038789165 0
353 -0.02374209455631183 -0.236420676603084 0
354 -0.1205279267353321 0.02413825162427083 0
355 -0.03486491272341576 -0.2867137341090054 0
356 -0.08545745640509927 -0.06991807401003249 0
357 -0.07846313700432644 -0.07768605266928441 0
358 -0.03763369824079353 -0.1118926798026925 0
359 -0.05427834850506274 -0.1176179001100756 0
360 -0.04445162410988886 -0.1235699521930776 0
361 0.03917924605938064 -0.1046271804820941 0
362 0.04872839634067378 -0.10037562485657 0
363 -0.2603132770591727 -0.3149673259057487 0
364 -0.1853881036425536 -0.2761595993600628 0
365 -0.005141462636364072 -0.1121846653513881 0
366 0.005311383690410963 -0.1121846653514276 0
367 0.1101494743500516 0.004042639414610287 0
368 0.1090568543867603 0.01443822395541183 0
369 -0.1513986766083923 -0.07186433089235969 0
370 -0.09425242895655508 0.05928919208924985 0
371 -0.09947885211996062 0.0502367616283841 0
372 -0.3009586989192877 -0.08047870911487648 0
373 0.2897918944969878 -0.07161590365888602 0
374 0.2329760315697647 -0.05150033283893555 0
375 -0.1127696492176482 0.01608865767216601 0
376 -0.1138622691809503 0.005693073131313904 0
377 -0.04791770177071736 0.1492007034175709 0
378 -0.02820554021629216 0.1459216257386375 0
379 -0.106088081281736 -0.02979100700327558 0
380 -0.1028579741271975 -0.03973225461617396 0
381 0.1981667969225792 -0.04974955493957264 0
382 0.1744761074362614 -0.03513195487455734 0
383 0.1869066914091143 -0.07080324241799286 0
384 0.05162995614081055 -0.1474795999773916 0
385 0.05870153913435319 -0.1798501344874199 0
386 0.07903584919670145 -0.1692288871384336 0
387 -0.02705965900494713 -0.1409763896791345 0
388 -0.01381852639559864 -0.1213809365258419 0
389 -0.06502200412671234 -0.1135694394412555 0
390 -0.05820407825761702 -0.1018921670508704 0
391 0.02811217787982843 0.1074208117622661 0
392 0.01788775132448983 0.1095940807159559 0
393 -0.01818976116087083 0.1110364395790339 0
394 -0.02841418771627989 0.1088631706254038 0
395 -0.07817282152986017 0.07694152705943688 0
396 -0.0851671409306929 0.06917354840017592 0
397 0.006249751032588045 0.1329995267594467 0
398 -0.007319595896040107 0.1351576320866447 0
399 -0.01235732906671395 0.1204625842940041 0
400 -0.09683847556505384 -0.1405959393927193 0
401 -0.07925081211263314 -0.1223291427797307 0
402 0.093294677265533 -0.1431019371133037 0
403 0.0844845166683503 0.06906240724030072 0
404 0.07749019726757747 0.07683038589955263 0
405 0.05981737314474882 -0.09201399271540595 0
406 0.06827390346273937 -0.08586996380004251 0
407 0.1666550072588668 0.004122736448029618 0
408 0.1703640813190921 0.04181601969362345 0
409 -0.09618530051931415 -0.05016924352838523 0
410 -0.09095887735596353 -0.05922167398920965 0
411 0.0917487176220684 -0.05897612479689245 0
412 0.09697514078547392 -0.0499236943360267 0
413 -0.06793039725768001 -0.08607909446480139 0
414 -0.0594738669397661 -0.09222312338017039 0
415 0.16716995853744 -0.1460236196169609 0
416 0.1796641945655824 -0.09608363538671283 0
417 0.08289442026162133 0.175166692713642 0
418 -0.1185174944585911 0.07290643826899382 0
419 0.01755068666181044 -0.10811279118722 0
420 0.0277751132172195 -0.1059395222335898 0
421 0.1061159439070306 0.02841279008668285 0
422 0.1028858367524921 0.03835403769958123 0
423 -0.1084341537377167 -0.006783971088039463 0
424 -0.1073415337744253 -0.017179555628841 0
425 0.07752492560494727 -0.07693330231101897 0
426 0.08451924500577999 -0.06916532365175798 0
427 0.1065945238768905 -0.01741662015005315 0
428 0.1076871438401926 -0.007021035609201047 0
429 -0.02935433664172368 -0.1064751917575508 0
430 -0.01912991008638508 -0.1086484607112407 0
431 0.01679555157689438 -0.2978190154032049 0
432 0.09721083422201635 0.04998357027007885 0
433 0.0919844110586657 0.05903600073090327 0
434 -0.0487302113181165 -0.09627158404899058 0
435 -0.03918106103689756 -0.1005231396745489 0
436 0.1629771485815827 -0.01903494316541487 0
437 -0.1023429304365126 0.03878201064674529 0
438 -0.1055730375910797 0.02884076303380903 0
439 -0.07948047362591304 -0.08945066458653327 0
440 -0.06008862629867302 0.09129002241787683 0
441 -0.06854515661666358 0.0851459935025134 0
442 -0.08191127347684424 0.1203115436158882 0
443 -0.0813477690977166 0.1558167670419746 0
444 -0.0979080434703683 0.146949465678794 0
445 0.1021172886653421 -0.03880823883287755 0
446 0.1053473958199092 -0.0288669912199413 0
447 0.3025915808882924 -0.01642694911719542 0
448 0.1316161891148535 -0.09487824733341139 0
449 0.1068400332922129 -0.09560792819936548 0
450 0.1239548524130921 -0.1074761091563716 0
451 0.0597105294423512 -0.1255035309814941 0
452 -0.3067446618237654 -0.02871642245623781 0
453 -0.03994107987025091 0.1002658969901702 0
454 -0.04949023015154405 0.096014341364646 0
455 0.06728218667925551 0.08623266676576163 0
456 0.05882565636134161 0.09237669568113063 0
457 0.1882820730073115 0.2303306476188188 0
458 0.1432155647801996 0.2480352672440884 0
459 0.04821571057359927 0.09715850296439844 0
460 0.03866656029238033 0.1014100585899568 0
461 0.05854576948561865 -0.1057870771934189 0
462 -0.02283234068495348 0.2983044693220119 0
463 -0.08317654186518741 -0.1066034097205255 0
464 -0.1227822045849807 -0.1220282931080263 0
465 -0.1222153302989263 -0.1472611194417449 0
466 -0.09551463432342373 -0.07036122277019344 0
467 0.139883723118602 -0.08384194016968501 0
468 0.1227689039977228 -0.0719737592126789 0
469 0.1173580382203736 0.02205984496049159 0
470 0.1309954646543257 0.02917907569197948 0
471 0.1638633743750326 0.06111948103232696 0
472 0.1399132736102617 0.08439678446136001 0
473 0.1069018924591794 -0.1287756558102639 0
474 0.1316780482818199 -0.1280459749443098 0
475 -0.1633248487264304 -0.09799697151122864 0
476 -0.1362328872008151 -0.1025608325381829 0
477 -0.09851787044979748 0.06968421526011753 0
478 0.1333170069751401 0.1293538355411839 0
479 -0.09395206513671561 0.09550640691187559 0
480 -0.1139516891455092 0.09872862992075186 0
481 -0.1094322064327289 0.08279079457991988 0
482 0.04855832360499068 0.172519508486512 0
483 0.1410730946239479 0.04162720163089986 0
484 0.1244947577102661 0.04848253703068299 0
485 0.07888576843190159 -0.08848878356323131 0
486 0.07079950624642625 -0.1171418988403301 0
487 0.0953662631903979 -0.06936292321934222 0
488 0.0855714813968052 -0.1225320713253655 0
489 0.08440672144007266 -0.1028156175372903 0
490 -0.0798049175107387 0.08777303801412011 0
491 0.09556722828937694 0.06931988274215528 0
492 -0.1204518295063079 0.1229383671394523 0
493 -0.115614854982744 -0.0261793935505135 0
494 0.1077378836865544 -0.04805826886132753 0
495 0.1066485263703606 0.09680431055716776 0
496 0.1300195585389268 0.0956366763505553 0
497 0.1218831273720688 0.1090305401597291 0
498 0.07785932331073958 0.08874857011776173 0
499 -0.1894059623506064 -0.1358507519208032 0
500 0.1087421252101681 0.04766394366226023 0
501 0.1246786726085535 0.07217055485879867 0
502 -0.08432440022351902 0.1037108733549521 0
503 0.1559735050792646 -0.08146603532169752 0
504 0.1471262199621339 -0.05856154720096503 0
505 0.1141271596234039 -0.02549244228829024 0
506 0.005832432094532357 0.1088783342517965 0
507 -0.004620414232242678 0.1088783342518359 0
508 -0.1108560324669426 -0.09589565248915732 0
509 0.09365774358228054 -0.09387895604826671 0
510 0.09328971455128204 0.09477223180894714 0
511 -0.05957885645041312 0.1007018234039658 0
512 -0.09370928161183384 -0.09821036792500848 0
513 -0.1573904496297369 -0.1747589287600717 0
514 0.03587703873438105 0.1137252187228157 0
515 0.1188197551797904 0.06011206960118061 0
516 0.1013190802840419 -0.08128109422530652 0
517 0.1085485529003303 -0.07109189537044099 0
518 -0.1071599642276683 -0.07874290735516512 0
519 0.1089260401084555 0.0713519614903759 0
520 0.1014261457181401 0.08137836799977334 0
521 0.04308410678528564 0.1314112025202222 0
522 0.03606652072600201 0.1453905038487033 0
523 0.01830507026254552 0.1337152732236062 0
524 0.1168160869040788 -0.0600555882067146 0
525 0.1219582347839469 -0.04894013270356545 0
526 0.1265490578899309 -0.0304672161464355 0
527 -0.0677641258508673 0.1125781747181327 0
528 0.01326733709187167 0.1190202254309655 0
529 0.1517170430681178 -0.04008863064383509 0
530 0.1356272611074552 -0.04246453549182257 0
$EndNodes
$Elements
292
1 15 2 1 1 1
2 15 2 2 2 2
3 15 2 3 3 3
4 15 2 4 4 4
5 8 2 1 1 1 7 10
6 8 2 1 1 7 8 11
7 8 2 1 1 8 9 12
8 8 2 1 1 9 2 13
9 8 2 2 2 2 14 17
10 8 2 2 2 14 15 18
11 8 2 2 2 15 16 19
12 8 2 2 2 16 3 20
13 8 2 3 3 3 21 24
14 8 2 3 3 21 22 25
15 8 2 3 3 22 23 26
16 8 2 3 3 23 4 27
17 8 2 4 4 4 28 31
18 8 2 4 4 28 29 32
19 8 2 4 4 29 30 33
20 8 2 4 4 30 1 34
21 8 2 5 6 5 35 49
22 8 2 5 6 35 36 50
23 8 2 5 6 36 37 51
24 8 2 5 6 37 38 52
25 8 2 5 6 38 39 53
26 8 2 5 6 39 40 54
27 8 2 5 6 40 41 55
28 8 2 5 6 41 42 56
29 8 2 5 6 42 43 57
30 8 2 5 6 43 44 58
31 8 2 5 6 44 45 59
32 8 2 5 6 45 46 60
33 8 2 5 6 46 47 61
34 8 2 5 6 47 48 62
35 8 2 5 6 48 6 63
36 8 2 5 7 6 64 78
37 8 2 5 7 64 65 79
38 8 2 5 7 65 66 80
39 8 2 5 7 66 67 81
40 8 2 5 7 67 68 82
41 8 2 5 7 68 69 83
42 8 2 5 7 69 70 84
43 8 2 5 7 70 71 85
44 8 2 5 7 71 72 86
45 8 2 5 7 72 73 87
46 8 2 5 7 73 74 88
47 8 2 5 7 74 75 89
48 8 2 5 7 75 76 90
49 8 2 5 7 76 77 91
50 8 2 5 7 77 5 92
51 9 2 1 1 7 113 186 191 192 193
52 9 2 1 1 150 169 154 194 195 196
53 9 2 1 1 21 115 175 197 198 199
54 9 2 1 1 117 165 133 200 201 202
55 9 2 1 1 111 116 117 203 204 205
56 9 2 1 1 109 169 150 206 194 207
57 9 2 1 1 111 117 133 205 202 208
58 9 2 1 1 138 139 170 209 210 211
59 9 2 1 1 8 112 172 212 213 214
60 9 2 1 1 114 152 121 215 216 217
61 9 2 1 1 16 116 111 218 203 219
62 9 2 1 1 15 173 110 220 221 222
63 9 2 1 1 29 108 174 223 224 225
64 9 2 1 1 112 123 149 226 227 228
65 9 2 1 1 4 150 23 229 230 27
66 9 2 1 1 110 149 123 231 227 232
67 9 2 1 1 22 114 176 233 234 235
68 9 2 1 1 136 156 157 236 237 238
69 9 2 1 1 139 181 151 239 240 241
70 9 2 1 1 28 109 150 242 207 243
71 9 2 1 1 4 28 150 31 243 229
72 9 2 1 1 3 21 116 24 244 245
73 9 2 1 1 111 133 119 208 246 247
74 9 2 1 1 3 116 16 245 218 20
75 9 2 1 1 106 163 168 248 249 250
76 9 2 1 1 7 8 113 11 251 191
77 9 2 1 1 15 16 111 19 219 252
78 9 2 1 1 28 29 109 32 253 242
79 9 2 1 1 21 22 115 25 254 197
80 9 2 1 1 23 150 114 230 255 256
81 9 2 1 1 118 148 141 257 258 259
82 9 2 1 1 119 133 188 246 260 261
83 9 2 1 1 112 149 183 228 262 263
84 9 2 1 1 103 187 161 264 265 266
85 9 2 1 1 8 9 112 12 267 212
86 9 2 1 1 108 151 181 268 240 269
87 9 2 1 1 157 159 185 270 271 272
88 9 2 1 1 29 30 108 33 273 223
89 9 2 1 1 14 15 110 18 222 274
90 9 2 1 1 109 185 169 275 276 206
91 9 2 1 1 22 23 114 26 256 233
92 9 2 1 1 109 120 185 277 278 275
93 9 2 1 1 114 150 154 255 196 279
94 9 2 1 1 114 154 152 279 280 215
95 9 2 1 1 153 171 190 281 282 283
96 9 2 1 1 21 175 116 199 284 244
97 9 2 1 1 127 154 169 285 195 286
98 9 2 1 1 163 164 168 287 288 249
99 9 2 1 1 95 167 182 289 290 291
100 9 2 1 1 110 178 149 292 293 231
101 9 2 1 1 113 170 139 294 210 295
102 9 2 1 1 138 141 140 296 297 298
103 9 2 1 1 145 183 149 299 262 300
104 9 2 1 1 1 7 151 10 301 302
105 9 2 1 1 128 185 159 303 271 304
106 9 2 1 1 9 123 112 305 226 267
107 9 2 1 1 126 169 128 306 307 308
108 9 2 1 1 121 152 153 216 309 310
109 9 2 1 1 14 110 123 274 232 311
110 9 2 1 1 115 121 190 312 313 314
111 9 2 1 1 2 14 123 17 311 315
112 9 2 1 1 2 123 9 315 305 13
113 9 2 1 1 1 151 30 302 316 34
114 9 2 1 1 127 152 154 317 280 285
115 9 2 1 1 158 157 185 318 272 319
116 9 2 1 1 30 151 108 316 268 273
117 9 2 1 1 96 159 157 320 270 321
118 9 2 1 1 164 189 168 322 323 288
119 9 2 1 1 94 129 128 324 325 326
120 9 2 1 1 22 176 115 235 327 254
121 9 2 1 1 112 183 118 263 328 329
122 9 2 1 1 8 172 113 214 330 251
123 9 2 1 1 15 111 173 252 331 220
124 9 2 1 1 29 174 109 225 332 253
125 9 2 1 1 158 120 181 333 334 335
126 9 2 1 1 132 161 187 336 265 337
127 9 2 1 1 117 122 189 338 339 340
128 9 2 1 1 100 148 155 341 342 343
129 9 2 1 1 128 169 185 307 276 303
130 9 2 1 1 115 190 122 314 344 345
131 9 2 1 1 97 156 136 346 236 347
132 9 2 1 1 141 148 162 258 348 349
133 9 2 1 1 126 127 169 350 286 306
134 9 2 1 1 100 162 148 351 348 341
135 9 2 1 1 118 141 170 259 352 353
136 9 2 1 1 94 128 159 326 304 354
137 9 2 1 1 113 118 170 355 353 294
138 9 2 1 1 37 134 38 356 357 52
139 9 2 1 1 99 180 140 358 359 360
140 9 2 1 1 43 155 44 361 362 58
141 9 2 1 1 139 151 186 241 363 364
142 9 2 1 1 41 162 42 365 366 56
143 9 2 1 1 6 161 64 367 368 78
144 9 2 1 1 136 157 158 238 318 369
145 9 2 1 1 75 129 76 370 371 90
146 9 2 1 1 108 181 120 269 334 372
147 9 2 1 1 110 119 178 373 374 292
148 9 2 1 1 5 77 159 92 375 376
149 9 2 1 1 153 182 167 377 290 378
150 9 2 1 1 121 153 190 310 283 313
151 9 2 1 1 138 170 141 211 352 296
152 9 2 1 1 35 156 36 379 380 50
153 9 2 1 1 178 188 147 381 382 383
154 9 2 1 1 144 148 183 384 385 386
155 9 2 1 1 99 141 162 387 349 388
156 9 2 1 1 113 139 186 295 364 192
157 9 2 1 1 98 140 180 389 359 390
158 9 2 1 1 69 166 70 391 392 84
159 9 2 1 1 71 167 72 393 394 86
160 9 2 1 1 74 93 75 395 396 89
161 9 2 1 1 107 171 167 397 398 399
162 9 2 1 1 135 138 140 400 298 401
163 9 2 1 1 144 183 145 386 299 402
164 9 2 1 1 99 140 141 360 297 387
165 9 2 1 1 66 105 67 403 404 81
166 9 2 1 1 44 101 45 405 406 59
167 9 2 1 1 132 188 133 407 260 408
168 9 2 1 1 36 97 37 409 410 51
169 9 2 1 1 46 102 47 411 412 61
170 9 2 1 1 38 98 39 413 414 53
171 9 2 1 1 146 149 178 415 293 416
172 9 2 1 1 122 168 189 417 323 339
173 9 2 1 1 126 128 129 308 325 418
174 9 2 1 1 42 100 43 419 420 57
175 9 2 1 1 64 104 65 421 422 79
176 9 2 1 1 5 96 35 423 424 49
177 9 2 1 1 45 142 46 425 426 60
178 9 2 1 1 6 48 103 63 427 428
179 9 2 1 1 7 186 151 193 363 301
180 9 2 1 1 40 99 41 429 430 55
181 9 2 1 1 113 172 118 330 431 355
182 9 2 1 1 65 130 66 432 433 80
183 9 2 1 1 39 180 40 434 435 54
184 9 2 1 1 132 187 188 337 436 407
185 9 2 1 1 76 94 77 437 438 91
186 9 2 1 1 112 118 172 329 431 213
187 9 2 1 1 158 185 120 319 278 333
188 9 2 1 1 38 134 98 357 439 413
189 9 2 1 1 73 124 74 440 441 88
190 9 2 1 1 125 182 152 442 443 444
191 9 2 1 1 47 160 48 445 446 62
192 9 2 1 1 111 119 173 247 447 331
193 9 2 1 1 146 177 143 448 449 450
194 9 2 1 1 144 155 148 451 342 384
195 9 2 1 1 109 174 120 332 452 277
196 9 2 1 1 72 95 73 453 454 87
197 9 2 1 1 118 183 148 328 385 257
198 9 2 1 1 67 163 68 455 456 82
199 9 2 1 1 117 175 122 457 458 338
200 9 2 1 1 68 106 69 459 460 83
201 9 2 1 1 44 155 101 362 461 405
202 9 2 1 1 115 176 121 327 462 312
203 9 2 1 1 110 173 119 221 447 373
204 9 2 1 1 108 120 174 372 452 224
205 9 2 1 1 116 175 117 284 457 204
206 9 2 1 1 114 121 176 217 462 234
207 9 2 1 1 98 135 140 463 401 389
208 9 2 1 1 135 137 138 464 465 400
209 9 2 1 1 37 97 134 410 466 356
210 9 2 1 1 76 129 94 371 324 437
211 9 2 1 1 146 184 177 467 468 448
212 9 2 1 1 104 161 132 469 336 470
213 9 2 1 1 64 161 104 368 469 421
214 9 2 1 1 131 133 165 471 201 472
215 9 2 1 1 36 156 97 380 346 409
216 9 2 1 1 143 145 146 473 474 450
217 9 2 1 1 136 158 137 369 475 476
218 9 2 1 1 42 162 100 366 351 419
219 9 2 1 1 75 93 129 396 477 370
220 9 2 1 1 117 189 165 340 478 200
221 9 2 1 1 93 125 126 479 480 481
222 9 2 1 1 43 100 155 420 343 361
223 9 2 1 1 122 190 168 344 482 417
224 9 2 1 1 93 126 129 481 418 477
225 9 2 1 1 104 132 131 470 483 484
226 9 2 1 1 45 101 142 406 485 425
227 9 2 1 1 6 103 161 428 266 367
228 9 2 1 1 101 155 144 461 451 486
229 9 2 1 1 46 142 102 426 487 411
230 9 2 1 1 41 99 162 430 388 365
231 9 2 1 1 101 144 143 486 488 489
232 9 2 1 1 74 124 93 441 490 395
233 9 2 1 1 66 130 105 433 491 403
234 9 2 1 1 77 94 159 438 354 375
235 9 2 1 1 153 167 171 378 398 281
236 9 2 1 1 125 152 127 444 317 492
237 9 2 1 1 178 119 188 374 261 381
238 9 2 1 1 5 159 96 376 320 423
239 9 2 1 1 39 98 180 414 390 434
240 9 2 1 1 35 96 156 424 493 379
241 9 2 1 1 47 102 160 412 494 445
242 9 2 1 1 164 179 165 495 496 497
243 9 2 1 1 67 105 163 404 498 455
244 9 2 1 1 158 181 137 335 499 475
245 9 2 1 1 65 104 130 422 500 432
246 9 2 1 1 131 165 179 472 496 501
247 9 2 1 1 152 182 153 443 377 309
248 9 2 1 1 93 124 125 490 502 479
249 9 2 1 1 164 165 189 497 478 322
250 9 2 1 1 146 147 184 503 504 467
251 9 2 1 1 131 132 133 483 408 471
252 9 2 1 1 146 145 149 474 300 415
253 9 2 1 1 48 160 103 446 505 427
254 9 2 1 1 143 144 145 488 402 473
255 9 2 1 1 40 180 99 435 358 429
256 9 2 1 1 146 178 147 416 383 503
257 9 2 1 1 70 107 71 506 507 85
258 9 2 1 1 135 136 137 508 476 464
259 9 2 1 1 115 122 175 345 458 198
260 9 2 1 1 101 143 142 489 509 485
261 9 2 1 1 105 164 163 510 287 498
262 9 2 1 1 73 95 124 454 511 440
263 9 2 1 1 98 134 135 439 512 463
264 9 2 1 1 137 139 138 513 209 465
265 9 2 1 1 72 167 95 394 289 453
266 9 2 1 1 96 157 156 321 237 493
267 9 2 1 1 68 163 106 456 248 459
268 9 2 1 1 69 106 166 460 514 391
269 9 2 1 1 104 131 130 484 515 500
270 9 2 1 1 102 142 177 487 516 517
271 9 2 1 1 134 136 135 518 508 512
272 9 2 1 1 105 130 179 491 519 520
273 9 2 1 1 166 168 171 521 522 523
274 9 2 1 1 126 125 127 480 492 350
275 9 2 1 1 106 168 166 250 521 514
276 9 2 1 1 102 184 160 524 525 494
277 9 2 1 1 97 136 134 347 518 466
278 9 2 1 1 168 190 171 482 282 522
279 9 2 1 1 103 160 187 505 526 264
280 9 2 1 1 95 182 124 291 527 511
281 9 2 1 1 70 166 107 392 528 506
282 9 2 1 1 71 107 167 507 399 393
283 9 2 1 1 107 166 171 528 523 397
284 9 2 1 1 137 181 139 499 239 513
285 9 2 1 1 105 179 164 520 495 510
286 9 2 1 1 142 143 177 509 449 516
287 9 2 1 1 147 188 187 382 436 529
288 9 2 1 1 124 182 125 527 442 502
289 9 2 1 1 130 131 179 515 501 519
290 9 2 1 1 177 184 102 468 524 517
291 9 2 1 1 160 184 187 525 530 526
292 9 2 1 1 147 187 184 529 530 504
$EndElements
