$MeshFormat
2.2 0 8
$EndMeshFormat
$Nodes
429
1 0 0 0
2 1 0 0
3 1 1 0
4 0 1 0
5 0.1111111111109088 0 0
6 0.2222222222217153 0 0
7 0.3333333333325025 0 0
8 0.4444444444432898 0 0
9 0.5555555555543853 0 0
10 0.6666666666657889 0 0
11 0.7777777777771926 0 0
12 0.8888888888885963 0 0
13 0.05555555555544189 0 0
14 0.1666666666663204 0 0
15 0.2777777777771089 0 0
16 0.3888888888878962 0 0
17 0.4999999999986833 0 0
18 0.6111111111100871 0 0
19 0.7222222222214907 0 0
20 0.8333333333328945 0 0
21 0.9444444444442981 0 0
22 1 0.1111111111109088 0
23 1 0.2222222222217153 0
24 1 0.3333333333325025 0
25 1 0.4444444444432898 0
26 1 0.5555555555543853 0
27 1 0.6666666666657889 0
28 1 0.7777777777771926 0
29 1 0.8888888888885963 0
30 1 0.05555555555544189 0
31 1 0.1666666666663204 0
32 1 0.2777777777771089 0
33 1 0.3888888888878962 0
34 1 0.4999999999986833 0
35 1 0.6111111111100871 0
36 1 0.7222222222214907 0
37 1 0.8333333333328945 0
38 1 0.9444444444442981 0
39 0.8888888888884262 1 0
40 0.7777777777779317 1 0
41 0.6666666666675911 1 0
42 0.5555555555572507 1 0
43 0.4444444444462936 1 0
44 0.3333333333347203 1 0
45 0.2222222222231468 1 0
46 0.1111111111115733 1 0
47 0.9444444444441982 1 0
48 0.8333333333331641 1 0
49 0.7222222222228009 1 0
50 0.6111111111124209 1 0
51 0.5000000000019931 1 0
52 0.3888888888905069 1 0
53 0.2777777777789335 1 0
54 0.1666666666673601 1 0
55 0.05555555555578673 1 0
56 0 0.8888888888884262 0
57 0 0.7777777777779317 0
58 0 0.6666666666675911 0
59 0 0.5555555555572507 0
60 0 0.4444444444462936 0
61 0 0.3333333333347203 0
62 0 0.2222222222231468 0
63 0 0.1111111111115733 0
64 0 0.9444444444441982 0
65 0 0.8333333333331641 0
66 0 0.7222222222228009 0
67 0 0.6111111111124209 0
68 0 0.5000000000019931 0
69 0 0.3888888888905069 0
70 0 0.2777777777789335 0
71 0 0.1666666666673601 0
72 0 0.05555555555578673 0
73 0.5873964716717552 0.5059744748993428 0
74 0.7071649853662365 0.8340725459658086 0
75 0.7111842824671455 0.2246766559476804 0
76 0.3179050489922849 0.2540165856195993 0
77 0.8097993524359525 0.9048204979089375 0
78 0.9125309848627323 0.1821209083376977 0
79 0.1675097053898527 0.08716290498292874 0
80 0.47129780616594 0.7782959543085723 0
81 0.5202292939314288 0.2004051467535587 0
82 0.4932831658168606 0.4187128162519762 0
83 0.8389333566041515 0.6605525290468875 0
84 0.1090578850834765 0.582863584740047 0
85 0.1370052414065559 0.4521735912619714 0
86 0.5148437682561462 0.106074045336111 0
87 0.5061503013625822 0.8980695378209919 0
88 0.1075889482894438 0.261668826794472 0
89 0.6439901112482531 0.6220735534819347 0
90 0.678687678916723 0.3619517490247156 0
91 0.8442889411296443 0.2891292633321369 0
92 0.1139388282038009 0.7044991337744086 0
93 0.8932239220651745 0.8268996539984113 0
94 0.09210022192776375 0.156543872121534 0
95 0.84779717803238 0.09090203860717887 0
96 0.8177113438944907 0.1838007537093202 0
97 0.5863736260610878 0.8037313779797456 0
98 0.3481143820543928 0.7120752062651198 0
99 0.4066515538388409 0.3262816177948057 0
100 0.3550475392605351 0.8194141150267944 0
101 0.3229597422563348 0.3760762195290108 0
102 0.6997867057939423 0.5376307386031907 0
103 0.5678250104141372 0.6972434832819484 0
104 0.9143861805350935 0.4956864115543015 0
105 0.4109091837611823 0.4357768983217056 0
106 0.547009683787204 0.6004400194951127 0
107 0.7646279677544334 0.3480819844354249 0
108 0.7462231077482144 0.6418480237066769 0
109 0.3445772675723935 0.5977112941431234 0
110 0.2601672502949003 0.7780276921164151 0
111 0.8335839721274502 0.4193743773185808 0
112 0.5899680661358513 0.3962283422538589 0
113 0.3961995429584368 0.8999841483522166 0
114 0.915042204941503 0.6147626334653666 0
115 0.3345848170363961 0.484657319266407 0
116 0.903952167511529 0.7133092938351422 0
117 0.7945203645691505 0.7427831403894904 0
118 0.9186936921820545 0.3739846249485439 0
119 0.743137380741047 0.448247361003987 0
120 0.7995294398793473 0.8295885901553064 0
121 0.5974456982046092 0.1745273475199548 0
122 0.2071507180848232 0.3287413361475832 0
123 0.673255293880931 0.7236636372616161 0
124 0.4565937541855606 0.6537079247362515 0
125 0.5027985129596593 0.2943918420035683 0
126 0.8130132726416288 0.5454431535284273 0
127 0.6345246137370643 0.09995563960520165 0
128 0.3376850835048139 0.1619787490521358 0
129 0.2300146509630037 0.65747991147556 0
130 0.7426103104290104 0.0998891813115635 0
131 0.9351027236348862 0.2801580704345193 0
132 0.4534791919759074 0.5281401067305599 0
133 0.1487655027642685 0.8071570648153693 0
134 0.2629941263052181 0.8886075210562654 0
135 0.6062074174793887 0.2850755122535739 0
136 0.6616034929319551 0.4465243998901121 0
137 0.6175907066618193 0.9088374306885827 0
138 0.9183773481183843 0.9260315728780861 0
139 0.9298434103567417 0.07682681161115708 0
140 0.4331662381340504 0.2046225782453999 0
141 0.2850486467731002 0.08908308141124267 0
142 0.2425144258187092 0.4346458424732296 0
143 0.7157998977819062 0.9295460949126657 0
144 0.2174911307345379 0.1961467732743708 0
145 0.1864525024963969 0.7314919032391475 0
146 0.3914202524073171 0.09362640900748158 0
147 0.1451724101506627 0.9152698290445654 0
148 0.2258099076904605 0.527252070207741 0
149 0.07414420768570504 0.07096357764320721 0
150 0.1099564835927318 0.3392187571338958 0
151 0.06151578162250808 0.5087592940013906 0
152 0.06989869369414356 0.8667076009941012 0
153 0.06523644299127591 0.9341732637854185 0
154 0.7937885651069421 0.9524102489544688 0
155 0.8493441206621893 0.9524102489544688 0
156 0.194865963805784 0.04358145249146437 0
157 0.1393104082503807 0.04358145249146437 0
158 0.9562654924313662 0.2021715652797065 0
159 0.9562654924313662 0.1466160097243032 0
160 0.479644106349718 0.0530370226680555 0
161 0.5351996619052657 0.0530370226680555 0
162 0.5308529284599164 0.9490347689104959 0
163 0.4752973729044379 0.9490347689104959 0
164 0.8310001425120674 0.2364650085207285 0
165 0.7777366117983948 0.2569029596399086 0
166 0.7644478131808181 0.2042387048285003 0
167 0.8784099629961883 0.2356250858349173 0
168 0.8651211643786115 0.1829608310235089 0
169 0.9466119610325873 0.8023387158878019 0
170 0.9466119610325873 0.8578942714435038 0
171 0.8127874779047863 0.04545101930358943 0
172 0.8683430334604881 0.04545101930358943 0
173 0.04605011096388188 0.1893830471723404 0
174 0.04605011096388188 0.1338274916165537 0
175 0.8801640814475562 0.1365114734724383 0
176 0.8327542609634353 0.1373513961582495 0
177 0.05696941410190046 0.6855829002209999 0
178 0.05696941410190046 0.7411384557761702 0
179 0.546261963711835 0.8509004579003687 0
180 0.4887240537642611 0.8381827460647822 0
181 0.5288357161135139 0.7910136661441589 0
182 0.351580960657464 0.765744660645957 0
183 0.4097060941101665 0.7451855802868461 0
184 0.4131726727132375 0.7988550346676834 0
185 0.3622783014155629 0.2901491017072025 0
186 0.3648056480475879 0.3511789186619083 0
187 0.3204323956243099 0.3150464025743051 0
188 0.5770993182376125 0.750487430630847 0
189 0.5195614082900386 0.7377697187952603 0
190 0.4087803688000116 0.3810292580582557 0
191 0.4499673598278507 0.372497217023391 0
192 0.4520961747890214 0.4272448572868409 0
193 0.6059075608311952 0.6596585183819416 0
194 0.5574173471006707 0.6488417513885305 0
195 0.5954998975177286 0.6112567864885237 0
196 0.5672030777294796 0.5532072471972278 0
197 0.6156932914600042 0.5640240141906387 0
198 0.6949359806919342 0.2933142024861979 0
199 0.7379061251107895 0.2863793201915527 0
200 0.7216578233355782 0.3550168667300703 0
201 0.8044584544420388 0.3186056238837809 0
202 0.6718884085210977 0.5798521460425627 0
203 0.7230049067710784 0.5897393811549339 0
204 0.6951066094982338 0.6319607885943058 0
205 0.7991059699409417 0.3837281808770029 0
206 0.8389364566285472 0.3542518203253588 0
207 0.5886822689038033 0.4511014085766009 0
208 0.5403398187443079 0.4623436455756595 0
209 0.5416256159763559 0.4074705792529175 0
210 0.3647664381465785 0.9499920741761083 0
211 0.4203219937023652 0.9499920741761083 0
212 0.9575211024707515 0.6407146500655778 0
213 0.9575211024707515 0.5851590945098759 0
214 0.9147141927382982 0.5552245225098341 0
215 0.9571930902675467 0.5256209835543434 0
216 0.9519760837557645 0.6899879802504656 0
217 0.9519760837557645 0.7455435358061674 0
218 0.8985880447883517 0.7701044739167767 0
219 0.7703717361586825 0.6923155820480837 0
220 0.792578232176183 0.6512002763767822 0
221 0.816726860586651 0.7016678347181891 0
222 0.9593468460910273 0.3536589791405232 0
223 0.9593468460910273 0.4092145346959168 0
224 0.7538826742477402 0.398164672719706 0
225 0.710912529828885 0.4050995550143513 0
226 0.8046643961576498 0.8672045440321219 0
227 0.7584821689010945 0.869446521937373 0
228 0.7533472126227919 0.8318305680605576 0
229 0.7970249022242489 0.7861858652723984 0
230 0.8438721433171625 0.7848413971939509 0
231 0.8463766809722609 0.8282441220768588 0
232 0.8515116372505636 0.8658600759536743 0
233 0.7508426749676935 0.7884278431776495 0
234 0.6467693057136621 0.8189019619727771 0
235 0.6298144599710094 0.7636975076206809 0
236 0.6902101396235838 0.7788680916137123 0
237 0.7097392008145726 0.6827558304841466 0
238 0.6586227025645921 0.6728685953717755 0
239 0.4023540681199768 0.6828915655006856 0
240 0.4639457801757503 0.716001939522412 0
241 0.5122093822998489 0.6754757040091 0
242 0.5463832895477553 0.3453100921287136 0
243 0.4980408393882599 0.3565523291277722 0
244 0.6505956402014266 0.04997781980260083 0
245 0.5950400846457248 0.04997781980260083 0
246 0.7801608271617506 0.1418449675104418 0
247 0.7952037442306952 0.09539560995937119 0
248 0.7601940441031014 0.04994459065578175 0
249 0.9675513618174432 0.3067457018835109 0
250 0.9675513618174432 0.2511901463281173 0
251 0.9238168542488092 0.2311394893861085 0
252 0.8896958323822652 0.2846436668833281 0
253 0.4321941878685449 0.4819585025261328 0
254 0.473381178896384 0.473426461491268 0
255 0.5204378318238313 0.5170572908149513 0
256 0.2981637298199692 0.9443037605281327 0
257 0.2426081742641824 0.9443037605281327 0
258 0.6343278725262871 0.3790900456392872 0
259 0.59808774180762 0.3406519272537164 0
260 0.6424475481980558 0.3235136306391447 0
261 0.6257857795339032 0.4213763710719855 0
262 0.670145585924339 0.4042380744574138 0
263 0.6244999823018551 0.4762494373947275 0
264 0.586573131109535 0.9544187153442913 0
265 0.5618705040122007 0.9034534842547872 0
266 0.9591886740591922 0.9630157864390431 0
267 0.9591886740591922 0.9074602308833413 0
268 0.9036331185034052 0.9630157864390431 0
269 0.9649217051783708 0.03841340580557854 0
270 0.909366149622669 0.03841340580557854 0
271 0.9649217051783708 0.09396896136103294 0
272 0.5002444378815557 0.5642900631128362 0
273 0.909497186226516 0.6640359636502544 0
274 0.8714427620578402 0.6869309114410149 0
275 0.8769877807728272 0.6376575812561271 0
276 0.7046384885473996 0.04994459065578175 0
277 0.726897296448078 0.1622829186296219 0
278 0.6421286866647051 0.9544187153442913 0
279 0.9268982079084704 0.3270713476915316 0
280 0.8814913166558493 0.3315569441403404 0
281 0.3295968346318274 0.894295834704241 0
282 0.8492362660403397 0.7280462171123163 0
283 0.4547250333992501 0.310336729899187 0
284 0.6205401521475341 0.7104535602717823 0
285 0.3076073947777177 0.7987209035716047 0
286 0.3041408161746466 0.7450514491907674 0
287 0.3669344630087585 0.4059265589253582 0
288 0.702370436836501 0.4473858804470496 0
289 0.8259733146228901 0.6029978412876574 0
290 0.7796181901949216 0.5936455886175521 0
291 0.7563999892177855 0.541536946065809 0
292 0.5018017189863824 0.6270739721156822 0
293 0.8761388321547523 0.3966795011335623 0
294 0.8640277387915659 0.580102893496897 0
295 0.8636997265883611 0.5205647825413644 0
296 0.3940320045061518 0.5063987129984835 0
297 0.3727470003987892 0.4602171087940563 0
298 0.7883606764342486 0.4338108691612839 0
299 0.7338878292250408 0.7332233888255533 0
300 0.511513903445544 0.2473984943785635 0
301 0.5632183557054087 0.2427403295035663 0
302 0.5545029652195239 0.2897336771285711 0
303 0.9571930902675467 0.4700654279987957 0
304 0.916539936358574 0.4348355182514227 0
305 0.8739850763312718 0.4575303944364412 0
306 0.2044663765295844 0.7925923784658921 0
307 0.2615806883000592 0.8333176065863402 0
308 0.2058798145347433 0.8478822929358174 0
309 0.921187197609737 0.1294738599744274 0
310 0.8888202941945609 0.08386442510916797 0
311 0.1313521654840347 0.7558280992948889 0
312 0.07438275138213425 0.7924674212966505 0
313 0.6586958499732671 0.2548760841006271 0
314 0.601826557841999 0.2298014298867644 0
315 0.6543149903358774 0.1996020017338176 0
316 0.558837496068019 0.1874662471367568 0
317 0.6435915887328487 0.5218026067512667 0
318 0.6806950993629487 0.4920775692466514 0
319 0.7214620432674946 0.4929390498035888 0
320 0.8640883502771683 0.9154260353935118 0
321 0.9058006350917794 0.8764656134382487 0
322 0.6019821663614535 0.8562844043341642 0
323 0.6623778460140279 0.8714549883271956 0
324 0.4511749221605095 0.8990268430866042 0
325 0.4337486745621884 0.8391400513303945 0
326 0.3756235411094859 0.8596991316895055 0
327 0.265055230170579 0.352408777838297 0
328 0.2625278835385541 0.2913789608835913 0
329 0.5175365310937875 0.1532395960448349 0
330 0.5561447332303777 0.1403006964280329 0
331 0.09984458510860378 0.2091063494580029 0
332 0.05379447414472191 0.2419455245088094 0
333 0.5746841909966052 0.1030148424706563 0
334 0.6159851559708367 0.1372414935625782 0
335 0.1720779797456895 0.3904574637047773 0
336 0.2248325719517662 0.3816935893104064 0
337 0.1897598336126325 0.4434097168676004 0
338 0.282737084037522 0.4053610310011202 0
339 0.6666953022218627 0.9191917628006242 0
340 0.7114824415740714 0.8818093204392372 0
341 0.7627996251089293 0.9171832964108015 0
342 0.6912332822247487 0.9647730474563329 0
343 0.1573698331871335 0.2952050814710276 0
344 0.1625400395119909 0.2289078000344214 0
345 0.2123209244096805 0.262444054710977 0
346 0.1298049636588082 0.1218533885522314 0
347 0.1925004180621953 0.1416548391286498 0
348 0.1547956763311508 0.1763453226979524 0
349 0.3091909900528014 0.04454154070562134 0
350 0.2536354344974077 0.04454154070562134 0
351 0.2676980898634114 0.2250816794469851 0
352 0.2775881071196759 0.1790627611632533 0
353 0.3277950662485494 0.2079976673358676 0
354 0.746788837779919 0.9647730474563329 0
355 0.3090208327828766 0.8540108180415299 0
356 0.05379447414472191 0.2975010800645961 0
357 0.1719767395834023 0.6809895226249842 0
358 0.1114983566436387 0.6436813592572278 0
359 0.1695362680232401 0.6201717481078035 0
360 0.2890645165086982 0.6847775588703399 0
361 0.245090950628952 0.7177538017959875 0
362 0.2262791760814764 0.08812299319708571 0
363 0.2512698887538191 0.1426149273428068 0
364 0.311366865138957 0.1255309152316892 0
365 0.7780753266913378 0.4968452572662072 0
366 0.8232986223845395 0.4824087654235041 0
367 0.455036473080734 0.5909240157334057 0
368 0.3854256608194321 0.1833006636487679 0
369 0.3755356435631676 0.2293195819324996 0
370 0.4199088959864457 0.2654520980201028 0
371 0.4740050031950983 0.1553483117907555 0
372 0.4766977660327396 0.2025138624994793 0
373 0.4679823755468548 0.2495072101244841 0
374 0.6728544481021048 0.162316147776441 0
375 0.6885674620830373 0.09992241045838257 0
376 0.1501956653500989 0.7179955185067781 0
377 0.2082335767297003 0.6944859073573537 0
378 0.2233098763956486 0.7547597976777813 0
379 0.1676090026303327 0.7693244840272584 0
380 0.4531320103317317 0.09985022717179629 0
381 0.4179323484253035 0.04681320450374079 0
382 0.4122932452706838 0.1491244936264408 0
383 0.2279122793267321 0.5923659908416505 0
384 0.1674338963869685 0.555057827473894 0
385 0.2872959592676986 0.6275956028093417 0
386 0.285193587631427 0.5624816821754322 0
387 0.03707210384285252 0.0354817888216036 0
388 0.09262765939830692 0.0354817888216036 0
389 0.03707210384285252 0.09103734437739028 0
390 0.3645526679560655 0.1278025790298087 0
391 0.3382344495902087 0.09135474520936213 0
392 0.0831222148067344 0.1137537248823706 0
393 0.1208269565377788 0.07906324131306797 0
394 0.1836973161869047 0.9576349145222827 0
395 0.128141760631118 0.9576349145222827 0
396 0.2040832682279404 0.9019386750504155 0
397 0.1469689564574656 0.8612134469299674 0
398 0.3623767928699099 0.04681320450374079 0
399 0.3287722796463655 0.4303667693977089 0
400 0.2885496214275527 0.4596515808698183 0
401 0.1230315632450162 0.5175185880010091 0
402 0.1814075745485082 0.4897128307348562 0
403 0.3395810423043948 0.5411843067047653 0
404 0.2801973623634283 0.505954694737074 0
405 0.2341621667545848 0.4809489563404853 0
406 0.1585536008387775 0.3339800466407395 0
407 0.1234808624996438 0.3956961741979336 0
408 0.05497824179636589 0.336276045234308 0
409 0.1087727159410878 0.3004437919641839 0
410 0.4005855108789771 0.6257096094396875 0
411 0.3463458248133932 0.6548932502041216 0
412 0.3990282297741504 0.5629257004368416 0
413 0.05497824179636589 0.3918316007900947 0
414 0.06850262070327794 0.4483090178541325 0
415 0.05452894254173823 0.624765125703819 0
416 0.05452894254173823 0.5692095701486488 0
417 0.08528683335299227 0.5458114393707187 0
418 0.03075789081125404 0.5321574247793206 0
419 0.03075789081125404 0.4766018692238421 0
420 0.09926051151453197 0.480466442631681 0
421 0.03494934684707178 0.8222426893860164 0
422 0.109332098229206 0.8369323329047352 0
423 0.1075355519224031 0.8909887150193333 0
424 0.03494934684707178 0.8777982449412637 0
425 0.1052044265709693 0.924721546414992 0
426 0.08817377705142462 0.9670866318927093 0
427 0.03261822149563796 0.9670866318927093 0
428 0.03261822149563796 0.9115310763369224 0
429 0.06756756834270974 0.9004404323897599 0
$EndNodes
$Elements
236
1 15 2 0 1 1
2 15 2 0 2 2
3 15 2 0 3 3
4 15 2 0 4 4
5 8 2 0 1 1 5 13
6 8 2 0 1 5 6 14
7 8 2 0 1 6 7 15
8 8 2 0 1 7 8 16
9 8 2 0 1 8 9 17
10 8 2 0 1 9 10 18
11 8 2 0 1 10 11 19
12 8 2 0 1 11 12 20
13 8 2 0 1 12 2 21
14 8 2 0 2 2 22 30
15 8 2 0 2 22 23 31
16 8 2 0 2 23 24 32
17 8 2 0 2 24 25 33
18 8 2 0 2 25 26 34
19 8 2 0 2 26 27 35
20 8 2 0 2 27 28 36
21 8 2 0 2 28 29 37
22 8 2 0 2 29 3 38
23 8 2 0 3 3 39 47
24 8 2 0 3 39 40 48
25 8 2 0 3 40 41 49
26 8 2 0 3 41 42 50
27 8 2 0 3 42 43 51
28 8 2 0 3 43 44 52
29 8 2 0 3 44 45 53
30 8 2 0 3 45 46 54
31 8 2 0 3 46 4 55
32 8 2 0 4 4 56 64
33 8 2 0 4 56 57 65
34 8 2 0 4 57 58 66
35 8 2 0 4 58 59 67
36 8 2 0 4 59 60 68
37 8 2 0 4 60 61 69
38 8 2 0 4 61 62 70
39 8 2 0 4 62 63 71
40 8 2 0 4 63 1 72
41 9 2 0 6 39 40 77 48 154 155
42 9 2 0 6 5 6 79 14 156 157
43 9 2 0 6 22 23 78 31 158 159
44 9 2 0 6 86 8 9 160 17 161
45 9 2 0 6 87 42 43 162 51 163
46 9 2 0 6 96 91 75 164 165 166
47 9 2 0 6 78 91 96 167 164 168
48 9 2 0 6 93 28 29 169 37 170
49 9 2 0 6 95 11 12 171 20 172
50 9 2 0 6 94 62 63 173 71 174
51 9 2 0 6 95 78 96 175 168 176
52 9 2 0 6 58 92 57 177 178 66
53 9 2 0 6 97 87 80 179 180 181
54 9 2 0 6 100 98 80 182 183 184
55 9 2 0 6 76 99 101 185 186 187
56 9 2 0 6 103 97 80 188 181 189
57 9 2 0 6 105 99 82 190 191 192
58 9 2 0 6 89 103 106 193 194 195
59 9 2 0 6 106 73 89 196 197 195
60 9 2 0 6 90 75 107 198 199 200
61 9 2 0 6 107 75 91 199 165 201
62 9 2 0 6 89 102 108 202 203 204
63 9 2 0 6 111 107 91 205 201 206
64 9 2 0 6 112 73 82 207 208 209
65 9 2 0 6 43 44 113 52 210 211
66 9 2 0 6 26 27 114 35 212 213
67 9 2 0 6 114 104 26 214 215 213
68 9 2 0 6 116 27 28 216 36 217
69 9 2 0 6 28 93 116 169 218 217
70 9 2 0 6 117 108 83 219 220 221
71 9 2 0 6 118 24 25 222 33 223
72 9 2 0 6 90 107 119 200 224 225
73 9 2 0 6 120 77 74 226 227 228
74 9 2 0 6 120 117 93 229 230 231
75 9 2 0 6 93 77 120 232 226 231
76 9 2 0 6 74 117 120 233 229 228
77 9 2 0 6 74 97 123 234 235 236
78 9 2 0 6 89 108 123 204 237 238
79 9 2 0 6 80 98 124 183 239 240
80 9 2 0 6 124 103 80 241 189 240
81 9 2 0 6 125 112 82 242 209 243
82 9 2 0 6 9 10 127 18 244 245
83 9 2 0 6 95 96 130 176 246 247
84 9 2 0 6 130 11 95 248 171 247
85 9 2 0 6 23 24 131 32 249 250
86 9 2 0 6 91 78 131 167 251 252
87 9 2 0 6 131 78 23 251 158 250
88 9 2 0 6 132 105 82 253 192 254
89 9 2 0 6 82 73 132 208 255 254
90 9 2 0 6 134 44 45 256 53 257
91 9 2 0 6 90 112 135 258 259 260
92 9 2 0 6 136 112 90 261 258 262
93 9 2 0 6 73 112 136 207 261 263
94 9 2 0 6 137 42 87 264 162 265
95 9 2 0 6 29 3 138 38 266 267
96 9 2 0 6 138 3 39 266 47 268
97 9 2 0 6 12 2 139 21 269 270
98 9 2 0 6 139 2 22 269 30 271
99 9 2 0 6 132 73 106 255 196 272
100 9 2 0 6 114 27 116 212 216 273
101 9 2 0 6 114 116 83 273 274 275
102 9 2 0 6 10 11 130 19 248 276
103 9 2 0 6 75 130 96 277 246 166
104 9 2 0 6 41 42 137 50 264 278
105 9 2 0 6 131 24 118 249 222 279
106 9 2 0 6 91 131 118 252 279 280
107 9 2 0 6 113 44 134 210 256 281
108 9 2 0 6 117 83 116 221 274 282
109 9 2 0 6 93 117 116 230 282 218
110 9 2 0 6 125 82 99 243 191 283
111 9 2 0 6 103 89 123 193 238 284
112 9 2 0 6 103 123 97 284 235 188
113 9 2 0 6 100 110 98 285 286 182
114 9 2 0 6 99 105 101 190 287 186
115 9 2 0 6 136 90 119 262 225 288
116 9 2 0 6 126 83 108 289 220 290
117 9 2 0 6 102 126 108 291 290 203
118 9 2 0 6 103 124 106 241 292 194
119 9 2 0 6 111 91 118 206 280 293
120 9 2 0 6 114 83 126 275 289 294
121 9 2 0 6 114 126 104 294 295 214
122 9 2 0 6 105 132 115 253 296 297
123 9 2 0 6 111 119 107 298 224 205
124 9 2 0 6 117 74 123 233 236 299
125 9 2 0 6 117 123 108 299 237 219
126 9 2 0 6 125 81 135 300 301 302
127 9 2 0 6 125 135 112 302 259 242
128 9 2 0 6 25 26 104 34 215 303
129 9 2 0 6 25 104 118 303 304 223
130 9 2 0 6 111 118 104 293 304 305
131 9 2 0 6 133 110 134 306 307 308
132 9 2 0 6 22 78 139 159 309 271
133 9 2 0 6 139 78 95 309 175 310
134 9 2 0 6 95 12 139 172 270 310
135 9 2 0 6 57 92 133 178 311 312
136 9 2 0 6 75 90 135 198 260 313
137 9 2 0 6 135 121 75 314 315 313
138 9 2 0 6 81 121 135 316 314 301
139 9 2 0 6 102 89 73 202 197 317
140 9 2 0 6 136 102 73 318 317 263
141 9 2 0 6 102 136 119 318 288 319
142 9 2 0 6 39 77 138 155 320 268
143 9 2 0 6 138 77 93 320 232 321
144 9 2 0 6 93 29 138 170 267 321
145 9 2 0 6 137 97 74 322 234 323
146 9 2 0 6 87 97 137 179 322 265
147 9 2 0 6 87 43 113 163 211 324
148 9 2 0 6 113 80 87 325 180 324
149 9 2 0 6 80 113 100 325 326 184
150 9 2 0 6 76 101 122 187 327 328
151 9 2 0 6 121 81 86 316 329 330
152 9 2 0 6 62 94 88 173 331 332
153 9 2 0 6 86 9 127 161 245 333
154 9 2 0 6 86 127 121 333 334 330
155 9 2 0 6 85 122 142 335 336 337
156 9 2 0 6 142 122 101 336 327 338
157 9 2 0 6 143 137 74 339 323 340
158 9 2 0 6 74 77 143 227 341 340
159 9 2 0 6 41 137 143 278 339 342
160 9 2 0 6 122 88 144 343 344 345
161 9 2 0 6 94 79 144 346 347 348
162 9 2 0 6 94 144 88 348 344 331
163 9 2 0 6 6 7 141 15 349 350
164 9 2 0 6 76 122 144 328 345 351
165 9 2 0 6 76 144 128 351 352 353
166 9 2 0 6 41 143 40 342 354 49
167 9 2 0 6 40 143 77 354 341 154
168 9 2 0 6 110 100 134 285 355 307
169 9 2 0 6 113 134 100 281 355 326
170 9 2 0 6 61 62 88 70 332 356
171 9 2 0 6 129 92 84 357 358 359
172 9 2 0 6 129 98 110 360 286 361
173 9 2 0 6 6 141 79 350 362 156
174 9 2 0 6 144 79 141 347 362 363
175 9 2 0 6 141 128 144 364 352 363
176 9 2 0 6 126 102 119 291 319 365
177 9 2 0 6 111 104 126 305 295 366
178 9 2 0 6 111 126 119 366 365 298
179 9 2 0 6 124 132 106 367 272 292
180 9 2 0 6 128 140 76 368 369 353
181 9 2 0 6 76 140 99 369 370 185
182 9 2 0 6 140 86 81 371 329 372
183 9 2 0 6 140 125 99 373 283 370
184 9 2 0 6 125 140 81 373 372 300
185 9 2 0 6 127 75 121 374 315 334
186 9 2 0 6 75 127 130 374 375 277
187 9 2 0 6 10 130 127 276 375 244
188 9 2 0 6 145 92 129 376 357 377
189 9 2 0 6 145 110 133 378 306 379
190 9 2 0 6 133 92 145 311 376 379
191 9 2 0 6 129 110 145 361 378 377
192 9 2 0 6 8 86 146 160 380 381
193 9 2 0 6 146 86 140 380 371 382
194 9 2 0 6 148 129 84 383 359 384
195 9 2 0 6 109 129 148 385 383 386
196 9 2 0 6 149 1 5 387 13 388
197 9 2 0 6 63 1 149 72 387 389
198 9 2 0 6 146 140 128 382 368 390
199 9 2 0 6 141 146 128 391 390 364
200 9 2 0 6 149 94 63 392 174 389
201 9 2 0 6 79 94 149 346 392 393
202 9 2 0 6 149 5 79 388 157 393
203 9 2 0 6 147 45 46 394 54 395
204 9 2 0 6 134 45 147 257 394 396
205 9 2 0 6 147 133 134 397 308 396
206 9 2 0 6 8 146 7 381 398 16
207 9 2 0 6 7 146 141 398 391 349
208 9 2 0 6 105 115 101 297 399 287
209 9 2 0 6 142 101 115 338 399 400
210 9 2 0 6 148 84 85 384 401 402
211 9 2 0 6 115 109 148 403 386 404
212 9 2 0 6 142 148 85 405 402 337
213 9 2 0 6 148 142 115 405 400 404
214 9 2 0 6 150 122 85 406 335 407
215 9 2 0 6 150 61 88 408 356 409
216 9 2 0 6 88 122 150 343 406 409
217 9 2 0 6 109 124 98 410 239 411
218 9 2 0 6 109 98 129 411 360 385
219 9 2 0 6 132 109 115 412 403 296
220 9 2 0 6 109 132 124 412 367 410
221 9 2 0 6 60 61 150 69 408 413
222 9 2 0 6 60 150 85 413 407 414
223 9 2 0 6 84 92 58 358 177 415
224 9 2 0 6 58 59 84 67 416 415
225 9 2 0 6 151 84 59 417 416 418
226 9 2 0 6 151 60 85 419 414 420
227 9 2 0 6 85 84 151 401 417 420
228 9 2 0 6 59 60 151 68 419 418
229 9 2 0 6 152 57 133 421 312 422
230 9 2 0 6 133 147 152 397 423 422
231 9 2 0 6 56 57 152 65 421 424
232 9 2 0 6 153 147 46 425 395 426
233 9 2 0 6 153 4 56 427 64 428
234 9 2 0 6 46 4 153 55 427 426
235 9 2 0 6 153 56 152 428 424 429
236 9 2 0 6 147 153 152 425 429 423
$EndElements
