$MeshFormat
2.2 0 8
$EndMeshFormat
$Nodes
493
1 0 0 0
2 1 0 0
3 1 1 0
4 0 1 0
5 0.1111111111109088 0 0
6 0.2222222222217153 0 0
7 0.3333333333325025 0 0
8 0.4444444444432898 0 0
9 0.5555555555543853 0 0
10 0.6666666666657889 0 0
11 0.7777777777771926 0 0
12 0.8888888888885963 0 0
13 0.05555555555544189 0 0
14 0.1666666666663204 0 0
15 0.2777777777771089 0 0
16 0.3888888888878962 0 0
17 0.4999999999986833 0 0
18 0.6111111111100871 0 0
19 0.7222222222214907 0 0
20 0.8333333333328945 0 0
21 0.9444444444442981 0 0
22 1 0.1111111111109088 0
23 1 0.2222222222217153 0
24 1 0.3333333333325025 0
25 1 0.4444444444432898 0
26 1 0.5555555555543853 0
27 1 0.6666666666657889 0
28 1 0.7777777777771926 0
29 1 0.8888888888885963 0
30 1 0.05555555555544189 0
31 1 0.1666666666663204 0
32 1 0.2777777777771089 0
33 1 0.3888888888878962 0
34 1 0.4999999999986833 0
35 1 0.6111111111100871 0
36 1 0.7222222222214907 0
37 1 0.8333333333328945 0
38 1 0.9444444444442981 0
39 0.8888888888884262 1 0
40 0.7777777777779317 1 0
41 0.6666666666675911 1 0
42 0.5555555555572507 1 0
43 0.4444444444462936 1 0
44 0.3333333333347203 1 0
45 0.2222222222231468 1 0
46 0.1111111111115733 1 0
47 0.9444444444441982 1 0
48 0.8333333333331641 1 0
49 0.7222222222228009 1 0
50 0.6111111111124209 1 0
51 0.5000000000019931 1 0
52 0.3888888888905069 1 0
53 0.2777777777789335 1 0
54 0.1666666666673601 1 0
55 0.05555555555578673 1 0
56 0 0.8888888888884262 0
57 0 0.7777777777779317 0
58 0 0.6666666666675911 0
59 0 0.5555555555572507 0
60 0 0.4444444444462936 0
61 0 0.3333333333347203 0
62 0 0.2222222222231468 0
63 0 0.1111111111115733 0
64 0 0.9444444444441982 0
65 0 0.8333333333331641 0
66 0 0.7222222222228009 0
67 0 0.6111111111124209 0
68 0 0.5000000000019931 0
69 0 0.3888888888905069 0
70 0 0.2777777777789335 0
71 0 0.1666666666673601 0
72 0 0.05555555555578673 0
73 0.5013943845208186 0.5024115467859701 0
74 0.7098644449714926 0.7098546503727191 0
75 0.2926084938898061 0.7106725775881213 0
76 0.7108258243027016 0.2885043670642009 0
77 0.2895716973897655 0.292599880923191 0
78 0.4940641293575209 0.7820650995314357 0
79 0.7828679337397544 0.509697785335099 0
80 0.2180169788150647 0.4940842998958202 0
81 0.50966546311713 0.2172020706619878 0
82 0.8332295103196888 0.8310408135241364 0
83 0.1695313066331785 0.8326573901624551 0
84 0.8304686933668316 0.1673426098375611 0
85 0.167342609837524 0.1695313066332166 0
86 0.5803548462248879 0.6363295655528373 0
87 0.3678243346276859 0.5798050164186364 0
88 0.6362154806061212 0.4209628921355825 0
89 0.4225473398294926 0.3687452376722879 0
90 0.647493401903169 0.8452975425994054 0
91 0.156161318290157 0.6473456467277788 0
92 0.8452892520433998 0.3527678854263154 0
93 0.3527226343211415 0.1548087541190325 0
94 0.8470903300657058 0.6479337505522184 0
95 0.6479337505522087 0.1529096699342933 0
96 0.353761587630873 0.8455935639746052 0
97 0.1530669229065146 0.35356042622697 0
98 0.6777842109714698 0.5767310953172258 0
99 0.4343236949052321 0.6748519885482224 0
100 0.5772993052178511 0.3213577915719512 0
101 0.3254185041845332 0.43442825863665 0
102 0.5000000000013374 0.9029156771016564 0
103 0.09708432289835323 0.5000000000013404 0
104 0.9029156771017184 0.4999999999991028 0
105 0.4999999999990997 0.09708432289829123 0
106 0.7321255176544305 0.9019155990666312 0
107 0.09808440093338638 0.7321255176544609 0
108 0.9019155990666387 0.2678744823455543 0
109 0.2678744823455239 0.09808440093337897 0
110 0.9022151698406518 0.730426713092884 0
111 0.7304267130928588 0.09778483015933372 0
112 0.2695732869073127 0.9022151698406282 0
113 0.0977848301593572 0.2695732869073379 0
114 0.6081622218345739 0.7468567478406561 0
115 0.2540050747974058 0.6083740124867109 0
116 0.7467945686701438 0.3937974331361169 0
117 0.3934580498474768 0.253940477547959 0
118 0.5898229466140079 0.5221443723652175 0
119 0.522473806119058 0.412304896416724 0
120 0.380205236684974 0.7556781926434527 0
121 0.244321807356556 0.3802052366849659 0
122 0.9084514913982369 0.9084514913982152 0
123 0.09180744770539176 0.9084357408274999 0
124 0.9081925522945904 0.0915642591724385 0
125 0.09156425917241424 0.09180744770543707 0
126 0.7288815758202163 0.7950826919415076 0
127 0.2055124133860184 0.7289149144798077 0
128 0.7951192012799857 0.271247521345685 0
129 0.2713233764491887 0.2053539940096527 0
130 0.7982000961473282 0.7243332262090242 0
131 0.724381622110259 0.2016965737814247 0
132 0.2775036664324819 0.7979326725624577 0
133 0.2019721110806434 0.2774627560161684 0
134 0.4864602339870515 0.5874090393279942 0
135 0.4154882605407796 0.4867774317475717 0
136 0.7587803672442425 0.6280376344816284 0
137 0.6282861200846005 0.2411660663795823 0
138 0.07916360926525709 0.6097911566446959 0
139 0.6104776998103112 0.9205840354667649 0
140 0.3903975994198429 0.9208696763763812 0
141 0.07920095283670156 0.3898281482686248 0
142 0.9208165197157838 0.6103378713739344 0
143 0.610337871373929 0.07918348028421698 0
144 0.3895463042148457 0.07942777527968049 0
145 0.9205831142939331 0.389551332115426 0
146 0.8256189137451333 0.9276461313104655 0
147 0.07246467659098837 0.8255405309814172 0
148 0.9279779003197558 0.8251005802307046 0
149 0.1750102276708664 0.9278995175560468 0
150 0.8249897723292269 0.07210048244396733 0
151 0.07210048244393853 0.1750102276708979 0
152 0.9275353234089702 0.174459469018435 0
153 0.1744594690184135 0.07246467659103747 0
154 0.3486894969097919 0.6608778455869576 0
155 0.6911243409712058 0.4887805477030345 0
156 0.3397487125854416 0.3488164644511045 0
157 0.4890619324819386 0.3098137409584588 0
158 0.4294155326890829 0.841742769993673 0
159 0.1580989892650961 0.4293154737535095 0
160 0.8424559190922251 0.5725092132891874 0
161 0.5725380350738486 0.1575462726445249 0
162 0.5677346014448413 0.8404890223814439 0
163 0.8405865481561121 0.4330669837444011 0
164 0.159797698499381 0.5676542898247704 0
165 0.4330107191427474 0.1595353113580118 0
166 0.6600058492661091 0.6582160190486621 0
167 0.5179307376725223 0.692294339411374 0
168 0.3084214331083509 0.5179022970212647 0
169 0.6592696603660219 0.3419542148743806 0
170 0.7709568849750648 0.3325224772409009 0
171 0.8202042266616927 0.3120077033860002 0
172 0.7960419103567717 0.3732826592812162 0
173 0.3323907131483328 0.2296472357788059 0
174 0.3120230053851651 0.1800813740643426 0
175 0.3730903420843091 0.2043746158334958 0
176 0.7288101964864226 0.3411509001001589 0
177 0.7529725127913436 0.2798759442049429 0
178 0.3415148736186212 0.273270179235575 0
179 0.2804475369194771 0.2489769374664219 0
180 0.4689810333299188 0.4495411640821478 0
181 0.4190178001851361 0.4277613347099298 0
182 0.4725105729742753 0.390525067044506 0
183 0.6685218988273951 0.7709697198910819 0
184 0.6881874888616926 0.8201901172704564 0
185 0.6278278118688714 0.7960771452200308 0
186 0.2297587440917121 0.6686444634832593 0
187 0.1808368658380877 0.6881302806037932 0
188 0.2050831965437814 0.6278598296072448 0
189 0.7193730103958544 0.7524686711571134 0
190 0.6590133334030333 0.7283556991066876 0
191 0.273306784343606 0.6595232950374161 0
192 0.2490604536379122 0.7197937460339645 0
193 0.5119340953199383 0.4573582216013471 0
194 0.4584413225307991 0.4945944892667709 0
195 0.5561483763665329 0.4672246343909707 0
196 0.5793446433625896 0.4166338942761533 0
197 0.6130192136100645 0.4715536322504 0
198 0.5456086655674133 0.5122779595755937 0
199 0.7708241504919984 0.5688677099083637 0
200 0.7182822891078562 0.6023843648994271 0
201 0.7303260723556121 0.5432144403261624 0
202 0.5689757916008653 0.229184068520785 0
203 0.6027927126512258 0.2812619289757667 0
204 0.5434823841674905 0.2692799311169695 0
205 0.4271422843073687 0.5836070278733152 0
206 0.4603919644461418 0.6311305139381083 0
207 0.401074014766459 0.6273285024834294 0
208 0.3704533823626563 0.4606028451921108 0
209 0.3739829220070129 0.4015867481544689 0
210 0.3916562975842327 0.533291224083104 0
211 0.4509742472639156 0.5370932355377829 0
212 0.3014533101210165 0.9511075849203141 0
213 0.3299854431635778 0.9115424231085048 0
214 0.3618654663772816 0.9604348381881906 0
215 0.0488924150796786 0.301453310121029 0
216 0.08849289149802939 0.3297007175879814 0
217 0.03960047641835078 0.3615807408016725 0
218 0.9511075849203259 0.6985466898793364 0
219 0.9115158447782178 0.6703822922334092 0
220 0.9604082598578919 0.6385022690198616 0
221 0.6985466898793238 0.04889241507966686 0
222 0.670382292233394 0.08848415522177536 0
223 0.638502269019859 0.03959174014210849 0
224 0.03958180463262854 0.6382289116561435 0
225 0.08862400509932174 0.6709583371495784 0
226 0.04904220046669319 0.6993960921610261 0
227 0.6385721832389512 0.9602920177333825 0
228 0.6713016087323709 0.9112498172666981 0
229 0.6993960921610107 0.9509577995333156 0
230 0.3614398187736741 0.03971388763984025 0
231 0.3287103932801848 0.08875608810652974 0
232 0.3006039078390133 0.04904220046668949 0
233 0.9602915571469666 0.3614423327239643 0
234 0.9112493566802859 0.3287129072304901 0
235 0.9509577995333194 0.3006039078390284 0
236 0.8986701901433316 0.9542257456991077 0
237 0.9542257456991184 0.9542257456991077 0
238 0.9540962761472952 0.1013376851416737 0
239 0.9540962761472952 0.04578212958621925 0
240 0.04590372385269588 0.8986623148579631 0
241 0.04590372385269588 0.9542178704137499 0
242 0.1013376851416615 0.04590372385271854 0
243 0.04578212958620712 0.04590372385271854 0
244 0.8985407205915934 0.04578212958621925 0
245 0.04578212958620712 0.1014592794085052 0
246 0.9542257456991184 0.8986701901434058 0
247 0.1014592794084826 0.9542178704137499 0
248 0.4371346830212475 0.7688716460874442 0
249 0.4072644657951031 0.7152650905958375 0
250 0.4641939121313765 0.728458544039829 0
251 0.2311693930858104 0.4371447682903931 0
252 0.2848701557705446 0.4073167476608079 0
253 0.2717177414997989 0.4642562792662351 0
254 0.5850888964194478 0.5792369689590273 0
255 0.6338035787927389 0.5494377338412216 0
256 0.6290695285981789 0.6065303304350316 0
257 0.5498865556684546 0.3668313439943376 0
258 0.6067573929119862 0.3711603418537669 0
259 0.6688950301187895 0.6174735571829439 0
260 0.6201803477454985 0.6472727923007497 0
261 0.4761272162888772 0.6835731639797982 0
262 0.5059974335150216 0.7371797194714048 0
263 0.6182844827919365 0.3316560032231659 0
264 0.6477425704860715 0.3814585535049816 0
265 0.316919968646442 0.4761652778289573 0
266 0.2632192059617078 0.5059932984585425 0
267 0.04904220046669319 0.7549516477161963 0
268 0.7549516477161811 0.9509577995333156 0
269 0.2458977545652297 0.9511075849203141 0
270 0.9511075849203259 0.7541022454350383 0
271 0.2450483522836196 0.04904220046668949 0
272 0.0488924150796786 0.2458977545652423 0
273 0.9509577995333194 0.2450483522836348 0
274 0.7541022454350257 0.04889241507966686 0
275 0.3116674372690929 0.8739043669076167 0
276 0.372079593525358 0.8832316201754932 0
277 0.1254258765329359 0.3115668565671539 0
278 0.1161339378716081 0.3716942872477974 0
279 0.8746527499531788 0.6891802318225512 0
280 0.8839534248907448 0.6291358109630764 0
281 0.6891802318225337 0.1253472500468135 0
282 0.6291358109630689 0.1160465751092551 0
283 0.1176624637777071 0.6285684016862374 0
284 0.1271228596117717 0.6897355821911199 0
285 0.6289855508567401 0.8829407890330851 0
286 0.6898094597787997 0.8736065708330183 0
287 0.3711344692679935 0.1171182646993565 0
288 0.3102985583333327 0.1264465775262058 0
289 0.8829361831686664 0.3711596087708707 0
290 0.8736024255550192 0.3103211838859349 0
291 0.5334075401059697 0.6118693024404157 0
292 0.5381415903005297 0.5547767058466058 0
293 0.8126619264159898 0.5411034993121432 0
294 0.8006181431682338 0.6002734238854079 0
295 0.5411017490954892 0.1873741716532563 0
296 0.6004120775792245 0.1993561695120536 0
297 0.6844542759713378 0.5327558215101301 0
298 0.7369961373554801 0.4992391665190667 0
299 0.391506595907512 0.66786491706759 0
300 0.3582569157687389 0.620341431002797 0
301 0.5331806188498949 0.315585766265205 0
302 0.4993636977995343 0.2635079058102233 0
303 0.3325836083849874 0.3916223615438773 0
304 0.3811480262074671 0.3587808510616962 0
305 0.493927309253935 0.5449102930569821 0
306 0.4722222222238155 0.9514578385508282 0
307 0.527777777779294 0.9514578385508282 0
308 0.04854216144917661 0.472222222223817 0
309 0.04854216144917661 0.5277777777792956 0
310 0.9514578385508592 0.5277777777767441 0
311 0.9514578385508592 0.4722222222211963 0
312 0.5277777777767425 0.04854216144914562 0
313 0.4722222222211948 0.04854216144914562 0
314 0.461739831023302 0.8119039347625543 0
315 0.4048103846870285 0.7987104813185628 0
316 0.1880579840400804 0.4616998868246648 0
317 0.201210398310826 0.4047603552192377 0
318 0.5552388499058243 0.9117498562842107 0
319 0.5830166276837809 0.9602920177333825 0
320 0.08812396608180516 0.5548955783230181 0
321 0.03958180463262854 0.5826733561009733 0
322 0.4174210219330683 0.9604348381881906 0
323 0.4451987997105902 0.9118926767390187 0
324 0.03960047641835078 0.4171362963574592 0
325 0.08814263786752739 0.4449140741349826 0
326 0.9117493956978258 0.4447756660572644 0
327 0.9602915571469666 0.4169978882793579 0
328 0.4447731521069727 0.08825604908898586 0
329 0.4169953743290677 0.03971388763984025 0
330 0.9604082598578919 0.5829467134641598 0
331 0.9118660984087511 0.5551689356865186 0
332 0.5829467134641572 0.03959174014210849 0
333 0.5551689356865144 0.08813390159125412 0
334 0.7305035467373233 0.8484991455040694 0
335 0.1517984071597024 0.7305202160671342 0
336 0.8485174001733122 0.2695610018456196 0
337 0.2695989293973563 0.1517191974715159 0
338 0.8677223400801704 0.7807337633085102 0
339 0.8157148032335085 0.7776870198665803 0
340 0.85020763299399 0.7273799696509541 0
341 0.2195522967702456 0.8674362800015416 0
342 0.2235174865328302 0.8152950313624564 0
343 0.2735384766698973 0.8500739212015429 0
344 0.7804477032298451 0.1325637199984474 0
345 0.7774251577385454 0.1845195918094929 0
346 0.7274041676015589 0.1497407019703792 0
347 0.1325637199984406 0.2195522967702772 0
348 0.1846573604590837 0.2234970313246925 0
349 0.1498784706200003 0.2735180214617532 0
350 0.3288544515587279 0.7768054326029552 0
351 0.285056080161144 0.7543026250752896 0
352 0.3364068652873901 0.7331753851157869 0
353 0.3669834121579235 0.8006358783090289 0
354 0.3156326270316775 0.8217631182685314 0
355 0.2231469592185997 0.3288339963505672 0
356 0.2457719042352044 0.2850313184696797 0
357 0.2669467523731607 0.3364025588040784 0
358 0.1986943651315353 0.366882831455968 0
359 0.177519516993579 0.3155115911215692 0
360 0.3666033812164592 0.3013784709995317 0
361 0.3146602049876036 0.3207081726871478 0
362 0.4080026948384847 0.3113428576101235 0
363 0.5879484116397076 0.7936728851110499 0
364 0.5308993654011811 0.8112770609564397 0
365 0.5511131755960474 0.7644609236860459 0
366 0.2069013866483934 0.5880141511557406 0
367 0.1889073386572229 0.5308692948602953 0
368 0.2360110268062353 0.5512291561912656 0
369 0.5338673007230894 0.8717023497415501 0
370 0.5891061506275763 0.8805365289241044 0
371 0.1284410106988671 0.5338271449130554 0
372 0.119480653882319 0.5887227232347332 0
373 0.8717511126289152 0.466533491871752 0
374 0.8805848312250226 0.4113091579299135 0
375 0.4665053595709235 0.1283098171281515 0
376 0.4112785116787965 0.1194815433188461 0
377 0.8816362194040044 0.5914235423315608 0
378 0.8726857980969718 0.5362546066441451 0
379 0.409906566054463 0.881306223185027 0
380 0.4647077663452102 0.8723292235476647 0
381 0.5914379532238888 0.1183648764643709 0
382 0.5362690175364742 0.127315297771408 0
383 0.1186499710508988 0.4095718110110671 0
384 0.1275916560817246 0.464657736877425 0
385 0.3013472858535988 0.6346259290368342 0
386 0.320648995399799 0.6857752115875395 0
387 0.3109147047125458 0.5940895144526737 0
388 0.7648312512049491 0.451747609235608 0
389 0.7189594548206748 0.4412889904195757 0
390 0.6636699107886634 0.4548717199193085 0
391 0.6915050246381325 0.4073801626358497 0
392 0.4412599911647077 0.2818771092532089 0
393 0.4558046361557155 0.3392794893153733 0
394 0.4515617564823035 0.2355712741049734 0
395 0.1875218600095984 0.7807861523211315 0
396 0.2415080399092501 0.7634237935211328 0
397 0.7810555430699526 0.813061752732822 0
398 0.7635408359837723 0.7597079590752659 0
399 0.2193329931433564 0.1874426503214346 0
400 0.236647743764916 0.2414083750129106 0
401 0.8127939473234087 0.219295065591623 0
402 0.7597504116951224 0.2364720475635548 0
403 0.7826775139870596 0.8664782062953837 0
404 0.1338078537832825 0.782391453908458 0
405 0.8661921462167351 0.2176085460915577 0
406 0.217608546091524 0.1338078537832978 0
407 0.6076140016740051 0.8428932824904246 0
408 0.157979508394769 0.6074999682762746 0
409 0.8226452131065169 0.6861334883806213 0
410 0.6861576863312339 0.177303121857859 0
411 0.5630464797535482 0.7195755436260151 0
412 0.7030321145180829 0.3678758240052488 0
413 0.6850477423343617 0.3152292909692908 0
414 0.2812132539528783 0.5631381547539878 0
415 0.8429379000997559 0.3929174345853583 0
416 0.793690558413128 0.413432208440259 0
417 0.3928666767319444 0.1571720327385221 0
418 0.4132343844951121 0.2067378944529854 0
419 0.8117272409479332 0.4713823845397501 0
420 0.4713380911299387 0.1883686910099998 0
421 0.8016983457615325 0.9638230656552327 0
422 0.8572539013167797 0.9638230656552327 0
423 0.03623233829549419 0.8016591543796745 0
424 0.03623233829549419 0.8572147099349217 0
425 0.963767661704485 0.1983408456200751 0
426 0.963767661704485 0.1427852900646719 0
427 0.1983408456200644 0.03623233829551874 0
428 0.1427852900646611 0.03623233829551874 0
429 0.963988950159878 0.8569947345596505 0
430 0.963988950159878 0.8014391790039486 0
431 0.8569393306089116 0.03605024122198366 0
432 0.8013837750532098 0.03605024122198366 0
433 0.1430606693912199 0.9639497587780235 0
434 0.1986162249470066 0.9639497587780235 0
435 0.03605024122196927 0.1430606693912356 0
436 0.03605024122196927 0.1986162249470224 0
437 0.5491427919487051 0.6643119524821056 0
438 0.5021954858297869 0.6398516893696841 0
439 0.3381228838680184 0.5488536567199505 0
440 0.3619548468245652 0.5023398643844181 0
441 0.5942585340297308 0.6915931566967467 0
442 0.4970320646794292 0.842490388316546 0
443 0.157550650856709 0.4970421499485803 0
444 0.8428918054207364 0.5048488926671009 0
445 0.5048327315581149 0.1571431967801395 0
446 0.8294242120324111 0.8793434724173009 0
447 0.7788722156997818 0.9147808651885483 0
448 0.1209979916120835 0.8290989605719361 0
449 0.08527453876218738 0.7788330243179391 0
450 0.8790020083879009 0.1709010394279981 0
451 0.9147254612378044 0.2211669756819947 0
452 0.1709010394279687 0.120997991612127 0
453 0.2211669756819687 0.08527453876220822 0
454 0.9150965350802038 0.7777636466617943 0
455 0.8806037053197223 0.8280706968774205 0
456 0.2222917572890896 0.9150573436983376 0
457 0.1722707671520225 0.880278453859251 0
458 0.7777082427110429 0.08494265630165052 0
459 0.8277292328480292 0.1197215461407642 0
460 0.08494265630164786 0.2222917572891179 0
461 0.1197215461407313 0.1722707671520572 0
462 0.6340840355503414 0.7025363834446592 0
463 0.6849351471188008 0.6840353347106907 0
464 0.7093931082551758 0.6431268267651453 0
465 0.7343224061078675 0.6689461424271738 0
466 0.6437778902253112 0.2915601406269814 0
467 0.669555972193651 0.2648352167218916 0
468 0.391588560159978 0.843668166984139 0
469 0.1555829560858053 0.3914379499902397 0
470 0.8029353486549742 0.6379856925169234 0
471 0.8447731245789654 0.6102214819207028 0
472 0.6381099353184045 0.1970378681569378 0
473 0.6102358928130287 0.1552279712894091 0
474 0.6404736437926069 0.505462460034126 0
475 0.5057678693004983 0.3610593186875914 0
476 0.7784902316957854 0.6761854303453263 0
477 0.7540322705594105 0.7170939382908716 0
478 0.6763338710974298 0.2214313200805035 0
479 0.7176037232064802 0.2451004704228128 0
480 0.364447366797383 0.7082780191152052 0
481 0.2920352599709988 0.3645108505680352 0
482 0.8670352025716851 0.9180488113543404 0
483 0.9178639378517803 0.1330118640954368 0
484 0.08213606214819007 0.8669881359044586 0
485 0.1330118640954139 0.08213606214823727 0
486 0.9182146958589963 0.8667760358144599 0
487 0.8665911623119087 0.08183237080820291 0
488 0.1334088376881291 0.9181676291917733 0
489 0.08183237080817639 0.1334088376881675 0
490 0.8708405008589628 0.8697461524611758 0
491 0.1306693771692851 0.8705465654949776 0
492 0.8693306228307109 0.1294534345049998 0
493 0.1294534345049691 0.1306693771693268 0
$EndNodes
$Elements
268
1 15 2 0 1 1
2 15 2 0 2 2
3 15 2 0 3 3
4 15 2 0 4 4
5 8 2 0 1 1 5 13
6 8 2 0 1 5 6 14
7 8 2 0 1 6 7 15
8 8 2 0 1 7 8 16
9 8 2 0 1 8 9 17
10 8 2 0 1 9 10 18
11 8 2 0 1 10 11 19
12 8 2 0 1 11 12 20
13 8 2 0 1 12 2 21
14 8 2 0 2 2 22 30
15 8 2 0 2 22 23 31
16 8 2 0 2 23 24 32
17 8 2 0 2 24 25 33
18 8 2 0 2 25 26 34
19 8 2 0 2 26 27 35
20 8 2 0 2 27 28 36
21 8 2 0 2 28 29 37
22 8 2 0 2 29 3 38
23 8 2 0 3 3 39 47
24 8 2 0 3 39 40 48
25 8 2 0 3 40 41 49
26 8 2 0 3 41 42 50
27 8 2 0 3 42 43 51
28 8 2 0 3 43 44 52
29 8 2 0 3 44 45 53
30 8 2 0 3 45 46 54
31 8 2 0 3 46 4 55
32 8 2 0 4 4 56 64
33 8 2 0 4 56 57 65
34 8 2 0 4 57 58 66
35 8 2 0 4 58 59 67
36 8 2 0 4 59 60 68
37 8 2 0 4 60 61 69
38 8 2 0 4 61 62 70
39 8 2 0 4 62 63 71
40 8 2 0 4 63 1 72
41 9 2 0 6 116 128 92 170 171 172
42 9 2 0 6 117 129 93 173 174 175
43 9 2 0 6 116 76 128 176 177 170
44 9 2 0 6 117 77 129 178 179 173
45 9 2 0 6 119 135 89 180 181 182
46 9 2 0 6 114 126 90 183 184 185
47 9 2 0 6 115 127 91 186 187 188
48 9 2 0 6 74 126 114 189 183 190
49 9 2 0 6 115 75 127 191 192 186
50 9 2 0 6 119 73 135 193 194 180
51 9 2 0 6 118 119 88 195 196 197
52 9 2 0 6 118 73 119 198 193 195
53 9 2 0 6 79 136 98 199 200 201
54 9 2 0 6 81 137 100 202 203 204
55 9 2 0 6 87 134 99 205 206 207
56 9 2 0 6 89 135 101 181 208 209
57 9 2 0 6 87 135 134 210 211 205
58 9 2 0 6 44 112 140 212 213 214
59 9 2 0 6 61 113 141 215 216 217
60 9 2 0 6 27 110 142 218 219 220
61 9 2 0 6 10 111 143 221 222 223
62 9 2 0 6 58 138 107 224 225 226
63 9 2 0 6 41 139 106 227 228 229
64 9 2 0 6 7 144 109 230 231 232
65 9 2 0 6 24 145 108 233 234 235
66 9 2 0 6 3 39 122 47 236 237
67 9 2 0 6 2 22 124 30 238 239
68 9 2 0 6 4 56 123 64 240 241
69 9 2 0 6 1 5 125 13 242 243
70 9 2 0 6 2 124 12 239 244 21
71 9 2 0 6 1 125 63 243 245 72
72 9 2 0 6 3 122 29 237 246 38
73 9 2 0 6 4 123 46 241 247 55
74 9 2 0 6 78 120 99 248 249 250
75 9 2 0 6 80 121 101 251 252 253
76 9 2 0 6 86 118 98 254 255 256
77 9 2 0 6 88 119 100 196 257 258
78 9 2 0 6 86 98 166 256 259 260
79 9 2 0 6 78 99 167 250 261 262
80 9 2 0 6 88 100 169 258 263 264
81 9 2 0 6 80 101 168 253 265 266
82 9 2 0 6 57 58 107 66 226 267
83 9 2 0 6 40 41 106 49 229 268
84 9 2 0 6 44 45 112 53 269 212
85 9 2 0 6 27 28 110 36 270 218
86 9 2 0 6 6 7 109 15 232 271
87 9 2 0 6 61 62 113 70 272 215
88 9 2 0 6 23 24 108 32 235 273
89 9 2 0 6 10 11 111 19 274 221
90 9 2 0 6 112 96 140 275 276 213
91 9 2 0 6 113 97 141 277 278 216
92 9 2 0 6 110 94 142 279 280 219
93 9 2 0 6 111 95 143 281 282 222
94 9 2 0 6 107 138 91 225 283 284
95 9 2 0 6 106 139 90 228 285 286
96 9 2 0 6 109 144 93 231 287 288
97 9 2 0 6 108 145 92 234 289 290
98 9 2 0 6 118 86 134 254 291 292
99 9 2 0 6 79 160 136 293 294 199
100 9 2 0 6 81 161 137 295 296 202
101 9 2 0 6 79 98 155 201 297 298
102 9 2 0 6 87 99 154 207 299 300
103 9 2 0 6 81 100 157 204 301 302
104 9 2 0 6 89 101 156 209 303 304
105 9 2 0 6 73 134 135 305 211 194
106 9 2 0 6 42 43 102 51 306 307
107 9 2 0 6 59 60 103 68 308 309
108 9 2 0 6 25 26 104 34 310 311
109 9 2 0 6 8 9 105 17 312 313
110 9 2 0 6 118 134 73 292 305 198
111 9 2 0 6 120 78 158 248 314 315
112 9 2 0 6 121 80 159 251 316 317
113 9 2 0 6 42 102 139 307 318 319
114 9 2 0 6 59 103 138 309 320 321
115 9 2 0 6 43 140 102 322 323 306
116 9 2 0 6 60 141 103 324 325 308
117 9 2 0 6 25 104 145 311 326 327
118 9 2 0 6 8 105 144 313 328 329
119 9 2 0 6 26 142 104 330 331 310
120 9 2 0 6 9 143 105 332 333 312
121 9 2 0 6 106 90 126 286 184 334
122 9 2 0 6 107 91 127 284 187 335
123 9 2 0 6 108 92 128 290 171 336
124 9 2 0 6 109 93 129 288 174 337
125 9 2 0 6 110 82 130 338 339 340
126 9 2 0 6 112 83 132 341 342 343
127 9 2 0 6 111 84 131 344 345 346
128 9 2 0 6 113 85 133 347 348 349
129 9 2 0 6 120 132 75 350 351 352
130 9 2 0 6 120 96 132 353 354 350
131 9 2 0 6 121 133 77 355 356 357
132 9 2 0 6 121 97 133 358 359 355
133 9 2 0 6 117 156 77 360 361 178
134 9 2 0 6 117 89 156 362 304 360
135 9 2 0 6 114 162 78 363 364 365
136 9 2 0 6 115 164 80 366 367 368
137 9 2 0 6 102 162 139 369 370 318
138 9 2 0 6 103 164 138 371 372 320
139 9 2 0 6 104 163 145 373 374 326
140 9 2 0 6 105 165 144 375 376 328
141 9 2 0 6 104 142 160 331 377 378
142 9 2 0 6 102 140 158 323 379 380
143 9 2 0 6 105 143 161 333 381 382
144 9 2 0 6 103 141 159 325 383 384
145 9 2 0 6 115 154 75 385 386 191
146 9 2 0 6 115 87 154 387 300 385
147 9 2 0 6 116 79 155 388 298 389
148 9 2 0 6 116 155 88 389 390 391
149 9 2 0 6 117 157 89 392 393 362
150 9 2 0 6 117 81 157 394 302 392
151 9 2 0 6 83 127 132 395 396 342
152 9 2 0 6 82 126 130 397 398 339
153 9 2 0 6 85 129 133 399 400 348
154 9 2 0 6 84 128 131 401 402 345
155 9 2 0 6 106 126 82 334 397 403
156 9 2 0 6 107 127 83 335 395 404
157 9 2 0 6 108 128 84 336 401 405
158 9 2 0 6 109 129 85 337 399 406
159 9 2 0 6 114 90 162 185 407 363
160 9 2 0 6 115 91 164 188 408 366
161 9 2 0 6 110 130 94 340 409 279
162 9 2 0 6 111 131 95 346 410 281
163 9 2 0 6 112 132 96 343 354 275
164 9 2 0 6 113 133 97 349 359 277
165 9 2 0 6 114 78 167 365 262 411
166 9 2 0 6 116 169 76 412 413 176
167 9 2 0 6 115 80 168 368 266 414
168 9 2 0 6 116 92 163 172 415 416
169 9 2 0 6 117 93 165 175 417 418
170 9 2 0 6 116 163 79 416 419 388
171 9 2 0 6 117 165 81 418 420 394
172 9 2 0 6 39 40 146 48 421 422
173 9 2 0 6 56 57 147 65 423 424
174 9 2 0 6 22 23 152 31 425 426
175 9 2 0 6 5 6 153 14 427 428
176 9 2 0 6 28 29 148 37 429 430
177 9 2 0 6 11 12 150 20 431 432
178 9 2 0 6 45 46 149 54 433 434
179 9 2 0 6 62 63 151 71 435 436
180 9 2 0 6 86 167 134 437 438 291
181 9 2 0 6 99 134 167 206 438 261
182 9 2 0 6 87 168 135 439 440 210
183 9 2 0 6 101 135 168 208 440 265
184 9 2 0 6 114 167 86 411 437 441
185 9 2 0 6 115 168 87 414 439 387
186 9 2 0 6 116 88 169 391 264 412
187 9 2 0 6 102 78 162 442 364 369
188 9 2 0 6 102 158 78 380 314 442
189 9 2 0 6 103 80 164 443 367 371
190 9 2 0 6 103 159 80 384 316 443
191 9 2 0 6 104 79 163 444 419 373
192 9 2 0 6 104 160 79 378 293 444
193 9 2 0 6 105 81 165 445 420 375
194 9 2 0 6 105 161 81 382 295 445
195 9 2 0 6 106 82 146 403 446 447
196 9 2 0 6 107 83 147 404 448 449
197 9 2 0 6 108 84 152 405 450 451
198 9 2 0 6 109 85 153 406 452 453
199 9 2 0 6 110 148 82 454 455 338
200 9 2 0 6 112 149 83 456 457 341
201 9 2 0 6 111 150 84 458 459 344
202 9 2 0 6 113 151 85 460 461 347
203 9 2 0 6 74 114 166 190 462 463
204 9 2 0 6 114 86 166 441 260 462
205 9 2 0 6 74 166 136 463 464 465
206 9 2 0 6 98 136 166 200 464 259
207 9 2 0 6 76 169 137 413 466 467
208 9 2 0 6 100 137 169 203 466 263
209 9 2 0 6 120 158 96 315 468 353
210 9 2 0 6 121 159 97 317 469 358
211 9 2 0 6 43 44 140 52 214 322
212 9 2 0 6 60 61 141 69 217 324
213 9 2 0 6 26 27 142 35 220 330
214 9 2 0 6 9 10 143 18 223 332
215 9 2 0 6 58 59 138 67 321 224
216 9 2 0 6 41 42 139 50 319 227
217 9 2 0 6 7 8 144 16 329 230
218 9 2 0 6 24 25 145 33 327 233
219 9 2 0 6 94 136 160 470 294 471
220 9 2 0 6 95 137 161 472 296 473
221 9 2 0 6 118 155 98 474 297 255
222 9 2 0 6 118 88 155 197 390 474
223 9 2 0 6 119 157 100 475 301 257
224 9 2 0 6 119 89 157 182 393 475
225 9 2 0 6 74 136 130 465 476 477
226 9 2 0 6 94 130 136 409 476 470
227 9 2 0 6 76 137 131 467 478 479
228 9 2 0 6 95 131 137 410 478 472
229 9 2 0 6 40 106 146 268 447 421
230 9 2 0 6 57 107 147 267 449 423
231 9 2 0 6 23 108 152 273 451 425
232 9 2 0 6 6 109 153 271 453 427
233 9 2 0 6 28 148 110 430 454 270
234 9 2 0 6 11 150 111 432 458 274
235 9 2 0 6 45 149 112 434 456 269
236 9 2 0 6 62 151 113 436 460 272
237 9 2 0 6 120 75 154 352 386 480
238 9 2 0 6 120 154 99 480 299 249
239 9 2 0 6 121 156 101 481 303 252
240 9 2 0 6 121 77 156 357 361 481
241 9 2 0 6 74 130 126 477 398 189
242 9 2 0 6 75 132 127 351 396 192
243 9 2 0 6 76 131 128 479 402 177
244 9 2 0 6 77 133 129 356 400 179
245 9 2 0 6 39 146 122 422 482 236
246 9 2 0 6 22 152 124 426 483 238
247 9 2 0 6 56 147 123 424 484 240
248 9 2 0 6 5 153 125 428 485 242
249 9 2 0 6 29 122 148 246 486 429
250 9 2 0 6 12 124 150 244 487 431
251 9 2 0 6 46 123 149 247 488 433
252 9 2 0 6 63 125 151 245 489 435
253 9 2 0 6 122 146 82 482 446 490
254 9 2 0 6 83 123 147 491 484 448
255 9 2 0 6 122 82 148 490 455 486
256 9 2 0 6 83 149 123 457 488 491
257 9 2 0 6 84 124 152 492 483 450
258 9 2 0 6 84 150 124 459 487 492
259 9 2 0 6 85 125 153 493 485 452
260 9 2 0 6 85 151 125 461 489 493
261 9 2 0 6 90 139 162 285 370 407
262 9 2 0 6 138 164 91 372 408 283
263 9 2 0 6 92 145 163 289 374 415
264 9 2 0 6 93 144 165 287 376 417
265 9 2 0 6 94 160 142 471 377 280
266 9 2 0 6 95 161 143 473 381 282
267 9 2 0 6 140 96 158 276 468 379
268 9 2 0 6 97 159 141 469 383 278
$EndElements
