$MeshFormat
2.2 0 8
$EndMeshFormat
$Nodes
986
1 1 0 0
2 0 1 0
3 0 0 1
4 -1 0 0
5 0 -1 0
6 0 0 -1
7 0.9659258262892498 0 -0.2588190451018432
8 0.8660254037851388 0 -0.4999999999987872
9 0.7071067811878894 0 -0.7071067811852056
10 0.5000000000010679 0 -0.8660254037838221
11 0.2588190451029585 0 -0.965925826288951
12 0.9914448613738538 0 -0.1305261922197224
13 0.9238795325117075 0 -0.382683432364074
14 0.7933533402922227 0 -0.6087614290074337
15 0.6087614290099638 0 -0.7933533402902813
16 0.3826834323658554 0 -0.9238795325109697
17 0.1305261922202811 0 -0.9914448613737802
18 -0.2588190451018432 0 -0.9659258262892498
19 -0.4999999999987872 0 -0.8660254037851388
20 -0.7071067811852056 0 -0.7071067811878894
21 -0.8660254037838221 0 -0.5000000000010679
22 -0.965925826288951 0 -0.2588190451029585
23 -0.1305261922197224 0 -0.9914448613738538
24 -0.382683432364074 0 -0.9238795325117075
25 -0.6087614290074337 0 -0.7933533402922227
26 -0.7933533402902813 0 -0.6087614290099638
27 -0.9238795325109697 0 -0.3826834323658554
28 -0.9914448613737802 0 -0.1305261922202811
29 -0.9659258262892498 0 0.2588190451018432
30 -0.8660254037851388 0 0.4999999999987872
31 -0.7071067811878894 0 0.7071067811852056
32 -0.5000000000010679 0 0.8660254037838221
33 -0.2588190451029585 0 0.965925826288951
34 -0.9914448613738538 0 0.1305261922197224
35 -0.9238795325117075 0 0.382683432364074
36 -0.7933533402922227 0 0.6087614290074337
37 -0.6087614290099638 0 0.7933533402902813
38 -0.3826834323658554 0 0.9238795325109697
39 -0.1305261922202811 0 0.9914448613737802
40 0.2588190451018432 0 0.9659258262892498
41 0.4999999999987872 0 0.8660254037851388
42 0.7071067811852056 0 0.7071067811878894
43 0.8660254037838221 0 0.5000000000010679
44 0.965925826288951 0 0.2588190451029585
45 0.1305261922197224 0 0.9914448613738538
46 0.382683432364074 0 0.9238795325117075
47 0.6087614290074337 0 0.7933533402922227
48 0.7933533402902813 0 0.6087614290099638
49 0.9238795325109697 0 0.3826834323658554
50 0.9914448613737802 0 0.1305261922202811
51 0.9659258262892498 0.2588190451018432 0
52 0.8660254037851388 0.4999999999987872 0
53 0.7071067811878894 0.7071067811852056 0
54 0.5000000000010679 0.8660254037838221 0
55 0.2588190451029585 0.965925826288951 0
56 0.9914448613738538 0.1305261922197224 0
57 0.9238795325117075 0.382683432364074 0
58 0.7933533402922227 0.6087614290074337 0
59 0.6087614290099638 0.7933533402902813 0
60 0.3826834323658554 0.9238795325109697 0
61 0.1305261922202811 0.9914448613737802 0
62 -0.2588190451018432 0.9659258262892498 0
63 -0.4999999999987872 0.8660254037851388 0
64 -0.7071067811852056 0.7071067811878894 0
65 -0.8660254037838221 0.5000000000010679 0
66 -0.965925826288951 0.2588190451029585 0
67 -0.1305261922197224 0.9914448613738538 0
68 -0.382683432364074 0.9238795325117075 0
69 -0.6087614290074337 0.7933533402922227 0
70 -0.7933533402902813 0.6087614290099638 0
71 -0.9238795325109697 0.3826834323658554 0
72 -0.9914448613737802 0.1305261922202811 0
73 -0.9659258262892498 -0.2588190451018432 0
74 -0.8660254037851388 -0.4999999999987872 0
75 -0.7071067811878894 -0.7071067811852056 0
76 -0.5000000000010679 -0.8660254037838221 0
77 -0.2588190451029585 -0.965925826288951 0
78 -0.9914448613738538 -0.1305261922197224 0
79 -0.9238795325117075 -0.382683432364074 0
80 -0.7933533402922227 -0.6087614290074337 0
81 -0.6087614290099638 -0.7933533402902813 0
82 -0.3826834323658554 -0.9238795325109697 0
83 -0.1305261922202811 -0.9914448613737802 0
84 0.2588190451018432 -0.9659258262892498 0
85 0.4999999999987872 -0.8660254037851388 0
86 0.7071067811852056 -0.7071067811878894 0
87 0.8660254037838221 -0.5000000000010679 0
88 0.965925826288951 -0.2588190451029585 0
89 0.1305261922197224 -0.9914448613738538 0
90 0.382683432364074 -0.9238795325117075 0
91 0.6087614290074337 -0.7933533402922227 0
92 0.7933533402902813 -0.6087614290099638 0
93 0.9238795325109697 -0.3826834323658554 0
94 0.9914448613737802 -0.1305261922202811 0
95 0 0.2588190451018432 -0.9659258262892498
96 0 0.4999999999987872 -0.8660254037851388
97 0 0.7071067811852056 -0.7071067811878894
98 0 0.8660254037838221 -0.5000000000010679
99 0 0.965925826288951 -0.2588190451029585
100 0 0.1305261922197224 -0.9914448613738538
101 0 0.382683432364074 -0.9238795325117075
102 0 0.6087614290074337 -0.7933533402922227
103 0 0.7933533402902813 -0.6087614290099638
104 0 0.9238795325109697 -0.3826834323658554
105 0 0.9914448613737802 -0.1305261922202811
106 0 0.9659258262892498 0.2588190451018432
107 0 0.8660254037851388 0.4999999999987872
108 0 0.7071067811878894 0.7071067811852056
109 0 0.5000000000010679 0.8660254037838221
110 0 0.2588190451029585 0.965925826288951
111 0 0.9914448613738538 0.1305261922197224
112 0 0.9238795325117075 0.382683432364074
113 0 0.7933533402922227 0.6087614290074337
114 0 0.6087614290099638 0.7933533402902813
115 0 0.3826834323658554 0.9238795325109697
116 0 0.1305261922202811 0.9914448613737802
117 0 -0.2588190451018432 0.9659258262892498
118 0 -0.4999999999987872 0.8660254037851388
119 0 -0.7071067811852056 0.7071067811878894
120 0 -0.8660254037838221 0.5000000000010679
121 0 -0.965925826288951 0.2588190451029585
122 0 -0.1305261922197224 0.9914448613738538
123 0 -0.382683432364074 0.9238795325117075
124 0 -0.6087614290074337 0.7933533402922227
125 0 -0.7933533402902813 0.6087614290099638
126 0 -0.9238795325109697 0.3826834323658554
127 0 -0.9914448613737802 0.1305261922202811
128 0 -0.9659258262892498 -0.2588190451018432
129 0 -0.8660254037851388 -0.4999999999987872
130 0 -0.7071067811878894 -0.7071067811852056
131 0 -0.5000000000010679 -0.8660254037838221
132 0 -0.2588190451029585 -0.965925826288951
133 0 -0.9914448613738538 -0.1305261922197224
134 0 -0.9238795325117075 -0.382683432364074
135 0 -0.7933533402922227 -0.6087614290074337
136 0 -0.6087614290099638 -0.7933533402902813
137 0 -0.3826834323658554 -0.9238795325109697
138 0 -0.1305261922202811 -0.9914448613737802
139 0.5865723365061407 0.7771433451487267 0.2279936734577828
140 0.5926656258259151 0.2290326399780225 0.7721991360970784
141 0.2094107884611909 0.7693699463240756 0.6035039414696074
142 0.8923166986452403 0.3067161033295668 0.3312040779899697
143 0.2134792785495744 0.3686817051086929 0.9047101181859856
144 0.2913897263636824 0.9080136504619796 0.3010037174926718
145 0.7881953018179719 0.2591048367211597 0.5582229391379195
146 0.6131093438625786 0.4611898508215743 0.6414053741336848
147 0.7708482771290623 0.4821016099590947 0.4163783992019822
148 0.597347522530338 0.6527778001601526 0.4658938515852505
149 0.4167575495253492 0.6270070010031912 0.6581605925658343
150 0.4257228487411898 0.4177415636230181 0.8026531268745435
151 0.7654525517291609 0.6059864222570251 0.2164782831866665
152 0.3746095312240563 0.2014919396097349 0.9050241418815299
153 0.2110062280181689 0.5890432567288229 0.7800669288207561
154 0.3939221450262598 0.8110314089747398 0.4324967020849506
155 0.1743664992563269 0.1719318308009306 0.9695544180160975
156 0.3938273166535409 0.8997438667409592 0.1880452576362899
157 0.1781153817095088 0.8985040355477557 0.4012049462592318
158 0.8925721110326673 0.4101394246173497 0.1873517520100549
159 0.1789899041851775 0.9666732116599165 0.183045120281539
160 0.9648500159318868 0.1828810882658231 0.1887298447806969
161 0.9058099245667913 0.1588555649747649 0.3927763868066057
162 0.5955763715715839 0.7223547059885754 0.3514149461274882
163 0.6914495116354787 0.6338765865399684 0.3465516496793744
164 0.6815811162325757 0.6968156168316115 0.2233722859594199
165 0.7718312858203656 0.5492652963296341 0.3202875278196146
166 0.690503130698802 0.5715983920858172 0.4432614405292454
167 0.7532788639438793 0.13354627678819 0.6440002679280736
168 0.6973890112319582 0.2458390430140244 0.673210020679179
169 0.6580918501439941 0.1172971546693262 0.7437449121039652
170 0.8363718094016989 0.131706550651413 0.5321048589832977
171 0.8381760997976314 0.3962054337689498 0.3748093915312011
172 0.7843669700001336 0.3761634099178205 0.4932236261695169
173 0.84636619374528 0.2852591686852174 0.4497682433944686
174 0.7096786395737953 0.3640105667646721 0.6032019030277918
175 0.6063968893011746 0.3494325576571773 0.7142686471454718
176 0.3218596254201604 0.3946378107508004 0.8606203459425122
177 0.3237204211933024 0.5107641803699018 0.7964452529543342
178 0.2134973557133329 0.4831129838511685 0.8491293917524204
179 0.3170120557316079 0.6107431744148712 0.7256005315781309
180 0.4235425673380554 0.5274013219286113 0.7365185260946545
181 0.500037927270305 0.7390099968812416 0.4514712568932872
182 0.4080250280716133 0.7275775384415322 0.551494788753729
183 0.5124733862652152 0.6435057327038143 0.5685696090604833
184 0.3165145027201597 0.7056649066566505 0.6339208224069238
185 0.3058756678655295 0.7944736376762436 0.5246443698785809
186 0.4980807428014351 0.7994444994728637 0.335863165460211
187 0.4929671834571293 0.8446550276916515 0.2086653786078576
188 0.3964678714560874 0.8627281052756891 0.3138685127095402
189 0.8950370245838548 0.3611514757740976 0.2616836566739912
190 0.8405742256295724 0.4480337107212204 0.3044680036795628
191 0.6987704201243309 0.474704935620229 0.5351402844647936
192 0.9342116541438229 0.2444864112771508 0.2597594655882289
193 0.9352693597362611 0.2991090418985594 0.1892221070410382
194 0.6085183344010445 0.5630210975705758 0.5592071891420947
195 0.9380582359406079 0.3338670196991276 0.0926259096647221
196 0.9697888158021107 0.2238886366511629 0.0968686281704418
197 0.5207100919011031 0.5496011226622677 0.6532990174190682
198 0.1062699892382647 0.3134765851175532 0.9436308176243167
199 0.1103795080922317 0.4410532963154707 0.8906673643973795
200 0.545376240958047 0.8302157408487334 0.115354147933479
201 0.6553130090615205 0.7462703802721671 0.1168134396513138
202 0.1069425401915538 0.7416257200350174 0.6622345388757066
203 0.1056925410863011 0.8261138093291834 0.5535025391037933
204 0.5484462215596271 0.115872850942938 0.8281184845608291
205 0.344722338180016 0.9058194091357141 0.2462878551466321
206 0.2885174615030479 0.9391407113154343 0.1864735872926171
207 0.2348791422899372 0.9414845773879197 0.2417407269324592
208 0.2219363240386727 0.9705195731148966 0.09400013975032202
209 0.3257612403235118 0.9408539961511194 0.09313094131037651
210 0.8536219872042882 0.2093205976184248 0.4769846856808586
211 0.9014100516461735 0.2345686061713244 0.3639196172097418
212 0.8890160552416989 0.08144570250408767 0.4505741349279872
213 0.08806926625402792 0.940070664757808 0.3294100022817921
214 0.1795848947827564 0.9386392224412203 0.2944582749063228
215 0.09180703964562451 0.9703054605522189 0.2237828874021715
216 0.2364562011104856 0.905167456996138 0.3532142972071519
217 0.739844062356358 0.6636236463231129 0.1106093099013708
218 0.5234591664017373 0.4415263280950715 0.7287283463053166
219 0.9694809802277651 0.09370475941398515 0.2265525260061755
220 0.9403937757411349 0.1721759557441154 0.2932831171597381
221 0.9423770042608274 0.07849349243153625 0.3252143193131088
222 0.5155702795917504 0.3278132355705956 0.7916601350241287
223 0.1079031667804587 0.6557624141940276 0.7472165433990132
224 0.2113172403005334 0.6848060038915653 0.697413622598406
225 0.1065553325260354 0.5462618507374022 0.8308092148858329
226 0.4873770471973417 0.2162380954564991 0.845993321450321
227 0.4433975939659603 0.1039708494615123 0.8902744723552669
228 0.824706685150208 0.5548910285705978 0.1093381446724777
229 0.3431568932197854 0.8644117894250639 0.3674719104077264
230 0.8829733019706882 0.4595002306554972 0.09600878102821989
231 0.8351993680727179 0.5112469669191373 0.2026537796018497
232 0.3163207024751339 0.1001248265370714 0.9433537153669131
233 0.4519039052449788 0.8868191414715751 0.09661609981755548
234 0.091333138376677 0.8857651156717733 0.4550586969757165
235 0.08408606126597483 0.08286262469279586 0.9930072103110811
236 0.08964251449354083 0.2184216747681091 0.9717284556843903
237 0.2195299110371284 0.0883263431710931 0.9715992359311801
238 0.401660453625561 0.3118934935459878 0.8610408403072339
239 0.2985657606951638 0.2895631196307775 0.9094018288359719
240 0.08617272482931349 0.9923673646889253 0.08821153550329378
241 0.9919634509012936 0.0879836725464295 0.09092516396047767
242 0.194181259535686 0.2713607378852387 0.9426860497427091
243 0.1944886861319736 0.8405358831670825 0.5056417507239598
244 0.2757696287898346 0.1871067090403382 0.9428373090142388
245 0.2883375427545841 0.8611947292842065 0.4185750825017547
246 0.5840827483503469 0.2267888181079417 -0.7793678047370882
247 0.590042097145277 0.7736043027682487 -0.2310556347178213
248 0.2138294446513667 0.5996203356939275 -0.7711889662218916
249 0.8923104290516556 0.3315887446507914 -0.3063184660228025
250 0.2111410724614923 0.9044642133532733 -0.3706264079677211
251 0.2845264184899425 0.3003387072464855 -0.9104072594783039
252 0.7879985967576874 0.5585338052218608 -0.2590332023743372
253 0.6116529747755578 0.6402594370022914 -0.4647025842167434
254 0.7717163232647638 0.4152327075722292 -0.4817008563091312
255 0.5956083521381106 0.4655745417750511 -0.6545922676859814
256 0.4180394268608485 0.6555609182166499 -0.628874327745056
257 0.4256376386805289 0.8039257601937509 -0.4153744968523743
258 0.7640932036727724 0.2163439873010835 -0.6077473613762117
259 0.3744563642711005 0.905177704500702 -0.2010864354741721
260 0.2108369265036403 0.7815554014950714 -0.5871277074166883
261 0.3942295691633072 0.4324806008002837 -0.8108906071281987
262 0.1740611679033271 0.9695658470040452 -0.1721765900215769
263 0.3939094439483741 0.1859411188834894 -0.9001451273414963
264 0.1778045200751193 0.4005635285579509 -0.89885171871119
265 0.8925781030383072 0.1876247214453796 -0.4100015778982822
266 0.1782288066341731 0.1826953570827298 -0.9668799816865443
267 0.9648427239197587 0.1897916578516314 -0.1818176138580347
268 0.9057609637346412 0.3929813345849634 -0.1586277001104002
269 0.6898994164886706 0.3463347216763141 -0.6356815678387898
270 0.6796722803839021 0.2227094631409294 -0.6988891802748313
271 0.5934685353564952 0.3506646568791739 -0.7244510997697687
272 0.6902496727335341 0.4425881046211972 -0.5724256798389338
273 0.7715731157489408 0.3196410619255788 -0.5500041077888052
274 0.7531716503887214 0.6441344114191622 -0.1335040264427241
275 0.6961246771750962 0.6741522017756977 -0.2468384951113725
276 0.6569927906545646 0.7445439673803014 -0.1183839248611391
277 0.8362822081300333 0.5322554429657645 -0.1316670490231832
278 0.8385398109240714 0.3744200709941304 -0.3958037341058986
279 0.7847080215734983 0.4928496489799733 -0.3759422088280633
280 0.8462662360694008 0.4501102967233014 -0.2850161021286182
281 0.7090146892784391 0.6028600504397543 -0.3658660000207387
282 0.6043973606390731 0.7145612932084799 -0.3522867989305684
283 0.3236174039271482 0.7978517034093258 -0.508629959049101
284 0.2121702810400238 0.8495619207283737 -0.4829371746839475
285 0.3207285099294345 0.861110271209959 -0.394489953909039
286 0.4242348042008224 0.7361547419788235 -0.5273528484485333
287 0.3176329097844734 0.7253014067400878 -0.6107759032596966
288 0.4992190550355998 0.4512519161484479 -0.7396972646033761
289 0.4087599323836147 0.5500179539463333 -0.7282826154827752
290 0.5120917666650804 0.5669249024830156 -0.6452582254093785
291 0.3080740758806015 0.5223670753719286 -0.7951245200204126
292 0.319282069851165 0.6305920068875022 -0.7073985303357282
293 0.4968891580220022 0.3352357925678204 -0.8004487041788567
294 0.4916544658243672 0.2069752820392748 -0.8458351605719159
295 0.3967054179297069 0.3128578115975284 -0.8629859796703664
296 0.8950436126886965 0.2620206638522665 -0.3608907079706877
297 0.8409054000368592 0.3039912656997832 -0.4477358803659741
298 0.9342022856584465 0.2604789667021837 -0.2437556099381037
299 0.9353084922278992 0.1899188981837057 -0.2985445301442664
300 0.6986032183918316 0.533975183466429 -0.4762604819786841
301 0.9380688994901936 0.09276433716900558 -0.3337986182698367
302 0.9698426061673087 0.09744440670464787 -0.2234052525447466
303 0.6068644568708078 0.5583817057833902 -0.5656194848423547
304 0.5204554542768216 0.6513229892753711 -0.5521815677428051
305 0.547177212017203 0.8288089239706974 -0.1169310317906053
306 0.5441078859201992 0.1147385643099916 -0.8311327633654767
307 0.6541485346838938 0.1162075845661934 -0.7473857717806821
308 0.1050593621514112 0.943453830066846 -0.3144159680368313
309 0.1091122763858952 0.8904174069041748 -0.4418725524672619
310 0.1092804530137372 0.660641346415564 -0.7427050518175726
311 0.1079828260036592 0.5516276943879365 -0.8270710949322996
312 0.2882281953299591 0.1852811080089116 -0.9394654961369391
313 0.2310628120532829 0.2412507478338391 -0.9425540056440493
314 0.3415077131497744 0.2450337640843969 -0.907375851738321
315 0.2215688770446127 0.09383502950769108 -0.9706195031846826
316 0.3257974685746878 0.09207136304237239 -0.9409457335988325
317 0.8535124072476452 0.4772460136120569 -0.2091717312777477
318 0.9013762208983245 0.3642090671712456 -0.234249148961754
319 0.8889816731928191 0.4506638129268871 -0.08132473452459447
320 0.08791915023370168 0.3290906739181558 -0.9401965493248089
321 0.1790349635648934 0.2939417664791602 -0.9389061293550214
322 0.09141954440874833 0.2236026903234198 -0.9703835858979817
323 0.2327478924665581 0.3524517420684427 -0.9064249489424349
324 0.7391439440781874 0.1105248011606118 -0.6644174126713934
325 0.5226429441683355 0.7289541606588776 -0.4421201019736214
326 0.5139696060653259 0.7928430874167137 -0.3274676820337956
327 0.1064744657681438 0.8314511980768844 -0.5453000030771151
328 0.1078331150534027 0.7479878765769624 -0.6548940034782473
329 0.213509265535221 0.6965925601555957 -0.6849617497835067
330 0.4858483565762078 0.8466757331599915 -0.217005938375403
331 0.4433136410523323 0.8903407779841551 -0.1037608534828687
332 0.9694229110108478 0.2270371396295603 -0.09313085866715555
333 0.940330226040993 0.2938816260487266 -0.1715011832747839
334 0.9423513950040148 0.3253164377084234 -0.07837769893719054
335 0.8241181543572597 0.1092655724501949 -0.5557790049434354
336 0.3399027606957121 0.3671251242079219 -0.865843667440463
337 0.8829871529991566 0.09615285437337111 -0.4594434853540718
338 0.834629908355044 0.2027437737543463 -0.5121404868618546
339 0.3162434335027176 0.9434011707611051 -0.09992157811498087
340 0.4518797247470511 0.09551738953835895 -0.8869504736220094
341 0.09118071038655975 0.4547499387757656 -0.8859393722128168
342 0.2193896700310623 0.9716187684654785 -0.08845982957980636
343 0.08393345001917521 0.9930097818385913 -0.08298643949918481
344 0.08947862258851574 0.9717187942338581 -0.2185318307074709
345 0.4015062603532498 0.8616349038819743 -0.3104480879461968
346 0.2974363551847313 0.9094834591481861 -0.2904676438956195
347 0.08580711351653232 0.08805264566347222 -0.9924131553247489
348 0.9919614547768379 0.09146028435502132 -0.08744992065586717
349 0.1928943787538264 0.9426163295684261 -0.2725182817282609
350 0.1964944608281104 0.5031849801927966 -0.8415431079702601
351 0.2755531357010448 0.9429144107989085 -0.1870371174742304
352 0.2883428375878826 0.4182487688977395 -0.8613514818744398
353 0.7732404511063905 -0.5911504914781908 -0.2294347427873097
354 0.225981123976683 -0.5876687802829753 -0.7769027843217935
355 0.6035039415214263 -0.2094107886954414 -0.7693699462196687
356 0.3313054053991562 -0.8942693166650444 -0.3008639520194063
357 0.9040092956045707 -0.2144202728636728 -0.3698528626975817
358 0.2923278822300123 -0.2931466026367665 -0.9102798902719085
359 0.5544764723506949 -0.791562087036893 -0.2568760478817109
360 0.638566164585302 -0.617763777303138 -0.4589130297768583
361 0.4100539919688949 -0.7759698351732952 -0.4792979642889196
362 0.4670953159403057 -0.5934194135308692 -0.6554962741856778
363 0.6571817208144215 -0.4169972704306905 -0.6278737630135131
364 0.8046596546503192 -0.4245127473346148 -0.415104526027417
365 0.2192152860302048 -0.7616747489300344 -0.609750961633571
366 0.9044918135992556 -0.37531040140218 -0.2025750767771395
367 0.7823802130611056 -0.2092605513075196 -0.5865928944991853
368 0.433247974906683 -0.3968863343384426 -0.8091831868338912
369 0.9683337997484016 -0.1773165445080916 -0.1757512313144129
370 0.3993800218711928 -0.178199255862625 -0.8993000741355314
371 0.1850561083680844 -0.3949259375547004 -0.8998820703860037
372 0.1869527860747794 -0.8928760079313502 -0.4096597249418752
373 0.1805613751619617 -0.1803584361249692 -0.9668859417315865
374 0.1887128333756575 -0.9649857025037726 -0.1821813944469416
375 0.3921875533654117 -0.9062822926628361 -0.1576113225344104
376 0.3485225295449377 -0.6874723542250035 -0.6371136543631202
377 0.2236725913503368 -0.6798630433420999 -0.6983958864256312
378 0.3511129437757696 -0.594268116316698 -0.7235779893297728
379 0.4409044537807935 -0.6917911040417963 -0.5718639095142241
380 0.3183076924595931 -0.772309499600731 -0.5497438037372659
381 0.6422485095787469 -0.7549716111224942 -0.1324187235363034
382 0.6721422741749814 -0.6987156598037615 -0.2449922243906496
383 0.7442975952980475 -0.6574264005814766 -0.1175228380019294
384 0.5302092672223435 -0.8377535243580723 -0.1305647937890386
385 0.4476972844819457 -0.8488599533693474 -0.2810763615697361
386 0.3716768764596201 -0.841585345644712 -0.3919061182238557
387 0.4882537971847437 -0.7886521691658247 -0.3736789873738137
388 0.5998578387649425 -0.7136874571722576 -0.36169156300258
389 0.7134836488577122 -0.6079040700150126 -0.3484160221227885
390 0.8610188880110499 -0.3217034596844234 -0.3938951110578647
391 0.7986466238215592 -0.3222700363988286 -0.5082377336423601
392 0.8496541609601985 -0.2130809857296436 -0.4823736106831553
393 0.7372840578359656 -0.4231261426422803 -0.5266654397941803
394 0.7265208643588181 -0.316318451012776 -0.6100082550262693
395 0.4523044198271641 -0.4992564544926627 -0.7390288928399407
396 0.5512946867462868 -0.4095886290600653 -0.7268502757170903
397 0.568504546046348 -0.510413673383705 -0.6451980030561071
398 0.6334226189546664 -0.3166322579370223 -0.706059345260945
399 0.5250690087853686 -0.3074366341771805 -0.7935901032516454
400 0.3352692578762472 -0.5001339726518365 -0.7984112562599568
401 0.2061496501570125 -0.4940571025983408 -0.8446359577429048
402 0.3128296610647439 -0.3985616079829564 -0.8621405035144547
403 0.2616406681103872 -0.8962661059065027 -0.3581218063647392
404 0.3009284096778888 -0.8427849040474086 -0.4462686385559007
405 0.5306469377867371 -0.7038585946109847 -0.4722254823808311
406 0.2598189870844288 -0.9350481027778191 -0.241203522864038
407 0.1890231203289394 -0.935495166083061 -0.2985281464390541
408 0.5583190468251635 -0.6089546409217845 -0.5634306410305187
409 0.09242980418156801 -0.9381627719738841 -0.3336275536900917
410 0.09687538510867022 -0.9698646678583807 -0.223556896113718
411 0.6515357052123032 -0.5234391315844203 -0.5491017213227931
412 0.8285848274010247 -0.5476962457035038 -0.1160862017773913
413 0.6622345389093571 -0.1069425403132479 -0.741625719987421
414 0.5535025391354578 -0.1056925412070905 -0.8261138092925142
415 0.9433857357776309 -0.1067324582739043 -0.3140565807018013
416 0.8903253038574247 -0.1108524309573044 -0.4416249447914377
417 0.1143066957905788 -0.5458803645262352 -0.8300292807619168
418 0.1157475243605461 -0.6557253239947013 -0.7460742657915824
419 0.3481336738609764 -0.2375146893476076 -0.9068570545946968
420 0.2361464170416544 -0.2364580269888564 -0.9425086053670418
421 0.2923330806038056 -0.1803471376529896 -0.9391572178954185
422 0.3285024014116755 -0.088128239256997 -0.9403826804616426
423 0.2226302185885336 -0.09257041228616358 -0.9704980703434662
424 0.474729351919384 -0.8553090820152184 -0.2075534067378466
425 0.3635885369217467 -0.9024854133022714 -0.2309187185910495
426 0.4502639034915602 -0.8892313980011256 -0.08080803191209837
427 0.09268016036113753 -0.2225378118487162 -0.9705087893332133
428 0.1837297956968874 -0.2897591756051162 -0.9392991974476629
429 0.09161614090806763 -0.3262998429215057 -0.9408160793877377
430 0.2403294923327831 -0.346051270948127 -0.9069124836445095
431 0.1120082486456781 -0.7380044403211655 -0.6654348941117915
432 0.7287067786448064 -0.525453099044101 -0.4391872851780428
433 0.2265316705906552 -0.969520819658759 -0.09334228659945716
434 0.2929774028246391 -0.940666322993653 -0.1712048779086902
435 0.3249220024402686 -0.9425290473074769 -0.07787610231557621
436 0.7931151863024127 -0.5141025818777473 -0.3265988924707541
437 0.7483682990129105 -0.1070155581886681 -0.6545934305644161
438 0.6987645631665506 -0.2104692202393212 -0.6836891052185285
439 0.8317500826355015 -0.1056627141640497 -0.5450020099699842
440 0.8460837506344425 -0.4868958513798777 -0.2169670869542625
441 0.8900303611602559 -0.4437568531092489 -0.1045266068114751
442 0.9710885505544082 -0.2210032465230814 -0.09024739336067704
443 0.9927359669526238 -0.08546684405985497 -0.08468009497566428
444 0.1107474873085605 -0.8231972236903613 -0.5568494634668525
445 0.9711714433954841 -0.09109373578634052 -0.2202906235717268
446 0.3636059878707353 -0.3455600958864578 -0.8650889582670033
447 0.09580814817146127 -0.8831177551367629 -0.4592644437643301
448 0.2038519982300479 -0.8338170653281574 -0.5130238438758534
449 0.9431788833150482 -0.3166706289304113 -0.1006643275515039
450 0.4542079294873252 -0.09140318142750427 -0.8861944567733246
451 0.09504036690769513 -0.4523274991983761 -0.8867734559215187
452 0.8614907943067963 -0.4013583836880701 -0.311038677929201
453 0.9087746379252465 -0.2993802556245027 -0.2906890434915712
454 0.08697913487703264 -0.08687710865371197 -0.9924147308902735
455 0.09092783928852606 -0.9919933554507548 -0.08764308748482377
456 0.9415505294100946 -0.1961530499128244 -0.2738732947504507
457 0.5047836551169506 -0.1945444899156469 -0.8410385858985497
458 0.4180606924175493 -0.2899137091460744 -0.8609153841722919
459 0.9417934625581839 -0.2776276065563903 -0.1895995410343522
460 0.2253735953822491 -0.7767441076034107 0.5881116678045585
461 0.7733547075618179 -0.2301901487466941 0.5907071962588151
462 0.5997622948195209 -0.771052237595347 0.2139243712437429
463 0.3327045294253368 -0.304488398773028 0.8925214345395311
464 0.9047101181110231 -0.3686817050006934 0.2134792790537766
465 0.2987228680359567 -0.9083806638374605 0.2925905290309082
466 0.5546113956795347 -0.2569381515375536 0.7914473994314869
467 0.6401776134725851 -0.4624814579025275 0.6134195336838388
468 0.4147306700063235 -0.481069628568568 0.7723797536348334
469 0.4644238181852695 -0.6548406822285099 0.5962333419062669
470 0.6557091135680815 -0.6285858512548212 0.4182408229549244
471 0.8047563051232767 -0.4155549316554957 0.4238884147286027
472 0.2161937102368457 -0.6077567636784555 0.7641282587740863
473 0.9052510432872438 -0.1975562397718091 0.3761543310325965
474 0.7816724898698421 -0.5869515194916626 0.2108934146603684
475 0.4335397436397327 -0.8100496379955077 0.3947947247217748
476 0.9696424879357747 -0.1707801855991907 0.1750073535495783
477 0.1858073102481754 -0.8997983244889893 0.3947640038113226
478 0.4003228672950619 -0.8986777890216723 0.1792200698576447
479 0.187326528565298 -0.4100303353281933 0.8926275235540994
480 0.1814515251224261 -0.96671761937685 0.180367370710729
481 0.188900404780286 -0.1826204088709101 0.9648660131529485
482 0.3924401224134703 -0.1581903121810778 0.9060720586422217
483 0.3456326281391257 -0.6357745721389911 0.6901657625434077
484 0.2218770039675623 -0.6973879234885908 0.6814841739047575
485 0.3493828675427931 -0.7231309379019391 0.5958298905867655
486 0.4417635541042081 -0.5722608714836144 0.6909142184338316
487 0.3193128482575155 -0.5497073220499399 0.7719204395676774
488 0.6423107605012038 -0.1324496914671616 0.7549132176446632
489 0.6722612764495745 -0.2454028395856992 0.6984570298233558
490 0.7443837137094538 -0.1179233409287996 0.6572571585219229
491 0.5302769884163714 -0.1305963746814216 0.8377057374019431
492 0.4484938778444016 -0.2829647879589511 0.8478114002013872
493 0.3747318960754349 -0.3945936054233266 0.838970734068078
494 0.4905505671965462 -0.3745705234177997 0.7868017946151766
495 0.6008832634516886 -0.3636852429803469 0.7118092074017971
496 0.7143518804940876 -0.3506821361134362 0.6055769399882051
497 0.8614861811688419 -0.3935238570039091 0.3209058017921957
498 0.7982670143950528 -0.50856348246135 0.3226963867718276
499 0.8497959750324964 -0.4819748701298883 0.2134174908058051
500 0.736676526758532 -0.5272627808346141 0.4234402612760571
501 0.7254372263362177 -0.6105454595511873 0.3177657509346229
502 0.4512006714200261 -0.7393201481362909 0.4998236415675538
503 0.5505878344915384 -0.7276454022145228 0.4091273703212528
504 0.5664882145518993 -0.6452751369594173 0.5125535097878141
505 0.5229433809433967 -0.7946192699695662 0.3083997991577219
506 0.6307424309978689 -0.7071945589139057 0.3194367567789675
507 0.3352028075119315 -0.7988642705696135 0.4994546576451142
508 0.2062337515994335 -0.8445118843261712 0.4942340709958014
509 0.3133670804223719 -0.8624583534765826 0.3974501999320431
510 0.2624942469150743 -0.3600613697044643 0.8952388398539426
511 0.3035836830409653 -0.4474289232285431 0.8412159687320667
512 0.5336944243343985 -0.4748372458199821 0.6997855753132304
513 0.2606085335783023 -0.2432385107697841 0.9343009253472163
514 0.1893007284189801 -0.2989308414030378 0.9353104224149946
515 0.5578619619973353 -0.5647654136843119 0.6081365462315779
516 0.09261422824817674 -0.3338126288267333 0.9380787459279634
517 0.09696309191129415 -0.2237684104884014 0.9698071237490969
518 0.6514216565247944 -0.5510239915650929 0.5215576536972353
519 0.8286653134739042 -0.1164796301725556 0.5474909076871147
520 0.1139902525201644 -0.829935765725532 0.5460886806187839
521 0.1154247873056283 -0.7459705212834891 0.6559002209570371
522 0.9436308176118885 -0.3134765850677703 0.1062699894954734
523 0.8906673643805321 -0.4410532962825535 0.1103795083597061
524 0.660709118656526 -0.7426376514192431 0.1093287666564818
525 0.5517010281055595 -0.8270158192346955 0.108031524671432
526 0.2398005661092482 -0.941657567775295 0.2361709413649354
527 0.2932354432614765 -0.93878007190855 0.1808451033415706
528 0.3516594067661448 -0.9054641250254037 0.2376349720156175
529 0.3289721633731575 -0.9401710981178939 0.08863194677641964
530 0.2230526123684655 -0.9704024577334637 0.09255594060057026
531 0.474925567713233 -0.2078754068880712 0.8551219330267363
532 0.3644413155093833 -0.2330641488104582 0.9015895019847152
533 0.4503982228905991 -0.08110504290978317 0.889136329722047
534 0.09314225773552814 -0.9704597044240355 0.2225589403127682
535 0.1845557082349217 -0.9391606568098753 0.2896833637928669
536 0.09199556873467744 -0.940806409155355 0.32622096165849
537 0.2440175094736438 -0.9060262397632898 0.3457917117726708
538 0.1104462681198719 -0.6644160475837558 0.7391569099802652
539 0.7294420797710643 -0.4411435528060213 0.5227873545495771
540 0.2266287080482098 -0.09356595207454997 0.9694765810997099
541 0.2931974008527829 -0.1717137335970197 0.9405050121223939
542 0.325047349245477 -0.07816357035310402 0.9424620294834929
543 0.7932181382538569 -0.3272020436791354 0.5135599358957846
544 0.8315044458078876 -0.5452129882637266 0.1065042441889296
545 0.7480508695543053 -0.6548169127107496 0.1078643007997103
546 0.6967243551719471 -0.6848039378389554 0.2135854387136321
547 0.8466057106636031 -0.2147689223840696 0.4869631204205931
548 0.8902226127864289 -0.1018801046870292 0.4439866483945928
549 0.1091878619497266 -0.5557808545856641 0.8241272064911318
550 0.3668915779350036 -0.8642403748434044 0.3442079960298641
551 0.09599724478614158 -0.4594484691789216 0.8830014910307996
552 0.2025174327001889 -0.5121565175593451 0.8346750211753129
553 0.9433154927238645 -0.09811745977489687 0.3170628412073135
554 0.4546777911397472 -0.885899947267654 0.09192056176638835
555 0.09543446930759487 -0.8867583433126764 0.4522741454398373
556 0.9715908011550385 -0.08771511987518764 0.2198121308212806
557 0.9930266525134389 -0.08229202463881649 0.08441617190324457
558 0.9718151955504026 -0.2178879868024703 0.09000028280232966
559 0.862173938927038 -0.3088757771038773 0.4015617677935887
560 0.9096740438940891 -0.2877407328908535 0.2994969190172234
561 0.08741305618638971 -0.9923774030889267 0.0868679886185536
562 0.09101250872264197 -0.08785414415553569 0.9919669211272669
563 0.9427748363676106 -0.2708099955037119 0.1945187760790837
564 0.5031673348706798 -0.8413735937396541 0.1972640587556607
565 0.9429913980448991 -0.1846018885758132 0.2769284491480957
566 0.4186326463188056 -0.8608405752779706 0.2893098881670075
567 -0.7718969898993754 0.5942313317961156 0.2259738066593071
568 -0.2222962305705586 0.5970127801882399 0.7708178294292558
569 -0.5974546098188244 0.2215218911149402 0.7706984111590582
570 -0.2153132428282267 0.9019027934180986 0.3744483391436306
571 -0.9014660798975052 0.2178265575923649 0.3740461169450701
572 -0.2988997622732229 0.2993904437694598 0.9061039092138036
573 -0.2235864694936379 0.7738120088997872 0.5926415995708082
574 -0.4421829540204775 0.6366753193804618 0.6317584766867093
575 -0.7733835031830169 0.2266141374104232 0.5920506648337577
576 -0.6354974976051899 0.4440398143911803 0.6316419664437979
577 -0.5921463702060309 0.7748862159470287 0.2211651613322423
578 -0.6305688710576213 0.6383590998587746 0.441452781711263
579 -0.4224014045265079 0.4226308685502115 0.8018479920798749
580 -0.7892324288253727 0.4398099245256146 0.4285783517388344
581 -0.4298698232615743 0.7939765179300168 0.429899085861774
582 -0.8995745329967986 0.3833828616461931 0.2092444526852924
583 -0.3800305883132638 0.9014221070591284 0.2074004263528788
584 -0.1771377372232144 0.9687649359091813 0.1735416981717055
585 -0.9677940749958842 0.1788394918369682 0.1771752368768159
586 -0.3991159483033572 0.1843150590798654 0.8981839559947048
587 -0.1839368856206392 0.3993994612700227 0.898135453283855
588 -0.1810880227052042 0.1822142774711884 0.9664393851237503
589 -0.5424838950930292 0.6411848008755497 0.5427644744185796
590 -0.6367883811827103 0.5476177701097519 0.5427847966282089
591 -0.5452109201817172 0.5467359649821606 0.6354721371623077
592 -0.5342953052848669 0.4358479861740893 0.7242686377985325
593 -0.4348169371184647 0.5350535975230227 0.724328571141984
594 -0.7860954355292801 0.3384243908019702 0.5172261574498594
595 -0.8531257016620654 0.3313951988399695 0.4029314573837908
596 -0.8442983964896461 0.2233927260273735 0.487089219387035
597 -0.7186183058848412 0.4442253455077574 0.5350248338682181
598 -0.7118566539459267 0.3391308078112199 0.615020649593344
599 -0.7162502131053143 0.5438914004898026 0.4372273741428284
600 -0.6145823747970847 0.7141175611439234 0.3351486438203657
601 -0.5349808817861208 0.7225258259843093 0.4378948354445807
602 -0.5177886617210158 0.7890848326687663 0.3305147933833893
603 -0.8278628817217555 0.5491654562056018 0.1142818917319973
604 -0.7434809786114189 0.6586761933000811 0.1156793275513003
605 -0.5506911211982409 0.1119666792097851 0.8271654923775273
606 -0.6599562976022906 0.1133191716807504 0.7427088599072087
607 -0.107127299677344 0.9425856080881108 0.3163164761579882
608 -0.1112349739923321 0.8892077022900415 0.4437752164654873
609 -0.8890911827937945 0.1125653691082815 0.4436731976983146
610 -0.9425002228590867 0.1084077900228186 0.316134593129161
611 -0.1137282782809844 0.659786834510638 0.7427968845691767
612 -0.1123687855219044 0.550484962727997 0.8272481863689324
613 -0.5170598883055235 0.3270364004410138 0.7910096489247551
614 -0.6198197336258127 0.3367578479593009 0.7088142560966496
615 -0.3272655480225161 0.5168885495295639 0.791026856966782
616 -0.3361281686864103 0.6201213885409399 0.7088492912386786
617 -0.4066070007025414 0.8552800705276055 0.3211958093406228
618 -0.4898452300031764 0.8448042270730737 0.215307846031216
619 -0.2206144581726947 0.8447335518657387 0.4876007456900181
620 -0.113049506268641 0.8285934409727589 0.548318081691038
621 -0.8285311178849348 0.1146203998489652 0.5480860795849534
622 -0.6876436182037708 0.6903809339668898 0.2247674806519656
623 -0.7087617918112354 0.6194811287860891 0.3374905236394645
624 -0.3511304732858508 0.2436072235966966 0.9040812526214463
625 -0.2923612182367845 0.184264268148391 0.9383877650283177
626 -0.2396965513999826 0.2405037374228262 0.940586793194869
627 -0.3366968085750989 0.7126873302091266 0.6153958307095772
628 -0.3316443820442114 0.7884799304114679 0.5179878407808814
629 -0.4382784226291292 0.7217901164819989 0.5356594552573721
630 -0.2229151292484337 0.09352280930144456 0.9703413467911793
631 -0.3283784690065481 0.09120281290169699 0.940132771480568
632 -0.3249200786059475 0.8552701748246351 0.4036581109975902
633 -0.6908767982882225 0.2252309628128179 0.6869936411477371
634 -0.2240994785440221 0.6909501133088826 0.6872898694399182
635 -0.7442717488117024 0.1160357372163312 0.6577197515731397
636 -0.1144444994830704 0.7443879723774284 0.6578670102063872
637 -0.09101002026167015 0.3285187557306461 0.9401024430056326
638 -0.183485834933199 0.2930353536752455 0.9383300218341576
639 -0.09291370058945882 0.2234279900373319 0.970281906205949
640 -0.6575497928015636 0.7448611108134818 0.1131821345633977
641 -0.2431662842753167 0.3515128049606031 0.9040513846792475
642 -0.784856120276694 0.5233049537276341 0.3318927475380173
643 -0.5480195445456398 0.8289607810237928 0.1117971480871182
644 -0.3062807351871681 0.4132450757310148 0.8575666846591442
645 -0.2038039147097156 0.5012245701403093 0.8409743721640137
646 -0.5013421842095116 0.2036169312448133 0.8409495583223056
647 -0.4129835289877782 0.3065818470273049 0.8575850837427895
648 -0.8520506232747013 0.413204247370652 0.3213595888285366
649 -0.9050630795563405 0.3052072692960684 0.2961576350405818
650 -0.9414680888209547 0.3206766456599287 0.1039438630228621
651 -0.8876479276598943 0.447708186617944 0.1078820474238747
652 -0.4460968957619217 0.8885685502091381 0.1069742547102234
653 -0.3190167901410155 0.9421300367017846 0.1030498983619939
654 -0.8423985217576543 0.4925146380983168 0.2186185303202879
655 -0.9926161374380805 0.08618789441937116 0.08535133597701318
656 -0.9708516323891048 0.2217530125085466 0.09095443546520901
657 -0.9709396789268053 0.09185434094049599 0.2209952939225169
658 -0.3613510451734833 0.3617100159575792 0.8594133385676529
659 -0.3022923383913578 0.9062569610743835 0.2954956220557392
660 -0.4542608078714548 0.09459075846584408 0.8858327758921711
661 -0.09438953725649687 0.4543821986059705 0.8857919805724754
662 -0.2208763092445083 0.9712229994833567 0.08910410366013603
663 -0.08541328828055303 0.9928316102616771 0.08360600367382849
664 -0.09104831685291412 0.9714135821434655 0.2192392675262619
665 -0.0872077615615017 0.08777402339018722 0.9923157396420412
666 -0.2798655586594265 0.9408807893189607 0.1908366038441699
667 -0.9395288701655332 0.2824765220249592 0.193629844368474
668 -0.1965371547097682 0.941096225562996 0.2751563938011823
669 -0.9402015078231062 0.1986207191624628 0.2767145363123231
670 -0.5927350315837322 -0.2269006228581536 0.7727750576202715
671 -0.5865723363226386 -0.77714334530702 0.2279936733903274
672 -0.2118863060335686 -0.7719869422748658 0.5992832003923957
673 -0.8944508888175168 -0.3006388891804436 0.3310194341815946
674 -0.2134792790371518 -0.3686817047417434 0.9047101182204715
675 -0.2913897263265477 -0.9080136504487438 0.3010037175685475
676 -0.7915620872051724 -0.2568760479690959 0.5544764720699785
677 -0.6218508926783001 -0.4586010027282605 0.6348122459214499
678 -0.7780237449614296 -0.4777266191827326 0.4079905998922386
679 -0.5952395413685309 -0.6548569921190013 0.4656739291223372
680 -0.4183544900348703 -0.627581794104993 0.6565977553842397
681 -0.4288341319704421 -0.4164044427814689 0.8016911046587781
682 -0.765970803022524 -0.6057012202705585 0.2154408519287514
683 -0.3764645550196823 -0.1985543970129586 0.9049036358865252
684 -0.2140276046649688 -0.5877605256961197 0.780211348850295
685 -0.3951052724978135 -0.811299874589738 0.4309110547840518
686 -0.1746586417475352 -0.1715710837818527 0.9695657389124405
687 -0.3938273160355478 -0.8997438671109834 0.1880452571601039
688 -0.178518964027259 -0.8987413333049745 0.4004934397612911
689 -0.8933484039579156 -0.4089511326907508 0.1862460743661376
690 -0.9650261626958672 -0.1820780415314812 0.1886056523663859
691 -0.1790283873863067 -0.9666831139595006 0.1829551685397863
692 -0.9063122919597097 -0.1575669081508218 0.3921360719170429
693 -0.594514208614326 -0.7232918734695936 0.3512858117381445
694 -0.6908537485601267 -0.6348377975307219 0.3459798678055754
695 -0.6818884201756404 -0.6966795782007815 0.222858133682283
696 -0.6937969221434209 -0.5707710247451065 0.4391654222906636
697 -0.7755225615709515 -0.5468895352885992 0.315399100642741
698 -0.7549716112157387 -0.1324187235865403 0.6422485094587785
699 -0.6993985502486976 -0.2437121887704368 0.6718973410832513
700 -0.6580389579462627 -0.1161791847963231 0.7439671544127862
701 -0.837753524436171 -0.1305647938366661 0.5302092670872162
702 -0.8489695690540604 -0.2809645802019464 0.4475595775895171
703 -0.8425502815665387 -0.3909701193965815 0.3704745453754809
704 -0.7896529747824875 -0.3728724433006617 0.487251803941415
705 -0.7154668007930088 -0.3614635798955931 0.5978723420363908
706 -0.6108343585273188 -0.3470884901573636 0.7116255802335947
707 -0.3235124894302859 -0.3940262727498249 0.8602807481081395
708 -0.3268203809692075 -0.5094249758972837 0.7960368286173661
709 -0.2149686856312509 -0.4823623348574304 0.8491849280980325
710 -0.3193075963331553 -0.6103663321074675 0.7249107528196966
711 -0.425956692073883 -0.5271242907270263 0.7353236556802755
712 -0.4994196619731621 -0.7400241096554783 0.4504934165592535
713 -0.4094191721757581 -0.7280042864239484 0.549896081458374
714 -0.5120537162170919 -0.6447548920184609 0.5675316034605724
715 -0.3076454927751671 -0.7958275396407278 0.5215484425482549
716 -0.3185427715465712 -0.7073520171995982 0.6310179287936978
717 -0.4985766585680531 -0.7995056264774608 0.3349806990887657
718 -0.4929671830601242 -0.8446550279907498 0.2086653783350555
719 -0.3970097609243037 -0.8627923769632352 0.3130056932149285
720 -0.8965983069987797 -0.3576515225549267 0.2611452934691048
721 -0.8439156516777711 -0.4450943242911578 0.299495267637204
722 -0.7068361960880295 -0.4712174755536312 0.5275762339536035
723 -0.9351456133951026 -0.2410385539198875 0.2596210647696112
724 -0.9357073360315739 -0.2981180629231999 0.188619728171828
725 -0.6118940181632344 -0.5629149460024915 0.5556190008477602
726 -0.9383227907998599 -0.3332737567303938 0.09208117799188216
727 -0.9698817551166001 -0.2235058974131455 0.09682197536452054
728 -0.5263180682524105 -0.5488431286269259 0.6494309133310938
729 -0.5484350699527946 -0.1147668372992323 0.828279872447837
730 -0.1082693442152086 -0.7430536211280704 0.6604158275145067
731 -0.1069800211343207 -0.8273394747616492 0.5514205913630889
732 -0.1062699894903369 -0.3134765849401642 0.9436308176548579
733 -0.1103795083558765 -0.4410532961613298 0.8906673644410361
734 -0.5453762408649612 -0.830215740914652 0.1153541478991526
735 -0.6553130089765005 -0.7462703803520655 0.1168134396178315
736 -0.3447223378492306 -0.9058194093154234 0.2462878549486723
737 -0.288534028414006 -0.9391449996896285 0.186426350082688
738 -0.234898035113323 -0.9414914042993131 0.2416957772291598
739 -0.2219528393681328 -0.9705204041647011 0.09395255289990247
740 -0.3257612400161393 -0.9408539962806518 0.09313094107693079
741 -0.8553284633738193 -0.2075311933014818 0.4747041431770363
742 -0.9025872759970065 -0.2307837406454631 0.3634213453582372
743 -0.8892462604868092 -0.08078567654594643 0.4502385619593681
744 -0.08827840080718949 -0.9401748889966928 0.3290563812646422
745 -0.1797943965574489 -0.9387322362303324 0.2940336096920594
746 -0.09182891467561111 -0.9703130693485593 0.2237409168678752
747 -0.2366420298256541 -0.9052669942409638 0.3528345488439664
748 -0.7400753732518144 -0.6634553717346998 0.1100700305376481
749 -0.5297182097466443 -0.4396951805234481 0.7253046025548595
750 -0.9695380845800297 -0.09329096756408554 0.2264789127487234
751 -0.9407048170777387 -0.171130191763653 0.2928974301588756
752 -0.9425396680260355 -0.07785433005448744 0.3248964103974339
753 -0.51707512099949 -0.3260287933932342 0.7914155325250538
754 -0.1094931089482147 -0.6553007154296335 0.7473902805430807
755 -0.2141324075605256 -0.6857555972465863 0.6956195604475989
756 -0.1081201369463375 -0.5456792440998609 0.8309898907599959
757 -0.4882660489181253 -0.2136665744608715 0.8461340676465164
758 -0.4441621696637684 -0.1023978284191049 0.8900756438497941
759 -0.8248880259699367 -0.5547267686969805 0.1088023745256866
760 -0.3437490357432473 -0.864521584525111 0.3666592836896116
761 -0.8833392181469401 -0.4589128329529402 0.09545070683163895
762 -0.8358975413845874 -0.5105289182584152 0.2015825486719879
763 -0.3172199254270779 -0.09861818515879578 0.943210460325809
764 -0.09155334504450818 -0.8859073182348796 0.4547375160562905
765 -0.4519039049428585 -0.8868191416515437 0.09661609957877135
766 -0.2196616875400584 -0.08813294156314955 0.9715870149597926
767 -0.08423402381792446 -0.08268250891825284 0.9930096837143252
768 -0.08980205989880334 -0.2182562643189387 0.9717508904670339
769 -0.4041708001233362 -0.3097747490649786 0.8606309134404783
770 -0.299635239758452 -0.2882182656731138 0.9094772973677119
771 -0.08619281867410893 -0.9923695726303738 0.08816705352013024
772 -0.9920023070503347 -0.08759433804157028 0.09087714096445149
773 -0.1943342386034444 -0.2711899159311452 0.9427036826085267
774 -0.1958893983955834 -0.841793685807656 0.5030017237848972
775 -0.2769182030859552 -0.1855016831843588 0.9428178160893097
776 -0.2891602129011415 -0.8614677115012305 0.4174443116342576
777 -0.596095687790146 -0.7709931996535743 -0.2241415112957364
778 -0.5994450814771616 -0.2220182683681935 -0.7690081162144051
779 -0.2245445117399277 -0.5959064011613365 -0.7710222586296857
780 -0.9043648912335814 -0.2159238231692226 -0.3681046673054539
781 -0.2178449567016961 -0.9013714810319582 -0.3742633137536865
782 -0.2962723321707447 -0.2975408611403511 -0.9075748680643191
783 -0.7766222950826905 -0.592251120941063 -0.2147007697344115
784 -0.6439160112846888 -0.6304959269134338 -0.4334132630143968
785 -0.4428837815896827 -0.7873903523107788 -0.4288011066831914
786 -0.4614462979556871 -0.6267120184631209 -0.627932607862398
787 -0.6482539744707431 -0.4424906695953213 -0.6196521539573387
788 -0.7787592643644095 -0.2236024326222858 -0.5861194078786334
789 -0.2286888985675559 -0.7727680675899768 -0.5920565018519862
790 -0.4192950539297518 -0.4238366946736763 -0.8028412757190174
791 -0.8010588722277593 -0.4353118765227059 -0.4108628157712387
792 -0.90455766801147 -0.378488313284849 -0.196270277801916
793 -0.3823046673610678 -0.9002973617955387 -0.2081052658102054
794 -0.9680889649551294 -0.1795986398754714 -0.1747801032354288
795 -0.1759588300961083 -0.9689813893311408 -0.1735325826497761
796 -0.1834851372352898 -0.3991375151124626 -0.8983442816891505
797 -0.3987685093094794 -0.1843377808801158 -0.8983336009096455
798 -0.1807107615204173 -0.1819880298116757 -0.9665526254043156
799 -0.5167506596945726 -0.3280200923045195 -0.7908043846298266
800 -0.5400816246642132 -0.4360892458386028 -0.7198180383707973
801 -0.6272946790218117 -0.3362869396996278 -0.7024332565150806
802 -0.4544767419186913 -0.7136005811830954 -0.5331276597496324
803 -0.3495388785974751 -0.7080045187551184 -0.6136384715540192
804 -0.3410463876052022 -0.784883722873023 -0.5173440857595899
805 -0.2277995590547551 -0.6898457596546551 -0.687182791388835
806 -0.3475778226316015 -0.6150597547731561 -0.7077366425960013
807 -0.7312388166716098 -0.4412543235216075 -0.5201772918594124
808 -0.7949787850175906 -0.334896579542902 -0.5058191498771277
809 -0.7206723159434242 -0.3367760640324609 -0.6059812668123868
810 -0.8483776701749352 -0.220925454125094 -0.4810896719616523
811 -0.8598785867500169 -0.3281471389985792 -0.3910604444530803
812 -0.5609353843514503 -0.5403089548832652 -0.627230203239165
813 -0.4428068788267352 -0.530137520903878 -0.7231018441365056
814 -0.3330374881296396 -0.8523553572928736 -0.4032076095443116
815 -0.2244239812819184 -0.8439819130946961 -0.4871636347210143
816 -0.5022480558535964 -0.203896697489674 -0.8403410183634302
817 -0.4113061187064053 -0.3072610672493394 -0.8581479553477181
818 -0.3266179959310148 -0.5166713440750393 -0.7914362936747973
819 -0.694892604479091 -0.2240165824821529 -0.6833306952078784
820 -0.6594447805797676 -0.742950833462389 -0.1147023993805006
821 -0.5500625462478499 -0.827398435681312 -0.1133270658203493
822 -0.114915123241082 -0.659375129977261 -0.7429797792793267
823 -0.1135363947780023 -0.5499759291356602 -0.8274273167065377
824 -0.8905965732429939 -0.1116777981228883 -0.4408693833033317
825 -0.9435781434120484 -0.107518141620208 -0.3132094131689038
826 -0.1084143735930367 -0.9424636728818242 -0.316241282720222
827 -0.1125709027628339 -0.8890401572676497 -0.4437740310300653
828 -0.5517024366402369 -0.1122186615449624 -0.8264571334354145
829 -0.6608741240210133 -0.1135608169465313 -0.7418553316205896
830 -0.5587897052608979 -0.6321922094598134 -0.5367374363622853
831 -0.649720923985544 -0.5425764487926933 -0.5324223118454754
832 -0.1156963910912169 -0.8283500703309186 -0.5481336571231789
833 -0.6922470521857723 -0.6871189681486679 -0.2205936135757752
834 -0.7176003319050291 -0.6145175169397638 -0.3277468306848733
835 -0.6230583784418365 -0.7080630206848327 -0.3323326884194496
836 -0.3496584560386836 -0.2426920140960288 -0.9048975358650595
837 -0.2919912246412311 -0.1841576574003194 -0.9385238845939622
838 -0.2381939639670331 -0.2394683053693228 -0.9412324719500579
839 -0.2227319545235927 -0.09341347576499336 -0.9703939400983517
840 -0.3282059231340868 -0.09121756958123425 -0.9401915905917233
841 -0.5483866821771025 -0.715178470655387 -0.4333495147358672
842 -0.5258080621950187 -0.7835104658246765 -0.3311151335622063
843 -0.1171229214166668 -0.7440267412025687 -0.6578042487353749
844 -0.09078548422765086 -0.3283879680450175 -0.9401698454517755
845 -0.1830703333607814 -0.2927895557283874 -0.9384878950202533
846 -0.09272270571534166 -0.223313573678619 -0.9703265160015521
847 -0.7455448568467714 -0.6573480002242268 -0.1098019718882014
848 -0.2416077303588115 -0.3504540910129118 -0.9048799007178674
849 -0.8307389911296856 -0.1130795595529221 -0.54505572359911
850 -0.746957037221692 -0.1145172262870087 -0.6549358666530043
851 -0.8294564515141762 -0.5479414855333089 -0.1084533239373581
852 -0.4471723574206019 -0.8879880867878636 -0.107303497061983
853 -0.3201399641980809 -0.9417128010572025 -0.1033798996335806
854 -0.7289016100718854 -0.5373673335397997 -0.4241919278804566
855 -0.30467595606828 -0.9053877119308824 -0.295712111484195
856 -0.4142077990874047 -0.8517347981224124 -0.3209045541006573
857 -0.3584691177007482 -0.3614017605629741 -0.8607488943454007
858 -0.4930287031542337 -0.8424746438930116 -0.2171616270509074
859 -0.9926813392324497 -0.08659490122443791 -0.08417292808023234
860 -0.9708967667014868 -0.2220680641942248 -0.08969528010786526
861 -0.9711518267675655 -0.09230068410704013 -0.2198743120043646
862 -0.793062237067635 -0.5200527314101181 -0.317171002284499
863 -0.9430002812182482 -0.3182069609572809 -0.09744126241298584
864 -0.8897842482246662 -0.4450274232571047 -0.1011661216040589
865 -0.8474569716076995 -0.4890805776477932 -0.2064385376842407
866 -0.8600990293012573 -0.4083584421799785 -0.30573361361711
867 -0.4540992718910469 -0.09460780869971067 -0.8859137733442574
868 -0.09415817357673043 -0.4542467904947707 -0.8858860489215834
869 -0.2203164920132193 -0.9713483099747657 -0.08912409357831083
870 -0.0848383890515592 -0.9928798015719424 -0.08361906106622265
871 -0.09043581491598515 -0.9714769466834317 -0.2192120102620257
872 -0.9091669253091896 -0.3019169545870921 -0.2868129258884439
873 -0.3043967665456679 -0.4136467855314697 -0.858043673326728
874 -0.2046848457371807 -0.5004757656641493 -0.8412063491845683
875 -0.08702727529838672 -0.08766945127263552 -0.9923408288827451
876 -0.2804598859523733 -0.940630560249727 -0.1911972842272246
877 -0.197160333000369 -0.9410134979801233 -0.2749934539409915
878 -0.9415459420261241 -0.1980602802988451 -0.2725130536728131
879 -0.9416591784915805 -0.2804783203678237 -0.1860373708860832
880 -0.2265046762527475 0.7727383155629872 -0.5929343364121489
881 -0.7754906759325966 0.2252379112842293 -0.5898153057202925
882 -0.7712671219503051 0.600428718654732 -0.2112637697598195
883 -0.3040807946150683 0.3330679118996075 -0.8925248659892361
884 -0.3698528623297538 0.904009296002488 -0.2144202718204936
885 -0.9080136504754321 0.301003717716499 -0.2913897260905504
886 -0.2568760479608921 0.5544764720965123 -0.7915620871892483
887 -0.4588677658042404 0.6390498016058697 -0.6172971120727226
888 -0.479286599413653 0.4131415307444741 -0.774337414307619
889 -0.6543326376545689 0.465425270213239 -0.5960101653050455
890 -0.62726106568583 0.6566388891196198 -0.4187707305560272
891 -0.4182055937321917 0.8019956271918868 -0.4265056803094153
892 -0.6056229218670258 0.2157156302992828 -0.7659553794796596
893 -0.1998766122306766 0.9041641494623567 -0.3775401047706066
894 -0.589531437391534 0.7795162673218494 -0.2116768133445011
895 -0.8111750131246147 0.4316660338228969 -0.3945371127357869
896 -0.1754218243645993 0.9683306551648988 -0.1776595784203975
897 -0.8996184408039958 0.1877575352016097 -0.394250895928473
898 -0.898668002259568 0.4007184478617416 -0.1783831473488274
899 -0.4092411860650311 0.1874937774378324 -0.8929544977490059
900 -0.1814775698916003 0.1899457802451758 -0.9648764129116696
901 -0.9666754652801235 0.1829557783677825 -0.1790690592684718
902 -0.1579504644787669 0.3925752037289353 -0.9060553847244255
903 -0.6345084040607764 0.3459625104203413 -0.6911649778163691
904 -0.6957070879977945 0.2215744362353202 -0.6832981903361294
905 -0.7222443493556091 0.3498673306176825 -0.5966204411435716
906 -0.5711738728791899 0.4415208605941804 -0.691968017035731
907 -0.5476985105297227 0.3182433890776152 -0.7737877531157474
908 -0.1324187235818216 0.6422485094701209 -0.7549716112069178
909 -0.2435129518093153 0.671880531802633 -0.6994840908024466
910 -0.1159698295349587 0.7439342502894747 -0.6581130828997931
911 -0.1305647938321936 0.5302092670999898 -0.8377535244287836
912 -0.2827145474835399 0.4485825869940017 -0.8478479505707058
913 -0.3934601624968948 0.3740916165914172 -0.8397884036612658
914 -0.3736064160308432 0.4896916864909787 -0.7877945786067644
915 -0.3616748286422339 0.6001115324542001 -0.7134826325441161
916 -0.3470110358732217 0.7135363258472247 -0.6086454244292292
917 -0.3954647852538783 0.859912648049866 -0.3227349397694201
918 -0.5112431725816892 0.7958393689204253 -0.3244535673481623
919 -0.4839330543406627 0.8484591543367014 -0.2143032018864083
920 -0.6111567573975697 0.7246390387731314 -0.3184111828646102
921 -0.5277562808116119 0.7354577960946966 -0.4249413350421758
922 -0.7397445703839235 0.4507734163864957 -0.4995811222081471
923 -0.7277764917972925 0.5502624427014622 -0.4093319217205587
924 -0.6443414026409481 0.5674439786478419 -0.5126709353366963
925 -0.7954139647765704 0.5225290430150425 -0.3070505232762205
926 -0.7068369427736977 0.6316321745025386 -0.3184687307468774
927 -0.7988113284685169 0.3341688067233013 -0.5002316164772956
928 -0.8438707584533101 0.2071756815883257 -0.4949347229542981
929 -0.8627062342180389 0.3132863030003686 -0.3969756236769349
930 -0.3594549144020794 0.2627597700118485 -0.8954046391299936
931 -0.4461016877967759 0.3028197724282095 -0.8421956242889151
932 -0.2424622601807454 0.2613081299441655 -0.9343072907845297
933 -0.2979868806160769 0.1899321328076982 -0.9354836203311199
934 -0.4721319230076199 0.5323219906265844 -0.702655495653793
935 -0.3334196050569099 0.09270548317127311 -0.938209497049393
936 -0.2232471969046419 0.09753219167292423 -0.9698701772204855
937 -0.5628025599517046 0.5577898423207194 -0.6100194835541196
938 -0.5486912477630191 0.6514406810908066 -0.5239875510431591
939 -0.1145609431065657 0.8282478392131306 -0.5485264871939315
940 -0.7426621894282834 0.6609107158340082 -0.107934693631693
941 -0.8270043130330317 0.5519858700689303 -0.1066558271685582
942 -0.3140565805149385 0.9433857358991946 -0.1067324577492667
943 -0.4416249445868726 0.8903253040263891 -0.1108524304152115
944 -0.8293869493276349 0.1139141709627187 -0.546937702063842
945 -0.7453151045876667 0.1153367484541898 -0.6566603607112971
946 -0.9057692268940107 0.2461546322258245 -0.3449492783665378
947 -0.9390958347080052 0.1862908741516102 -0.288781445806174
948 -0.9414861530164859 0.2416963320543079 -0.2349185108707105
949 -0.9705160480582539 0.09395198015877179 -0.2219721286234712
950 -0.9407962350121585 0.09298188759456778 -0.3259705703990753
951 -0.2077230238716024 0.4749191902904718 -0.8551625038830224
952 -0.2327332422183719 0.364684234403875 -0.9015767561022102
953 -0.08097880563628404 0.450454853728461 -0.8891191471283204
954 -0.9401423434511355 0.3291681894101945 -0.08820814662275624
955 -0.9387020447676564 0.2941558802599956 -0.1797520215671801
956 -0.9703108313243254 0.2237419653861697 -0.09185000566048321
957 -0.9052365203151499 0.3529547794203393 -0.2365793016560383
958 -0.6634301813063191 0.1102141230341141 -0.740076510649869
959 -0.4406556781747798 0.7273379477740529 -0.5261198371285327
960 -0.3268552039681989 0.7916634304503543 -0.5161731187561824
961 -0.6560077081660546 0.7469512258974597 -0.1082485702307555
962 -0.6861102303264206 0.6957370080059813 -0.2126094248435643
963 -0.5465193284773264 0.8305955851518032 -0.1068999416605361
964 -0.2141379706638486 0.8456449991196777 -0.4889063969553363
965 -0.1030721001280573 0.8897279366658571 -0.4447025307905365
966 -0.09295134468512395 0.2271041435310299 -0.9694244454893143
967 -0.1709912836726409 0.2937497611878357 -0.9404642782743384
968 -0.07804240246768526 0.3251147130476187 -0.942448835097713
969 -0.09006911499068754 0.9710694682218182 -0.2211597667121877
970 -0.08451441818964398 0.9927352364546683 -0.08563914653567953
971 -0.5546925091629453 0.1089445556821291 -0.8248922984643142
972 -0.2201410084530961 0.9711879703525473 -0.09127903724160143
973 -0.8644705038421934 0.3670460979501348 -0.343464568720566
974 -0.4590840127996756 0.09609582005419413 -0.8831803114652518
975 -0.5106379262066499 0.2023502377992198 -0.8356454329331138
976 -0.09927389645395249 0.9429614356465721 -0.3177552900680108
977 -0.8858629359046569 0.4548388408361307 -0.09147943843961259
978 -0.8867399534426749 0.09645942073818778 -0.4520927284521791
979 -0.3113890478636085 0.8603270721659562 -0.4035767458228345
980 -0.2894652382566897 0.9087483637871612 -0.3006431225808356
981 -0.08728205654751471 0.09154092579977396 -0.9919688006729631
982 -0.9923678813225413 0.08816672296469236 -0.08621262715564287
983 -0.273718711359091 0.9415581517304515 -0.1963321521347289
984 -0.8414429683499944 0.5037317174422904 -0.1955200446424637
985 -0.8613591397750425 0.4179232013914639 -0.2887916724296403
986 -0.1881295958054417 0.9416850325721829 -0.2789920332403912
$EndNodes
$Elements
492
1 9 2 1 14 139 148 151 162 163 164
2 9 2 1 14 147 151 148 165 163 166
3 9 2 1 14 42 145 140 167 168 169
4 9 2 1 14 42 43 145 48 170 167
5 9 2 1 14 142 147 145 171 172 173
6 9 2 1 14 140 145 146 168 174 175
7 9 2 1 14 143 150 153 176 177 178
8 9 2 1 14 149 153 150 179 177 180
9 9 2 1 14 148 154 149 181 182 183
10 9 2 1 14 141 149 154 184 182 185
11 9 2 1 14 139 154 148 186 181 162
12 9 2 1 14 139 156 154 187 188 186
13 9 2 1 14 142 158 147 189 190 171
14 9 2 1 14 145 147 146 172 191 174
15 9 2 1 14 142 160 158 192 193 189
16 9 2 1 14 146 147 148 191 166 194
17 9 2 1 14 51 158 160 195 193 196
18 9 2 1 14 146 148 149 194 183 197
19 9 2 1 14 109 110 143 115 198 199
20 9 2 1 14 53 54 139 59 200 201
21 9 2 1 14 107 108 141 113 202 203
22 9 2 1 14 41 42 140 47 169 204
23 9 2 1 14 144 156 159 205 206 207
24 9 2 1 14 55 159 156 208 206 209
25 9 2 1 14 142 145 161 173 210 211
26 9 2 1 14 43 161 145 212 210 170
27 9 2 1 14 106 157 159 213 214 215
28 9 2 1 14 144 159 157 207 214 216
29 9 2 1 14 53 139 151 201 164 217
30 9 2 1 14 146 149 150 197 180 218
31 9 2 1 14 44 160 161 219 220 221
32 9 2 1 14 140 146 150 175 218 222
33 9 2 1 14 108 153 141 223 224 202
34 9 2 1 14 109 143 153 199 178 225
35 9 2 1 14 141 153 149 224 179 184
36 9 2 1 14 142 161 160 211 220 192
37 9 2 1 14 41 140 152 204 226 227
38 9 2 1 14 52 53 151 58 217 228
39 9 2 1 14 144 154 156 229 188 205
40 9 2 1 14 51 52 158 57 230 195
41 9 2 1 14 147 158 151 190 231 165
42 9 2 1 14 40 41 152 46 227 232
43 9 2 1 14 108 109 153 114 225 223
44 9 2 1 14 54 55 156 60 209 233
45 9 2 1 14 106 107 157 112 234 213
46 9 2 1 14 3 155 110 235 236 116
47 9 2 1 14 3 40 155 45 237 235
48 9 2 1 14 140 150 152 222 238 226
49 9 2 1 14 43 44 161 49 221 212
50 9 2 1 14 143 152 150 239 238 176
51 9 2 1 14 2 159 55 240 208 61
52 9 2 1 14 1 160 44 241 219 50
53 9 2 1 14 2 106 159 111 215 240
54 9 2 1 14 1 51 160 56 196 241
55 9 2 1 14 110 155 143 236 242 198
56 9 2 1 14 107 141 157 203 243 234
57 9 2 1 14 54 156 139 233 187 200
58 9 2 1 14 143 155 152 242 244 239
59 9 2 1 14 141 154 157 185 245 243
60 9 2 1 14 40 152 155 232 244 237
61 9 2 1 14 144 157 154 216 245 229
62 9 2 1 14 52 151 158 228 231 230
63 9 2 1 16 255 258 246 269 270 271
64 9 2 1 16 255 254 258 272 273 269
65 9 2 1 16 53 252 247 274 275 276
66 9 2 1 16 52 252 53 277 274 58
67 9 2 1 16 249 254 252 278 279 280
68 9 2 1 16 252 253 247 281 282 275
69 9 2 1 16 257 260 250 283 284 285
70 9 2 1 16 257 256 260 286 287 283
71 9 2 1 16 255 261 256 288 289 290
72 9 2 1 16 256 261 248 289 291 292
73 9 2 1 16 255 246 261 271 293 288
74 9 2 1 16 261 246 263 293 294 295
75 9 2 1 16 249 265 254 296 297 278
76 9 2 1 16 249 267 265 298 299 296
77 9 2 1 16 253 252 254 281 279 300
78 9 2 1 16 7 265 267 301 299 302
79 9 2 1 16 253 254 255 300 272 303
80 9 2 1 16 253 255 256 303 290 304
81 9 2 1 16 53 247 54 276 305 59
82 9 2 1 16 9 10 246 15 306 307
83 9 2 1 16 98 99 250 104 308 309
84 9 2 1 16 96 97 248 102 310 311
85 9 2 1 16 263 266 251 312 313 314
86 9 2 1 16 11 266 263 315 312 316
87 9 2 1 16 249 252 268 280 317 318
88 9 2 1 16 52 268 252 319 317 277
89 9 2 1 16 95 264 266 320 321 322
90 9 2 1 16 251 266 264 313 321 323
91 9 2 1 16 9 246 258 307 270 324
92 9 2 1 16 253 256 257 304 286 325
93 9 2 1 16 253 257 247 325 326 282
94 9 2 1 16 98 250 260 309 284 327
95 9 2 1 16 97 260 248 328 329 310
96 9 2 1 16 256 248 260 292 329 287
97 9 2 1 16 54 247 259 305 330 331
98 9 2 1 16 51 267 268 332 333 334
99 9 2 1 16 8 9 258 14 324 335
100 9 2 1 16 249 268 267 318 333 298
101 9 2 1 16 261 263 251 295 314 336
102 9 2 1 16 7 8 265 13 337 301
103 9 2 1 16 258 254 265 273 297 338
104 9 2 1 16 54 259 55 331 339 60
105 9 2 1 16 97 98 260 103 327 328
106 9 2 1 16 10 11 263 16 316 340
107 9 2 1 16 95 96 264 101 341 320
108 9 2 1 16 2 55 262 61 342 343
109 9 2 1 16 2 262 99 343 344 105
110 9 2 1 16 257 259 247 345 330 326
111 9 2 1 16 51 268 52 334 319 57
112 9 2 1 16 257 250 259 285 346 345
113 9 2 1 16 6 266 11 347 315 17
114 9 2 1 16 7 267 1 302 348 12
115 9 2 1 16 6 95 266 100 322 347
116 9 2 1 16 1 267 51 348 332 56
117 9 2 1 16 99 262 250 344 349 308
118 9 2 1 16 96 248 264 311 350 341
119 9 2 1 16 10 263 246 340 294 306
120 9 2 1 16 250 262 259 349 351 346
121 9 2 1 16 261 264 248 352 350 291
122 9 2 1 16 55 259 262 339 351 342
123 9 2 1 16 261 251 264 336 323 352
124 9 2 1 16 8 258 265 335 338 337
125 9 2 1 18 362 365 354 376 377 378
126 9 2 1 18 362 361 365 379 380 376
127 9 2 1 18 86 359 353 381 382 383
128 9 2 1 18 85 359 86 384 381 91
129 9 2 1 18 359 356 361 385 386 387
130 9 2 1 18 359 360 353 388 389 382
131 9 2 1 18 357 364 367 390 391 392
132 9 2 1 18 364 363 367 393 394 391
133 9 2 1 18 362 368 363 395 396 397
134 9 2 1 18 355 363 368 398 396 399
135 9 2 1 18 362 354 368 378 400 395
136 9 2 1 18 368 354 371 400 401 402
137 9 2 1 18 361 356 372 386 403 404
138 9 2 1 18 359 361 360 387 405 388
139 9 2 1 18 356 374 372 406 407 403
140 9 2 1 18 361 362 360 379 408 405
141 9 2 1 18 128 372 374 409 407 410
142 9 2 1 18 362 363 360 397 411 408
143 9 2 1 18 86 353 87 383 412 92
144 9 2 1 18 9 355 10 413 414 15
145 9 2 1 18 7 357 8 415 416 13
146 9 2 1 18 130 131 354 136 417 418
147 9 2 1 18 370 358 373 419 420 421
148 9 2 1 18 11 370 373 422 421 423
149 9 2 1 18 359 375 356 424 425 385
150 9 2 1 18 85 375 359 426 424 384
151 9 2 1 18 132 373 371 427 428 429
152 9 2 1 18 358 371 373 430 428 420
153 9 2 1 18 130 354 365 418 377 431
154 9 2 1 18 360 363 364 411 393 432
155 9 2 1 18 84 374 375 433 434 435
156 9 2 1 18 353 360 364 389 432 436
157 9 2 1 18 9 367 355 437 438 413
158 9 2 1 18 8 357 367 416 392 439
159 9 2 1 18 355 367 363 438 394 398
160 9 2 1 18 356 375 374 425 434 406
161 9 2 1 18 87 353 366 412 440 441
162 9 2 1 18 1 88 369 94 442 443
163 9 2 1 18 129 130 365 135 431 444
164 9 2 1 18 7 1 369 12 443 445
165 9 2 1 18 368 371 358 402 430 446
166 9 2 1 18 128 129 372 134 447 409
167 9 2 1 18 365 361 372 380 404 448
168 9 2 1 18 87 366 88 441 449 93
169 9 2 1 18 8 367 9 439 437 14
170 9 2 1 18 10 370 11 450 422 16
171 9 2 1 18 131 132 371 137 429 451
172 9 2 1 18 364 366 353 452 440 436
173 9 2 1 18 84 375 85 435 426 90
174 9 2 1 18 357 366 364 453 452 390
175 9 2 1 18 6 11 373 17 423 454
176 9 2 1 18 5 374 84 455 433 89
177 9 2 1 18 6 373 132 454 427 138
178 9 2 1 18 5 128 374 133 410 455
179 9 2 1 18 7 369 357 445 456 415
180 9 2 1 18 131 371 354 451 401 417
181 9 2 1 18 10 355 370 414 457 450
182 9 2 1 18 355 368 370 399 458 457
183 9 2 1 18 357 369 366 456 459 453
184 9 2 1 18 88 366 369 449 459 442
185 9 2 1 18 368 358 370 446 419 458
186 9 2 1 18 129 365 372 444 448 447
187 9 2 1 20 469 472 460 483 484 485
188 9 2 1 20 469 468 472 486 487 483
189 9 2 1 20 42 466 461 488 489 490
190 9 2 1 20 41 466 42 491 488 47
191 9 2 1 20 466 463 468 492 493 494
192 9 2 1 20 466 467 461 495 496 489
193 9 2 1 20 464 471 474 497 498 499
194 9 2 1 20 471 470 474 500 501 498
195 9 2 1 20 469 475 470 502 503 504
196 9 2 1 20 470 475 462 503 505 506
197 9 2 1 20 469 460 475 485 507 502
198 9 2 1 20 475 460 477 507 508 509
199 9 2 1 20 463 479 468 510 511 493
200 9 2 1 20 467 466 468 495 494 512
201 9 2 1 20 463 481 479 513 514 510
202 9 2 1 20 467 468 469 512 486 515
203 9 2 1 20 117 479 481 516 514 517
204 9 2 1 20 467 469 470 515 504 518
205 9 2 1 20 42 461 43 490 519 48
206 9 2 1 20 119 120 460 125 520 521
207 9 2 1 20 87 88 464 93 522 523
208 9 2 1 20 85 86 462 91 524 525
209 9 2 1 20 465 480 478 526 527 528
210 9 2 1 20 84 478 480 529 527 530
211 9 2 1 20 466 482 463 531 532 492
212 9 2 1 20 41 482 466 533 531 491
213 9 2 1 20 121 480 477 534 535 536
214 9 2 1 20 465 477 480 537 535 526
215 9 2 1 20 119 460 472 521 484 538
216 9 2 1 20 467 470 471 518 500 539
217 9 2 1 20 40 481 482 540 541 542
218 9 2 1 20 467 471 461 539 543 496
219 9 2 1 20 87 464 474 523 499 544
220 9 2 1 20 86 474 462 545 546 524
221 9 2 1 20 470 462 474 506 546 501
222 9 2 1 20 463 482 481 532 541 513
223 9 2 1 20 43 461 473 519 547 548
224 9 2 1 20 118 119 472 124 538 549
225 9 2 1 20 475 477 465 509 537 550
226 9 2 1 20 117 118 479 123 551 516
227 9 2 1 20 472 468 479 487 511 552
228 9 2 1 20 43 473 44 548 553 49
229 9 2 1 20 86 87 474 92 544 545
230 9 2 1 20 84 85 478 90 554 529
231 9 2 1 20 120 121 477 126 536 555
232 9 2 1 20 1 44 476 50 556 557
233 9 2 1 20 1 476 88 557 558 94
234 9 2 1 20 471 473 461 559 547 543
235 9 2 1 20 40 482 41 542 533 46
236 9 2 1 20 464 473 471 560 559 497
237 9 2 1 20 5 84 480 89 530 561
238 9 2 1 20 3 481 40 562 540 45
239 9 2 1 20 5 480 121 561 534 127
240 9 2 1 20 3 117 481 122 517 562
241 9 2 1 20 88 476 464 558 563 522
242 9 2 1 20 120 477 460 555 508 520
243 9 2 1 20 85 462 478 525 564 554
244 9 2 1 20 464 476 473 563 565 560
245 9 2 1 20 475 478 462 566 564 505
246 9 2 1 20 44 473 476 553 565 556
247 9 2 1 20 475 465 478 550 528 566
248 9 2 1 20 118 472 479 549 552 551
249 9 2 1 22 574 578 576 589 590 591
250 9 2 1 22 574 576 579 591 592 593
251 9 2 1 22 575 580 571 594 595 596
252 9 2 1 22 576 580 575 597 594 598
253 9 2 1 22 578 580 576 599 597 590
254 9 2 1 22 577 578 581 600 601 602
255 9 2 1 22 64 65 567 70 603 604
256 9 2 1 22 31 32 569 37 605 606
257 9 2 1 22 106 570 107 607 608 112
258 9 2 1 22 29 30 571 35 609 610
259 9 2 1 22 108 568 109 611 612 114
260 9 2 1 22 569 579 576 613 592 614
261 9 2 1 22 574 579 568 593 615 616
262 9 2 1 22 577 581 583 602 617 618
263 9 2 1 22 107 570 573 608 619 620
264 9 2 1 22 30 575 571 621 596 609
265 9 2 1 22 577 567 578 622 623 600
266 9 2 1 22 572 586 588 624 625 626
267 9 2 1 22 574 573 581 627 628 629
268 9 2 1 22 574 581 578 629 601 589
269 9 2 1 22 33 588 586 630 625 631
270 9 2 1 22 570 581 573 632 628 619
271 9 2 1 22 569 576 575 614 598 633
272 9 2 1 22 568 573 574 634 627 616
273 9 2 1 22 30 31 575 36 635 621
274 9 2 1 22 107 573 108 620 636 113
275 9 2 1 22 110 587 588 637 638 639
276 9 2 1 22 64 567 577 604 622 640
277 9 2 1 22 572 588 587 626 638 641
278 9 2 1 22 31 569 575 606 633 635
279 9 2 1 22 108 573 568 636 634 611
280 9 2 1 22 578 567 580 623 642 599
281 9 2 1 22 63 64 577 69 640 643
282 9 2 1 22 568 579 587 615 644 645
283 9 2 1 22 569 586 579 646 647 613
284 9 2 1 22 580 582 571 648 649 595
285 9 2 1 22 65 66 582 71 650 651
286 9 2 1 22 62 63 583 68 652 653
287 9 2 1 22 580 567 582 642 654 648
288 9 2 1 22 4 585 66 655 656 72
289 9 2 1 22 4 29 585 34 657 655
290 9 2 1 22 65 582 567 651 654 603
291 9 2 1 22 572 587 579 641 644 658
292 9 2 1 22 572 579 586 658 647 624
293 9 2 1 22 570 583 581 659 617 632
294 9 2 1 22 32 33 586 38 631 660
295 9 2 1 22 109 587 110 661 637 115
296 9 2 1 22 2 62 584 67 662 663
297 9 2 1 22 2 584 106 663 664 111
298 9 2 1 22 63 577 583 643 618 652
299 9 2 1 22 3 588 33 665 630 39
300 9 2 1 22 62 583 584 653 666 662
301 9 2 1 22 3 110 588 116 639 665
302 9 2 1 22 66 585 582 656 667 650
303 9 2 1 22 106 584 570 664 668 607
304 9 2 1 22 29 571 585 610 669 657
305 9 2 1 22 109 568 587 612 645 661
306 9 2 1 22 32 586 569 660 646 605
307 9 2 1 22 570 584 583 668 666 659
308 9 2 1 22 582 585 571 667 669 649
309 9 2 1 24 671 679 682 693 694 695
310 9 2 1 24 679 678 682 696 697 694
311 9 2 1 24 31 676 670 698 699 700
312 9 2 1 24 30 676 31 701 698 36
313 9 2 1 24 676 673 678 702 703 704
314 9 2 1 24 676 677 670 705 706 699
315 9 2 1 24 674 681 684 707 708 709
316 9 2 1 24 680 684 681 710 708 711
317 9 2 1 24 679 685 680 712 713 714
318 9 2 1 24 680 685 672 713 715 716
319 9 2 1 24 671 685 679 717 712 693
320 9 2 1 24 671 687 685 718 719 717
321 9 2 1 24 678 673 689 703 720 721
322 9 2 1 24 676 678 677 704 722 705
323 9 2 1 24 673 690 689 723 724 720
324 9 2 1 24 678 679 677 696 725 722
325 9 2 1 24 73 689 690 726 724 727
326 9 2 1 24 679 680 677 714 728 725
327 9 2 1 24 31 670 32 700 729 37
328 9 2 1 24 119 672 120 730 731 125
329 9 2 1 24 117 674 118 732 733 123
330 9 2 1 24 75 76 671 81 734 735
331 9 2 1 24 675 687 691 736 737 738
332 9 2 1 24 77 691 687 739 737 740
333 9 2 1 24 676 692 673 741 742 702
334 9 2 1 24 30 692 676 743 741 701
335 9 2 1 24 121 688 691 744 745 746
336 9 2 1 24 675 691 688 738 745 747
337 9 2 1 24 75 671 682 735 695 748
338 9 2 1 24 680 681 677 711 749 728
339 9 2 1 24 29 690 692 750 751 752
340 9 2 1 24 670 677 681 706 749 753
341 9 2 1 24 119 684 672 754 755 730
342 9 2 1 24 118 674 684 733 709 756
343 9 2 1 24 680 672 684 716 755 710
344 9 2 1 24 673 692 690 742 751 723
345 9 2 1 24 32 670 683 729 757 758
346 9 2 1 24 74 75 682 80 748 759
347 9 2 1 24 675 685 687 760 719 736
348 9 2 1 24 73 74 689 79 761 726
349 9 2 1 24 678 689 682 721 762 697
350 9 2 1 24 32 683 33 758 763 38
351 9 2 1 24 118 684 119 756 754 124
352 9 2 1 24 120 688 121 764 744 126
353 9 2 1 24 76 77 687 82 740 765
354 9 2 1 24 3 33 686 39 766 767
355 9 2 1 24 3 686 117 767 768 122
356 9 2 1 24 670 681 683 753 769 757
357 9 2 1 24 29 692 30 752 743 35
358 9 2 1 24 674 683 681 770 769 707
359 9 2 1 24 5 691 77 771 739 83
360 9 2 1 24 4 690 29 772 750 34
361 9 2 1 24 5 121 691 127 746 771
362 9 2 1 24 4 73 690 78 727 772
363 9 2 1 24 117 686 674 768 773 732
364 9 2 1 24 76 687 671 765 718 734
365 9 2 1 24 120 672 688 731 774 764
366 9 2 1 24 674 686 683 773 775 770
367 9 2 1 24 685 688 672 776 774 715
368 9 2 1 24 33 683 686 763 775 766
369 9 2 1 24 675 688 685 747 776 760
370 9 2 1 24 74 682 689 759 762 761
371 9 2 1 26 778 790 787 799 800 801
372 9 2 1 26 785 786 789 802 803 804
373 9 2 1 26 779 789 786 805 803 806
374 9 2 1 26 787 791 788 807 808 809
375 9 2 1 26 780 788 791 810 808 811
376 9 2 1 26 786 787 790 812 800 813
377 9 2 1 26 781 785 789 814 804 815
378 9 2 1 26 778 797 790 816 817 799
379 9 2 1 26 779 786 790 806 813 818
380 9 2 1 26 778 787 788 801 809 819
381 9 2 1 26 75 777 76 820 821 81
382 9 2 1 26 130 779 131 822 823 136
383 9 2 1 26 21 780 22 824 825 27
384 9 2 1 26 128 781 129 826 827 134
385 9 2 1 26 19 778 20 828 829 25
386 9 2 1 26 786 784 787 830 831 812
387 9 2 1 26 129 781 789 827 815 832
388 9 2 1 26 777 783 784 833 834 835
389 9 2 1 26 782 797 798 836 837 838
390 9 2 1 26 18 798 797 839 837 840
391 9 2 1 26 785 784 786 841 830 802
392 9 2 1 26 777 784 785 835 841 842
393 9 2 1 26 129 789 130 832 843 135
394 9 2 1 26 132 796 798 844 845 846
395 9 2 1 26 75 783 777 847 833 820
396 9 2 1 26 782 798 796 838 845 848
397 9 2 1 26 21 788 780 849 810 824
398 9 2 1 26 20 778 788 829 819 850
399 9 2 1 26 130 789 779 843 805 822
400 9 2 1 26 74 783 75 851 847 80
401 9 2 1 26 76 793 77 852 853 82
402 9 2 1 26 787 784 791 831 854 807
403 9 2 1 26 781 793 785 855 856 814
404 9 2 1 26 20 788 21 850 849 26
405 9 2 1 26 790 797 782 817 836 857
406 9 2 1 26 777 785 793 842 856 858
407 9 2 1 26 4 794 73 859 860 78
408 9 2 1 26 4 22 794 28 861 859
409 9 2 1 26 784 783 791 834 862 854
410 9 2 1 26 76 777 793 821 858 852
411 9 2 1 26 73 792 74 863 864 79
412 9 2 1 26 783 792 791 865 866 862
413 9 2 1 26 74 792 783 864 865 851
414 9 2 1 26 18 797 19 840 867 24
415 9 2 1 26 131 796 132 868 844 137
416 9 2 1 26 5 77 795 83 869 870
417 9 2 1 26 5 795 128 870 871 133
418 9 2 1 26 780 791 792 811 866 872
419 9 2 1 26 779 790 796 818 873 874
420 9 2 1 26 790 782 796 857 848 873
421 9 2 1 26 6 798 18 875 839 23
422 9 2 1 26 77 793 795 853 876 869
423 9 2 1 26 6 132 798 138 846 875
424 9 2 1 26 128 795 781 871 877 826
425 9 2 1 26 22 780 794 825 878 861
426 9 2 1 26 131 779 796 823 874 868
427 9 2 1 26 19 797 778 867 816 828
428 9 2 1 26 781 795 793 877 876 855
429 9 2 1 26 780 792 794 872 879 878
430 9 2 1 26 73 794 792 860 879 863
431 9 2 1 28 889 892 881 903 904 905
432 9 2 1 28 889 888 892 906 907 903
433 9 2 1 28 97 886 880 908 909 910
434 9 2 1 28 96 886 97 911 908 102
435 9 2 1 28 886 883 888 912 913 914
436 9 2 1 28 886 887 880 915 916 909
437 9 2 1 28 884 891 894 917 918 919
438 9 2 1 28 890 894 891 920 918 921
439 9 2 1 28 889 895 890 922 923 924
440 9 2 1 28 890 895 882 923 925 926
441 9 2 1 28 889 881 895 905 927 922
442 9 2 1 28 881 897 895 928 929 927
443 9 2 1 28 883 899 888 930 931 913
444 9 2 1 28 883 900 899 932 933 930
445 9 2 1 28 886 888 887 914 934 915
446 9 2 1 28 18 899 900 935 933 936
447 9 2 1 28 887 888 889 934 906 937
448 9 2 1 28 889 890 887 924 938 937
449 9 2 1 28 97 880 98 910 939 103
450 9 2 1 28 64 882 65 940 941 70
451 9 2 1 28 62 884 63 942 943 68
452 9 2 1 28 20 21 881 26 944 945
453 9 2 1 28 885 897 901 946 947 948
454 9 2 1 28 22 901 897 949 947 950
455 9 2 1 28 886 902 883 951 952 912
456 9 2 1 28 96 902 886 953 951 911
457 9 2 1 28 66 898 901 954 955 956
458 9 2 1 28 885 901 898 948 955 957
459 9 2 1 28 20 881 892 945 904 958
460 9 2 1 28 887 890 891 938 921 959
461 9 2 1 28 887 891 880 959 960 916
462 9 2 1 28 64 894 882 961 962 940
463 9 2 1 28 63 884 894 943 919 963
464 9 2 1 28 890 882 894 926 962 920
465 9 2 1 28 98 880 893 939 964 965
466 9 2 1 28 95 900 902 966 967 968
467 9 2 1 28 2 99 896 105 969 970
468 9 2 1 28 19 20 892 25 958 971
469 9 2 1 28 2 896 62 970 972 67
470 9 2 1 28 883 902 900 952 967 932
471 9 2 1 28 885 895 897 973 929 946
472 9 2 1 28 18 19 899 24 974 935
473 9 2 1 28 888 899 892 931 975 907
474 9 2 1 28 98 893 99 965 976 104
475 9 2 1 28 63 894 64 963 961 69
476 9 2 1 28 65 898 66 977 954 71
477 9 2 1 28 21 22 897 27 950 978
478 9 2 1 28 880 891 893 960 979 964
479 9 2 1 28 95 902 96 968 953 101
480 9 2 1 28 884 893 891 980 979 917
481 9 2 1 28 6 18 900 23 936 981
482 9 2 1 28 4 901 22 982 949 28
483 9 2 1 28 6 900 95 981 966 100
484 9 2 1 28 4 66 901 72 956 982
485 9 2 1 28 62 896 884 972 983 942
486 9 2 1 28 21 897 881 978 928 944
487 9 2 1 28 65 882 898 941 984 977
488 9 2 1 28 882 895 898 925 985 984
489 9 2 1 28 884 896 893 983 986 980
490 9 2 1 28 99 893 896 976 986 969
491 9 2 1 28 885 898 895 957 985 973
492 9 2 1 28 19 892 899 971 975 974
$EndElements
